<?xml version="1.0" encoding="utf-8"?>
<!-- Generator: Adobe Illustrator 22.0.1, SVG Export Plug-In . SVG Version: 6.00 Build 0)  -->
<svg version="1.1" xmlns="http://www.w3.org/2000/svg" xmlns:xlink="http://www.w3.org/1999/xlink" x="0px" y="0px"
	 viewBox="0 0 1080 1080" style="enable-background:new 0 0 1080 1080;" xml:space="preserve">
<style type="text/css">
	.st0{fill:#002B54;}
	.st1{fill:#00D9B2;}
</style>
<g id="MEDICINA_INTERNA">
	<path class="st0" d="M-421.9,587.1c63.2-6.7,124.6-39.9,177.7-98c8.4-10,10-20,8.4-31.6c71.4-86.4,114.5-204.3,114.5-295.7
		c0-141.2-66.4-156.1-179.3-179.4v-1.6c-8.4-13.3-21.7-21.6-38.2-21.6c-23.2,0-41.5,18.3-41.5,39.9c0,21.6,18.3,39.8,41.5,39.8
		c10,0,18.3-3.3,25-10l1.6,1.7c109.6,23.3,137.9,28.3,137.9,131.2c0,79.8-39.8,187.7-103,265.8c-10,0-19.9,3.3-28.3,11.6
		c-31.5,34.9-83,76.4-142.8,76.4c-61.5,0-111.2-41.5-142.8-74.7c-8.4-8.3-18.3-13.3-28.3-13.3c-63-78.1-104.6-186-104.6-265.8
		c0-102.9,29.9-107.9,139.5-131.2V29c6.7,6.6,16.6,10,26.6,10c23.3,0,41.5-18.3,41.5-39.8c0-21.6-18.3-39.9-41.5-39.9
		c-18.2,0-31.5,8.3-38.2,21.6h-1.6C-709.2,5.7-777.3,19-777.3,161.8c0,91.4,43.1,209.3,116.1,297.3c-1.6,10,0,21.6,8.4,29.9
		c53.1,56.5,113,89.7,174.4,98l-1.7,179.3C-480,889.3-588,989-719.2,989c-131.1,0-237.5-99.7-237.5-222.6V608.7
		c76.5-11.6,134.6-71.4,134.6-146.2c0-83.1-73.1-149.5-162.8-149.5c-88,0-161,66.4-161,149.5c0,74.8,59.7,134.5,134.5,146.2v157.8
		c0,149.5,131.3,270.8,292.3,270.8c162.9,0,294-121.2,294-270.8V587.1H-421.9z"/>
	<path class="st1" d="M-983.7,399.1L-983.7,399.1c42.6,0,77.1,32.8,77.1,73.8c0,41-34.5,75.5-77.1,75.5c-44.3,0-77.1-34.4-77.1-75.5
		C-1060.8,431.9-1028,399.1-983.7,399.1"/>
</g>
<g id="CIRUGÃA_GENERAL">
	<path class="st1" d="M999.9,18.9L943.9,75c0,0-180.7,302.3-180.7,302.3l48.6,48.6c0,0,42.6-42.6,103.5-103.5
		C1005,232.7,1035.4,110.9,999.9,18.9z"/>
	<g>
		<path class="st1" d="M403.1,665.1L65,1043.4c24.7,24.7,64.8,24.7,89.5,0l281-281L403.1,665.1z"/>
		<polygon class="st1" points="698.5,441.9 727.3,470.6 630,567.9 532.7,535.5 694.8,438.2 		"/>
	</g>
	<g>
		<path class="st1" d="M435.5,697.6L122.1,1011c-24.7,24.7-50.3,39.2-57.1,32.4c-24.7-24.7-24.7-64.8,0-89.5l281-281L435.5,697.6z"
			/>
		<polygon class="st1" points="694.8,438.2 565.2,567.9 540.5,478.4 637.7,381.1 		"/>
	</g>
	<polygon class="st1" points="630,567.9 581.4,616.5 516.5,584.1 597.6,535.5 	"/>
	<polygon class="st1" points="597.6,535.5 532.7,600.3 491.9,527 540.5,478.4 	"/>
	<path class="st1" d="M718.8,462.1l-23.9-23.9l-57.1-57.1L943.9,75c9.3,64-14.3,136-77.1,198.7C804,336.5,718.8,462.1,718.8,462.1z"
		/>
	<polygon class="st1" points="581.4,616.5 532.7,665.1 467.9,632.7 549,584.1 	"/>
	<g>
		<polygon class="st1" points="532.7,665.1 484.1,713.8 419.3,681.4 500.3,632.7 		"/>
		<polygon class="st1" points="549,584.1 484.1,648.9 443.2,575.6 491.9,527 		"/>
	</g>
	<polygon class="st1" points="500.3,632.7 435.5,697.6 394.6,624.2 443.2,575.6 	"/>
	<polygon class="st1" points="484.1,713.8 435.5,762.4 403.1,730 411.2,689.5 451.7,681.4 	"/>
	
		<rect x="364.4" y="636.7" transform="matrix(0.7071 -0.7071 0.7071 0.7071 -361.9774 480.3411)" class="st1" width="68.8" height="80.8"/>
	<path class="st0" d="M1016,12.7c-2.1-5.4-6.8-9.4-12.5-10.6c-5.7-1.2-11.6,0.5-15.7,4.7L625.6,368.9L52.8,941.7
		c-31.4,31.4-31.4,82.5,0,113.8c15.2,15.2,35.4,23.6,56.9,23.6c0,0,0,0,0,0c21.5,0,41.7-8.4,56.9-23.6l572.8-572.8
		c6.2-6.2,6.7-15.9,1.4-22.7L781,420l18.9,18.3c6.7,6.5,17.5,6.4,24.1-0.2l103.5-103.5C1019.3,242.7,1054.8,113.4,1016,12.7z
		 M581.4,592.2L516.2,527l24.3-24.3l65.2,65.2L581.4,592.2z M532.8,640.8l-65.2-65.2l24.3-24.3l65.2,65.2L532.8,640.8z M484.1,689.4
		l-65.2-65.2l24.3-24.3l65.2,65.2L484.1,689.4z M435.5,738.1l-65.2-65.2l24.3-24.3l65.2,65.2L435.5,738.1z M142.3,1031.2
		c-8.7,8.7-20.3,13.5-32.6,13.5s-23.9-4.8-32.6-13.5c-18-18-18-47.2,0-65.2L346,697.2l65.2,65.2L142.3,1031.2z M630,543.6
		l-65.2-65.2l72.9-72.9l65.2,65.2L630,543.6z M903.2,310.2l-91.6,91.6l-18.9-18.3c-6.7-6.5-17.5-6.4-24.1,0.2l-51.9,51.9l-54.6-54.6
		l265.5-265.5c-4.9,50.2-31.3,104.3-72.9,145.9l-54.9,54.9c-6.7,6.7-6.7,17.6,0,24.3c3.4,3.4,7.8,5,12.2,5c4.4,0,8.8-1.7,12.2-5
		l54.9-54.9c58.3-58.3,89.6-135.9,83-204.6l30-30C1011.2,135.1,977.6,235.8,903.2,310.2z"/>
</g>
<g id="lineas">
</g>
</svg>
