<?xml version="1.0" encoding="utf-8"?>
<!-- Generator: Adobe Illustrator 22.0.1, SVG Export Plug-In . SVG Version: 6.00 Build 0)  -->
<svg version="1.1" xmlns="http://www.w3.org/2000/svg" xmlns:xlink="http://www.w3.org/1999/xlink" x="0px" y="0px"
	 viewBox="0 0 1080 680" style="enable-background:new 0 0 1080 680;" xml:space="preserve">
<style type="text/css">
	.st0{fill:#002B54;}
	.st1{fill:#00D9B2;}
	.st2{display:none;}
	.st3{display:inline;fill:#00D9B2;}
	.st4{display:inline;}
	.st5{display:inline;fill:#002B54;}
</style>
<g id="MEDICINA_INTERNA">
	<path class="st0" d="M-421.9,400c63.2-6.7,124.6-39.9,177.7-98c8.4-10,10-20,8.4-31.6C-164.4,184-121.3,66.1-121.3-25.3
		c0-141.2-66.4-156.1-179.3-179.4v-1.6c-8.4-13.3-21.7-21.6-38.2-21.6c-23.2,0-41.5,18.3-41.5,39.9c0,21.6,18.3,39.8,41.5,39.8
		c10,0,18.3-3.3,25-10l1.6,1.7c109.6,23.3,137.9,28.3,137.9,131.2c0,79.8-39.8,187.7-103,265.8c-10,0-19.9,3.3-28.3,11.6
		c-31.5,34.9-83,76.4-142.8,76.4c-61.5,0-111.2-41.5-142.8-74.7c-8.4-8.3-18.3-13.3-28.3-13.3c-63-78.1-104.6-186-104.6-265.8
		c0-102.9,29.9-107.9,139.5-131.2v-1.7c6.7,6.6,16.6,10,26.6,10c23.3,0,41.5-18.3,41.5-39.8c0-21.6-18.3-39.9-41.5-39.9
		c-18.2,0-31.5,8.3-38.2,21.6h-1.6c-111.2,24.9-179.3,38.2-179.3,181c0,91.4,43.1,209.3,116.1,297.3c-1.6,10,0,21.6,8.4,29.9
		c53.1,56.5,113,89.7,174.4,98l-1.7,179.3c0,122.9-107.9,222.6-239.2,222.6c-131.1,0-237.5-99.7-237.5-222.6V421.6
		c76.5-11.6,134.6-71.4,134.6-146.2c0-83.1-73.1-149.5-162.8-149.5c-88,0-161,66.4-161,149.5c0,74.8,59.7,134.5,134.5,146.2v157.8
		c0,149.5,131.3,270.8,292.3,270.8c162.9,0,294-121.2,294-270.8V400H-421.9z"/>
	<path class="st1" d="M-983.7,212L-983.7,212c42.6,0,77.1,32.8,77.1,73.8c0,41-34.5,75.5-77.1,75.5c-44.3,0-77.1-34.4-77.1-75.5
		C-1060.8,244.8-1028,212-983.7,212"/>
</g>
<g id="CIRUGÍA_GENERAL" class="st2">
	<path class="st3" d="M999.9-168.2l-56.1,56.1c0,0-180.7,302.3-180.7,302.3l48.6,48.6c0,0,42.6-42.6,103.5-103.5
		C1005,45.7,1035.4-76.2,999.9-168.2z"/>
	<g class="st4">
		<path class="st1" d="M403.1,478L65,856.3c24.7,24.7,64.8,24.7,89.5,0l281-281L403.1,478z"/>
		<polygon class="st1" points="698.5,254.8 727.3,283.5 630,380.8 532.7,348.4 694.8,251.1 		"/>
	</g>
	<g class="st4">
		<path class="st1" d="M435.5,510.5L122.1,823.9c-24.7,24.7-50.3,39.2-57.1,32.4c-24.7-24.7-24.7-64.8,0-89.5l281-281L435.5,510.5z"
			/>
		<polygon class="st1" points="694.8,251.1 565.2,380.8 540.5,291.3 637.7,194 		"/>
	</g>
	<polygon class="st3" points="630,380.8 581.4,429.4 516.5,397 597.6,348.4 	"/>
	<polygon class="st3" points="597.6,348.4 532.7,413.2 491.9,339.9 540.5,291.3 	"/>
	<path class="st3" d="M718.8,275l-23.9-23.9L637.7,194l306.1-306.1c9.3,64-14.3,136-77.1,198.7C804,149.4,718.8,275,718.8,275z"/>
	<polygon class="st3" points="581.4,429.4 532.7,478 467.9,445.6 549,397 	"/>
	<g class="st4">
		<polygon class="st1" points="532.7,478 484.1,526.7 419.3,494.3 500.3,445.6 		"/>
		<polygon class="st1" points="549,397 484.1,461.8 443.2,388.5 491.9,339.9 		"/>
	</g>
	<polygon class="st3" points="500.3,445.6 435.5,510.5 394.6,437.1 443.2,388.5 	"/>
	<polygon class="st3" points="484.1,526.7 435.5,575.3 403.1,542.9 411.2,502.4 451.7,494.3 	"/>
	
		<rect x="364.4" y="449.6" transform="matrix(0.7071 -0.7071 0.7071 0.7071 -229.68 425.5417)" class="st3" width="68.8" height="80.8"/>
	<path class="st5" d="M1016-174.4c-2.1-5.4-6.8-9.4-12.5-10.6c-5.7-1.2-11.6,0.5-15.7,4.7L625.6,181.8L52.8,754.6
		c-31.4,31.4-31.4,82.5,0,113.8C68,883.7,88.2,892,109.7,892c0,0,0,0,0,0c21.5,0,41.7-8.4,56.9-23.6l572.8-572.8
		c6.2-6.2,6.7-15.9,1.4-22.7l40.1-40.1l18.9,18.3c6.7,6.5,17.5,6.4,24.1-0.2l103.5-103.5C1019.3,55.6,1054.8-73.7,1016-174.4z
		 M581.4,405.1l-65.2-65.2l24.3-24.3l65.2,65.2L581.4,405.1z M532.8,453.7l-65.2-65.2l24.3-24.3l65.2,65.2L532.8,453.7z
		 M484.1,502.4l-65.2-65.2l24.3-24.3l65.2,65.2L484.1,502.4z M435.5,551l-65.2-65.2l24.3-24.3l65.2,65.2L435.5,551z M142.3,844.1
		c-8.7,8.7-20.3,13.5-32.6,13.5s-23.9-4.8-32.6-13.5c-18-18-18-47.2,0-65.2L346,510.1l65.2,65.2L142.3,844.1z M630,356.5l-65.2-65.2
		l72.9-72.9l65.2,65.2L630,356.5z M903.2,123.1l-91.6,91.6l-18.9-18.3c-6.7-6.5-17.5-6.4-24.1,0.2l-51.9,51.9L662.1,194L927.5-71.5
		c-4.9,50.2-31.3,104.3-72.9,145.9l-54.9,54.9c-6.7,6.7-6.7,17.6,0,24.3c3.4,3.4,7.8,5,12.2,5c4.4,0,8.8-1.7,12.2-5l54.9-54.9
		c58.3-58.3,89.6-135.9,83-204.6l30-30C1011.2-52,977.6,48.7,903.2,123.1z"/>
</g>
<g id="__x0D_GINECOLOGÍA_Y_OBSTETRICIA">
	<path class="st1" d="M709.5,97.2c0,0-25.2-28-30.9-30.9c-5.6-2.8-100.9-36.4-100.9-36.4h-70.1l-70.1,15.4l-50.5,35l-9.8,47.2
		l19.7,49c0,0,22.4,69.2,21,73.4c-1.4,4.1,51.9,73.4,51.9,73.4l-11.2,43c0,0-29.4,120.6-30.9,127.6c-1.4,7,65.9,161.2,65.9,161.2
		h98.1l42.1-107.9L650.6,414l-15.4-127.6l50.5-68.7L709.5,97.2z"/>
	<path class="st0" d="M1076.7,133.5c-7.5-27.8-24.7-48.9-51.2-62.7C981.8,48,912.8,46,820.5,65c-39,8-73.7,18.1-96.2,25.1
		c-1-2.3-2.1-4.5-3.4-6.8c-15.1-27.6-45.9-50.3-88.9-65.5C596,5.1,560,0.5,540.1,0.5c-19.9,0-55.9,4.5-92,17.3
		c-43,15.2-73.7,37.9-88.9,65.5c-1.2,2.3-2.3,4.5-3.4,6.8C333.5,83,298.8,73,259.7,65C167.4,46,98.5,48,54.7,70.8
		C28.2,84.6,11,105.7,3.5,133.5C-13,195.1,88.5,250.9,160.7,273.4c33.9,10.5,65.7,15.9,94.9,15.9c9,0,17.8-0.5,26.3-1.5
		c30-3.6,56.7-13.4,79.6-29.1c12.3-8.5,22.1-17.9,29.9-26.8c24.4,46.8,42.4,97.6,42.3,109.9c-1.3,7.8-5.7,17.9-10.4,28.7
		c-10.7,24.5-24,55.1-16.7,91.6c19.2,94.5,62.5,196.2,64.3,200.5l5.8,13.6h127l5.8-13.6c1.8-4.3,45.1-106,64.3-200.5
		c7.4-36.4-5.9-67-16.7-91.5c-4.7-10.7-9.1-20.8-10.4-28.7c-0.1-12.4,17.8-63.1,42.3-109.9c7.7,8.9,17.5,18.3,29.9,26.8
		c22.8,15.7,49.6,25.5,79.6,29.1c8.5,1,17.3,1.5,26.3,1.5c29.2,0,61-5.3,94.9-15.9C991.8,250.9,1093.2,195.1,1076.7,133.5z
		 M539.9,277.7c-12.6-36.7-30.2-69.1-52.5-96.7c-0.6-0.7-1.2-1.3-1.7-2c20.6,2.9,40.9,4.3,61,4.3c15.6,0,31.1-0.9,46.2-2.6
		c-0.1,0.1-0.2,0.2-0.3,0.3C570.2,208.5,552.6,241,539.9,277.7z M540.1,45.4c39.1,0,119.8,19.9,141.5,59.5c0.9,1.5,1.6,3.1,2.2,4.7
		c-58.7,27.1-125,35.3-197.3,24.2c-44.1-6.8-77.5-19.2-90.1-24.3c0.7-1.5,1.4-3.1,2.2-4.6C420.3,65.3,501,45.4,540.1,45.4z
		 M335.9,221.7c-38.7,26.7-94.7,29.8-161.9,8.9c-34.5-10.7-69.9-27.9-94.9-45.8c-24.7-17.8-34.1-33.1-32.3-39.7
		c4.1-15.3,13.4-26.6,28.6-34.5c63.5-33.1,204.5,1.9,273.1,24.2c1.7,20.3,9.4,39.3,18.4,55.1C361.3,198.6,351.4,211,335.9,221.7z
		 M464.3,388.4c5.9-13.6,11.6-26.5,13.7-40.2c0.8-5.3,3.3-21.3-20.1-78.9c-14.1-34.7-31.6-69.5-48.2-95.3c-1.9-3.1-3.7-6-5.3-9
		c14.8,9.8,33.1,25,49.9,46.4c20.9,26.6,37,58.7,47.8,95.4c8.1,27.5,13.1,57.6,15.2,90c-1.4,23.6-1.4,48.1,0.1,73.7v59.2
		c-14,1.5-28.8,4.8-43.6,10.7c-8.8-27.8-17.4-58.2-23.3-87.4C445.9,430.5,455.2,409.1,464.3,388.4z M506.5,631.3
		c-4.4-10.9-11-27.8-18.2-48.2c21.9-9.3,46.1-11.7,72.3-7.1c12.8,2.3,23.6,5.8,30.9,8.7c-7.1,19.6-13.4,35.9-17.7,46.5L506.5,631.3
		L506.5,631.3z M602.2,348.2c2.1,13.6,7.8,26.5,13.7,40.2c9,20.7,18.4,42.1,13.8,64.7c-6,29.8-14.8,60.9-23.9,89.1
		c-10.8-4.1-25.8-8.7-43.6-11.3v-61.5h0c1.4-25.1,1.4-49.3,0-72.4c2.1-32.5,7.2-62.6,15.3-90.1c10.8-36.7,26.9-68.8,47.9-95.3
		c17-21.5,35.4-36.7,50.3-46.6c-1.6,3-3.4,6-5.4,9.1c-16.5,25.8-34.1,60.6-48.2,95.3C616.5,283.6,598.9,327,602.2,348.2z
		 M1001.1,184.8c-24.9,17.9-60.4,35.1-94.9,45.8c-67,20.9-120.8,18.3-160-7.6c-16.5-10.9-26.9-24-32.9-33.3
		c9-15.7,16.7-34.7,18.4-55c68.5-22.3,209.5-57.3,273-24.2c15.1,7.9,24.5,19.2,28.6,34.5C1035.1,151.7,1025.8,167,1001.1,184.8z"/>
	<g>
		<path class="st1" d="M948.1,235.1c-5.5-26.9-43.2-42.1-84.2-33.9c-41,8.2-69.8,36.7-64.3,63.6c5.5,26.9,43.2,42.1,84.2,33.9
			C924.8,290.4,953.6,262,948.1,235.1z"/>
		<path class="st1" d="M861.7,323.3L861.7,323.3c-43.7,0-77.5-21.7-84.1-54.1c-3.2-15.5,0.3-31.4,10-46c14.2-21.4,41.1-37.9,71.9-44
			c8.8-1.8,17.8-2.7,26.5-2.7c43.7,0,77.5,21.7,84.1,54c3.2,15.5-0.3,31.4-10,46c-14.2,21.4-41.1,37.9-71.9,44
			C879.3,322.4,870.4,323.3,861.7,323.3z M886,221.4c-5.8,0-11.8,0.6-17.7,1.8c-22.8,4.6-37.4,15.8-43.3,24.8
			c-2.1,3.1-4.3,7.8-3.4,12.3c2.3,11.4,22.2,18.1,40.2,18.1l0,0c5.8,0,11.8-0.6,17.7-1.8c22.8-4.6,37.4-15.8,43.3-24.9
			c2.1-3.1,4.3-7.7,3.4-12.2C923.8,228.2,903.9,221.4,886,221.4z"/>
		<path class="st1" d="M132.1,235.1c5.5-26.9,43.2-42.1,84.2-33.9c41,8.2,69.8,36.7,64.3,63.6c-5.5,26.9-43.2,42.1-84.3,33.9
			C155.4,290.4,126.6,262,132.1,235.1z"/>
		<path class="st1" d="M218.6,323.3c-8.7,0-17.7-0.9-26.5-2.7c-30.8-6.1-57.7-22.6-71.9-44c-9.7-14.6-13.1-30.5-10-46
			c6.6-32.3,40.4-54,84.1-54c8.7,0,17.7,0.9,26.5,2.7c30.8,6.2,57.7,22.6,71.9,44c9.7,14.6,13.1,30.5,10,46
			C296,301.6,262.3,323.3,218.6,323.3z M194.2,221.4c-17.9,0-37.8,6.8-40.2,18.2c-0.9,4.5,1.3,9.1,3.4,12.2c6,9,20.5,20.3,43.3,24.9
			c5.9,1.2,11.9,1.8,17.7,1.8c17.9,0,37.8-6.8,40.2-18.1c0.9-4.5-1.3-9.1-3.4-12.3c-6-9-20.5-20.3-43.3-24.8
			C206,222,200.1,221.4,194.2,221.4z"/>
	</g>
</g>
<g id="lineas">
</g>
</svg>
