<?xml version="1.0" encoding="utf-8"?>
<!-- Generator: Adobe Illustrator 22.0.1, SVG Export Plug-In . SVG Version: 6.00 Build 0)  -->
<svg version="1.1" xmlns="http://www.w3.org/2000/svg" xmlns:xlink="http://www.w3.org/1999/xlink" x="0px" y="0px"
	 viewBox="0 0 1080 1080" style="enable-background:new 0 0 1080 1080;" xml:space="preserve">
<style type="text/css">
	.st0{fill:#002B54;}
	.st1{fill:#00D9B2;}
</style>
<g id="Capa_1">
	<path class="st0" d="M749.1,629c63.2-6.7,124.6-39.9,177.7-98c8.4-10,10-20,8.4-31.6c71.4-86.4,114.5-204.3,114.5-295.7
		c0-141.2-66.4-156.1-179.3-179.4v-1.6C862,9.4,848.7,1.1,832.1,1.1c-23.2,0-41.5,18.3-41.5,39.9c0,21.6,18.3,39.8,41.5,39.8
		c10,0,18.3-3.3,25-10l1.6,1.7c109.6,23.3,137.9,28.3,137.9,131.2c0,79.8-39.8,187.7-103,265.8c-10,0-19.9,3.3-28.3,11.6
		c-31.5,34.9-83,76.4-142.8,76.4c-61.5,0-111.2-41.5-142.8-74.7c-8.4-8.3-18.3-13.3-28.3-13.3c-63-78.1-104.6-186-104.6-265.8
		c0-102.9,29.9-107.9,139.5-131.2v-1.7c6.7,6.6,16.6,10,26.6,10c23.3,0,41.5-18.3,41.5-39.8c0-21.6-18.3-39.9-41.5-39.9
		c-18.2,0-31.5,8.3-38.2,21.6h-1.6c-111.2,24.9-179.3,38.2-179.3,181c0,91.4,43.1,209.3,116.1,297.3c-1.6,10,0,21.6,8.4,29.9
		c53.1,56.5,113,89.7,174.4,98l-1.7,179.3c0,122.9-107.9,222.6-239.2,222.6c-131.1,0-237.5-99.7-237.5-222.6V650.6
		c76.5-11.6,134.6-71.4,134.6-146.2c0-83.1-73.1-149.5-162.8-149.5c-88,0-161,66.4-161,149.5c0,74.8,59.7,134.5,134.5,146.2v157.8
		c0,149.5,131.3,270.8,292.3,270.8c162.9,0,294-121.2,294-270.8V629H749.1z"/>
	<path class="st1" d="M187.3,441L187.3,441c42.6,0,77.1,32.8,77.1,73.8c0,41-34.5,75.5-77.1,75.5c-44.3,0-77.1-34.4-77.1-75.5
		C110.2,473.8,143,441,187.3,441"/>
</g>
<g id="lineas">
</g>
</svg>
