<?xml version="1.0" encoding="utf-8"?>
<!-- Generator: Adobe Illustrator 22.0.1, SVG Export Plug-In . SVG Version: 6.00 Build 0)  -->
<svg version="1.1" xmlns="http://www.w3.org/2000/svg" xmlns:xlink="http://www.w3.org/1999/xlink" x="0px" y="0px"
	 viewBox="0 0 986.5 1080" style="enable-background:new 0 0 986.5 1080;" xml:space="preserve">
<style type="text/css">
	.st0{fill:#002B54;}
	.st1{fill:#00D9B2;}
	.st2{display:none;}
	.st3{display:inline;fill:#00D9B2;}
	.st4{display:inline;}
	.st5{display:inline;fill:#002B54;}
</style>
<g id="MEDICINA_INTERNA">
	<path class="st0" d="M-552.5,603.2c63.2-6.7,124.6-39.9,177.7-98c8.4-10,10-20,8.4-31.6c71.4-86.4,114.5-204.3,114.5-295.7
		c0-141.2-66.4-156.1-179.3-179.4v-1.6c-8.4-13.3-21.7-21.6-38.2-21.6c-23.2,0-41.5,18.3-41.5,39.9c0,21.6,18.3,39.8,41.5,39.8
		c10,0,18.3-3.3,25-10l1.6,1.7C-333.3,70-305,75-305,178c0,79.8-39.8,187.7-103,265.8c-10,0-19.9,3.3-28.3,11.6
		c-31.5,34.9-83,76.4-142.8,76.4c-61.5,0-111.2-41.5-142.8-74.7c-8.4-8.3-18.3-13.3-28.3-13.3c-63-78.1-104.6-186-104.6-265.8
		C-854.8,75-824.9,70-715.3,46.8v-1.7c6.7,6.6,16.6,10,26.6,10c23.3,0,41.5-18.3,41.5-39.8c0-21.6-18.3-39.9-41.5-39.9
		c-18.2,0-31.5,8.3-38.2,21.6h-1.6c-111.2,24.9-179.3,38.2-179.3,181c0,91.4,43.1,209.3,116.1,297.3c-1.6,10,0,21.6,8.4,29.9
		c53.1,56.5,113,89.7,174.4,98l-1.7,179.3c0,122.9-107.9,222.6-239.2,222.6c-131.1,0-237.5-99.7-237.5-222.6V624.8
		c76.5-11.6,134.6-71.4,134.6-146.2c0-83.1-73.1-149.5-162.8-149.5c-88,0-161,66.4-161,149.5c0,74.8,59.7,134.5,134.5,146.2v157.8
		c0,149.5,131.3,270.8,292.3,270.8c162.9,0,294-121.2,294-270.8V603.2H-552.5z"/>
	<path class="st1" d="M-891.7,412L-891.7,412c42.6,0,77.1,32.8,77.1,73.8c0,41-34.5,75.5-77.1,75.5c-44.3,0-77.1-34.4-77.1-75.5
		C-968.8,444.8-936,412-891.7,412"/>
</g>
<g id="CIRUGÍA_GENERAL" class="st2">
	<path class="st3" d="M1091.9,31.8l-56.1,56.1c0,0-180.7,302.3-180.7,302.3l48.6,48.6c0,0,42.6-42.6,103.5-103.5
		C1096.9,245.7,1127.4,123.8,1091.9,31.8z"/>
	<g class="st4">
		<path class="st1" d="M495,678l-338.1,378.3c24.7,24.7,64.8,24.7,89.5,0l281-281L495,678z"/>
		<polygon class="st1" points="790.5,454.8 819.2,483.5 721.9,580.8 624.7,548.4 786.8,451.1 		"/>
	</g>
	<g class="st4">
		<path class="st1" d="M527.4,710.5L214,1023.9c-24.7,24.7-50.3,39.2-57.1,32.4c-24.7-24.7-24.7-64.8,0-89.5l281-281L527.4,710.5z"
			/>
		<polygon class="st1" points="786.8,451.1 657.1,580.8 632.4,491.3 729.7,394 		"/>
	</g>
	<polygon class="st3" points="721.9,580.8 673.3,629.4 608.5,597 689.5,548.4 	"/>
	<polygon class="st3" points="689.5,548.4 624.7,613.2 583.8,539.9 632.4,491.3 	"/>
	<path class="st3" d="M810.7,475l-23.9-23.9L729.7,394l306.1-306.1c9.3,64-14.3,136-77.1,198.7C895.9,349.4,810.7,475,810.7,475z"/>
	<polygon class="st3" points="673.3,629.4 624.7,678 559.8,645.6 640.9,597 	"/>
	<g class="st4">
		<polygon class="st1" points="624.7,678 576.1,726.7 511.2,694.3 592.3,645.6 		"/>
		<polygon class="st1" points="640.9,597 576.1,661.8 535.2,588.5 583.8,539.9 		"/>
	</g>
	<polygon class="st3" points="592.3,645.6 527.4,710.5 486.5,637.1 535.2,588.5 	"/>
	<polygon class="st3" points="576.1,726.7 527.4,775.3 495,742.9 503.1,702.4 543.6,694.3 	"/>
	
		<rect x="456.4" y="649.6" transform="matrix(0.7071 -0.7071 0.7071 0.7071 -344.1741 549.1286)" class="st3" width="68.8" height="80.8"/>
	<path class="st5" d="M1107.9,25.6c-2.1-5.4-6.8-9.4-12.5-10.6c-5.7-1.2-11.6,0.5-15.7,4.7L717.5,381.8L144.7,954.6
		c-31.4,31.4-31.4,82.5,0,113.8c15.2,15.2,35.4,23.6,56.9,23.6c0,0,0,0,0,0c21.5,0,41.7-8.4,56.9-23.6l572.8-572.8
		c6.2-6.2,6.7-15.9,1.4-22.7l40.1-40.1l18.9,18.3c6.7,6.5,17.5,6.4,24.1-0.2l103.5-103.5C1111.2,255.6,1146.8,126.3,1107.9,25.6z
		 M673.3,605.1l-65.2-65.2l24.3-24.3l65.2,65.2L673.3,605.1z M624.7,653.7l-65.2-65.2l24.3-24.3l65.2,65.2L624.7,653.7z
		 M576.1,702.4l-65.2-65.2l24.3-24.3l65.2,65.2L576.1,702.4z M527.4,751l-65.2-65.2l24.3-24.3l65.2,65.2L527.4,751z M234.3,1044.1
		c-8.7,8.7-20.3,13.5-32.6,13.5c-12.3,0-23.9-4.8-32.6-13.5c-18-18-18-47.2,0-65.2l268.8-268.8l65.2,65.2L234.3,1044.1z M722,556.5
		l-65.2-65.2l72.9-72.9l65.2,65.2L722,556.5z M995.2,323.1l-91.6,91.6l-18.9-18.3c-6.7-6.5-17.5-6.4-24.1,0.2l-51.9,51.9L754,394
		l265.5-265.5c-4.9,50.2-31.3,104.3-72.9,145.9l-54.9,54.9c-6.7,6.7-6.7,17.6,0,24.3c3.4,3.4,7.8,5,12.2,5c4.4,0,8.8-1.7,12.2-5
		l54.9-54.9c58.3-58.3,89.6-135.9,83-204.6l30-30C1103.2,148,1069.5,248.7,995.2,323.1z"/>
</g>
<g id="__x0D_GINECOLOGÍA_Y_OBSTETRICIA" class="st2">
	<path class="st3" d="M801.4,297.2c0,0-25.2-28-30.9-30.9c-5.6-2.8-100.9-36.4-100.9-36.4h-70.1l-70.1,15.4l-50.5,35l-9.8,47.2
		l19.7,49c0,0,22.4,69.2,21,73.4c-1.4,4.1,51.9,73.4,51.9,73.4l-11.2,43c0,0-29.4,120.6-30.9,127.6c-1.4,7,65.9,161.2,65.9,161.2
		h98.1l42.1-107.9L742.6,614l-15.4-127.6l50.5-68.7L801.4,297.2z"/>
	<path class="st5" d="M1168.6,333.5c-7.5-27.8-24.7-48.9-51.2-62.7c-43.7-22.8-112.7-24.7-205-5.8c-39,8-73.7,18.1-96.2,25.1
		c-1-2.3-2.1-4.5-3.4-6.8C797.8,255.7,767,233,724,217.8c-36.1-12.7-72.1-17.3-92-17.3c-19.9,0-55.9,4.5-92,17.3
		c-43,15.2-73.7,37.9-88.9,65.5c-1.2,2.3-2.3,4.5-3.4,6.8c-22.4-7.1-57.1-17.1-96.2-25.1c-92.3-18.9-161.3-17-205,5.8
		c-26.5,13.8-43.7,34.9-51.2,62.7C79,395.1,180.4,450.9,252.6,473.4c33.9,10.5,65.7,15.9,94.9,15.9c9,0,17.8-0.5,26.3-1.5
		c30-3.6,56.7-13.4,79.6-29.1c12.3-8.5,22.1-17.9,29.9-26.8c24.4,46.8,42.4,97.6,42.3,109.9c-1.3,7.8-5.7,17.9-10.4,28.7
		c-10.7,24.5-24,55.1-16.7,91.6c19.2,94.5,62.5,196.2,64.3,200.5l5.8,13.6h127l5.8-13.6c1.8-4.3,45.1-106,64.3-200.5
		c7.4-36.4-5.9-67-16.7-91.5c-4.7-10.7-9.1-20.8-10.4-28.7c-0.1-12.4,17.8-63.1,42.3-109.9c7.7,8.9,17.5,18.3,29.9,26.8
		c22.8,15.7,49.6,25.5,79.6,29.1c8.5,1,17.3,1.5,26.3,1.5c29.2,0,61-5.3,94.9-15.9C1083.7,450.9,1185.1,395.1,1168.6,333.5z
		 M631.8,477.7c-12.6-36.7-30.2-69.1-52.5-96.7c-0.6-0.7-1.2-1.3-1.7-2c20.6,2.9,40.9,4.3,61,4.3c15.6,0,31.1-0.9,46.2-2.6
		c-0.1,0.1-0.2,0.2-0.3,0.3C662.2,408.5,644.5,441,631.8,477.7z M632,245.4c39.1,0,119.8,19.9,141.5,59.5c0.9,1.5,1.6,3.1,2.2,4.7
		c-58.7,27.1-125,35.3-197.3,24.2c-44.1-6.8-77.5-19.2-90.1-24.3c0.7-1.5,1.4-3.1,2.2-4.6C512.2,265.3,592.9,245.4,632,245.4z
		 M427.9,421.7c-38.7,26.7-94.7,29.8-161.9,8.9c-34.5-10.7-69.9-27.9-94.9-45.8c-24.7-17.8-34.1-33.1-32.3-39.7
		c4.1-15.3,13.4-26.6,28.6-34.5c63.5-33.1,204.5,1.9,273.1,24.2c1.7,20.3,9.4,39.3,18.4,55.1C453.2,398.6,443.4,411,427.9,421.7z
		 M556.2,588.4c5.9-13.6,11.6-26.5,13.7-40.2c0.8-5.3,3.3-21.3-20.1-78.9c-14.1-34.7-31.6-69.5-48.2-95.3c-1.9-3.1-3.7-6-5.3-9
		c14.8,9.8,33.1,25,49.9,46.4c20.9,26.6,37,58.7,47.8,95.4c8.1,27.5,13.1,57.6,15.2,90c-1.4,23.6-1.4,48.1,0.1,73.7v59.2
		c-14,1.5-28.8,4.8-43.6,10.7c-8.8-27.8-17.4-58.2-23.3-87.4C537.8,630.5,547.2,609.1,556.2,588.4z M598.4,831.3
		c-4.4-10.9-11-27.8-18.2-48.2c21.9-9.3,46.1-11.7,72.3-7.1c12.8,2.3,23.6,5.8,30.9,8.7c-7.1,19.6-13.4,35.9-17.7,46.5L598.4,831.3
		L598.4,831.3z M694.2,548.2c2.1,13.6,7.8,26.5,13.7,40.2c9,20.7,18.4,42.1,13.8,64.7c-6,29.8-14.8,60.9-23.9,89.1
		c-10.8-4.1-25.8-8.7-43.6-11.3v-61.5h0c1.4-25.1,1.4-49.3,0-72.4c2.1-32.5,7.2-62.6,15.3-90.1c10.8-36.7,26.9-68.8,47.9-95.3
		c17-21.5,35.4-36.7,50.3-46.6c-1.6,3-3.4,6-5.4,9.1c-16.5,25.8-34.1,60.6-48.2,95.3C708.5,483.6,690.9,527,694.2,548.2z
		 M1093,384.8c-24.9,17.9-60.4,35.1-94.9,45.8c-67,20.9-120.8,18.3-160-7.6c-16.5-10.9-26.9-24-32.9-33.3c9-15.7,16.7-34.7,18.4-55
		c68.5-22.3,209.5-57.3,273-24.2c15.1,7.9,24.5,19.2,28.6,34.5C1127.1,351.7,1117.7,367,1093,384.8z"/>
	<g class="st4">
		<path class="st1" d="M1040,435.1c-5.5-26.9-43.2-42.1-84.2-33.9c-41,8.2-69.8,36.7-64.3,63.6c5.5,26.9,43.2,42.1,84.2,33.9
			C1016.8,490.4,1045.5,462,1040,435.1z"/>
		<path class="st1" d="M953.6,523.3L953.6,523.3c-43.7,0-77.5-21.7-84.1-54.1c-3.2-15.5,0.3-31.4,10-46c14.2-21.4,41.1-37.9,71.9-44
			c8.8-1.8,17.8-2.7,26.5-2.7c43.7,0,77.5,21.7,84.1,54c3.2,15.5-0.3,31.4-10,46c-14.2,21.4-41.1,37.9-71.9,44
			C971.3,522.4,962.3,523.3,953.6,523.3z M977.9,421.4c-5.8,0-11.8,0.6-17.7,1.8c-22.8,4.6-37.4,15.8-43.3,24.8
			c-2.1,3.1-4.3,7.8-3.4,12.3c2.3,11.4,22.2,18.1,40.2,18.1l0,0c5.8,0,11.8-0.6,17.7-1.8c22.8-4.6,37.4-15.8,43.3-24.9
			c2.1-3.1,4.3-7.7,3.4-12.2C1015.7,428.2,995.8,421.4,977.9,421.4z"/>
		<path class="st1" d="M224.1,435.1c5.5-26.9,43.2-42.1,84.2-33.9c41,8.2,69.8,36.7,64.3,63.6c-5.5,26.9-43.2,42.1-84.3,33.9
			C247.3,490.4,218.6,462,224.1,435.1z"/>
		<path class="st1" d="M310.5,523.3c-8.7,0-17.7-0.9-26.5-2.7c-30.8-6.1-57.7-22.6-71.9-44c-9.7-14.6-13.1-30.5-10-46
			c6.6-32.3,40.4-54,84.1-54c8.7,0,17.7,0.9,26.5,2.7c30.8,6.2,57.7,22.6,71.9,44c9.7,14.6,13.1,30.5,10,46
			C388,501.6,354.2,523.3,310.5,523.3z M286.2,421.4c-17.9,0-37.8,6.8-40.2,18.2c-0.9,4.5,1.3,9.1,3.4,12.2c6,9,20.5,20.3,43.3,24.9
			c5.9,1.2,11.9,1.8,17.7,1.8c17.9,0,37.8-6.8,40.2-18.1c0.9-4.5-1.3-9.1-3.4-12.3c-6-9-20.5-20.3-43.3-24.8
			C297.9,422,292,421.4,286.2,421.4z"/>
	</g>
</g>
<g id="PEDIATRÍA" class="st2">
	<g id="XMLID_2972_" class="st4">
		<path id="XMLID_1594_" class="st0" d="M446.1,1078.4L446.1,1078.4c-181.7,0-329-147.3-329-329v-423c0-181.7,147.3-329,329-329l0,0
			c181.7,0,329,147.3,329,329v423C775.1,931.1,627.8,1078.4,446.1,1078.4z"/>
		<path id="XMLID_1647_" class="st0" d="M771.5,326.5v423c0,181.7-147.3,329-329,329l0,0v-94h3.6V-2.5
			C626.2-0.5,771.5,146,771.5,326.5z"/>
		<path id="XMLID_1530_" class="st0" d="M775.1,326.5v423c0,181.7-147.3,329-329,329l0,0l0,0c-181.7,0-329-147.3-329-329v-423
			c0-79.7,28.4-152.9,75.6-209.8L446.1,370l253.4-253.4C746.7,173.6,775.1,246.7,775.1,326.5z"/>
		<path id="XMLID_1431_" class="st0" d="M775.1,326.5v423c0,181.7-147.3,329-329,329l0,0V780V460.7V370l253.4-253.4
			C746.7,173.6,775.1,246.7,775.1,326.5z"/>
		<path id="XMLID_1247_" class="st1" d="M305.3,319.8c3.5-74.8,65.2-134.4,140.8-134.4S583.5,245,587,319.8h0.2v147.6h-282V319.8
			L305.3,319.8L305.3,319.8z"/>
		<path id="XMLID_1683_" class="st1" d="M446.1,185.5v282H305.3V319.8C308.8,245,370.5,185.5,446.1,185.5z"/>
		<path id="XMLID_1675_" class="st1" d="M446.1,370L565.2,251c12.8,20.1,20.6,43.6,21.8,68.8h0.2v147.6h-282V319.8h0.2
			c1.2-25.3,9-48.8,21.8-68.8L446.1,370z"/>
		<path id="XMLID_1596_" class="st1" d="M587,467.4H446.1V370L565.2,251c12.8,20.1,20.6,43.6,21.8,68.8L587,467.4L587,467.4z"/>
		<path id="XMLID_1380_" class="st0" d="M775.1,326.5v423c0,181.7-147.3,329-329,329l0,0l0,0c-181.7,0-329-147.3-329-329v-423
			c0-56.3,14.2-109.3,39.1-155.7l289.9,289.9L736,170.8C761,217.1,775.1,270.1,775.1,326.5z"/>
		<path id="XMLID_1370_" class="st0" d="M446.1,460.7v617.8l0,0c-181.7,0-329-147.3-329-329v-423c0-56.3,14.2-109.3,39.1-155.7
			L446.1,460.7z"/>
		<path id="XMLID_1358_" class="st0" d="M634.1,272.7v453.3c0,77.9-63.1,141-141,141h-47h-47c-77.9,0-141-63.1-141-141V272.7
			l188,188L634.1,272.7z"/>
		<path id="XMLID_1356_" class="st0" d="M258.2,272.7l188,188v406.3h-47c-77.9,0-141-63.1-141-141V272.7z"/>
		<path id="XMLID_1354_" class="st1" d="M551.9,643.7c0,19.5-15.8,35.2-35.2,35.2h-35.2v35.2c0,19.5-15.8,35.2-35.2,35.2
			c-19.5,0-35.2-15.8-35.2-35.2v-35.2h-35.2c-19.5,0-35.2-15.8-35.2-35.2s15.8-35.2,35.2-35.2h35.2v-35.2
			c0-19.5,15.8-35.2,35.2-35.2c19.5,0,35.2,15.8,35.2,35.2v35.2h35.2C536.1,608.4,551.9,624.2,551.9,643.7z"/>
		<path id="XMLID_1347_" class="st1" d="M410.9,679.5v-0.5h-35.2c-19.5,0-35.2-15.8-35.2-35.2s15.8-35.2,35.2-35.2h35.2v-35.2
			c0-19.5,15.8-35.2,35.2-35.2c19.5,0,35.2,15.8,35.2,35.2v35.2h0.5L410.9,679.5z"/>
	</g>
</g>
<g id="ORTOPEDIA" class="st2">
	<g class="st4">
		<g>
			<path class="st0" d="M836.5,112L776,26.5c-19.3-27.2-57.1-33.7-84.3-14.4l-51.2,36.3c-66.6,47.1-145,71.2-226.8,69.7
				c-27-0.4-53.1,7.5-75.2,23.2c0,0,0,0,0,0c-27.5,19.5-45.8,48.5-51.4,81.7c-1.6,9.2-2.1,18.4-1.7,27.5
				C189.8,271.4,118,358.7,118,463c0,40.2,10.7,77.9,29.3,110.2C129,595.2,118,623.3,118,654c0,27.1,8.5,53,24.6,74.8
				c47.9,64.9,74.2,144.9,74.2,225.3v62.8c0,33.4,27.1,60.5,60.5,60.5H382c33.4,0,60.5-27.1,60.5-60.5v-62.8
				c0-81.6,25.7-159.5,74.2-225.3c16.1-21.8,24.6-47.7,24.6-74.8c0-30.7-11-58.8-29.3-80.7c11.6-20.2,20.2-42.5,25-66.2
				c16.4-3.6,32.1-10.4,46.1-20.3c22.2-15.7,38.3-37.6,46.8-63.3c25.3-76.6,75.4-144.4,141-190.8l51.2-36.3
				C849.4,177,855.8,139.2,836.5,112z M299,301.7c2.7,5.3,5.8,10.5,9.4,15.4c18.5,26.1,46.2,43.9,76.8,50.4
				c-4,31,3.6,63.1,22.1,89.2c18.2,25.7,44.8,43.3,75.3,50.2c-3.1,11.7-7.5,22.9-12.9,33.4c-16.5-7.9-35-12.4-54.5-12.4
				c-31.9,0-62.5,12.3-85.5,33.5c-23-21.2-53.6-33.5-85.5-33.5c-19.5,0-38,4.5-54.5,12.4c-11.9-23-18.6-49.3-18.6-77.2
				C171,383.2,226.1,316.5,299,301.7z M474.1,697.4c-55.3,75-84.6,163.8-84.6,256.8v62.8c0,4.1-3.4,7.5-7.5,7.5H277.3
				c-4.1,0-7.5-3.4-7.5-7.5v-62.8c0-91.6-30-182.8-84.6-256.8c-9.3-12.6-14.2-27.6-14.2-43.3c0-40.3,32.8-73.1,73.1-73.1
				c26,0,49.4,13.3,62.8,35.6c4.8,8,13.4,12.9,22.7,12.9s17.9-4.9,22.7-12.9c13.4-22.3,36.8-35.6,62.8-35.6
				c40.3,0,73.1,32.8,73.1,73.1C488.3,669.8,483.4,684.7,474.1,697.4z M791.5,153l-51.2,36.3c-74.8,53-131.8,130.2-160.7,217.5
				c-4.9,14.9-14.3,27.5-27.1,36.6c-15.9,11.3-35.3,15.7-54.6,12.4c-19.3-3.3-36.1-13.9-47.4-29.8c-15-21.2-17.7-48-7.2-71.8
				c3.8-8.5,2.8-18.4-2.6-26c-5-7-13.1-11.2-21.6-11.2c-0.7,0-1.4,0-2,0.1c-25.9,2-50.4-9.5-65.4-30.6
				c-23.3-32.9-15.5-78.6,17.4-102c12.8-9.1,27.8-13.8,43.6-13.4c93.2,1.8,182.6-25.7,258.5-79.4l51.2-36.3c3.4-2.4,8-1.6,10.4,1.8
				l60.6,85.5C795.7,146,794.9,150.7,791.5,153z"/>
		</g>
		<g>
			<path class="st0" d="M428.3,189.7c-34.3,0-62.2,27.9-62.2,62.2c0,14.6,11.9,26.5,26.5,26.5c14.6,0,26.5-11.9,26.5-26.5
				c0-5.1,4.1-9.2,9.2-9.2c14.6,0,26.5-11.9,26.5-26.5S443,189.7,428.3,189.7z"/>
		</g>
	</g>
</g>
<g id="NEUROLOGÍA">
	<g>
		<path class="st1" d="M537,30.5c-229.2,3.2-417.4,197.3-405.3,433.1h-0.6v37.9L29.3,667h101.9v149.9c0,38.1,30.9,68.9,68.9,68.9
			H389v161.5h307.9v-7.1c0-112.1,45-220.3,127-296.8c80.5-75.2,130.8-182.2,130.8-301C954.7,212.9,767.2,27.3,537,30.5z"/>
		<g>
			<path class="st0" d="M341.6,320.7c64.3,93.9,140.2,28.5,177.7,49c13,7.1,17,23.9,17,38.7c0,14.8-2.6,30.2,2.6,44
				c11.5,30.8,52.6,36.6,85.3,33.1c34.4-3.7,37.8,5.1,48,34.9c16.5,48.1,48.4,82.1,99.7,81.8c23.6-0.2,44.6-14.8,54-36.5
				c89.1-203.8-62.4-434.9-287.3-431.9C417.3,135.6,270.9,217.5,341.6,320.7z"/>
			<g>
				<path class="st0" d="M536.7,2.7c-246.4,3.4-442.8,211.2-433,456.4c-0.6,3.5-0.4,4-0.4,34.6L5.5,652.4
					c-11.4,18.6,2,42.5,23.7,42.5h74v122c0,53.4,43.4,96.8,96.8,96.8h161v133.6c0,15.4,12.5,27.9,27.9,27.9h307.9
					c15.4,0,27.9-12.5,27.9-27.9c0-118.5,45.5-215.8,118.1-283.6c88.8-82.9,139.7-200,139.7-321.4C982.6,196.9,782.1-0.9,536.7,2.7z
					 M804.8,722.9c-81.4,76-130,183.1-135.3,296.5H416.9V885.8c0-15.4-12.5-27.9-27.9-27.9H200.1c-22.6,0-41-18.4-41-41V667
					c0-15.4-12.5-27.9-27.9-27.9H79.2c82.2-133.5,79.8-126.6,79.8-137.5v-32.1C161.5,458,139.9,303,272,171
					c241.1-240.9,654.8-70.5,654.8,271.2C926.8,548.3,882.4,650.6,804.8,722.9z"/>
				<path class="st0" d="M824.2,258.4C719.4,98.4,503,56.7,346.8,170c-32.8,24-80.9,89.6-28.2,166.5c71.2,104,166.3,48.6,186.9,57.5
					c3.7,5,2.7,19.2,2.5,24.3c-0.5,12.6-1.2,28.2,4.7,44c24.8,66.3,116.7,49.8,126.7,50.5c1.8,3.7,4.5,11.4,6.3,16.8
					C688.3,654,816.9,655.8,851.4,577C896.8,473,886.6,353.9,824.2,258.4z M800.2,554.6c-5,11.4-15.8,19.7-29.2,19.7
					c-33.9,0-58.3-21.2-72.6-62.9c-12.3-36-24.4-59.3-77.3-53.6c-23.5,2.5-51-1.2-56.2-15.1c-2.7-7.3-0.9-20.6-0.8-34.2
					c0-29.2-11.4-52.2-31.4-63.2c-54.4-29.8-113,40.1-168.1-40.3c-33.8-49.3,6.8-83.7,15.1-89.9c130.2-94.4,310.5-59.7,397.9,73.8
					C829.6,368.6,838.1,467.9,800.2,554.6z"/>
			</g>
		</g>
	</g>
</g>
<g id="lineas">
</g>
</svg>
