<?xml version="1.0" encoding="utf-8"?>
<!-- Generator: Adobe Illustrator 22.0.1, SVG Export Plug-In . SVG Version: 6.00 Build 0)  -->
<svg version="1.1" xmlns="http://www.w3.org/2000/svg" xmlns:xlink="http://www.w3.org/1999/xlink" x="0px" y="0px"
	 viewBox="0 0 990 1080" style="enable-background:new 0 0 990 1080;" xml:space="preserve">
<style type="text/css">
	.st0{fill:#002B54;}
	.st1{fill:#00D9B2;}
	.st2{display:none;}
	.st3{display:inline;fill:#00D9B2;}
	.st4{display:inline;}
	.st5{display:inline;fill:#002B54;}
	.st6{fill:none;}
	.st7{display:inline;fill:#00D9B2;stroke:#00D9B2;stroke-width:8.5039;stroke-miterlimit:10;}
	.st8{display:inline;fill:#002B54;stroke:#002B54;stroke-width:5.6693;stroke-miterlimit:10;}
	.st9{fill:none;stroke:#002B54;stroke-width:25.5118;stroke-miterlimit:10;}
</style>
<g id="MEDICINA_INTERNA">
	<path class="st0" d="M-466.2,641.9c63.2-6.7,124.6-39.9,177.7-98c8.4-10,10-20,8.4-31.6c71.4-86.4,114.5-204.3,114.5-295.7
		c0-141.2-66.4-156.1-179.3-179.4v-1.6c-8.4-13.3-21.7-21.6-38.2-21.6c-23.2,0-41.5,18.3-41.5,39.9c0,21.6,18.3,39.8,41.5,39.8
		c10,0,18.3-3.3,25-10l1.6,1.7c109.6,23.3,137.9,28.3,137.9,131.2c0,79.8-39.8,187.7-103,265.8c-10,0-19.9,3.3-28.3,11.6
		c-31.5,34.9-83,76.4-142.8,76.4c-61.5,0-111.2-41.5-142.8-74.7c-8.4-8.3-18.3-13.3-28.3-13.3c-63-78.1-104.6-186-104.6-265.8
		c0-102.9,29.9-107.9,139.5-131.2v-1.7c6.7,6.6,16.6,10,26.6,10c23.3,0,41.5-18.3,41.5-39.8c0-21.6-18.3-39.9-41.5-39.9
		c-18.2,0-31.5,8.3-38.2,21.6h-1.6c-111.2,24.9-179.3,38.2-179.3,181c0,91.4,43.1,209.3,116.1,297.3c-1.6,10,0,21.6,8.4,29.9
		c53.1,56.5,113,89.7,174.4,98l-1.7,179.3c0,122.9-107.9,222.6-239.2,222.6c-131.1,0-237.5-99.7-237.5-222.6V663.5
		c76.5-11.6,134.6-71.4,134.6-146.2c0-83.1-73.1-149.5-162.8-149.5c-88,0-161,66.4-161,149.5c0,74.8,59.7,134.5,134.5,146.2v157.8
		c0,149.5,131.3,270.8,292.3,270.8c162.9,0,294-121.2,294-270.8V641.9H-466.2z"/>
	<path class="st1" d="M-877.4,648.7L-877.4,648.7c42.6,0,77.1,32.8,77.1,73.8c0,41-34.5,75.5-77.1,75.5c-44.3,0-77.1-34.4-77.1-75.5
		C-954.5,681.5-921.7,648.7-877.4,648.7"/>
</g>
<g id="CIRUGÍA_GENERAL" class="st2">
	<path class="st3" d="M1106.2,268.5l-56.1,56.1c0,0-180.7,302.3-180.7,302.3l48.6,48.6c0,0,42.6-42.6,103.5-103.5
		C1111.2,482.3,1141.7,360.5,1106.2,268.5z"/>
	<g class="st4">
		<path class="st1" d="M795.4,914.7L457.3,1293c24.7,24.7,64.8,24.7,89.5,0l281-281L795.4,914.7z"/>
		<polygon class="st1" points="1090.8,691.5 1119.6,720.2 1022.3,817.5 925,785 1087.1,687.8 		"/>
	</g>
	<g class="st4">
		<path class="st1" d="M827.8,947.1l-313.4,313.4c-24.7,24.7-50.3,39.2-57.1,32.4c-24.7-24.7-24.7-64.8,0-89.5l281-281L827.8,947.1z
			"/>
		<polygon class="st1" points="1087.1,687.8 957.5,817.5 932.8,727.9 1030,630.7 		"/>
	</g>
	<polygon class="st3" points="1022.3,817.5 973.7,866.1 908.8,833.7 989.9,785 	"/>
	<polygon class="st3" points="989.9,785 925,849.9 884.1,776.6 932.8,727.9 	"/>
	<path class="st3" d="M1111,711.7l-23.9-23.9l-57.1-57.1l306.1-306.1c9.3,64-14.3,136-77.1,198.7C1196.3,586,1111,711.7,1111,711.7z
		"/>
	<polygon class="st3" points="973.7,866.1 925,914.7 860.2,882.3 941.2,833.7 	"/>
	<g class="st4">
		<polygon class="st1" points="925,914.7 876.4,963.4 811.6,930.9 892.6,882.3 		"/>
		<polygon class="st1" points="941.2,833.7 876.4,898.5 835.5,825.2 884.1,776.6 		"/>
	</g>
	<polygon class="st3" points="892.6,882.3 827.8,947.1 786.9,873.8 835.5,825.2 	"/>
	<polygon class="st3" points="876.4,963.4 827.8,1012 795.4,979.6 803.5,939 844,930.9 	"/>
	
		<rect x="756.7" y="886.3" transform="matrix(0.7071 -0.7071 0.7071 0.7071 -423.5584 830.8328)" class="st3" width="68.8" height="80.8"/>
	<path class="st5" d="M1408.3,262.3c-2.1-5.4-6.8-9.4-12.5-10.6c-5.7-1.2-11.6,0.5-15.7,4.7l-362.2,362.2l-572.8,572.8
		c-31.4,31.4-31.4,82.5,0,113.8c15.2,15.2,35.4,23.6,56.9,23.6c0,0,0,0,0,0c21.5,0,41.7-8.4,56.9-23.6l572.8-572.8
		c6.2-6.2,6.7-15.9,1.4-22.7l40.1-40.1l18.9,18.3c6.7,6.5,17.5,6.4,24.1-0.2l103.5-103.5C1411.6,492.3,1447.1,363,1408.3,262.3z
		 M973.7,841.8l-65.2-65.2l24.3-24.3l65.2,65.2L973.7,841.8z M925.1,890.4l-65.2-65.2l24.3-24.3l65.2,65.2L925.1,890.4z M876.4,939
		l-65.2-65.2l24.3-24.3l65.2,65.2L876.4,939z M827.8,987.7l-65.2-65.2l24.3-24.3l65.2,65.2L827.8,987.7z M534.6,1280.8
		c-8.7,8.7-20.3,13.5-32.6,13.5c-12.3,0-23.9-4.8-32.6-13.5c-18-18-18-47.2,0-65.2l268.8-268.8l65.2,65.2L534.6,1280.8z
		 M1022.3,793.1l-65.2-65.2L1030,655l65.2,65.2L1022.3,793.1z M1295.5,559.7l-91.6,91.6l-18.9-18.3c-6.7-6.5-17.5-6.4-24.1,0.2
		l-51.9,51.9l-54.6-54.6l265.5-265.5c-4.9,50.2-31.3,104.3-72.9,145.9L1192,566c-6.7,6.7-6.7,17.6,0,24.3c3.4,3.4,7.8,5,12.2,5
		c4.4,0,8.8-1.7,12.2-5l54.9-54.9c58.3-58.3,89.6-135.9,83-204.6l30-30C1403.5,384.7,1369.9,485.4,1295.5,559.7z"/>
</g>
<g id="__x0D_GINECOLOGÍA_Y_OBSTETRICIA" class="st2">
	<path class="st3" d="M1101.8,533.9c0,0-25.2-28-30.9-30.9c-5.6-2.8-100.9-36.4-100.9-36.4h-70.1L829.8,482l-50.5,35l-9.8,47.2
		l19.7,49c0,0,22.4,69.2,21,73.4c-1.4,4.1,51.9,73.4,51.9,73.4l-11.2,43c0,0-29.4,120.6-30.9,127.6c-1.4,7,65.9,161.2,65.9,161.2
		H984l42.1-107.9l16.8-133.2l-15.4-127.6l50.5-68.7L1101.8,533.9z"/>
	<path class="st5" d="M1469,570.1c-7.5-27.8-24.7-48.9-51.2-62.7c-43.7-22.8-112.7-24.7-205-5.8c-39,8-73.7,18.1-96.2,25.1
		c-1-2.3-2.1-4.5-3.4-6.8c-15.1-27.6-45.9-50.3-88.9-65.5c-36.1-12.7-72.1-17.3-92-17.3c-19.9,0-55.9,4.5-92,17.3
		c-43,15.2-73.7,37.9-88.9,65.5c-1.2,2.3-2.3,4.5-3.4,6.8c-22.4-7.1-57.1-17.1-96.2-25.1c-92.3-18.9-161.3-17-205,5.8
		c-26.5,13.8-43.7,34.9-51.2,62.7c-16.5,61.6,84.9,117.5,157.2,139.9c33.9,10.5,65.7,15.9,94.9,15.9c9,0,17.8-0.5,26.3-1.5
		c30-3.6,56.7-13.4,79.6-29.1c12.3-8.5,22.1-17.9,29.9-26.8c24.4,46.8,42.4,97.6,42.3,109.9c-1.3,7.8-5.7,17.9-10.4,28.7
		c-10.7,24.5-24,55.1-16.7,91.6c19.2,94.5,62.5,196.2,64.3,200.5l5.8,13.6h127l5.8-13.6c1.8-4.3,45.1-106,64.3-200.5
		c7.4-36.4-5.9-67-16.7-91.5c-4.7-10.7-9.1-20.8-10.4-28.7c-0.1-12.4,17.8-63.1,42.3-109.9c7.7,8.9,17.5,18.3,29.9,26.8
		c22.8,15.7,49.6,25.5,79.6,29.1c8.5,1,17.3,1.5,26.3,1.5c29.2,0,61-5.3,94.9-15.9C1384.1,687.6,1485.5,631.8,1469,570.1z
		 M932.2,714.4c-12.6-36.7-30.2-69.1-52.5-96.7c-0.6-0.7-1.2-1.3-1.7-2c20.6,2.9,40.9,4.3,61,4.3c15.6,0,31.1-0.9,46.2-2.6
		c-0.1,0.1-0.2,0.2-0.3,0.3C962.5,645.2,944.9,677.7,932.2,714.4z M932.4,482.1c39.1,0,119.8,19.9,141.5,59.5
		c0.9,1.5,1.6,3.1,2.2,4.7c-58.7,27.1-125,35.3-197.3,24.2c-44.1-6.8-77.5-19.2-90.1-24.3c0.7-1.5,1.4-3.1,2.2-4.6
		C812.6,501.9,893.3,482.1,932.4,482.1z M728.2,658.4c-38.7,26.7-94.7,29.8-161.9,8.9c-34.5-10.7-69.9-27.9-94.9-45.8
		c-24.7-17.8-34.1-33.1-32.3-39.7c4.1-15.3,13.4-26.6,28.6-34.5c63.5-33.1,204.5,1.9,273.1,24.2c1.7,20.3,9.4,39.3,18.4,55.1
		C753.6,635.3,743.7,647.7,728.2,658.4z M856.6,825c5.9-13.6,11.6-26.5,13.7-40.2c0.8-5.3,3.3-21.3-20.1-78.9
		c-14.1-34.7-31.6-69.5-48.2-95.3c-1.9-3.1-3.7-6-5.3-9c14.8,9.8,33.1,25,49.9,46.4c20.9,26.6,37,58.7,47.8,95.4
		c8.1,27.5,13.1,57.6,15.2,90c-1.4,23.6-1.4,48.1,0.1,73.7v59.2c-14,1.5-28.8,4.8-43.6,10.7c-8.8-27.8-17.4-58.2-23.3-87.4
		C838.2,867.2,847.5,845.8,856.6,825z M898.8,1067.9c-4.4-10.9-11-27.8-18.2-48.2c21.9-9.3,46.1-11.7,72.3-7.1
		c12.8,2.3,23.6,5.8,30.9,8.7c-7.1,19.6-13.4,35.9-17.7,46.5L898.8,1067.9L898.8,1067.9z M994.5,784.9c2.1,13.6,7.8,26.5,13.7,40.2
		c9,20.7,18.4,42.1,13.8,64.7c-6,29.8-14.8,60.9-23.9,89.1c-10.8-4.1-25.8-8.7-43.6-11.3V906h0c1.4-25.1,1.4-49.3,0-72.4
		c2.1-32.5,7.2-62.6,15.3-90.1c10.8-36.7,26.9-68.8,47.9-95.3c17-21.5,35.4-36.7,50.3-46.6c-1.6,3-3.4,6-5.4,9.1
		c-16.5,25.8-34.1,60.6-48.2,95.3C1008.8,720.3,991.2,763.6,994.5,784.9z M1393.4,621.5c-24.9,17.9-60.4,35.1-94.9,45.8
		c-67,20.9-120.8,18.3-160-7.6c-16.5-10.9-26.9-24-32.9-33.3c9-15.7,16.7-34.7,18.4-55c68.5-22.3,209.5-57.3,273-24.2
		c15.1,7.9,24.5,19.2,28.6,34.5C1427.4,588.4,1418.1,603.6,1393.4,621.5z"/>
	<g class="st4">
		<path class="st1" d="M1340.4,671.7c-5.5-26.9-43.2-42.1-84.2-33.9c-41,8.2-69.8,36.7-64.3,63.6c5.5,26.9,43.2,42.1,84.2,33.9
			C1317.1,727.1,1345.9,698.6,1340.4,671.7z"/>
		<path class="st1" d="M1254,760L1254,760c-43.7,0-77.5-21.7-84.1-54.1c-3.2-15.5,0.3-31.4,10-46c14.2-21.4,41.1-37.9,71.9-44
			c8.8-1.8,17.8-2.7,26.5-2.7c43.7,0,77.5,21.7,84.1,54c3.2,15.5-0.3,31.4-10,46c-14.2,21.4-41.1,37.9-71.9,44
			C1271.6,759.1,1262.7,760,1254,760z M1278.3,658.1c-5.8,0-11.8,0.6-17.7,1.8c-22.8,4.6-37.4,15.8-43.3,24.8
			c-2.1,3.1-4.3,7.8-3.4,12.3c2.3,11.4,22.2,18.1,40.2,18.1l0,0c5.8,0,11.8-0.6,17.7-1.8c22.8-4.6,37.4-15.8,43.3-24.9
			c2.1-3.1,4.3-7.7,3.4-12.2C1316.1,664.9,1296.2,658.1,1278.3,658.1z"/>
		<path class="st1" d="M524.4,671.7c5.5-26.9,43.2-42.1,84.2-33.9c41,8.2,69.8,36.7,64.3,63.6c-5.5,26.9-43.2,42.1-84.3,33.9
			C547.7,727.1,518.9,698.6,524.4,671.7z"/>
		<path class="st1" d="M610.8,760c-8.7,0-17.7-0.9-26.5-2.7c-30.8-6.1-57.7-22.6-71.9-44c-9.7-14.6-13.1-30.5-10-46
			c6.6-32.3,40.4-54,84.1-54c8.7,0,17.7,0.9,26.5,2.7c30.8,6.2,57.7,22.6,71.9,44c9.7,14.6,13.1,30.5,10,46
			C688.3,738.3,654.5,760,610.8,760z M586.5,658.1c-17.9,0-37.8,6.8-40.2,18.2c-0.9,4.5,1.3,9.1,3.4,12.2c6,9,20.5,20.3,43.3,24.9
			c5.9,1.2,11.9,1.8,17.7,1.8c17.9,0,37.8-6.8,40.2-18.1c0.9-4.5-1.3-9.1-3.4-12.3c-6-9-20.5-20.3-43.3-24.8
			C598.3,658.7,592.3,658.1,586.5,658.1z"/>
	</g>
</g>
<g id="PEDIATRÍA" class="st2">
	<g id="XMLID_38_" class="st4">
		<path id="XMLID_52_" class="st0" d="M746.5,1315.1L746.5,1315.1c-181.7,0-329-147.3-329-329v-423c0-181.7,147.3-329,329-329l0,0
			c181.7,0,329,147.3,329,329v423C1075.5,1167.8,928.2,1315.1,746.5,1315.1z"/>
		<path id="XMLID_51_" class="st0" d="M1071.8,563.1v423c0,181.7-147.3,329-329,329l0,0v-94h3.6V234.2
			C926.5,236.2,1071.8,382.7,1071.8,563.1z"/>
		<path id="XMLID_50_" class="st0" d="M1075.5,563.1v423c0,181.7-147.3,329-329,329l0,0l0,0c-181.7,0-329-147.3-329-329v-423
			c0-79.7,28.4-152.9,75.6-209.8l253.4,253.4l253.4-253.4C1047.1,410.3,1075.5,483.4,1075.5,563.1z"/>
		<path id="XMLID_49_" class="st0" d="M1075.5,563.1v423c0,181.7-147.3,329-329,329l0,0v-298.4V697.3v-90.6l253.4-253.4
			C1047.1,410.3,1075.5,483.4,1075.5,563.1z"/>
		<path id="XMLID_48_" class="st1" d="M605.7,556.5c3.5-74.8,65.2-134.4,140.8-134.4s137.4,59.6,140.8,134.4h0.2v147.6h-282V556.5
			H605.7L605.7,556.5z"/>
		<path id="XMLID_47_" class="st1" d="M746.5,422.1v282H605.7V556.5C609.1,481.7,670.9,422.1,746.5,422.1z"/>
		<path id="XMLID_46_" class="st1" d="M746.5,606.7l119.1-119.1c12.8,20.1,20.6,43.6,21.8,68.8h0.2v147.6h-282V556.5h0.2
			c1.2-25.3,9-48.8,21.8-68.8L746.5,606.7z"/>
		<path id="XMLID_45_" class="st1" d="M887.3,704.1H746.5v-97.4l119.1-119.1c12.8,20.1,20.6,43.6,21.8,68.8L887.3,704.1L887.3,704.1
			z"/>
		<path id="XMLID_44_" class="st0" d="M1075.5,563.1v423c0,181.7-147.3,329-329,329l0,0l0,0c-181.7,0-329-147.3-329-329v-423
			c0-56.3,14.2-109.3,39.1-155.7l289.9,289.9l289.9-289.9C1061.3,453.8,1075.5,506.8,1075.5,563.1z"/>
		<path id="XMLID_43_" class="st0" d="M746.5,697.3v617.8l0,0c-181.7,0-329-147.3-329-329v-423c0-56.3,14.2-109.3,39.1-155.7
			L746.5,697.3z"/>
		<path id="XMLID_42_" class="st0" d="M934.5,509.3v453.3c0,77.9-63.1,141-141,141h-47h-47c-77.9,0-141-63.1-141-141V509.3l188,188
			L934.5,509.3z"/>
		<path id="XMLID_41_" class="st0" d="M558.5,509.3l188,188v406.3h-47c-77.9,0-141-63.1-141-141V509.3z"/>
		<path id="XMLID_40_" class="st1" d="M852.2,880.4c0,19.5-15.8,35.2-35.2,35.2h-35.2v35.2c0,19.5-15.8,35.2-35.2,35.2
			s-35.2-15.8-35.2-35.2v-35.2H676c-19.5,0-35.2-15.8-35.2-35.2s15.8-35.2,35.2-35.2h35.2v-35.2c0-19.5,15.8-35.2,35.2-35.2
			s35.2,15.8,35.2,35.2v35.2H817C836.5,845.1,852.2,860.9,852.2,880.4z"/>
		<path id="XMLID_39_" class="st1" d="M711.3,916.2v-0.5H676c-19.5,0-35.2-15.8-35.2-35.2s15.8-35.2,35.2-35.2h35.2v-35.2
			c0-19.5,15.8-35.2,35.2-35.2s35.2,15.8,35.2,35.2v35.2h0.5L711.3,916.2z"/>
	</g>
</g>
<g id="ORTOPEDIA" class="st2">
	<g class="st4">
		<g>
			<path class="st0" d="M1136.9,348.7l-60.6-85.5c-19.3-27.2-57.1-33.7-84.3-14.4l-51.2,36.3c-66.6,47.1-145,71.2-226.8,69.7
				c-27-0.4-53.1,7.5-75.2,23.2c0,0,0,0,0,0c-27.5,19.5-45.8,48.5-51.4,81.7c-1.6,9.2-2.1,18.4-1.7,27.5
				c-95.5,21-167.4,108.3-167.4,212.6c0,40.2,10.7,77.9,29.3,110.2c-18.3,21.9-29.3,50-29.3,80.7c0,27.1,8.5,53,24.6,74.8
				c47.9,64.9,74.2,144.9,74.2,225.3v62.8c0,33.4,27.1,60.5,60.5,60.5h104.8c33.4,0,60.5-27.1,60.5-60.5v-62.8
				c0-81.6,25.7-159.5,74.2-225.3c16.1-21.8,24.6-47.7,24.6-74.8c0-30.7-11-58.8-29.3-80.7c11.6-20.2,20.2-42.5,25-66.2
				c16.4-3.6,32.1-10.4,46.1-20.3c22.2-15.7,38.3-37.6,46.8-63.3c25.3-76.6,75.4-144.4,141-190.8l51.2-36.3
				C1149.7,413.7,1156.2,375.9,1136.9,348.7z M599.4,538.3c2.7,5.3,5.8,10.5,9.4,15.4c18.5,26.1,46.2,43.9,76.8,50.4
				c-4,31,3.6,63.1,22.1,89.2c18.2,25.7,44.8,43.3,75.3,50.2c-3.1,11.7-7.5,22.9-12.9,33.4c-16.5-7.9-35-12.4-54.5-12.4
				c-31.9,0-62.5,12.3-85.5,33.5c-23-21.2-53.6-33.5-85.5-33.5c-19.5,0-38,4.5-54.5,12.4c-11.9-23-18.6-49.3-18.6-77.2
				C471.3,619.9,526.5,553.2,599.4,538.3z M774.4,934c-55.3,75-84.6,163.8-84.6,256.8v62.8c0,4.1-3.4,7.5-7.5,7.5H577.6
				c-4.1,0-7.5-3.4-7.5-7.5v-62.8c0-91.6-30-182.8-84.6-256.8c-9.3-12.6-14.2-27.6-14.2-43.3c0-40.3,32.8-73.1,73.1-73.1
				c26,0,49.4,13.3,62.8,35.6c4.8,8,13.4,12.9,22.7,12.9s17.9-4.9,22.7-12.9c13.4-22.3,36.8-35.6,62.8-35.6
				c40.3,0,73.1,32.8,73.1,73.1C788.6,906.4,783.7,921.4,774.4,934z M1091.9,389.7l-51.2,36.3c-74.8,53-131.8,130.2-160.7,217.5
				c-4.9,14.9-14.3,27.5-27.1,36.6c-15.9,11.3-35.3,15.7-54.6,12.4c-19.3-3.3-36.1-13.9-47.4-29.8c-15-21.2-17.7-48-7.2-71.8
				c3.8-8.5,2.8-18.4-2.6-26c-5-7-13.1-11.2-21.6-11.2c-0.7,0-1.3,0-2,0.1c-25.9,2-50.4-9.5-65.4-30.6
				c-23.3-32.9-15.5-78.6,17.4-102c12.8-9.1,27.8-13.8,43.6-13.4c93.2,1.8,182.6-25.7,258.5-79.4l51.2-36.3c3.4-2.4,8-1.6,10.4,1.8
				l60.6,85.5C1096,382.7,1095.2,387.3,1091.9,389.7z"/>
		</g>
		<g>
			<path class="st0" d="M728.7,426.3c-34.3,0-62.2,27.9-62.2,62.2c0,14.6,11.9,26.5,26.5,26.5s26.5-11.9,26.5-26.5
				c0-5.1,4.1-9.2,9.2-9.2c14.6,0,26.5-11.9,26.5-26.5S743.3,426.3,728.7,426.3z"/>
		</g>
	</g>
</g>
<g id="NEUROLOGÍA">
	<g>
		<path class="st6" d="M538.4,29.2C309.2,32.4,121,226.5,133.1,462.4h-0.6v37.9L30.6,665.7h101.9v149.9c0,38.1,30.9,68.9,68.9,68.9
			h188.9V1046h307.9v-7.1c0-112.1,45-220.3,127-296.8c80.5-75.2,130.8-182.2,130.8-301C956.1,211.6,768.5,26,538.4,29.2z"/>
		<g>
			<path class="st1" d="M342.9,319.4c64.3,93.9,140.2,28.5,177.7,49c13,7.1,17,23.9,17,38.7c0,14.8-2.6,30.2,2.6,44
				c11.5,30.8,52.6,36.6,85.3,33.1c34.4-3.7,37.8,5.1,48,34.9c16.5,48.1,48.4,82.1,99.7,81.8c23.6-0.2,44.6-14.8,54-36.5
				c89.1-203.8-62.4-434.9-287.3-431.9C418.7,134.3,272.3,216.2,342.9,319.4z"/>
			<g>
				<path class="st0" d="M538,1.3C291.6,4.8,95.2,212.6,105,457.8c-0.6,3.5-0.4,4-0.4,34.6L6.9,651.1c-11.4,18.6,2,42.5,23.7,42.5
					h74v122c0,53.4,43.4,96.8,96.8,96.8h161V1046c0,15.4,12.5,27.9,27.9,27.9h307.9c15.4,0,27.9-12.5,27.9-27.9
					c0-118.5,45.5-215.8,118.1-283.6C933,679.5,984,562.4,984,441C984,195.5,783.5-2.3,538,1.3z M806.2,721.6
					c-81.4,76-130,183.1-135.3,296.5H418.2V884.5c0-15.4-12.5-27.9-27.9-27.9H201.4c-22.6,0-41-18.4-41-41V665.7
					c0-15.4-12.5-27.9-27.9-27.9H80.6c82.2-133.5,79.8-126.6,79.8-137.5v-32.1c2.5-11.5-19.2-166.5,112.9-298.5
					C514.5-71.1,928.2,99.3,928.2,441C928.2,547,883.7,649.3,806.2,721.6z"/>
				<path class="st1" d="M825.5,257.1c-104.7-160-321.2-201.7-477.4-88.4c-32.8,24-80.9,89.6-28.2,166.5
					c71.2,104,166.3,48.6,186.9,57.5c3.7,5,2.7,19.2,2.5,24.3c-0.5,12.6-1.2,28.2,4.7,44c24.8,66.3,116.7,49.8,126.7,50.5
					c1.8,3.7,4.5,11.4,6.3,16.8c42.6,124.5,171.2,126.3,205.7,47.4C898.1,471.6,888,352.6,825.5,257.1z M801.6,553.3
					c-5,11.4-15.8,19.7-29.2,19.7c-33.9,0-58.3-21.2-72.6-62.9c-12.3-36-24.4-59.3-77.3-53.6c-23.5,2.5-51-1.2-56.2-15.1
					c-2.7-7.3-0.9-20.6-0.8-34.2c0-29.2-11.4-52.2-31.4-63.2c-54.4-29.8-113,40.1-168.1-40.3c-33.8-49.3,6.8-83.7,15.1-89.9
					c130.2-94.4,310.5-59.7,397.9,73.8C831,367.3,839.5,466.6,801.6,553.3z"/>
			</g>
		</g>
	</g>
</g>
<g id="PSICOLOGÍA" class="st2">
	<path class="st5" d="M373.5,330.6h64.4c3.7,0,13.6,10.3,15.1,29.3l1.7,22.5c18.4,239.8,35.9,467,295.3,493v349h-66.3
		c-25.5,0-46.2,20.7-46.2,46.2c0,25.5,20.7,46.2,46.2,46.2H910c25.5,0,46.2-20.7,46.2-46.2c0-25.5-20.7-46.2-46.2-46.2h-67.7V876.3
		c270-20.5,287.6-248.5,306-489.4l2.1-27c1.5-19,11.4-29.3,15.1-29.3h64.5c25.5,0,46.2-20.7,46.2-46.2c0-25.5-20.7-46.2-46.2-46.2
		h-64.5c-56,0-102.1,49.2-107.1,114.4l-2.1,27.1c-19.5,255.5-37.9,387.3-213.9,403.9V330.6H910c25.5,0,46.2-20.7,46.2-46.2
		s-20.7-46.2-46.2-46.2H802.8c-2.2-0.3-4.3-0.7-6.5-0.7s-4.4,0.4-6.5,0.7h-106c-25.5,0-46.2,20.7-46.2,46.2s20.7,46.2,46.2,46.2
		h66.3v451.9c-165.7-21.3-183.9-154.3-203.3-407.2l-1.7-22.5c-5.1-65.2-51.1-114.4-107.1-114.4h-64.4c-25.5,0-46.2,20.7-46.2,46.2
		S348,330.6,373.5,330.6z"/>
</g>
<g id="NUTRICIÓN" class="st2">
	<path id="XMLID_16_" class="st7" d="M417.9,968.9c2.3-77.5-39.9-106.9-91.4-126.2C309.4,909.3,356.7,964.6,417.9,968.9"/>
	<path id="XMLID_11_" class="st7" d="M429.5,622.7c32.9-70.5,5.4-113.9-34.1-152.2C354,524.7,375.3,594.4,429.5,622.7"/>
	<path id="XMLID_10_" class="st7" d="M448.1,818.3c-2.3-77.5,39.9-106.9,91.4-126.2C556.5,758.6,509.3,813.6,448.1,818.3"/>
	<path id="XMLID_9_" class="st7" d="M448.1,937.9c-2.3-77.5,39.9-106.9,91.4-126.2C556.5,878.3,509.3,933.3,448.1,937.9"/>
	<path id="XMLID_8_" class="st7" d="M448.1,698.6c-2.3-77.5,39.9-106.9,91.4-126.2C556.5,639,509.3,694.3,448.1,698.6"/>
	<path id="XMLID_7_" class="st7" d="M417.9,849.6c2.3-77.5-39.9-106.9-91.4-126.2C309.4,789.6,356.7,845,417.9,849.6"/>
	<path id="XMLID_6_" class="st7" d="M417.9,730c2.3-77.5-39.9-106.9-91.4-126.2C309.4,670.3,356.7,725.3,417.9,730"/>
	<path id="XMLID_5_" class="st8" d="M999.1,1314.7H583.2l208-360.1L999.1,1314.7z"/>
	<polygon id="XMLID_3_" class="st8" points="357.5,1069.6 1238.5,829.9 1225.3,781.5 344.3,1021.2 	"/>
	<path id="XMLID_2_" class="st7" d="M979,328c0,0,6.6,127,117.7,116.2C1096.7,444.6,1109.5,338.1,979,328"/>
	<path id="XMLID_1_" class="st7" d="M1095.6,741.6c-11.6,16.7-31,27.1-52.7,27.1c-17.8,0-35.2-8.5-46.9-20.1
		c-24-26.3-55-84.8-55-84.8c-17.4-35.2-26.7-62.7-26.7-90.6c0-58.9,47.6-110,106.9-110c29,0,55.4,11.6,74.7,30.6
		c19.4-19,45.7-30.6,74.7-30.6c59.2,0,106.9,51.1,106.9,110c0,27.5-9.3,55-26.7,90.6c0,0-31,58.5-55,84.8
		c-11.6,11.6-29,20.1-46.9,20.1C1126.6,768.7,1107.2,757.9,1095.6,741.6"/>
</g>
<g id="__x0D_DERMATOL" class="st2">
	
		<image style="overflow:visible;" width="225" height="225" xlink:href="../../Landing Page/Unknown.png"  transform="matrix(1 0 0 1 537.9355 621.1613)">
	</image>
	<path class="st5" d="M1273.5,845c-78.4,0-78.4-62.6-157.2-62.6c-78.8,0-78.8,62.6-157.2,62.6s-78.8-62.6-157.2-62.6
		c-78.8,0-78.8,62.6-157.2,62.6c-78.8,0-78.8-71.1-157.2-71.1c-78.8,0-78.8,62.6-157.2,62.6v-53.8c0-86.5,70.3-156.4,157.2-156.4
		h629.1c86.9,0,157.2,69.9,157.2,156.4V845H1273.5z"/>
	<path class="st5" d="M1116.3,845c-78.8,0-78.8,62.6-157.2,62.6c-5,0-9.2-0.4-13.5-0.8c8.5,19.2,13.5,40.7,13.5,63
		c0,86.5-70.3,156.4-157.2,156.4s-157.2-69.9-157.2-156.4c0-22.7,5-43.8,13.5-63c-4.2,0.4-8.5,0.8-13.5,0.8
		c-78.8,0-78.8-71.1-157.2-71.1c-78.8,0-78.8,62.6-157.2,62.6v258.6c0,86.5,70.3,156.4,157.2,156.4h629.1
		c86.9,0,157.2-69.9,157.2-156.4V907.6C1194.7,907.6,1194.7,845,1116.3,845"/>
	<path class="st3" d="M502.9,1173.2c0,17.3-14.2,31.1-31.5,31.1c-17.3,0-31.5-13.8-31.5-31.1c0-17.3,14.2-31.1,31.5-31.1
		C488.7,1141.7,502.9,1155.9,502.9,1173.2 M660.1,1173.2c0,17.3-14.2,31.1-31.5,31.1s-31.5-13.8-31.5-31.1
		c0-17.3,14.2-31.1,31.5-31.1C645.9,1141.7,660.1,1155.9,660.1,1173.2 M581.3,1048.3c0,17.3-14.2,31.1-31.5,31.1
		s-31.5-13.8-31.5-31.1s14.2-31.1,31.5-31.1C567.5,1016.8,581.3,1031,581.3,1048.3 M1076.7,1188.9c0,17.3-14.2,31.1-31.5,31.1
		c-17.3,0-31.5-13.8-31.5-31.1c0-17.3,14.2-31.1,31.5-31.1C1062.9,1157.4,1076.7,1171.6,1076.7,1188.9 M1155.5,1063.6
		c0,17.3-14.2,31.1-31.5,31.1c-17.3,0-31.5-13.8-31.5-31.1c0-17.3,14.2-31.1,31.5-31.1C1141.3,1032.5,1155.5,1046.3,1155.5,1063.6"
		/>
	<path class="st3" d="M1066,338.5c-20.8-15.4-50.3-11.1-66.1,9.2l-47.3,62.6c-104.5,138.4-170.2,303.6-191,474.6
		c-31.9,15-54.2,47.3-54.2,84.9c0,51.9,42.3,93.8,94.2,93.8c52.3,0,94.5-41.9,94.5-93.8c0-31.9-16.1-60-40.4-76.9
		c19.2-153.7,78.8-302.1,172.6-426.2l47.3-62.6C1090.9,383.4,1086.7,354.2,1066,338.5"/>
</g>
<g id="NEUMOLOGÍA" class="st2">
	<path class="st5" d="M460,478.1C352.3,620,330.1,859.3,324.9,951.6c-1.6,23.9,8.6,47.9,27.3,63.2c17.2,13.6,39.4,18.9,59.8,15.4
		l206.9-29.1c121.3-18.8,95.6-230.8,99.1-314.5c20.5-20.5,44.5-51.3,78.7-83.8c35.9,35.9,64.9,66.7,87.2,88.9
		c3.4,82-23.9,290.6,95.8,309.4l206.8,29.1c20.5,3.4,42.8-1.8,59.8-15.4c18.9-15.3,29.1-39.3,27.3-63.2
		c-3.4-92.3-25.7-331.6-133.3-473.4c-242.7-319.7-264.9-71.8-258,170.9c-27.5-32.4-53-63.3-54.8-64.9l1.8-181.2h-58.2l-3.4,181.2
		c3.4-3.4-22.1,25.7-51.2,58.1C723.3,401.2,699.3,161.9,460,478.1"/>
</g>
<g id="GASTROENTEROLOGÍA" class="st2">
	<g class="st4">
		<g>
			<path class="st9" d="M754.5,103.5C654.3-15,475.9-7,383,107.5c-34.6-16.5-59.3-36.4-68.2-55.7C301.4,22.7,270.2,6.3,238.9,12
				L170,24.5c-41.9,7.6-67.3,50.7-53.6,90.8c29.4,85.8,106.6,155.2,218.6,197.3c7,31.6,19.1,55.9,31.3,75
				c-77.6,50.5-90.9,158.5-26.5,226.1c-39.3,33.4-66.9,78.7-78.6,129.3c-117.6,18.7-210.6,98.9-244,235.5
				c-9.6,39.2,16.2,78.4,56,85.2l67.8,11.6c35.7,6.1,69.8-15.8,79.2-51.1c13.6-51,40.7-75.4,86.8-77.2
				C558.3,1266,1231.8,667.4,754.5,103.5z"/>
		</g>
	</g>
</g>
<g id="__x0D_UROLOGÍA" class="st2">
	<path class="st5" d="M668.3,712.1c-15.6,0-28.2-12.6-28.2-28.2V509.3c0-43.3-35.2-78.4-78.4-78.4c-15.6,0-28.2-12.6-28.2-28.2
		s12.6-28.2,28.2-28.2c74.4,0,134.9,60.5,134.9,134.9v174.5C696.6,699.4,683.9,712.1,668.3,712.1z"/>
	<path class="st3" d="M210.8,402.7c0,129.1,101.6,233.7,226.8,233.7s25.1-165,25.1-233.7c0-60.2,100.2-233.7-25.1-233.7
		S210.8,273.6,210.8,402.7z"/>
	<g class="st4">
		<path class="st0" d="M437.7,664.6c-140.6,0-255.1-117.5-255.1-261.9S297,140.7,437.7,140.7c34,0,59.2,10.7,74.8,31.8
			c31.5,42.4,11.2,109.5-6.7,168.6c-7.3,24.1-14.8,49.1-14.8,61.5c0,15.7,8.1,42.8,16,69.1c17,56.6,36.2,120.8,6,161.4
			C497.4,654,472.1,664.6,437.7,664.6z M437.7,197.2c-109.5,0-198.6,92.2-198.6,205.5s89.1,205.5,198.6,205.5
			c10.7,0,24.6-1.5,30-8.8c13.3-17.8-3.6-74.2-14.8-111.5c-9.4-31.5-18.4-61.3-18.4-85.3c0-20.8,8-47.2,17.2-77.8
			c11.9-39.4,29.9-99.1,15.4-118.7C461.7,198.8,448.1,197.2,437.7,197.2z"/>
		<path class="st0" d="M771.4,712.1c-15.6,0-28.2-12.6-28.2-28.2V509.3c0-74.4,60.5-134.9,134.9-134.9c15.6,0,28.2,12.6,28.2,28.2
			s-12.6,28.2-28.2,28.2c-43.3,0-78.4,35.2-78.4,78.4v174.5C799.6,699.4,787,712.1,771.4,712.1z"/>
	</g>
	<path class="st3" d="M1228.9,402.7c0,129.1-101.6,233.7-226.8,233.7s-25.1-165-25.1-233.7c0-60.2-100.2-233.7,25.1-233.7
		S1228.9,273.6,1228.9,402.7z"/>
	<g class="st4">
		<path class="st0" d="M1002,664.6c-34.4,0-59.7-10.6-75.3-31.5c-30.2-40.6-11-104.7,6-161.4c7.9-26.3,16-53.4,16-69.1
			c0-12.4-7.5-37.4-14.8-61.5c-17.9-59.2-38.1-126.2-6.7-168.6c15.7-21.1,40.8-31.8,74.8-31.8c140.6,0,255.1,117.5,255.1,261.9
			S1142.7,664.6,1002,664.6z M1002,197.2c-10.4,0-24,1.6-29.5,9c-14.5,19.6,3.5,79.2,15.4,118.7c9.2,30.6,17.2,57.1,17.2,77.8
			c0,23.9-8.9,53.7-18.4,85.3c-11.2,37.3-28,93.6-14.8,111.5c5.4,7.2,19.3,8.8,30,8.8c109.5,0,198.6-92.2,198.6-205.5
			S1111.6,197.2,1002,197.2z"/>
		<path class="st0" d="M759.6,1020.5h-79.4c-26.9,0-49.1-20.4-52.1-46.5c-74.6-27.3-118.4-88.4-118.4-166.7
			c0-57.3,22.7-99.3,67.5-124.9c33.9-19.4,80.6-28.8,142.7-28.8s108.8,9.4,142.7,28.8C907.3,708,930,750,930,807.4
			c0,78.4-43.8,139.4-118.4,166.7C808.7,1000.2,786.4,1020.5,759.6,1020.5z M684.2,964.1h71.3v-10.8c0-12.8,8.6-24,21-27.3
			c36.3-9.6,97.1-37.8,97.1-118.7c0-48.1-18.3-97.3-153.7-97.3s-153.7,49.2-153.7,97.3c0,80.8,60.8,109.1,97.1,118.7
			c12.4,3.3,21,14.5,21,27.3L684.2,964.1L684.2,964.1z"/>
	</g>
</g>
<g id="ODONTOLOGÍA" class="st2">
	<g class="st4">
		<g>
			<path class="st0" d="M815.2,62.4c-9.6,3.4-12.2,15.7-5,22.9l46,45.9c39.1,39-20,98.2-59.1,59.2c-83.5-83.3-75.6-75.3-77.7-77.8
				C508.8-50.9,193.7,91.5,185.1,363.5c-2.6,82.4,24.9,162.7,77.4,226.1c37.1,44.7,182.4,394.8,198.5,416.7
				c39.3,53.4,122.7,39.5,142.8-23.8c25.7-80.6,71.9-132.8,117.7-132.8c45.8,0,92,52.1,117.7,132.8c23.4,73.2,122,71.9,147.2,16.3
				c181.9-399.6,170.7-381,194.1-409.2C1396.2,329.5,1132.8-51.7,815.2,62.4z M443.8,439.3c22.7,27.4,2.9,68.5-32.2,68.5
				c-58.3,0-120.6-160.8-24-258.8c16.2-16.4,42.7-16.6,59.1-0.4c16.4,16.2,16.6,42.7,0.4,59.1C412.9,342.4,411.4,400.2,443.8,439.3z
				"/>
		</g>
	</g>
</g>
<g id="OTORRINO" class="st2">
	<g class="st4">
		<g>
			<g>
				<path class="st0" d="M829,1083.7L829,1083.7V856.5c0-60.7-49.5-110.2-110.2-110.2H452.1c17.2,22.2-12.8,53.9-11.9,82.9
					c1.8,37.6,50.4,52.1,88,47.1s78.5-18,109.3,4.2c19.6,13.6,29,38.5,34.1,61.6c11.9,46.2,15.4,94.8,10.3,142.6h147L829,1083.7
					L829,1083.7z"/>
				<path class="st0" d="M1252.7,307.4c-21.3-128-113.5-244.2-236.7-282.7C936.5-0.2,852.1,6,770,19.6
					c-107.6,18-227.2,59-270.8,158.8c-23.1,53-21.3,112.9-25.5,170.1c-4.2,57.2-19.6,119.7-64.9,154.7
					c-20.5,15.4-48.6,29.9-49.5,55.4c-0.9,49.5,100.8,56.3,91.3,105.8c-2.6,13.6-14.5,26.4-21.3,38.5h289.5
					c84.5,0,153.8,69.3,153.8,153.8v227.2l0,0h193.8c-19.1-238.5,5.9-310,21.3-341.6c14.5-28.2,36.7-50.4,57.2-74.4
					C1229.6,568.7,1274,434.5,1252.7,307.4z"/>
			</g>
		</g>
	</g>
</g>
<g id="__x0D_CUIDADOS_PALIATIVOS" class="st2">
	<g class="st4">
		<g>
			<g>
				<path class="st1" d="M1002.4,50.9C951.6,0.1,869.2,0,818.2,50.5C767.2,0,684.9,0.1,634,50.9c-50.9,50.9-50.9,133.6,0,184.5
					c2.5,2.5,123.4,122.8,167.9,167.2c9,8.9,23.5,8.9,32.5,0c44.5-44.3,165.5-164.7,167.9-167.2
					C1053.3,184.5,1053.3,101.8,1002.4,50.9z"/>
			</g>
			<g>
				<path class="st0" d="M1301.4,711.7l-157.5-147.9c-36.3-34.1-84.3-53.1-134.2-53.1H702.2c-32.6,0-59,26.4-59,59.1s26.4,59,59,59
					h222.9c20.3,0,36.8,16.4,36.8,36.7s-16.5,36.8-36.8,36.8H545.5c-8.3,0-16.3-2.8-22.7-7.9L362.8,568.6
					c-25.6-20.1-62.8-15.8-82.9,9.8c-20.2,25.7-15.7,62.7,9.9,82.9l246,193.6c10.8,8.5,23.7,12.6,36.5,12.6c0,0,0,0,0,0v0h443.3
					c9.6,0,18.8,3.7,25.6,10.4l189.9,184.6c18.4,17.9,45.8,23,69.5,13.1c23.7-10,39.1-33.2,39.1-58.9V805.4
					C1339.8,770.4,1326,736.7,1301.4,711.7z"/>
			</g>
		</g>
	</g>
</g>
<g id="__x0D_DERMATOLOGÍA" class="st2">
	<g class="st4">
		<path class="st0" d="M770.5,172.5c-23.9,0-43.3,19.4-43.3,43.3v174.7c0,6.1-4.9,11-11,11c-6.1,0-11-4.9-11-11V95.3
			c0-23-18.6-41.6-41.6-41.6c-23,0-41.6,18.6-41.6,41.6V396c-2.2,7.4-9.7,7.2-9.7,7.2c-8-0.5-9-8.1-9-8.1V43.3
			c0-21.4-17.3-38.7-38.7-38.7s-38.7,17.3-38.7,38.7v347.5c0,5.3-4.3,9.6-9.6,9.6s-9.6-4.3-9.6-9.6V126.7
			c0-21.2-17.2-38.4-38.4-38.4h0c-21.2,0-38.4,17.2-38.4,38.4v441l-16.6-13.5c-21.7-17.8-38.3-41.1-47.9-67.5l-31-85.4
			c-5.2-14.2-18.6-23.6-33.7-23.6c-21.5,0-38.2,18.8-35.6,40.2l15.7,128.5c8.7,71.3,39.1,138.2,87,191.8l14.2,15.9
			c30.8,34.4,47.9,79,47.9,125.2v197.4h331.3l2.6-216.1c0.5-45.4,10.5-90.3,29.3-131.7c13.7-30.2,20.8-62.9,20.8-96.1v-417
			C813.7,191.9,794.4,172.5,770.5,172.5z"/>
		<path class="st1" d="M688.2,521.9c0,14.1-11.4,25.4-25.4,25.4c-14.1,0-25.4-11.4-25.4-25.4c0-14.1,11.4-25.4,25.4-25.4
			C676.8,496.5,688.2,507.9,688.2,521.9z"/>
		<path class="st1" d="M609.6,640.7c0,10.9-8.9,19.8-19.8,19.8c-10.9,0-19.8-8.9-19.8-19.8c0-10.9,8.9-19.8,19.8-19.8
			C600.8,620.9,609.6,629.8,609.6,640.7z"/>
		<path class="st1" d="M718.8,620c0,11.4-9.2,20.6-20.6,20.6c-11.4,0-20.6-9.2-20.6-20.6s9.2-20.6,20.6-20.6
			C709.5,599.4,718.8,608.6,718.8,620z"/>
		<circle class="st1" cx="718.8" cy="804" r="20.6"/>
		<circle class="st1" cx="750.1" cy="552.2" r="11.6"/>
		<path class="st1" d="M769.1,459.2c0,6.9-5.6,12.4-12.4,12.4c-6.9,0-12.4-5.6-12.4-12.4c0-6.9,5.6-12.4,12.4-12.4
			C763.5,446.7,769.1,452.3,769.1,459.2z"/>
		<circle class="st1" cx="731.2" cy="715.3" r="17.5"/>
		<path class="st1" d="M777.1,641.2c0,7.5-6,13.5-13.5,13.5c-7.5,0-13.5-6-13.5-13.5c0-7.5,6-13.5,13.5-13.5
			C771.1,627.7,777.1,633.7,777.1,641.2z"/>
		<circle class="st1" cx="648.6" cy="744.2" r="28.8"/>
		<path class="st1" d="M706,879.4c0,11-8.9,19.9-19.9,19.9c-11,0-19.9-8.9-19.9-19.9s8.9-19.9,19.9-19.9
			C697.1,859.5,706,868.4,706,879.4z"/>
	</g>
</g>
<g id="lineas">
</g>
</svg>
