<?xml version="1.0" encoding="utf-8"?>
<!-- Generator: Adobe Illustrator 22.0.1, SVG Export Plug-In . SVG Version: 6.00 Build 0)  -->
<svg version="1.1" xmlns="http://www.w3.org/2000/svg" xmlns:xlink="http://www.w3.org/1999/xlink" x="0px" y="0px"
	 viewBox="0 0 955.8 994.5" style="enable-background:new 0 0 955.8 994.5;" xml:space="preserve">
<style type="text/css">
	.st0{fill:#002B54;}
	.st1{fill:#00D9B2;}
	.st2{display:none;}
	.st3{display:inline;fill:#00D9B2;}
	.st4{display:inline;}
	.st5{display:inline;fill:#002B54;}
	.st6{fill:#00D9B2;stroke:#00D9B2;stroke-width:8.5039;stroke-miterlimit:10;}
	.st7{fill:#002B54;stroke:#002B54;stroke-width:5.6693;stroke-miterlimit:10;}
</style>
<g id="MEDICINA_INTERNA">
	<path class="st0" d="M-575.1,517.7c63.2-6.7,124.6-39.9,177.7-98c8.4-10,10-20,8.4-31.6c71.4-86.4,114.5-204.3,114.5-295.7
		c0-141.2-66.4-156.1-179.3-179.4v-1.6c-8.4-13.3-21.7-21.6-38.2-21.6c-23.2,0-41.5,18.3-41.5,39.9c0,21.6,18.3,39.8,41.5,39.8
		c10,0,18.3-3.3,25-10l1.6,1.7c109.6,23.3,137.9,28.3,137.9,131.2c0,79.8-39.8,187.7-103,265.8c-10,0-19.9,3.3-28.3,11.6
		c-31.5,34.9-83,76.4-142.8,76.4c-61.5,0-111.2-41.5-142.8-74.7c-8.4-8.3-18.3-13.3-28.3-13.3c-63-78.1-104.6-186-104.6-265.8
		c0-102.9,29.9-107.9,139.5-131.2v-1.7c6.7,6.6,16.6,10,26.6,10c23.3,0,41.5-18.3,41.5-39.8c0-21.6-18.3-39.9-41.5-39.9
		c-18.2,0-31.5,8.3-38.2,21.6h-1.6c-111.2,24.9-179.3,38.2-179.3,181c0,91.4,43.1,209.3,116.1,297.3c-1.6,10,0,21.6,8.4,29.9
		c53.1,56.5,113,89.7,174.4,98l-1.7,179.3c0,122.9-107.9,222.6-239.2,222.6c-131.1,0-237.5-99.7-237.5-222.6V539.3
		c76.5-11.6,134.6-71.4,134.6-146.2c0-83.1-73.1-149.5-162.8-149.5c-88,0-161,66.4-161,149.5c0,74.8,59.7,134.5,134.5,146.2v157.8
		c0,149.5,131.3,270.8,292.3,270.8c162.9,0,294-121.2,294-270.8V517.7H-575.1z"/>
	<path class="st1" d="M-914.3,326.5L-914.3,326.5c42.6,0,77.1,32.8,77.1,73.8c0,41-34.5,75.5-77.1,75.5c-44.3,0-77.1-34.4-77.1-75.5
		C-991.4,359.3-958.6,326.5-914.3,326.5"/>
</g>
<g id="CIRUGÍA_GENERAL" class="st2">
	<path class="st3" d="M1069.3-53.7l-56.1,56.1c0,0-180.7,302.3-180.7,302.3l48.6,48.6c0,0,42.6-42.6,103.5-103.5
		C1074.3,160.2,1104.8,38.3,1069.3-53.7z"/>
	<g class="st4">
		<path class="st1" d="M472.4,592.6L134.3,970.8c24.7,24.7,64.8,24.7,89.5,0l281-281L472.4,592.6z"/>
		<polygon class="st1" points="767.9,369.3 796.6,398 699.4,495.3 602.1,462.9 764.2,365.6 		"/>
	</g>
	<g class="st4">
		<path class="st1" d="M504.8,625L191.4,938.4c-24.7,24.7-50.3,39.2-57.1,32.4c-24.7-24.7-24.7-64.8,0-89.5l281-281L504.8,625z"/>
		<polygon class="st1" points="764.2,365.6 634.5,495.3 609.8,405.8 707.1,308.5 		"/>
	</g>
	<polygon class="st3" points="699.4,495.3 650.7,543.9 585.9,511.5 666.9,462.9 	"/>
	<polygon class="st3" points="666.9,462.9 602.1,527.7 561.2,454.4 609.8,405.8 	"/>
	<path class="st3" d="M788.1,389.5l-23.9-23.9l-57.1-57.1L1013.2,2.4c9.3,64-14.3,136-77.1,198.7
		C873.3,263.9,788.1,389.5,788.1,389.5z"/>
	<polygon class="st3" points="650.7,543.9 602.1,592.6 537.3,560.1 618.3,511.5 	"/>
	<g class="st4">
		<polygon class="st1" points="602.1,592.6 553.5,641.2 488.6,608.8 569.7,560.1 		"/>
		<polygon class="st1" points="618.3,511.5 553.5,576.4 512.6,503 561.2,454.4 		"/>
	</g>
	<polygon class="st3" points="569.7,560.1 504.8,625 463.9,551.7 512.6,503 	"/>
	<polygon class="st3" points="553.5,641.2 504.8,689.8 472.4,657.4 480.5,616.9 521.1,608.8 	"/>
	
		<rect x="433.8" y="564.2" transform="matrix(0.7071 -0.7071 0.7071 0.7071 -290.3416 508.124)" class="st3" width="68.8" height="80.8"/>
	<path class="st5" d="M1085.3-59.9c-2.1-5.4-6.8-9.4-12.5-10.6c-5.7-1.2-11.6,0.5-15.7,4.7L694.9,296.4L122.2,869.1
		c-31.4,31.4-31.4,82.5,0,113.8c15.2,15.2,35.4,23.6,56.9,23.6c0,0,0,0,0,0c21.5,0,41.7-8.4,56.9-23.6l572.8-572.8
		c6.2-6.2,6.7-15.9,1.4-22.7l40.1-40.1l18.9,18.3c6.7,6.5,17.5,6.4,24.1-0.2l103.5-103.5C1088.6,170.1,1124.2,40.8,1085.3-59.9z
		 M650.7,519.6l-65.2-65.2l24.3-24.3l65.2,65.2L650.7,519.6z M602.1,568.2L536.9,503l24.3-24.3l65.2,65.2L602.1,568.2z M553.5,616.9
		l-65.2-65.2l24.3-24.3l65.2,65.2L553.5,616.9z M504.9,665.5l-65.2-65.2L464,576l65.2,65.2L504.9,665.5z M211.7,958.7
		c-8.7,8.7-20.3,13.5-32.6,13.5s-23.9-4.8-32.6-13.5c-18-18-18-47.2,0-65.2l268.8-268.8l65.2,65.2L211.7,958.7z M699.4,471
		l-65.2-65.2l72.9-72.9l65.2,65.2L699.4,471z M972.6,237.6L881,329.2L862,310.9c-6.7-6.5-17.5-6.4-24.1,0.2L786,363.1l-54.6-54.6
		L996.9,43.1C992,93.3,965.6,147.3,924,189L869,243.9c-6.7,6.7-6.7,17.6,0,24.3c3.4,3.4,7.8,5,12.2,5c4.4,0,8.8-1.7,12.2-5
		l54.9-54.9c58.3-58.3,89.6-135.9,83-204.6l30-30C1080.6,62.5,1046.9,163.2,972.6,237.6z"/>
</g>
<g id="__x0D_GINECOLOGÍA_Y_OBSTETRICIA" class="st2">
	<path class="st3" d="M778.9,211.7c0,0-25.2-28-30.9-30.9c-5.6-2.8-100.9-36.4-100.9-36.4H577l-70.1,15.4l-50.5,35l-9.8,47.2
		l19.7,49c0,0,22.4,69.2,21,73.4c-1.4,4.1,51.9,73.4,51.9,73.4l-11.2,43c0,0-29.4,120.6-30.9,127.6c-1.4,7,65.9,161.2,65.9,161.2
		h98.1l42.1-107.9L720,528.5L704.6,401l50.5-68.7L778.9,211.7z"/>
	<path class="st5" d="M1146.1,248c-7.5-27.8-24.7-48.9-51.2-62.7c-43.7-22.8-112.7-24.7-205-5.8c-39,8-73.7,18.1-96.2,25.1
		c-1-2.3-2.1-4.5-3.4-6.8c-15.1-27.6-45.9-50.3-88.9-65.5c-36.1-12.7-72.1-17.3-92-17.3c-19.9,0-55.9,4.5-92,17.3
		c-43,15.2-73.7,37.9-88.9,65.5c-1.2,2.3-2.3,4.5-3.4,6.8c-22.4-7.1-57.1-17.1-96.2-25.1c-92.3-18.9-161.3-17-205,5.8
		c-26.5,13.8-43.7,34.9-51.2,62.7C56.4,309.6,157.8,365.4,230,387.9c33.9,10.5,65.7,15.9,94.9,15.9c9,0,17.8-0.5,26.3-1.5
		c30-3.6,56.7-13.4,79.6-29.1c12.3-8.5,22.1-17.9,29.9-26.8c24.4,46.8,42.4,97.6,42.3,109.9c-1.3,7.8-5.7,17.9-10.4,28.7
		c-10.7,24.5-24,55.1-16.7,91.6c19.2,94.5,62.5,196.2,64.3,200.5l5.8,13.6h127l5.8-13.6c1.8-4.3,45.1-106,64.3-200.5
		c7.4-36.4-5.9-67-16.7-91.5c-4.7-10.7-9.1-20.8-10.4-28.7c-0.1-12.4,17.8-63.1,42.3-109.9c7.7,8.9,17.5,18.3,29.9,26.8
		c22.8,15.7,49.6,25.5,79.6,29.1c8.5,1,17.3,1.5,26.3,1.5c29.2,0,61-5.3,94.9-15.9C1061.1,365.4,1162.5,309.6,1146.1,248z
		 M609.2,392.2c-12.6-36.7-30.2-69.1-52.5-96.7c-0.6-0.7-1.2-1.3-1.7-2c20.6,2.9,40.9,4.3,61,4.3c15.6,0,31.1-0.9,46.2-2.6
		c-0.1,0.1-0.2,0.2-0.3,0.3C639.6,323.1,621.9,355.5,609.2,392.2z M609.5,159.9c39.1,0,119.8,19.9,141.5,59.5
		c0.9,1.5,1.6,3.1,2.2,4.7c-58.7,27.1-125,35.3-197.3,24.2c-44.1-6.8-77.5-19.2-90.1-24.3c0.7-1.5,1.4-3.1,2.2-4.6
		C489.7,179.8,570.4,159.9,609.5,159.9z M405.3,336.2c-38.7,26.7-94.7,29.8-161.9,8.9c-34.5-10.7-69.9-27.9-94.9-45.8
		c-24.7-17.8-34.1-33.1-32.3-39.7c4.1-15.3,13.4-26.6,28.6-34.5c63.5-33.1,204.5,1.9,273.1,24.2c1.7,20.3,9.4,39.3,18.4,55.1
		C430.6,313.2,420.8,325.5,405.3,336.2z M533.6,502.9c5.9-13.6,11.6-26.5,13.7-40.2c0.8-5.3,3.3-21.3-20.1-78.9
		c-14.1-34.7-31.6-69.5-48.2-95.3c-1.9-3.1-3.7-6-5.3-9c14.8,9.8,33.1,25,49.9,46.4c20.9,26.6,37,58.7,47.8,95.4
		c8.1,27.5,13.1,57.6,15.2,90c-1.4,23.6-1.4,48.1,0.1,73.7v59.2c-14,1.5-28.8,4.8-43.6,10.7c-8.8-27.8-17.4-58.2-23.3-87.4
		C515.3,545,524.6,523.6,533.6,502.9z M575.8,745.8c-4.4-10.9-11-27.8-18.2-48.2c21.9-9.3,46.1-11.7,72.3-7.1
		c12.8,2.3,23.6,5.8,30.9,8.7c-7.1,19.6-13.4,35.9-17.7,46.5L575.8,745.8L575.8,745.8z M671.6,462.7c2.1,13.6,7.8,26.5,13.7,40.2
		c9,20.7,18.4,42.1,13.8,64.7c-6,29.8-14.8,60.9-23.9,89.1c-10.8-4.1-25.8-8.7-43.6-11.3v-61.5h0c1.4-25.1,1.4-49.3,0-72.4
		c2.1-32.5,7.2-62.6,15.3-90.1c10.8-36.7,26.9-68.8,47.9-95.3c17-21.5,35.4-36.7,50.3-46.6c-1.6,3-3.4,6-5.4,9.1
		c-16.5,25.8-34.1,60.6-48.2,95.3C685.9,398.1,668.3,441.5,671.6,462.7z M1070.4,299.3c-24.9,17.9-60.4,35.1-94.9,45.8
		c-67,20.9-120.8,18.3-160-7.6c-16.5-10.9-26.9-24-32.9-33.3c9-15.7,16.7-34.7,18.4-55c68.5-22.3,209.5-57.3,273-24.2
		c15.1,7.9,24.5,19.2,28.6,34.5C1104.5,266.2,1095.2,281.5,1070.4,299.3z"/>
	<g class="st4">
		<path class="st1" d="M1017.4,349.6c-5.5-26.9-43.2-42.1-84.2-33.9c-41,8.2-69.8,36.7-64.3,63.6c5.5,26.9,43.2,42.1,84.2,33.9
			C994.2,404.9,1023,376.5,1017.4,349.6z"/>
		<path class="st1" d="M931,437.8L931,437.8c-43.7,0-77.5-21.7-84.1-54.1c-3.2-15.5,0.3-31.4,10-46c14.2-21.4,41.1-37.9,71.9-44
			c8.8-1.8,17.8-2.7,26.5-2.7c43.7,0,77.5,21.7,84.1,54c3.2,15.5-0.3,31.4-10,46c-14.2,21.4-41.1,37.9-71.9,44
			C948.7,436.9,939.8,437.8,931,437.8z M955.3,335.9c-5.8,0-11.8,0.6-17.7,1.8c-22.8,4.6-37.4,15.8-43.3,24.8
			c-2.1,3.1-4.3,7.8-3.4,12.3c2.3,11.4,22.2,18.1,40.2,18.1l0,0c5.8,0,11.8-0.6,17.7-1.8c22.8-4.6,37.4-15.8,43.3-24.9
			c2.1-3.1,4.3-7.7,3.4-12.2C993.2,342.7,973.2,335.9,955.3,335.9z"/>
		<path class="st1" d="M201.5,349.6c5.5-26.9,43.2-42.1,84.2-33.9c41,8.2,69.8,36.7,64.3,63.6c-5.5,26.9-43.2,42.1-84.3,33.9
			C224.8,404.9,196,376.5,201.5,349.6z"/>
		<path class="st1" d="M287.9,437.8c-8.7,0-17.7-0.9-26.5-2.7c-30.8-6.1-57.7-22.6-71.9-44c-9.7-14.6-13.1-30.5-10-46
			c6.6-32.3,40.4-54,84.1-54c8.7,0,17.7,0.9,26.5,2.7c30.8,6.2,57.7,22.6,71.9,44c9.7,14.6,13.1,30.5,10,46
			C365.4,416.1,331.6,437.8,287.9,437.8z M263.6,335.9c-17.9,0-37.8,6.8-40.2,18.2c-0.9,4.5,1.3,9.1,3.4,12.2
			c6,9,20.5,20.3,43.3,24.9c5.9,1.2,11.9,1.8,17.7,1.8c17.9,0,37.8-6.8,40.2-18.1c0.9-4.5-1.3-9.1-3.4-12.3
			c-6-9-20.5-20.3-43.3-24.8C275.4,336.5,269.4,335.9,263.6,335.9z"/>
	</g>
</g>
<g id="PEDIATRÍA" class="st2">
	<g id="XMLID_2972_" class="st4">
		<path id="XMLID_1594_" class="st0" d="M423.6,992.9L423.6,992.9c-181.7,0-329-147.3-329-329V241c0-181.7,147.3-329,329-329l0,0
			c181.7,0,329,147.3,329,329v423C752.5,845.6,605.3,992.9,423.6,992.9z"/>
		<path id="XMLID_1647_" class="st0" d="M748.9,241v423c0,181.7-147.3,329-329,329l0,0v-94h3.6V-88C603.6-86,748.9,60.5,748.9,241z"
			/>
		<path id="XMLID_1530_" class="st0" d="M752.5,241v423c0,181.7-147.3,329-329,329l0,0l0,0c-181.7,0-329-147.3-329-329V241
			c0-79.7,28.4-152.9,75.6-209.8l253.4,253.4L677,31.2C724.2,88.1,752.5,161.2,752.5,241z"/>
		<path id="XMLID_1431_" class="st0" d="M752.5,241v423c0,181.7-147.3,329-329,329l0,0V694.5V375.2v-90.6L677,31.2
			C724.2,88.1,752.5,161.2,752.5,241z"/>
		<path id="XMLID_1247_" class="st1" d="M282.7,234.3c3.5-74.8,65.2-134.4,140.8-134.4s137.4,59.6,140.8,134.4h0.2V382h-282V234.3
			L282.7,234.3L282.7,234.3z"/>
		<path id="XMLID_1683_" class="st1" d="M423.6,100v282H282.7V234.3C286.2,159.6,347.9,100,423.6,100z"/>
		<path id="XMLID_1675_" class="st1" d="M423.6,284.6l119.1-119.1c12.8,20.1,20.6,43.6,21.8,68.8h0.2V382h-282V234.3h0.2
			c1.2-25.3,9-48.8,21.8-68.8L423.6,284.6z"/>
		<path id="XMLID_1596_" class="st1" d="M564.4,382H423.6v-97.4l119.1-119.1c12.8,20.1,20.6,43.6,21.8,68.8L564.4,382L564.4,382z"/>
		<path id="XMLID_1380_" class="st0" d="M752.5,241v423c0,181.7-147.3,329-329,329l0,0l0,0c-181.7,0-329-147.3-329-329V241
			c0-56.3,14.2-109.3,39.1-155.7l289.9,289.9L713.4,85.3C738.4,131.6,752.5,184.7,752.5,241z"/>
		<path id="XMLID_1370_" class="st0" d="M423.6,375.2v617.8l0,0c-181.7,0-329-147.3-329-329V241c0-56.3,14.2-109.3,39.1-155.7
			L423.6,375.2z"/>
		<path id="XMLID_1358_" class="st0" d="M611.6,187.2v453.3c0,77.9-63.1,141-141,141h-47h-47c-77.9,0-141-63.1-141-141V187.2
			l188,188L611.6,187.2z"/>
		<path id="XMLID_1356_" class="st0" d="M235.6,187.2l188,188v406.3h-47c-77.9,0-141-63.1-141-141V187.2z"/>
		<path id="XMLID_1354_" class="st1" d="M529.3,558.2c0,19.5-15.8,35.2-35.2,35.2h-35.2v35.2c0,19.5-15.8,35.2-35.2,35.2
			s-35.2-15.8-35.2-35.2v-35.2h-35.2c-19.5,0-35.2-15.8-35.2-35.2s15.8-35.2,35.2-35.2h35.2v-35.2c0-19.5,15.8-35.2,35.2-35.2
			s35.2,15.8,35.2,35.2V523h35.2C513.5,523,529.3,538.7,529.3,558.2z"/>
		<path id="XMLID_1347_" class="st1" d="M388.3,594v-0.5h-35.2c-19.5,0-35.2-15.8-35.2-35.2s15.8-35.2,35.2-35.2h35.2v-35.2
			c0-19.5,15.8-35.2,35.2-35.2s35.2,15.8,35.2,35.2V523h0.5L388.3,594z"/>
	</g>
</g>
<g id="ORTOPEDIA" class="st2">
	<g class="st4">
		<g>
			<path class="st0" d="M814,26.5L753.4-59c-19.3-27.2-57.1-33.7-84.3-14.4l-51.2,36.3c-66.6,47.1-145,71.2-226.8,69.7
				c-27-0.4-53.1,7.5-75.2,23.2c0,0,0,0,0,0c-27.5,19.5-45.8,48.5-51.4,81.7c-1.6,9.2-2.1,18.4-1.7,27.5
				c-95.5,21-167.4,108.3-167.4,212.6c0,40.2,10.7,77.9,29.3,110.2c-18.3,21.9-29.3,50-29.3,80.7c0,27.1,8.5,53,24.6,74.8
				c47.9,64.9,74.2,144.9,74.2,225.3v62.8c0,33.4,27.1,60.5,60.5,60.5h104.8c33.4,0,60.5-27.1,60.5-60.5v-62.8
				c0-81.6,25.7-159.5,74.2-225.3c16.1-21.8,24.6-47.7,24.6-74.8c0-30.7-11-58.8-29.3-80.7c11.6-20.2,20.2-42.5,25-66.2
				c16.4-3.6,32.1-10.4,46.1-20.3c22.2-15.7,38.3-37.6,46.8-63.3c25.3-76.6,75.4-144.4,141-190.8l51.2-36.3
				C826.8,91.5,833.2,53.7,814,26.5z M276.4,216.2c2.7,5.3,5.8,10.5,9.4,15.4c18.5,26.1,46.2,43.9,76.8,50.4
				c-4,31,3.6,63.1,22.1,89.2c18.2,25.7,44.8,43.3,75.3,50.2c-3.1,11.7-7.5,22.9-12.9,33.4c-16.5-7.9-35-12.4-54.5-12.4
				c-31.9,0-62.5,12.3-85.5,33.5c-23-21.2-53.6-33.5-85.5-33.5c-19.5,0-38,4.5-54.5,12.4c-11.9-23-18.6-49.3-18.6-77.2
				C148.4,297.7,203.6,231,276.4,216.2z M451.5,611.9c-55.3,75-84.6,163.8-84.6,256.8v62.8c0,4.1-3.4,7.5-7.5,7.5H254.7
				c-4.1,0-7.5-3.4-7.5-7.5v-62.8c0-91.6-30-182.8-84.6-256.8c-9.3-12.6-14.2-27.6-14.2-43.3c0-40.3,32.8-73.1,73.1-73.1
				c26,0,49.4,13.3,62.8,35.6c4.8,8,13.4,12.9,22.7,12.9S325,539,329.8,531c13.4-22.3,36.8-35.6,62.8-35.6
				c40.3,0,73.1,32.8,73.1,73.1C465.7,584.3,460.8,599.3,451.5,611.9z M768.9,67.6l-51.2,36.3C642.9,156.8,585.8,234,557,321.3
				c-4.9,14.9-14.3,27.5-27.1,36.6c-15.9,11.3-35.3,15.7-54.6,12.4c-19.3-3.3-36.1-13.9-47.4-29.8c-15-21.2-17.7-48-7.2-71.8
				c3.8-8.5,2.8-18.4-2.6-26c-5-7-13.1-11.2-21.6-11.2c-0.7,0-1.4,0-2,0.1c-25.9,2-50.4-9.5-65.4-30.6
				c-23.3-32.9-15.5-78.6,17.4-102c12.8-9.1,27.8-13.8,43.6-13.4c93.2,1.8,182.6-25.7,258.5-79.4l51.2-36.3c3.4-2.4,8-1.6,10.4,1.8
				l60.6,85.5C773.1,60.5,772.3,65.2,768.9,67.6z"/>
		</g>
		<g>
			<path class="st0" d="M405.8,104.2c-34.3,0-62.2,27.9-62.2,62.2c0,14.6,11.9,26.5,26.5,26.5c14.6,0,26.5-11.9,26.5-26.5
				c0-5.1,4.1-9.2,9.2-9.2c14.6,0,26.5-11.9,26.5-26.5S420.4,104.2,405.8,104.2z"/>
		</g>
	</g>
</g>
<g id="NEUROLOGÍA" class="st2">
	<g class="st4">
		<path class="st1" d="M514.5-54.9C285.3-51.7,97.1,142.4,109.2,378.2h-0.6v37.9L6.7,581.5h101.9v149.9c0,38.1,30.9,68.9,68.9,68.9
			h188.9v161.5h307.9v-7.1c0-112.1,45-220.3,127-296.8c80.5-75.2,130.8-182.2,130.8-301C932.1,127.4,744.6-58.2,514.5-54.9z"/>
		<g>
			<path class="st0" d="M319,235.3c64.3,93.9,140.2,28.5,177.7,49c13,7.1,17,23.9,17,38.7c0,14.8-2.6,30.2,2.6,44
				c11.5,30.8,52.6,36.6,85.3,33.1c34.4-3.7,37.8,5.1,48,34.9c16.5,48.1,48.4,82.1,99.7,81.8c23.6-0.2,44.6-14.8,54-36.5
				c89.1-203.8-62.4-434.9-287.3-431.9C394.8,50.1,248.3,132.1,319,235.3z"/>
			<g>
				<path class="st0" d="M514.1-82.8c-246.4,3.4-442.8,211.2-433,456.4c-0.6,3.5-0.4,4-0.4,34.6L-17,566.9
					c-11.4,18.6,2,42.5,23.7,42.5h74v122c0,53.4,43.4,96.8,96.8,96.8h161v133.6c0,15.4,12.5,27.9,27.9,27.9h307.9
					c15.4,0,27.9-12.5,27.9-27.9c0-118.5,45.5-215.8,118.1-283.6c88.8-82.9,139.7-200,139.7-321.4C960,111.4,759.5-86.4,514.1-82.8z
					 M782.3,637.5c-81.4,76-130,183.1-135.3,296.5H394.3V800.3c0-15.4-12.5-27.9-27.9-27.9H177.5c-22.6,0-41-18.4-41-41V581.5
					c0-15.4-12.5-27.9-27.9-27.9H56.6c82.2-133.5,79.8-126.6,79.8-137.5V384c2.5-11.5-19.2-166.5,112.9-298.5
					c241.1-240.9,654.8-70.5,654.8,271.2C904.2,462.8,859.8,565.1,782.3,637.5z"/>
				<path class="st0" d="M801.6,172.9C696.9,12.9,480.4-28.7,324.2,84.5c-32.8,24-80.9,89.6-28.2,166.5
					c71.2,104,166.3,48.6,186.9,57.5c3.7,5,2.7,19.2,2.5,24.3c-0.5,12.6-1.2,28.2,4.7,44c24.8,66.3,116.7,49.8,126.7,50.5
					c1.8,3.7,4.5,11.4,6.3,16.8c42.6,124.5,171.2,126.3,205.7,47.4C874.2,387.5,864,268.4,801.6,172.9z M777.7,469.1
					c-5,11.4-15.8,19.7-29.2,19.7c-33.9,0-58.3-21.2-72.6-62.9c-12.3-36-24.4-59.3-77.3-53.6c-23.5,2.5-51-1.2-56.2-15.1
					c-2.7-7.3-0.9-20.6-0.8-34.2c0-29.2-11.4-52.2-31.4-63.2C455.7,230,397,299.9,342,219.5c-33.8-49.3,6.8-83.7,15.1-89.9
					c130.2-94.4,310.5-59.7,397.9,73.8C807,283.1,815.5,382.5,777.7,469.1z"/>
			</g>
		</g>
	</g>
</g>
<g id="PSICOLOGÍA" class="st2">
	<path class="st5" d="M50.6,8.5H115c3.7,0,13.6,10.3,15.1,29.3l1.7,22.5c18.4,239.8,35.9,467,295.3,493v349h-66.3
		c-25.5,0-46.2,20.7-46.2,46.2c0,25.5,20.7,46.2,46.2,46.2h226.3c25.5,0,46.2-20.7,46.2-46.2c0-25.5-20.7-46.2-46.2-46.2h-67.7
		V554.1c270-20.5,287.6-248.5,306-489.4l2.1-27c1.5-19,11.4-29.3,15.1-29.3h64.5c25.5,0,46.2-20.7,46.2-46.2s-20.7-46.2-46.2-46.2
		h-64.5c-56,0-102.1,49.2-107.1,114.4l-2.1,27.1C713.9,313.3,695.5,445,519.4,461.6V8.5h67.7c25.5,0,46.2-20.7,46.2-46.2
		s-20.7-46.2-46.2-46.2H479.8c-2.2-0.3-4.3-0.7-6.5-0.7c-2.2,0-4.4,0.4-6.5,0.7h-106c-25.5,0-46.2,20.7-46.2,46.2
		s20.7,46.2,46.2,46.2h66.3v451.9C261.5,439.1,243.3,306.1,223.9,53.1l-1.7-22.5C217.1-34.6,171-83.8,115-83.8H50.6
		c-25.5,0-46.2,20.7-46.2,46.2S25.1,8.5,50.6,8.5z"/>
</g>
<g id="NUTRICIÓN">
	<path id="XMLID_11_" class="st6" d="M94.9,646.7c2.3-77.5-39.9-106.9-91.4-126.2C-13.5,587.1,33.8,642.5,94.9,646.7"/>
	<path id="XMLID_10_" class="st6" d="M106.6,300.5c32.9-70.5,5.4-113.9-34.1-152.2C31,202.6,52.3,272.3,106.6,300.5"/>
	<path id="XMLID_9_" class="st6" d="M125.1,496.1c-2.3-77.5,39.9-106.9,91.4-126.2C233.6,436.5,186.3,491.5,125.1,496.1"/>
	<path id="XMLID_8_" class="st6" d="M125.1,615.8c-2.3-77.5,39.9-106.9,91.4-126.2C233.6,556.1,186.3,611.1,125.1,615.8"/>
	<path id="XMLID_7_" class="st6" d="M125.1,376.4c-2.3-77.5,39.9-106.9,91.4-126.2C233.6,316.8,186.3,372.2,125.1,376.4"/>
	<path id="XMLID_6_" class="st6" d="M94.9,527.5C97.3,450,55.1,420.6,3.5,401.2C-13.5,467.4,33.8,522.8,94.9,527.5"/>
	<path id="XMLID_5_" class="st6" d="M94.9,407.8c2.3-77.5-39.9-106.9-91.4-126.2C-13.5,348.2,33.8,403.2,94.9,407.8"/>
	<path id="XMLID_16_" class="st7" d="M676.2,992.6H260.3l208-360.1L676.2,992.6z"/>
	<polygon id="XMLID_3_" class="st7" points="34.5,747.4 915.5,507.7 902.4,459.3 21.4,699 	"/>
	<path id="XMLID_2_" class="st6" d="M656.1,5.8c0,0,6.6,127,117.7,116.2C773.8,122.4,786.6,15.9,656.1,5.8"/>
	<path id="XMLID_1_" class="st6" d="M772.6,419.4c-11.6,16.7-31,27.1-52.7,27.1c-17.8,0-35.2-8.5-46.9-20.1
		c-24-26.3-55-84.8-55-84.8c-17.4-35.2-26.7-62.7-26.7-90.6c0-58.9,47.6-110,106.9-110c29,0,55.4,11.6,74.7,30.6
		c19.4-19,45.7-30.6,74.7-30.6c59.2,0,106.9,51.1,106.9,110c0,27.5-9.3,55-26.7,90.6c0,0-31,58.5-55,84.8
		c-11.6,11.6-29,20.1-46.9,20.1C803.6,446.5,784.3,435.7,772.6,419.4"/>
</g>
<g id="lineas">
</g>
</svg>
