<?xml version="1.0" encoding="utf-8"?>
<!-- Generator: Adobe Illustrator 22.0.1, SVG Export Plug-In . SVG Version: 6.00 Build 0)  -->
<svg version="1.1" xmlns="http://www.w3.org/2000/svg" xmlns:xlink="http://www.w3.org/1999/xlink" x="0px" y="0px"
	 viewBox="0 0 912 1080" style="enable-background:new 0 0 912 1080;" xml:space="preserve">
<style type="text/css">
	.st0{fill:#002B54;}
	.st1{fill:#00D9B2;}
	.st2{display:none;}
	.st3{display:inline;fill:#00D9B2;}
	.st4{display:inline;}
	.st5{display:inline;fill:#002B54;}
	.st6{display:inline;fill:#00D9B2;stroke:#00D9B2;stroke-width:8.5039;stroke-miterlimit:10;}
	.st7{display:inline;fill:#002B54;stroke:#002B54;stroke-width:5.6693;stroke-miterlimit:10;}
	.st8{fill:#00D9B2;stroke:#002B54;stroke-width:25.5118;stroke-miterlimit:10;}
</style>
<g id="MEDICINA_INTERNA">
	<path class="st0" d="M-601.2,837.9c63.2-6.7,124.6-39.9,177.7-98c8.4-10,10-20,8.4-31.6c71.4-86.4,114.5-204.3,114.5-295.7
		c0-141.2-66.4-156.1-179.3-179.4v-1.6c-8.4-13.3-21.7-21.6-38.2-21.6c-23.2,0-41.5,18.3-41.5,39.9c0,21.6,18.3,39.8,41.5,39.8
		c10,0,18.3-3.3,25-10l1.6,1.7c109.6,23.3,137.9,28.3,137.9,131.2c0,79.8-39.8,187.7-103,265.8c-10,0-19.9,3.3-28.3,11.6
		c-31.5,34.9-83,76.4-142.8,76.4c-61.5,0-111.2-41.5-142.8-74.7c-8.4-8.3-18.3-13.3-28.3-13.3c-63-78.1-104.6-186-104.6-265.8
		c0-102.9,29.9-107.9,139.5-131.2v-1.7c6.7,6.6,16.6,10,26.6,10c23.3,0,41.5-18.3,41.5-39.8c0-21.6-18.3-39.9-41.5-39.9
		c-18.2,0-31.5,8.3-38.2,21.6h-1.6c-111.2,24.9-179.3,38.2-179.3,181c0,91.4,43.1,209.3,116.1,297.3c-1.6,10,0,21.6,8.4,29.9
		c53.1,56.5,113,89.7,174.4,98l-1.7,179.3c0,122.9-107.9,222.6-239.2,222.6c-131.1,0-237.5-99.7-237.5-222.6V859.5
		c76.5-11.6,134.6-71.4,134.6-146.2c0-83.1-73.1-149.5-162.8-149.5c-88,0-161,66.4-161,149.5c0,74.8,59.7,134.5,134.5,146.2v157.8
		c0,149.6,131.3,270.8,292.3,270.8c162.9,0,294-121.2,294-270.8V837.9H-601.2z"/>
	<path class="st1" d="M-940.4,646.7L-940.4,646.7c42.6,0,77.1,32.8,77.1,73.8c0,41-34.5,75.5-77.1,75.5c-44.3,0-77.1-34.4-77.1-75.5
		C-1017.5,679.5-984.7,646.7-940.4,646.7"/>
</g>
<g id="CIRUGÍA_GENERAL" class="st2">
	<path class="st3" d="M1043.2,266.5l-56.1,56.1c0,0-180.7,302.3-180.7,302.3l48.6,48.6c0,0,42.6-42.6,103.5-103.5
		C1048.2,480.3,1078.7,358.5,1043.2,266.5z"/>
	<g class="st4">
		<path class="st1" d="M446.4,912.7L108.3,1291c24.7,24.7,64.8,24.7,89.5,0l281-281L446.4,912.7z"/>
		<polygon class="st1" points="741.8,689.5 770.6,718.2 673.3,815.5 576,783 738.1,685.8 		"/>
	</g>
	<g class="st4">
		<path class="st1" d="M478.8,945.1l-313.4,313.4c-24.7,24.7-50.3,39.2-57.1,32.4c-24.7-24.7-24.7-64.8,0-89.5l281-281L478.8,945.1z
			"/>
		<polygon class="st1" points="738.1,685.8 608.5,815.5 583.8,725.9 681,628.7 		"/>
	</g>
	<polygon class="st3" points="673.3,815.5 624.7,864.1 559.8,831.7 640.9,783 	"/>
	<polygon class="st3" points="640.9,783 576,847.9 535.1,774.6 583.8,725.9 	"/>
	<path class="st3" d="M762,709.7l-23.9-23.9L681,628.7l306.1-306.1c9.3,64-14.3,136-77.1,198.7C847.3,584,762,709.7,762,709.7z"/>
	<polygon class="st3" points="624.7,864.1 576,912.7 511.2,880.3 592.2,831.7 	"/>
	<g class="st4">
		<polygon class="st1" points="576,912.7 527.4,961.4 462.6,928.9 543.6,880.3 		"/>
		<polygon class="st1" points="592.2,831.7 527.4,896.5 486.5,823.2 535.1,774.6 		"/>
	</g>
	<polygon class="st3" points="543.6,880.3 478.8,945.1 437.9,871.8 486.5,823.2 	"/>
	<polygon class="st3" points="527.4,961.4 478.8,1010 446.4,977.6 454.5,937 495,928.9 	"/>
	
		<rect x="407.7" y="884.3" transform="matrix(0.7071 -0.7071 0.7071 0.7071 -524.3639 583.4667)" class="st3" width="68.8" height="80.8"/>
	<path class="st5" d="M1059.3,260.3c-2.1-5.4-6.8-9.4-12.5-10.6c-5.7-1.2-11.6,0.5-15.7,4.7L668.9,616.5L96.1,1189.3
		c-31.4,31.4-31.4,82.5,0,113.8c15.2,15.2,35.4,23.6,56.9,23.6c0,0,0,0,0,0c21.5,0,41.7-8.4,56.9-23.6l572.8-572.8
		c6.2-6.2,6.7-15.9,1.4-22.7l40.1-40.1l18.9,18.3c6.7,6.5,17.5,6.4,24.1-0.2l103.5-103.5C1062.6,490.3,1098.1,361,1059.3,260.3z
		 M624.7,839.8l-65.2-65.2l24.3-24.3l65.2,65.2L624.7,839.8z M576.1,888.4l-65.2-65.2l24.3-24.3l65.2,65.2L576.1,888.4z M527.4,937
		l-65.2-65.2l24.3-24.3l65.2,65.2L527.4,937z M478.8,985.7l-65.2-65.2l24.3-24.3l65.2,65.2L478.8,985.7z M185.6,1278.8
		c-8.7,8.7-20.3,13.5-32.6,13.5s-23.9-4.8-32.6-13.5c-18-18-18-47.2,0-65.2l268.8-268.8l65.2,65.2L185.6,1278.8z M673.3,791.1
		l-65.2-65.2L681,653l65.2,65.2L673.3,791.1z M946.5,557.7l-91.6,91.6L836,631.1c-6.7-6.5-17.5-6.4-24.1,0.2l-51.9,51.9l-54.6-54.6
		l265.5-265.5c-4.9,50.2-31.3,104.3-72.9,145.9L843,564c-6.7,6.7-6.7,17.6,0,24.3c3.4,3.4,7.8,5,12.2,5c4.4,0,8.8-1.7,12.2-5
		l54.9-54.9c58.3-58.3,89.6-135.9,83-204.6l30-30C1054.5,382.7,1020.9,483.4,946.5,557.7z"/>
</g>
<g id="__x0D_GINECOLOGÍA_Y_OBSTETRICIA" class="st2">
	<path class="st3" d="M752.8,531.9c0,0-25.2-28-30.9-30.9c-5.6-2.8-100.9-36.4-100.9-36.4h-70.1L480.8,480l-50.5,35l-9.8,47.2
		l19.7,49c0,0,22.4,69.2,21,73.4c-1.4,4.1,51.9,73.4,51.9,73.4l-11.2,43c0,0-29.4,120.6-30.9,127.6c-1.4,7,65.9,161.2,65.9,161.2
		H635l42.1-107.9l16.8-133.2l-15.4-127.6l50.5-68.7L752.8,531.9z"/>
	<path class="st5" d="M1120,568.1c-7.5-27.8-24.7-48.9-51.2-62.7c-43.7-22.8-112.7-24.7-205-5.8c-39,8-73.7,18.1-96.2,25.1
		c-1-2.3-2.1-4.5-3.4-6.8c-15.1-27.6-45.9-50.3-88.9-65.5c-36.1-12.7-72.1-17.3-92-17.3c-19.9,0-55.9,4.5-92,17.3
		c-43,15.2-73.7,37.9-88.9,65.5c-1.2,2.3-2.3,4.5-3.4,6.8c-22.4-7.1-57.1-17.1-96.2-25.1c-92.3-18.9-161.3-17-205,5.8
		c-26.5,13.8-43.7,34.9-51.2,62.7C30.3,629.8,131.8,685.6,204,708.1c33.9,10.5,65.7,15.9,94.9,15.9c9,0,17.8-0.5,26.3-1.5
		c30-3.6,56.7-13.4,79.6-29.1c12.3-8.5,22.1-17.9,29.9-26.8c24.4,46.8,42.4,97.6,42.3,109.9c-1.3,7.8-5.7,17.9-10.4,28.7
		c-10.7,24.5-24,55.1-16.7,91.6c19.2,94.5,62.5,196.2,64.3,200.5l5.8,13.6h127l5.8-13.6c1.8-4.3,45.1-106,64.3-200.5
		c7.4-36.4-5.9-67-16.7-91.5c-4.7-10.7-9.1-20.8-10.4-28.7c-0.1-12.4,17.8-63.1,42.3-109.9c7.7,8.9,17.5,18.3,29.9,26.8
		c22.8,15.7,49.6,25.5,79.6,29.1c8.5,1,17.3,1.5,26.3,1.5c29.2,0,61-5.3,94.9-15.9C1035.1,685.6,1136.5,629.8,1120,568.1z
		 M583.2,712.4c-12.6-36.7-30.2-69.1-52.5-96.7c-0.6-0.7-1.2-1.3-1.7-2c20.6,2.9,40.9,4.3,61,4.3c15.6,0,31.1-0.9,46.2-2.6
		c-0.1,0.1-0.2,0.2-0.3,0.3C613.5,643.2,595.9,675.7,583.2,712.4z M583.4,480.1c39.1,0,119.8,19.9,141.5,59.5
		c0.9,1.5,1.6,3.1,2.2,4.7c-58.7,27.1-125,35.3-197.3,24.2c-44.1-6.8-77.5-19.2-90.1-24.3c0.7-1.5,1.4-3.1,2.2-4.6
		C463.6,499.9,544.3,480.1,583.4,480.1z M379.2,656.4c-38.7,26.7-94.7,29.8-161.9,8.9c-34.5-10.7-69.9-27.9-94.9-45.8
		c-24.7-17.8-34.1-33.1-32.3-39.7c4.1-15.3,13.4-26.6,28.6-34.5c63.5-33.1,204.5,1.9,273.1,24.2c1.7,20.3,9.4,39.3,18.4,55.1
		C404.6,633.3,394.7,645.7,379.2,656.4z M507.6,823c5.9-13.6,11.6-26.5,13.7-40.2c0.8-5.3,3.3-21.3-20.1-78.9
		c-14.1-34.7-31.6-69.5-48.2-95.3c-1.9-3.1-3.7-6-5.3-9c14.8,9.8,33.1,25,49.9,46.4c20.9,26.6,37,58.7,47.8,95.4
		c8.1,27.5,13.1,57.6,15.2,90c-1.4,23.6-1.4,48.1,0.1,73.7v59.2c-14,1.5-28.8,4.8-43.6,10.7c-8.8-27.8-17.4-58.2-23.3-87.4
		C489.2,865.2,498.5,843.8,507.6,823z M549.8,1065.9c-4.4-10.9-11-27.8-18.2-48.2c21.9-9.3,46.1-11.7,72.3-7.1
		c12.8,2.3,23.6,5.8,30.9,8.7c-7.1,19.6-13.4,35.9-17.7,46.5L549.8,1065.9L549.8,1065.9z M645.5,782.9c2.1,13.6,7.8,26.5,13.7,40.2
		c9,20.7,18.4,42.1,13.8,64.7c-6,29.8-14.8,60.9-23.9,89.1c-10.8-4.1-25.8-8.7-43.6-11.3V904h0c1.4-25.1,1.4-49.3,0-72.4
		c2.1-32.5,7.2-62.6,15.3-90.1c10.8-36.7,26.9-68.8,47.9-95.3c17-21.5,35.4-36.7,50.3-46.6c-1.6,3-3.4,6-5.4,9.1
		c-16.5,25.8-34.1,60.6-48.2,95.3C659.8,718.3,642.2,761.6,645.5,782.9z M1044.4,619.5c-24.9,17.9-60.4,35.1-94.9,45.8
		c-67,20.9-120.8,18.3-160-7.6c-16.5-10.9-26.9-24-32.9-33.3c9-15.7,16.7-34.7,18.4-55c68.5-22.3,209.5-57.3,273-24.2
		c15.1,7.9,24.5,19.2,28.6,34.5C1078.4,586.4,1069.1,601.6,1044.4,619.5z"/>
	<g class="st4">
		<path class="st1" d="M991.4,669.7c-5.5-26.9-43.2-42.1-84.2-33.9c-41,8.2-69.8,36.7-64.3,63.6c5.5,26.9,43.2,42.1,84.2,33.9
			C968.1,725.1,996.9,696.6,991.4,669.7z"/>
		<path class="st1" d="M905,758L905,758c-43.7,0-77.5-21.7-84.1-54.1c-3.2-15.5,0.3-31.4,10-46c14.2-21.4,41.1-37.9,71.9-44
			c8.8-1.8,17.8-2.7,26.5-2.7c43.7,0,77.5,21.7,84.1,54c3.2,15.5-0.3,31.4-10,46c-14.2,21.4-41.1,37.9-71.9,44
			C922.6,757.1,913.7,758,905,758z M929.3,656.1c-5.8,0-11.8,0.6-17.7,1.8c-22.8,4.6-37.4,15.8-43.3,24.8c-2.1,3.1-4.3,7.8-3.4,12.3
			c2.3,11.4,22.2,18.1,40.2,18.1l0,0c5.8,0,11.8-0.6,17.7-1.8c22.8-4.6,37.4-15.8,43.3-24.9c2.1-3.1,4.3-7.7,3.4-12.2
			C967.1,662.9,947.2,656.1,929.3,656.1z"/>
		<path class="st1" d="M175.4,669.7c5.5-26.9,43.2-42.1,84.2-33.9c41,8.2,69.8,36.7,64.3,63.6c-5.5,26.9-43.2,42.1-84.3,33.9
			C198.7,725.1,169.9,696.6,175.4,669.7z"/>
		<path class="st1" d="M261.8,758c-8.7,0-17.7-0.9-26.5-2.7c-30.8-6.1-57.7-22.6-71.9-44c-9.7-14.6-13.1-30.5-10-46
			c6.6-32.3,40.4-54,84.1-54c8.7,0,17.7,0.9,26.5,2.7c30.8,6.2,57.7,22.6,71.9,44c9.7,14.6,13.1,30.5,10,46
			C339.3,736.3,305.5,758,261.8,758z M237.5,656.1c-17.9,0-37.8,6.8-40.2,18.2c-0.9,4.5,1.3,9.1,3.4,12.2c6,9,20.5,20.3,43.3,24.9
			c5.9,1.2,11.9,1.8,17.7,1.8c17.9,0,37.8-6.8,40.2-18.1c0.9-4.5-1.3-9.1-3.4-12.3c-6-9-20.5-20.3-43.3-24.8
			C249.3,656.7,243.3,656.1,237.5,656.1z"/>
	</g>
</g>
<g id="PEDIATRÍA" class="st2">
	<g id="XMLID_2972_" class="st4">
		<path id="XMLID_1594_" class="st0" d="M397.5,1313.1L397.5,1313.1c-181.7,0-329-147.3-329-329v-423c0-181.7,147.3-329,329-329l0,0
			c181.7,0,329,147.3,329,329v423C726.5,1165.8,579.2,1313.1,397.5,1313.1z"/>
		<path id="XMLID_1647_" class="st0" d="M722.8,561.1v423c0,181.7-147.3,329-329,329l0,0v-94h3.6V232.2
			C577.5,234.2,722.8,380.7,722.8,561.1z"/>
		<path id="XMLID_1530_" class="st0" d="M726.5,561.1v423c0,181.7-147.3,329-329,329l0,0l0,0c-181.7,0-329-147.3-329-329v-423
			c0-79.7,28.4-152.9,75.6-209.8l253.4,253.4l253.4-253.4C698.1,408.3,726.5,481.4,726.5,561.1z"/>
		<path id="XMLID_1431_" class="st0" d="M726.5,561.1v423c0,181.7-147.3,329-329,329l0,0v-298.4V695.3v-90.6l253.4-253.4
			C698.1,408.3,726.5,481.4,726.5,561.1z"/>
		<path id="XMLID_1247_" class="st1" d="M256.7,554.5c3.5-74.8,65.2-134.4,140.8-134.4s137.4,59.6,140.8,134.4h0.2v147.6h-282V554.5
			H256.7L256.7,554.5z"/>
		<path id="XMLID_1683_" class="st1" d="M397.5,420.1v282H256.7V554.5C260.1,479.7,321.9,420.1,397.5,420.1z"/>
		<path id="XMLID_1675_" class="st1" d="M397.5,604.7l119.1-119.1c12.8,20.1,20.6,43.6,21.8,68.8h0.2v147.6h-282V554.5h0.2
			c1.2-25.3,9-48.8,21.8-68.8L397.5,604.7z"/>
		<path id="XMLID_1596_" class="st1" d="M538.3,702.1H397.5v-97.4l119.1-119.1c12.8,20.1,20.6,43.6,21.8,68.8L538.3,702.1
			L538.3,702.1z"/>
		<path id="XMLID_1380_" class="st0" d="M726.5,561.1v423c0,181.7-147.3,329-329,329l0,0l0,0c-181.7,0-329-147.3-329-329v-423
			c0-56.3,14.2-109.3,39.1-155.7l289.9,289.9l289.9-289.9C712.3,451.8,726.5,504.8,726.5,561.1z"/>
		<path id="XMLID_1370_" class="st0" d="M397.5,695.3v617.8l0,0c-181.7,0-329-147.3-329-329v-423c0-56.3,14.2-109.3,39.1-155.7
			L397.5,695.3z"/>
		<path id="XMLID_1358_" class="st0" d="M585.5,507.3v453.3c0,77.9-63.1,141-141,141h-47h-47c-77.9,0-141-63.1-141-141V507.3
			l188,188L585.5,507.3z"/>
		<path id="XMLID_1356_" class="st0" d="M209.5,507.3l188,188v406.3h-47c-77.9,0-141-63.1-141-141V507.3z"/>
		<path id="XMLID_1354_" class="st1" d="M503.2,878.4c0,19.5-15.8,35.2-35.2,35.2h-35.2v35.2c0,19.5-15.8,35.2-35.2,35.2
			s-35.2-15.8-35.2-35.2v-35.2H327c-19.5,0-35.2-15.8-35.2-35.2s15.8-35.2,35.2-35.2h35.2v-35.2c0-19.5,15.8-35.2,35.2-35.2
			s35.2,15.8,35.2,35.2v35.2H468C487.5,843.1,503.2,858.9,503.2,878.4z"/>
		<path id="XMLID_1347_" class="st1" d="M362.3,914.2v-0.5H327c-19.5,0-35.2-15.8-35.2-35.2s15.8-35.2,35.2-35.2h35.2v-35.2
			c0-19.5,15.8-35.2,35.2-35.2s35.2,15.8,35.2,35.2v35.2h0.5L362.3,914.2z"/>
	</g>
</g>
<g id="ORTOPEDIA" class="st2">
	<g class="st4">
		<g>
			<path class="st0" d="M787.9,346.7l-60.6-85.5c-19.3-27.2-57.1-33.7-84.3-14.4l-51.2,36.3c-66.6,47.1-145,71.2-226.8,69.7
				c-27-0.4-53.1,7.5-75.2,23.2c0,0,0,0,0,0c-27.5,19.5-45.8,48.5-51.4,81.7c-1.6,9.2-2.1,18.4-1.7,27.5
				c-95.5,21-167.4,108.3-167.4,212.6c0,40.2,10.7,77.9,29.3,110.2c-18.3,21.9-29.3,50-29.3,80.7c0,27.1,8.5,53,24.6,74.8
				c47.9,64.9,74.2,144.9,74.2,225.3v62.8c0,33.4,27.1,60.5,60.5,60.5h104.8c33.4,0,60.5-27.1,60.5-60.5v-62.8
				c0-81.6,25.7-159.5,74.2-225.3c16.1-21.8,24.6-47.7,24.6-74.8c0-30.7-11-58.8-29.3-80.7c11.6-20.2,20.2-42.5,25-66.2
				c16.4-3.6,32.1-10.4,46.1-20.3c22.2-15.7,38.3-37.6,46.8-63.3c25.3-76.6,75.4-144.4,141-190.8l51.2-36.3
				C800.7,411.7,807.2,373.9,787.9,346.7z M250.4,536.3c2.7,5.3,5.8,10.5,9.4,15.4c18.5,26.1,46.2,43.9,76.8,50.4
				c-4,31,3.6,63.1,22.1,89.2c18.2,25.7,44.8,43.3,75.3,50.2c-3.1,11.7-7.5,22.9-12.9,33.4c-16.5-7.9-35-12.4-54.5-12.4
				c-31.9,0-62.5,12.3-85.5,33.5c-23-21.2-53.6-33.5-85.5-33.5c-19.5,0-38,4.5-54.5,12.4c-11.9-23-18.6-49.3-18.6-77.2
				C122.3,617.9,177.5,551.2,250.4,536.3z M425.4,932c-55.3,75-84.6,163.8-84.6,256.8v62.8c0,4.1-3.4,7.5-7.5,7.5H228.6
				c-4.1,0-7.5-3.4-7.5-7.5v-62.8c0-91.6-30-182.8-84.6-256.8c-9.3-12.6-14.2-27.6-14.2-43.3c0-40.3,32.8-73.1,73.1-73.1
				c26,0,49.4,13.3,62.8,35.6c4.8,8,13.4,12.9,22.7,12.9s17.9-4.9,22.7-12.9c13.4-22.3,36.8-35.6,62.8-35.6
				c40.3,0,73.1,32.8,73.1,73.1C439.6,904.4,434.7,919.4,425.4,932z M742.9,387.7L691.6,424c-74.8,53-131.8,130.2-160.7,217.5
				c-4.9,14.9-14.3,27.5-27.1,36.6c-15.9,11.3-35.3,15.7-54.6,12.4c-19.3-3.3-36.1-13.9-47.4-29.8c-15-21.2-17.7-48-7.2-71.8
				c3.8-8.5,2.8-18.4-2.6-26c-5-7-13.1-11.2-21.6-11.2c-0.7,0-1.4,0-2,0.1c-25.9,2-50.4-9.5-65.4-30.6
				c-23.3-32.9-15.5-78.6,17.4-102c12.8-9.1,27.8-13.8,43.6-13.4c93.2,1.8,182.6-25.7,258.5-79.4l51.2-36.3c3.4-2.4,8-1.6,10.4,1.8
				l60.6,85.5C747,380.7,746.2,385.3,742.9,387.7z"/>
		</g>
		<g>
			<path class="st0" d="M379.7,424.3c-34.3,0-62.2,27.9-62.2,62.2c0,14.6,11.9,26.5,26.5,26.5c14.6,0,26.5-11.9,26.5-26.5
				c0-5.1,4.1-9.2,9.2-9.2c14.6,0,26.5-11.9,26.5-26.5S394.3,424.3,379.7,424.3z"/>
		</g>
	</g>
</g>
<g id="NEUROLOGÍA" class="st2">
	<g class="st4">
		<path class="st1" d="M488.4,265.2C259.2,268.4,71,462.5,83.1,698.4h-0.6v37.9L-19.4,901.7H82.5v149.9c0,38.1,30.9,68.9,68.9,68.9
			h188.9V1282h307.9v-7.1c0-112.1,45-220.3,127-296.8c80.5-75.2,130.8-182.2,130.8-301C906.1,447.6,718.5,262,488.4,265.2z"/>
		<g>
			<path class="st0" d="M292.9,555.4c64.3,93.9,140.2,28.5,177.7,49c13,7.1,17,23.9,17,38.7c0,14.8-2.6,30.2,2.6,44
				c11.5,30.8,52.6,36.6,85.3,33.1c34.4-3.7,37.8,5.1,48,34.9c16.5,48.1,48.4,82.1,99.7,81.8c23.6-0.2,44.6-14.8,54-36.5
				c89.1-203.8-62.4-434.9-287.3-431.9C368.7,370.3,222.3,452.2,292.9,555.4z"/>
			<g>
				<path class="st0" d="M488,237.3C241.6,240.8,45.2,448.6,55,693.8c-0.6,3.5-0.4,4-0.4,34.6l-97.7,158.7
					c-11.4,18.6,2,42.5,23.7,42.5h74v122c0,53.4,43.4,96.8,96.8,96.8h161V1282c0,15.4,12.5,27.9,27.9,27.9h307.9
					c15.4,0,27.9-12.5,27.9-27.9c0-118.5,45.5-215.8,118.1-283.6C883,915.5,934,798.4,934,677C934,431.5,733.5,233.7,488,237.3z
					 M756.2,957.6c-81.4,76-130,183.1-135.3,296.5H368.2v-133.6c0-15.4-12.5-27.9-27.9-27.9H151.4c-22.6,0-41-18.4-41-41V901.7
					c0-15.4-12.5-27.9-27.9-27.9H30.6c82.2-133.5,79.8-126.6,79.8-137.5v-32.1c2.5-11.5-19.2-166.5,112.9-298.5
					C464.5,164.9,878.2,335.3,878.2,677C878.2,783,833.7,885.3,756.2,957.6z"/>
				<path class="st0" d="M775.5,493.1c-104.7-160-321.2-201.7-477.4-88.4c-32.8,24-80.9,89.6-28.2,166.5
					c71.2,104,166.3,48.6,186.9,57.5c3.7,5,2.7,19.2,2.5,24.3c-0.5,12.6-1.2,28.2,4.7,44c24.8,66.3,116.7,49.8,126.7,50.5
					c1.8,3.7,4.5,11.4,6.3,16.8c42.6,124.5,171.2,126.3,205.7,47.4C848.1,707.6,838,588.6,775.5,493.1z M751.6,789.3
					c-5,11.4-15.8,19.7-29.2,19.7c-33.9,0-58.3-21.2-72.6-62.9c-12.3-36-24.4-59.3-77.3-53.6c-23.5,2.5-51-1.2-56.2-15.1
					c-2.7-7.3-0.9-20.6-0.8-34.2c0-29.2-11.4-52.2-31.4-63.2c-54.4-29.8-113,40.1-168.1-40.3c-33.8-49.3,6.8-83.7,15.1-89.9
					c130.2-94.4,310.5-59.7,397.9,73.8C781,603.3,789.5,702.6,751.6,789.3z"/>
			</g>
		</g>
	</g>
</g>
<g id="PSICOLOGÍA" class="st2">
	<path class="st5" d="M24.5,328.6h64.4c3.7,0,13.6,10.3,15.1,29.3l1.7,22.5c18.4,239.8,35.9,467,295.3,493v349h-66.3
		c-25.5,0-46.2,20.7-46.2,46.2c0,25.5,20.7,46.2,46.2,46.2H561c25.5,0,46.2-20.7,46.2-46.2c0-25.5-20.7-46.2-46.2-46.2h-67.7V874.3
		c270-20.5,287.6-248.5,306-489.4l2.1-27c1.5-19,11.4-29.3,15.1-29.3h64.5c25.5,0,46.2-20.7,46.2-46.2c0-25.5-20.7-46.2-46.2-46.2
		h-64.5c-56,0-102.1,49.2-107.1,114.4l-2.1,27.1c-19.5,255.5-37.9,387.3-213.9,403.9V328.6H561c25.5,0,46.2-20.7,46.2-46.2
		s-20.7-46.2-46.2-46.2H453.8c-2.2-0.3-4.3-0.7-6.5-0.7c-2.2,0-4.4,0.4-6.5,0.7h-106c-25.5,0-46.2,20.7-46.2,46.2
		s20.7,46.2,46.2,46.2h66.3v451.9c-165.7-21.3-183.9-154.3-203.3-407.2l-1.7-22.5c-5.1-65.2-51.1-114.4-107.1-114.4H24.5
		c-25.5,0-46.2,20.7-46.2,46.2S-1,328.6,24.5,328.6z"/>
</g>
<g id="NUTRICIÓN" class="st2">
	<path id="XMLID_11_" class="st6" d="M68.9,966.9C71.2,889.5,29,860-22.5,840.7C-39.6,907.3,7.7,962.6,68.9,966.9"/>
	<path id="XMLID_10_" class="st6" d="M80.5,620.7c32.9-70.5,5.4-113.9-34.1-152.2C5,522.7,26.3,592.4,80.5,620.7"/>
	<path id="XMLID_9_" class="st6" d="M99.1,816.3C96.8,738.8,139,709.4,190.5,690C207.5,756.6,160.3,811.6,99.1,816.3"/>
	<path id="XMLID_8_" class="st6" d="M99.1,935.9C96.8,858.5,139,829,190.5,809.7C207.5,876.3,160.3,931.3,99.1,935.9"/>
	<path id="XMLID_7_" class="st6" d="M99.1,696.6c-2.3-77.5,39.9-106.9,91.4-126.2C207.5,637,160.3,692.3,99.1,696.6"/>
	<path id="XMLID_6_" class="st6" d="M68.9,847.6c2.3-77.5-39.9-106.9-91.4-126.2C-39.6,787.6,7.7,843,68.9,847.6"/>
	<path id="XMLID_5_" class="st6" d="M68.9,728c2.3-77.5-39.9-106.9-91.4-126.2C-39.6,668.3,7.7,723.3,68.9,728"/>
	<path id="XMLID_16_" class="st7" d="M650.1,1312.7H234.2l208-360.1L650.1,1312.7z"/>
	<polygon id="XMLID_3_" class="st7" points="8.5,1067.6 889.5,827.9 876.3,779.5 -4.7,1019.2 	"/>
	<path id="XMLID_2_" class="st6" d="M630,326c0,0,6.6,127,117.7,116.2C747.7,442.6,760.5,336.1,630,326"/>
	<path id="XMLID_1_" class="st6" d="M746.6,739.6c-11.6,16.7-31,27.1-52.7,27.1c-17.8,0-35.2-8.5-46.9-20.1
		c-24-26.3-55-84.8-55-84.8c-17.4-35.2-26.7-62.7-26.7-90.6c0-58.9,47.6-110,106.9-110c29,0,55.4,11.6,74.7,30.6
		c19.4-19,45.7-30.6,74.7-30.6c59.2,0,106.9,51.1,106.9,110c0,27.5-9.3,55-26.7,90.6c0,0-31,58.5-55,84.8
		c-11.6,11.6-29,20.1-46.9,20.1C777.6,766.7,758.2,755.9,746.6,739.6"/>
</g>
<g id="__x0D_DERMATOL" class="st2">
	
		<image style="overflow:visible;" width="225" height="225" xlink:href="Unknown.png"  transform="matrix(1 0 0 1 188.9355 619.1613)">
	</image>
	<path class="st5" d="M924.5,843c-78.4,0-78.4-62.6-157.2-62.6S688.5,843,610.1,843s-78.8-62.6-157.2-62.6
		c-78.8,0-78.8,62.6-157.2,62.6c-78.8,0-78.8-71.1-157.2-71.1c-78.8,0-78.8,62.6-157.2,62.6v-53.8c0-86.5,70.3-156.4,157.2-156.4
		h629.1c86.9,0,157.2,69.9,157.2,156.4V843H924.5z"/>
	<path class="st5" d="M767.3,843c-78.8,0-78.8,62.6-157.2,62.6c-5,0-9.2-0.4-13.5-0.8c8.5,19.2,13.5,40.7,13.5,63
		c0,86.5-70.3,156.4-157.2,156.4s-157.2-69.9-157.2-156.4c0-22.7,5-43.8,13.5-63c-4.2,0.4-8.5,0.8-13.5,0.8
		c-78.8,0-78.8-71.1-157.2-71.1c-78.8,0-78.8,62.6-157.2,62.6v258.6c0,86.5,70.3,156.4,157.2,156.4h629.1
		c86.9,0,157.2-69.9,157.2-156.4V905.6C845.7,905.6,845.7,843,767.3,843"/>
	<path class="st3" d="M153.9,1171.2c0,17.3-14.2,31.1-31.5,31.1s-31.5-13.8-31.5-31.1c0-17.3,14.2-31.1,31.5-31.1
		C139.7,1139.7,153.9,1153.9,153.9,1171.2 M311.1,1171.2c0,17.3-14.2,31.1-31.5,31.1s-31.5-13.8-31.5-31.1
		c0-17.3,14.2-31.1,31.5-31.1C296.9,1139.7,311.1,1153.9,311.1,1171.2 M232.3,1046.3c0,17.3-14.2,31.1-31.5,31.1
		s-31.5-13.8-31.5-31.1s14.2-31.1,31.5-31.1C218.5,1014.8,232.3,1029,232.3,1046.3 M727.7,1186.9c0,17.3-14.2,31.1-31.5,31.1
		s-31.5-13.8-31.5-31.1c0-17.3,14.2-31.1,31.5-31.1C713.9,1155.4,727.7,1169.6,727.7,1186.9 M806.5,1061.6
		c0,17.3-14.2,31.1-31.5,31.1s-31.5-13.8-31.5-31.1c0-17.3,14.2-31.1,31.5-31.1S806.5,1044.3,806.5,1061.6"/>
	<path class="st3" d="M717,336.5c-20.8-15.4-50.3-11.1-66.1,9.2l-47.3,62.6c-104.5,138.4-170.2,303.6-191,474.6
		c-31.9,15-54.2,47.3-54.2,84.9c0,51.9,42.3,93.8,94.2,93.8c52.3,0,94.5-41.9,94.5-93.8c0-31.9-16.1-60-40.4-76.9
		c19.2-153.7,78.8-302.1,172.6-426.2l47.3-62.6C741.9,381.4,737.7,352.2,717,336.5"/>
</g>
<g id="NEUMOLOGÍA" class="st2">
	<path class="st5" d="M111,476.1C3.3,618-18.9,857.3-24.1,949.6c-1.6,23.9,8.6,47.9,27.3,63.2c17.2,13.6,39.4,18.9,59.8,15.4
		L270,999.1c121.3-18.8,95.6-230.8,99.1-314.5c20.5-20.5,44.5-51.3,78.7-83.8c35.9,35.9,64.9,66.7,87.2,88.9
		c3.4,82-23.9,290.6,95.8,309.4l206.8,29.1c20.5,3.4,42.8-1.8,59.8-15.4c18.9-15.3,29.1-39.3,27.3-63.2
		C921.2,857.3,899,618,791.3,476.1c-242.7-319.7-264.9-71.8-258,170.9c-27.5-32.4-53-63.3-54.8-64.9l1.8-181.2h-58.2l-3.4,181.2
		c3.4-3.4-22.1,25.7-51.2,58.1C374.3,399.2,350.3,159.9,111,476.1"/>
</g>
<g id="GASTROENTEROLOGÍA" class="st2">
	<g class="st4">
		<g>
			<path class="st8" d="M653.1,245.2c-98.4-116.3-273.6-108.5-364.8,3.9c-34-16.2-58.2-35.7-66.9-54.7
				c-13.2-28.6-43.8-44.6-74.5-39.1l-67.6,12.3c-41.1,7.5-66.1,49.8-52.6,89.2c28.9,84.3,104.6,152.4,214.6,193.7
				c6.9,31,18.8,54.8,30.8,73.6c-76.2,49.6-89.2,155.7-26,222c-38.6,32.8-65.7,77.2-77.1,127C53.4,891.5-38,970.2-70.8,1104.3
				c-9.4,38.4,15.9,77,55,83.7l66.6,11.4c35,6,68.5-15.5,77.7-50.2c13.3-50.1,39.9-74.1,85.2-75.8
				C460.4,1386.5,1121.7,798.8,653.1,245.2z"/>
		</g>
	</g>
</g>
<g id="__x0D_UROLOGÍA" class="st2">
	<path class="st5" d="M319.3,710.1c-15.6,0-28.2-12.6-28.2-28.2V507.3c0-43.3-35.2-78.4-78.4-78.4c-15.6,0-28.2-12.6-28.2-28.2
		s12.6-28.2,28.2-28.2c74.4,0,134.9,60.5,134.9,134.9v174.5C347.6,697.4,334.9,710.1,319.3,710.1z"/>
	<path class="st3" d="M-138.2,400.7c0,129.1,101.6,233.7,226.8,233.7s25.1-165,25.1-233.7C113.8,340.5,214,167,88.7,167
		S-138.2,271.6-138.2,400.7z"/>
	<g class="st4">
		<path class="st0" d="M88.7,662.6c-140.6,0-255.1-117.5-255.1-261.9S-52,138.7,88.7,138.7c34,0,59.2,10.7,74.8,31.8
			c31.5,42.4,11.2,109.5-6.7,168.6c-7.3,24.1-14.8,49.1-14.8,61.5c0,15.7,8.1,42.8,16,69.1c17,56.6,36.2,120.8,6,161.4
			C148.4,652,123.1,662.6,88.7,662.6z M88.7,195.2c-109.5,0-198.6,92.2-198.6,205.5s89.1,205.5,198.6,205.5c10.7,0,24.6-1.5,30-8.8
			c13.3-17.8-3.6-74.2-14.8-111.5c-9.4-31.5-18.4-61.3-18.4-85.3c0-20.8,8-47.2,17.2-77.8c11.9-39.4,29.9-99.1,15.4-118.7
			C112.7,196.8,99.1,195.2,88.7,195.2z"/>
		<path class="st0" d="M422.4,710.1c-15.6,0-28.2-12.6-28.2-28.2V507.3c0-74.4,60.5-134.9,134.9-134.9c15.6,0,28.2,12.6,28.2,28.2
			s-12.6,28.2-28.2,28.2c-43.3,0-78.4,35.2-78.4,78.4v174.5C450.6,697.4,438,710.1,422.4,710.1z"/>
	</g>
	<path class="st3" d="M879.9,400.7c0,129.1-101.6,233.7-226.8,233.7s-25.1-165-25.1-233.7c0-60.2-100.2-233.7,25.1-233.7
		S879.9,271.6,879.9,400.7z"/>
	<g class="st4">
		<path class="st0" d="M653,662.6c-34.4,0-59.7-10.6-75.3-31.5c-30.2-40.6-11-104.7,6-161.4c7.9-26.3,16-53.4,16-69.1
			c0-12.4-7.5-37.4-14.8-61.5c-17.9-59.2-38.1-126.2-6.7-168.6c15.7-21.1,40.8-31.8,74.8-31.8c140.6,0,255.1,117.5,255.1,261.9
			S793.7,662.6,653,662.6z M653,195.2c-10.4,0-24,1.6-29.5,9c-14.5,19.6,3.5,79.2,15.4,118.7c9.2,30.6,17.2,57.1,17.2,77.8
			c0,23.9-8.9,53.7-18.4,85.3c-11.2,37.3-28,93.6-14.8,111.5c5.4,7.2,19.3,8.8,30,8.8c109.5,0,198.6-92.2,198.6-205.5
			S762.6,195.2,653,195.2z"/>
		<path class="st0" d="M410.6,1018.5h-79.4c-26.9,0-49.1-20.4-52.1-46.5c-74.6-27.3-118.4-88.4-118.4-166.7
			c0-57.3,22.7-99.3,67.5-124.9c33.9-19.4,80.6-28.8,142.7-28.8s108.8,9.4,142.7,28.8C558.3,706,581,748,581,805.4
			c0,78.4-43.8,139.4-118.4,166.7C459.7,998.2,437.4,1018.5,410.6,1018.5z M335.2,962.1h71.3v-10.8c0-12.8,8.6-24,21-27.3
			c36.3-9.6,97.1-37.8,97.1-118.7c0-48.1-18.3-97.3-153.7-97.3s-153.7,49.2-153.7,97.3c0,80.8,60.8,109.1,97.1,118.7
			c12.4,3.3,21,14.5,21,27.3L335.2,962.1L335.2,962.1z"/>
	</g>
</g>
<g id="ODONTOLOGÍA" class="st2">
	<g class="st4">
		<g>
			<path class="st0" d="M466.2,60.4c-9.6,3.4-12.2,15.7-5,22.9l46,45.9c39.1,39-20,98.2-59.1,59.2c-83.5-83.3-75.6-75.3-77.7-77.8
				C159.8-52.9-155.3,89.5-163.9,361.5c-2.6,82.4,24.9,162.7,77.4,226.1c37.1,44.7,182.4,394.8,198.5,416.7
				c39.3,53.4,122.7,39.5,142.8-23.8c25.7-80.6,71.9-132.8,117.7-132.8c45.8,0,92,52.1,117.7,132.8c23.4,73.2,122,71.9,147.2,16.3
				c181.9-399.6,170.7-381,194.1-409.2C1047.2,327.5,783.8-53.7,466.2,60.4z M94.8,437.3c22.7,27.4,2.9,68.5-32.2,68.5
				C4.3,505.8-58,345,38.7,246.9c16.2-16.4,42.7-16.6,59.1-0.4c16.4,16.2,16.6,42.7,0.4,59.1C63.9,340.4,62.4,398.2,94.8,437.3z"/>
		</g>
	</g>
</g>
<g id="OTORRINO">
	<g>
		<g>
			<g>
				<path class="st0" d="M480,1081.7L480,1081.7V854.5c0-60.7-49.5-110.2-110.2-110.2H103.1c17.2,22.2-12.8,53.9-11.9,82.9
					c1.8,37.6,50.4,52.1,88,47.1s78.5-18,109.3,4.2c19.6,13.6,29,38.5,34.1,61.6c11.9,46.2,15.4,94.8,10.3,142.6h147L480,1081.7
					L480,1081.7z"/>
				<path class="st0" d="M903.7,305.4C882.3,177.3,790.2,61.2,667,22.7C587.5-2.2,503.1,4,421,17.6c-107.6,18-227.2,59-270.8,158.8
					c-23.1,53-21.3,112.9-25.5,170.1c-4.2,57.2-19.6,119.7-64.9,154.7c-20.5,15.4-48.6,29.9-49.5,55.4
					c-0.9,49.5,100.8,56.3,91.3,105.8C99,676,87.1,688.8,80.3,700.9h289.5c84.5,0,153.8,69.3,153.8,153.8v227.2l0,0h193.8
					c-19.1-238.5,5.9-310,21.3-341.6c14.5-28.2,36.7-50.4,57.2-74.4C880.6,566.7,925,432.5,903.7,305.4z"/>
			</g>
		</g>
	</g>
</g>
<g id="lineas">
</g>
</svg>
