<?xml version="1.0" encoding="utf-8"?>
<!-- Generator: Adobe Illustrator 22.0.1, SVG Export Plug-In . SVG Version: 6.00 Build 0)  -->
<svg version="1.1" xmlns="http://www.w3.org/2000/svg" xmlns:xlink="http://www.w3.org/1999/xlink" x="0px" y="0px"
	 viewBox="0 0 886 1080" style="enable-background:new 0 0 886 1080;" xml:space="preserve">
<style type="text/css">
	.st0{fill:#002B54;}
	.st1{fill:#00D9B2;}
	.st2{display:none;}
	.st3{display:inline;fill:#00D9B2;}
	.st4{display:inline;}
	.st5{display:inline;fill:#002B54;}
	.st6{fill:none;}
	.st7{display:inline;fill:#00D9B2;stroke:#00D9B2;stroke-width:8.5039;stroke-miterlimit:10;}
	.st8{display:inline;fill:#002B54;stroke:#002B54;stroke-width:5.6693;stroke-miterlimit:10;}
	.st9{fill:none;stroke:#002B54;stroke-width:25.5118;stroke-miterlimit:10;}
	.st10{fill:none;stroke:#002B54;stroke-width:28.3465;stroke-linecap:round;stroke-linejoin:round;stroke-miterlimit:10;}
	.st11{fill:#00D9B2;stroke:#00D9B2;stroke-width:8.5039;stroke-miterlimit:10;}
	.st12{fill:none;stroke:#002B54;stroke-width:34.0157;stroke-linecap:round;stroke-linejoin:round;stroke-miterlimit:10;}
</style>
<g id="MEDICINA_INTERNA">
	<path class="st0" d="M-1541.2,645.9c63.2-6.7,124.6-39.9,177.7-98c8.4-10,10-20,8.4-31.6c71.4-86.4,114.5-204.3,114.5-295.7
		c0-141.2-66.4-156.1-179.3-179.4v-1.6c-8.4-13.3-21.7-21.6-38.2-21.6c-23.2,0-41.5,18.3-41.5,39.9c0,21.6,18.3,39.8,41.5,39.8
		c10,0,18.3-3.3,25-10l1.6,1.7c109.6,23.3,137.9,28.3,137.9,131.2c0,79.8-39.8,187.7-103,265.8c-10,0-19.9,3.3-28.3,11.6
		c-31.5,34.9-83,76.4-142.8,76.4c-61.5,0-111.2-41.5-142.8-74.7c-8.4-8.3-18.3-13.3-28.3-13.3c-63-78.1-104.6-186-104.6-265.8
		c0-102.9,29.9-107.9,139.5-131.2v-1.7c6.7,6.6,16.6,10,26.6,10c23.3,0,41.5-18.3,41.5-39.8c0-21.6-18.3-39.9-41.5-39.9
		c-18.2,0-31.5,8.3-38.2,21.6h-1.6c-111.2,24.9-179.3,38.2-179.3,181c0,91.4,43.1,209.3,116.1,297.3c-1.6,10,0,21.6,8.4,29.9
		c53.1,56.5,113,89.7,174.4,98l-1.7,179.3c0,122.9-107.9,222.6-239.2,222.6c-131.1,0-237.5-99.7-237.5-222.6V667.5
		c76.5-11.6,134.6-71.4,134.6-146.2c0-83.1-73.1-149.5-162.8-149.5c-88,0-161,66.4-161,149.5c0,74.8,59.7,134.5,134.5,146.2v157.8
		c0,149.5,131.3,270.8,292.3,270.8c162.9,0,294-121.2,294-270.8V645.9H-1541.2z"/>
	<path class="st1" d="M-1952.4,652.7L-1952.4,652.7c42.6,0,77.1,32.8,77.1,73.8c0,41-34.5,75.5-77.1,75.5
		c-44.3,0-77.1-34.4-77.1-75.5C-2029.5,685.5-1996.7,652.7-1952.4,652.7"/>
</g>
<g id="CIRUGÍA_GENERAL" class="st2">
	<path class="st3" d="M141.2,268.5l-56.1,56.1c0,0-180.7,302.3-180.7,302.3l48.6,48.6c0,0,42.6-42.6,103.5-103.5
		C146.2,482.3,176.7,360.5,141.2,268.5z"/>
	<g class="st4">
		<path class="st1" d="M-169.6,914.7L-507.7,1293c24.7,24.7,64.8,24.7,89.5,0l281-281L-169.6,914.7z"/>
		<polygon class="st1" points="125.8,691.5 154.6,720.2 57.3,817.5 -40,785 122.1,687.8 		"/>
	</g>
	<g class="st4">
		<path class="st1" d="M-137.2,947.1l-313.4,313.4c-24.7,24.7-50.3,39.2-57.1,32.4c-24.7-24.7-24.7-64.8,0-89.5l281-281
			L-137.2,947.1z"/>
		<polygon class="st1" points="122.1,687.8 -7.5,817.5 -32.2,727.9 65,630.7 		"/>
	</g>
	<polygon class="st3" points="57.3,817.5 8.7,866.1 -56.2,833.7 24.9,785 	"/>
	<polygon class="st3" points="24.9,785 -40,849.9 -80.9,776.6 -32.2,727.9 	"/>
	<path class="st3" d="M146,711.7l-23.9-23.9L65,630.7l306.1-306.1c9.3,64-14.3,136-77.1,198.7C231.3,586,146,711.7,146,711.7z"/>
	<polygon class="st3" points="8.7,866.1 -40,914.7 -104.8,882.3 -23.8,833.7 	"/>
	<g class="st4">
		<polygon class="st1" points="-150,918.7 -198.6,967.4 -263.4,934.9 -182.4,886.3 		"/>
		<polygon class="st1" points="-133.8,837.7 -198.6,902.5 -239.5,829.2 -190.9,780.6 		"/>
	</g>
	<polygon class="st3" points="-182.4,886.3 -247.2,951.1 -288.1,877.8 -239.5,829.2 	"/>
	<polygon class="st3" points="-198.6,967.4 -247.2,1016 -279.6,983.6 -271.5,943 -231,934.9 	"/>
	
		<rect x="-318.3" y="890.3" transform="matrix(0.7071 -0.7071 0.7071 0.7071 -741.247 71.8645)" class="st3" width="68.8" height="80.8"/>
	<path class="st5" d="M443.3,262.3c-2.1-5.4-6.8-9.4-12.5-10.6c-5.7-1.2-11.6,0.5-15.7,4.7L52.9,618.5l-572.8,572.8
		c-31.4,31.4-31.4,82.5,0,113.8c15.2,15.2,35.4,23.6,56.9,23.6c0,0,0,0,0,0c21.5,0,41.7-8.4,56.9-23.6l572.8-572.8
		c6.2-6.2,6.7-15.9,1.4-22.7l40.1-40.1l18.9,18.3c6.7,6.5,17.5,6.4,24.1-0.2l103.5-103.5C446.6,492.3,482.1,363,443.3,262.3z
		 M8.7,841.8l-65.2-65.2l24.3-24.3L33,817.5L8.7,841.8z M-39.9,890.4l-65.2-65.2l24.3-24.3l65.2,65.2L-39.9,890.4z M-88.6,939
		l-65.2-65.2l24.3-24.3l65.2,65.2L-88.6,939z M-137.2,987.7l-65.2-65.2l24.3-24.3l65.2,65.2L-137.2,987.7z M-430.4,1280.8
		c-8.7,8.7-20.3,13.5-32.6,13.5c-12.3,0-23.9-4.8-32.6-13.5c-18-18-18-47.2,0-65.2l268.8-268.8l65.2,65.2L-430.4,1280.8z
		 M57.3,793.1l-65.2-65.2L65,655l65.2,65.2L57.3,793.1z M330.5,559.7l-91.6,91.6L220,633.1c-6.7-6.5-17.5-6.4-24.1,0.2l-51.9,51.9
		l-54.6-54.6l265.5-265.5c-4.9,50.2-31.3,104.3-72.9,145.9L227,566c-6.7,6.7-6.7,17.6,0,24.3c3.4,3.4,7.8,5,12.2,5
		c4.4,0,8.8-1.7,12.2-5l54.9-54.9c58.3-58.3,89.6-135.9,83-204.6l30-30C438.5,384.7,404.9,485.4,330.5,559.7z"/>
</g>
<g id="__x0D_GINECOLOGÍA_Y_OBSTETRICIA" class="st2">
	<path class="st3" d="M136.8,533.9c0,0-25.2-28-30.9-30.9C100.4,500.2,5,466.6,5,466.6h-70.1l-70.1,15.4l-50.5,35l-9.8,47.2l19.7,49
		c0,0,22.4,69.2,21,73.4c-1.4,4.1,51.9,73.4,51.9,73.4l-11.2,43c0,0-29.4,120.6-30.9,127.6c-1.4,7,65.9,161.2,65.9,161.2H19
		l42.1-107.9l16.8-133.2L62.5,723.1l50.5-68.7L136.8,533.9z"/>
	<path class="st5" d="M504,570.1c-7.5-27.8-24.7-48.9-51.2-62.7c-43.7-22.8-112.7-24.7-205-5.8c-39,8-73.7,18.1-96.2,25.1
		c-1-2.3-2.1-4.5-3.4-6.8c-15.1-27.6-45.9-50.3-88.9-65.5c-36.1-12.7-72.1-17.3-92-17.3s-55.9,4.5-92,17.3
		c-43,15.2-73.7,37.9-88.9,65.5c-1.2,2.3-2.3,4.5-3.4,6.8c-22.4-7.1-57.1-17.1-96.2-25.1c-92.3-18.9-161.3-17-205,5.8
		c-26.5,13.8-43.7,34.9-51.2,62.7c-16.5,61.6,84.9,117.5,157.2,139.9c33.9,10.5,65.7,15.9,94.9,15.9c9,0,17.8-0.5,26.3-1.5
		c30-3.6,56.7-13.4,79.6-29.1c12.3-8.5,22.1-17.9,29.9-26.8c24.4,46.8,42.4,97.6,42.3,109.9c-1.3,7.8-5.7,17.9-10.4,28.7
		c-10.7,24.5-24,55.1-16.7,91.6c19.2,94.5,62.5,196.2,64.3,200.5l5.8,13.6h127l5.8-13.6c1.8-4.3,45.1-106,64.3-200.5
		c7.4-36.4-5.9-67-16.7-91.5c-4.7-10.7-9.1-20.8-10.4-28.7c-0.1-12.4,17.8-63.1,42.3-109.9c7.7,8.9,17.5,18.3,29.9,26.8
		c22.8,15.7,49.6,25.5,79.6,29.1c8.5,1,17.3,1.5,26.3,1.5c29.2,0,61-5.3,94.9-15.9C419.1,687.6,520.5,631.8,504,570.1z M-32.8,714.4
		c-12.6-36.7-30.2-69.1-52.5-96.7c-0.6-0.7-1.2-1.3-1.7-2c20.6,2.9,40.9,4.3,61,4.3c15.6,0,31.1-0.9,46.2-2.6
		c-0.1,0.1-0.2,0.2-0.3,0.3C-2.5,645.2-20.1,677.7-32.8,714.4z M-32.6,482.1c39.1,0,119.8,19.9,141.5,59.5c0.9,1.5,1.6,3.1,2.2,4.7
		c-58.7,27.1-125,35.3-197.3,24.2c-44.1-6.8-77.5-19.2-90.1-24.3c0.7-1.5,1.4-3.1,2.2-4.6C-152.4,501.9-71.7,482.1-32.6,482.1z
		 M-236.8,658.4c-38.7,26.7-94.7,29.8-161.9,8.9c-34.5-10.7-69.9-27.9-94.9-45.8c-24.7-17.8-34.1-33.1-32.3-39.7
		c4.1-15.3,13.4-26.6,28.6-34.5c63.5-33.1,204.5,1.9,273.1,24.2c1.7,20.3,9.4,39.3,18.4,55.1C-211.4,635.3-221.3,647.7-236.8,658.4z
		 M-108.4,825c5.9-13.6,11.6-26.5,13.7-40.2c0.8-5.3,3.3-21.3-20.1-78.9c-14.1-34.7-31.6-69.5-48.2-95.3c-1.9-3.1-3.7-6-5.3-9
		c14.8,9.8,33.1,25,49.9,46.4c20.9,26.6,37,58.7,47.8,95.4c8.1,27.5,13.1,57.6,15.2,90c-1.4,23.6-1.4,48.1,0.1,73.7v59.2
		c-14,1.5-28.8,4.8-43.6,10.7c-8.8-27.8-17.4-58.2-23.3-87.4C-126.8,867.2-117.5,845.8-108.4,825z M-66.2,1067.9
		c-4.4-10.9-11-27.8-18.2-48.2c21.9-9.3,46.1-11.7,72.3-7.1c12.8,2.3,23.6,5.8,30.9,8.7c-7.1,19.6-13.4,35.9-17.7,46.5L-66.2,1067.9
		L-66.2,1067.9z M29.5,784.9c2.1,13.6,7.8,26.5,13.7,40.2c9,20.7,18.4,42.1,13.8,64.7c-6,29.8-14.8,60.9-23.9,89.1
		c-10.8-4.1-25.8-8.7-43.6-11.3V906h0c1.4-25.1,1.4-49.3,0-72.4C-8.2,801.1-3.2,771,5,743.5c10.8-36.7,26.9-68.8,47.9-95.3
		c17-21.5,35.4-36.7,50.3-46.6c-1.6,3-3.4,6-5.4,9.1c-16.5,25.8-34.1,60.6-48.2,95.3C43.8,720.3,26.2,763.6,29.5,784.9z
		 M428.4,621.5c-24.9,17.9-60.4,35.1-94.9,45.8c-67,20.9-120.8,18.3-160-7.6c-16.5-10.9-26.9-24-32.9-33.3c9-15.7,16.7-34.7,18.4-55
		c68.5-22.3,209.5-57.3,273-24.2c15.1,7.9,24.5,19.2,28.6,34.5C462.4,588.4,453.1,603.6,428.4,621.5z"/>
	<g class="st4">
		<path class="st1" d="M375.4,671.7c-5.5-26.9-43.2-42.1-84.2-33.9c-41,8.2-69.8,36.7-64.3,63.6c5.5,26.9,43.2,42.1,84.2,33.9
			C352.1,727.1,380.9,698.6,375.4,671.7z"/>
		<path class="st1" d="M289,760L289,760c-43.7,0-77.5-21.7-84.1-54.1c-3.2-15.5,0.3-31.4,10-46c14.2-21.4,41.1-37.9,71.9-44
			c8.8-1.8,17.8-2.7,26.5-2.7c43.7,0,77.5,21.7,84.1,54c3.2,15.5-0.3,31.4-10,46c-14.2,21.4-41.1,37.9-71.9,44
			C306.6,759.1,297.7,760,289,760z M313.3,658.1c-5.8,0-11.8,0.6-17.7,1.8c-22.8,4.6-37.4,15.8-43.3,24.8c-2.1,3.1-4.3,7.8-3.4,12.3
			c2.3,11.4,22.2,18.1,40.2,18.1l0,0c5.8,0,11.8-0.6,17.7-1.8c22.8-4.6,37.4-15.8,43.3-24.9c2.1-3.1,4.3-7.7,3.4-12.2
			C351.1,664.9,331.2,658.1,313.3,658.1z"/>
		<path class="st1" d="M-440.6,671.7c5.5-26.9,43.2-42.1,84.2-33.9c41,8.2,69.8,36.7,64.3,63.6c-5.5,26.9-43.2,42.1-84.3,33.9
			C-417.3,727.1-446.1,698.6-440.6,671.7z"/>
		<path class="st1" d="M-354.2,760c-8.7,0-17.7-0.9-26.5-2.7c-30.8-6.1-57.7-22.6-71.9-44c-9.7-14.6-13.1-30.5-10-46
			c6.6-32.3,40.4-54,84.1-54c8.7,0,17.7,0.9,26.5,2.7c30.8,6.2,57.7,22.6,71.9,44c9.7,14.6,13.1,30.5,10,46
			C-276.7,738.3-310.5,760-354.2,760z M-378.5,658.1c-17.9,0-37.8,6.8-40.2,18.2c-0.9,4.5,1.3,9.1,3.4,12.2c6,9,20.5,20.3,43.3,24.9
			c5.9,1.2,11.9,1.8,17.7,1.8c17.9,0,37.8-6.8,40.2-18.1c0.9-4.5-1.3-9.1-3.4-12.3c-6-9-20.5-20.3-43.3-24.8
			C-366.7,658.7-372.7,658.1-378.5,658.1z"/>
	</g>
</g>
<g id="PEDIATRÍA" class="st2">
	<g id="XMLID_38_" class="st4">
		<path id="XMLID_52_" class="st0" d="M-218.5,1315.1L-218.5,1315.1c-181.7,0-329-147.3-329-329v-423c0-181.7,147.3-329,329-329l0,0
			c181.7,0,329,147.3,329,329v423C110.5,1167.8-36.8,1315.1-218.5,1315.1z"/>
		<path id="XMLID_51_" class="st0" d="M106.8,563.1v423c0,181.7-147.3,329-329,329l0,0v-94h3.6V234.2
			C-38.5,236.2,106.8,382.7,106.8,563.1z"/>
		<path id="XMLID_50_" class="st0" d="M110.5,563.1v423c0,181.7-147.3,329-329,329l0,0l0,0c-181.7,0-329-147.3-329-329v-423
			c0-79.7,28.4-152.9,75.6-209.8l253.4,253.4L34.9,353.3C82.1,410.3,110.5,483.4,110.5,563.1z"/>
		<path id="XMLID_49_" class="st0" d="M110.5,563.1v423c0,181.7-147.3,329-329,329l0,0v-298.4V697.3v-90.6L34.9,353.3
			C82.1,410.3,110.5,483.4,110.5,563.1z"/>
		<path id="XMLID_48_" class="st1" d="M-359.3,556.5c3.5-74.8,65.2-134.4,140.8-134.4s137.4,59.6,140.8,134.4h0.2v147.6h-282V556.5
			H-359.3L-359.3,556.5z"/>
		<path id="XMLID_47_" class="st1" d="M-218.5,422.1v282h-140.8V556.5C-355.9,481.7-294.1,422.1-218.5,422.1z"/>
		<path id="XMLID_46_" class="st1" d="M-218.5,606.7l119.1-119.1c12.8,20.1,20.6,43.6,21.8,68.8h0.2v147.6h-282V556.5h0.2
			c1.2-25.3,9-48.8,21.8-68.8L-218.5,606.7z"/>
		<path id="XMLID_45_" class="st1" d="M-77.7,704.1h-140.8v-97.4l119.1-119.1c12.8,20.1,20.6,43.6,21.8,68.8L-77.7,704.1
			L-77.7,704.1z"/>
		<path id="XMLID_44_" class="st0" d="M110.5,563.1v423c0,181.7-147.3,329-329,329l0,0l0,0c-181.7,0-329-147.3-329-329v-423
			c0-56.3,14.2-109.3,39.1-155.7l289.9,289.9L71.4,407.5C96.3,453.8,110.5,506.8,110.5,563.1z"/>
		<path id="XMLID_43_" class="st0" d="M-218.5,697.3v617.8l0,0c-181.7,0-329-147.3-329-329v-423c0-56.3,14.2-109.3,39.1-155.7
			L-218.5,697.3z"/>
		<path id="XMLID_42_" class="st0" d="M-30.5,509.3v453.3c0,77.9-63.1,141-141,141h-47h-47c-77.9,0-141-63.1-141-141V509.3l188,188
			L-30.5,509.3z"/>
		<path id="XMLID_41_" class="st0" d="M-406.5,509.3l188,188v406.3h-47c-77.9,0-141-63.1-141-141V509.3z"/>
		<path id="XMLID_40_" class="st1" d="M-112.8,880.4c0,19.5-15.8,35.2-35.2,35.2h-35.2v35.2c0,19.5-15.8,35.2-35.2,35.2
			s-35.2-15.8-35.2-35.2v-35.2H-289c-19.5,0-35.2-15.8-35.2-35.2s15.8-35.2,35.2-35.2h35.2v-35.2c0-19.5,15.8-35.2,35.2-35.2
			s35.2,15.8,35.2,35.2v35.2h35.2C-128.5,845.1-112.8,860.9-112.8,880.4z"/>
		<path id="XMLID_39_" class="st1" d="M-253.7,916.2v-0.5H-289c-19.5,0-35.2-15.8-35.2-35.2s15.8-35.2,35.2-35.2h35.2v-35.2
			c0-19.5,15.8-35.2,35.2-35.2s35.2,15.8,35.2,35.2v35.2h0.5L-253.7,916.2z"/>
	</g>
</g>
<g id="ORTOPEDIA" class="st2">
	<g class="st4">
		<g>
			<path class="st0" d="M171.9,348.7l-60.6-85.5C92.1,236,54.3,229.5,27,248.8l-51.2,36.3c-66.6,47.1-145,71.2-226.8,69.7
				c-27-0.4-53.1,7.5-75.2,23.2c0,0,0,0,0,0c-27.5,19.5-45.8,48.5-51.4,81.7c-1.6,9.2-2.1,18.4-1.7,27.5
				c-95.5,21-167.4,108.3-167.4,212.6c0,40.2,10.7,77.9,29.3,110.2c-18.3,21.9-29.3,50-29.3,80.7c0,27.1,8.5,53,24.6,74.8
				c47.9,64.9,74.2,144.9,74.2,225.3v62.8c0,33.4,27.1,60.5,60.5,60.5h104.8c33.4,0,60.5-27.1,60.5-60.5v-62.8
				c0-81.6,25.7-159.5,74.2-225.3c16.1-21.8,24.6-47.7,24.6-74.8c0-30.7-11-58.8-29.3-80.7c11.6-20.2,20.2-42.5,25-66.2
				c16.4-3.6,32.1-10.4,46.1-20.3c22.2-15.7,38.3-37.6,46.8-63.3c25.3-76.6,75.4-144.4,141-190.8l51.2-36.3
				C184.7,413.7,191.2,375.9,171.9,348.7z M-365.6,538.3c2.7,5.3,5.8,10.5,9.4,15.4c18.5,26.1,46.2,43.9,76.8,50.4
				c-4,31,3.6,63.1,22.1,89.2c18.2,25.7,44.8,43.3,75.3,50.2c-3.1,11.7-7.5,22.9-12.9,33.4c-16.5-7.9-35-12.4-54.5-12.4
				c-31.9,0-62.5,12.3-85.5,33.5c-23-21.2-53.6-33.5-85.5-33.5c-19.5,0-38,4.5-54.5,12.4c-11.9-23-18.6-49.3-18.6-77.2
				C-493.7,619.9-438.5,553.2-365.6,538.3z M-190.6,934c-55.3,75-84.6,163.8-84.6,256.8v62.8c0,4.1-3.4,7.5-7.5,7.5h-104.8
				c-4.1,0-7.5-3.4-7.5-7.5v-62.8c0-91.6-30-182.8-84.6-256.8c-9.3-12.6-14.2-27.6-14.2-43.3c0-40.3,32.8-73.1,73.1-73.1
				c26,0,49.4,13.3,62.8,35.6c4.8,8,13.4,12.9,22.7,12.9s17.9-4.9,22.7-12.9c13.4-22.3,36.8-35.6,62.8-35.6
				c40.3,0,73.1,32.8,73.1,73.1C-176.4,906.4-181.3,921.4-190.6,934z M126.9,389.7L75.6,426C0.8,479-56.2,556.2-85.1,643.5
				c-4.9,14.9-14.3,27.5-27.1,36.6c-15.9,11.3-35.3,15.7-54.6,12.4c-19.3-3.3-36.1-13.9-47.4-29.8c-15-21.2-17.7-48-7.2-71.8
				c3.8-8.5,2.8-18.4-2.6-26c-5-7-13.1-11.2-21.6-11.2c-0.7,0-1.4,0-2,0.1c-25.9,2-50.4-9.5-65.4-30.6
				c-23.3-32.9-15.5-78.6,17.4-102c12.8-9.1,27.8-13.8,43.6-13.4c93.2,1.8,182.6-25.7,258.5-79.4L57.7,292c3.4-2.4,8-1.6,10.4,1.8
				l60.6,85.5C131,382.7,130.2,387.3,126.9,389.7z"/>
		</g>
		<g>
			<path class="st0" d="M-236.3,426.3c-34.3,0-62.2,27.9-62.2,62.2c0,14.6,11.9,26.5,26.5,26.5c14.6,0,26.5-11.9,26.5-26.5
				c0-5.1,4.1-9.2,9.2-9.2c14.6,0,26.5-11.9,26.5-26.5S-221.7,426.3-236.3,426.3z"/>
		</g>
	</g>
</g>
<g id="NEUROLOGÍA" class="st2">
	<g class="st4">
		<path class="st6" d="M-538.6,29.2C-767.8,32.4-956,226.5-943.9,462.4h-0.6v37.9l-101.9,165.4h101.9v149.9
			c0,38.1,30.9,68.9,68.9,68.9h188.9V1046h307.9v-7.1c0-112.1,45-220.3,127-296.8c80.5-75.2,130.8-182.2,130.8-301
			C-120.9,211.6-308.5,26-538.6,29.2z"/>
		<g>
			<path class="st1" d="M-734.1,319.4c64.3,93.9,140.2,28.5,177.7,49c13,7.1,17,23.9,17,38.7c0,14.8-2.6,30.2,2.6,44
				c11.5,30.8,52.6,36.6,85.3,33.1c34.4-3.7,37.8,5.1,48,34.9c16.5,48.1,48.4,82.1,99.7,81.8c23.6-0.2,44.6-14.8,54-36.5
				c89.1-203.8-62.4-434.9-287.3-431.9C-658.3,134.3-804.7,216.2-734.1,319.4z"/>
			<g>
				<path class="st0" d="M-539,1.3c-246.4,3.4-442.8,211.2-433,456.4c-0.6,3.5-0.4,4-0.4,34.6l-97.7,158.7
					c-11.4,18.6,2,42.5,23.7,42.5h74v122c0,53.4,43.4,96.8,96.8,96.8h161V1046c0,15.4,12.5,27.9,27.9,27.9h307.9
					c15.4,0,27.9-12.5,27.9-27.9c0-118.5,45.5-215.8,118.1-283.6C-144,679.5-93,562.4-93,441C-93,195.5-293.5-2.3-539,1.3z
					 M-270.8,721.6c-81.4,76-130,183.1-135.3,296.5h-252.6V884.5c0-15.4-12.5-27.9-27.9-27.9h-188.9c-22.6,0-41-18.4-41-41V665.7
					c0-15.4-12.5-27.9-27.9-27.9h-51.9c82.2-133.5,79.8-126.6,79.8-137.5v-32.1c2.5-11.5-19.2-166.5,112.9-298.5
					C-562.5-71.1-148.8,99.3-148.8,441C-148.8,547-193.3,649.3-270.8,721.6z"/>
				<path class="st1" d="M-251.5,257.1c-104.7-160-321.2-201.7-477.4-88.4c-32.8,24-80.9,89.6-28.2,166.5
					c71.2,104,166.3,48.6,186.9,57.5c3.7,5,2.7,19.2,2.5,24.3c-0.5,12.6-1.2,28.2,4.7,44c24.8,66.3,116.7,49.8,126.7,50.5
					c1.8,3.7,4.5,11.4,6.3,16.8c42.6,124.5,171.2,126.3,205.7,47.4C-178.9,471.6-189,352.6-251.5,257.1z M-275.4,553.3
					c-5,11.4-15.8,19.7-29.2,19.7c-33.9,0-58.3-21.2-72.6-62.9c-12.3-36-24.4-59.3-77.3-53.6c-23.5,2.5-51-1.2-56.2-15.1
					c-2.7-7.3-0.9-20.6-0.8-34.2c0-29.2-11.4-52.2-31.4-63.2c-54.4-29.8-113,40.1-168.1-40.3c-33.8-49.3,6.8-83.7,15.1-89.9
					c130.2-94.4,310.5-59.7,397.9,73.8C-246,367.3-237.5,466.6-275.4,553.3z"/>
			</g>
		</g>
	</g>
</g>
<g id="PSICOLOGÍA" class="st2">
	<path class="st5" d="M-591.5,330.6h64.4c3.7,0,13.6,10.3,15.1,29.3l1.7,22.5c18.4,239.8,35.9,467,295.3,493v349h-66.3
		c-25.5,0-46.2,20.7-46.2,46.2c0,25.5,20.7,46.2,46.2,46.2H-55c25.5,0,46.2-20.7,46.2-46.2c0-25.5-20.7-46.2-46.2-46.2h-67.7V876.3
		c270-20.5,287.6-248.5,306-489.4l2.1-27c1.5-19,11.4-29.3,15.1-29.3h64.5c25.5,0,46.2-20.7,46.2-46.2c0-25.5-20.7-46.2-46.2-46.2
		h-64.5c-56,0-102.1,49.2-107.1,114.4l-2.1,27.1C71.8,635.4,53.4,767.2-122.6,783.8V330.6H-55c25.5,0,46.2-20.7,46.2-46.2
		s-20.7-46.2-46.2-46.2h-107.3c-2.2-0.3-4.3-0.7-6.5-0.7s-4.4,0.4-6.5,0.7h-106c-25.5,0-46.2,20.7-46.2,46.2s20.7,46.2,46.2,46.2
		h66.3v451.9c-165.7-21.3-183.9-154.3-203.3-407.2l-1.7-22.5c-5.1-65.2-51.1-114.4-107.1-114.4h-64.4c-25.5,0-46.2,20.7-46.2,46.2
		S-617,330.6-591.5,330.6z"/>
</g>
<g id="NUTRICIÓN" class="st2">
	<path id="XMLID_16_" class="st7" d="M-657.1,972.9c2.3-77.5-39.9-106.9-91.4-126.2C-765.6,913.3-718.3,968.6-657.1,972.9"/>
	<path id="XMLID_11_" class="st7" d="M-645.5,626.7c32.9-70.5,5.4-113.9-34.1-152.2C-721,528.7-699.7,598.4-645.5,626.7"/>
	<path id="XMLID_10_" class="st7" d="M-626.9,822.3c-2.3-77.5,39.9-106.9,91.4-126.2C-518.5,762.6-565.7,817.6-626.9,822.3"/>
	<path id="XMLID_9_" class="st7" d="M-626.9,941.9c-2.3-77.5,39.9-106.9,91.4-126.2C-518.5,882.3-565.7,937.3-626.9,941.9"/>
	<path id="XMLID_8_" class="st7" d="M-626.9,702.6c-2.3-77.5,39.9-106.9,91.4-126.2C-518.5,643-565.7,698.3-626.9,702.6"/>
	<path id="XMLID_7_" class="st7" d="M-657.1,853.6c2.3-77.5-39.9-106.9-91.4-126.2C-765.6,793.6-718.3,849-657.1,853.6"/>
	<path id="XMLID_6_" class="st7" d="M-657.1,734c2.3-77.5-39.9-106.9-91.4-126.2C-765.6,674.3-718.3,729.3-657.1,734"/>
	<path id="XMLID_5_" class="st8" d="M-75.9,1318.7h-415.9l208-360.1L-75.9,1318.7z"/>
	<polygon id="XMLID_3_" class="st8" points="-607.5,1069.6 273.5,829.9 260.3,781.5 -620.7,1021.2 	"/>
	<path id="XMLID_2_" class="st7" d="M14,328c0,0,6.6,127,117.7,116.2C131.7,444.6,144.5,338.1,14,328"/>
	<path id="XMLID_1_" class="st7" d="M130.6,741.6c-11.6,16.7-31,27.1-52.7,27.1c-17.8,0-35.2-8.5-46.9-20.1
		c-24-26.3-55-84.8-55-84.8c-17.4-35.2-26.7-62.7-26.7-90.6c0-58.9,47.6-110,106.9-110c29,0,55.4,11.6,74.7,30.6
		c19.4-19,45.7-30.6,74.7-30.6c59.2,0,106.9,51.1,106.9,110c0,27.5-9.3,55-26.7,90.6c0,0-31,58.5-55,84.8
		c-11.6,11.6-29,20.1-46.9,20.1C161.6,768.7,142.2,757.9,130.6,741.6"/>
</g>
<g id="__x0D_DERMATOL" class="st2">
	
		<image style="overflow:visible;" width="225" height="225" xlink:href="../../Landing Page/Unknown.png"  transform="matrix(1 0 0 1 -537.0645 625.1613)">
	</image>
	<path class="st5" d="M308.5,845c-78.4,0-78.4-62.6-157.2-62.6S72.5,845-5.9,845s-78.8-62.6-157.2-62.6
		c-78.8,0-78.8,62.6-157.2,62.6c-78.8,0-78.8-71.1-157.2-71.1c-78.8,0-78.8,62.6-157.2,62.6v-53.8c0-86.5,70.3-156.4,157.2-156.4
		h629.1c86.9,0,157.2,69.9,157.2,156.4V845H308.5z"/>
	<path class="st5" d="M151.3,845c-78.8,0-78.8,62.6-157.2,62.6c-5,0-9.2-0.4-13.5-0.8c8.5,19.2,13.5,40.7,13.5,63
		c0,86.5-70.3,156.4-157.2,156.4s-157.2-69.9-157.2-156.4c0-22.7,5-43.8,13.5-63c-4.2,0.4-8.5,0.8-13.5,0.8
		c-78.8,0-78.8-71.1-157.2-71.1c-78.8,0-78.8,62.6-157.2,62.6v258.6c0,86.5,70.3,156.4,157.2,156.4h629.1
		c86.9,0,157.2-69.9,157.2-156.4V907.6C229.7,907.6,229.7,845,151.3,845"/>
	<path class="st3" d="M-462.1,1173.2c0,17.3-14.2,31.1-31.5,31.1c-17.3,0-31.5-13.8-31.5-31.1c0-17.3,14.2-31.1,31.5-31.1
		C-476.3,1141.7-462.1,1155.9-462.1,1173.2 M-304.9,1173.2c0,17.3-14.2,31.1-31.5,31.1s-31.5-13.8-31.5-31.1
		c0-17.3,14.2-31.1,31.5-31.1C-319.1,1141.7-304.9,1155.9-304.9,1173.2 M-383.7,1048.3c0,17.3-14.2,31.1-31.5,31.1
		s-31.5-13.8-31.5-31.1s14.2-31.1,31.5-31.1C-397.5,1016.8-383.7,1031-383.7,1048.3 M111.7,1188.9c0,17.3-14.2,31.1-31.5,31.1
		s-31.5-13.8-31.5-31.1c0-17.3,14.2-31.1,31.5-31.1C97.9,1157.4,111.7,1171.6,111.7,1188.9 M190.5,1063.6
		c0,17.3-14.2,31.1-31.5,31.1s-31.5-13.8-31.5-31.1c0-17.3,14.2-31.1,31.5-31.1S190.5,1046.3,190.5,1063.6"/>
	<path class="st3" d="M101,338.5c-20.8-15.4-50.3-11.1-66.1,9.2l-47.3,62.6c-104.5,138.4-170.2,303.6-191,474.6
		c-31.9,15-54.2,47.3-54.2,84.9c0,51.9,42.3,93.8,94.2,93.8c52.3,0,94.5-41.9,94.5-93.8c0-31.9-16.1-60-40.4-76.9
		C-90,739.3-30.5,590.9,63.3,466.8l47.3-62.6C125.9,383.4,121.7,354.2,101,338.5"/>
</g>
<g id="NEUMOLOGÍA" class="st2">
	<path class="st5" d="M-505,478.1C-612.7,620-634.9,859.3-640.1,951.6c-1.6,23.9,8.6,47.9,27.3,63.2c17.2,13.6,39.4,18.9,59.8,15.4
		l206.9-29.1c121.3-18.8,95.6-230.8,99.1-314.5c20.5-20.5,44.5-51.3,78.7-83.8c35.9,35.9,64.9,66.7,87.2,88.9
		c3.4,82-23.9,290.6,95.8,309.4l206.8,29.1c20.5,3.4,42.8-1.8,59.8-15.4c18.9-15.3,29.1-39.3,27.3-63.2
		C305.2,859.3,283,620,175.3,478.1C-67.4,158.4-89.6,406.3-82.7,649c-27.5-32.4-53-63.3-54.8-64.9l1.8-181.2h-58.2l-3.4,181.2
		c3.4-3.4-22.1,25.7-51.2,58.1C-241.7,401.2-265.7,161.9-505,478.1"/>
</g>
<g id="GASTROENTEROLOGÍA" class="st2">
	<g class="st4">
		<g>
			<path class="st9" d="M-320.5,107.5C-420.7-11-599.1-3-692,111.5c-34.6-16.5-59.3-36.4-68.2-55.7c-13.4-29.1-44.6-45.5-75.9-39.8
				L-905,28.5c-41.9,7.6-67.3,50.7-53.6,90.8c29.4,85.8,106.6,155.2,218.6,197.3c7,31.6,19.1,55.9,31.3,75
				c-77.6,50.5-90.9,158.5-26.5,226.1c-39.3,33.4-66.9,78.7-78.6,129.3c-117.6,18.7-210.6,98.9-244,235.5
				c-9.6,39.2,16.2,78.4,56,85.2l67.8,11.6c35.7,6.1,69.8-15.8,79.2-51.1c13.6-51,40.7-75.4,86.8-77.2
				C-516.7,1270,156.8,671.4-320.5,107.5z"/>
		</g>
	</g>
</g>
<g id="__x0D_UROLOGÍA" class="st2">
	<path class="st5" d="M-406.7,716.1c-15.6,0-28.2-12.6-28.2-28.2V513.3c0-43.3-35.2-78.4-78.4-78.4c-15.6,0-28.2-12.6-28.2-28.2
		s12.6-28.2,28.2-28.2c74.4,0,134.9,60.5,134.9,134.9v174.5C-378.4,703.4-391.1,716.1-406.7,716.1z"/>
	<path class="st3" d="M-864.2,406.7c0,129.1,101.6,233.7,226.8,233.7s25.1-165,25.1-233.7c0-60.2,100.2-233.7-25.1-233.7
		S-864.2,277.6-864.2,406.7z"/>
	<g class="st4">
		<path class="st0" d="M-637.3,668.6c-140.6,0-255.1-117.5-255.1-261.9S-778,144.7-637.3,144.7c34,0,59.2,10.7,74.8,31.8
			c31.5,42.4,11.2,109.5-6.7,168.6c-7.3,24.1-14.8,49.1-14.8,61.5c0,15.7,8.1,42.8,16,69.1c17,56.6,36.2,120.8,6,161.4
			C-577.6,658-602.9,668.6-637.3,668.6z M-637.3,201.2c-109.5,0-198.6,92.2-198.6,205.5s89.1,205.5,198.6,205.5
			c10.7,0,24.6-1.5,30-8.8c13.3-17.8-3.6-74.2-14.8-111.5c-9.4-31.5-18.4-61.3-18.4-85.3c0-20.8,8-47.2,17.2-77.8
			c11.9-39.4,29.9-99.1,15.4-118.7C-613.3,202.8-626.9,201.2-637.3,201.2z"/>
		<path class="st0" d="M-303.6,716.1c-15.6,0-28.2-12.6-28.2-28.2V513.3c0-74.4,60.5-134.9,134.9-134.9c15.6,0,28.2,12.6,28.2,28.2
			s-12.6,28.2-28.2,28.2c-43.3,0-78.4,35.2-78.4,78.4v174.5C-275.4,703.4-288,716.1-303.6,716.1z"/>
	</g>
	<path class="st3" d="M263.9,402.7c0,129.1-101.6,233.7-226.8,233.7s-25.1-165-25.1-233.7C11.9,342.5-88.2,169,37,169
		S263.9,273.6,263.9,402.7z"/>
	<g class="st4">
		<path class="st0" d="M37,664.6c-34.4,0-59.7-10.6-75.3-31.5c-30.2-40.6-11-104.7,6-161.4c7.9-26.3,16-53.4,16-69.1
			c0-12.4-7.5-37.4-14.8-61.5C-49,282-69.3,214.9-37.8,172.5C-22.1,151.4,3,140.7,37,140.7c140.6,0,255.1,117.5,255.1,261.9
			S177.7,664.6,37,664.6z M37,197.2c-10.4,0-24,1.6-29.5,9C-7,225.8,11,285.4,22.9,324.8c9.2,30.6,17.2,57.1,17.2,77.8
			c0,23.9-8.9,53.7-18.4,85.3C10.6,525.2-6.2,581.6,7,599.4c5.4,7.2,19.3,8.8,30,8.8c109.5,0,198.6-92.2,198.6-205.5
			S146.6,197.2,37,197.2z"/>
		<path class="st0" d="M-205.4,1020.5h-79.4c-26.9,0-49.1-20.4-52.1-46.5c-74.6-27.3-118.4-88.4-118.4-166.7
			c0-57.3,22.7-99.3,67.5-124.9c33.9-19.4,80.6-28.8,142.7-28.8s108.8,9.4,142.7,28.8C-57.7,708-35,750-35,807.4
			c0,78.4-43.8,139.4-118.4,166.7C-156.3,1000.2-178.6,1020.5-205.4,1020.5z M-280.8,964.1h71.3v-10.8c0-12.8,8.6-24,21-27.3
			c36.3-9.6,97.1-37.8,97.1-118.7c0-48.1-18.3-97.3-153.7-97.3s-153.7,49.2-153.7,97.3c0,80.8,60.8,109.1,97.1,118.7
			c12.4,3.3,21,14.5,21,27.3L-280.8,964.1L-280.8,964.1z"/>
	</g>
</g>
<g id="ODONTOLOGÍA" class="st2">
	<g class="st4">
		<g>
			<path class="st0" d="M-149.8,62.4c-9.6,3.4-12.2,15.7-5,22.9l46,45.9c39.1,39-20,98.2-59.1,59.2c-83.5-83.3-75.6-75.3-77.7-77.8
				C-456.2-50.9-771.3,91.5-779.9,363.5c-2.6,82.4,24.9,162.7,77.4,226.1c37.1,44.7,182.4,394.8,198.5,416.7
				c39.3,53.4,122.7,39.5,142.8-23.8c25.7-80.6,71.9-132.8,117.7-132.8c45.8,0,92,52.1,117.7,132.8c23.4,73.2,122,71.9,147.2,16.3
				c181.9-399.6,170.7-381,194.1-409.2C431.2,329.5,167.8-51.7-149.8,62.4z M-521.2,439.3c22.7,27.4,2.9,68.5-32.2,68.5
				c-58.3,0-120.6-160.8-24-258.8c16.2-16.4,42.7-16.6,59.1-0.4c16.4,16.2,16.6,42.7,0.4,59.1C-552.1,342.4-553.6,400.2-521.2,439.3
				z"/>
		</g>
	</g>
</g>
<g id="OTORRINO" class="st2">
	<g class="st4">
		<g>
			<g>
				<path class="st0" d="M-136,1083.7L-136,1083.7V856.5c0-60.7-49.5-110.2-110.2-110.2h-266.6c17.2,22.2-12.8,53.9-11.9,82.9
					c1.8,37.6,50.4,52.1,88,47.1s78.5-18,109.3,4.2c19.6,13.6,29,38.5,34.1,61.6c11.9,46.2,15.4,94.8,10.3,142.6h147L-136,1083.7
					L-136,1083.7z"/>
				<path class="st0" d="M287.7,307.4C266.3,179.3,174.2,63.2,51,24.7C-28.5-0.2-112.9,6-195,19.6c-107.6,18-227.2,59-270.8,158.8
					c-23.1,53-21.3,112.9-25.5,170.1c-4.2,57.2-19.6,119.7-64.9,154.7c-20.5,15.4-48.6,29.9-49.5,55.4
					c-0.9,49.5,100.8,56.3,91.3,105.8c-2.6,13.6-14.5,26.4-21.3,38.5h289.5c84.5,0,153.8,69.3,153.8,153.8v227.2l0,0h193.8
					c-19.1-238.5,5.9-310,21.3-341.6c14.5-28.2,36.7-50.4,57.2-74.4C264.6,568.7,309,434.5,287.7,307.4z"/>
			</g>
		</g>
	</g>
</g>
<g id="__x0D_CUIDADOS_PALIATIVOS" class="st2">
	<g class="st4">
		<g>
			<g>
				<path class="st1" d="M37.4,50.9C-13.4,0.1-95.8,0-146.8,50.5C-197.8,0-280.1,0.1-331,50.9c-50.9,50.9-50.9,133.6,0,184.5
					c2.5,2.5,123.4,122.8,167.9,167.2c9,8.9,23.5,8.9,32.5,0C-86,358.3,34.9,237.9,37.3,235.4C88.3,184.5,88.3,101.8,37.4,50.9z"/>
			</g>
			<g>
				<path class="st0" d="M336.4,711.7L178.9,563.7c-36.3-34.1-84.3-53.1-134.2-53.1h-307.5c-32.6,0-59,26.4-59,59.1s26.4,59,59,59
					h222.9c20.3,0,36.8,16.4,36.8,36.7s-16.5,36.8-36.8,36.8h-379.7c-8.3,0-16.3-2.8-22.7-7.9l-159.9-125.8
					c-25.6-20.1-62.8-15.8-82.9,9.8c-20.2,25.7-15.7,62.7,9.9,82.9l246,193.6c10.8,8.5,23.7,12.6,36.5,12.6c0,0,0,0,0,0v0H50.6
					c9.6,0,18.8,3.7,25.6,10.4l189.9,184.6c18.4,17.9,45.8,23,69.5,13.1c23.7-10,39.1-33.2,39.1-58.9V805.4
					C374.8,770.4,361,736.7,336.4,711.7z"/>
			</g>
		</g>
	</g>
</g>
<g id="__x0D_DERMATOLOGÍA" class="st2">
	<g class="st4">
		<path class="st0" d="M-304.5,176.5c-23.9,0-43.3,19.4-43.3,43.3v174.7c0,6.1-4.9,11-11,11c-6.1,0-11-4.9-11-11V99.3
			c0-23-18.6-41.6-41.6-41.6c-23,0-41.6,18.6-41.6,41.6V400c-2.2,7.4-9.7,7.2-9.7,7.2c-8-0.5-9-8.1-9-8.1V47.3
			c0-21.4-17.3-38.7-38.7-38.7c-21.4,0-38.7,17.3-38.7,38.7v347.5c0,5.3-4.3,9.6-9.6,9.6s-9.6-4.3-9.6-9.6V130.7
			c0-21.2-17.2-38.4-38.4-38.4h0c-21.2,0-38.4,17.2-38.4,38.4v441l-16.6-13.5c-21.7-17.8-38.3-41.1-47.9-67.5l-31-85.4
			c-5.2-14.2-18.6-23.6-33.7-23.6c-21.5,0-38.2,18.8-35.6,40.2l15.7,128.5c8.7,71.3,39.1,138.2,87,191.8l14.2,15.9
			c30.8,34.4,47.9,79,47.9,125.2v197.4h331.3l2.6-216.1c0.5-45.4,10.5-90.3,29.3-131.7c13.7-30.2,20.8-62.9,20.8-96.1v-417
			C-261.3,195.9-280.6,176.5-304.5,176.5z"/>
		<path class="st1" d="M-386.8,525.9c0,14.1-11.4,25.4-25.4,25.4c-14.1,0-25.4-11.4-25.4-25.4c0-14.1,11.4-25.4,25.4-25.4
			C-398.2,500.5-386.8,511.9-386.8,525.9z"/>
		<path class="st1" d="M-465.4,644.7c0,10.9-8.9,19.8-19.8,19.8s-19.8-8.9-19.8-19.8c0-10.9,8.9-19.8,19.8-19.8
			S-465.4,633.8-465.4,644.7z"/>
		<path class="st1" d="M-356.2,624c0,11.4-9.2,20.6-20.6,20.6c-11.4,0-20.6-9.2-20.6-20.6s9.2-20.6,20.6-20.6
			C-365.5,603.4-356.2,612.6-356.2,624z"/>
		<circle class="st1" cx="-356.2" cy="808" r="20.6"/>
		<circle class="st1" cx="-324.9" cy="556.2" r="11.6"/>
		<path class="st1" d="M-305.9,463.2c0,6.9-5.6,12.4-12.4,12.4c-6.9,0-12.4-5.6-12.4-12.4c0-6.9,5.6-12.4,12.4-12.4
			C-311.5,450.7-305.9,456.3-305.9,463.2z"/>
		<circle class="st1" cx="-343.8" cy="719.3" r="17.5"/>
		<path class="st1" d="M-297.9,645.2c0,7.5-6,13.5-13.5,13.5c-7.5,0-13.5-6-13.5-13.5c0-7.5,6-13.5,13.5-13.5
			C-303.9,631.7-297.9,637.7-297.9,645.2z"/>
		<circle class="st1" cx="-426.4" cy="748.2" r="28.8"/>
		<path class="st1" d="M-369,883.4c0,11-8.9,19.9-19.9,19.9c-11,0-19.9-8.9-19.9-19.9s8.9-19.9,19.9-19.9
			C-377.9,863.5-369,872.4-369,883.4z"/>
	</g>
</g>
<g id="Otorhinolaryngology">
	
		<image style="display:none;overflow:visible;" width="701" height="854" xlink:href="toppng.com-ear-nose-throat-section-svg-icon-free-ear-nose-throat-icon-804x980.png"  transform="matrix(1.2582 0 0 1.2582 0 0.495)">
	</image>
	<path class="st10" d="M589,397.9c0,0,49-65.9,111.3-61.3c62.3,4.6,72.4,98.8,64.7,185.3c-7.7,86.6-144,114-144,114"/>
	<path class="st11" d="M667,445.2c0,0,24-2.7,29.3,27.3c5.3,30-28.7,34-78,95.3c-74,92.1-86,451.3-86,451.3l-48-10.7
		c0,0,22.7-216.7-45.3-366.7c-10.1-21.4-50.4-110.1-130.7-112.7c-99.3-3.1-210.7,77.3-210.7,77.3L85,603.9
		c0,0,73.3-124.7,151.3-142.7s82.7-6.7,151.3,25.3c0,0,78,26,134.7,24C611,510.6,667,445.2,667,445.2z"/>
	<path class="st12" d="M706,978.6c0,0-1-110,11.7-185s140.3-263,148.7-423c8.3-160-117-272-117-272S627.6,8.6,486,16.9
		S241.6,68.6,203.3,98.6s-80.3,65-92,145s-13.7,95-12,178.3s-87,145.7-85,162.7s95,45.7,95,45.7l-11.7,31.7c0,0,12.3,29,15.7,43.7
		c3.3,14.7-5,18-4,33s18.3,25.7,26.7,43.3c8.3,17.7-11.7,48,13.3,83.3s154.7-6.7,188.3,3.3s10.3,67,11.7,93c1.3,26,200,99.7,280,88
		C709.3,1037.9,706,978.6,706,978.6z"/>
</g>
<g id="lineas">
</g>
</svg>
