<?xml version="1.0" encoding="utf-8"?>
<!-- Generator: Adobe Illustrator 22.0.1, SVG Export Plug-In . SVG Version: 6.00 Build 0)  -->
<svg version="1.1" xmlns="http://www.w3.org/2000/svg" xmlns:xlink="http://www.w3.org/1999/xlink" x="0px" y="0px"
	 viewBox="0 0 1045.6 1080" style="enable-background:new 0 0 1045.6 1080;" xml:space="preserve">
<style type="text/css">
	.st0{fill:#002B54;}
	.st1{fill:#00D9B2;}
	.st2{display:none;}
	.st3{display:inline;fill:#00D9B2;}
	.st4{display:inline;}
	.st5{display:inline;fill:#002B54;}
	.st6{fill:none;}
	.st7{display:inline;fill:#00D9B2;stroke:#00D9B2;stroke-width:8.5039;stroke-miterlimit:10;}
	.st8{display:inline;fill:#002B54;stroke:#002B54;stroke-width:5.6693;stroke-miterlimit:10;}
	.st9{fill:none;stroke:#002B54;stroke-width:25.5118;stroke-miterlimit:10;}
	.st10{fill:none;stroke:#002B54;stroke-width:28.3465;stroke-linecap:round;stroke-linejoin:round;stroke-miterlimit:10;}
	.st11{fill:#00D9B2;stroke:#00D9B2;stroke-width:8.5039;stroke-miterlimit:10;}
	.st12{fill:none;stroke:#002B54;stroke-width:34.0157;stroke-linecap:round;stroke-linejoin:round;stroke-miterlimit:10;}
</style>
<g id="MEDICINA_INTERNA">
	<path class="st0" d="M-2568.2,649.1c63.2-6.7,124.6-39.9,177.7-98c8.4-10,10-20,8.4-31.6c71.4-86.4,114.5-204.3,114.5-295.7
		c0-141.2-66.4-156.1-179.3-179.4v-1.6c-8.4-13.3-21.7-21.6-38.2-21.6c-23.2,0-41.5,18.3-41.5,39.9c0,21.6,18.3,39.8,41.5,39.8
		c10,0,18.3-3.3,25-10l1.6,1.7c109.6,23.3,137.9,28.3,137.9,131.2c0,79.8-39.8,187.7-103,265.8c-10,0-19.9,3.3-28.3,11.6
		c-31.5,34.9-83,76.4-142.8,76.4c-61.5,0-111.2-41.5-142.8-74.7c-8.4-8.3-18.3-13.3-28.3-13.3c-63-78.1-104.6-186-104.6-265.8
		c0-102.9,29.9-107.9,139.5-131.2V91c6.7,6.6,16.6,10,26.6,10c23.3,0,41.5-18.3,41.5-39.8c0-21.6-18.3-39.9-41.5-39.9
		c-18.2,0-31.5,8.3-38.2,21.6h-1.6c-111.2,24.9-179.3,38.2-179.3,181c0,91.4,43.1,209.3,116.1,297.3c-1.6,10,0,21.6,8.4,29.9
		c53.1,56.5,113,89.7,174.4,98l-1.7,179.3c0,122.9-107.9,222.6-239.2,222.6c-131.1,0-237.5-99.7-237.5-222.6V670.7
		c76.5-11.6,134.6-71.4,134.6-146.2c0-83.1-73.1-149.5-162.8-149.5c-88,0-161,66.4-161,149.5c0,74.8,59.7,134.5,134.5,146.2v157.8
		c0,149.5,131.3,270.8,292.3,270.8c162.9,0,294-121.2,294-270.8V649.1H-2568.2z"/>
	<path class="st1" d="M-2979.4,656L-2979.4,656c42.6,0,77.1,32.8,77.1,73.8c0,41-34.5,75.5-77.1,75.5c-44.3,0-77.1-34.4-77.1-75.5
		C-3056.5,688.8-3023.7,656-2979.4,656"/>
</g>
<g id="CIRUGÍA_GENERAL" class="st2">
	<path class="st3" d="M-885.8,271.8l-56.1,56.1c0,0-180.7,302.3-180.7,302.3l48.6,48.6c0,0,42.6-42.6,103.5-103.5
		C-880.8,485.6-850.3,363.8-885.8,271.8z"/>
	<g class="st4">
		<path class="st1" d="M-1196.7,918l-338.1,378.3c24.7,24.7,64.8,24.7,89.5,0l281-281L-1196.7,918z"/>
		<polygon class="st1" points="-901.2,694.8 -872.5,723.5 -969.7,820.7 -1067,788.3 -904.9,691.1 		"/>
	</g>
	<g class="st4">
		<path class="st1" d="M-1164.3,950.4l-313.4,313.4c-24.7,24.7-50.3,39.2-57.1,32.4c-24.7-24.7-24.7-64.8,0-89.5l281-281
			L-1164.3,950.4z"/>
		<polygon class="st1" points="-904.9,691.1 -1034.6,820.7 -1059.3,731.2 -962,634 		"/>
	</g>
	<polygon class="st3" points="-969.7,820.7 -1018.4,869.4 -1083.2,837 -1002.2,788.3 	"/>
	<polygon class="st3" points="-1002.2,788.3 -1067,853.2 -1107.9,779.8 -1059.3,731.2 	"/>
	<path class="st3" d="M-881,715l-23.9-23.9L-962,634l306.1-306.1c9.3,64-14.3,136-77.1,198.7C-795.8,589.3-881,715-881,715z"/>
	<polygon class="st3" points="-1018.4,869.4 -1067,918 -1131.8,885.6 -1050.8,837 	"/>
	<g class="st4">
		<polygon class="st1" points="-1177,922 -1225.6,970.6 -1290.5,938.2 -1209.4,889.6 		"/>
		<polygon class="st1" points="-1160.8,841 -1225.6,905.8 -1266.5,832.5 -1217.9,783.8 		"/>
	</g>
	<polygon class="st3" points="-1209.4,889.6 -1274.3,954.4 -1315.2,881.1 -1266.5,832.5 	"/>
	<polygon class="st3" points="-1225.6,970.6 -1274.3,1019.3 -1306.7,986.8 -1298.6,946.3 -1258,938.2 	"/>
	
		<rect x="-1345.3" y="893.6" transform="matrix(0.7071 -0.7071 0.7071 0.7071 -1044.3763 -653.397)" class="st3" width="68.8" height="80.8"/>
	<path class="st5" d="M-583.8,265.6c-2.1-5.4-6.8-9.4-12.5-10.6c-5.7-1.2-11.6,0.5-15.7,4.7l-362.2,362.2l-572.8,572.8
		c-31.4,31.4-31.4,82.5,0,113.8c15.2,15.2,35.4,23.6,56.9,23.6c0,0,0,0,0,0c21.5,0,41.7-8.4,56.9-23.6l572.8-572.8
		c6.2-6.2,6.7-15.9,1.4-22.7l40.1-40.1l18.9,18.3c6.7,6.5,17.5,6.4,24.1-0.2l103.5-103.5C-580.5,495.6-544.9,366.3-583.8,265.6z
		 M-1018.4,845l-65.2-65.2l24.3-24.3l65.2,65.2L-1018.4,845z M-1067,893.7l-65.2-65.2l24.3-24.3l65.2,65.2L-1067,893.7z
		 M-1115.6,942.3l-65.2-65.2l24.3-24.3l65.2,65.2L-1115.6,942.3z M-1164.2,990.9l-65.2-65.2l24.3-24.3l65.2,65.2L-1164.2,990.9z
		 M-1457.4,1284.1c-8.7,8.7-20.3,13.5-32.6,13.5c-12.3,0-23.9-4.8-32.6-13.5c-18-18-18-47.2,0-65.2l268.8-268.8l65.2,65.2
		L-1457.4,1284.1z M-969.7,796.4l-65.2-65.2l72.9-72.9l65.2,65.2L-969.7,796.4z M-696.5,563l-91.6,91.6l-18.9-18.3
		c-6.7-6.5-17.5-6.4-24.1,0.2l-51.9,51.9l-54.6-54.6l265.5-265.5c-4.9,50.2-31.3,104.3-72.9,145.9l-54.9,54.9
		c-6.7,6.7-6.7,17.6,0,24.3c3.4,3.4,7.8,5,12.2,5c4.4,0,8.8-1.7,12.2-5l54.9-54.9c58.3-58.3,89.6-135.9,83-204.6l30-30
		C-588.5,387.9-622.2,488.7-696.5,563z"/>
</g>
<g id="__x0D_GINECOLOGÍA_Y_OBSTETRICIA" class="st2">
	<path class="st3" d="M-890.2,537.1c0,0-25.2-28-30.9-30.9c-5.6-2.8-100.9-36.4-100.9-36.4h-70.1l-70.1,15.4l-50.5,35l-9.8,47.2
		l19.7,49c0,0,22.4,69.2,21,73.4c-1.4,4.1,51.9,73.4,51.9,73.4l-11.2,43c0,0-29.4,120.6-30.9,127.6c-1.4,7,65.9,161.2,65.9,161.2
		h98.1l42.1-107.9l16.8-133.2l-15.4-127.6l50.5-68.7L-890.2,537.1z"/>
	<path class="st5" d="M-523,573.4c-7.5-27.8-24.7-48.9-51.2-62.7c-43.7-22.8-112.7-24.7-205-5.8c-39,8-73.7,18.1-96.2,25.1
		c-1-2.3-2.1-4.5-3.4-6.8c-15.1-27.6-45.9-50.3-88.9-65.5c-36.1-12.7-72.1-17.3-92-17.3s-55.9,4.5-92,17.3
		c-43,15.2-73.7,37.9-88.9,65.5c-1.2,2.3-2.3,4.5-3.4,6.8c-22.4-7.1-57.1-17.1-96.2-25.1c-92.3-18.9-161.3-17-205,5.8
		c-26.5,13.8-43.7,34.9-51.2,62.7c-16.5,61.6,84.9,117.5,157.2,139.9c33.9,10.5,65.7,15.9,94.9,15.9c9,0,17.8-0.5,26.3-1.5
		c30-3.6,56.7-13.4,79.6-29.1c12.3-8.5,22.1-17.9,29.9-26.8c24.4,46.8,42.4,97.6,42.3,109.9c-1.3,7.8-5.7,17.9-10.4,28.7
		c-10.7,24.5-24,55.1-16.7,91.6c19.2,94.5,62.5,196.2,64.3,200.5l5.8,13.6h127l5.8-13.6c1.8-4.3,45.1-106,64.3-200.5
		c7.4-36.4-5.9-67-16.7-91.5c-4.7-10.7-9.1-20.8-10.4-28.7c-0.1-12.4,17.8-63.1,42.3-109.9c7.7,8.9,17.5,18.3,29.9,26.8
		c22.8,15.7,49.6,25.5,79.6,29.1c8.5,1,17.3,1.5,26.3,1.5c29.2,0,61-5.3,94.9-15.9C-608,690.9-506.5,635.1-523,573.4z
		 M-1059.9,717.7c-12.6-36.7-30.2-69.1-52.5-96.7c-0.6-0.7-1.2-1.3-1.7-2c20.6,2.9,40.9,4.3,61,4.3c15.6,0,31.1-0.9,46.2-2.6
		c-0.1,0.1-0.2,0.2-0.3,0.3C-1029.5,648.5-1047.2,681-1059.9,717.7z M-1059.6,485.3c39.1,0,119.8,19.9,141.5,59.5
		c0.9,1.5,1.6,3.1,2.2,4.7c-58.7,27.1-125,35.3-197.3,24.2c-44.1-6.8-77.5-19.2-90.1-24.3c0.7-1.5,1.4-3.1,2.2-4.6
		C-1179.4,505.2-1098.7,485.3-1059.6,485.3z M-1263.8,661.7c-38.7,26.7-94.7,29.8-161.9,8.9c-34.5-10.7-69.9-27.9-94.9-45.8
		c-24.7-17.8-34.1-33.1-32.3-39.7c4.1-15.3,13.4-26.6,28.6-34.5c63.5-33.1,204.5,1.9,273.1,24.2c1.7,20.3,9.4,39.3,18.4,55.1
		C-1238.5,638.6-1248.3,651-1263.8,661.7z M-1135.5,828.3c5.9-13.6,11.6-26.5,13.7-40.2c0.8-5.3,3.3-21.3-20.1-78.9
		c-14.1-34.7-31.6-69.5-48.2-95.3c-1.9-3.1-3.7-6-5.3-9c14.8,9.8,33.1,25,49.9,46.4c20.9,26.6,37,58.7,47.8,95.4
		c8.1,27.5,13.1,57.6,15.2,90c-1.4,23.6-1.4,48.1,0.1,73.7v59.2c-14,1.5-28.8,4.8-43.6,10.7c-8.8-27.8-17.4-58.2-23.3-87.4
		C-1153.8,870.5-1144.5,849-1135.5,828.3z M-1093.3,1071.2c-4.4-10.9-11-27.8-18.2-48.2c21.9-9.3,46.1-11.7,72.3-7.1
		c12.8,2.3,23.6,5.8,30.9,8.7c-7.1,19.6-13.4,35.9-17.7,46.5L-1093.3,1071.2L-1093.3,1071.2z M-997.5,788.2
		c2.1,13.6,7.8,26.5,13.7,40.2c9,20.7,18.4,42.1,13.8,64.7c-6,29.8-14.8,60.9-23.9,89.1c-10.8-4.1-25.8-8.7-43.6-11.3v-61.5h0
		c1.4-25.1,1.4-49.3,0-72.4c2.1-32.5,7.2-62.6,15.3-90.1c10.8-36.7,26.9-68.8,47.9-95.3c17-21.5,35.4-36.7,50.3-46.6
		c-1.6,3-3.4,6-5.4,9.1c-16.5,25.8-34.1,60.6-48.2,95.3C-983.2,723.5-1000.8,766.9-997.5,788.2z M-598.7,624.7
		c-24.9,17.9-60.4,35.1-94.9,45.8c-67,20.9-120.8,18.3-160-7.6c-16.5-10.9-26.9-24-32.9-33.3c9-15.7,16.7-34.7,18.4-55
		c68.5-22.3,209.5-57.3,273-24.2c15.1,7.9,24.5,19.2,28.6,34.5C-564.6,591.6-573.9,606.9-598.7,624.7z"/>
	<g class="st4">
		<path class="st1" d="M-651.7,675c-5.5-26.9-43.2-42.1-84.2-33.9c-41,8.2-69.8,36.7-64.3,63.6c5.5,26.9,43.2,42.1,84.2,33.9
			C-674.9,730.4-646.1,701.9-651.7,675z"/>
		<path class="st1" d="M-738.1,763.3L-738.1,763.3c-43.7,0-77.5-21.7-84.1-54.1c-3.2-15.5,0.3-31.4,10-46
			c14.2-21.4,41.1-37.9,71.9-44c8.8-1.8,17.8-2.7,26.5-2.7c43.7,0,77.5,21.7,84.1,54c3.2,15.5-0.3,31.4-10,46
			c-14.2,21.4-41.1,37.9-71.9,44C-720.4,762.3-729.3,763.3-738.1,763.3z M-713.8,661.3c-5.8,0-11.8,0.6-17.7,1.8
			c-22.8,4.6-37.4,15.8-43.3,24.8c-2.1,3.1-4.3,7.8-3.4,12.3c2.3,11.4,22.2,18.1,40.2,18.1l0,0c5.8,0,11.8-0.6,17.7-1.8
			c22.8-4.6,37.4-15.8,43.3-24.9c2.1-3.1,4.3-7.7,3.4-12.2C-675.9,668.1-695.8,661.3-713.8,661.3z"/>
		<path class="st1" d="M-1467.6,675c5.5-26.9,43.2-42.1,84.2-33.9c41,8.2,69.8,36.7,64.3,63.6c-5.5,26.9-43.2,42.1-84.3,33.9
			C-1444.3,730.4-1473.1,701.9-1467.6,675z"/>
		<path class="st1" d="M-1381.2,763.3c-8.7,0-17.7-0.9-26.5-2.7c-30.8-6.1-57.7-22.6-71.9-44c-9.7-14.6-13.1-30.5-10-46
			c6.6-32.3,40.4-54,84.1-54c8.7,0,17.7,0.9,26.5,2.7c30.8,6.2,57.7,22.6,71.9,44c9.7,14.6,13.1,30.5,10,46
			C-1303.7,741.5-1337.5,763.3-1381.2,763.3z M-1405.5,661.3c-17.9,0-37.8,6.8-40.2,18.2c-0.9,4.5,1.3,9.1,3.4,12.2
			c6,9,20.5,20.3,43.3,24.9c5.9,1.2,11.9,1.8,17.7,1.8c17.9,0,37.8-6.8,40.2-18.1c0.9-4.5-1.3-9.1-3.4-12.3
			c-6-9-20.5-20.3-43.3-24.8C-1393.7,661.9-1399.7,661.3-1405.5,661.3z"/>
	</g>
</g>
<g id="PEDIATRÍA" class="st2">
	<g id="XMLID_38_" class="st4">
		<path id="XMLID_52_" class="st0" d="M-1245.5,1318.4L-1245.5,1318.4c-181.7,0-329-147.3-329-329v-423c0-181.7,147.3-329,329-329
			l0,0c181.7,0,329,147.3,329,329v423C-916.5,1171.1-1063.8,1318.4-1245.5,1318.4z"/>
		<path id="XMLID_51_" class="st0" d="M-920.2,566.4v423c0,181.7-147.3,329-329,329l0,0v-94h3.6V237.5
			C-1065.5,239.4-920.2,385.9-920.2,566.4z"/>
		<path id="XMLID_50_" class="st0" d="M-916.5,566.4v423c0,181.7-147.3,329-329,329l0,0l0,0c-181.7,0-329-147.3-329-329v-423
			c0-79.7,28.4-152.9,75.6-209.8l253.4,253.4l253.4-253.4C-944.9,413.5-916.5,486.7-916.5,566.4z"/>
		<path id="XMLID_49_" class="st0" d="M-916.5,566.4v423c0,181.7-147.3,329-329,329l0,0v-298.4V700.6V610l253.4-253.4
			C-944.9,413.5-916.5,486.7-916.5,566.4z"/>
		<path id="XMLID_48_" class="st1" d="M-1386.4,559.8c3.5-74.8,65.2-134.4,140.8-134.4c75.6,0,137.4,59.6,140.8,134.4h0.2v147.6
			h-282V559.8L-1386.4,559.8L-1386.4,559.8z"/>
		<path id="XMLID_47_" class="st1" d="M-1245.5,425.4v282h-140.8V559.8C-1382.9,485-1321.2,425.4-1245.5,425.4z"/>
		<path id="XMLID_46_" class="st1" d="M-1245.5,610l119.1-119.1c12.8,20.1,20.6,43.6,21.8,68.8h0.2v147.6h-282V559.8h0.2
			c1.2-25.3,9-48.8,21.8-68.8L-1245.5,610z"/>
		<path id="XMLID_45_" class="st1" d="M-1104.7,707.4h-140.8V610l119.1-119.1c12.8,20.1,20.6,43.6,21.8,68.8L-1104.7,707.4
			L-1104.7,707.4z"/>
		<path id="XMLID_44_" class="st0" d="M-916.5,566.4v423c0,181.7-147.3,329-329,329l0,0l0,0c-181.7,0-329-147.3-329-329v-423
			c0-56.3,14.2-109.3,39.1-155.7l289.9,289.9l289.9-289.9C-930.7,457.1-916.5,510.1-916.5,566.4z"/>
		<path id="XMLID_43_" class="st0" d="M-1245.5,700.6v617.8l0,0c-181.7,0-329-147.3-329-329v-423c0-56.3,14.2-109.3,39.1-155.7
			L-1245.5,700.6z"/>
		<path id="XMLID_42_" class="st0" d="M-1057.5,512.6v453.3c0,77.9-63.1,141-141,141h-47h-47c-77.9,0-141-63.1-141-141V512.6
			l188,188L-1057.5,512.6z"/>
		<path id="XMLID_41_" class="st0" d="M-1433.5,512.6l188,188v406.3h-47c-77.9,0-141-63.1-141-141V512.6z"/>
		<path id="XMLID_40_" class="st1" d="M-1139.8,883.6c0,19.5-15.8,35.2-35.2,35.2h-35.2v35.2c0,19.5-15.8,35.2-35.2,35.2
			s-35.2-15.8-35.2-35.2v-35.2h-35.2c-19.5,0-35.2-15.8-35.2-35.2s15.8-35.2,35.2-35.2h35.2v-35.2c0-19.5,15.8-35.2,35.2-35.2
			s35.2,15.8,35.2,35.2v35.2h35.2C-1155.6,848.4-1139.8,864.2-1139.8,883.6z"/>
		<path id="XMLID_39_" class="st1" d="M-1280.8,919.4v-0.5h-35.2c-19.5,0-35.2-15.8-35.2-35.2s15.8-35.2,35.2-35.2h35.2v-35.2
			c0-19.5,15.8-35.2,35.2-35.2s35.2,15.8,35.2,35.2v35.2h0.5L-1280.8,919.4z"/>
	</g>
</g>
<g id="ORTOPEDIA" class="st2">
	<g class="st4">
		<g>
			<path class="st0" d="M-855.1,351.9l-60.6-85.5c-19.3-27.2-57.1-33.7-84.3-14.4l-51.2,36.3c-66.6,47.1-145,71.2-226.8,69.7
				c-27-0.4-53.1,7.5-75.2,23.2c0,0,0,0,0,0c-27.5,19.5-45.8,48.5-51.4,81.7c-1.6,9.2-2.1,18.4-1.7,27.5
				c-95.5,21-167.4,108.3-167.4,212.6c0,40.2,10.7,77.9,29.3,110.2c-18.3,21.9-29.3,50-29.3,80.7c0,27.1,8.5,53,24.6,74.8
				c47.9,64.9,74.2,144.9,74.2,225.3v62.8c0,33.4,27.1,60.5,60.5,60.5h104.8c33.4,0,60.5-27.1,60.5-60.5v-62.8
				c0-81.6,25.7-159.5,74.2-225.3c16.1-21.8,24.6-47.7,24.6-74.8c0-30.7-11-58.8-29.3-80.7c11.6-20.2,20.2-42.5,25-66.2
				c16.4-3.6,32.1-10.4,46.1-20.3c22.2-15.7,38.3-37.6,46.8-63.3c25.3-76.6,75.4-144.4,141-190.8l51.2-36.3
				C-842.3,417-835.9,379.2-855.1,351.9z M-1392.7,541.6c2.7,5.3,5.8,10.5,9.4,15.4c18.5,26.1,46.2,43.9,76.8,50.4
				c-4,31,3.6,63.1,22.1,89.2c18.2,25.7,44.8,43.3,75.3,50.2c-3.1,11.7-7.5,22.9-12.9,33.4c-16.5-7.9-35-12.4-54.5-12.4
				c-31.9,0-62.5,12.3-85.5,33.5c-23-21.2-53.6-33.5-85.5-33.5c-19.5,0-38,4.5-54.5,12.4c-11.9-23-18.6-49.3-18.6-77.2
				C-1520.7,623.2-1465.5,556.5-1392.7,541.6z M-1217.6,937.3c-55.3,75-84.6,163.8-84.6,256.8v62.8c0,4.1-3.4,7.5-7.5,7.5h-104.8
				c-4.1,0-7.5-3.4-7.5-7.5v-62.8c0-91.6-30-182.8-84.6-256.8c-9.3-12.6-14.2-27.6-14.2-43.3c0-40.3,32.8-73.1,73.1-73.1
				c26,0,49.4,13.3,62.8,35.6c4.8,8,13.4,12.9,22.7,12.9s17.9-4.9,22.7-12.9c13.4-22.3,36.8-35.6,62.8-35.6
				c40.3,0,73.1,32.8,73.1,73.1C-1203.4,909.7-1208.3,924.7-1217.6,937.3z M-900.2,393l-51.2,36.3c-74.8,53-131.8,130.2-160.7,217.5
				c-4.9,14.9-14.3,27.5-27.1,36.6c-15.9,11.3-35.3,15.7-54.6,12.4c-19.3-3.3-36.1-13.9-47.4-29.8c-15-21.2-17.7-48-7.2-71.8
				c3.8-8.5,2.8-18.4-2.6-26c-5-7-13.1-11.2-21.6-11.2c-0.7,0-1.3,0-2,0.1c-25.9,2-50.4-9.5-65.4-30.6
				c-23.3-32.9-15.5-78.6,17.4-102c12.8-9.1,27.8-13.8,43.6-13.4c93.2,1.8,182.6-25.7,258.5-79.4l51.2-36.3c3.4-2.4,8-1.6,10.4,1.8
				l60.6,85.5C-896,385.9-896.8,390.6-900.2,393z"/>
		</g>
		<g>
			<path class="st0" d="M-1263.3,429.6c-34.3,0-62.2,27.9-62.2,62.2c0,14.6,11.9,26.5,26.5,26.5s26.5-11.9,26.5-26.5
				c0-5.1,4.1-9.2,9.2-9.2c14.6,0,26.5-11.9,26.5-26.5S-1248.7,429.6-1263.3,429.6z"/>
		</g>
	</g>
</g>
<g id="NEUROLOGÍA" class="st2">
	<g class="st4">
		<path class="st6" d="M-1565.6,32.5c-229.2,3.2-417.4,197.3-405.3,433.1h-0.6v37.9L-2073.4,669h101.9v149.9
			c0,38.1,30.9,68.9,68.9,68.9h188.9v161.5h307.9v-7.1c0-112.1,45-220.3,127-296.8c80.5-75.2,130.8-182.2,130.8-301
			C-1148,214.9-1335.5,29.3-1565.6,32.5z"/>
		<g>
			<path class="st1" d="M-1761.1,322.7c64.3,93.9,140.2,28.5,177.7,49c13,7.1,17,23.9,17,38.7c0,14.8-2.6,30.2,2.6,44
				c11.5,30.8,52.6,36.6,85.3,33.1c34.4-3.7,37.8,5.1,48,34.9c16.5,48.1,48.4,82.1,99.7,81.8c23.6-0.2,44.6-14.8,54-36.5
				c89.1-203.8-62.4-434.9-287.3-431.9C-1685.3,137.6-1831.8,219.5-1761.1,322.7z"/>
			<g>
				<path class="st0" d="M-1566,4.6c-246.4,3.4-442.8,211.2-433,456.4c-0.6,3.5-0.4,4-0.4,34.6l-97.7,158.7
					c-11.4,18.6,2,42.5,23.7,42.5h74v122c0,53.4,43.4,96.8,96.8,96.8h161v133.6c0,15.4,12.5,27.9,27.9,27.9h307.9
					c15.4,0,27.9-12.5,27.9-27.9c0-118.5,45.5-215.8,118.1-283.6c88.8-82.9,139.7-200,139.7-321.4C-1120.1,198.8-1320.6,1-1566,4.6z
					 M-1297.8,724.9c-81.4,76-130,183.1-135.3,296.5h-252.6V887.8c0-15.4-12.5-27.9-27.9-27.9h-188.9c-22.6,0-41-18.4-41-41V669
					c0-15.4-12.5-27.9-27.9-27.9h-51.9c82.2-133.5,79.8-126.6,79.8-137.5v-32.1c2.5-11.5-19.2-166.5,112.9-298.5
					c241.1-240.9,654.8-70.5,654.8,271.2C-1175.9,550.2-1220.3,652.5-1297.8,724.9z"/>
				<path class="st1" d="M-1278.5,260.4c-104.7-160-321.2-201.7-477.4-88.4c-32.8,24-80.9,89.6-28.2,166.5
					c71.2,104,166.3,48.6,186.9,57.5c3.7,5,2.7,19.2,2.5,24.3c-0.5,12.6-1.2,28.2,4.7,44c24.8,66.3,116.7,49.8,126.7,50.5
					c1.8,3.7,4.5,11.4,6.3,16.8c42.6,124.5,171.2,126.3,205.7,47.4C-1205.9,474.9-1216.1,355.8-1278.5,260.4z M-1302.4,556.6
					c-5,11.4-15.8,19.7-29.2,19.7c-33.9,0-58.3-21.2-72.6-62.9c-12.3-36-24.4-59.3-77.3-53.6c-23.5,2.5-51-1.2-56.2-15.1
					c-2.7-7.3-0.9-20.6-0.8-34.2c0-29.2-11.4-52.2-31.4-63.2c-54.4-29.8-113,40.1-168.1-40.3c-33.8-49.3,6.8-83.7,15.1-89.9
					c130.2-94.4,310.5-59.7,397.9,73.8C-1273.1,370.6-1264.6,469.9-1302.4,556.6z"/>
			</g>
		</g>
	</g>
</g>
<g id="PSICOLOGÍA" class="st2">
	<path class="st5" d="M-1618.5,333.9h64.4c3.7,0,13.6,10.3,15.1,29.3l1.7,22.5c18.4,239.8,35.9,467,295.3,493v349h-66.3
		c-25.5,0-46.2,20.7-46.2,46.2c0,25.5,20.7,46.2,46.2,46.2h226.3c25.5,0,46.2-20.7,46.2-46.2c0-25.5-20.7-46.2-46.2-46.2h-67.7
		V879.6c270-20.5,287.6-248.5,306-489.4l2.1-27c1.5-19,11.4-29.3,15.1-29.3h64.5c25.5,0,46.2-20.7,46.2-46.2
		c0-25.5-20.7-46.2-46.2-46.2h-64.5c-56,0-102.1,49.2-107.1,114.4l-2.1,27.1c-19.5,255.5-37.9,387.3-213.9,403.9V333.9h67.7
		c25.5,0,46.2-20.7,46.2-46.2s-20.7-46.2-46.2-46.2h-107.3c-2.2-0.3-4.3-0.7-6.5-0.7c-2.2,0-4.4,0.4-6.5,0.7h-106
		c-25.5,0-46.2,20.7-46.2,46.2s20.7,46.2,46.2,46.2h66.3v451.9c-165.7-21.3-183.9-154.3-203.3-407.2l-1.7-22.5
		c-5.1-65.2-51.1-114.4-107.1-114.4h-64.4c-25.5,0-46.2,20.7-46.2,46.2S-1644,333.9-1618.5,333.9z"/>
</g>
<g id="NUTRICIÓN" class="st2">
	<path id="XMLID_16_" class="st7" d="M-1684.2,976.2c2.3-77.5-39.9-106.9-91.4-126.2C-1792.6,916.5-1745.3,971.9-1684.2,976.2"/>
	<path id="XMLID_11_" class="st7" d="M-1672.5,630c32.9-70.5,5.4-113.9-34.1-152.2C-1748.1,532-1726.8,601.7-1672.5,630"/>
	<path id="XMLID_10_" class="st7" d="M-1654,825.5c-2.3-77.5,39.9-106.9,91.4-126.2C-1545.5,765.9-1592.8,820.9-1654,825.5"/>
	<path id="XMLID_9_" class="st7" d="M-1654,945.2c-2.3-77.5,39.9-106.9,91.4-126.2C-1545.5,885.6-1592.8,940.6-1654,945.2"/>
	<path id="XMLID_8_" class="st7" d="M-1654,705.9c-2.3-77.5,39.9-106.9,91.4-126.2C-1545.5,646.2-1592.8,701.6-1654,705.9"/>
	<path id="XMLID_7_" class="st7" d="M-1684.2,856.9c2.3-77.5-39.9-106.9-91.4-126.2C-1792.6,796.9-1745.3,852.3-1684.2,856.9"/>
	<path id="XMLID_6_" class="st7" d="M-1684.2,737.2c2.3-77.5-39.9-106.9-91.4-126.2C-1792.6,677.6-1745.3,732.6-1684.2,737.2"/>
	<path id="XMLID_5_" class="st8" d="M-1102.9,1322h-415.9l208-360.1L-1102.9,1322z"/>
	<polygon id="XMLID_3_" class="st8" points="-1634.6,1072.9 -753.6,833.2 -766.7,784.8 -1647.7,1024.5 	"/>
	<path id="XMLID_2_" class="st7" d="M-1013,331.3c0,0,6.6,127,117.7,116.2C-895.3,447.8-882.5,341.3-1013,331.3"/>
	<path id="XMLID_1_" class="st7" d="M-896.5,744.9c-11.6,16.7-31,27.1-52.7,27.1c-17.8,0-35.2-8.5-46.9-20.1
		c-24-26.3-55-84.8-55-84.8c-17.4-35.2-26.7-62.7-26.7-90.6c0-58.9,47.6-110,106.9-110c29,0,55.4,11.6,74.7,30.6
		c19.4-19,45.7-30.6,74.7-30.6c59.2,0,106.9,51.1,106.9,110c0,27.5-9.3,55-26.7,90.6c0,0-31,58.5-55,84.8
		c-11.6,11.6-29,20.1-46.9,20.1C-865.5,772-884.8,761.1-896.5,744.9"/>
</g>
<g id="__x0D_DERMATOL" class="st2">
	
		<image style="overflow:visible;" width="225" height="225" xlink:href="../../Landing Page/Unknown.png"  transform="matrix(1 0 0 1 -1564.0973 628.44)">
	</image>
	<path class="st5" d="M-718.5,848.2c-78.4,0-78.4-62.6-157.2-62.6s-78.8,62.6-157.2,62.6s-78.8-62.6-157.2-62.6
		c-78.8,0-78.8,62.6-157.2,62.6c-78.8,0-78.8-71.1-157.2-71.1c-78.8,0-78.8,62.6-157.2,62.6V786c0-86.5,70.3-156.4,157.2-156.4
		h629.1c86.9,0,157.2,69.9,157.2,156.4v62.3H-718.5z"/>
	<path class="st5" d="M-875.7,848.2c-78.8,0-78.8,62.6-157.2,62.6c-5,0-9.2-0.4-13.5-0.8c8.5,19.2,13.5,40.7,13.5,63
		c0,86.5-70.3,156.4-157.2,156.4s-157.2-69.9-157.2-156.4c0-22.7,5-43.8,13.5-63c-4.2,0.4-8.5,0.8-13.5,0.8
		c-78.8,0-78.8-71.1-157.2-71.1c-78.8,0-78.8,62.6-157.2,62.6v258.6c0,86.5,70.3,156.4,157.2,156.4h629.1
		c86.9,0,157.2-69.9,157.2-156.4V910.9C-797.3,910.9-797.3,848.2-875.7,848.2"/>
	<path class="st3" d="M-1489.1,1176.4c0,17.3-14.2,31.1-31.5,31.1c-17.3,0-31.5-13.8-31.5-31.1c0-17.3,14.2-31.1,31.5-31.1
		C-1503.3,1144.9-1489.1,1159.2-1489.1,1176.4 M-1331.9,1176.4c0,17.3-14.2,31.1-31.5,31.1c-17.3,0-31.5-13.8-31.5-31.1
		c0-17.3,14.2-31.1,31.5-31.1C-1346.1,1144.9-1331.9,1159.2-1331.9,1176.4 M-1410.7,1051.5c0,17.3-14.2,31.1-31.5,31.1
		c-17.3,0-31.5-13.8-31.5-31.1s14.2-31.1,31.5-31.1C-1424.5,1020-1410.7,1034.3-1410.7,1051.5 M-915.3,1192.2
		c0,17.3-14.2,31.1-31.5,31.1c-17.3,0-31.5-13.8-31.5-31.1c0-17.3,14.2-31.1,31.5-31.1C-929.1,1160.7-915.3,1174.9-915.3,1192.2
		 M-836.5,1066.9c0,17.3-14.2,31.1-31.5,31.1s-31.5-13.8-31.5-31.1c0-17.3,14.2-31.1,31.5-31.1S-836.5,1049.6-836.5,1066.9"/>
	<path class="st3" d="M-926.1,341.7c-20.8-15.4-50.3-11.1-66.1,9.2l-47.3,62.6c-104.5,138.4-170.2,303.6-191,474.6
		c-31.9,15-54.2,47.3-54.2,84.9c0,51.9,42.3,93.8,94.2,93.8c52.3,0,94.5-41.9,94.5-93.8c0-31.9-16.1-60-40.4-76.9
		c19.2-153.7,78.8-302.1,172.6-426.2l47.3-62.6C-901.1,386.7-905.3,357.5-926.1,341.7"/>
</g>
<g id="NEUMOLOGÍA" class="st2">
	<path class="st5" d="M-1532,481.4c-107.8,141.9-129.9,381.2-135.1,473.4c-1.6,23.9,8.6,47.9,27.3,63.2
		c17.2,13.6,39.4,18.9,59.8,15.4l206.9-29.1c121.3-18.8,95.6-230.8,99.1-314.5c20.5-20.5,44.5-51.3,78.7-83.8
		c35.9,35.9,64.9,66.7,87.2,88.9c3.4,82-23.9,290.6,95.8,309.4l206.8,29.1c20.5,3.4,42.8-1.8,59.8-15.4
		c18.9-15.3,29.1-39.3,27.3-63.2c-3.4-92.3-25.7-331.6-133.3-473.4c-242.7-319.7-264.9-71.8-258,170.9c-27.5-32.4-53-63.3-54.8-64.9
		l1.8-181.2h-58.2l-3.4,181.2c3.4-3.4-22.1,25.7-51.2,58.1C-1268.8,404.5-1292.7,165.1-1532,481.4"/>
</g>
<g id="GASTROENTEROLOGÍA" class="st2">
	<g class="st4">
		<g>
			<path class="st9" d="M-1347.5,110.8c-100.2-118.5-278.7-110.5-371.5,4c-34.6-16.5-59.3-36.4-68.2-55.7
				c-13.4-29.1-44.6-45.5-75.9-39.8l-68.9,12.5c-41.9,7.6-67.3,50.7-53.6,90.8c29.4,85.8,106.6,155.2,218.6,197.3
				c7,31.6,19.1,55.9,31.3,75c-77.6,50.5-90.9,158.5-26.5,226.1c-39.3,33.4-66.9,78.7-78.6,129.3c-117.6,18.7-210.6,98.9-244,235.5
				c-9.6,39.2,16.2,78.4,56,85.2l67.8,11.6c35.7,6.1,69.8-15.8,79.2-51.1c13.6-51,40.7-75.4,86.8-77.2
				C-1543.7,1273.3-870.2,674.7-1347.5,110.8z"/>
		</g>
	</g>
</g>
<g id="__x0D_UROLOGÍA" class="st2">
	<path class="st5" d="M-1433.7,719.3c-15.6,0-28.2-12.6-28.2-28.2V516.6c0-43.3-35.2-78.4-78.4-78.4c-15.6,0-28.2-12.6-28.2-28.2
		s12.6-28.2,28.2-28.2c74.4,0,134.9,60.5,134.9,134.9v174.5C-1405.5,706.7-1418.1,719.3-1433.7,719.3z"/>
	<path class="st3" d="M-1891.2,410c0,129.1,101.6,233.7,226.8,233.7s25.1-165,25.1-233.7c0-60.2,100.2-233.7-25.1-233.7
		S-1891.2,280.9-1891.2,410z"/>
	<g class="st4">
		<path class="st0" d="M-1664.4,671.9c-140.6,0-255.1-117.5-255.1-261.9S-1805,148-1664.4,148c34,0,59.2,10.7,74.8,31.8
			c31.5,42.4,11.2,109.5-6.7,168.6c-7.3,24.1-14.8,49.1-14.8,61.5c0,15.7,8.1,42.8,16,69.1c17,56.6,36.2,120.8,6,161.4
			C-1604.6,661.3-1629.9,671.9-1664.4,671.9z M-1664.4,204.5c-109.5,0-198.6,92.2-198.6,205.5s89.1,205.5,198.6,205.5
			c10.7,0,24.6-1.5,30-8.8c13.3-17.8-3.6-74.2-14.8-111.5c-9.4-31.5-18.4-61.3-18.4-85.3c0-20.8,8-47.2,17.2-77.8
			c11.9-39.4,29.9-99.1,15.4-118.7C-1640.3,206-1653.9,204.5-1664.4,204.5z"/>
		<path class="st0" d="M-1330.7,719.3c-15.6,0-28.2-12.6-28.2-28.2V516.6c0-74.4,60.5-134.9,134.9-134.9c15.6,0,28.2,12.6,28.2,28.2
			s-12.6,28.2-28.2,28.2c-43.3,0-78.4,35.2-78.4,78.4v174.5C-1302.4,706.7-1315.1,719.3-1330.7,719.3z"/>
	</g>
	<path class="st3" d="M-763.2,406c0,129.1-101.6,233.7-226.8,233.7s-25.1-165-25.1-233.7c0-60.2-100.2-233.7,25.1-233.7
		S-763.2,276.9-763.2,406z"/>
	<g class="st4">
		<path class="st0" d="M-990,667.9c-34.4,0-59.7-10.6-75.3-31.5c-30.2-40.6-11-104.7,6-161.4c7.9-26.3,16-53.4,16-69.1
			c0-12.4-7.5-37.4-14.8-61.5c-17.9-59.2-38.1-126.2-6.7-168.6c15.7-21.1,40.8-31.8,74.8-31.8c140.6,0,255.1,117.5,255.1,261.9
			S-849.3,667.9-990,667.9z M-990,200.5c-10.4,0-24,1.6-29.5,9c-14.5,19.6,3.5,79.2,15.4,118.7c9.2,30.6,17.2,57.1,17.2,77.8
			c0,23.9-8.9,53.7-18.4,85.3c-11.2,37.3-28,93.6-14.8,111.5c5.4,7.2,19.3,8.8,30,8.8c109.5,0,198.6-92.2,198.6-205.5
			S-880.5,200.5-990,200.5z"/>
		<path class="st0" d="M-1232.5,1023.8h-79.4c-26.9,0-49.1-20.4-52.1-46.5c-74.6-27.3-118.4-88.4-118.4-166.7
			c0-57.3,22.7-99.3,67.5-124.9c33.9-19.4,80.6-28.8,142.7-28.8s108.8,9.4,142.7,28.8c44.8,25.6,67.5,67.6,67.5,124.9
			c0,78.4-43.8,139.4-118.4,166.7C-1183.4,1003.5-1205.6,1023.8-1232.5,1023.8z M-1307.8,967.4h71.3v-10.8c0-12.8,8.6-24,21-27.3
			c36.3-9.6,97.1-37.8,97.1-118.7c0-48.1-18.3-97.3-153.7-97.3s-153.7,49.2-153.7,97.3c0,80.8,60.8,109.1,97.1,118.7
			c12.4,3.3,21,14.5,21,27.3L-1307.8,967.4L-1307.8,967.4z"/>
	</g>
</g>
<g id="ODONTOLOGÍA" class="st2">
	<g class="st4">
		<g>
			<path class="st0" d="M-1176.8,65.7c-9.6,3.4-12.2,15.7-5,22.9l46,45.9c39.1,39-20,98.2-59.1,59.2c-83.5-83.3-75.6-75.3-77.7-77.8
				c-210.6-163.6-525.7-21.1-534.3,250.8c-2.6,82.4,24.9,162.7,77.4,226.1c37.1,44.7,182.4,394.8,198.5,416.7
				c39.3,53.4,122.7,39.5,142.8-23.8c25.7-80.6,71.9-132.8,117.7-132.8c45.8,0,92,52.1,117.7,132.8c23.4,73.2,122,71.9,147.2,16.3
				c181.9-399.6,170.7-381,194.1-409.2C-595.9,332.8-859.2-48.5-1176.8,65.7z M-1548.3,442.6c22.7,27.4,2.9,68.5-32.2,68.5
				c-58.3,0-120.6-160.8-24-258.8c16.2-16.4,42.7-16.6,59.1-0.4c16.4,16.2,16.6,42.7,0.4,59.1
				C-1579.1,345.7-1580.6,403.5-1548.3,442.6z"/>
		</g>
	</g>
</g>
<g id="OTORRINO" class="st2">
	<g class="st4">
		<g>
			<g>
				<path class="st0" d="M-1163.1,1087L-1163.1,1087V859.7c0-60.7-49.5-110.2-110.2-110.2h-266.6c17.2,22.2-12.8,53.9-11.9,82.9
					c1.8,37.6,50.4,52.1,88,47.1c37.6-5.1,78.5-18,109.3,4.2c19.6,13.6,29,38.5,34.1,61.6c11.9,46.2,15.4,94.8,10.3,142.6h147V1087
					L-1163.1,1087z"/>
				<path class="st0" d="M-739.4,310.6C-760.7,182.6-852.9,66.4-976.1,28C-1055.5,3.1-1140,9.3-1222,22.9
					c-107.6,18-227.2,59-270.8,158.8c-23.1,53-21.3,112.9-25.5,170.1c-4.2,57.2-19.6,119.7-64.9,154.7
					c-20.5,15.4-48.6,29.9-49.5,55.4c-0.9,49.5,100.8,56.3,91.3,105.8c-2.6,13.6-14.5,26.4-21.3,38.5h289.5
					c84.5,0,153.8,69.3,153.8,153.8v227.2l0,0h193.8c-19.1-238.5,5.9-310,21.3-341.6c14.5-28.2,36.7-50.4,57.2-74.4
					C-762.5,572-718,437.8-739.4,310.6z"/>
			</g>
		</g>
	</g>
</g>
<g id="__x0D_CUIDADOS_PALIATIVOS" class="st2">
	<g class="st4">
		<g>
			<g>
				<path class="st1" d="M-989.7,54.2c-50.8-50.8-133.2-50.9-184.2-0.4c-51-50.5-133.3-50.5-184.2,0.4
					c-50.9,50.9-50.9,133.6,0,184.5c2.5,2.5,123.4,122.8,167.9,167.2c9,8.9,23.5,8.9,32.5,0c44.5-44.3,165.5-164.7,167.9-167.2
					C-938.7,187.7-938.7,105.1-989.7,54.2z"/>
			</g>
			<g>
				<path class="st0" d="M-690.6,714.9L-848.1,567c-36.3-34.1-84.3-53.1-134.2-53.1h-307.5c-32.6,0-59,26.4-59,59.1s26.4,59,59,59
					h222.9c20.3,0,36.8,16.4,36.8,36.7s-16.5,36.8-36.8,36.8h-379.7c-8.3,0-16.3-2.8-22.7-7.9l-159.9-125.8
					c-25.6-20.1-62.8-15.8-82.9,9.8c-20.2,25.7-15.7,62.7,9.9,82.9l246,193.6c10.8,8.5,23.7,12.6,36.5,12.6c0,0,0,0,0,0v0h443.3
					c9.6,0,18.8,3.7,25.6,10.4l189.9,184.6c18.4,17.9,45.8,23,69.5,13.1c23.7-10,39.1-33.2,39.1-58.9V808.7
					C-652.3,773.6-666.1,740-690.6,714.9z"/>
			</g>
		</g>
	</g>
</g>
<g id="__x0D_DERMATOLOGÍA" class="st2">
	<g class="st4">
		<path class="st0" d="M-1331.5,179.8c-23.9,0-43.3,19.4-43.3,43.3v174.7c0,6.1-4.9,11-11,11c-6.1,0-11-4.9-11-11V102.6
			c0-23-18.6-41.6-41.6-41.6c-23,0-41.6,18.6-41.6,41.6v300.7c-2.2,7.4-9.7,7.2-9.7,7.2c-8-0.5-9-8.1-9-8.1V50.6
			c0-21.4-17.3-38.7-38.7-38.7c-21.4,0-38.7,17.3-38.7,38.7V398c0,5.3-4.3,9.6-9.6,9.6s-9.6-4.3-9.6-9.6V134
			c0-21.2-17.2-38.4-38.4-38.4h0c-21.2,0-38.4,17.2-38.4,38.4v441l-16.6-13.5c-21.7-17.8-38.3-41.1-47.9-67.5l-31-85.4
			c-5.2-14.2-18.6-23.6-33.7-23.6c-21.5,0-38.2,18.8-35.6,40.2l15.7,128.5c8.7,71.3,39.1,138.2,87,191.8l14.2,15.9
			c30.8,34.4,47.9,79,47.9,125.2v197.4h331.3l2.6-216.1c0.5-45.4,10.5-90.3,29.3-131.7c13.7-30.2,20.8-62.9,20.8-96.1V223
			C-1288.3,199.2-1307.7,179.8-1331.5,179.8z"/>
		<path class="st1" d="M-1413.8,529.2c0,14.1-11.4,25.4-25.4,25.4c-14.1,0-25.4-11.4-25.4-25.4c0-14.1,11.4-25.4,25.4-25.4
			C-1425.2,503.8-1413.8,515.2-1413.8,529.2z"/>
		<path class="st1" d="M-1492.4,648c0,10.9-8.9,19.8-19.8,19.8s-19.8-8.9-19.8-19.8c0-10.9,8.9-19.8,19.8-19.8
			S-1492.4,637-1492.4,648z"/>
		<path class="st1" d="M-1383.3,627.3c0,11.4-9.2,20.6-20.6,20.6c-11.4,0-20.6-9.2-20.6-20.6c0-11.4,9.2-20.6,20.6-20.6
			C-1392.5,606.7-1383.3,615.9-1383.3,627.3z"/>
		<circle class="st1" cx="-1383.3" cy="811.2" r="20.6"/>
		<circle class="st1" cx="-1351.9" cy="559.5" r="11.6"/>
		<path class="st1" d="M-1333,466.5c0,6.9-5.6,12.4-12.4,12.4c-6.9,0-12.4-5.6-12.4-12.4c0-6.9,5.6-12.4,12.4-12.4
			C-1338.5,454-1333,459.6-1333,466.5z"/>
		<circle class="st1" cx="-1370.8" cy="722.6" r="17.5"/>
		<path class="st1" d="M-1324.9,648.5c0,7.5-6,13.5-13.5,13.5c-7.5,0-13.5-6-13.5-13.5c0-7.5,6-13.5,13.5-13.5
			C-1330.9,635-1324.9,641-1324.9,648.5z"/>
		<circle class="st1" cx="-1453.4" cy="751.4" r="28.8"/>
		<path class="st1" d="M-1396,886.7c0,11-8.9,19.9-19.9,19.9c-11,0-19.9-8.9-19.9-19.9s8.9-19.9,19.9-19.9
			C-1404.9,866.8-1396,875.7-1396,886.7z"/>
	</g>
</g>
<g id="Otorhinolaryngology">
	
		<image style="display:none;overflow:visible;" width="701" height="854" xlink:href="toppng.com-ear-nose-throat-section-svg-icon-free-ear-nose-throat-icon-804x980.png"  transform="matrix(1.2582 0 0 1.2582 -809 0.495)">
	</image>
	<path class="st10" d="M-429.9,394.6c0,0,49-65.9,111.3-61.3c62.3,4.6,72.4,98.8,64.7,185.3s-144,114-144,114"/>
	<path class="st11" d="M-360.1,448.5c0,0,24-2.7,29.3,27.3s-28.7,34-78,95.3c-74,92.1-86,451.3-86,451.3l-48-10.7
		c0,0,22.7-216.7-45.3-366.7c-10.1-21.4-50.4-110.1-130.7-112.7c-99.3-3.1-210.7,77.3-210.7,77.3l-12.7-2.7
		c0,0,73.3-124.7,151.3-142.7s82.7-6.7,151.3,25.3c0,0,78,26,134.7,24C-416.1,513.9-360.1,448.5-360.1,448.5z"/>
	<path class="st12" d="M-321.1,986.8c0,0-1-110,11.7-185c12.7-75,140.3-263,148.7-423s-117-272-117-272s-121.7-90-263.3-81.7
		s-244.3,51.7-282.7,81.7c-38.3,30-80.3,65-92,145c-11.7,80-13.7,95-12,178.3c1.7,83.3-87,145.7-85,162.7s95,45.7,95,45.7
		l-11.7,31.7c0,0,12.3,29,15.7,43.7c3.3,14.7-5,18-4,33s18.3,25.7,26.7,43.3c8.3,17.7-11.7,48,13.3,83.3s154.7-6.7,188.3,3.3
		c33.7,10,10.3,67,11.7,93c1.3,26,200,99.7,280,88C-317.7,1046.1-321.1,986.8-321.1,986.8z"/>
</g>
<g id="Pediatría">
	<g>
		<g>
			<path class="st0" d="M972.5,514.3c-46.9-209.4-235.2-360.5-450.8-360.5c-6.8,0-13.6,0.6-20.3,0.9c7.3-13.3,30.7-45,96.6-66.5
				c10.3-3.4,16-14.4,12.6-24.8c-3.4-10.3-14.4-16-24.8-12.6c-50.9,16.6-81.5,39.7-99.8,59.4C467.1,69.3,425.1,21,330.3,2.5
				c-10.7-2.1-21,4.9-23.1,15.5s4.9,21,15.5,23.1c106.7,20.8,131.7,83.2,137.4,114.2c0,1,0.1,2,0.2,2.9
				c-189.2,25.5-347.2,166.7-389.6,356c-43.5,29-70.2,78.4-70.2,131c0,61.5,36.8,118,92.4,143.3c70,173.3,241.1,289.2,428.6,289.2
				s358.6-115.9,428.6-289.2c55.6-25.3,92.4-81.8,92.4-143.3C1042.6,592.7,1016,543.3,972.5,514.3z M927.9,755.3
				c-5.2,2-9.3,6.1-11.3,11.3c-62.1,162.6-220.9,271.8-395,271.8s-332.8-109.2-395-271.8c-2-5.2-6.1-9.3-11.3-11.3
				C70.3,737.9,40,693.6,40,645.2c0-41.7,22.3-80.7,58.3-101.8c4.8-2.8,8.2-7.5,9.3-13c40-195.5,214.2-337.4,414.1-337.4
				s374,141.9,414.1,337.4c1.1,5.5,4.5,10.2,9.3,13c36,21.1,58.3,60.1,58.3,101.8C1003.3,693.6,973,737.9,927.9,755.3z"/>
			<path class="st0" d="M511.8,684.6c-52.9,0-176.9,0-176.9,121.4c0,100.5,81,185.4,176.9,185.4s176.9-84.9,176.9-185.4
				C688.8,684.6,564.8,684.6,511.8,684.6z M511.8,952c-73.3,0-137.6-68.3-137.6-146.1c0-59.8,37.3-82.1,137.6-82.1
				s137.6,22.2,137.6,82.1C649.4,883.7,585.1,952,511.8,952z"/>
			<path class="st0" d="M511.8,763.2c-43.4,0-78.6,35.3-78.6,78.6s35.3,78.6,78.6,78.6s78.6-35.3,78.6-78.6S555.2,763.2,511.8,763.2
				z M511.8,881.1c-21.7,0-39.3-17.6-39.3-39.3s17.6-39.3,39.3-39.3s39.3,17.6,39.3,39.3S533.5,881.1,511.8,881.1z"/>
			<path class="st0" d="M669.1,468.3c-54.2,0-98.3,44.1-98.3,98.3c0,10.9,8.8,19.7,19.7,19.7c10.9,0,19.7-8.8,19.7-19.7
				c0-32.5,26.5-59,59-59c32.5,0,59,26.5,59,59c0,10.9,8.8,19.7,19.7,19.7s19.7-8.8,19.7-19.7C767.4,512.4,723.3,468.3,669.1,468.3z
				"/>
			<path class="st0" d="M433.2,566.6c0,10.9,8.8,19.7,19.7,19.7s19.7-8.8,19.7-19.7c0-54.2-44.1-98.3-98.3-98.3
				s-98.3,44.1-98.3,98.3c0,10.9,8.8,19.7,19.7,19.7c10.9,0,19.7-8.8,19.7-19.7c0-32.5,26.5-59,59-59S433.2,534.1,433.2,566.6z"/>
		</g>
	</g>
</g>
<g id="lineas">
</g>
</svg>
