<?xml version="1.0" encoding="utf-8"?>
<!-- Generator: Adobe Illustrator 22.0.1, SVG Export Plug-In . SVG Version: 6.00 Build 0)  -->
<svg version="1.1" xmlns="http://www.w3.org/2000/svg" xmlns:xlink="http://www.w3.org/1999/xlink" x="0px" y="0px"
	 viewBox="0 0 955.8 1080" style="enable-background:new 0 0 955.8 1080;" xml:space="preserve">
<style type="text/css">
	.st0{fill:#002B54;}
	.st1{fill:#00D9B2;}
	.st2{display:none;}
	.st3{display:inline;fill:#00D9B2;}
	.st4{display:inline;}
	.st5{display:inline;fill:#002B54;}
</style>
<g id="MEDICINA_INTERNA">
	<path class="st0" d="M-575.1,603.2c63.2-6.7,124.6-39.9,177.7-98c8.4-10,10-20,8.4-31.6c71.4-86.4,114.5-204.3,114.5-295.7
		c0-141.2-66.4-156.1-179.3-179.4v-1.6c-8.4-13.3-21.7-21.6-38.2-21.6c-23.2,0-41.5,18.3-41.5,39.9c0,21.6,18.3,39.8,41.5,39.8
		c10,0,18.3-3.3,25-10l1.6,1.7C-355.8,70-327.6,75-327.6,178c0,79.8-39.8,187.7-103,265.8c-10,0-19.9,3.3-28.3,11.6
		c-31.5,34.9-83,76.4-142.8,76.4c-61.5,0-111.2-41.5-142.8-74.7c-8.4-8.3-18.3-13.3-28.3-13.3c-63-78.1-104.6-186-104.6-265.8
		C-877.4,75-847.5,70-737.9,46.8v-1.7c6.7,6.6,16.6,10,26.6,10c23.3,0,41.5-18.3,41.5-39.8c0-21.6-18.3-39.9-41.5-39.9
		c-18.2,0-31.5,8.3-38.2,21.6h-1.6c-111.2,24.9-179.3,38.2-179.3,181c0,91.4,43.1,209.3,116.1,297.3c-1.6,10,0,21.6,8.4,29.9
		c53.1,56.5,113,89.7,174.4,98l-1.7,179.3c0,122.9-107.9,222.6-239.2,222.6c-131.1,0-237.5-99.7-237.5-222.6V624.8
		c76.5-11.6,134.6-71.4,134.6-146.2c0-83.1-73.1-149.5-162.8-149.5c-88,0-161,66.4-161,149.5c0,74.8,59.7,134.5,134.5,146.2v157.8
		c0,149.5,131.3,270.8,292.3,270.8c162.9,0,294-121.2,294-270.8V603.2H-575.1z"/>
	<path class="st1" d="M-914.3,412L-914.3,412c42.6,0,77.1,32.8,77.1,73.8c0,41-34.5,75.5-77.1,75.5c-44.3,0-77.1-34.4-77.1-75.5
		C-991.4,444.8-958.6,412-914.3,412"/>
</g>
<g id="CIRUGÍA_GENERAL" class="st2">
	<path class="st3" d="M1069.3,31.8l-56.1,56.1c0,0-180.7,302.3-180.7,302.3l48.6,48.6c0,0,42.6-42.6,103.5-103.5
		C1074.3,245.7,1104.8,123.8,1069.3,31.8z"/>
	<g class="st4">
		<path class="st1" d="M472.4,678l-338.1,378.3c24.7,24.7,64.8,24.7,89.5,0l281-281L472.4,678z"/>
		<polygon class="st1" points="767.9,454.8 796.6,483.5 699.4,580.8 602.1,548.4 764.2,451.1 		"/>
	</g>
	<g class="st4">
		<path class="st1" d="M504.8,710.5l-313.4,313.4c-24.7,24.7-50.3,39.2-57.1,32.4c-24.7-24.7-24.7-64.8,0-89.5l281-281L504.8,710.5z
			"/>
		<polygon class="st1" points="764.2,451.1 634.5,580.8 609.8,491.3 707.1,394 		"/>
	</g>
	<polygon class="st3" points="699.4,580.8 650.7,629.4 585.9,597 666.9,548.4 	"/>
	<polygon class="st3" points="666.9,548.4 602.1,613.2 561.2,539.9 609.8,491.3 	"/>
	<path class="st3" d="M788.1,475l-23.9-23.9L707.1,394l306.1-306.1c9.3,64-14.3,136-77.1,198.7C873.3,349.4,788.1,475,788.1,475z"/>
	<polygon class="st3" points="650.7,629.4 602.1,678 537.3,645.6 618.3,597 	"/>
	<g class="st4">
		<polygon class="st1" points="602.1,678 553.5,726.7 488.6,694.3 569.7,645.6 		"/>
		<polygon class="st1" points="618.3,597 553.5,661.8 512.6,588.5 561.2,539.9 		"/>
	</g>
	<polygon class="st3" points="569.7,645.6 504.8,710.5 463.9,637.1 512.6,588.5 	"/>
	<polygon class="st3" points="553.5,726.7 504.8,775.3 472.4,742.9 480.5,702.4 521.1,694.3 	"/>
	
		<rect x="433.8" y="649.6" transform="matrix(0.7071 -0.7071 0.7071 0.7071 -350.7878 533.1617)" class="st3" width="68.8" height="80.8"/>
	<path class="st5" d="M1085.3,25.6c-2.1-5.4-6.8-9.4-12.5-10.6c-5.7-1.2-11.6,0.5-15.7,4.7L694.9,381.8L122.2,954.6
		c-31.4,31.4-31.4,82.5,0,113.8c15.2,15.2,35.4,23.6,56.9,23.6c0,0,0,0,0,0c21.5,0,41.7-8.4,56.9-23.6l572.8-572.8
		c6.2-6.2,6.7-15.9,1.4-22.7l40.1-40.1l18.9,18.3c6.7,6.5,17.5,6.4,24.1-0.2l103.5-103.5C1088.6,255.6,1124.2,126.3,1085.3,25.6z
		 M650.7,605.1l-65.2-65.2l24.3-24.3l65.2,65.2L650.7,605.1z M602.1,653.7l-65.2-65.2l24.3-24.3l65.2,65.2L602.1,653.7z
		 M553.5,702.4l-65.2-65.2l24.3-24.3l65.2,65.2L553.5,702.4z M504.9,751l-65.2-65.2l24.3-24.3l65.2,65.2L504.9,751z M211.7,1044.1
		c-8.7,8.7-20.3,13.5-32.6,13.5s-23.9-4.8-32.6-13.5c-18-18-18-47.2,0-65.2l268.8-268.8l65.2,65.2L211.7,1044.1z M699.4,556.5
		l-65.2-65.2l72.9-72.9l65.2,65.2L699.4,556.5z M972.6,323.1L881,414.7L862,396.4c-6.7-6.5-17.5-6.4-24.1,0.2L786,448.6L731.4,394
		l265.5-265.5c-4.9,50.2-31.3,104.3-72.9,145.9L869,329.3c-6.7,6.7-6.7,17.6,0,24.3c3.4,3.4,7.8,5,12.2,5c4.4,0,8.8-1.7,12.2-5
		l54.9-54.9c58.3-58.3,89.6-135.9,83-204.6l30-30C1080.6,148,1046.9,248.7,972.6,323.1z"/>
</g>
<g id="__x0D_GINECOLOGÍA_Y_OBSTETRICIA" class="st2">
	<path class="st3" d="M778.9,297.2c0,0-25.2-28-30.9-30.9c-5.6-2.8-100.9-36.4-100.9-36.4H577l-70.1,15.4l-50.5,35l-9.8,47.2
		l19.7,49c0,0,22.4,69.2,21,73.4c-1.4,4.1,51.9,73.4,51.9,73.4l-11.2,43c0,0-29.4,120.6-30.9,127.6c-1.4,7,65.9,161.2,65.9,161.2
		h98.1l42.1-107.9L720,614l-15.4-127.6l50.5-68.7L778.9,297.2z"/>
	<path class="st5" d="M1146.1,333.5c-7.5-27.8-24.7-48.9-51.2-62.7c-43.7-22.8-112.7-24.7-205-5.8c-39,8-73.7,18.1-96.2,25.1
		c-1-2.3-2.1-4.5-3.4-6.8c-15.1-27.6-45.9-50.3-88.9-65.5c-36.1-12.7-72.1-17.3-92-17.3c-19.9,0-55.9,4.5-92,17.3
		c-43,15.2-73.7,37.9-88.9,65.5c-1.2,2.3-2.3,4.5-3.4,6.8c-22.4-7.1-57.1-17.1-96.2-25.1c-92.3-18.9-161.3-17-205,5.8
		c-26.5,13.8-43.7,34.9-51.2,62.7C56.4,395.1,157.8,450.9,230,473.4c33.9,10.5,65.7,15.9,94.9,15.9c9,0,17.8-0.5,26.3-1.5
		c30-3.6,56.7-13.4,79.6-29.1c12.3-8.5,22.1-17.9,29.9-26.8c24.4,46.8,42.4,97.6,42.3,109.9c-1.3,7.8-5.7,17.9-10.4,28.7
		c-10.7,24.5-24,55.1-16.7,91.6c19.2,94.5,62.5,196.2,64.3,200.5l5.8,13.6h127l5.8-13.6c1.8-4.3,45.1-106,64.3-200.5
		c7.4-36.4-5.9-67-16.7-91.5c-4.7-10.7-9.1-20.8-10.4-28.7c-0.1-12.4,17.8-63.1,42.3-109.9c7.7,8.9,17.5,18.3,29.9,26.8
		c22.8,15.7,49.6,25.5,79.6,29.1c8.5,1,17.3,1.5,26.3,1.5c29.2,0,61-5.3,94.9-15.9C1061.1,450.9,1162.5,395.1,1146.1,333.5z
		 M609.2,477.7C596.7,441,579,408.6,556.8,381c-0.6-0.7-1.2-1.3-1.7-2c20.6,2.9,40.9,4.3,61,4.3c15.6,0,31.1-0.9,46.2-2.6
		c-0.1,0.1-0.2,0.2-0.3,0.3C639.6,408.5,621.9,441,609.2,477.7z M609.5,245.4c39.1,0,119.8,19.9,141.5,59.5c0.9,1.5,1.6,3.1,2.2,4.7
		c-58.7,27.1-125,35.3-197.3,24.2c-44.1-6.8-77.5-19.2-90.1-24.3c0.7-1.5,1.4-3.1,2.2-4.6C489.7,265.3,570.4,245.4,609.5,245.4z
		 M405.3,421.7c-38.7,26.7-94.7,29.8-161.9,8.9c-34.5-10.7-69.9-27.9-94.9-45.8c-24.7-17.8-34.1-33.1-32.3-39.7
		c4.1-15.3,13.4-26.6,28.6-34.5c63.5-33.1,204.5,1.9,273.1,24.2c1.7,20.3,9.4,39.3,18.4,55.1C430.6,398.6,420.8,411,405.3,421.7z
		 M533.6,588.4c5.9-13.6,11.6-26.5,13.7-40.2c0.8-5.3,3.3-21.3-20.1-78.9c-14.1-34.7-31.6-69.5-48.2-95.3c-1.9-3.1-3.7-6-5.3-9
		c14.8,9.8,33.1,25,49.9,46.4c20.9,26.6,37,58.7,47.8,95.4c8.1,27.5,13.1,57.6,15.2,90c-1.4,23.6-1.4,48.1,0.1,73.7v59.2
		c-14,1.5-28.8,4.8-43.6,10.7c-8.8-27.8-17.4-58.2-23.3-87.4C515.3,630.5,524.6,609.1,533.6,588.4z M575.8,831.3
		c-4.4-10.9-11-27.8-18.2-48.2c21.9-9.3,46.1-11.7,72.3-7.1c12.8,2.3,23.6,5.8,30.9,8.7c-7.1,19.6-13.4,35.9-17.7,46.5L575.8,831.3
		L575.8,831.3z M671.6,548.2c2.1,13.6,7.8,26.5,13.7,40.2c9,20.7,18.4,42.1,13.8,64.7c-6,29.8-14.8,60.9-23.9,89.1
		c-10.8-4.1-25.8-8.7-43.6-11.3v-61.5h0c1.4-25.1,1.4-49.3,0-72.4c2.1-32.5,7.2-62.6,15.3-90.1c10.8-36.7,26.9-68.8,47.9-95.3
		c17-21.5,35.4-36.7,50.3-46.6c-1.6,3-3.4,6-5.4,9.1c-16.5,25.8-34.1,60.6-48.2,95.3C685.9,483.6,668.3,527,671.6,548.2z
		 M1070.4,384.8c-24.9,17.9-60.4,35.1-94.9,45.8c-67,20.9-120.8,18.3-160-7.6c-16.5-10.9-26.9-24-32.9-33.3
		c9-15.7,16.7-34.7,18.4-55c68.5-22.3,209.5-57.3,273-24.2c15.1,7.9,24.5,19.2,28.6,34.5C1104.5,351.7,1095.2,367,1070.4,384.8z"/>
	<g class="st4">
		<path class="st1" d="M1017.4,435.1c-5.5-26.9-43.2-42.1-84.2-33.9c-41,8.2-69.8,36.7-64.3,63.6c5.5,26.9,43.2,42.1,84.2,33.9
			C994.2,490.4,1023,462,1017.4,435.1z"/>
		<path class="st1" d="M931,523.3L931,523.3c-43.7,0-77.5-21.7-84.1-54.1c-3.2-15.5,0.3-31.4,10-46c14.2-21.4,41.1-37.9,71.9-44
			c8.8-1.8,17.8-2.7,26.5-2.7c43.7,0,77.5,21.7,84.1,54c3.2,15.5-0.3,31.4-10,46c-14.2,21.4-41.1,37.9-71.9,44
			C948.7,522.4,939.8,523.3,931,523.3z M955.3,421.4c-5.8,0-11.8,0.6-17.7,1.8c-22.8,4.6-37.4,15.8-43.3,24.8
			c-2.1,3.1-4.3,7.8-3.4,12.3c2.3,11.4,22.2,18.1,40.2,18.1l0,0c5.8,0,11.8-0.6,17.7-1.8c22.8-4.6,37.4-15.8,43.3-24.9
			c2.1-3.1,4.3-7.7,3.4-12.2C993.2,428.2,973.2,421.4,955.3,421.4z"/>
		<path class="st1" d="M201.5,435.1c5.5-26.9,43.2-42.1,84.2-33.9c41,8.2,69.8,36.7,64.3,63.6c-5.5,26.9-43.2,42.1-84.3,33.9
			C224.8,490.4,196,462,201.5,435.1z"/>
		<path class="st1" d="M287.9,523.3c-8.7,0-17.7-0.9-26.5-2.7c-30.8-6.1-57.7-22.6-71.9-44c-9.7-14.6-13.1-30.5-10-46
			c6.6-32.3,40.4-54,84.1-54c8.7,0,17.7,0.9,26.5,2.7c30.8,6.2,57.7,22.6,71.9,44c9.7,14.6,13.1,30.5,10,46
			C365.4,501.6,331.6,523.3,287.9,523.3z M263.6,421.4c-17.9,0-37.8,6.8-40.2,18.2c-0.9,4.5,1.3,9.1,3.4,12.2
			c6,9,20.5,20.3,43.3,24.9c5.9,1.2,11.9,1.8,17.7,1.8c17.9,0,37.8-6.8,40.2-18.1c0.9-4.5-1.3-9.1-3.4-12.3
			c-6-9-20.5-20.3-43.3-24.8C275.4,422,269.4,421.4,263.6,421.4z"/>
	</g>
</g>
<g id="PEDIATRÍA" class="st2">
	<g id="XMLID_2972_" class="st4">
		<path id="XMLID_1594_" class="st0" d="M423.6,1078.4L423.6,1078.4c-181.7,0-329-147.3-329-329v-423c0-181.7,147.3-329,329-329l0,0
			c181.7,0,329,147.3,329,329v423C752.5,931.1,605.3,1078.4,423.6,1078.4z"/>
		<path id="XMLID_1647_" class="st0" d="M748.9,326.5v423c0,181.7-147.3,329-329,329l0,0v-94h3.6V-2.5
			C603.6-0.5,748.9,146,748.9,326.5z"/>
		<path id="XMLID_1530_" class="st0" d="M752.5,326.5v423c0,181.7-147.3,329-329,329l0,0l0,0c-181.7,0-329-147.3-329-329v-423
			c0-79.7,28.4-152.9,75.6-209.8L423.6,370L677,116.6C724.2,173.6,752.5,246.7,752.5,326.5z"/>
		<path id="XMLID_1431_" class="st0" d="M752.5,326.5v423c0,181.7-147.3,329-329,329l0,0V780V460.7V370L677,116.6
			C724.2,173.6,752.5,246.7,752.5,326.5z"/>
		<path id="XMLID_1247_" class="st1" d="M282.7,319.8c3.5-74.8,65.2-134.4,140.8-134.4S560.9,245,564.4,319.8h0.2v147.6h-282V319.8
			L282.7,319.8L282.7,319.8z"/>
		<path id="XMLID_1683_" class="st1" d="M423.6,185.5v282H282.7V319.8C286.2,245,347.9,185.5,423.6,185.5z"/>
		<path id="XMLID_1675_" class="st1" d="M423.6,370L542.6,251c12.8,20.1,20.6,43.6,21.8,68.8h0.2v147.6h-282V319.8h0.2
			c1.2-25.3,9-48.8,21.8-68.8L423.6,370z"/>
		<path id="XMLID_1596_" class="st1" d="M564.4,467.4H423.6V370L542.6,251c12.8,20.1,20.6,43.6,21.8,68.8L564.4,467.4L564.4,467.4z"
			/>
		<path id="XMLID_1380_" class="st0" d="M752.5,326.5v423c0,181.7-147.3,329-329,329l0,0l0,0c-181.7,0-329-147.3-329-329v-423
			c0-56.3,14.2-109.3,39.1-155.7l289.9,289.9l289.9-289.9C738.4,217.1,752.5,270.1,752.5,326.5z"/>
		<path id="XMLID_1370_" class="st0" d="M423.6,460.7v617.8l0,0c-181.7,0-329-147.3-329-329v-423c0-56.3,14.2-109.3,39.1-155.7
			L423.6,460.7z"/>
		<path id="XMLID_1358_" class="st0" d="M611.6,272.7v453.3c0,77.9-63.1,141-141,141h-47h-47c-77.9,0-141-63.1-141-141V272.7
			l188,188L611.6,272.7z"/>
		<path id="XMLID_1356_" class="st0" d="M235.6,272.7l188,188v406.3h-47c-77.9,0-141-63.1-141-141V272.7z"/>
		<path id="XMLID_1354_" class="st1" d="M529.3,643.7c0,19.5-15.8,35.2-35.2,35.2h-35.2v35.2c0,19.5-15.8,35.2-35.2,35.2
			s-35.2-15.8-35.2-35.2v-35.2h-35.2c-19.5,0-35.2-15.8-35.2-35.2s15.8-35.2,35.2-35.2h35.2v-35.2c0-19.5,15.8-35.2,35.2-35.2
			s35.2,15.8,35.2,35.2v35.2h35.2C513.5,608.4,529.3,624.2,529.3,643.7z"/>
		<path id="XMLID_1347_" class="st1" d="M388.3,679.5v-0.5h-35.2c-19.5,0-35.2-15.8-35.2-35.2s15.8-35.2,35.2-35.2h35.2v-35.2
			c0-19.5,15.8-35.2,35.2-35.2s35.2,15.8,35.2,35.2v35.2h0.5L388.3,679.5z"/>
	</g>
</g>
<g id="ORTOPEDIA" class="st2">
	<g class="st4">
		<g>
			<path class="st0" d="M814,112l-60.6-85.5c-19.3-27.2-57.1-33.7-84.3-14.4l-51.2,36.3c-66.6,47.1-145,71.2-226.8,69.7
				c-27-0.4-53.1,7.5-75.2,23.2c0,0,0,0,0,0c-27.5,19.5-45.8,48.5-51.4,81.7c-1.6,9.2-2.1,18.4-1.7,27.5
				C167.2,271.4,95.4,358.7,95.4,463c0,40.2,10.7,77.9,29.3,110.2c-18.3,21.9-29.3,50-29.3,80.7c0,27.1,8.5,53,24.6,74.8
				c47.9,64.9,74.2,144.9,74.2,225.3v62.8c0,33.4,27.1,60.5,60.5,60.5h104.8c33.4,0,60.5-27.1,60.5-60.5v-62.8
				c0-81.6,25.7-159.5,74.2-225.3c16.1-21.8,24.6-47.7,24.6-74.8c0-30.7-11-58.8-29.3-80.7c11.6-20.2,20.2-42.5,25-66.2
				c16.4-3.6,32.1-10.4,46.1-20.3c22.2-15.7,38.3-37.6,46.8-63.3c25.3-76.6,75.4-144.4,141-190.8l51.2-36.3
				C826.8,177,833.2,139.2,814,112z M276.4,301.7c2.7,5.3,5.8,10.5,9.4,15.4c18.5,26.1,46.2,43.9,76.8,50.4
				c-4,31,3.6,63.1,22.1,89.2c18.2,25.7,44.8,43.3,75.3,50.2c-3.1,11.7-7.5,22.9-12.9,33.4c-16.5-7.9-35-12.4-54.5-12.4
				c-31.9,0-62.5,12.3-85.5,33.5c-23-21.2-53.6-33.5-85.5-33.5c-19.5,0-38,4.5-54.5,12.4c-11.9-23-18.6-49.3-18.6-77.2
				C148.4,383.2,203.6,316.5,276.4,301.7z M451.5,697.4c-55.3,75-84.6,163.8-84.6,256.8v62.8c0,4.1-3.4,7.5-7.5,7.5H254.7
				c-4.1,0-7.5-3.4-7.5-7.5v-62.8c0-91.6-30-182.8-84.6-256.8c-9.3-12.6-14.2-27.6-14.2-43.3c0-40.3,32.8-73.1,73.1-73.1
				c26,0,49.4,13.3,62.8,35.6c4.8,8,13.4,12.9,22.7,12.9s17.9-4.9,22.7-12.9c13.4-22.3,36.8-35.6,62.8-35.6
				c40.3,0,73.1,32.8,73.1,73.1C465.7,669.8,460.8,684.7,451.5,697.4z M768.9,153l-51.2,36.3c-74.8,53-131.8,130.2-160.7,217.5
				c-4.9,14.9-14.3,27.5-27.1,36.6c-15.9,11.3-35.3,15.7-54.6,12.4c-19.3-3.3-36.1-13.9-47.4-29.8c-15-21.2-17.7-48-7.2-71.8
				c3.8-8.5,2.8-18.4-2.6-26c-5-7-13.1-11.2-21.6-11.2c-0.7,0-1.4,0-2,0.1c-25.9,2-50.4-9.5-65.4-30.6
				c-23.3-32.9-15.5-78.6,17.4-102c12.8-9.1,27.8-13.8,43.6-13.4c93.2,1.8,182.6-25.7,258.5-79.4l51.2-36.3c3.4-2.4,8-1.6,10.4,1.8
				l60.6,85.5C773.1,146,772.3,150.7,768.9,153z"/>
		</g>
		<g>
			<path class="st0" d="M405.8,189.7c-34.3,0-62.2,27.9-62.2,62.2c0,14.6,11.9,26.5,26.5,26.5c14.6,0,26.5-11.9,26.5-26.5
				c0-5.1,4.1-9.2,9.2-9.2c14.6,0,26.5-11.9,26.5-26.5S420.4,189.7,405.8,189.7z"/>
		</g>
	</g>
</g>
<g id="NEUROLOGÍA" class="st2">
	<g class="st4">
		<path class="st1" d="M514.5,30.5C285.3,33.8,97.1,227.9,109.2,463.7h-0.6v37.9L6.7,667h101.9v149.9c0,38.1,30.9,68.9,68.9,68.9
			h188.9v161.5h307.9v-7.1c0-112.1,45-220.3,127-296.8c80.5-75.2,130.8-182.2,130.8-301C932.1,212.9,744.6,27.3,514.5,30.5z"/>
		<g>
			<path class="st0" d="M319,320.7c64.3,93.9,140.2,28.5,177.7,49c13,7.1,17,23.9,17,38.7c0,14.8-2.6,30.2,2.6,44
				c11.5,30.8,52.6,36.6,85.3,33.1c34.4-3.7,37.8,5.1,48,34.9c16.5,48.1,48.4,82.1,99.7,81.8c23.6-0.2,44.6-14.8,54-36.5
				c89.1-203.8-62.4-434.9-287.3-431.9C394.8,135.6,248.3,217.5,319,320.7z"/>
			<g>
				<path class="st0" d="M514.1,2.7C267.6,6.1,71.2,213.9,81.1,459.1c-0.6,3.5-0.4,4-0.4,34.6L-17,652.4
					c-11.4,18.6,2,42.5,23.7,42.5h74v122c0,53.4,43.4,96.8,96.8,96.8h161v133.6c0,15.4,12.5,27.9,27.9,27.9h307.9
					c15.4,0,27.9-12.5,27.9-27.9c0-118.5,45.5-215.8,118.1-283.6c88.8-82.9,139.7-200,139.7-321.4C960,196.9,759.5-0.9,514.1,2.7z
					 M782.3,722.9c-81.4,76-130,183.1-135.3,296.5H394.3V885.8c0-15.4-12.5-27.9-27.9-27.9H177.5c-22.6,0-41-18.4-41-41V667
					c0-15.4-12.5-27.9-27.9-27.9H56.6c82.2-133.5,79.8-126.6,79.8-137.5v-32.1C138.9,458,117.3,303,249.4,171
					c241.1-240.9,654.8-70.5,654.8,271.2C904.2,548.3,859.8,650.6,782.3,722.9z"/>
				<path class="st0" d="M801.6,258.4C696.9,98.4,480.4,56.7,324.2,170c-32.8,24-80.9,89.6-28.2,166.5
					c71.2,104,166.3,48.6,186.9,57.5c3.7,5,2.7,19.2,2.5,24.3c-0.5,12.6-1.2,28.2,4.7,44c24.8,66.3,116.7,49.8,126.7,50.5
					c1.8,3.7,4.5,11.4,6.3,16.8C665.8,654,794.3,655.8,828.8,577C874.2,473,864,353.9,801.6,258.4z M777.7,554.6
					c-5,11.4-15.8,19.7-29.2,19.7c-33.9,0-58.3-21.2-72.6-62.9c-12.3-36-24.4-59.3-77.3-53.6c-23.5,2.5-51-1.2-56.2-15.1
					c-2.7-7.3-0.9-20.6-0.8-34.2c0-29.2-11.4-52.2-31.4-63.2C455.7,315.5,397,385.3,342,305c-33.8-49.3,6.8-83.7,15.1-89.9
					c130.2-94.4,310.5-59.7,397.9,73.8C807,368.6,815.5,467.9,777.7,554.6z"/>
			</g>
		</g>
	</g>
</g>
<g id="PSICOLOGÍA">
	<path class="st0" d="M50.6,94H115c3.7,0,13.6,10.3,15.1,29.3l1.7,22.5c18.4,239.8,35.9,467,295.3,493v349h-66.3
		c-25.5,0-46.2,20.7-46.2,46.2c0,25.5,20.7,46.2,46.2,46.2h226.3c25.5,0,46.2-20.7,46.2-46.2c0-25.5-20.7-46.2-46.2-46.2h-67.7
		V639.6c270-20.5,287.6-248.5,306-489.4l2.1-27c1.5-19,11.4-29.3,15.1-29.3h64.5c25.5,0,46.2-20.7,46.2-46.2S932.6,1.7,907.1,1.7
		h-64.5c-56,0-102.1,49.2-107.1,114.4l-2.1,27.1c-19.5,255.5-37.9,387.3-213.9,403.9V94h67.7c25.5,0,46.2-20.7,46.2-46.2
		S612.6,1.7,587.1,1.7H479.8c-2.2-0.3-4.3-0.7-6.5-0.7c-2.2,0-4.4,0.4-6.5,0.7h-106c-25.5,0-46.2,20.7-46.2,46.2S335.3,94,360.8,94
		h66.3v451.9c-165.7-21.3-183.9-154.3-203.3-407.2l-1.7-22.5C217.1,50.9,171,1.7,115,1.7H50.6C25.1,1.7,4.4,22.3,4.4,47.8
		S25.1,94,50.6,94z"/>
</g>
<g id="lineas">
</g>
</svg>
