<?xml version="1.0" encoding="utf-8"?>
<!-- Generator: Adobe Illustrator 22.0.1, SVG Export Plug-In . SVG Version: 6.00 Build 0)  -->
<svg version="1.1" xmlns="http://www.w3.org/2000/svg" xmlns:xlink="http://www.w3.org/1999/xlink" x="0px" y="0px"
	 viewBox="0 0 1080 883.2" style="enable-background:new 0 0 1080 883.2;" xml:space="preserve">
<style type="text/css">
	.st0{fill:#002B54;}
	.st1{fill:#00D9B2;}
	.st2{display:none;}
	.st3{display:inline;fill:#00D9B2;}
	.st4{display:inline;}
	.st5{display:inline;fill:#002B54;}
	.st6{display:inline;fill:#00D9B2;stroke:#00D9B2;stroke-width:8.5039;stroke-miterlimit:10;}
	.st7{display:inline;fill:#002B54;stroke:#002B54;stroke-width:5.6693;stroke-miterlimit:10;}
	.st8{fill:#00D9B2;stroke:#002B54;stroke-width:25.5118;stroke-miterlimit:10;}
</style>
<g id="MEDICINA_INTERNA">
	<path class="st0" d="M-433.2,700.8c63.2-6.7,124.6-39.9,177.7-98c8.4-10,10-20,8.4-31.6c71.4-86.4,114.5-204.3,114.5-295.7
		c0-141.2-66.4-156.1-179.3-179.4v-1.6c-8.4-13.3-21.7-21.6-38.2-21.6c-23.2,0-41.5,18.3-41.5,39.9c0,21.6,18.3,39.8,41.5,39.8
		c10,0,18.3-3.3,25-10l1.6,1.7c109.6,23.3,137.9,28.3,137.9,131.2c0,79.8-39.8,187.7-103,265.8c-10,0-19.9,3.3-28.3,11.6
		c-31.5,34.9-83,76.4-142.8,76.4c-61.5,0-111.2-41.5-142.8-74.7c-8.4-8.3-18.3-13.3-28.3-13.3c-63-78.1-104.6-186-104.6-265.8
		c0-102.9,29.9-107.9,139.5-131.2v-1.7c6.7,6.6,16.6,10,26.6,10c23.3,0,41.5-18.3,41.5-39.8c0-21.6-18.3-39.9-41.5-39.9
		c-18.2,0-31.5,8.3-38.2,21.6h-1.6c-111.2,24.9-179.3,38.2-179.3,181c0,91.4,43.1,209.3,116.1,297.3c-1.6,10,0,21.6,8.4,29.9
		c53.1,56.5,113,89.7,174.4,98l-1.7,179.3c0,122.9-107.9,222.6-239.2,222.6c-131.1,0-237.5-99.7-237.5-222.6V722.4
		c76.5-11.6,134.6-71.4,134.6-146.2c0-83.1-73.1-149.5-162.8-149.5c-88,0-161,66.4-161,149.5c0,74.8,59.7,134.5,134.5,146.2v157.8
		c0,149.5,131.3,270.8,292.3,270.8c162.9,0,294-121.2,294-270.8V700.8H-433.2z"/>
	<path class="st1" d="M-772.4,509.6L-772.4,509.6c42.6,0,77.1,32.8,77.1,73.8c0,41-34.5,75.5-77.1,75.5c-44.3,0-77.1-34.4-77.1-75.5
		C-849.5,542.4-816.7,509.6-772.4,509.6"/>
</g>
<g id="CIRUGÍA_GENERAL" class="st2">
	<path class="st3" d="M1211.2,129.4l-56.1,56.1c0,0-180.7,302.3-180.7,302.3l48.6,48.6c0,0,42.6-42.6,103.5-103.5
		C1216.2,343.2,1246.7,221.4,1211.2,129.4z"/>
	<g class="st4">
		<path class="st1" d="M614.4,775.6l-338.1,378.3c24.7,24.7,64.8,24.7,89.5,0l281-281L614.4,775.6z"/>
		<polygon class="st1" points="909.8,552.4 938.6,581.1 841.3,678.4 744,645.9 906.1,548.7 		"/>
	</g>
	<g class="st4">
		<path class="st1" d="M646.8,808l-313.4,313.4c-24.7,24.7-50.3,39.2-57.1,32.4c-24.7-24.7-24.7-64.8,0-89.5l281-281L646.8,808z"/>
		<polygon class="st1" points="906.1,548.7 776.5,678.4 751.8,588.8 849,491.6 		"/>
	</g>
	<polygon class="st3" points="841.3,678.4 792.7,727 727.8,694.6 808.9,645.9 	"/>
	<polygon class="st3" points="808.9,645.9 744,710.8 703.1,637.5 751.8,588.8 	"/>
	<path class="st3" d="M930,572.6l-23.9-23.9L849,491.6l306.1-306.1c9.3,64-14.3,136-77.1,198.7C1015.3,446.9,930,572.6,930,572.6z"
		/>
	<polygon class="st3" points="792.7,727 744,775.6 679.2,743.2 760.2,694.6 	"/>
	<g class="st4">
		<polygon class="st1" points="744,775.6 695.4,824.3 630.6,791.8 711.6,743.2 		"/>
		<polygon class="st1" points="760.2,694.6 695.4,759.4 654.5,686.1 703.1,637.5 		"/>
	</g>
	<polygon class="st3" points="711.6,743.2 646.8,808 605.9,734.7 654.5,686.1 	"/>
	<polygon class="st3" points="695.4,824.3 646.8,872.9 614.4,840.5 622.5,799.9 663,791.8 	"/>
	
		<rect x="575.7" y="747.2" transform="matrix(0.7071 -0.7071 0.7071 0.7071 -378.2158 662.106)" class="st3" width="68.8" height="80.8"/>
	<path class="st5" d="M1227.3,123.2c-2.1-5.4-6.8-9.4-12.5-10.6c-5.7-1.2-11.6,0.5-15.7,4.7L836.9,479.4l-572.8,572.8
		c-31.4,31.4-31.4,82.5,0,113.8c15.2,15.2,35.4,23.6,56.9,23.6c0,0,0,0,0,0c21.5,0,41.7-8.4,56.9-23.6l572.8-572.8
		c6.2-6.2,6.7-15.9,1.4-22.7l40.1-40.1l18.9,18.3c6.7,6.5,17.5,6.4,24.1-0.2L1138.8,445C1230.6,353.2,1266.1,223.9,1227.3,123.2z
		 M792.7,702.7l-65.2-65.2l24.3-24.3l65.2,65.2L792.7,702.7z M744.1,751.3l-65.2-65.2l24.3-24.3l65.2,65.2L744.1,751.3z
		 M695.4,799.9l-65.2-65.2l24.3-24.3l65.2,65.2L695.4,799.9z M646.8,848.6l-65.2-65.2l24.3-24.3l65.2,65.2L646.8,848.6z
		 M353.6,1141.7c-8.7,8.7-20.3,13.5-32.6,13.5c-12.3,0-23.9-4.8-32.6-13.5c-18-18-18-47.2,0-65.2l268.8-268.8l65.2,65.2
		L353.6,1141.7z M841.3,654l-65.2-65.2l72.9-72.9l65.2,65.2L841.3,654z M1114.5,420.6l-91.6,91.6L1004,494
		c-6.7-6.5-17.5-6.4-24.1,0.2l-51.9,51.9l-54.6-54.6l265.5-265.5c-4.9,50.2-31.3,104.3-72.9,145.9l-54.9,54.9
		c-6.7,6.7-6.7,17.6,0,24.3c3.4,3.4,7.8,5,12.2,5c4.4,0,8.8-1.7,12.2-5l54.9-54.9c58.3-58.3,89.6-135.9,83-204.6l30-30
		C1222.5,245.6,1188.9,346.3,1114.5,420.6z"/>
</g>
<g id="__x0D_GINECOLOGÍA_Y_OBSTETRICIA" class="st2">
	<path class="st3" d="M920.8,394.8c0,0-25.2-28-30.9-30.9c-5.6-2.8-100.9-36.4-100.9-36.4h-70.1l-70.1,15.4l-50.5,35l-9.8,47.2
		l19.7,49c0,0,22.4,69.2,21,73.4c-1.4,4.1,51.9,73.4,51.9,73.4l-11.2,43c0,0-29.4,120.6-30.9,127.6c-1.4,7,65.9,161.2,65.9,161.2
		H803l42.1-107.9l16.8-133.2L846.5,584l50.5-68.7L920.8,394.8z"/>
	<path class="st5" d="M1288,431c-7.5-27.8-24.7-48.9-51.2-62.7c-43.7-22.8-112.7-24.7-205-5.8c-39,8-73.7,18.1-96.2,25.1
		c-1-2.3-2.1-4.5-3.4-6.8c-15.1-27.6-45.9-50.3-88.9-65.5c-36.1-12.7-72.1-17.3-92-17.3c-19.9,0-55.9,4.5-92,17.3
		c-43,15.2-73.7,37.9-88.9,65.5c-1.2,2.3-2.3,4.5-3.4,6.8c-22.4-7.1-57.1-17.1-96.2-25.1c-92.3-18.9-161.3-17-205,5.8
		c-26.5,13.8-43.7,34.9-51.2,62.7C198.3,492.7,299.8,548.5,372,571c33.9,10.5,65.7,15.9,94.9,15.9c9,0,17.8-0.5,26.3-1.5
		c30-3.6,56.7-13.4,79.6-29.1c12.3-8.5,22.1-17.9,29.9-26.8C627,576.2,645,627,644.9,639.4c-1.3,7.8-5.7,17.9-10.4,28.7
		c-10.7,24.5-24,55.1-16.7,91.6c19.2,94.5,62.5,196.2,64.3,200.5l5.8,13.6h127l5.8-13.6c1.8-4.3,45.1-106,64.3-200.5
		c7.4-36.4-5.9-67-16.7-91.5c-4.7-10.7-9.1-20.8-10.4-28.7c-0.1-12.4,17.8-63.1,42.3-109.9c7.7,8.9,17.5,18.3,29.9,26.8
		c22.8,15.7,49.6,25.5,79.6,29.1c8.5,1,17.3,1.5,26.3,1.5c29.2,0,61-5.3,94.9-15.9C1203.1,548.5,1304.5,492.7,1288,431z
		 M751.2,575.3c-12.6-36.7-30.2-69.1-52.5-96.7c-0.6-0.7-1.2-1.3-1.7-2c20.6,2.9,40.9,4.3,61,4.3c15.6,0,31.1-0.9,46.2-2.6
		c-0.1,0.1-0.2,0.2-0.3,0.3C781.5,506.1,763.9,538.6,751.2,575.3z M751.4,343c39.1,0,119.8,19.9,141.5,59.5c0.9,1.5,1.6,3.1,2.2,4.7
		c-58.7,27.1-125,35.3-197.3,24.2c-44.1-6.8-77.5-19.2-90.1-24.3c0.7-1.5,1.4-3.1,2.2-4.6C631.6,362.9,712.3,343,751.4,343z
		 M547.2,519.3c-38.7,26.7-94.7,29.8-161.9,8.9c-34.5-10.7-69.9-27.9-94.9-45.8c-24.7-17.8-34.1-33.1-32.3-39.7
		c4.1-15.3,13.4-26.6,28.6-34.5c63.5-33.1,204.5,1.9,273.1,24.2c1.7,20.3,9.4,39.3,18.4,55.1C572.6,496.2,562.7,508.6,547.2,519.3z
		 M675.6,686c5.9-13.6,11.6-26.5,13.7-40.2c0.8-5.3,3.3-21.3-20.1-78.9c-14.1-34.7-31.6-69.5-48.2-95.3c-1.9-3.1-3.7-6-5.3-9
		c14.8,9.8,33.1,25,49.9,46.4c20.9,26.6,37,58.7,47.8,95.4c8.1,27.5,13.1,57.6,15.2,90c-1.4,23.6-1.4,48.1,0.1,73.7v59.2
		c-14,1.5-28.8,4.8-43.6,10.7c-8.8-27.8-17.4-58.2-23.3-87.4C657.2,728.1,666.5,706.7,675.6,686z M717.8,928.8
		c-4.4-10.9-11-27.8-18.2-48.2c21.9-9.3,46.1-11.7,72.3-7.1c12.8,2.3,23.6,5.8,30.9,8.7c-7.1,19.6-13.4,35.9-17.7,46.5L717.8,928.8
		L717.8,928.8z M813.5,645.8c2.1,13.6,7.8,26.5,13.7,40.2c9,20.7,18.4,42.1,13.8,64.7c-6,29.8-14.8,60.9-23.9,89.1
		c-10.8-4.1-25.8-8.7-43.6-11.3v-61.5h0c1.4-25.1,1.4-49.3,0-72.4c2.1-32.5,7.2-62.6,15.3-90.1c10.8-36.7,26.9-68.8,47.9-95.3
		c17-21.5,35.4-36.7,50.3-46.6c-1.6,3-3.4,6-5.4,9.1c-16.5,25.8-34.1,60.6-48.2,95.3C827.8,581.2,810.2,624.5,813.5,645.8z
		 M1212.4,482.4c-24.9,17.9-60.4,35.1-94.9,45.8c-67,20.9-120.8,18.3-160-7.6c-16.5-10.9-26.9-24-32.9-33.3
		c9-15.7,16.7-34.7,18.4-55c68.5-22.3,209.5-57.3,273-24.2c15.1,7.9,24.5,19.2,28.6,34.5C1246.4,449.3,1237.1,464.6,1212.4,482.4z"
		/>
	<g class="st4">
		<path class="st1" d="M1159.4,532.6c-5.5-26.9-43.2-42.1-84.2-33.9c-41,8.2-69.8,36.7-64.3,63.6c5.5,26.9,43.2,42.1,84.2,33.9
			C1136.1,588,1164.9,559.5,1159.4,532.6z"/>
		<path class="st1" d="M1073,620.9L1073,620.9c-43.7,0-77.5-21.7-84.1-54.1c-3.2-15.5,0.3-31.4,10-46c14.2-21.4,41.1-37.9,71.9-44
			c8.8-1.8,17.8-2.7,26.5-2.7c43.7,0,77.5,21.7,84.1,54c3.2,15.5-0.3,31.4-10,46c-14.2,21.4-41.1,37.9-71.9,44
			C1090.6,620,1081.7,620.9,1073,620.9z M1097.3,519c-5.8,0-11.8,0.6-17.7,1.8c-22.8,4.6-37.4,15.8-43.3,24.8
			c-2.1,3.1-4.3,7.8-3.4,12.3c2.3,11.4,22.2,18.1,40.2,18.1l0,0c5.8,0,11.8-0.6,17.7-1.8c22.8-4.6,37.4-15.8,43.3-24.9
			c2.1-3.1,4.3-7.7,3.4-12.2C1135.1,525.8,1115.2,519,1097.3,519z"/>
		<path class="st1" d="M343.4,532.6c5.5-26.9,43.2-42.1,84.2-33.9c41,8.2,69.8,36.7,64.3,63.6c-5.5,26.9-43.2,42.1-84.3,33.9
			C366.7,588,337.9,559.5,343.4,532.6z"/>
		<path class="st1" d="M429.8,620.9c-8.7,0-17.7-0.9-26.5-2.7c-30.8-6.1-57.7-22.6-71.9-44c-9.7-14.6-13.1-30.5-10-46
			c6.6-32.3,40.4-54,84.1-54c8.7,0,17.7,0.9,26.5,2.7c30.8,6.2,57.7,22.6,71.9,44c9.7,14.6,13.1,30.5,10,46
			C507.3,599.2,473.5,620.9,429.8,620.9z M405.5,519c-17.9,0-37.8,6.8-40.2,18.2c-0.9,4.5,1.3,9.1,3.4,12.2c6,9,20.5,20.3,43.3,24.9
			c5.9,1.2,11.9,1.8,17.7,1.8c17.9,0,37.8-6.8,40.2-18.1c0.9-4.5-1.3-9.1-3.4-12.3c-6-9-20.5-20.3-43.3-24.8
			C417.3,519.6,411.3,519,405.5,519z"/>
	</g>
</g>
<g id="PEDIATRÍA" class="st2">
	<g id="XMLID_2972_" class="st4">
		<path id="XMLID_1594_" class="st0" d="M565.5,1176L565.5,1176c-181.7,0-329-147.3-329-329V424c0-181.7,147.3-329,329-329l0,0
			c181.7,0,329,147.3,329,329v423C894.5,1028.7,747.2,1176,565.5,1176z"/>
		<path id="XMLID_1647_" class="st0" d="M890.8,424v423c0,181.7-147.3,329-329,329l0,0v-94h3.6V95.1
			C745.5,97.1,890.8,243.6,890.8,424z"/>
		<path id="XMLID_1530_" class="st0" d="M894.5,424v423c0,181.7-147.3,329-329,329l0,0l0,0c-181.7,0-329-147.3-329-329V424
			c0-79.7,28.4-152.9,75.6-209.8l253.4,253.4l253.4-253.4C866.1,271.2,894.5,344.3,894.5,424z"/>
		<path id="XMLID_1431_" class="st0" d="M894.5,424v423c0,181.7-147.3,329-329,329l0,0V877.6V558.2v-90.6l253.4-253.4
			C866.1,271.2,894.5,344.3,894.5,424z"/>
		<path id="XMLID_1247_" class="st1" d="M424.7,417.4c3.5-74.8,65.2-134.4,140.8-134.4s137.4,59.6,140.8,134.4h0.2V565h-282V417.4
			L424.7,417.4L424.7,417.4z"/>
		<path id="XMLID_1683_" class="st1" d="M565.5,283v282H424.7V417.4C428.1,342.6,489.9,283,565.5,283z"/>
		<path id="XMLID_1675_" class="st1" d="M565.5,467.6l119.1-119.1c12.8,20.1,20.6,43.6,21.8,68.8h0.2V565h-282V417.4h0.2
			c1.2-25.3,9-48.8,21.8-68.8L565.5,467.6z"/>
		<path id="XMLID_1596_" class="st1" d="M706.3,565H565.5v-97.4l119.1-119.1c12.8,20.1,20.6,43.6,21.8,68.8L706.3,565L706.3,565z"/>
		<path id="XMLID_1380_" class="st0" d="M894.5,424v423c0,181.7-147.3,329-329,329l0,0l0,0c-181.7,0-329-147.3-329-329V424
			c0-56.3,14.2-109.3,39.1-155.7l289.9,289.9l289.9-289.9C880.3,314.7,894.5,367.7,894.5,424z"/>
		<path id="XMLID_1370_" class="st0" d="M565.5,558.2V1176l0,0c-181.7,0-329-147.3-329-329V424c0-56.3,14.2-109.3,39.1-155.7
			L565.5,558.2z"/>
		<path id="XMLID_1358_" class="st0" d="M753.5,370.2v453.3c0,77.9-63.1,141-141,141h-47h-47c-77.9,0-141-63.1-141-141V370.2
			l188,188L753.5,370.2z"/>
		<path id="XMLID_1356_" class="st0" d="M377.5,370.2l188,188v406.3h-47c-77.9,0-141-63.1-141-141V370.2z"/>
		<path id="XMLID_1354_" class="st1" d="M671.2,741.3c0,19.5-15.8,35.2-35.2,35.2h-35.2v35.2c0,19.5-15.8,35.2-35.2,35.2
			s-35.2-15.8-35.2-35.2v-35.2H495c-19.5,0-35.2-15.8-35.2-35.2S475.5,706,495,706h35.2v-35.2c0-19.5,15.8-35.2,35.2-35.2
			s35.2,15.8,35.2,35.2V706H636C655.5,706,671.2,721.8,671.2,741.3z"/>
		<path id="XMLID_1347_" class="st1" d="M530.3,777.1v-0.5H495c-19.5,0-35.2-15.8-35.2-35.2S475.5,706,495,706h35.2v-35.2
			c0-19.5,15.8-35.2,35.2-35.2s35.2,15.8,35.2,35.2V706h0.5L530.3,777.1z"/>
	</g>
</g>
<g id="ORTOPEDIA" class="st2">
	<g class="st4">
		<g>
			<path class="st0" d="M955.9,209.6l-60.6-85.5c-19.3-27.2-57.1-33.7-84.3-14.4L759.8,146c-66.6,47.1-145,71.2-226.8,69.7
				c-27-0.4-53.1,7.5-75.2,23.2c0,0,0,0,0,0c-27.5,19.5-45.8,48.5-51.4,81.7c-1.6,9.2-2.1,18.4-1.7,27.5
				c-95.5,21-167.4,108.3-167.4,212.6c0,40.2,10.7,77.9,29.3,110.2c-18.3,21.9-29.3,50-29.3,80.7c0,27.1,8.5,53,24.6,74.8
				c47.9,64.9,74.2,144.9,74.2,225.3v62.8c0,33.4,27.1,60.5,60.5,60.5h104.8c33.4,0,60.5-27.1,60.5-60.5v-62.8
				c0-81.6,25.7-159.5,74.2-225.3c16.1-21.8,24.6-47.7,24.6-74.8c0-30.7-11-58.8-29.3-80.7c11.6-20.2,20.2-42.5,25-66.2
				c16.4-3.6,32.1-10.4,46.1-20.3c22.2-15.7,38.3-37.6,46.8-63.3c25.3-76.6,75.4-144.4,141-190.8l51.2-36.3
				C968.7,274.6,975.2,236.8,955.9,209.6z M418.4,399.3c2.7,5.3,5.8,10.5,9.4,15.4c18.5,26.1,46.2,43.9,76.8,50.4
				c-4,31,3.6,63.1,22.1,89.2c18.2,25.7,44.8,43.3,75.3,50.2c-3.1,11.7-7.5,22.9-12.9,33.4c-16.5-7.9-35-12.4-54.5-12.4
				c-31.9,0-62.5,12.3-85.5,33.5c-23-21.2-53.6-33.5-85.5-33.5c-19.5,0-38,4.5-54.5,12.4c-11.9-23-18.6-49.3-18.6-77.2
				C290.3,480.8,345.5,414.1,418.4,399.3z M593.4,794.9c-55.3,75-84.6,163.8-84.6,256.8v62.8c0,4.1-3.4,7.5-7.5,7.5H396.6
				c-4.1,0-7.5-3.4-7.5-7.5v-62.8c0-91.6-30-182.8-84.6-256.8c-9.3-12.6-14.2-27.6-14.2-43.3c0-40.3,32.8-73.1,73.1-73.1
				c26,0,49.4,13.3,62.8,35.6c4.8,8,13.4,12.9,22.7,12.9s17.9-4.9,22.7-12.9c13.4-22.3,36.8-35.6,62.8-35.6
				c40.3,0,73.1,32.8,73.1,73.1C607.6,767.3,602.7,782.3,593.4,794.9z M910.9,250.6l-51.2,36.3c-74.8,53-131.8,130.2-160.7,217.5
				c-4.9,14.9-14.3,27.5-27.1,36.6c-15.9,11.3-35.3,15.7-54.6,12.4c-19.3-3.3-36.1-13.9-47.4-29.8c-15-21.2-17.7-48-7.2-71.8
				c3.8-8.5,2.8-18.4-2.6-26c-5-7-13.1-11.2-21.6-11.2c-0.7,0-1.3,0-2,0.1c-25.9,2-50.4-9.5-65.4-30.6
				c-23.3-32.9-15.5-78.6,17.4-102c12.8-9.1,27.8-13.8,43.6-13.4c93.2,1.8,182.6-25.7,258.5-79.4l51.2-36.3c3.4-2.4,8-1.6,10.4,1.8
				l60.6,85.5C915,243.6,914.2,248.2,910.9,250.6z"/>
		</g>
		<g>
			<path class="st0" d="M547.7,287.2c-34.3,0-62.2,27.9-62.2,62.2c0,14.6,11.9,26.5,26.5,26.5s26.5-11.9,26.5-26.5
				c0-5.1,4.1-9.2,9.2-9.2c14.6,0,26.5-11.9,26.5-26.5S562.3,287.2,547.7,287.2z"/>
		</g>
	</g>
</g>
<g id="NEUROLOGÍA" class="st2">
	<g class="st4">
		<path class="st1" d="M656.4,128.1C427.2,131.3,239,325.4,251.1,561.3h-0.6v37.9L148.6,764.6h101.9v149.9
			c0,38.1,30.9,68.9,68.9,68.9h188.9v161.5h307.9v-7.1c0-112.1,45-220.3,127-296.8c80.5-75.2,130.8-182.2,130.8-301
			C1074.1,310.5,886.5,124.9,656.4,128.1z"/>
		<g>
			<path class="st0" d="M460.9,418.3c64.3,93.9,140.2,28.5,177.7,49c13,7.1,17,23.9,17,38.7c0,14.8-2.6,30.2,2.6,44
				c11.5,30.8,52.6,36.6,85.3,33.1c34.4-3.7,37.8,5.1,48,34.9c16.5,48.1,48.4,82.1,99.7,81.8c23.6-0.2,44.6-14.8,54-36.5
				c89.1-203.8-62.4-434.9-287.3-431.9C536.7,233.2,390.3,315.1,460.9,418.3z"/>
			<g>
				<path class="st0" d="M656,100.2c-246.4,3.4-442.8,211.2-433,456.4c-0.6,3.5-0.4,4-0.4,34.6L124.9,750
					c-11.4,18.6,2,42.5,23.7,42.5h74v122c0,53.4,43.4,96.8,96.8,96.8h161v133.6c0,15.4,12.5,27.9,27.9,27.9h307.9
					c15.4,0,27.9-12.5,27.9-27.9c0-118.5,45.5-215.8,118.1-283.6c88.8-82.9,139.7-200,139.7-321.4C1102,294.4,901.5,96.6,656,100.2z
					 M924.2,820.5c-81.4,76-130,183.1-135.3,296.5H536.2V983.4c0-15.4-12.5-27.9-27.9-27.9H319.4c-22.6,0-41-18.4-41-41V764.6
					c0-15.4-12.5-27.9-27.9-27.9h-51.9c82.2-133.5,79.8-126.6,79.8-137.5v-32.1c2.5-11.5-19.2-166.5,112.9-298.5
					c241.1-240.9,654.8-70.5,654.8,271.2C1046.2,645.9,1001.7,748.2,924.2,820.5z"/>
				<path class="st0" d="M943.5,356c-104.7-160-321.2-201.7-477.4-88.4c-32.8,24-80.9,89.6-28.2,166.5
					c71.2,104,166.3,48.6,186.9,57.5c3.7,5,2.7,19.2,2.5,24.3c-0.5,12.6-1.2,28.2,4.7,44c24.8,66.3,116.7,49.8,126.7,50.5
					c1.8,3.7,4.5,11.4,6.3,16.8c42.6,124.5,171.2,126.3,205.7,47.4C1016.1,570.6,1006,451.5,943.5,356z M919.6,652.2
					c-5,11.4-15.8,19.7-29.2,19.7c-33.9,0-58.3-21.2-72.6-62.9c-12.3-36-24.4-59.3-77.3-53.6c-23.5,2.5-51-1.2-56.2-15.1
					c-2.7-7.3-0.9-20.6-0.8-34.2c0-29.2-11.4-52.2-31.4-63.2c-54.4-29.8-113,40.1-168.1-40.3c-33.8-49.3,6.8-83.7,15.1-89.9
					c130.2-94.4,310.5-59.7,397.9,73.8C949,466.2,957.5,565.5,919.6,652.2z"/>
			</g>
		</g>
	</g>
</g>
<g id="PSICOLOGÍA" class="st2">
	<path class="st5" d="M192.5,191.6h64.4c3.7,0,13.6,10.3,15.1,29.3l1.7,22.5c18.4,239.8,35.9,467,295.3,493v349h-66.3
		c-25.5,0-46.2,20.7-46.2,46.2c0,25.5,20.7,46.2,46.2,46.2H729c25.5,0,46.2-20.7,46.2-46.2c0-25.5-20.7-46.2-46.2-46.2h-67.7V737.2
		c270-20.5,287.6-248.5,306-489.4l2.1-27c1.5-19,11.4-29.3,15.1-29.3h64.5c25.5,0,46.2-20.7,46.2-46.2s-20.7-46.2-46.2-46.2h-64.5
		c-56,0-102.1,49.2-107.1,114.4l-2.1,27.1c-19.5,255.5-37.9,387.3-213.9,403.9V191.5H729c25.5,0,46.2-20.7,46.2-46.2
		S754.5,99.2,729,99.2H621.8c-2.2-0.3-4.3-0.7-6.5-0.7s-4.4,0.4-6.5,0.7h-106c-25.5,0-46.2,20.7-46.2,46.2s20.7,46.2,46.2,46.2h66.3
		v451.9c-165.7-21.3-183.9-154.3-203.3-407.2l-1.7-22.5C359,148.4,312.9,99.2,256.9,99.2h-64.4c-25.5,0-46.2,20.7-46.2,46.2
		S167,191.6,192.5,191.6z"/>
</g>
<g id="NUTRICIÓN" class="st2">
	<path id="XMLID_11_" class="st6" d="M236.9,829.8c2.3-77.5-39.9-106.9-91.4-126.2C128.4,770.2,175.7,825.5,236.9,829.8"/>
	<path id="XMLID_10_" class="st6" d="M248.5,483.6c32.9-70.5,5.4-113.9-34.1-152.2C173,385.6,194.3,455.3,248.5,483.6"/>
	<path id="XMLID_9_" class="st6" d="M267.1,679.2c-2.3-77.5,39.9-106.9,91.4-126.2C375.5,619.5,328.3,674.5,267.1,679.2"/>
	<path id="XMLID_8_" class="st6" d="M267.1,798.8c-2.3-77.5,39.9-106.9,91.4-126.2C375.5,739.2,328.3,794.2,267.1,798.8"/>
	<path id="XMLID_7_" class="st6" d="M267.1,559.5c-2.3-77.5,39.9-106.9,91.4-126.2C375.5,499.9,328.3,555.2,267.1,559.5"/>
	<path id="XMLID_6_" class="st6" d="M236.9,710.5c2.3-77.5-39.9-106.9-91.4-126.2C128.4,650.5,175.7,705.9,236.9,710.5"/>
	<path id="XMLID_5_" class="st6" d="M236.9,590.9c2.3-77.5-39.9-106.9-91.4-126.2C128.4,531.2,175.7,586.2,236.9,590.9"/>
	<path id="XMLID_16_" class="st7" d="M818.1,1175.6H402.2l208-360.1L818.1,1175.6z"/>
	<polygon id="XMLID_3_" class="st7" points="176.5,930.5 1057.5,690.8 1044.3,642.4 163.3,882.1 	"/>
	<path id="XMLID_2_" class="st6" d="M798,188.9c0,0,6.6,127,117.7,116.2C915.7,305.5,928.5,199,798,188.9"/>
	<path id="XMLID_1_" class="st6" d="M914.6,602.5c-11.6,16.7-31,27.1-52.7,27.1c-17.8,0-35.2-8.5-46.9-20.1
		c-24-26.3-55-84.8-55-84.8c-17.4-35.2-26.7-62.7-26.7-90.6c0-58.9,47.6-110,106.9-110c29,0,55.4,11.6,74.7,30.6
		c19.4-19,45.7-30.6,74.7-30.6c59.2,0,106.9,51.1,106.9,110c0,27.5-9.3,55-26.7,90.6c0,0-31,58.5-55,84.8
		c-11.6,11.6-29,20.1-46.9,20.1C945.6,629.6,926.2,618.8,914.6,602.5"/>
</g>
<g id="__x0D_DERMATOL" class="st2">
	
		<image style="overflow:visible;" width="225" height="225" xlink:href="Unknown.png"  transform="matrix(1 0 0 1 356.9355 482.0645)">
	</image>
	<path class="st5" d="M1092.5,705.9c-78.4,0-78.4-62.6-157.2-62.6s-78.8,62.6-157.2,62.6s-78.8-62.6-157.2-62.6
		c-78.8,0-78.8,62.6-157.2,62.6c-78.8,0-78.8-71.1-157.2-71.1c-78.8,0-78.8,62.6-157.2,62.6v-53.8c0-86.5,70.3-156.4,157.2-156.4
		h629.1c86.9,0,157.2,69.9,157.2,156.4v62.3H1092.5z"/>
	<path class="st5" d="M935.3,705.9c-78.8,0-78.8,62.6-157.2,62.6c-5,0-9.2-0.4-13.5-0.8c8.5,19.2,13.5,40.7,13.5,63
		c0,86.5-70.3,156.4-157.2,156.4s-157.2-69.9-157.2-156.4c0-22.7,5-43.8,13.5-63c-4.2,0.4-8.5,0.8-13.5,0.8
		c-78.8,0-78.8-71.1-157.2-71.1c-78.8,0-78.8,62.6-157.2,62.6v258.6c0,86.5,70.3,156.4,157.2,156.4h629.1
		c86.9,0,157.2-69.9,157.2-156.4V768.5C1013.7,768.5,1013.7,705.9,935.3,705.9"/>
	<path class="st3" d="M321.9,1034.1c0,17.3-14.2,31.1-31.5,31.1c-17.3,0-31.5-13.8-31.5-31.1c0-17.3,14.2-31.1,31.5-31.1
		C307.7,1002.6,321.9,1016.8,321.9,1034.1 M479.1,1034.1c0,17.3-14.2,31.1-31.5,31.1s-31.5-13.8-31.5-31.1
		c0-17.3,14.2-31.1,31.5-31.1C464.9,1002.6,479.1,1016.8,479.1,1034.1 M400.3,909.2c0,17.3-14.2,31.1-31.5,31.1
		s-31.5-13.8-31.5-31.1s14.2-31.1,31.5-31.1C386.5,877.7,400.3,891.9,400.3,909.2 M895.7,1049.8c0,17.3-14.2,31.1-31.5,31.1
		s-31.5-13.8-31.5-31.1c0-17.3,14.2-31.1,31.5-31.1C881.9,1018.3,895.7,1032.5,895.7,1049.8 M974.5,924.5
		c0,17.3-14.2,31.1-31.5,31.1s-31.5-13.8-31.5-31.1s14.2-31.1,31.5-31.1S974.5,907.2,974.5,924.5"/>
	<path class="st3" d="M885,199.4c-20.8-15.4-50.3-11.1-66.1,9.2l-47.3,62.6c-104.5,138.4-170.2,303.6-191,474.6
		c-31.9,15-54.2,47.3-54.2,84.9c0,51.9,42.3,93.8,94.2,93.8c52.3,0,94.5-41.9,94.5-93.8c0-31.9-16.1-60-40.4-76.9
		c19.2-153.7,78.8-302.1,172.6-426.2l47.3-62.6C909.9,244.3,905.7,215.1,885,199.4"/>
</g>
<g id="NEUMOLOGÍA" class="st2">
	<path class="st5" d="M279,339C171.3,480.9,149.1,720.2,143.9,812.5c-1.6,23.9,8.6,47.9,27.3,63.2c17.2,13.6,39.4,18.9,59.8,15.4
		L438,862c121.3-18.8,95.6-230.8,99.1-314.5c20.5-20.5,44.5-51.3,78.7-83.8c35.9,35.9,64.9,66.7,87.2,88.9
		c3.4,82-23.9,290.6,95.8,309.4l206.8,29.1c20.5,3.4,42.8-1.8,59.8-15.4c18.9-15.3,29.1-39.3,27.3-63.2
		c-3.4-92.3-25.7-331.6-133.3-473.4c-242.7-319.7-264.9-71.8-258,170.9c-27.5-32.4-53-63.3-54.8-64.9l1.8-181.2h-58.2L586.6,445
		c3.4-3.4-22.1,25.7-51.2,58.1C542.3,262.1,518.3,22.8,279,339"/>
</g>
<g id="GASTROENTEROLOGÍA" class="st2">
	<g class="st4">
		<g>
			<path class="st8" d="M821.1,108.1C722.6-8.2,547.5-0.4,456.3,112c-34-16.2-58.2-35.7-66.9-54.7c-13.2-28.6-43.8-44.6-74.5-39.1
				l-67.6,12.3c-41.1,7.5-66.1,49.8-52.6,89.2c28.9,84.3,104.6,152.4,214.6,193.7c6.9,31,18.8,54.8,30.8,73.6
				c-76.2,49.6-89.2,155.7-26,222c-38.6,32.8-65.7,77.2-77.1,127C221.4,754.4,130,833.1,97.2,967.2c-9.4,38.4,15.9,77,55,83.7
				l66.6,11.4c35,6,68.5-15.5,77.7-50.2c13.3-50.1,39.9-74.1,85.2-75.8C628.4,1249.4,1289.7,661.7,821.1,108.1z"/>
		</g>
	</g>
</g>
<g id="__x0D_UROLOGÍA">
	<path class="st0" d="M487.3,573c-15.6,0-28.2-12.6-28.2-28.2V370.2c0-43.3-35.2-78.4-78.4-78.4c-15.6,0-28.2-12.6-28.2-28.2
		s12.6-28.2,28.2-28.2c74.4,0,134.9,60.5,134.9,134.9v174.5C515.6,560.3,502.9,573,487.3,573z"/>
	<path class="st1" d="M29.8,263.6c0,129.1,101.6,233.7,226.8,233.7s25.1-165,25.1-233.7c0-60.2,100.2-233.7-25.1-233.7
		S29.8,134.5,29.8,263.6z"/>
	<g>
		<path class="st0" d="M256.7,525.5C116,525.5,1.6,408,1.6,263.6S116,1.6,256.7,1.6c34,0,59.2,10.7,74.8,31.8
			c31.5,42.4,11.2,109.5-6.7,168.6c-7.3,24.1-14.8,49.1-14.8,61.5c0,15.7,8.1,42.8,16,69.1c17,56.6,36.2,120.8,6,161.4
			C316.4,514.9,291.1,525.5,256.7,525.5z M256.7,58.1c-109.5,0-198.6,92.2-198.6,205.5s89.1,205.5,198.6,205.5
			c10.7,0,24.6-1.5,30-8.8c13.3-17.8-3.6-74.2-14.8-111.5c-9.4-31.5-18.4-61.3-18.4-85.3c0-20.8,8-47.2,17.2-77.8
			c11.9-39.4,29.9-99.1,15.4-118.7C280.7,59.7,267.1,58.1,256.7,58.1z"/>
		<path class="st0" d="M590.4,573c-15.6,0-28.2-12.6-28.2-28.2V370.2c0-74.4,60.5-134.9,134.9-134.9c15.6,0,28.2,12.6,28.2,28.2
			s-12.6,28.2-28.2,28.2c-43.3,0-78.4,35.2-78.4,78.4v174.5C618.6,560.3,606,573,590.4,573z"/>
	</g>
	<path class="st1" d="M1047.9,263.6c0,129.1-101.6,233.7-226.8,233.7s-25.1-165-25.1-233.7c0-60.2-100.2-233.7,25.1-233.7
		S1047.9,134.5,1047.9,263.6z"/>
	<g>
		<path class="st0" d="M821,525.5c-34.4,0-59.7-10.6-75.3-31.5c-30.2-40.6-11-104.7,6-161.4c7.9-26.3,16-53.4,16-69.1
			c0-12.4-7.5-37.4-14.8-61.5c-17.9-59.2-38.1-126.2-6.7-168.6C761.9,12.3,787,1.6,821,1.6c140.6,0,255.1,117.5,255.1,261.9
			S961.7,525.5,821,525.5z M821,58.1c-10.4,0-24,1.6-29.5,9c-14.5,19.6,3.5,79.2,15.4,118.7c9.2,30.6,17.2,57.1,17.2,77.8
			c0,23.9-8.9,53.7-18.4,85.3c-11.2,37.3-28,93.6-14.8,111.5c5.4,7.2,19.3,8.8,30,8.8c109.5,0,198.6-92.2,198.6-205.5
			S930.6,58.1,821,58.1z"/>
		<path class="st0" d="M578.6,881.5h-79.4c-26.9,0-49.1-20.4-52.1-46.5c-74.6-27.3-118.4-88.4-118.4-166.7
			c0-57.3,22.7-99.3,67.5-124.9c33.9-19.4,80.6-28.8,142.7-28.8c62.1,0,108.8,9.4,142.7,28.8c44.8,25.6,67.5,67.6,67.5,124.9
			c0,78.4-43.8,139.4-118.4,166.7C627.7,861.1,605.4,881.5,578.6,881.5z M503.2,825h71.3v-10.8c0-12.8,8.6-24,21-27.3
			c36.3-9.6,97.1-37.8,97.1-118.7c0-48.1-18.3-97.3-153.7-97.3s-153.7,49.2-153.7,97.3c0,80.8,60.8,109.1,97.1,118.7
			c12.4,3.3,21,14.5,21,27.3L503.2,825L503.2,825z"/>
	</g>
</g>
<g id="lineas">
</g>
</svg>
