<?xml version="1.0" encoding="utf-8"?>
<!-- Generator: Adobe Illustrator 22.0.1, SVG Export Plug-In . SVG Version: 6.00 Build 0)  -->
<svg version="1.1" xmlns="http://www.w3.org/2000/svg" xmlns:xlink="http://www.w3.org/1999/xlink" x="0px" y="0px"
	 viewBox="0 0 1293 822" style="enable-background:new 0 0 1293 822;" xml:space="preserve">
<style type="text/css">
	.st0{fill:none;stroke:#008020;stroke-width:5.6693;stroke-linecap:round;stroke-linejoin:round;stroke-miterlimit:10;}
	.st1{display:none;}
</style>
<g id="Capa_1">
	<g>
		<path class="st0" d="M316.1,519.8c-2.5-0.2-9.9,4.1-12.2,5.1c-3.4-8.9-11.9-16.3-16.2-24.7c-10.2-1.4-28.7,6.9-21.6-10.7
			c-0.2-2.7-5.6-6.5-3.8-8.6c6.6-6.8,19.7-15.8,24-24.4c4.3-5.1,10.8-10.5,17.9-9.1c3.9-6.9-1.4-5.4,7.5-10
			c7.3-7.3,0.8-16.5,5.3-17.2c6.2,3.5,13.5-5,18.2-7.9c6.4,9.4,20.1,11.4,30.5,14.8c7.7-2.9,9.4-6.6,12.5,3.8
			c-0.1,4.9,2.4,9.7-2.4,13.2c-11,2.7-22.5,7.7-34.3,7.3c-2.5,0.1-1,4.3-1,5.7c16.1,6.1,5.4,7.3,8.7,12.5
			c8.7,2.4,19.6,7.7,17.7,18.4c24.2-26.4,20.6,35.1,8.3,43.3c-8.5,0.3-6.7-5.5-19.9-2.3c-6.5-3.5-9.7-8.1-13.3-14
			c-6.7-0.4-5.6,7.9-14,4.5C320.6,519.1,325.3,525.2,316.1,519.8z"/>
		<path class="st0" d="M342.4,616.8c8.3-2.6,29.6-13.4,13.4-21.3c-14,5.5-5.1-15.2-2.3-20.7c-2.1-13.3,6.9-18.4,4.3-24.3
			c5.4-19.3,11.2-10.3-2.3-21.3c4.8-1,12.1-1.7,15.7,2.3c10.8-1-4.6,16,13.1,22.3c9.5-0.2,16.2,5.6,23.7,10.8
			c6.8-0.6,13.1,6.7,10.6,14.1c4.8,12.9,19,22.5,12.7,37.8c-7.1,7-4.4-3.6-13.8-0.2c-5.1-4.5-10.7,2.8-8.2,8.4
			c-1.7,2-16.7,4-16.5,0.2c0.9-0.4,3.5,0.8,2.8-1.2c-11.7-6.1-18.3,6.2-12.2-6.9c-7.6-0.4,2.7-18.6-8.7-9.1
			c-2.9,1.5-0.8,5.8-0.1,7.9c-2.3,6.4-10.1,12.2-17.1,10c-2.1-2.6-9.4-2.6-8.5-6.8C347.3,617.7,344.2,617.9,342.4,616.8z M381.5,640
			c3,6-5.5,10.6-10.1,6.8C370.8,638.6,371.3,640,381.5,640z M380.2,624.3c2.3,1.9,9.8-2.9,10,0.6c-7.9,2.1,3.2,8.3-4,12.3
			c-3.7-1.9-15.4-2.7-12.6-8.9C375,626.1,377,621.9,380.2,624.3z"/>
		<path class="st0" d="M45.7,415.6c-5.8,0.1-4-12.2,0.2-13.8c7.8-2.5,13.4-12.5,19.3-18.2c5.8-4.9,15.9,6.6,17.4-5
			c0.7-3.2-1.6-12,0-14.9c2.4-1.6,3.2-5.2,1.9-7.7c7.6-2.6,21.8-6.8,26.4,2.2c-1.1,12,19.6,14.4,16.6,26.3
			c2,7.3,12.4,14.7,19.6,12.8c-4.1-8.1,8-10.1,13.5-8.4c14.8-3.9,2.4,16.1,1.4,21.8c-4.8,6.5-21.4-1.4-12.3,10.3
			c-9.4,1.8-7.8-5.6-12.6-3.8c1.3,14.6-25.5,11.6-18.5,27.4c0.3,2.9,0.5,9,0.2,11.8c-2.1-9-11.8-12.7-12.2-22.7
			c-4.6-3.7-14,0.7-11-8.3c-2.7-12.3-8.7-2.8-12.5,2.7C70.9,424.2,58.5,417.2,45.7,415.6z"/>
		<path class="st0" d="M210.5,528c3.8-3.8,0-9.1-1.1-13.2c0.3-3.4,2.3-7.3,0-10.4c7.7-10.3,29-13.7,33.2-26.1
			c4.6-3.7-0.1-12.7,0.5-17.7c2.6-9.8-8-7.3-13.6-9.4c-11.1-5.5,1.6-4.6-4.6-22.9c-7.2-4.2-17.9-10.7-14.7-21.5
			c19-7.9,26.5,2.1,34.1-23.4c-4.4-27.1-10-10.6,30.9-17.1c5.6,1.4,12.5,3.1,17.1-1.2c2.1,5.3,9.1,5.2,13.7,6.7
			c11.9,3.8,7.3,15,18.5,19.3c2.2,1.1,2.2,3.6,1.8,5.8c2.9,3.1,10.4,10.2,9.8,14.8c-6.9,6.5-12.6,9.3-20.6,9.8
			c0.1,6.6,0.2,16.1-8,18.2c-3.4,6.7-1.9,8.9-11.5,8.1c-11.5,10.1-22.4,24.2-34.3,33.7c3.8,5.5,4.9,12.6,2.4,18.5
			c-5.7-2.2-6.4,4.8-2.6,7.4c0.8,6-4.6,1.3-7.1,5.7c-1.6,4.7-5.6,4.5-9.5,5.7c-1.1,3.6-2.9,1.6-5.7,1.2c-3.4-0.7-0.5,4.8-3.7,3.7
			C227.2,519,218.7,528.5,210.5,528z"/>
		<path class="st0" d="M1251.6,298.5c-3.3-0.9-37,7.4-27.7-1.2c-9.2-1.7-13.8,1.8-20.3-3.7c-4.3-5.5-3.7,8.1-15.8,7.8
			c-3.9-1.9-3.9-7.5-9.7-5.8c-1.3,0.8,0.2,2.2,0.7,3c-1.5,1.2-1.4,3.9-1.5,5.6c-1.3-0.9-1.7-2.4-3-0.9c-1,4.3,2.5,5.8-3.6,3.7
			c3.6,3.6-4.5,4.5-6.3,7.5c-10.4,1.6-1.5,13.5-13.6,5.9c-20.8-1.2-7.6,8.2-12.1,10c-0.6-3.1-4.1-3-6.6-2.7c4,9.4-23.3,0.5-10.6,9.7
			c-7.4-1.6-11.6,7.7-17.2,2.6c3.3,6.7-4.5-1.7-6.7-2.6c-0.4,2-1.9,6.4,0,8.1c0,0-19.2,1-19.2,1c-4.6-0.3-2.2-0.5-4.7-2.5
			c-2-0.1-5.8,0.9-6.5-1.8c-2.5-1.8-5.6-4.3-8-0.9c6.9,14.3,10.4,6.8-11.7,14.2c-28.1-23.1-6.7,2.2-20.4,9.4
			c-16.5-2.6-7.4,0-14.6-9.7c-4.7,9.9-14.8,20-26.2,18.4c-5.2-6.4-9.1,2.7-5.7-7.3c-2.7-0.6-16,0.2-18.5-1.4c-3.9-2-11-5.6-14.8-1.5
			c-2.8-5.6-8-17.9-13.1-18.5c6.5-13.4-18.3-13.4-26.6-10c-42,73.6-8.3-221.3-18.6-235.7c19.3,8.8,46.5,15.9,65.5,24.7
			c-7,8.1-3.8,23.5,9,17.4c0.9-1.6-0.2-7.2,3.1-5.8c2.2,6.9,9,3.5,14.2,4.7c9.8,1.2,6.5,2.3,14.3-2.2c-10.5-5.7-29.9-2.1-36.7-13.6
			c18.8,4.1,44.2,8.8,63.4,9.1c38.9,22.2,68.3,68.6,112.2,81.9c2.8,3.1,1,5-2.7,4.9c-5.2-1.5-10.6-8.4-16.2-9.1
			c-1.7-4.9-21.1-2.2-13.6-7.6c-4.1-6.9-7.2-9.1-14.1-10.2c-9.7-9.6-11.7,3.6-16.4,1c-8.4-2.7-3.8-1.2-1.4-6.7
			c-14.5-4.4-2.2,8-2.2,12.4c-4,3.1-6.2-14.9-11.9-13.4c-6,1.9-7.8,1.6-13.8,0.4c1.4,9.7,8.4,4.2,5.7,11.3c0,1.3-1.3,2.8,0.9,2.4
			c8.9-15,8.2-12.6,15.6,1.9c2.9,6.7-2.2,4.4-5.1,8.7c1.7,8.4,8.3,16.8,17.2,17.8c3.1-1.2,0.5-5.8,0-7.8c2.6,1.8,5.5,4.7,5.8,7.9
			c-6,12.1,14.4,3.4,14.3,7.3c-14.6,2,6.6,17.6,14,10.8c13.1-4,3.2-7-3.4-10.8c-2.5-2.6-2.4-4.6-6.7-4.3c-8.1-1.3-34.8-14.6-16-19.2
			c4.9,2.6,20.4,6.9,21.2,13.9c5.3,4.7,14.5,3.4,17.4,11c-2.8,2.1-6.8,4.1-0.8,4.7c11.2-9.5,1.3,15.6,9.1,14.5
			c1.8-1.1-0.2-4.8,2.4-4.1c3,10.5,4.6-8.7,20.6-6.7c-0.6-13.1,8.8-5.5,17.3-4.9c1.7-0.5,5.3-1.2,2.1,1.8c1.5,3.6,2.7,11.8-2.1,13.5
			c-5.2-1.5-0.4-6.6-9.3-6.5c-2.6,1.7-10.5,16.3-2.1,11.1c-1.6-1.7-1.5-6,1.4-5.5c0,11.8,6.2,12.4,11.9,2.9
			c4.9-3.7,15.6-2.2,6.2-10.3c-1.8-4.2-2.6-14.3-8.9-9.2c-3.4-2.1-8.2-5.8-12-2.6c-1.8-1.1-0.5-2.6,0-4.1c-2,0.1-9.6-2.7-11.5-3.5
			c-36.3-28.7,40.6,14.3,50.7,15.4C1223.7,264.1,1205.9,288.3,1251.6,298.5z"/>
		<path class="st0" d="M779.7,489.9c-9,1-5.8,6.9-16.4,8.5c1.7,4.9-5.3,2.1-7.5,6.4c-2.9,2.7-7-0.8-8.9,1.6
			c1.5,5.1-7.5,15.6,0.7,16.9c2.3,3.2,0.2,8.1-2.7,10.3c-2.3-2.1-3.4-3.8-7-3.4c-9.4,2-12.2-6.2-16.1-12.7c-3.5-2.3-6.8-2-10.5-0.6
			c-5.8-3.2-15.2-14.5-21.9-17.7c-0.9-13.7,9-14.3-15.9-8.2c-4.8,4.1-4.7,11.2-12.2,12.7c-6.4,8.2-18.3,21.9-24.5,30.4
			c-1,6.4-3.8,13.5-11.4,13.8c-17.6,2.5-9.9-4.9-29.1-2.4c-7.3-6.7-21.4-1.3-29.9-0.1c-8.9-2.4-22.6-0.6-21.2,11.4
			c-10.5,4.4-19.7,12.4-31.2,9.4c0.3,11.7-14.8,12.3-16.2,21.9c-5.2,7.7-17.6,14.4-19.2,0.3c-9.1-4-12.3,1.8-15.9-10.7
			c-7.4-5.5-4.8-5.1-3.2-13.6c9.6-6.1,15.7,9.6,18.4-5.3c5.6-6.3-6-10.8-1.7-20.9c2.3-4.8,8.2,6.2,14.9,5.4
			c13.6-2.3,10.5-24.9,12.8-34.9c-3.9-8.2,13.3,8.3,14.1-17.8c-6-11.2-27.3-21.6,0-20.4c1.9-3.1,3.1-6.1-1.6-6.8
			c1.1-6.7,8.3-15.3,14.1-19.4c3.7-12.8,14.6-23.3,26-30.5c14.2,6.7,7.6,1.7,16.2,3.2c5,6.6,1.8,4.8,10,5.6
			c10.2,2.9,22.2,7.8,27.5,17.3c23.5,9.8,43.4-29.3,57.3,5c9,3.6,9.3,4.5,16.3-0.8c8.7,0.5,10.6,9.9,13.1,16.4
			c7.7,1.4,14.6,17.3,21.9,9.7c0.7-10.2,10.6-7.7,16.9-4.6c7.6-11.3,10.8-4.2,24.9-2.5c5.1-5.7,11.1,9.5,10.2,14.5
			C774.7,483.3,777.2,480,779.7,489.9z"/>
		<path class="st0" d="M888.9,349.6c-5.4,2.7-4.7,10-6.4,14.5c-8.7,1.7-0.1,4.6,2.5,7.2c-4.8,5.3-7.3,4.7-0.7,6.3
			c-8.1,13.4-10.6,12.3-22.1,4.8c-3.7,4.9-1.4,14.6-3.5,19.8c-9.8,8.3,1.2,7.5-9.8,14.5c31,24.9-20.4,15.9-26.2,30.8
			c-13.8,1.7-10.5,25.6-26,30c-10.3-0.2-6.7,13-17.2,12.3c-0.3-7.1-8.2-8.6-9.4-14.6c1.2-5.2-6-18.2-10.4-12.3
			c-5.2-0.8-13.7-4.6-19.1-4.3c-5.1,14.2-12-2.7-20.9,6.5c-2.1,5-0.2,7.6-8.1,6.6c-1.7-0.6-5-5.6-6.1-6.9c-2.4-1.6-9-3-9.9-6.2
			c-0.7-6.6-6.7-17.5-14.5-14.1c-20,13-13.8-23.6-37.2-13.2c-17.2,8.8-11.6,11.9-34,8.2c-6.5-11.8-22.4-16.2-34.6-18.6
			c-5.3-10.5-4.5,0.8-19.1-7.5c-0.4-7.3-3.8-15.3-6.5-21.9c0.2-6,2.3-8.2-2.9-13.2c-3.8-5.8-12.6-8.4-16.7-13.5
			c-5.6-16.5-21.7-40.3-11.2-55c-6.4-5.6-23.3-12.4-11.1-21.6c21.4,0.3,20.1-26.4,20.3-41.4c1.9-2.9,8-2.3,8.5-6.4c0,0,9-2,9-2
			c9.7,11.6,22.2,3.8,25.3-8.4c19.6-6,26.8-18.8,44.4,1.8c16.8,2.6,30.7-25.3,46.1-10c10.1,3.3,15.7-6.9,27.2-2.5
			c-0.3-1.5,11.2-6.5,12-7.3c0,0,11.8-11.6,11.8-11.6c2-1.9,5-12.4,9.6-8.8c4.5,4.3,15.1-4,14.2-9.3c27.5-9.4,48.7,28.5,75.7,33.3
			C861.8,279.6,901.4,253.3,888.9,349.6z"/>
		<path id="capital" class="st0" d="M381.5,480.6c-0.8-11.9,12.6-10.3,19.9-14.2c9-6.1-1-7.9,16.1-12.6c4.1-8.1-9.2-1.1-6.3-21.9
			c4.8-5.8,4.1,7,13.4-8.4c6-8.2-5.6-7-3.2-11.2c3.2-7-11.2-7.8-10.9-18.5c4.7-4.5,14-12.1,12.1-19.7c5.9-4.4,11.9,11.2,15.6-5.3
			c-1.4-8.1,1.6-1.2,2-5.8c25.5-10.9-1.8-29.9,20.4-36.7c-14.5-13.8,5.8-15.3,4.6-30.5c10.1-8.1,26.4-1.1,38.3-0.9
			c-1,8,18.3,11.7,14,16.7c-5.9,7.9,8.2,57.5,21.1,58.7c6.2,6,14.8,11.8,11.5,21.4c3.1,5.7,4.2,13,6.6,19.1
			c-0.7,6.8-17.4,14.1-21,20c1.2,14.3-24.4,23.4-16.5,33.7c2.5,3-1.9,6.9-5.1,6.3c-28-2.3,19.2,19.5-1,34.2
			c-3.7,4.1-11.8-2.8-9.1,3.4c-2.4,67.5-30,9.9-28.4,37.4c1,4.2,6.8,8.8,2.3,13c-4.1,11.1-0.1,7.5-12.3,3.3c-8,2.7-18.7-1-26.5-2.7
			c-7.3,2.6-17.9-3.2-13-12c-2.3-0.2-5-0.2-7.2-1.1c-12.7-3.8-3.1,21.1-10.7,18.4c-4.3-2.2-10.2-7.5-14.2-10
			c-22.9,2.4-21.6-21.3-11.5-34.6C387.7,511.7,382.5,489.5,381.5,480.6z"/>
		<path class="st0" d="M610,138.7c14.5,12,34.3-7.5,44.8-16.8c9.7-6.5,32.9-3.8,43.6-6.1c14.5-7.9,24.2-21.4,0-21.9
			c-24.3-8.5,65.9,1.6,57.3,15.5c4.9-5.4,5.9-1.6,11.1,2.7c39.7,19,71.8,12.8,107.4-13c0,0,14.7-0.3,14.7-0.3
			c-8.2-5,16.4,234.6-11.6,171.4c-30.6-23.9-31.4-4.9-58.4-49.1c-3.5-5.2-22.4-11.6-28.1-13.8c-8-7.5-25.3-21.8-35.5-25.7
			c-4.4-2.3-7.2,2.5-11.1,0.3c-6.1-5.1-7.1,1.9-9.7,5.5c-4.7,4.7-9.1,7-15,3.5c-4.7,4.9-12.7,16.7-18.8,21.1
			c-5.2,2.1-12.8,9.3-18.1,6c-11.6,4.2-22.5,6.1-32.9-2.6c-2.1-3.4,1.4-27.4-3.9-21.9c-10.5-7.5-24.4-0.8-32.6-12.9
			c10.8-6,13.5-4.6,10.7-18.7c-9.1-2-4.6-4.1-10-9.5C608.7,149.1,607.3,142.7,610,138.7z"/>
		<path class="st0" d="M552.7,644.3c-7.2,5-16.9-11.1-25.2-2.3c-6.5,5-17.6,14.1-12.2,23.2c1.2,2.2-3.8,12.5,1,13.4
			c-6.3,8.2-15.9,18.8-24.6,23c-3.1-9.1-73.1,9.3-43.1-8.5c-0.3-3.5-12.3,1.9-16.2-9.8c-1-4.6,4.6-3.8,7.5-4.6
			c4.6-1.8-17.1-5.4-20.4-3.2c0.2-11-6.6-24.6-13.8-31.6c-3.9,1.2-5.5-5-2.3-6.9c12.6-7.9,6.7-9.5,23.8-13.5
			c-1.8-6,4.7-5.4,6.1-12.2c0.2-5.9-5.6-11.1-3.2-17.2c-12-5.2-9-17.6-13.3-25.9c-6-2.3-7.6-8.3-5.2-14c-1.8-10.8,10.1-8.9,14-6.3
			c-3.8,5.2,2,8.8,5.3,12.1c9.1-0.9,19.6,0.3,28.3,3.8c-0.3,2.4-3,9.1-0.6,11c7.9,2.2,3.4,9.3,9.1,11.5c1.6,0.4,9.8-0.2,10.6,1.8
			c6.2,23.7,23-9.3,32.1-13.9c6.8-10.2-2.9-7.3,11.4-8.1c1.2,3.9,8.3-6.3,14.6-4.3c9.4-7.8,9.2-6.4,8.1,5.2
			c3.3,8.3,6.4,1.4,3.3,15.6c-0.7,8.6,10.6,28.1,3.6,36C552.4,627.1,566.8,635.4,552.7,644.3z"/>
		<path class="st0" d="M292.3,365.1c5.6-5.4-2.5-9.9,0-15.6c2.9-1.5,8-6.1,10.1-8.8c8.6-0.3,6.9-3.2,7.1-10.1
			c2,14.2,14.5-2.2,19.8-4.4c7.1-13.4,32.3-12.3,28.7-31.8c7.2,0,22.1,0.4,28.8-2c10.8-16.8,15.1,7,24,10.9
			c1.8,5.4,0.2,14.4,8.8,12.7c6.8-5.1,14.9-8.6,22.5-2.2c6.5-0.7,5.6-1,11.1,4.4c3.9,1.1,10.1,7.5,4.1,10.1
			c-1.9,0.4-5.2-0.2-5.8,2.2c-0.7,11.3,4.1,28.3-11.2,31.6c-0.4,1.5-0.3,3.7-2.2,1.7c0.6,5.2-2.8,17.8-9.2,10.2
			c-2.1,0.8-5.3-3.2-6.3-0.2c0.4,17-24.7,19.1-1,34.6c-1,7.4,1.2,5.2,5.1,10.6c-3,6.8-7,13.8-14.9,11.5c-7.7,19.7,20.8,18-4.6,27.4
			c-2.3,9.8-11.6,10.7-19.9,12.2c-8.7,13.8-10.1,7.8-20.2,17.9c1.9-12.3-9.9-15-18.4-19.1c-0.2-4.4,3.4-4.9-1.3-8.9
			c0,0-6.7-2.8-6.7-2.8c0-1.6-1.7-5.9,1.3-5.7c5-0.2,12.5-1.2,17.7-2c4.1-0.7,7.4-5,11.4-3.9c11.6-1.1,8-13.9,4.3-21.3
			c-11.3,5.1-24-1.9-35.4-6.1c-8-7.6-1.1-4.7-5.2-11.1c-2.1-4-9.8-9.1-8.4-14c-4.6-4.6-9.9-3.4-10.2-12
			C312.8,369.8,297.5,373.7,292.3,365.1z"/>
		<path class="st0" d="M172.9,495.9c0.7-4.5-4.2-6.1-7.8-6.1c-7.4-2.7,4.6-19.6-9-11.5c-20.8,4.5-11.8-29-34.9-17.1
			c-4.8-3.2-1.3-11.9-2.7-16.8c-3.4-8.5,0.5-6.8,4.9-14.1c20.5-5,8.6-13.8,16.1-13.6c2,3.7,6.2,4.8,10.1,4.2c-2.3-1.3-4.2-9.9,0-7.1
			c4.5,1.2,13.1-0.6,13.5-6.3c7.1-19.3,4.2-30.8-8.1-43.1c-12.3-21,30,1.3,24-17c-10.2-12.9,7.8-21.5,2.9-34.9
			c20.8-12.6,19.5,16.9,32,22.7c11.4-13.7,8.2-5.1,23.1-1c-17.2,22.8,21.2,10.4,3.2,33.1c2.3,2.1,3.4,13.4,4.1,16.3
			c-6.1,34.2-39,7.3-33.4,33.3c7.7,12.4,9.9,6.1,14,11.6c3.9,28.3-5.9,18.3,18.3,26.7c7.4,35.8-13.7,29.1-32.4,49.1
			C207.2,499.2,179.6,494.2,172.9,495.9z"/>
		<path class="st0" d="M359.6,112.5c6.8-2.2,13.5,6.9,19.8,6.7c-4.1-5,2.9-6.9,6.7-9.6c-1,2.4-7.6,7.7-3.4,9.6
			c7,5.6,22.1,26.9,32.4,18.1c1.9-5,5.2-4.6,9.8-4.2c3.2-4.2,2-6.3,8.9-6.4c35,5.6,78.5,30.3,111.4,8.8
			c14.6,12.5,67.8-13.9,63.9,11.4c4.2,4.3,7.1,12.5,12.7,14.5c7.7,8.3,1.3,15.4-8.7,19.2c-14.1-4.6-29.5-0.5-44-4
			c-10.4,2.9-20,12.1-31.4,10.5c-14.5-4.7-16.8,0.2-31.5-0.2c-3.1-0.7-8.9,5.3-10.9,7c-5.7,6.5-29.6,18.9-37.9,18.1
			c-9.3-1-21.5-8.6-29.5-2.8c-14.3,0.2-7.3-20.7-18.3-19.6c-7.3,5.1-18.4,6.1-27.2,6.9c-21.2-12.6-4.6-30.7-34.5-43.6
			c14.2-4.2-1.6-10.1-1.4-16.7c3.5-4,6.6-8.9,8.4-13.8C359.2,119,361.1,118.1,359.6,112.5z"/>
		<path class="st0" d="M348.1,152.8c15.3,7.7,21.8,17,23.7,33.7c8,14.7,26.1,9.6,37.9,3c8.8-2.2,5.2,9.6,8.9,13.9
			c5.6,10.7,14.4-0.5,21.2,5c20.9,7.3,32.2-0.4,50.5-9.4c8.8-14,24.7-11.3,38.5-15.6c3.2,6.6,13.3,3.6,19.1,2.7
			c11.6-4,20.7-13.8,33.7-7.3c13.7,0.7,30.5-4.6,39.5,9.2c5.1,3.6,16.7-1.7,21.5,4c1,0.3,2.6,1.7,3.4,1.2c5.5-3.7,1.6,12.1,2.1,14.2
			c5.2,7.9-3.3,12.3-9.6,15.1c-38.9,27.8-17.9-20.8-67.5,7.4c-10.4,27.1-17.4,5.5-34.4,10.4c-1.6,5.9-9.6,2.2-9.2,10.7
			c2.3,12.9-0.1,28-11.3,35.8c-7.7,2.8-9-1.3-12.9,7.7c-7.8-2.1-17.9-0.6-25.6-3.2c-3.5,0.5-13.8,0.6-12.6,6.2
			c0.1,8.2-8.7,13.4-11.9,20.7c-4.3-5-5.8-5.1-11.1-4.4c-11.4-11-19.2,6.5-28.9,0.6c-0.5-15.6-7.5-9.6-10.6-21.3
			c-5.2-8.6-10.2-9-15.7-0.7c-10.1,1.5-35.6,8-29.1-9.8c3.6-4.6-4.4-14.7-9.9-12.5c-3.5-6.5-9.8-1.7-11.7-7.3
			c-3.1-4.1-9-4.7-13.5-2.8c-2.5-1,1.4-7.9,0-10.3c-1.6-0.6-2.3,1.5-3.2-1.1c3.8-13.3,2-14.3,14-22.4c3.7-7.3,13.8-14.1,2-19.2
			c2.7-5.9,7.4,5,7.6-3.5c-6.6-8.3,1.8-13.5,3.8-21.9c1.1,0.3,4.7,1.5,4.3-0.7c4.9-9-4.6-12.1-9.3-18.2
			C349.5,155.8,332.9,162.5,348.1,152.8z"/>
		<path class="st0" d="M216.2,193.1c9.9-7.3,23.3-17.9,28.2-29.5c1.2-2.7,6.1-0.9,8.3-2.7c2.1-0.7,6.1-4.7,7.4-1.5
			c5.9-22.5,12.4,19.8,35.1-13.6c2.4-1.4,6-2.9,3.7-6.2c6.1,2.3,30.7-6.9,19.5-12.7c-0.8-0.6-3.6-2.6-1.9-3.5
			c7.3,1.5,14-3.3,20.4-5.4c2.5,0.3,18.1-1.2,20.2-2.1c4.4-9.2,4.7,3-3,8.4c-2.6,9-12.9,13.5-1.9,19.7c4.2,3.1,0.7,8.9-3.9,8.9
			c-15.2,9.7,1.4,3.1-6.2,10c5.8,4.9,18.3,17.9,5,18.9c-0.6,7.7-10.7,11.7-4.8,19.2c1.7,3.4,1.2,8.6-3.2,4.4
			c-9.3,0.9,6.6,5.6,2.2,10.5c-6.6,5.4-7,14.3-17,16.4c-0.3,4,0.6,2.5-2.8,6.1c1.6,4.1-2.4,8.5-1,11.9c6.3-2.4-0.7,8.4,2.4,10
			c5.4-2.3,13-0.7,14.7,5.5c2.9-0.3,5.4,1.4,8.3,1.4c1.1,1.3,0.8,3.6,3.2,3.3c13.5-0.7,7.3,16.2,9.2,24.2
			c2.4,11.8-7.7,17.3-16.6,22.1c-9.7-0.1-25.5,32-31.9,14.1c2-26.9-26.6-8.8-6.3-44.1c-0.5-1.6-2.5-2-3.5-3.2
			c-33.7-11,3-22.1-8.8-28.5c-10.7-4.5-7.7-23.5-10.3-32c-12.3-4.6-22.6-7.3-20.5-22.9C250.2,192,228.6,186.3,216.2,193.1z"/>
		<path class="st0" d="M159.3,237.6c24.7-13.7,47.8-51.4,78.4-46.8c15.3,5.4,23.5,2.5,23.8,21.2c29.7,16.7,14.5,14.2,25.5,40.1
			c15.1,5.7,0,10.1-2.2,19.5c18.9,25.5,21.7-3.4,11,36.9c4.2,7.9,15.1,2.7,13.8,22.2c0.2,16.8-1.4,2.1-14.1,16.9
			c-9.7,3.4,3.3,11.7-3.2,17.5c-14.8,4.9-35.8,2-52.2,2.1c12.9-19-1.5-10.3-7.6-22.4c-3.6-5.1,13.7-13.3-4.8-13
			c-1.8-3.6-6-7-8.9-2.5c-14.3,19.7-12.2-24.5-28.7-19.8c-41.7,16.6-1.8-25.8-10.8-34.7c-4-8.1,6.6-7.8-4.2-12.3
			c-2.6-3.5-9.3-7.4-7-12.4C168.7,248,160,239.3,159.3,237.6z"/>
		<path class="st0" d="M84.4,283.5c7.7-5.9,25.4-8.9,33.7-13.9c14.5-6,41.7-47.8,50.1-19.5c-4.4,9.5,17.7,12.6,9.9,19.7
			c-0.2,4.7,5.5,8.1,3.7,12.6c-8.5,5.1-6.8,17.1-11.2,25c2.8,14.4,11.9-3,12.2,11.4c0.1,7.5-4.1,5.3-3,9.4
			c-11.3,8.4,3.9,19.6-1.7,25.3c-9.4,5.4-27.5-3.7-25.3,5.7c0.7,4.9,7,9,9.4,12.9c3.5,6,6.2,21-5.5,16.1
			c-19.7,1.3-3.1,11.9-14.6,9.5c-9.8-3.9-15.1-9.7-15.8-21.2c-18.2-13.1-9.4-6.7-18.4-22.5c-25-6.2-19.8,15.1-33.6-15.5
			c-9.4-8-6.6-16.1,1.9-23.1C85.3,304.9,70.5,292.3,84.4,283.5z"/>
	</g>
</g>
<g id="COLOR" class="st1">
	
		<image style="display:inline;overflow:visible;" width="878" height="248" xlink:href="../../../../Users/florianaelsegood/Desktop/Captura de pantalla 2021-11-12 a la(s) 14.38.09.png"  transform="matrix(1.4558 0 0 1.4558 -30.3077 -395.2308)">
	</image>
</g>
</svg>
