<svg width="291" height="247" viewBox="0 0 291 247" fill="none" xmlns="http://www.w3.org/2000/svg">
<path d="M32.3524 102.311C34.0524 107.411 35.8524 112.511 37.5524 117.611C38.4524 120.211 36.8524 122.511 34.1524 122.711C32.5524 122.811 31.2524 122.011 30.6524 120.511V120.411C27.2524 110.511 23.7524 100.711 20.4524 90.7111C17.3524 81.4111 22.2524 75.4111 28.2524 72.1111C30.7524 70.7111 33.4524 70.0111 36.2524 69.8111C42.7524 69.6111 48.0524 73.0111 50.4524 79.1111C51.6524 82.2111 52.6524 85.3111 53.6524 88.4111C54.5524 91.1111 52.8524 93.4111 50.0524 93.4111C48.3524 93.4111 47.0524 92.5111 46.4524 90.7111C45.7524 88.6111 45.2524 86.5111 44.5524 84.4111C44.1524 83.3111 43.7524 82.2111 43.1524 81.1111C41.7524 78.4111 39.5524 77.1111 36.5524 77.4111C33.6524 77.7111 30.9524 78.7111 28.7524 80.7111C27.0524 82.3111 26.4524 84.3111 27.2524 86.6111C28.8524 92.1111 30.5524 97.2111 32.3524 102.311Z" fill="#002E54"/>
<path d="M59.3524 129.211C57.7524 124.511 56.1524 119.811 54.5524 115.111C53.6524 112.211 55.4523 109.711 58.4523 109.911C59.7523 110.011 60.7524 110.511 61.2524 111.711C61.4524 112.211 61.6524 112.611 61.8524 113.111C64.7524 121.311 67.5523 129.511 70.4523 137.711C71.0523 139.511 71.4524 141.311 71.8524 143.111C72.3524 145.811 71.8524 148.311 70.6524 150.711C66.9524 158.311 56.9524 162.311 49.0524 159.511C45.4524 158.211 42.7524 155.811 41.3524 152.211C40.4524 150.011 39.6524 147.811 38.8524 145.511C38.0524 143.111 38.9524 141.211 41.1524 140.511C43.3524 139.811 45.2524 140.811 46.0524 143.211C46.5524 144.711 46.9523 146.311 47.4523 147.711C48.9523 151.711 51.4524 153.211 55.5524 152.711C58.2524 152.311 60.6524 151.311 62.5524 149.311C64.2524 147.511 64.7523 145.511 63.9523 143.111C62.4523 138.411 60.8524 133.811 59.3524 129.211Z" fill="#002E54"/>
<path d="M16.7524 117.511C15.3524 118.011 13.8524 118.511 12.4524 119.011C8.15235 120.411 6.55238 123.211 7.35238 127.711C7.75238 130.011 8.75237 132.111 10.2524 133.911C11.9524 135.911 13.9524 136.711 16.4524 135.911C19.9524 134.711 23.4524 133.511 27.0524 132.311C28.9524 131.711 30.4524 132.311 31.4524 134.011C32.7524 136.211 31.8524 138.711 29.5524 139.511C26.5524 140.611 23.5524 141.811 20.5524 142.811C11.2524 145.811 2.25235 140.311 0.452354 130.511C-0.147646 127.111 -0.247628 123.811 0.752372 120.511C1.95237 116.611 4.45237 113.811 8.25237 112.411C12.3524 110.811 16.5524 109.511 20.6524 108.211C22.6524 107.611 24.4524 108.711 25.1524 110.811C25.8524 112.911 25.0524 114.711 23.0524 115.411C20.7524 116.211 18.7524 116.911 16.7524 117.511Z" fill="#002E54"/>
<path d="M70.1524 99.4112C68.3524 100.011 66.6524 100.611 64.8524 101.211C62.5524 102.011 60.7524 101.111 59.9524 98.9112C59.2524 96.7112 60.1524 94.8112 62.3524 94.0112C65.4524 92.9112 68.5524 91.6112 71.7524 90.6112C81.6524 87.3112 90.8524 93.0112 92.7524 103.511C93.3524 107.011 93.3524 110.411 92.0524 113.711C90.4524 117.611 87.3524 119.911 83.5524 121.311C80.2524 122.511 76.7524 123.511 73.3524 124.511C71.4524 125.011 69.7524 123.911 69.1524 121.911C68.5524 119.911 69.2524 118.011 71.1524 117.311C74.0524 116.311 76.9524 115.311 79.9524 114.411C84.9524 112.811 86.7524 109.611 85.3524 104.411C84.9524 103.011 84.2524 101.611 83.4524 100.411C81.3524 97.3112 78.7524 96.5112 75.2524 97.7112C73.5524 98.3112 71.8524 98.9112 70.1524 99.4112Z" fill="#002E54"/>
<path d="M42.1524 131.311C42.8524 133.511 42.0523 135.311 39.9523 136.011C37.9523 136.711 36.0524 135.711 35.2524 133.611C34.4524 131.411 35.4523 129.411 37.4523 128.811C39.5523 128.111 41.4524 129.111 42.1524 131.311Z" fill="#002E54"/>
<path d="M50.3523 102.211C49.6523 100.111 50.4523 98.1112 52.4523 97.4112C54.4523 96.7112 56.3523 97.7112 57.1523 99.8112C57.8523 101.911 57.0523 103.911 54.9523 104.611C52.9523 105.311 51.1523 104.311 50.3523 102.211Z" fill="#002E54"/>
<path d="M111.052 126.711C112.352 130.411 113.552 134.111 114.852 137.811C115.452 139.711 114.352 141.411 112.452 141.511C111.252 141.611 110.352 141.011 109.852 139.911V139.811C107.352 132.611 104.852 125.411 102.452 118.211C100.152 111.411 103.752 107.111 108.152 104.711C109.952 103.711 111.952 103.111 113.952 103.111C118.652 102.911 122.552 105.411 124.252 109.911C125.152 112.111 125.852 114.411 126.552 116.711C127.152 118.711 125.952 120.311 123.952 120.411C122.752 120.411 121.752 119.811 121.352 118.411C120.852 116.911 120.452 115.411 119.952 113.811C119.652 113.011 119.352 112.211 118.952 111.411C117.952 109.411 116.352 108.511 114.152 108.711C112.052 108.911 110.052 109.611 108.452 111.111C107.152 112.311 106.752 113.711 107.352 115.411C108.552 119.211 109.752 123.011 111.052 126.711Z" fill="#002E54"/>
<path d="M130.652 146.211C129.452 142.811 128.352 139.411 127.152 136.011C126.452 133.911 127.852 132.111 129.952 132.211C130.852 132.311 131.552 132.711 132.052 133.511C132.252 133.811 132.352 134.211 132.452 134.511C134.552 140.511 136.652 146.411 138.652 152.411C139.052 153.711 139.452 155.011 139.652 156.311C140.052 158.211 139.652 160.111 138.752 161.811C136.052 167.311 128.852 170.311 123.052 168.211C120.452 167.311 118.452 165.511 117.452 162.911C116.852 161.311 116.252 159.711 115.652 158.011C115.052 156.311 115.752 154.911 117.252 154.311C118.852 153.811 120.252 154.511 120.852 156.311C121.252 157.411 121.452 158.511 121.852 159.611C122.952 162.511 124.752 163.611 127.752 163.211C129.752 162.911 131.452 162.211 132.852 160.711C134.052 159.411 134.452 157.911 133.852 156.211C132.952 152.911 131.852 149.511 130.652 146.211Z" fill="#002E54"/>
<path d="M99.7524 137.711C98.7524 138.111 97.6524 138.411 96.6524 138.811C93.5524 139.811 92.3524 141.911 92.9524 145.111C93.2524 146.811 93.9524 148.311 95.0524 149.611C96.2524 151.011 97.7524 151.711 99.5524 151.011C102.152 150.111 104.652 149.311 107.252 148.411C108.652 147.911 109.752 148.411 110.452 149.611C111.352 151.211 110.752 153.011 109.052 153.611C106.852 154.411 104.652 155.311 102.452 156.011C95.6524 158.211 89.1524 154.211 87.8524 147.111C87.3524 144.711 87.3524 142.211 88.0524 139.911C88.9524 137.111 90.7524 135.111 93.4524 134.011C96.4524 132.911 99.4524 131.911 102.452 130.911C103.952 130.411 105.152 131.311 105.652 132.811C106.152 134.311 105.552 135.611 104.152 136.111C102.652 136.811 101.252 137.211 99.7524 137.711Z" fill="#002E54"/>
<path d="M138.552 124.611C137.252 125.011 135.952 125.511 134.652 125.911C132.952 126.411 131.652 125.811 131.052 124.211C130.552 122.611 131.152 121.211 132.852 120.611C135.152 119.811 137.352 118.911 139.652 118.111C146.852 115.711 153.552 119.911 154.952 127.511C155.452 130.111 155.452 132.511 154.452 134.911C153.252 137.711 151.052 139.411 148.252 140.411C145.852 141.311 143.352 142.011 140.852 142.711C139.552 143.111 138.252 142.311 137.752 140.811C137.252 139.311 137.852 138.011 139.152 137.511C141.252 136.811 143.352 136.111 145.552 135.411C149.252 134.211 150.452 131.911 149.452 128.211C149.152 127.211 148.652 126.111 148.052 125.311C146.552 123.111 144.652 122.511 142.152 123.311C140.952 123.711 139.752 124.211 138.552 124.611Z" fill="#002E54"/>
<path d="M118.152 147.711C118.652 149.311 118.052 150.611 116.552 151.211C115.052 151.711 113.652 151.011 113.152 149.511C112.652 147.911 113.252 146.511 114.752 146.011C116.352 145.411 117.652 146.211 118.152 147.711Z" fill="#002E54"/>
<path d="M124.152 126.611C123.652 125.011 124.252 123.611 125.752 123.111C127.152 122.611 128.652 123.311 129.152 124.911C129.652 126.511 129.052 127.911 127.552 128.411C126.052 128.811 124.752 128.111 124.152 126.611Z" fill="#002E54"/>
<path d="M47.6524 23.6112C48.9524 27.3112 50.1524 31.0111 51.4524 34.7111C52.0524 36.6111 50.9524 38.3112 49.0524 38.4112C47.8524 38.5112 46.9524 37.9111 46.4524 36.8111V36.7111C43.9524 29.5111 41.4524 22.3112 39.0524 15.1112C36.7524 8.31115 40.3524 4.01115 44.7524 1.61115C46.5524 0.611153 48.5524 0.0111469 50.5524 0.0111469C55.2524 -0.188853 59.1524 2.31115 60.8524 6.81115C61.7524 9.01115 62.4524 11.3112 63.1524 13.6112C63.7524 15.6112 62.5524 17.2111 60.5524 17.3111C59.3524 17.3111 58.3524 16.7111 57.9524 15.3111C57.4524 13.8111 57.0524 12.3111 56.5524 10.7111C56.2524 9.91114 55.9524 9.11115 55.5524 8.31115C54.5524 6.31115 52.9524 5.41115 50.7524 5.61115C48.6524 5.81115 46.6524 6.51115 45.0524 8.01115C43.7524 9.21115 43.3524 10.6111 43.9524 12.3111C45.1524 16.1111 46.4524 19.9112 47.6524 23.6112Z" fill="#002E54"/>
<path d="M67.3524 43.1112C66.1524 39.7112 65.0524 36.3112 63.8524 32.9112C63.1524 30.8112 64.5524 29.0112 66.6524 29.1112C67.5524 29.2112 68.2524 29.6112 68.7524 30.4112C68.9524 30.7112 69.0524 31.1112 69.1524 31.4112C71.2524 37.4112 73.3524 43.3112 75.3524 49.3112C75.7524 50.6112 76.1524 51.9111 76.3524 53.2111C76.7524 55.1111 76.3524 57.0111 75.4524 58.7111C72.7524 64.2111 65.5524 67.2111 59.7524 65.1111C57.1524 64.2111 55.1524 62.4112 54.1524 59.8112C53.5524 58.2112 52.9524 56.6112 52.3524 54.9112C51.7524 53.2112 52.3524 51.8111 53.9524 51.2111C55.5524 50.7111 56.9524 51.4111 57.5524 53.2111C57.9524 54.3111 58.1524 55.4112 58.5524 56.5112C59.6524 59.4112 61.4524 60.5111 64.4524 60.1111C66.4524 59.8111 68.1524 59.1111 69.5524 57.6111C70.7524 56.3111 71.1524 54.8112 70.5524 53.1112C69.5524 49.8112 68.4524 46.4112 67.3524 43.1112Z" fill="#002E54"/>
<path d="M36.3524 34.6112C35.3524 35.0112 34.2524 35.3112 33.2524 35.7112C30.1524 36.7112 28.9524 38.8112 29.5524 42.0112C29.8524 43.7112 30.5524 45.2112 31.6524 46.5112C32.8524 47.9112 34.3524 48.6112 36.1524 47.9112C38.7524 47.0112 41.2524 46.2112 43.8524 45.3112C45.2524 44.8112 46.3524 45.3112 47.0524 46.5112C47.9524 48.1112 47.3524 49.9112 45.6524 50.5112C43.4524 51.3112 41.2524 52.2112 39.0524 52.9112C32.2524 55.1112 25.7524 51.1112 24.4524 44.0112C23.9524 41.6112 23.9524 39.1112 24.6524 36.8112C25.5524 34.0112 27.3524 32.0112 30.0524 30.9112C33.0524 29.8112 36.0524 28.8112 39.0524 27.8112C40.5524 27.3112 41.7524 28.2112 42.2524 29.7112C42.7524 31.2112 42.1524 32.5112 40.7524 33.0112C39.2524 33.7112 37.8524 34.1112 36.3524 34.6112Z" fill="#002E54"/>
<path d="M75.2524 21.5112C73.9524 21.9112 72.6524 22.4112 71.3524 22.8112C69.6524 23.3112 68.3524 22.7112 67.7524 21.1112C67.2524 19.5112 67.8524 18.1112 69.5524 17.6112C71.8524 16.8112 74.0524 15.9112 76.3524 15.1112C83.5524 12.7112 90.2524 16.9112 91.6524 24.5112C92.1524 27.0112 92.1524 29.5112 91.1524 31.9112C89.9524 34.7112 87.7523 36.4112 84.9523 37.4112C82.5523 38.3112 80.0524 39.0112 77.5524 39.7112C76.2524 40.1112 74.9523 39.3112 74.4523 37.8112C73.9523 36.3112 74.5524 35.0112 75.8524 34.5112C77.9524 33.8112 80.0524 33.1112 82.2524 32.4112C85.9524 31.2112 87.1524 28.9112 86.1524 25.2112C85.8524 24.2112 85.3524 23.1112 84.7524 22.3112C83.2524 20.1112 81.3524 19.5112 78.8524 20.3112C77.6524 20.6112 76.4524 21.1112 75.2524 21.5112Z" fill="#002E54"/>
<path d="M54.8523 44.6111C55.3523 46.2111 54.7523 47.5111 53.2523 48.1111C51.7523 48.6111 50.3523 47.9111 49.8523 46.4111C49.3523 44.8111 49.9523 43.4111 51.4523 42.9111C52.9523 42.3111 54.2523 43.1111 54.8523 44.6111Z" fill="#002E54"/>
<path d="M60.8523 23.5111C60.3523 21.9111 60.9523 20.5111 62.4523 20.0111C63.8523 19.5111 65.3523 20.2111 65.8523 21.8111C66.3523 23.4111 65.7523 24.8111 64.2523 25.3111C62.6523 25.7111 61.3523 25.0111 60.8523 23.5111Z" fill="#002E54"/>
<path d="M99.6523 61.7111C100.452 64.1111 101.252 66.5111 102.152 68.9111C102.552 70.1111 101.852 71.2111 100.552 71.3111C99.7523 71.4111 99.1524 71.0111 98.8524 70.3111C98.8524 70.3111 98.8524 70.3111 98.8524 70.2111C97.2524 65.5111 95.5523 60.9111 94.0523 56.2111C92.5523 51.8111 94.8524 49.0111 97.7524 47.4111C98.9524 46.7111 100.252 46.4111 101.552 46.3111C104.652 46.2111 107.152 47.8111 108.252 50.7111C108.852 52.2111 109.252 53.6111 109.752 55.1111C110.152 56.4111 109.352 57.4111 108.052 57.5111C107.252 57.5111 106.652 57.1111 106.352 56.2111C106.052 55.2111 105.752 54.2111 105.452 53.2111C105.252 52.7111 105.052 52.1111 104.752 51.7111C104.052 50.4111 103.052 49.8111 101.652 50.0111C100.252 50.2111 98.9523 50.6111 97.9523 51.6111C97.1523 52.4111 96.8524 53.3111 97.2524 54.4111C98.0524 56.9111 98.8523 59.3111 99.6523 61.7111Z" fill="#002E54"/>
<path d="M112.452 74.4113C111.652 72.2113 110.952 70.0113 110.152 67.7113C109.752 66.4113 110.552 65.2113 111.952 65.3113C112.552 65.3113 113.052 65.6113 113.252 66.2113C113.352 66.4113 113.452 66.6113 113.552 66.9113C114.952 70.8113 116.252 74.7113 117.552 78.5113C117.852 79.3113 118.052 80.2112 118.252 81.1112C118.452 82.4112 118.252 83.6113 117.652 84.7113C115.852 88.3113 111.152 90.2113 107.452 88.9113C105.752 88.3113 104.452 87.1113 103.752 85.4113C103.352 84.4113 102.952 83.3113 102.552 82.2113C102.152 81.1113 102.552 80.2113 103.652 79.8113C104.652 79.4113 105.652 79.9112 105.952 81.1112C106.152 81.8112 106.352 82.5113 106.652 83.2113C107.352 85.1113 108.552 85.8113 110.452 85.5113C111.752 85.3113 112.852 84.8113 113.752 83.9113C114.552 83.1113 114.752 82.1113 114.452 81.0113C113.952 78.8113 113.252 76.6113 112.452 74.4113Z" fill="#002E54"/>
<path d="M92.3524 68.9113C91.6524 69.1113 90.9524 69.4112 90.3524 69.6112C88.3524 70.3112 87.5523 71.6113 87.9523 73.7113C88.1523 74.8113 88.5524 75.8112 89.3524 76.6112C90.1524 77.5112 91.0523 77.9113 92.2523 77.5113C93.9523 76.9113 95.5523 76.4113 97.2523 75.8113C98.1523 75.5113 98.8524 75.8112 99.3524 76.6112C99.9524 77.6112 99.5523 78.8113 98.4523 79.2113C97.0523 79.7113 95.6523 80.3113 94.1523 80.8113C89.7523 82.2113 85.5523 79.6113 84.6523 75.0113C84.3523 73.4113 84.2523 71.8113 84.7523 70.3113C85.3523 68.5113 86.5523 67.1113 88.2523 66.5113C90.1523 65.8113 92.1523 65.1113 94.1523 64.5113C95.1523 64.2113 95.9523 64.7113 96.2523 65.7113C96.5523 66.7113 96.1523 67.5113 95.2523 67.9113C94.2523 68.3113 93.2524 68.6113 92.3524 68.9113Z" fill="#002E54"/>
<path d="M117.652 60.311C116.852 60.611 115.952 60.911 115.152 61.211C114.052 61.611 113.152 61.111 112.852 60.111C112.452 59.111 112.952 58.211 113.952 57.811C115.452 57.311 116.852 56.711 118.352 56.211C123.052 54.611 127.452 57.311 128.352 62.311C128.652 64.011 128.652 65.611 128.052 67.111C127.252 69.011 125.852 70.011 124.052 70.711C122.452 71.311 120.852 71.711 119.252 72.211C118.352 72.511 117.552 71.9111 117.252 71.0111C116.952 70.0111 117.352 69.211 118.152 68.811C119.552 68.311 120.952 67.9111 122.352 67.4111C124.752 66.6111 125.552 65.111 124.852 62.711C124.652 62.011 124.352 61.411 123.952 60.811C122.952 59.311 121.752 59.0111 120.052 59.5111C119.152 59.8111 118.352 60.111 117.652 60.311Z" fill="#002E54"/>
<path d="M104.352 75.4112C104.652 76.4112 104.252 77.3112 103.352 77.6112C102.352 77.9112 101.452 77.5112 101.152 76.5112C100.752 75.5112 101.252 74.5112 102.252 74.2112C103.152 73.9112 103.952 74.4112 104.352 75.4112Z" fill="#002E54"/>
<path d="M108.252 61.611C107.952 60.611 108.352 59.7111 109.252 59.3111C110.152 59.0111 111.152 59.4111 111.452 60.4111C111.852 61.4111 111.352 62.3111 110.452 62.7111C109.452 63.1111 108.552 62.611 108.252 61.611Z" fill="#002E54"/>
<path d="M137.552 88.4111C138.052 90.0111 138.652 91.6111 139.152 93.2111C139.452 94.0111 138.952 94.7111 138.152 94.8111C137.652 94.8111 137.252 94.611 137.052 94.111C135.952 91.011 134.852 87.9111 133.852 84.9111C132.852 82.0111 134.452 80.111 136.252 79.111C137.052 78.711 137.852 78.4111 138.752 78.4111C140.752 78.3111 142.452 79.4111 143.152 81.3111C143.552 82.3111 143.852 83.2111 144.152 84.2111C144.452 85.0111 143.952 85.7111 143.052 85.8111C142.552 85.8111 142.152 85.5111 141.952 85.0111C141.752 84.4111 141.552 83.7111 141.352 83.0111C141.252 82.6111 141.052 82.3111 140.952 82.0111C140.552 81.2111 139.852 80.8111 138.852 80.9111C137.952 81.0111 137.052 81.3111 136.452 81.9111C135.952 82.4111 135.752 83.0111 135.952 83.7111C136.452 85.2111 137.052 86.8111 137.552 88.4111Z" fill="#002E54"/>
<path d="M145.952 96.7111C145.452 95.2111 144.952 93.8111 144.452 92.3111C144.152 91.4111 144.752 90.6111 145.652 90.7111C146.052 90.7111 146.352 90.9111 146.552 91.3111C146.652 91.4111 146.652 91.6111 146.752 91.7111C147.652 94.3111 148.552 96.8111 149.452 99.4111C149.652 99.9111 149.752 100.511 149.852 101.111C150.052 101.911 149.852 102.711 149.452 103.511C148.252 105.911 145.152 107.111 142.752 106.311C141.652 105.911 140.752 105.111 140.352 104.011C140.052 103.311 139.852 102.611 139.552 101.911C139.252 101.211 139.552 100.611 140.252 100.311C140.952 100.111 141.552 100.411 141.752 101.111C141.952 101.611 142.052 102.111 142.152 102.511C142.652 103.711 143.352 104.211 144.652 104.011C145.452 103.911 146.252 103.611 146.852 102.911C147.352 102.411 147.552 101.711 147.252 101.011C146.952 99.6111 146.452 98.2111 145.952 96.7111Z" fill="#002E54"/>
<path d="M132.752 93.1112C132.252 93.3112 131.852 93.4112 131.352 93.6112C130.052 94.1112 129.452 94.9112 129.752 96.3112C129.852 97.0112 130.152 97.7112 130.652 98.2112C131.152 98.8112 131.752 99.1112 132.552 98.8112C133.652 98.4112 134.752 98.1112 135.852 97.7112C136.452 97.5112 136.952 97.7112 137.252 98.2112C137.652 98.9112 137.352 99.7112 136.652 99.9112C135.752 100.211 134.752 100.611 133.852 100.911C130.952 101.811 128.152 100.111 127.552 97.1112C127.352 96.1112 127.352 95.0112 127.652 94.0112C128.052 92.8112 128.852 91.9112 129.952 91.5112C131.252 91.0112 132.552 90.6112 133.852 90.2112C134.452 90.0112 135.052 90.4112 135.252 91.0112C135.452 91.6112 135.252 92.2112 134.552 92.4112C133.952 92.7112 133.352 92.9112 132.752 93.1112Z" fill="#002E54"/>
<path d="M149.352 87.4112C148.752 87.6112 148.252 87.8112 147.652 88.0112C146.952 88.2112 146.352 88.0112 146.152 87.3112C145.952 86.6112 146.252 86.0112 146.952 85.8112C147.952 85.4112 148.852 85.1112 149.852 84.7112C152.952 83.7112 155.852 85.5112 156.452 88.7112C156.652 89.8112 156.652 90.9112 156.252 91.9112C155.752 93.1112 154.752 93.8112 153.652 94.3112C152.652 94.7112 151.552 95.0112 150.452 95.3112C149.852 95.5112 149.352 95.1112 149.152 94.5112C148.952 93.9112 149.152 93.3112 149.752 93.1112C150.652 92.8112 151.552 92.5112 152.452 92.2112C154.052 91.7112 154.552 90.7112 154.152 89.1112C154.052 88.7112 153.852 88.2112 153.552 87.8112C152.852 86.8112 152.052 86.6112 151.052 87.0112C150.352 87.1112 149.852 87.3112 149.352 87.4112Z" fill="#002E54"/>
<path d="M140.652 97.4111C140.852 98.1111 140.652 98.7111 139.952 98.9111C139.352 99.1111 138.752 98.8111 138.452 98.2111C138.252 97.5111 138.452 96.9111 139.152 96.7111C139.852 96.4111 140.352 96.7111 140.652 97.4111Z" fill="#002E54"/>
<path d="M143.152 88.3111C142.952 87.6111 143.152 87.0111 143.852 86.8111C144.452 86.6111 145.052 86.9111 145.352 87.6111C145.552 88.3111 145.352 88.9111 144.652 89.1111C143.952 89.3111 143.452 89.0111 143.152 88.3111Z" fill="#002E54"/>
<path d="M166.352 179.611C168.052 184.711 169.852 189.811 171.552 194.911C172.452 197.511 170.852 199.811 168.152 200.011C166.552 200.111 165.252 199.311 164.652 197.811V197.711C161.252 187.811 157.752 178.011 154.452 168.011C151.352 158.711 156.252 152.711 162.252 149.411C164.752 148.011 167.452 147.311 170.252 147.111C176.752 146.911 182.052 150.311 184.452 156.411C185.652 159.511 186.652 162.611 187.652 165.711C188.552 168.411 186.852 170.711 184.052 170.711C182.352 170.711 181.052 169.811 180.452 168.011C179.752 165.911 179.252 163.811 178.552 161.711C178.152 160.611 177.752 159.511 177.152 158.411C175.752 155.711 173.552 154.411 170.552 154.711C167.652 155.011 164.952 156.011 162.752 158.011C161.052 159.611 160.452 161.611 161.252 163.911C162.852 169.311 164.652 174.511 166.352 179.611Z" fill="#002E54"/>
<path d="M193.352 206.411C191.752 201.711 190.152 197.011 188.552 192.311C187.552 189.411 189.452 186.911 192.452 187.111C193.752 187.211 194.752 187.711 195.252 188.911C195.452 189.411 195.652 189.811 195.852 190.311C198.752 198.511 201.552 206.711 204.452 214.911C205.052 216.711 205.452 218.511 205.852 220.311C206.352 223.011 205.852 225.511 204.652 227.911C200.952 235.511 190.952 239.511 183.052 236.711C179.452 235.411 176.752 233.011 175.352 229.311C174.452 227.111 173.652 224.911 172.852 222.611C172.052 220.211 172.952 218.311 175.152 217.611C177.352 216.911 179.252 217.911 180.052 220.311C180.552 221.811 180.952 223.411 181.452 224.811C182.952 228.811 185.452 230.311 189.552 229.811C192.252 229.411 194.652 228.411 196.552 226.411C198.252 224.611 198.752 222.611 197.952 220.211C196.452 215.711 194.952 211.011 193.352 206.411Z" fill="#002E54"/>
<path d="M150.852 194.811C149.452 195.311 147.952 195.811 146.552 196.311C142.352 197.711 140.652 200.511 141.452 205.011C141.852 207.311 142.852 209.411 144.352 211.211C146.052 213.211 148.052 214.011 150.552 213.211C154.052 212.011 157.552 210.811 161.152 209.611C163.052 209.011 164.552 209.611 165.552 211.311C166.852 213.511 165.952 216.011 163.652 216.811C160.652 217.911 157.652 219.111 154.652 220.111C145.352 223.111 136.352 217.611 134.552 207.811C133.952 204.411 133.852 201.111 134.852 197.811C136.052 193.911 138.552 191.111 142.352 189.711C146.452 188.111 150.652 186.811 154.752 185.511C156.752 184.911 158.552 186.011 159.252 188.111C159.952 190.211 159.152 192.011 157.152 192.711C154.852 193.511 152.852 194.111 150.852 194.811Z" fill="#002E54"/>
<path d="M204.252 176.711C202.452 177.311 200.752 177.911 198.952 178.511C196.652 179.311 194.852 178.411 194.052 176.211C193.352 174.011 194.252 172.111 196.452 171.311C199.552 170.211 202.652 168.911 205.852 167.911C215.752 164.611 224.952 170.311 226.852 180.811C227.452 184.311 227.452 187.711 226.152 191.011C224.552 194.911 221.452 197.211 217.652 198.611C214.352 199.811 210.852 200.811 207.452 201.811C205.552 202.311 203.852 201.211 203.252 199.211C202.652 197.211 203.352 195.311 205.252 194.611C208.152 193.611 211.052 192.611 214.052 191.711C219.052 190.111 220.852 186.911 219.452 181.711C219.052 180.311 218.352 178.911 217.552 177.711C215.452 174.611 212.852 173.811 209.352 175.011C207.552 175.511 205.952 176.111 204.252 176.711Z" fill="#002E54"/>
<path d="M176.252 208.511C176.952 210.711 176.152 212.511 174.052 213.211C172.052 213.911 170.152 212.911 169.352 210.811C168.552 208.611 169.552 206.611 171.552 206.011C173.652 205.411 175.452 206.411 176.252 208.511Z" fill="#002E54"/>
<path d="M184.452 179.411C183.752 177.311 184.552 175.311 186.552 174.611C188.552 173.911 190.452 174.911 191.252 177.011C191.952 179.111 191.152 181.111 189.052 181.811C187.052 182.511 185.152 181.611 184.452 179.411Z" fill="#002E54"/>
<path d="M245.152 204.011C246.452 207.711 247.652 211.411 248.952 215.111C249.552 217.011 248.452 218.711 246.552 218.811C245.352 218.911 244.452 218.311 243.952 217.211V217.111C241.452 209.911 238.952 202.711 236.552 195.511C234.252 188.711 237.852 184.411 242.252 182.011C244.052 181.011 246.052 180.411 248.052 180.411C252.752 180.211 256.652 182.711 258.352 187.211C259.252 189.411 259.952 191.711 260.652 194.011C261.252 196.011 260.052 197.611 258.052 197.711C256.852 197.711 255.852 197.111 255.452 195.711C254.952 194.211 254.552 192.711 254.052 191.211C253.752 190.411 253.452 189.611 253.052 188.811C252.052 186.811 250.452 185.911 248.252 186.111C246.152 186.311 244.152 187.011 242.552 188.511C241.252 189.711 240.852 191.111 241.452 192.811C242.552 196.511 243.852 200.211 245.152 204.011Z" fill="#002E54"/>
<path d="M264.752 223.511C263.552 220.111 262.452 216.711 261.252 213.311C260.552 211.211 261.952 209.411 264.052 209.511C264.952 209.611 265.652 210.011 266.152 210.811C266.352 211.111 266.452 211.511 266.552 211.811C268.652 217.811 270.752 223.711 272.752 229.711C273.152 231.011 273.552 232.311 273.752 233.611C274.152 235.511 273.752 237.411 272.852 239.111C270.152 244.611 262.952 247.611 257.152 245.511C254.552 244.611 252.552 242.811 251.552 240.211C250.952 238.611 250.352 237.011 249.752 235.311C249.152 233.611 249.852 232.211 251.352 231.611C252.952 231.111 254.352 231.811 254.952 233.611C255.352 234.711 255.552 235.811 255.952 236.911C257.052 239.811 258.852 240.911 261.852 240.511C263.852 240.211 265.552 239.511 266.952 238.011C268.152 236.711 268.552 235.211 267.952 233.511C267.052 230.211 265.852 226.811 264.752 223.511Z" fill="#002E54"/>
<path d="M233.852 215.011C232.852 215.411 231.752 215.711 230.752 216.111C227.652 217.111 226.452 219.211 227.052 222.411C227.352 224.111 228.052 225.611 229.152 226.911C230.352 228.311 231.852 229.011 233.652 228.311C236.252 227.411 238.752 226.611 241.352 225.711C242.752 225.211 243.852 225.711 244.552 226.911C245.452 228.511 244.852 230.311 243.152 230.911C240.952 231.711 238.852 232.611 236.552 233.311C229.752 235.511 223.252 231.511 221.952 224.411C221.452 222.011 221.452 219.511 222.152 217.211C223.052 214.411 224.852 212.411 227.552 211.311C230.552 210.211 233.552 209.211 236.552 208.211C238.052 207.711 239.252 208.611 239.752 210.111C240.252 211.611 239.652 212.911 238.252 213.411C236.752 214.111 235.252 214.511 233.852 215.011Z" fill="#002E54"/>
<path d="M272.652 201.811C271.352 202.211 270.052 202.711 268.752 203.111C267.052 203.611 265.752 203.011 265.152 201.411C264.652 199.811 265.252 198.411 266.952 197.911C269.252 197.111 271.452 196.211 273.752 195.411C280.952 193.011 287.652 197.211 289.052 204.811C289.552 207.411 289.552 209.811 288.552 212.211C287.352 215.011 285.152 216.711 282.352 217.711C279.952 218.611 277.452 219.311 274.952 220.011C273.652 220.411 272.352 219.611 271.852 218.111C271.352 216.611 271.952 215.311 273.252 214.811C275.352 214.111 277.452 213.411 279.652 212.711C283.352 211.511 284.552 209.211 283.552 205.511C283.252 204.511 282.752 203.411 282.152 202.611C280.652 200.411 278.752 199.811 276.252 200.611C275.052 201.011 273.852 201.411 272.652 201.811Z" fill="#002E54"/>
<path d="M252.252 225.011C252.752 226.611 252.152 227.911 250.652 228.511C249.152 229.011 247.752 228.311 247.252 226.811C246.752 225.211 247.352 223.811 248.852 223.311C250.352 222.711 251.752 223.411 252.252 225.011Z" fill="#002E54"/>
<path d="M258.252 203.811C257.752 202.211 258.352 200.811 259.852 200.311C261.252 199.811 262.752 200.511 263.252 202.111C263.752 203.711 263.152 205.111 261.652 205.611C260.152 206.111 258.752 205.411 258.252 203.811Z" fill="#002E54"/>
<path d="M181.752 100.911C183.052 104.611 184.252 108.311 185.552 112.011C186.152 113.911 185.052 115.611 183.152 115.711C181.952 115.811 181.052 115.211 180.552 114.111V114.011C178.052 106.811 175.552 99.6112 173.152 92.4112C170.852 85.6112 174.452 81.3112 178.852 78.9112C180.652 77.9112 182.652 77.3112 184.652 77.3112C189.352 77.1112 193.252 79.6112 194.952 84.1112C195.852 86.3112 196.552 88.6112 197.252 90.9112C197.852 92.9112 196.652 94.5112 194.652 94.6112C193.452 94.6112 192.452 94.0112 192.052 92.6112C191.552 91.1112 191.152 89.6112 190.652 88.0112C190.352 87.2112 190.052 86.4112 189.652 85.6112C188.652 83.6112 187.052 82.7112 184.852 82.9112C182.752 83.1112 180.752 83.8112 179.152 85.3112C177.852 86.5112 177.452 87.9112 178.052 89.6112C179.252 93.4112 180.452 97.1112 181.752 100.911Z" fill="#002E54"/>
<path d="M201.352 120.411C200.152 117.011 199.052 113.611 197.852 110.211C197.152 108.111 198.552 106.311 200.652 106.411C201.552 106.511 202.252 106.911 202.752 107.711C202.952 108.011 203.052 108.411 203.152 108.711C205.252 114.711 207.352 120.611 209.352 126.611C209.752 127.911 210.152 129.211 210.352 130.511C210.752 132.411 210.352 134.311 209.452 136.011C206.752 141.511 199.552 144.511 193.752 142.411C191.052 141.511 189.152 139.711 188.152 137.111C187.552 135.511 186.952 133.911 186.352 132.211C185.752 130.511 186.352 129.111 187.952 128.511C189.552 128.011 190.952 128.711 191.552 130.511C191.952 131.611 192.152 132.711 192.552 133.811C193.652 136.711 195.452 137.811 198.452 137.411C200.452 137.111 202.152 136.411 203.552 134.911C204.752 133.611 205.152 132.111 204.552 130.411C203.652 127.111 202.552 123.711 201.352 120.411Z" fill="#002E54"/>
<path d="M170.452 111.911C169.452 112.311 168.352 112.611 167.352 113.011C164.252 114.011 163.052 116.111 163.652 119.311C163.952 121.011 164.652 122.511 165.752 123.811C166.952 125.211 168.452 125.911 170.252 125.211C172.852 124.311 175.352 123.511 177.952 122.611C179.352 122.111 180.452 122.611 181.152 123.811C182.052 125.411 181.452 127.211 179.752 127.811C177.552 128.611 175.452 129.511 173.152 130.211C166.352 132.411 159.852 128.411 158.552 121.311C158.052 118.911 158.052 116.411 158.752 114.111C159.652 111.311 161.452 109.311 164.152 108.211C167.152 107.111 170.152 106.111 173.152 105.111C174.652 104.611 175.852 105.511 176.352 107.011C176.852 108.511 176.252 109.811 174.852 110.311C173.352 111.011 171.852 111.411 170.452 111.911Z" fill="#002E54"/>
<path d="M209.252 98.7111C207.952 99.1111 206.652 99.6111 205.352 100.011C203.652 100.511 202.352 99.9111 201.752 98.3111C201.252 96.7111 201.852 95.3111 203.552 94.7111C205.852 93.9111 208.052 93.0111 210.352 92.2111C217.552 89.8111 224.252 94.0111 225.652 101.611C226.152 104.111 226.152 106.611 225.152 109.011C223.952 111.811 221.752 113.511 218.952 114.511C216.552 115.411 214.052 116.111 211.552 116.811C210.252 117.211 208.952 116.411 208.452 114.911C207.952 113.411 208.552 112.111 209.852 111.611C211.952 110.911 214.052 110.211 216.252 109.511C219.952 108.311 221.152 106.011 220.152 102.311C219.852 101.311 219.352 100.211 218.752 99.4111C217.252 97.2111 215.352 96.6111 212.852 97.4111C211.652 97.9111 210.452 98.3111 209.252 98.7111Z" fill="#002E54"/>
<path d="M188.852 121.911C189.352 123.511 188.752 124.811 187.252 125.411C185.752 125.911 184.352 125.211 183.852 123.711C183.352 122.111 183.952 120.711 185.452 120.211C186.952 119.611 188.352 120.311 188.852 121.911Z" fill="#002E54"/>
<path d="M194.852 100.711C194.352 99.1111 194.952 97.7111 196.452 97.2111C197.852 96.7111 199.352 97.4111 199.852 99.0111C200.352 100.611 199.752 102.011 198.252 102.511C196.752 103.011 195.452 102.311 194.852 100.711Z" fill="#002E54"/>
<path d="M233.752 139.011C234.552 141.411 235.352 143.811 236.252 146.211C236.652 147.411 235.952 148.511 234.652 148.611C233.852 148.711 233.252 148.311 232.952 147.611C232.952 147.611 232.952 147.611 232.952 147.511C231.352 142.811 229.652 138.211 228.152 133.511C226.652 129.111 228.952 126.311 231.852 124.711C233.052 124.011 234.352 123.711 235.652 123.611C238.752 123.511 241.252 125.111 242.352 128.011C242.952 129.511 243.352 130.911 243.852 132.411C244.252 133.711 243.452 134.711 242.152 134.811C241.352 134.811 240.752 134.411 240.452 133.511C240.152 132.511 239.852 131.511 239.552 130.511C239.352 130.011 239.152 129.411 238.852 129.011C238.152 127.711 237.152 127.111 235.752 127.311C234.352 127.511 233.052 127.911 232.052 128.911C231.252 129.711 230.952 130.611 231.352 131.711C232.152 134.111 232.952 136.611 233.752 139.011Z" fill="#002E54"/>
<path d="M246.552 151.711C245.752 149.511 245.052 147.311 244.252 145.011C243.852 143.711 244.752 142.511 246.052 142.611C246.652 142.611 247.152 142.911 247.352 143.511C247.452 143.711 247.552 143.911 247.652 144.211C249.052 148.111 250.352 152.011 251.652 155.811C251.952 156.611 252.152 157.511 252.352 158.411C252.552 159.711 252.352 160.911 251.752 162.011C249.952 165.611 245.252 167.511 241.552 166.211C239.852 165.611 238.552 164.411 237.852 162.711C237.452 161.711 237.052 160.611 236.652 159.511C236.252 158.411 236.652 157.511 237.752 157.111C238.752 156.711 239.752 157.211 240.052 158.411C240.252 159.111 240.452 159.811 240.752 160.511C241.452 162.411 242.652 163.111 244.552 162.811C245.852 162.611 246.952 162.111 247.852 161.211C248.652 160.411 248.852 159.411 248.552 158.311C248.052 156.111 247.252 153.911 246.552 151.711Z" fill="#002E54"/>
<path d="M226.352 146.211C225.652 146.411 224.952 146.711 224.352 146.911C222.352 147.611 221.552 148.911 221.952 151.011C222.152 152.111 222.552 153.111 223.352 153.911C224.152 154.811 225.052 155.211 226.252 154.811C227.952 154.211 229.552 153.711 231.252 153.111C232.152 152.811 232.852 153.111 233.352 153.911C233.952 154.911 233.552 156.111 232.452 156.511C231.052 157.011 229.652 157.611 228.152 158.111C223.752 159.511 219.552 156.911 218.652 152.311C218.352 150.711 218.252 149.111 218.752 147.611C219.352 145.811 220.552 144.411 222.252 143.811C224.152 143.111 226.152 142.411 228.152 141.811C229.152 141.511 229.952 142.011 230.252 143.011C230.552 144.011 230.152 144.811 229.252 145.211C228.252 145.611 227.352 145.911 226.352 146.211Z" fill="#002E54"/>
<path d="M251.652 137.611C250.852 137.911 249.952 138.211 249.152 138.511C248.052 138.911 247.152 138.411 246.852 137.411C246.452 136.411 246.952 135.511 247.952 135.111C249.452 134.611 250.852 134.011 252.352 133.511C257.052 132.011 261.452 134.611 262.352 139.611C262.652 141.311 262.652 142.911 262.052 144.411C261.252 146.311 259.852 147.311 258.052 148.011C256.452 148.611 254.852 149.011 253.252 149.511C252.352 149.811 251.552 149.211 251.252 148.311C250.952 147.311 251.352 146.511 252.152 146.111C253.552 145.611 254.952 145.211 256.352 144.711C258.752 143.911 259.552 142.411 258.852 140.011C258.652 139.311 258.352 138.711 257.952 138.111C256.952 136.611 255.752 136.311 254.052 136.811C253.252 137.111 252.452 137.311 251.652 137.611Z" fill="#002E54"/>
<path d="M238.452 152.711C238.752 153.711 238.352 154.611 237.452 154.911C236.452 155.211 235.552 154.811 235.252 153.811C234.852 152.811 235.352 151.811 236.352 151.511C237.152 151.211 238.052 151.711 238.452 152.711Z" fill="#002E54"/>
<path d="M242.252 138.911C241.952 137.911 242.352 137.011 243.252 136.611C244.152 136.311 245.152 136.711 245.452 137.711C245.752 138.711 245.352 139.611 244.452 140.011C243.552 140.411 242.652 139.911 242.252 138.911Z" fill="#002E54"/>
<path d="M271.652 165.611C272.152 167.211 272.752 168.811 273.252 170.411C273.552 171.211 273.052 171.911 272.252 172.011C271.752 172.011 271.352 171.811 271.152 171.311C270.052 168.211 268.952 165.111 267.952 162.111C266.952 159.211 268.552 157.311 270.352 156.311C271.152 155.911 271.952 155.611 272.852 155.611C274.852 155.511 276.552 156.611 277.252 158.511C277.652 159.511 277.952 160.411 278.252 161.411C278.552 162.211 278.052 162.911 277.152 163.011C276.652 163.011 276.252 162.711 276.052 162.211C275.852 161.611 275.652 160.911 275.452 160.211C275.352 159.811 275.152 159.511 275.052 159.211C274.652 158.411 273.952 158.011 272.952 158.111C272.052 158.211 271.152 158.511 270.552 159.111C270.052 159.611 269.852 160.211 270.052 160.911C270.552 162.411 271.052 164.011 271.652 165.611Z" fill="#002E54"/>
<path d="M280.052 174.011C279.552 172.511 279.052 171.111 278.552 169.611C278.252 168.711 278.852 167.911 279.752 168.011C280.152 168.011 280.452 168.211 280.652 168.611C280.752 168.711 280.752 168.911 280.852 169.011C281.752 171.611 282.652 174.111 283.552 176.711C283.752 177.211 283.852 177.811 283.952 178.411C284.152 179.211 283.952 180.011 283.552 180.811C282.352 183.211 279.252 184.411 276.852 183.611C275.752 183.211 274.852 182.411 274.452 181.311C274.152 180.611 273.952 179.911 273.652 179.211C273.352 178.511 273.652 177.911 274.352 177.611C275.052 177.411 275.652 177.711 275.852 178.411C276.052 178.911 276.152 179.411 276.252 179.811C276.752 181.011 277.452 181.511 278.752 181.311C279.552 181.211 280.352 180.911 280.952 180.211C281.452 179.611 281.652 179.011 281.352 178.311C281.052 176.911 280.552 175.411 280.052 174.011Z" fill="#002E54"/>
<path d="M266.752 170.411C266.252 170.611 265.852 170.711 265.352 170.911C264.052 171.411 263.552 172.211 263.752 173.611C263.852 174.311 264.152 175.011 264.652 175.511C265.152 176.111 265.752 176.411 266.552 176.111C267.652 175.711 268.752 175.411 269.852 175.011C270.452 174.811 270.952 175.011 271.252 175.511C271.652 176.211 271.352 177.011 270.652 177.211C269.752 177.511 268.752 177.911 267.852 178.211C264.952 179.111 262.152 177.411 261.552 174.411C261.352 173.411 261.352 172.311 261.652 171.311C262.052 170.111 262.852 169.211 263.952 168.811C265.252 168.311 266.552 167.911 267.852 167.511C268.452 167.311 269.052 167.711 269.252 168.311C269.452 168.911 269.252 169.511 268.552 169.711C268.052 170.011 267.452 170.211 266.752 170.411Z" fill="#002E54"/>
<path d="M283.452 164.711C282.852 164.911 282.352 165.111 281.752 165.311C281.052 165.511 280.452 165.311 280.252 164.611C280.052 163.911 280.352 163.311 281.052 163.111C282.052 162.711 282.952 162.411 283.952 162.011C287.052 161.011 289.952 162.811 290.552 166.011C290.752 167.111 290.752 168.211 290.352 169.211C289.852 170.411 288.852 171.111 287.752 171.611C286.752 172.011 285.652 172.311 284.552 172.611C283.952 172.811 283.452 172.411 283.252 171.811C283.052 171.211 283.252 170.611 283.852 170.411C284.752 170.111 285.652 169.811 286.552 169.511C288.152 169.011 288.652 168.011 288.252 166.411C288.152 166.011 287.952 165.511 287.652 165.111C286.952 164.111 286.152 163.911 285.052 164.311C284.452 164.411 283.952 164.511 283.452 164.711Z" fill="#002E54"/>
<path d="M274.652 174.611C274.852 175.311 274.652 175.911 273.952 176.111C273.352 176.311 272.752 176.011 272.452 175.411C272.252 174.711 272.452 174.111 273.152 173.911C273.852 173.711 274.452 174.011 274.652 174.611Z" fill="#002E54"/>
<path d="M277.252 165.611C277.052 164.911 277.252 164.311 277.952 164.111C278.552 163.911 279.152 164.211 279.452 164.911C279.652 165.611 279.452 166.211 278.752 166.411C278.052 166.511 277.452 166.211 277.252 165.611Z" fill="#002E54"/>
</svg>
