<?xml version="1.0" encoding="utf-8"?>
<!-- Generator: Adobe Illustrator 21.1.0, SVG Export Plug-In . SVG Version: 6.00 Build 0)  -->
<svg version="1.1" id="Capa_1" xmlns="http://www.w3.org/2000/svg" xmlns:xlink="http://www.w3.org/1999/xlink" x="0px" y="0px"
	 viewBox="0 0 792 500" style="enable-background:new 0 0 792 500;" xml:space="preserve">
<style type="text/css">
	.st0{fill:#002E54;}
</style>
<g>
	<g>
		<path class="st0" d="M397.4,302.5c-0.1,5.4-0.3,10.8-0.4,16.2c-0.1,2.8-2.3,4.4-4.9,3.6c-1.5-0.4-2.5-1.7-2.6-3.3c0,0,0-0.1,0-0.1
			c0.2-10.5,0.3-20.9,0.6-31.4c0.3-9.8,6.9-13.7,13.7-14.8c2.8-0.4,5.6-0.2,8.3,0.7c6.1,2,10,7.1,10.1,13.6c0.1,3.3-0.1,6.6-0.2,9.9
			c-0.1,2.8-2.5,4.4-5.1,3.5c-1.6-0.5-2.5-1.9-2.4-3.8c0.1-2.2,0.3-4.3,0.4-6.5c0-1.2,0-2.4-0.2-3.5c-0.4-3-2-5-5-5.7
			c-2.9-0.7-5.7-0.8-8.5,0.4c-2.2,0.9-3.4,2.6-3.5,5C397.7,291.6,397.6,297,397.4,302.5"/>
		<path class="st0" d="M413.6,336.9c0.1-5,0.2-9.9,0.4-14.9c0.1-3,2.7-4.7,5.4-3.5c1.2,0.5,1.9,1.4,2.1,2.7c0.1,0.5,0.1,1,0.1,1.5
			c-0.1,8.7-0.2,17.4-0.4,26c0,1.9-0.3,3.7-0.6,5.5c-0.4,2.7-1.8,4.9-3.7,6.7c-6.1,5.8-16.8,6.2-23.3,0.9c-3-2.5-4.6-5.6-4.7-9.6
			c-0.1-2.4-0.1-4.8,0-7.1c0.1-2.5,1.5-4,3.9-4c2.3,0.1,3.8,1.7,3.7,4.2c0,1.6-0.2,3.2-0.2,4.7c0,4.3,1.8,6.6,5.9,7.4
			c2.6,0.6,5.3,0.4,7.8-0.8c2.2-1.1,3.4-2.8,3.4-5.3C413.3,346.7,413.5,341.8,413.6,336.9"/>
		<path class="st0" d="M377.6,311.4c-1.5,0-3-0.1-4.6-0.1c-4.5-0.1-7,1.9-7.8,6.4c-0.4,2.3-0.2,4.6,0.6,6.8c0.9,2.4,2.5,3.9,5.1,4
			c3.7,0.1,7.4,0.2,11.1,0.3c2,0.1,3.2,1.1,3.6,3.1c0.4,2.5-1.2,4.5-3.7,4.5c-3.2,0-6.4,0.1-9.6,0c-9.8-0.4-16.3-8.6-14.7-18.5
			c0.6-3.4,1.6-6.5,3.7-9.3c2.5-3.3,5.8-5,9.8-5c4.4-0.1,8.7,0.1,13.1,0.3c2.1,0.1,3.4,1.8,3.3,4c-0.1,2.2-1.4,3.6-3.6,3.6
			C381.8,311.5,379.7,311.4,377.6,311.4C377.6,311.4,377.6,311.4,377.6,311.4"/>
		<path class="st0" d="M434,312.7c-1.9,0-3.7-0.1-5.6-0.1c-2.4-0.1-3.9-1.5-3.8-3.9c0-2.3,1.6-3.8,3.9-3.8c3.3,0,6.6-0.1,10,0
			c10.5,0.3,17.1,8.9,15.3,19.4c-0.6,3.5-1.8,6.7-4.2,9.4c-2.9,3.1-6.6,4.2-10.6,4.2c-3.5,0-7.1-0.2-10.6-0.5
			c-1.9-0.1-3.2-1.8-3.1-3.9c0.1-2.1,1.5-3.6,3.4-3.6c3.1,0,6.2,0.1,9.3,0.3c5.3,0.2,8-2.1,8.5-7.5c0.1-1.5,0-3-0.4-4.5
			c-0.9-3.6-3.1-5.2-6.8-5.4C437.5,312.8,435.8,312.8,434,312.7"/>
		<path class="st0" d="M396.7,333c-0.1,2.3-1.5,3.8-3.7,3.7c-2.2,0-3.6-1.6-3.6-3.8c0-2.3,1.6-3.9,3.8-3.8
			C395.4,329.2,396.8,330.7,396.7,333"/>
		<path class="st0" d="M414.5,308.5c0-2.3,1.5-3.8,3.7-3.8c2.1,0,3.6,1.7,3.6,3.9c0,2.3-1.5,3.8-3.7,3.7
			C415.8,312.3,414.4,310.8,414.5,308.5"/>
	</g>
	<g>
		<path class="st0" d="M475.6,338c-0.1,3.9-0.1,7.8-0.2,11.8c0,2-1.6,3.2-3.6,2.7c-1.1-0.3-1.8-1.2-1.9-2.4c0,0,0-0.1,0-0.1
			c0.1-7.6,0.1-15.2,0.2-22.8c0.1-7.1,4.9-10,9.9-10.8c2-0.3,4.1-0.2,6.1,0.4c4.5,1.4,7.3,5.1,7.4,9.8c0.1,2.4,0,4.8-0.1,7.2
			c-0.1,2.1-1.8,3.2-3.7,2.6c-1.2-0.4-1.8-1.3-1.8-2.7c0.1-1.6,0.2-3.2,0.2-4.7c0-0.9,0-1.7-0.2-2.6c-0.3-2.2-1.5-3.6-3.7-4.1
			c-2.1-0.5-4.2-0.5-6.2,0.3c-1.6,0.7-2.5,1.9-2.5,3.7C475.7,330.1,475.7,334,475.6,338"/>
		<path class="st0" d="M487.6,362.9c0.1-3.6,0.1-7.2,0.2-10.8c0-2.2,2-3.4,3.9-2.6c0.8,0.4,1.4,1,1.5,1.9c0,0.4,0.1,0.7,0.1,1.1
			c0,6.3-0.1,12.6-0.1,18.9c0,1.3-0.2,2.7-0.4,4c-0.3,1.9-1.2,3.5-2.6,4.9c-4.4,4.3-12.2,4.6-16.9,0.8c-2.2-1.8-3.4-4.1-3.5-6.9
			c-0.1-1.7-0.1-3.5-0.1-5.2c0-1.8,1.1-2.9,2.8-2.9c1.7,0,2.8,1.2,2.7,3.1c0,1.2-0.2,2.3-0.1,3.5c0,3.1,1.4,4.8,4.3,5.4
			c1.9,0.4,3.8,0.3,5.6-0.6c1.6-0.8,2.4-2.1,2.5-3.9C487.5,370,487.5,366.5,487.6,362.9"/>
		<path class="st0" d="M461.3,344.6c-1.1,0-2.2,0-3.3,0c-3.3,0-5.1,1.5-5.6,4.7c-0.3,1.7-0.1,3.3,0.5,4.9c0.7,1.8,1.8,2.8,3.7,2.9
			c2.7,0,5.4,0.1,8.1,0.1c1.5,0,2.3,0.8,2.6,2.2c0.3,1.8-0.8,3.3-2.7,3.3c-2.3,0-4.7,0.1-7,0.1c-7.1-0.2-11.9-6.1-10.8-13.3
			c0.4-2.5,1.1-4.8,2.6-6.8c1.8-2.4,4.2-3.7,7.1-3.7c3.2-0.1,6.4,0,9.5,0.1c1.5,0.1,2.5,1.2,2.4,2.9c0,1.6-1,2.6-2.6,2.6
			C464.3,344.7,462.8,344.6,461.3,344.6C461.3,344.6,461.3,344.6,461.3,344.6"/>
		<path class="st0" d="M502.3,345.2c-1.4,0-2.7,0-4.1-0.1c-1.8,0-2.8-1.1-2.8-2.8c0-1.7,1.1-2.7,2.8-2.8c2.4,0,4.8-0.1,7.2-0.1
			c7.6,0.2,12.5,6.3,11.3,14c-0.4,2.6-1.3,4.9-3,6.8c-2.1,2.3-4.7,3.1-7.7,3.1c-2.6,0-5.2-0.1-7.7-0.3c-1.4-0.1-2.3-1.3-2.3-2.8
			c0.1-1.5,1-2.6,2.5-2.6c2.2,0,4.5,0.1,6.7,0.1c3.9,0.1,5.8-1.6,6.1-5.5c0.1-1.1-0.1-2.2-0.3-3.2c-0.7-2.6-2.3-3.8-4.9-3.8
			C504.8,345.2,503.5,345.2,502.3,345.2"/>
		<path class="st0" d="M475.3,360.2c0,1.7-1.1,2.7-2.7,2.7c-1.6,0-2.6-1.1-2.6-2.8c0-1.7,1.1-2.8,2.7-2.8
			C474.3,357.4,475.3,358.6,475.3,360.2"/>
		<path class="st0" d="M488,342.3c0-1.6,1.1-2.8,2.6-2.8c1.5,0,2.6,1.2,2.6,2.8c0,1.6-1.1,2.7-2.6,2.7
			C489.1,345,488,343.9,488,342.3"/>
	</g>
	<g>
		<path class="st0" d="M412.1,221c0,3.9,0,7.8,0,11.8c0,2-1.6,3.2-3.5,2.7c-1.1-0.3-1.8-1.2-1.9-2.4c0,0,0-0.1,0-0.1
			c0-7.6-0.1-15.2-0.1-22.8c0.1-7.1,4.8-10.1,9.8-10.9c2-0.4,4.1-0.3,6.1,0.3c4.5,1.3,7.4,5,7.6,9.7c0.1,2.4,0.1,4.8,0,7.2
			c-0.1,2.1-1.7,3.2-3.6,2.6c-1.2-0.4-1.8-1.3-1.8-2.7c0-1.6,0.2-3.2,0.2-4.7c0-0.9-0.1-1.7-0.2-2.6c-0.3-2.2-1.5-3.6-3.7-4.1
			c-2.1-0.5-4.2-0.5-6.2,0.4c-1.6,0.7-2.4,1.9-2.5,3.7C412.1,213.1,412.1,217,412.1,221"/>
		<path class="st0" d="M424.4,245.8c0-3.6,0-7.2,0-10.8c0-2.2,1.9-3.5,3.9-2.6c0.8,0.3,1.4,1,1.5,1.9c0.1,0.4,0.1,0.7,0.1,1.1
			c0,6.3,0.1,12.6,0.1,18.9c0,1.3-0.1,2.7-0.3,4c-0.3,1.9-1.2,3.6-2.6,4.9c-4.3,4.3-12.1,4.8-16.9,1c-2.2-1.7-3.4-4-3.6-6.9
			c-0.1-1.7-0.1-3.5-0.1-5.2c0-1.8,1.1-2.9,2.7-2.9c1.7,0,2.8,1.2,2.8,3c0,1.2-0.1,2.3-0.1,3.5c0.1,3.1,1.4,4.7,4.4,5.3
			c1.9,0.4,3.9,0.2,5.6-0.7c1.6-0.8,2.4-2.1,2.4-3.9C424.3,252.9,424.4,249.3,424.4,245.8"/>
		<path class="st0" d="M397.8,227.8c-1.1,0-2.2,0-3.3,0c-3.3,0-5.1,1.5-5.6,4.8c-0.2,1.7-0.1,3.3,0.5,4.9c0.7,1.7,1.8,2.8,3.8,2.8
			c2.7,0,5.4,0,8.1,0c1.5,0,2.4,0.8,2.6,2.2c0.4,1.8-0.8,3.3-2.6,3.3c-2.3,0.1-4.7,0.2-7,0.1c-7.1-0.1-12-6-11-13.2
			c0.3-2.5,1.1-4.8,2.5-6.8c1.7-2.4,4.1-3.7,7-3.8c3.2-0.1,6.4,0,9.5,0c1.5,0,2.5,1.2,2.5,2.8c0,1.6-1,2.6-2.5,2.7
			C400.9,227.8,399.4,227.8,397.8,227.8C397.8,227.8,397.8,227.8,397.8,227.8"/>
		<path class="st0" d="M438.8,227.9c-1.4,0-2.7,0-4.1,0c-1.8,0-2.8-1.1-2.8-2.7c0-1.7,1.1-2.8,2.8-2.8c2.4-0.1,4.8-0.2,7.2-0.1
			c7.6,0.1,12.6,6.2,11.4,13.8c-0.4,2.6-1.2,4.9-2.9,6.9c-2,2.3-4.7,3.2-7.6,3.2c-2.6,0.1-5.2-0.1-7.7-0.2c-1.4-0.1-2.3-1.3-2.3-2.8
			c0-1.5,1-2.7,2.4-2.7c2.2,0,4.5,0,6.7,0c3.9,0.1,5.8-1.7,6-5.6c0.1-1.1-0.1-2.2-0.4-3.2c-0.7-2.6-2.3-3.8-5-3.8
			C441.4,227.9,440.1,227.9,438.8,227.9"/>
		<path class="st0" d="M412.1,243.2c0,1.7-1,2.7-2.6,2.8c-1.6,0-2.6-1.1-2.6-2.7c0-1.7,1.1-2.8,2.7-2.8
			C411,240.4,412.1,241.5,412.1,243.2"/>
		<path class="st0" d="M424.6,225.1c0-1.6,1.1-2.8,2.6-2.8c1.5,0,2.6,1.1,2.7,2.8c0,1.6-1,2.8-2.6,2.8
			C425.6,227.8,424.6,226.7,424.6,225.1"/>
	</g>
	<g>
		<path class="st0" d="M463,260c-0.1,2.6-0.1,5.1-0.2,7.6c0,1.3-1.1,2.1-2.3,1.7c-0.7-0.2-1.2-0.8-1.2-1.6c0,0,0,0,0-0.1
			c0.1-4.9,0.1-9.9,0.3-14.8c0.1-4.6,3.3-6.5,6.5-7c1.3-0.2,2.7-0.1,3.9,0.3c2.9,0.9,4.7,3.3,4.8,6.4c0,1.6,0,3.1-0.1,4.7
			c-0.1,1.3-1.2,2.1-2.4,1.7c-0.8-0.3-1.2-0.9-1.1-1.8c0-1,0.1-2.1,0.2-3.1c0-0.6,0-1.1-0.1-1.7c-0.2-1.4-1-2.4-2.4-2.7
			c-1.4-0.3-2.7-0.4-4,0.2c-1,0.4-1.6,1.2-1.6,2.4C463.1,254.9,463.1,257.4,463,260"/>
		<path class="st0" d="M470.7,276.3c0.1-2.3,0.1-4.7,0.2-7c0-1.4,1.3-2.2,2.6-1.7c0.5,0.2,0.9,0.7,1,1.3c0,0.2,0,0.5,0,0.7
			c-0.1,4.1-0.1,8.2-0.2,12.3c0,0.9-0.1,1.8-0.3,2.6c-0.2,1.3-0.8,2.3-1.7,3.2c-2.9,2.8-8,3-11,0.4c-1.4-1.2-2.2-2.7-2.2-4.5
			c0-1.1,0-2.2,0-3.4c0-1.2,0.7-1.9,1.8-1.9c1.1,0,1.8,0.8,1.8,2c0,0.7-0.1,1.5-0.1,2.2c0,2,0.9,3.1,2.8,3.5
			c1.3,0.3,2.5,0.2,3.7-0.4c1-0.5,1.6-1.3,1.6-2.5C470.6,280.9,470.6,278.6,470.7,276.3"/>
		<path class="st0" d="M453.6,264.2c-0.7,0-1.4,0-2.2,0c-2.1,0-3.3,0.9-3.7,3.1c-0.2,1.1-0.1,2.2,0.3,3.2c0.4,1.1,1.2,1.8,2.4,1.9
			c1.8,0,3.5,0.1,5.3,0.1c1,0,1.5,0.5,1.7,1.5c0.2,1.2-0.6,2.1-1.7,2.1c-1.5,0-3,0.1-4.5,0c-4.6-0.2-7.7-4.1-7-8.7
			c0.3-1.6,0.8-3.1,1.7-4.4c1.2-1.5,2.7-2.4,4.6-2.4c2.1,0,4.1,0.1,6.2,0.1c1,0,1.6,0.8,1.6,1.9c0,1-0.7,1.7-1.7,1.7
			C455.6,264.3,454.6,264.3,453.6,264.2C453.6,264.2,453.6,264.2,453.6,264.2"/>
		<path class="st0" d="M480.3,264.8c-0.9,0-1.8,0-2.7-0.1c-1.1,0-1.8-0.7-1.8-1.8c0-1.1,0.7-1.8,1.9-1.8c1.6,0,3.1,0,4.7,0
			c4.9,0.2,8.1,4.2,7.3,9.1c-0.3,1.7-0.8,3.2-2,4.4c-1.3,1.5-3.1,2-5,2c-1.7,0-3.4-0.1-5-0.2c-0.9-0.1-1.5-0.9-1.5-1.9
			c0-1,0.7-1.7,1.6-1.7c1.5,0,2.9,0.1,4.4,0.1c2.5,0.1,3.8-1,4-3.6c0.1-0.7,0-1.4-0.2-2.1c-0.4-1.7-1.5-2.5-3.2-2.5
			C482,264.9,481.2,264.8,480.3,264.8"/>
		<path class="st0" d="M462.7,274.5c0,1.1-0.7,1.8-1.7,1.8c-1,0-1.7-0.7-1.7-1.8c0-1.1,0.7-1.8,1.8-1.8
			C462.1,272.6,462.7,273.4,462.7,274.5"/>
		<path class="st0" d="M471.1,262.8c0-1.1,0.7-1.8,1.7-1.8c1,0,1.7,0.8,1.7,1.8c0,1.1-0.7,1.8-1.7,1.8
			C471.7,264.6,471.1,263.9,471.1,262.8"/>
	</g>
	<g>
		<path class="st0" d="M499.9,287.4c0,1.7,0,3.4,0,5c0,0.9-0.7,1.4-1.5,1.2c-0.5-0.1-0.8-0.5-0.8-1c0,0,0,0,0,0
			c0-3.3-0.1-6.5-0.1-9.8c0-3.1,2-4.3,4.2-4.7c0.9-0.2,1.7-0.1,2.6,0.1c1.9,0.6,3.2,2.1,3.3,4.2c0,1,0,2,0,3.1
			c0,0.9-0.7,1.4-1.6,1.1c-0.5-0.2-0.8-0.6-0.8-1.2c0-0.7,0.1-1.4,0.1-2c0-0.4,0-0.7-0.1-1.1c-0.1-0.9-0.7-1.5-1.6-1.7
			c-0.9-0.2-1.8-0.2-2.6,0.2c-0.7,0.3-1,0.8-1,1.6C499.9,284,499.9,285.7,499.9,287.4"/>
		<path class="st0" d="M505.2,298c0-1.5,0-3.1,0-4.6c0-0.9,0.8-1.5,1.7-1.1c0.4,0.1,0.6,0.4,0.7,0.8c0,0.2,0,0.3,0,0.5
			c0,2.7,0.1,5.4,0.1,8.1c0,0.6,0,1.2-0.1,1.7c-0.1,0.8-0.5,1.5-1.1,2.1c-1.8,1.9-5.2,2.1-7.3,0.5c-0.9-0.7-1.5-1.7-1.6-2.9
			c0-0.7-0.1-1.5-0.1-2.2c0-0.8,0.4-1.3,1.2-1.3c0.7,0,1.2,0.5,1.2,1.3c0,0.5,0,1,0,1.5c0,1.3,0.6,2,1.9,2.3
			c0.8,0.2,1.7,0.1,2.4-0.3c0.7-0.4,1-0.9,1-1.7C505.2,301,505.2,299.5,505.2,298"/>
		<path class="st0" d="M493.8,290.3c-0.5,0-1,0-1.4,0c-1.4,0-2.2,0.7-2.4,2.1c-0.1,0.7,0,1.4,0.2,2.1c0.3,0.7,0.8,1.2,1.6,1.2
			c1.2,0,2.3,0,3.5,0c0.6,0,1,0.3,1.1,0.9c0.2,0.8-0.3,1.4-1.1,1.4c-1,0-2,0.1-3,0.1c-3.1,0-5.1-2.5-4.7-5.6c0.1-1.1,0.4-2,1.1-2.9
			c0.7-1,1.8-1.6,3-1.7c1.4-0.1,2.7,0,4.1,0c0.7,0,1.1,0.5,1.1,1.2c0,0.7-0.4,1.1-1.1,1.2C495.1,290.3,494.5,290.3,493.8,290.3
			C493.8,290.3,493.8,290.3,493.8,290.3"/>
		<path class="st0" d="M511.4,290.3c-0.6,0-1.2,0-1.8,0c-0.8,0-1.2-0.4-1.2-1.2c0-0.7,0.5-1.2,1.2-1.2c1,0,2.1-0.1,3.1-0.1
			c3.3,0,5.4,2.6,4.9,5.9c-0.2,1.1-0.5,2.1-1.2,3c-0.9,1-2,1.4-3.3,1.4c-1.1,0-2.2,0-3.3-0.1c-0.6,0-1-0.5-1-1.2
			c0-0.7,0.4-1.1,1-1.1c1,0,1.9,0,2.9,0c1.7,0,2.5-0.7,2.6-2.4c0-0.5,0-0.9-0.2-1.4c-0.3-1.1-1-1.6-2.1-1.6
			C512.5,290.3,511.9,290.3,511.4,290.3"/>
		<path class="st0" d="M499.9,296.9c0,0.7-0.4,1.2-1.1,1.2c-0.7,0-1.1-0.5-1.1-1.2c0-0.7,0.5-1.2,1.1-1.2
			C499.5,295.7,499.9,296.2,499.9,296.9"/>
		<path class="st0" d="M505.3,289.1c0-0.7,0.4-1.2,1.1-1.2c0.7,0,1.1,0.5,1.1,1.2c0,0.7-0.4,1.2-1.1,1.2
			C505.7,290.3,505.3,289.8,505.3,289.1"/>
	</g>
	<g>
		<path class="st0" d="M532.5,375.7c-0.1,5.4-0.2,10.8-0.4,16.2c-0.1,2.8-2.3,4.4-4.9,3.7c-1.5-0.4-2.5-1.7-2.6-3.3c0,0,0-0.1,0-0.1
			c0.2-10.5,0.3-20.9,0.6-31.4c0.3-9.8,6.9-13.7,13.7-14.8c2.8-0.4,5.6-0.2,8.3,0.6c6.1,2,10,7.1,10.1,13.6c0.1,3.3-0.1,6.6-0.2,9.9
			c-0.1,2.9-2.4,4.4-5.1,3.5c-1.6-0.5-2.5-1.9-2.4-3.8c0.1-2.2,0.3-4.3,0.4-6.5c0-1.2,0-2.4-0.2-3.5c-0.4-3-2-5-5-5.7
			c-2.9-0.7-5.7-0.7-8.5,0.4c-2.2,0.9-3.4,2.6-3.5,5C532.7,364.9,532.6,370.3,532.5,375.7"/>
		<path class="st0" d="M548.7,410.2c0.1-5,0.2-9.9,0.4-14.9c0.1-3,2.7-4.7,5.4-3.5c1.2,0.5,1.9,1.4,2.1,2.7c0.1,0.5,0.1,1,0.1,1.5
			c-0.1,8.7-0.2,17.4-0.4,26c0,1.9-0.3,3.7-0.6,5.5c-0.4,2.7-1.8,4.9-3.7,6.7c-6.1,5.8-16.8,6.2-23.3,0.9c-3-2.5-4.6-5.6-4.7-9.6
			c-0.1-2.4-0.1-4.8,0-7.1c0-2.5,1.5-4,3.8-4c2.3,0.1,3.8,1.7,3.7,4.2c0,1.6-0.2,3.2-0.2,4.7c0,4.3,1.8,6.6,5.9,7.4
			c2.7,0.6,5.3,0.4,7.8-0.8c2.2-1.1,3.4-2.8,3.4-5.4C548.4,419.9,548.6,415.1,548.7,410.2"/>
		<path class="st0" d="M512.7,384.7c-1.5,0-3-0.1-4.6-0.1c-4.5-0.1-7,2-7.8,6.4c-0.4,2.3-0.2,4.6,0.6,6.8c0.9,2.4,2.5,3.9,5.1,4
			c3.7,0.1,7.4,0.2,11.1,0.3c2,0.1,3.2,1.1,3.6,3.1c0.5,2.5-1.2,4.5-3.7,4.5c-3.2,0-6.4,0.1-9.6,0c-9.8-0.4-16.3-8.6-14.7-18.4
			c0.5-3.4,1.6-6.5,3.7-9.3c2.5-3.3,5.8-5,9.8-5c4.4-0.1,8.7,0.1,13.1,0.3c2.1,0.1,3.4,1.7,3.3,4c-0.1,2.2-1.4,3.6-3.5,3.6
			C516.9,384.8,514.8,384.7,512.7,384.7C512.7,384.7,512.7,384.7,512.7,384.7"/>
		<path class="st0" d="M569.1,386c-1.9,0-3.7-0.1-5.6-0.1c-2.4-0.1-3.9-1.5-3.8-3.9c0-2.3,1.6-3.8,3.9-3.8c3.3,0,6.6-0.1,10,0
			c10.5,0.3,17.1,8.8,15.3,19.3c-0.6,3.5-1.8,6.7-4.2,9.4c-2.9,3.1-6.6,4.2-10.6,4.2c-3.5,0-7.1-0.2-10.6-0.5
			c-1.9-0.1-3.2-1.8-3.1-3.9c0.1-2.1,1.4-3.6,3.4-3.6c3.1,0,6.2,0.1,9.3,0.2c5.3,0.2,8-2.1,8.5-7.5c0.1-1.5,0-3-0.4-4.5
			c-0.9-3.6-3.1-5.2-6.8-5.4C572.6,386,570.8,386,569.1,386"/>
		<path class="st0" d="M531.8,406.3c-0.1,2.3-1.5,3.8-3.7,3.7c-2.2,0-3.6-1.6-3.6-3.8c0-2.3,1.6-3.9,3.8-3.8
			C530.4,402.4,531.9,404,531.8,406.3"/>
		<path class="st0" d="M549.5,381.8c0-2.3,1.5-3.8,3.7-3.8c2.1,0,3.6,1.6,3.6,3.9c0,2.3-1.5,3.8-3.7,3.7
			C550.9,385.6,549.5,384,549.5,381.8"/>
	</g>
	<g>
		<path class="st0" d="M609.6,420.3c0,3.9-0.1,7.8-0.1,11.8c0,2-1.6,3.2-3.5,2.7c-1.1-0.3-1.8-1.2-1.9-2.4c0,0,0-0.1,0-0.1
			c0-7.6,0-15.2,0.1-22.8c0.1-7.1,4.9-10,9.9-10.9c2-0.3,4.1-0.2,6.1,0.4c4.5,1.4,7.3,5.1,7.5,9.8c0.1,2.4,0,4.8-0.1,7.2
			c-0.1,2.1-1.7,3.2-3.7,2.6c-1.2-0.4-1.8-1.3-1.8-2.7c0-1.6,0.2-3.2,0.2-4.7c0-0.9,0-1.7-0.2-2.6c-0.3-2.2-1.5-3.6-3.7-4.1
			c-2.1-0.5-4.2-0.5-6.2,0.4c-1.6,0.7-2.5,1.9-2.5,3.7C609.7,412.4,609.7,416.3,609.6,420.3"/>
		<path class="st0" d="M621.7,445.2c0-3.6,0.1-7.2,0.1-10.8c0-2.2,1.9-3.4,3.9-2.6c0.8,0.4,1.4,1,1.5,1.9c0.1,0.4,0.1,0.7,0.1,1.1
			c0,6.3,0,12.6-0.1,18.9c0,1.3-0.2,2.7-0.4,4c-0.3,1.9-1.2,3.6-2.6,4.9c-4.4,4.3-12.2,4.7-16.9,0.8c-2.2-1.8-3.4-4.1-3.5-6.9
			c-0.1-1.7-0.1-3.5-0.1-5.2c0-1.8,1.1-2.9,2.8-2.9c1.7,0,2.8,1.2,2.7,3c0,1.2-0.1,2.3-0.1,3.5c0,3.1,1.4,4.8,4.4,5.4
			c1.9,0.4,3.8,0.2,5.6-0.7c1.6-0.8,2.4-2.1,2.5-3.9C621.6,452.3,621.6,448.7,621.7,445.2"/>
		<path class="st0" d="M595.3,426.9c-1.1,0-2.2,0-3.3,0c-3.3,0-5.1,1.5-5.6,4.7c-0.3,1.7-0.1,3.3,0.5,4.9c0.7,1.8,1.8,2.8,3.8,2.8
			c2.7,0,5.4,0.1,8.1,0.1c1.5,0,2.3,0.8,2.6,2.2c0.3,1.8-0.8,3.3-2.6,3.3c-2.3,0-4.7,0.1-7,0.1c-7.1-0.2-11.9-6.1-10.8-13.3
			c0.4-2.5,1.1-4.8,2.6-6.8c1.8-2.4,4.2-3.7,7.1-3.7c3.2-0.1,6.4,0,9.5,0.1c1.5,0,2.5,1.2,2.4,2.9c0,1.6-1,2.6-2.5,2.7
			C598.4,427,596.9,427,595.3,426.9C595.3,426.9,595.3,426.9,595.3,426.9"/>
		<path class="st0" d="M636.3,427.4c-1.4,0-2.7,0-4.1-0.1c-1.8,0-2.8-1.1-2.8-2.8c0-1.7,1.1-2.7,2.8-2.8c2.4,0,4.8-0.1,7.2-0.1
			c7.6,0.2,12.5,6.3,11.3,13.9c-0.4,2.6-1.2,4.9-3,6.8c-2,2.3-4.7,3.1-7.7,3.2c-2.6,0-5.2-0.1-7.7-0.2c-1.4-0.1-2.3-1.3-2.3-2.8
			c0-1.5,1-2.6,2.5-2.6c2.2,0,4.5,0,6.7,0.1c3.9,0.1,5.8-1.6,6.1-5.5c0.1-1.1-0.1-2.2-0.3-3.2c-0.7-2.6-2.3-3.8-5-3.8
			C638.9,427.4,637.6,427.4,636.3,427.4"/>
		<path class="st0" d="M609.4,442.5c0,1.7-1.1,2.7-2.6,2.7c-1.6,0-2.6-1.1-2.6-2.8c0-1.7,1.1-2.8,2.7-2.8
			C608.4,439.7,609.4,440.8,609.4,442.5"/>
		<path class="st0" d="M622.1,424.5c0-1.6,1.1-2.8,2.6-2.8c1.5,0,2.6,1.2,2.6,2.8c0,1.6-1.1,2.8-2.6,2.7
			C623.1,427.3,622.1,426.2,622.1,424.5"/>
	</g>
	<g>
		<path class="st0" d="M546.4,298.1c-0.1,3.9-0.2,7.8-0.3,11.7c-0.1,2-1.7,3.2-3.6,2.7c-1.1-0.3-1.8-1.2-1.9-2.4c0,0,0-0.1,0-0.1
			c0.1-7.6,0.2-15.2,0.4-22.8c0.2-7.1,5-10,10-10.7c2-0.3,4.1-0.2,6.1,0.5c4.5,1.4,7.3,5.1,7.4,9.9c0,2.4,0,4.8-0.2,7.2
			c-0.1,2.1-1.8,3.2-3.7,2.5c-1.2-0.4-1.8-1.3-1.8-2.7c0.1-1.6,0.2-3.2,0.3-4.7c0-0.9,0-1.7-0.1-2.6c-0.3-2.2-1.5-3.6-3.6-4.1
			c-2.1-0.5-4.2-0.5-6.2,0.3c-1.6,0.7-2.5,1.9-2.5,3.6C546.6,290.2,546.5,294.2,546.4,298.1"/>
		<path class="st0" d="M558.2,323.1c0.1-3.6,0.2-7.2,0.3-10.8c0.1-2.2,2-3.4,3.9-2.6c0.8,0.4,1.4,1,1.5,1.9c0,0.4,0.1,0.7,0.1,1.1
			c-0.1,6.3-0.2,12.6-0.3,18.9c0,1.3-0.2,2.7-0.4,4c-0.3,1.9-1.3,3.5-2.7,4.9c-4.4,4.2-12.2,4.5-16.9,0.7c-2.2-1.8-3.4-4.1-3.4-6.9
			c-0.1-1.7,0-3.5,0-5.2c0-1.8,1.1-2.9,2.8-2.9c1.7,0,2.8,1.2,2.7,3.1c0,1.2-0.2,2.3-0.2,3.4c0,3.1,1.3,4.8,4.3,5.4
			c1.9,0.4,3.8,0.3,5.7-0.6c1.6-0.8,2.5-2,2.5-3.9C558,330.2,558.1,326.7,558.2,323.1"/>
		<path class="st0" d="M532,304.6c-1.1,0-2.2-0.1-3.3-0.1c-3.3-0.1-5.1,1.4-5.7,4.7c-0.3,1.7-0.2,3.3,0.4,4.9
			c0.6,1.8,1.8,2.8,3.7,2.9c2.7,0.1,5.4,0.1,8.1,0.2c1.5,0,2.3,0.8,2.6,2.2c0.3,1.8-0.9,3.3-2.7,3.3c-2.3,0-4.7,0.1-7,0
			c-7.1-0.3-11.9-6.2-10.7-13.4c0.4-2.5,1.2-4.7,2.7-6.7c1.8-2.4,4.2-3.6,7.1-3.7c3.2,0,6.4,0.1,9.5,0.2c1.5,0.1,2.5,1.3,2.4,2.9
			c-0.1,1.6-1,2.6-2.6,2.6C535.1,304.7,533.5,304.6,532,304.6C532,304.6,532,304.6,532,304.6"/>
		<path class="st0" d="M573,305.5c-1.4,0-2.7-0.1-4.1-0.1c-1.8-0.1-2.8-1.1-2.8-2.8c0-1.7,1.1-2.7,2.9-2.7c2.4,0,4.8-0.1,7.2,0
			c7.6,0.2,12.5,6.4,11.2,14.1c-0.4,2.6-1.3,4.9-3,6.8c-2.1,2.3-4.8,3.1-7.7,3.1c-2.6,0-5.2-0.2-7.7-0.3c-1.4-0.1-2.3-1.3-2.2-2.9
			c0.1-1.5,1.1-2.6,2.5-2.6c2.2,0,4.5,0.1,6.7,0.2c3.9,0.1,5.8-1.6,6.1-5.5c0.1-1.1,0-2.2-0.3-3.2c-0.7-2.6-2.2-3.8-4.9-3.9
			C575.5,305.6,574.3,305.6,573,305.5"/>
		<path class="st0" d="M545.9,320.3c0,1.7-1.1,2.7-2.7,2.7c-1.6,0-2.6-1.2-2.6-2.8c0-1.7,1.1-2.8,2.7-2.8
			C544.9,317.5,546,318.7,545.9,320.3"/>
		<path class="st0" d="M558.8,302.5c0-1.6,1.1-2.8,2.7-2.7c1.5,0,2.6,1.2,2.6,2.8c0,1.6-1.1,2.7-2.7,2.7
			C559.8,305.2,558.8,304.1,558.8,302.5"/>
	</g>
	<g>
		<path class="st0" d="M597.1,337.2c-0.1,2.5-0.1,5.1-0.2,7.6c0,1.3-1.1,2.1-2.3,1.7c-0.7-0.2-1.2-0.8-1.2-1.6c0,0,0,0,0-0.1
			c0.1-4.9,0.2-9.9,0.3-14.8c0.1-4.6,3.3-6.5,6.5-7c1.3-0.2,2.7-0.1,3.9,0.3c2.9,0.9,4.7,3.4,4.8,6.5c0,1.6,0,3.1-0.1,4.7
			c-0.1,1.3-1.2,2.1-2.4,1.6c-0.8-0.3-1.2-0.9-1.1-1.8c0-1,0.2-2.1,0.2-3.1c0-0.6,0-1.1-0.1-1.7c-0.2-1.4-0.9-2.4-2.3-2.7
			c-1.4-0.3-2.7-0.4-4,0.2c-1,0.4-1.6,1.2-1.7,2.4C597.3,332.1,597.2,334.7,597.1,337.2"/>
		<path class="st0" d="M604.7,353.6c0.1-2.3,0.1-4.7,0.2-7c0-1.4,1.3-2.2,2.6-1.7c0.5,0.2,0.9,0.7,1,1.3c0,0.2,0,0.5,0,0.7
			c-0.1,4.1-0.1,8.2-0.2,12.3c0,0.9-0.1,1.8-0.3,2.6c-0.2,1.3-0.8,2.3-1.8,3.2c-2.9,2.7-8,2.9-11,0.4c-1.4-1.2-2.2-2.7-2.2-4.5
			c0-1.1,0-2.2,0-3.4c0-1.2,0.7-1.9,1.8-1.9c1.1,0,1.8,0.8,1.8,2c0,0.7-0.1,1.5-0.1,2.2c0,2,0.8,3.1,2.8,3.5
			c1.3,0.3,2.5,0.2,3.7-0.4c1-0.5,1.6-1.3,1.6-2.5C604.6,358.2,604.6,355.9,604.7,353.6"/>
		<path class="st0" d="M587.7,341.4c-0.7,0-1.4,0-2.2-0.1c-2.1-0.1-3.3,0.9-3.7,3c-0.2,1.1-0.1,2.2,0.3,3.2c0.4,1.1,1.2,1.9,2.4,1.9
			c1.8,0,3.5,0.1,5.3,0.2c1,0,1.5,0.5,1.7,1.5c0.2,1.2-0.6,2.1-1.8,2.1c-1.5,0-3,0-4.5,0c-4.6-0.2-7.7-4.1-6.9-8.8
			c0.3-1.6,0.8-3.1,1.8-4.4c1.2-1.5,2.8-2.3,4.6-2.4c2.1,0,4.1,0.1,6.2,0.2c1,0,1.6,0.8,1.5,1.9c0,1-0.7,1.7-1.7,1.7
			C589.7,341.5,588.7,341.5,587.7,341.4C587.7,341.4,587.7,341.4,587.7,341.4"/>
		<path class="st0" d="M614.4,342.2c-0.9,0-1.8,0-2.7-0.1c-1.1,0-1.8-0.7-1.8-1.8c0-1.1,0.8-1.8,1.9-1.8c1.6,0,3.1,0,4.7,0
			c4.9,0.2,8.1,4.2,7.2,9.2c-0.3,1.7-0.9,3.2-2,4.4c-1.4,1.5-3.1,2-5,2c-1.7,0-3.4-0.1-5-0.2c-0.9-0.1-1.5-0.9-1.5-1.9
			c0-1,0.7-1.7,1.6-1.7c1.5,0,2.9,0.1,4.4,0.1c2.5,0.1,3.8-1,4-3.5c0.1-0.7,0-1.4-0.2-2.1c-0.4-1.7-1.4-2.5-3.2-2.5
			C616.1,342.2,615.2,342.2,614.4,342.2"/>
		<path class="st0" d="M596.7,351.7c0,1.1-0.7,1.8-1.8,1.7c-1,0-1.7-0.8-1.7-1.8c0-1.1,0.7-1.8,1.8-1.8
			C596.1,349.9,596.8,350.6,596.7,351.7"/>
		<path class="st0" d="M605.2,340.1c0-1.1,0.7-1.8,1.7-1.8c1,0,1.7,0.8,1.7,1.8c0,1.1-0.7,1.8-1.7,1.8
			C605.8,341.9,605.1,341.2,605.2,340.1"/>
	</g>
	<g>
		<path class="st0" d="M634.1,364.6c0,1.7-0.1,3.4-0.1,5c0,0.9-0.7,1.4-1.5,1.1c-0.5-0.1-0.8-0.5-0.8-1c0,0,0,0,0,0
			c0.1-3.3,0.1-6.5,0.2-9.8c0.1-3.1,2.1-4.3,4.3-4.6c0.9-0.1,1.7-0.1,2.6,0.2c1.9,0.6,3.1,2.2,3.2,4.2c0,1,0,2-0.1,3.1
			c0,0.9-0.8,1.4-1.6,1.1c-0.5-0.2-0.8-0.6-0.8-1.2c0-0.7,0.1-1.4,0.1-2c0-0.4,0-0.7-0.1-1.1c-0.1-0.9-0.6-1.6-1.6-1.8
			c-0.9-0.2-1.8-0.2-2.6,0.1c-0.7,0.3-1.1,0.8-1.1,1.6C634.2,361.2,634.1,362.9,634.1,364.6"/>
		<path class="st0" d="M639.2,375.3c0-1.5,0.1-3.1,0.1-4.6c0-0.9,0.8-1.5,1.7-1.1c0.4,0.2,0.6,0.4,0.6,0.8c0,0.2,0,0.3,0,0.5
			c0,2.7-0.1,5.4-0.1,8.1c0,0.6-0.1,1.2-0.2,1.7c-0.1,0.8-0.5,1.5-1.2,2.1c-1.9,1.8-5.2,2-7.3,0.3c-0.9-0.8-1.4-1.8-1.5-3
			c0-0.7,0-1.5,0-2.2c0-0.8,0.5-1.3,1.2-1.2c0.7,0,1.2,0.5,1.2,1.3c0,0.5-0.1,1-0.1,1.5c0,1.3,0.6,2,1.8,2.3
			c0.8,0.2,1.6,0.1,2.4-0.3c0.7-0.3,1.1-0.9,1.1-1.7C639.1,378.3,639.1,376.8,639.2,375.3"/>
		<path class="st0" d="M627.9,367.4c-0.5,0-1,0-1.4,0c-1.4,0-2.2,0.6-2.4,2c-0.1,0.7-0.1,1.4,0.2,2.1c0.3,0.8,0.8,1.2,1.6,1.2
			c1.2,0,2.3,0.1,3.5,0.1c0.6,0,1,0.4,1.1,1c0.1,0.8-0.4,1.4-1.1,1.4c-1,0-2,0-3,0c-3.1-0.1-5.1-2.7-4.6-5.7c0.2-1.1,0.5-2,1.1-2.9
			c0.8-1,1.8-1.6,3-1.6c1.4,0,2.7,0,4.1,0.1c0.7,0,1.1,0.5,1,1.2c0,0.7-0.4,1.1-1.1,1.1C629.2,367.4,628.6,367.4,627.9,367.4
			C627.9,367.4,627.9,367.4,627.9,367.4"/>
		<path class="st0" d="M645.5,367.7c-0.6,0-1.2,0-1.8,0c-0.8,0-1.2-0.5-1.2-1.2c0-0.7,0.5-1.2,1.2-1.2c1,0,2.1,0,3.1,0
			c3.3,0.1,5.3,2.7,4.8,6c-0.2,1.1-0.6,2.1-1.3,2.9c-0.9,1-2,1.3-3.3,1.3c-1.1,0-2.2-0.1-3.3-0.1c-0.6,0-1-0.6-1-1.2
			c0-0.7,0.5-1.1,1.1-1.1c1,0,1.9,0,2.9,0.1c1.7,0.1,2.5-0.7,2.6-2.3c0-0.5,0-0.9-0.1-1.4c-0.3-1.1-1-1.6-2.1-1.7
			C646.6,367.8,646.1,367.8,645.5,367.7"/>
		<path class="st0" d="M633.9,374.1c0,0.7-0.5,1.2-1.1,1.2c-0.7,0-1.1-0.5-1.1-1.2c0-0.7,0.5-1.2,1.2-1.2
			C633.5,372.9,633.9,373.4,633.9,374.1"/>
		<path class="st0" d="M639.4,366.4c0-0.7,0.5-1.2,1.1-1.2c0.7,0,1.1,0.5,1.1,1.2c0,0.7-0.5,1.2-1.1,1.2
			C639.8,367.6,639.4,367.1,639.4,366.4"/>
	</g>
</g>
</svg>
