<?xml version="1.0" encoding="utf-8"?>
<!-- Generator: Adobe Illustrator 22.0.1, SVG Export Plug-In . SVG Version: 6.00 Build 0)  -->
<svg version="1.1" id="Capa_1" xmlns="http://www.w3.org/2000/svg" xmlns:xlink="http://www.w3.org/1999/xlink" x="0px" y="0px"
	 viewBox="0 0 1200 599.9" style="enable-background:new 0 0 1200 599.9;" xml:space="preserve">
<style type="text/css">
	.st0{fill:#DA272B;}
</style>
<path class="st0" d="M735,358.9"/>
<path class="st0" d="M413.3,416.5c-7.3,0.8-4.4-4.3-3.8-7.3c2-10.5,4-21,6.9-31.2c2.9-10.3,1.8-14.4-10.9-14.3
	c-64.8,0.7-129.7,0.3-194.5,0.2c-5.3,0-10.7-0.3-16-0.5c0-2.5,0-4.9,0-7.4c3.1-1.1,2.7-3.9,2.8-6.2c1.6-21.6,13-37.8,26.6-53.8
	c29.5-34.8,57.7-70.6,86.2-106.2c10.8-13.5,20.7-27.6,28.5-43.1c3.5-7,6.6-14.2,6.9-22.2c0.3-7.5,1.1-15.5-8.6-17.9
	c-8.9-2.2-16.4,0.8-20.9,9c-6.3,11.3-8.3,24.1-10,36.6c-1.5,11.6-5.8,15.8-17.9,14.8c-15.1-1.3-30.4-0.5-45.6-0.2
	c-6.7,0.1-8.7-1.7-6.5-8.5c2.1-6.6,3.2-13.6,4.6-20.4c15-72.1,81.2-89.7,137.6-72.3c30.1,9.3,44.2,38.1,37.3,71.3
	c-5.1,24.2-16.6,45.3-31.4,64.8c-26.6,35-56.2,67.6-85.2,100.6c-2.6,3-6.3,5.2-7.6,10.9c17.5,0,34.5,0,51.5,0c6.5,0,7.3-5.8,9.6-9.8
	c32.6-58.4,65.2-116.7,97.4-175.3c4.2-7.7,8.7-11.2,17.9-10.9c24.6,0.7,49.3,0.6,74,0.1c10-0.2,13.2,2.2,8,11.6
	c-19.5,40.6-39.2,81.2-58.5,121.9C465.4,306,439.4,361.3,413.3,416.5z M462.6,202.4c-1.2-0.4-2.4-0.7-3.7-1.1
	c-17.8,36.9-35.7,73.7-54.2,112.1c9.3,0,16.7-0.7,23.9,0.2c8.6,1,11.4-3.1,12.7-10.6c2.1-12.1,5.1-24,7.6-36
	C453.5,245.5,458,224,462.6,202.4z"/>
<path class="st0" d="M545.3,418.6c28.4-66.9,55.7-131.3,83.9-197.7c-23.7,0-45.9,0-68.2,0c-17.8,0-17.8,0-9.3-15.7
	c6.9-12.5,11.2-29.2,21.8-36.3c11.2-7.5,28.6-2,43.3-2.2c32.4-0.3,64.9,0.2,97.3-0.3c8.8-0.1,9.4,2.1,6.2,9.6
	c-33,78.1-65.8,156.4-98.5,234.6c-1.8,4.3-3.1,8.1-9.1,8C591,418.4,569.2,418.6,545.3,418.6z"/>
<path class="st0" d="M489.7,91.9c-4.6,3-9.3-3.6-5-7l0.1-0.1C572.7,17.2,670-9.5,778.7,21c88.6,24.9,145.8,97.6,154.4,188.7
	c7.4,79.3-20.5,145.5-71.2,204.2c-3.4,3.9-6.4,5.2-9.7,8.6c-19.4,20.1-38.5,20.5-51.2,2.1c-4.5-6.5-3.2-16.1,2.8-21.4
	c0,0,0.1-0.1,0.1-0.1c39.6-35.3,67.3-78.1,82.7-128.9C917.2,173,868.8,68.6,773.9,35.4c-68.4-24-137.1-23.3-203.5,9.5
	c-27.3,13.5-53.5,28.7-78.8,45.7C491,91,490.4,91.4,489.7,91.9z"/>
<path class="st0" d="M413.3,416.5c26.1-55.3,52.1-110.6,78.3-165.7c19.3-40.7,39-81.3,58.5-121.9c-7.8,37.2-15.5,74.5-23.3,111.7
	c-4.5,21.2-8.9,42.5-13.9,63.6c-1.7,7.2,0.1,9.5,7.4,9.3c15.1-0.4,30.2-0.1,46.8-0.1c-6.2,16.2-11.8,31-17.4,45.8
	c-1.3,3.5-3.5,5.3-7.4,5c-1.6-0.1-3.3-0.1-4.9,0c-11,0.8-25-4.7-32,2.3c-6.7,6.7-6.6,20.5-9.1,31.2c-4.7,19.4-4.6,19.5-23.9,19.4
	C452.6,417,433,416.8,413.3,416.5z"/>
<path class="st0" d="M716.8,261.4c2.1-4.1,7.2-5.7,11.2-3.4c0,0,0,0,0.1,0c26.4,15.5,52.9,31,79.3,46.5c4,2.3,5.7,1,6.3,8.6
	c0.4,5.1-7.4,17.7-18.6,9.9c-25.2-17.4-50.4-34.9-75.6-52.5c-2.5-1.7-6.6-3.2-3.7-7.4C716.1,262.7,716.5,262,716.8,261.4z"/>
<path class="st0" d="M755.4,146.9c-2,0.5-4.2-0.9-4.6-5.2c-0.4-3.7-1.3-7.1,4.2-8.3c24.7-5.5,49.4-11.1,74-16.9
	c6.6-1.6,7.3,3.3,9.2,7.1c2.1,4.3-0.3,5.7-4.1,6.5C808.6,135.6,783,141.1,755.4,146.9z"/>
<path class="st0" d="M726.1,38.8c-1.6,2-2.8,3.7-4.1,5.2c-8.6,9.8-17.4,19.5-25.7,29.5c-3.6,4.3-7.2,5.4-11.4,1.9
	c-5.5-4.7,1-6.7,2.9-8.9c8.2-9.6,17-18.7,25.5-28.1c2.5-2.8,5.2-3.7,8.7-2.3C723.2,36.7,724.4,37.7,726.1,38.8z"/>
<path class="st0" d="M597.3,62c-3,4,5.7,14.6-4.8,14.8c-10.1,0.2-3.7-10.1-5-15.5c-1-3.9-0.1-8.2-0.2-12.3c-0.1-3.4,1.1-5.3,4.8-5.5
	c3.8-0.1,5.2,1.7,5.2,5.1C597.3,52.8,597.3,56.9,597.3,62z"/>
<g>
	<path class="st0" d="M39.6,566.2L31,588.1H0l51.1-118.5h31L132,588.1H99.9l-8.5-21.8H39.6z M65.7,499.5l-17.3,43.8h34.2L65.7,499.5
		z"/>
	<path class="st0" d="M246.6,588.1l-0.2-77L218,576.2h-19.6L170,511v77H143V469.4h33l32.2,70.6l32.2-70.6h32.8v118.7H246.6z"/>
	<path class="st0" d="M353.1,469.6c26.6,0,43.5,11.5,43.5,29.6c0,12.5-7.8,22.5-20.3,26.1c14.9,2.9,24.4,14.6,24.4,30
		c0,20.1-17.6,32.8-45.5,32.8h-58.1V469.6H353.1z M327.1,517h24.4c8.8,0,14.4-4.7,14.4-12.4c0-7.6-5.6-12-14.4-12h-24.4V517z
		 M327.1,564.9h24.4c11.2,0,18.1-4.9,18.1-13.4c0-8-6.9-12.9-18.1-12.9h-24.4V564.9z"/>
	<path class="st0" d="M524.8,538.3c0,31.3-20.8,51.1-54,51.1c-33.3,0-54.7-19.8-54.7-51.1v-68.7h30.1v68.7
		c0,16.1,10.3,25.9,24.7,25.9c14.2,0,23.9-9.8,23.9-25.9v-68.7h30V538.3z"/>
	<path class="st0" d="M626.9,562.8v25.2h-80.4V469.6h30.1v93.3H626.9z"/>
	<path class="st0" d="M668.7,566.2l-8.6,21.8h-31l51.1-118.5h31l49.9,118.5h-32.2l-8.5-21.8H668.7z M694.7,499.5l-17.3,43.8h34.2
		L694.7,499.5z"/>
	<path class="st0" d="M854.9,588.1l-54.5-73v73h-28.3V469.6h26.6l54.7,73.1v-73.1h28.1v118.5H854.9z"/>
	<path class="st0" d="M1008.4,488.5L991,509.2c-7.8-9.5-19.3-15.4-29.8-15.4c-18.8,0-33,14.9-33,34.4c0,19.8,14.2,34.9,33,34.9
		c10,0,21.5-5.4,29.8-13.9l17.6,18.6c-12.7,13-31.5,21.7-48.9,21.7c-35.7,0-62.3-26.2-62.3-60.9c0-34.2,27.3-59.9,63.3-59.9
		C978.3,468.6,996.6,476.3,1008.4,488.5z"/>
	<path class="st0" d="M1022.3,588.1V469.6h30.1v118.5H1022.3z"/>
	<path class="st0" d="M1103.1,566.2l-8.6,21.8h-31l51.1-118.5h31l49.9,118.5h-32.2l-8.5-21.8H1103.1z M1129.1,499.5l-17.3,43.8h34.2
		L1129.1,499.5z"/>
</g>
</svg>
