<svg width="1341" height="487" viewBox="0 0 1341 487" fill="none" xmlns="http://www.w3.org/2000/svg">
<g clip-path="url(#clip0_902_1415)">
<path d="M270.9 156.3C270.9 180.8 270.9 205.2 270.9 229.7C270.9 242.2 281 249.9 293.1 246.8C300.2 245 304.8 239.5 305.2 232.1C305.2 231.9 305.2 231.7 305.2 231.6C305.5 184.1 306.2 136.7 306 89.2C305.8 44.7 275.7 26.2 244.4 20.7C231.5 18.4 218.6 19 206 22.7C177.5 31 159.2 53.7 157.9 83.3C157.3 98.2 157.5 113.2 157.8 128.1C158.1 141 168.6 148.2 180.9 144.5C188.4 142.2 192.6 136.3 192.5 127.7C192.3 117.8 191.5 107.9 191.4 98.1C191.3 92.7 191.8 87.3 192.6 82C194.7 68.3 202.4 59.6 216.2 56.6C229.5 53.7 242.6 53.8 255.3 59.3C265.3 63.7 270.8 71.3 270.8 82.4C270.9 107 270.9 131.6 270.9 156.3Z" fill="#91007E"/>
<path d="M192.8 310.9C192.8 288.4 192.9 265.9 192.8 243.5C192.7 229.9 180.8 221.9 168.2 226.9C162.8 229.1 159.3 233 158.5 238.8C158.2 241.1 158 243.4 158 245.8C157.6 285.2 157.2 324.6 157 363.9C157 372.3 157.8 380.8 159 389.1C160.7 401.2 166.6 411.4 175.3 420C202.7 447 252.1 450.1 282.5 426.5C296.5 415.7 304.4 401.4 305.3 383.7C305.9 372.9 306.1 362.1 306.1 351.4C306.1 339.9 299.4 333 288.8 333C278 333 271.2 340.2 271.2 351.8C271.2 359 271.9 366.2 271.7 373.4C271.2 392.7 262.6 403 243.7 406.5C231.4 408.8 219.3 407.8 208 401.9C198.1 396.8 192.7 388.8 192.8 377.3C192.9 355.1 192.8 333 192.8 310.9Z" fill="#002F54"/>
<path d="M361.2 199C368.2 199 375.2 199 382.2 199C402.9 199 414.4 208.6 417.4 229.1C419 239.5 418 249.9 414.1 259.9C409.8 270.8 402.4 277.4 390.1 277.4C373 277.4 355.9 277.4 338.8 277.5C329.5 277.6 323.9 282.3 322 291.1C319.7 302.3 327.1 311.7 338.5 312C353.2 312.4 368 313.2 382.7 313C427.9 312.4 458.7 275.8 452.3 230.9C450.1 215.5 445.7 201.1 436.4 188.5C425.4 173.5 410.3 165.3 391.9 164.6C371.8 163.8 351.6 164.2 331.5 164.6C321.8 164.8 315.8 172.2 315.9 182.3C316 192.1 322.1 198.7 331.9 199C341.7 199.1 351.5 198.9 361.2 199C361.2 198.9 361.2 198.9 361.2 199Z" fill="#91007E"/>
<path d="M101.5 198.8C110.1 198.8 118.8 198.9 127.4 198.8C138.6 198.7 145.3 192.2 145.3 181.7C145.3 171.3 138.5 164.5 127.6 164.2C112.3 163.8 97 163 81.8 163.2C33.7 163.6 1.90001 201.5 9.10001 249.3C11.5 265.3 16.6 280 27.4 292.2C40.2 306.7 57.1 312.1 75.6 312.5C91.9 312.9 108.3 312.2 124.7 311.5C133.6 311.2 139.5 303.6 139.3 294C139.1 284.4 133 277.4 123.9 277.3C109.7 277.1 95.5 277.2 81.3 277.4C56.9 277.7 44.6 266.8 43.2 242.4C42.8 235.7 43.7 228.7 45.5 222.2C50.1 205.9 60.2 198.7 77.2 198.6C85.3 198.8 93.4 198.8 101.5 198.8Z" fill="#002F54"/>
<path d="M270.8 294.9C270.8 305.2 277.4 312.1 287.4 312.1C297.4 312.1 304.1 305.3 304.2 295.1C304.3 284.6 297.4 277.4 287.3 277.5C277.5 277.6 270.8 284.7 270.8 294.9Z" fill="#91007E"/>
<path d="M191.9 181.8C191.9 171.5 185.3 164.4 175.5 164.3C165.8 164.2 158.7 171.4 158.7 181.5C158.6 191.8 165.3 198.8 175.2 198.8C185.2 198.9 191.9 192.1 191.9 181.8Z" fill="#91007E"/>
<path d="M580.7 94.7V127H658.4V159.6H580.7V192.4H669.3V225H539.3V62.2H666.7V94.8H580.7V94.7Z" fill="#002F54"/>
<path d="M758.6 62.2C800.2 62.2 824.2 82.7 824.2 118.9C824.2 157 800.2 179.1 758.6 179.1H729.1V224.9H687.7V62.2H758.6ZM729.1 146.6H756.5C774.6 146.6 785.1 137.5 785.1 120.3C785.1 103.3 774.6 94.7 756.5 94.7H729.1V146.6Z" fill="#002F54"/>
<path d="M964.2 78.4L948.6 110.7C931.4 100.7 909.8 93.7 896.5 93.7C885.8 93.7 878.6 97.7 878.6 105.6C878.6 133.7 964.6 117.7 964.6 176.5C964.6 209.1 935.8 226.3 899.5 226.3C872.3 226.3 844.4 216.1 825.1 200.3L841.1 168.4C857.8 183 883 192.8 899.9 192.8C912.9 192.8 921.1 187.9 921.1 178.6C921.1 149.8 835.1 167 835.1 109.3C835.1 79.3 860.9 60.2 900 60.2C923.5 60.3 947.4 67.5 964.2 78.4Z" fill="#002F54"/>
<path d="M566.3 273.5V330.7H642.3V348.6H566.3V418.4H547.7V255.6H651.2V273.5H566.3Z" fill="#002F54"/>
<path d="M678.6 377.3L660.5 418.5H640.7L713.7 255.7H733L805.8 418.5H785.6L767.5 377.3H678.6ZM722.8 276.8L686.5 359.4H759.5L722.8 276.8Z" fill="#002F54"/>
<path d="M895.8 366.6C892.3 366.8 888.6 367.1 884.9 367.1H841.6V418.5H823V255.6H884.9C925.6 255.6 949.1 275.6 949.1 310.2C949.1 337.2 936.1 355.3 912.6 363L950.7 418.3H929.5L895.8 366.6ZM884.9 349.1C914.4 349.1 931.2 336.1 931.2 310.7C931.2 286.1 914.5 273.5 884.9 273.5H841.6V349.1H884.9Z" fill="#002F54"/>
<path d="M1130.2 418.4L1130 284.2L1070.7 401.2H1059.5L1000.4 284.2V418.4H982.7V255.6H1005.7L1065.2 372.8L1124.5 255.6H1147.3V418.4H1130.2V418.4Z" fill="#002F54"/>
<path d="M1202.7 377.3L1184.6 418.5H1164.8L1237.8 255.7H1257.1L1329.9 418.5H1309.7L1291.6 377.3H1202.7ZM1246.9 276.8L1210.6 359.4H1283.6L1246.9 276.8Z" fill="#002F54"/>
<path d="M506.5 14H495.4V476.8H506.5V14Z" fill="#002F54"/>
</g>
<defs>
<clipPath id="clip0_902_1415">
<rect width="1341" height="487" fill="white"/>
</clipPath>
</defs>
</svg>
