<svg width="387" height="119" viewBox="0 0 387 119" fill="none" xmlns="http://www.w3.org/2000/svg">
<path d="M68.2 35.3C68.2 41.4 68.2 47.6 68.2 53.7C68.2 56.9 70.8 58.8 73.9 58C75.7 57.5 76.9 56.2 77 54.3V54.2C77.1 42.3 77.3 30.3 77.2 18.4C77.1 7.20002 69.5 2.60002 61.4 1.20002C58.1 0.600024 54.8 0.800024 51.6 1.70002C44.3 3.80002 39.6 9.50002 39.3 16.9C39.1 20.6 39.2 24.4 39.3 28.2C39.4 31.5 42.1 33.3 45.2 32.3C47.1 31.7 48.2 30.2 48.2 28.1C48.2 25.6 48 23.1 47.9 20.6C47.9 19.3 48 17.9 48.2 16.6C48.7 13.1 50.7 11 54.2 10.2C57.6 9.50002 61 9.50002 64.2 10.9C66.8 12 68.2 13.9 68.2 16.7C68.2 23 68.2 29.1 68.2 35.3Z" fill="#5C0038"/>
<path d="M48.2001 74.2C48.2001 68.5 48.2001 62.9 48.2001 57.2C48.2001 53.8 45.1001 51.8 41.9001 53C40.5001 53.5 39.6001 54.5 39.4001 56C39.3001 56.6 39.3001 57.2 39.3001 57.8C39.2001 67.7 39.1001 77.6 39.1001 87.5C39.1001 89.6 39.3001 91.7 39.6001 93.8C40.0001 96.9 41.5001 99.4 43.8001 101.6C50.8001 108.4 63.4001 109.2 71.2001 103.2C74.8001 100.5 76.8001 96.8999 77.0001 92.3999C77.1001 89.6999 77.2001 87 77.2001 84.3C77.2001 81.4 75.5001 79.7 72.8001 79.7C70.0001 79.7 68.3001 81.4999 68.3001 84.3999C68.3001 86.1999 68.5001 88 68.4001 89.8C68.3001 94.7 66.1001 97.2 61.2001 98.1C58.1001 98.7 55.0001 98.4 52.1001 97C49.6001 95.7 48.2001 93.7 48.2001 90.8C48.2001 85.3 48.2001 79.8 48.2001 74.2Z" fill="#002857"/>
<path d="M91.3001 46.1C93.1001 46.1 94.9001 46.1 96.7001 46.1C102 46.1 104.9 48.5 105.7 53.7C106.1 56.3 105.8 58.9 104.8 61.4C103.7 64.1 101.8 65.8 98.7001 65.8C94.3001 65.8 90.0001 65.8 85.6001 65.8C83.2001 65.8 81.8001 67 81.3001 69.2C80.7001 72 82.6001 74.4 85.5001 74.5C89.3001 74.6 93.0001 74.8 96.8001 74.7C108.4 74.6 116.2 65.4 114.6 54.1C114 50.2 112.9 46.6 110.5 43.4C107.7 39.6 103.8 37.6 99.1001 37.4C94.0001 37.2 88.8001 37.3 83.6001 37.4C81.1001 37.4 79.6001 39.3 79.6001 41.9C79.6001 44.4 81.2001 46 83.7001 46.1C86.3001 46.1 88.8001 46.1 91.3001 46.1Z" fill="#5C0038"/>
<path d="M24.8001 46C27.0001 46 29.2001 46 31.4001 46C34.3001 46 36.0001 44.3 36.0001 41.7C36.0001 39.1 34.2001 37.4 31.5001 37.3C27.6001 37.2 23.7001 37 19.8001 37C7.50011 37.1 -0.59989 46.6 1.20011 58.6C1.80011 62.6 3.10011 66.3 5.90011 69.4C9.20011 73 13.5001 74.4 18.2001 74.5C22.4001 74.6 26.6001 74.4 30.8001 74.3C33.1001 74.2 34.6001 72.3 34.5001 69.9C34.5001 67.5 32.9001 65.7 30.6001 65.7C27.0001 65.7 23.3001 65.7 19.7001 65.7C13.5001 65.8 10.3001 63 9.90011 56.9C9.80011 55.2 10.0001 53.4 10.5001 51.8C11.7001 47.7 14.3001 45.9 18.6001 45.9C20.7001 46 22.8001 46 24.8001 46Z" fill="#002857"/>
<path d="M68.2002 70.2C68.2002 72.8 69.9002 74.5 72.4002 74.5C74.9002 74.5 76.7002 72.8 76.7002 70.2C76.7002 67.6 75.0002 65.8 72.4002 65.8C69.9002 65.8 68.2002 67.6 68.2002 70.2Z" fill="#5C0038"/>
<path d="M48 41.8C48 39.2 46.3 37.4 43.8 37.4C41.3 37.4 39.5 39.2 39.5 41.7C39.5 44.3 41.2 46 43.7 46.1C46.3 46 48 44.3 48 41.8Z" fill="#5C0038"/>
<path d="M147.5 20.2V28.3H167.3V36.4H147.5V44.6H170.1V52.8H137V12H169.5V20.2H147.5Z" fill="#002857"/>
<path d="M185.3 33.2H192.3C196.9 33.2 199.6 30.9 199.6 26.6C199.6 22.3 196.9 20.2 192.3 20.2H185.3V33.2ZM192.9 12C203.5 12 209.6 17.1 209.6 26.2C209.6 35.7 203.5 41.3 192.9 41.3H185.4V52.8H174.9V12H192.9Z" fill="#002857"/>
<path d="M245.3 16.1L241.3 24.2C236.9 21.7 231.4 19.9 228 19.9C225.3 19.9 223.4 20.9 223.4 22.9C223.4 29.9 245.3 25.9 245.3 40.7C245.3 48.9 238 53.2 228.7 53.2C221.8 53.2 214.7 50.6 209.7 46.7L213.8 38.7C218.1 42.4 224.5 44.8 228.8 44.8C232.1 44.8 234.2 43.6 234.2 41.2C234.2 34 212.3 38.3 212.3 23.8C212.3 16.3 218.9 11.5 228.8 11.5C234.9 11.6 241 13.4 245.3 16.1Z" fill="#002857"/>
<path d="M129 0H126.2V116.4H129V0Z" fill="#002857"/>
<path d="M134.767 69.3516H138.558V101.934H158.64V105.213H134.767V69.3516ZM187.525 95.6326H167.545L163.242 105.213H159.297L175.691 69.3516H179.43L195.824 105.213H191.828L187.525 95.6326ZM186.142 92.5588L177.535 73.2963L168.928 92.5588H186.142ZM224.349 86.7186C226.705 87.2309 228.516 88.2555 229.779 89.7924C231.077 91.2951 231.726 93.2419 231.726 95.6326C231.726 98.7064 230.582 101.08 228.294 102.754C226.039 104.393 222.692 105.213 218.252 105.213H201.756V69.3516H217.228C221.224 69.3516 224.315 70.1542 226.5 71.7594C228.72 73.3646 229.83 75.6358 229.83 78.573C229.83 80.5539 229.335 82.2445 228.345 83.6448C227.388 85.0109 226.056 86.0355 224.349 86.7186ZM205.547 72.4766V85.4891H216.972C219.875 85.4891 222.112 84.9426 223.683 83.8497C225.254 82.7226 226.039 81.1003 226.039 78.9828C226.039 76.8653 225.254 75.2601 223.683 74.1672C222.112 73.0401 219.875 72.4766 216.972 72.4766H205.547ZM218.201 102.088C221.412 102.088 223.837 101.541 225.476 100.448C227.115 99.3553 227.935 97.6477 227.935 95.3252C227.935 90.8511 224.69 88.6141 218.201 88.6141H205.547V102.088H218.201ZM256.055 105.52C252.503 105.52 249.276 104.734 246.373 103.163C243.504 101.558 241.25 99.3724 239.611 96.606C238.005 93.8396 237.203 90.7316 237.203 87.2821C237.203 83.8326 238.005 80.7247 239.611 77.9582C241.25 75.1918 243.504 73.0231 246.373 71.452C249.276 69.8468 252.503 69.0442 256.055 69.0442C259.607 69.0442 262.801 69.8297 265.635 71.4008C268.504 72.9718 270.758 75.1577 272.398 77.9582C274.037 80.7247 274.857 83.8326 274.857 87.2821C274.857 90.7316 274.037 93.8566 272.398 96.6572C270.758 99.4236 268.504 101.592 265.635 103.163C262.801 104.734 259.607 105.52 256.055 105.52ZM256.055 102.139C258.89 102.139 261.452 101.507 263.74 100.243C266.028 98.9455 267.821 97.1695 269.119 94.9154C270.417 92.6271 271.066 90.0827 271.066 87.2821C271.066 84.4815 270.417 81.9542 269.119 79.7001C267.821 77.4118 266.028 75.6358 263.74 74.3721C261.452 73.0743 258.89 72.4254 256.055 72.4254C253.221 72.4254 250.642 73.0743 248.32 74.3721C246.031 75.6358 244.221 77.4118 242.889 79.7001C241.591 81.9542 240.943 84.4815 240.943 87.2821C240.943 90.0827 241.591 92.6271 242.889 94.9154C244.221 97.1695 246.031 98.9455 248.32 100.243C250.642 101.507 253.221 102.139 256.055 102.139ZM307.842 105.213L299.645 93.6859C298.723 93.7883 297.767 93.8396 296.777 93.8396H287.145V105.213H283.354V69.3516H296.777C301.353 69.3516 304.939 70.4445 307.535 72.6303C310.131 74.8161 311.428 77.8216 311.428 81.6468C311.428 84.4474 310.711 86.821 309.277 88.7678C307.876 90.6804 305.861 92.0636 303.232 92.9174L311.992 105.213H307.842ZM296.674 90.6121C300.226 90.6121 302.941 89.8265 304.82 88.2555C306.698 86.6844 307.637 84.4815 307.637 81.6468C307.637 78.7438 306.698 76.5238 304.82 74.9869C302.941 73.4158 300.226 72.6303 296.674 72.6303H287.145V90.6121H296.674ZM342.866 95.6326H322.886L318.583 105.213H314.638L331.032 69.3516H334.772L351.165 105.213H347.169L342.866 95.6326ZM341.483 92.5588L332.876 73.2963L324.27 92.5588H341.483ZM357.098 69.3516H360.889V101.934H380.971V105.213H357.098V69.3516Z" fill="#002857"/>
</svg>
