<svg width="2031" height="487" viewBox="0 0 2031 487" fill="none" xmlns="http://www.w3.org/2000/svg">
<g clip-path="url(#clip0_902_1157)">
<path d="M270.7 153.2C270.7 177.8 270.7 202.4 270.7 227C270.7 239.6 280.9 247.3 293.1 244.2C300.3 242.4 304.9 236.8 305.3 229.4C305.3 229.2 305.3 229 305.3 228.9C305.6 181.2 306.3 133.4 306.1 85.7C305.9 40.9 275.6 22.4 244.1 16.8C231.1 14.5 218.2 15.1 205.5 18.8C176.8 27.2 158.4 50 157.2 79.8C156.6 94.8 156.8 109.8 157.1 124.8C157.4 137.8 168 145.1 180.3 141.3C187.8 139 192.1 133.1 191.9 124.4C191.7 114.5 190.9 104.5 190.8 94.6C190.7 89.2 191.2 83.8 192 78.4C194.1 64.6 201.9 55.9 215.7 52.9C229.1 50 242.3 50.1 255 55.7C265.1 60.1 270.6 67.7 270.6 78.9C270.7 103.7 270.7 128.5 270.7 153.2Z" fill="#00E8E5"/>
<path d="M192.1 308.7C192.1 286.1 192.2 263.5 192.1 240.9C192 227.2 180 219.1 167.3 224.3C161.9 226.5 158.4 230.4 157.5 236.3C157.2 238.6 157 241 157 243.3C156.6 282.9 156.2 322.5 156 362.1C156 370.6 156.8 379.1 158 387.5C159.7 399.7 165.6 409.9 174.4 418.6C201.9 445.8 251.6 448.9 282.2 425.1C296.3 414.2 304.2 399.9 305.1 382C305.7 371.2 305.9 360.3 305.9 349.5C305.9 338 299.2 331 288.5 331C277.7 331 270.8 338.3 270.8 349.9C270.8 357.1 271.5 364.4 271.4 371.6C270.9 391.1 262.3 401.4 243.2 404.9C230.9 407.2 218.7 406.2 207.3 400.3C197.3 395.1 191.9 387.1 192 375.5C192.2 353.2 192.1 331 192.1 308.7Z" fill="#002F54"/>
<path d="M361.5 196.2C368.6 196.2 375.6 196.2 382.7 196.2C403.5 196.2 415.1 205.8 418.1 226.4C419.7 236.9 418.7 247.3 414.8 257.4C410.5 268.4 403 275 390.7 275C373.5 275 356.3 275 339.1 275.1C329.8 275.2 324.1 279.9 322.2 288.8C319.8 300 327.3 309.5 338.8 309.8C353.6 310.2 368.5 311 383.3 310.8C428.8 310.2 459.7 273.4 453.3 228.2C451.1 212.7 446.6 198.2 437.3 185.5C426.2 170.4 411 162.1 392.5 161.4C372.3 160.6 352 161 331.8 161.4C322 161.6 316 169 316.1 179.2C316.2 189 322.4 195.7 332.1 196C341.9 196.4 351.7 196.1 361.5 196.2C361.5 196.1 361.5 196.1 361.5 196.2Z" fill="#00E8E5"/>
<path d="M100.3 196C109 196 117.7 196.1 126.3 196C137.5 195.9 144.3 189.4 144.3 178.8C144.3 168.3 137.4 161.5 126.5 161.2C111.1 160.8 95.8 160 80.4 160.2C32 160.6 0.100016 198.7 7.40002 246.8C9.80002 262.9 14.9 277.6 25.8 290C38.7 304.6 55.7 310 74.3 310.5C90.7 310.9 107.2 310.2 123.6 309.5C132.5 309.1 138.5 301.6 138.3 291.9C138.1 282.2 132 275.2 122.8 275.1C108.5 274.9 94.2 275 79.9 275.2C55.4 275.5 43 264.5 41.5 240C41.1 233.3 42 226.2 43.9 219.7C48.5 203.3 58.7 196.1 75.8 196C84 196 92.2 196 100.3 196Z" fill="#002F54"/>
<path d="M270.6 292.7C270.6 303.1 277.2 310 287.3 310C297.3 310 304.1 303.1 304.2 292.9C304.3 282.4 297.4 275.1 287.2 275.2C277.3 275.3 270.6 282.4 270.6 292.7Z" fill="#00E8E5"/>
<path d="M191.2 178.9C191.2 168.6 184.5 161.4 174.7 161.3C164.9 161.2 157.8 168.4 157.8 178.6C157.7 188.9 164.4 196 174.4 196C184.5 196.1 191.2 189.3 191.2 178.9Z" fill="#00E8E5"/>
<path d="M650.5 222.3V155H564.5V222.2H537.1V60H564.5V130.5H650.5V60H677.9V222.3H650.5Z" fill="#002F54"/>
<path d="M870.7 141.1C870.7 187.5 833.1 223.4 784.7 223.4C736.3 223.4 698.7 187.5 698.7 141.1C698.7 94.5 736.3 59.3 784.7 59.3C833.1 59.3 870.7 94.8 870.7 141.1ZM726.5 141.1C726.5 173.3 753.2 198.8 784.9 198.8C816.6 198.8 842.6 173.3 842.6 141.1C842.6 108.9 816.6 83.8 784.9 83.8C752.9 83.9 726.5 108.9 726.5 141.1Z" fill="#002F54"/>
<path d="M1001.7 75.5L990.3 99.6C972.7 88.9 955.1 84.5 942.8 84.5C926.8 84.5 916.4 90.5 916.4 101.4C916.4 136.9 1004 117.9 1003.8 176.3C1003.8 205.3 978.3 223.1 942.6 223.1C917.1 223.1 893 212.7 876.3 197.4L888.1 173.8C904.8 189.1 925.7 197.4 943 197.4C962 197.4 973.4 190.2 973.4 177.7C973.4 141.5 885.8 161.7 885.8 104C885.8 76.2 909.7 58.8 944.9 58.8C966 58.8 986.6 65.6 1001.7 75.5Z" fill="#002F54"/>
<path d="M1092.1 60C1132.9 60 1156.3 80.2 1156.3 115.4C1156.3 152 1132.9 173.4 1092.1 173.4H1054.8V222.3H1027.4V60H1092.1ZM1054.7 148.8H1090.9C1115.9 148.8 1130.1 138.1 1130.1 116.1C1130.1 94.8 1116 84.6 1090.9 84.6H1054.7V148.8Z" fill="#002F54"/>
<path d="M1175 222.3V60H1202.4V222.3H1175Z" fill="#002F54"/>
<path d="M1296 84.6V222.3H1268.6V84.6H1217.4V60H1347.5V84.6H1296Z" fill="#002F54"/>
<path d="M1369.5 185.6L1354 222.2H1325.5L1397.1 60H1425.2L1496.1 222.3H1466.9L1451.4 185.7H1369.5V185.6ZM1410.3 89.2L1379.7 161.3H1440.9L1410.3 89.2Z" fill="#002F54"/>
<path d="M1606.9 197.5V222.3H1509.3V60H1536.7V197.5H1606.9Z" fill="#002F54"/>
<path d="M630.1 397.5V415.1H540.4V252.9H558.9V397.6H630.1V397.5Z" fill="#002F54"/>
<path d="M806.5 334C806.5 379.7 768.9 416.1 721.7 416.1C674.2 416.1 636.6 379.7 636.6 334C636.6 288.1 674.2 252.4 721.7 252.4C768.9 252.4 806.5 288.3 806.5 334ZM655.3 334C655.3 369.7 685.4 398.2 721.6 398.2C757.8 398.2 787.4 369.7 787.4 334C787.4 298.3 757.7 270 721.6 270C685.5 270 655.3 298.3 655.3 334Z" fill="#002F54"/>
<path d="M931.7 267.2L923.8 284.6C909.2 274.9 892 271 879 271C858.1 271 844.5 278.9 844.5 292.6C844.5 334.3 935.8 312.5 935.6 371.4C935.6 398.5 911.7 415.9 876.9 415.9C853.3 415.9 830.1 405.7 814.8 391.1L823.1 374.4C838.2 389 858.8 397.4 877.1 397.4C900.5 397.4 915.1 387.9 915.1 372.4C915.3 329.7 824 352.5 824 294.3C824 268.8 846.5 252.3 880.1 252.3C899 252.2 918.2 258.2 931.7 267.2Z" fill="#002F54"/>
<path d="M1034.6 374.1L1016.5 415.1H996.8L1069.6 252.8H1088.8L1161.4 415.1H1141.2L1123.1 374.1H1034.6ZM1078.6 274L1042.4 356.3H1115.2L1078.6 274Z" fill="#002F54"/>
<path d="M1294.4 415.1L1197 284.8V415.1H1178.5V252.9H1197.7L1295.1 383.4V252.9H1313.4V415.2H1294.4V415.1Z" fill="#002F54"/>
<path d="M1484 335.9V394.8C1468 407.6 1445.5 416.1 1423.7 416.1C1376.6 416.1 1339.1 379.7 1339.1 334C1339.1 288.3 1376.9 252.4 1424.6 252.4C1447.1 252.4 1468.9 261 1484.4 274.7L1473.7 288.6C1460.5 276.8 1442.6 269.8 1424.6 269.8C1387.5 269.8 1357.8 298.3 1357.8 334C1357.8 369.9 1387.7 398.4 1424.8 398.4C1439.4 398.4 1454.9 393.3 1467.5 384.7V335.8H1484V335.9Z" fill="#002F54"/>
<path d="M1539.2 270.7V324H1621V341.9H1539.2V397.5H1633.8V415.1H1520.7V252.9H1630.8V270.8H1539.2V270.7Z" fill="#002F54"/>
<path d="M1752.9 397.5V415.1H1663.2V252.9H1681.7V397.6H1752.9V397.5Z" fill="#002F54"/>
<path d="M1793.3 270.7V324H1875.1V341.9H1793.3V397.5H1887.9V415.1H1774.8V252.9H1884.9V270.8H1793.3V270.7Z" fill="#002F54"/>
<path d="M2017 267.2L2009.1 284.6C1994.5 274.9 1977.3 270.9 1964.4 270.9C1943.5 270.9 1929.9 278.8 1929.9 292.5C1929.9 334.2 2021.2 312.4 2021 371.3C2021 398.4 1997.1 415.8 1962.3 415.8C1938.7 415.8 1915.5 405.6 1900.2 391L1908.5 374.3C1923.6 388.9 1944.2 397.3 1962.5 397.3C1985.9 397.3 2000.5 387.8 2000.5 372.3C2000.7 329.6 1909.4 352.4 1909.4 294.2C1909.4 268.7 1931.9 252.2 1965.5 252.2C1984.3 252.2 2003.5 258.2 2017 267.2Z" fill="#002F54"/>
<path d="M507.7 11.2H496.4V480.9H507.7V11.2Z" fill="#002F54"/>
</g>
<defs>
<clipPath id="clip0_902_1157">
<rect width="2031" height="487" fill="white"/>
</clipPath>
</defs>
</svg>
