<svg width="420" height="166" viewBox="0 0 420 166" fill="none" xmlns="http://www.w3.org/2000/svg">
<g clip-path="url(#clip0_902_2961)">
<path d="M79.7999 2.80005H-9.1001V165.7H79.7999V2.80005Z" fill="url(#paint0_linear_902_2961)"/>
<path d="M100.4 141.2H99.3999V142.2H100.4V141.2Z" fill="url(#paint1_linear_902_2961)"/>
<path d="M137.4 11.8H48.5999V141.2H137.4V11.8Z" fill="url(#paint2_linear_902_2961)"/>
<path d="M142.1 71.7001H77.7998V153.3H142.1V71.7001Z" fill="url(#paint3_linear_902_2961)"/>
<path d="M128.7 27.5H31.0999V184.2H128.7V27.5Z" fill="url(#paint4_linear_902_2961)"/>
<path d="M144.1 127.9C144.1 127.9 142.8 137.7 145.4 146.1L146.1 129.8C146.1 129.8 153.9 127.8 153.9 120.7C153.8 120.7 153.2 125.9 144.1 127.9Z" fill="#4AB4E2"/>
<path d="M114.1 13.5H4V170.2H114.1V13.5Z" fill="url(#paint5_linear_902_2961)"/>
<path d="M143.1 61.1001H102.7V108.2H143.1V61.1001Z" fill="url(#paint6_linear_902_2961)"/>
<g opacity="0.4">
<g opacity="0.4">
<g opacity="0.4">
<path opacity="0.4" d="M100.4 142.2C100.1 141.9 99.6997 141.5 99.3997 141.2C99.9997 141.9 100.4 142.2 100.4 142.2Z" fill="#1E6CB7"/>
<path opacity="0.4" d="M80.1997 79.7001C80.1997 79.7001 80.8997 61.5001 97.0997 50.4001C97.0997 50.4001 101 46.5001 104.3 47.1001C104.3 47.1001 106.3 47.8001 104.3 49.7001C104.3 49.7001 97.7997 53.0001 94.4997 58.8001C94.4997 58.8001 99.0997 58.8001 101.7 62.1001C101.7 62.1001 103.7 66.0001 106.9 62.1001C106.9 62.1001 110.2 58.8001 112.8 58.8001C112.8 58.8001 114.8 59.5001 115.4 57.5001C115.4 57.5001 114.7 54.2001 119.3 51.6001C119.3 51.6001 121.9 51.6001 123.2 50.3001C123.2 50.3001 119.9 51.0001 119.9 49.6001C119.9 49.6001 119.2 48.9001 121.9 47.6001C121.9 47.6001 127.8 44.3001 129.1 39.8001C129.1 39.8001 130.4 36.5001 125.2 37.2001C125.2 37.2001 120 37.9001 116.7 43.7001C116.7 43.7001 113.4 48.9001 110.2 47.6001C110.2 47.6001 107.6 45.6001 111.5 41.1001C111.5 41.1001 116.7 35.2001 131 33.3001C131 33.3001 122.5 13.8001 106.9 11.8001C106.9 11.8001 92.5997 9.80007 82.7997 26.1001C82.7997 26.1001 71.6997 40.4001 70.3997 78.9001C70.3997 78.9001 67.1997 109.5 99.3997 141.1C94.8997 136.6 77.3997 116.1 80.1997 79.7001Z" fill="#1E6CB7"/>
<path opacity="0.4" d="M121.9 60.8C114.7 70.6 102.4 71.9001 102.4 71.9001C104.4 73.9001 108.9 86.9001 108.9 86.9001C113.5 102.5 116.4 106.1 116.4 106.1L142.8 105.8V60.8H121.9Z" fill="#1E6CB7"/>
<path opacity="0.4" d="M111.5 114.9C107.6 111 100.4 88.8001 100.4 88.8001C95.1997 73.8001 93.8997 73.8001 93.8997 73.8001C88.6997 67.9001 86.6997 74.5001 86.6997 74.5001C84.0997 86.2001 89.2997 102.5 89.2997 102.5C93.1997 117.5 102.3 129.9 102.3 129.9C117.9 152.1 142.1 153.4 142.1 153.4C138.8 144.9 138.8 124.1 138.8 124.1C117.4 128.6 111.5 114.9 111.5 114.9Z" fill="#1E6CB7"/>
</g>
<g opacity="0.4">
<g opacity="0.4">
<g opacity="0.4">
<g opacity="0.4">
<path opacity="0.4" d="M121.8 101.4C125.1 132.4 109.1 159.6 85.8998 162.1C62.7998 164.6 41.2998 141.4 37.8998 110.4C34.5998 79.4 50.5998 52.2 73.7998 49.7C96.9998 47.2 118.5 70.4 121.8 101.4Z" fill="#2171BA"/>
</g>
</g>
</g>
</g>
</g>
</g>
<path d="M169.8 24.6H179.3V45.7H188.9V24.6H198.5V76.4H188.9V53.2H179.3V76.4H169.8V24.6Z" fill="#002F54"/>
<path d="M207.2 36.6C207.2 32.5 208.5 29.3 211.2 27C213.9 24.7 217.6 23.5 222.3 23.5C226.7 23.5 230.3 24.7 232.9 27.1C235.5 29.5 236.8 32.7 236.8 36.8V63.3C236.8 67.8 235.5 71.3 232.9 73.8C230.3 76.3 226.7 77.5 222 77.5C217.2 77.5 213.6 76.3 211.1 73.8C208.6 71.4 207.3 67.8 207.3 63.1V36.6H207.2ZM226.9 65V36.1C226.9 34.3 226.5 33 225.7 32.1C224.9 31.2 223.6 30.8 222 30.8C220.4 30.8 219.1 31.2 218.3 32.1C217.5 33 217.1 34.3 217.1 36.1V65C217.1 66.8 217.5 68.1 218.3 69C219.1 69.9 220.4 70.4 222 70.4C223.6 70.4 224.9 69.9 225.7 69C226.5 68.1 226.9 66.7 226.9 65Z" fill="#002F54"/>
<path d="M242.5 63.2L251.7 62.0999C251.9 64.6999 252.5 66.7 253.5 67.9C254.5 69.2 256.1 69.8 258.1 69.8C259.8 69.8 261.3 69.3 262.4 68.4C263.5 67.5 264 66.3 264 64.8C264 62.1 261.4 58.5999 256.3 54.2999C255.9 53.9999 255.6 53.7 255.4 53.5C250.4 49.3 247.1 46.0999 245.7 43.7999C244.3 41.4999 243.5 39.1999 243.5 36.5999C243.5 32.8999 244.9 29.9 247.8 27.4C250.7 24.9 254.2 23.7 258.4 23.7C262.4 23.7 265.8 24.9 268.3 27.2C270.9 29.5 272.4 32.5999 272.7 36.5999L263.3 37.7C263.1 35.4 262.6 33.7 261.8 32.7C261 31.7 259.7 31.2 258 31.2C256.5 31.2 255.2 31.6 254.3 32.5C253.4 33.4 252.9 34.5 252.9 36C252.9 39 255.9 42.8999 261.9 47.7999C262.1 47.9999 262.3 48.0999 262.5 48.2999C266.9 51.8999 269.8 54.7999 271.2 57.0999C272.6 59.3999 273.3 61.8999 273.3 64.6999C273.3 68.4999 271.9 71.6 269.1 74C266.3 76.4 262.7 77.5999 258.4 77.5999C253.6 77.5999 249.9 76.3 247.1 73.8C244.3 71.2 242.8 67.7 242.5 63.2Z" fill="#002F54"/>
<path d="M279.9 76.4V24.6H294C299.2 24.6 303.1 25.8 305.4 28.1C307.8 30.5 308.9 34.3 308.9 39.5C308.9 44.4 307.8 48.2 305.5 51C303.2 53.8 300.1 55.2 296.1 55.2H289.5V76.3H279.9V76.4ZM289.5 47.9H293.3C295.5 47.9 297.1 47.3 297.9 46.2C298.7 45.1 299.2 42.9 299.2 39.7C299.2 36.8 298.8 34.8 297.9 33.7C297 32.6 295.4 32.1 293 32.1H289.6V47.9H289.5Z" fill="#002F54"/>
<path d="M315.7 76.4V24.6H325.5V76.4H315.7Z" fill="#002F54"/>
<path d="M329.6 32.1V24.6H359.1V32.1H349.1V76.4H339.5V32.1H329.6Z" fill="#002F54"/>
<path d="M356.8 76.4L367 24.6H379.5L389.7 76.4H379.8L378 65.2H368.3L366.2 76.4H356.8ZM369.5 57.8H376.8L373.5 36.2H373L369.5 57.8Z" fill="#002F54"/>
<path d="M395.3 76.4V24.6H404.8V68.9H419.7V76.4H395.3Z" fill="#002F54"/>
<path d="M169.6 109.7V84.8H175.9L179 98.6C179.1 99.2 179.2 99.7 179.3 100.4C179.4 101 179.4 101.7 179.4 102.4C179.4 101.8 179.4 101.2 179.5 100.6C179.6 100 179.7 99.4 179.8 98.7L182.7 84.9H189.1V109.8H184.7V94C184.7 93.6 184.7 93 184.8 92.2C184.9 91.4 185 90.6 185.1 89.7C185 90 184.9 90.5 184.8 91.1C184.6 92.2 184.4 92.9 184.3 93.2L180.4 109.7H178L174.3 93.2C174.2 92.5 174 91.8 173.8 91C173.6 90.2 173.5 89.8 173.5 89.7C173.6 90.5 173.7 91.3 173.7 92.1C173.8 92.8 173.8 93.5 173.8 94.1V109.8H169.6V109.7Z" fill="#002F54"/>
<path d="M191.8 109.7L196.8 84.8H203L208 109.7H203.2L202.2 104.3H197.4L196.4 109.7H191.8V109.7ZM198 100.8H201.6L200 90.4H199.7L198 100.8Z" fill="#002F54"/>
<path d="M206.9 88.4V84.8H221.4V88.4H216.5V109.7H211.8V88.4H206.9Z" fill="#002F54"/>
<path d="M223.6 109.7V84.8H235.9V88.4H228.3V94.9H233.8V98.5H228.3V105.9H235.9V109.6H223.6V109.7Z" fill="#002F54"/>
<path d="M244.2 99.2V109.7H239.5V84.8H246.4C249 84.8 250.9 85.4 252 86.5C253.2 87.6 253.7 89.5 253.7 92C253.7 93.6 253.5 94.8 253 95.8C252.5 96.8 251.8 97.5 250.7 98.1L254.2 109.7H249.3L246.4 99.2H244.2V99.2ZM244.2 88.4V95.6H246.1C247.2 95.6 247.9 95.3 248.4 94.8C248.8 94.3 249 93.3 249 91.8C249 90.5 248.8 89.6 248.3 89.1C247.9 88.6 247.1 88.4 245.9 88.4H244.2Z" fill="#002F54"/>
<path d="M257.6 109.7V84.8H261.8L267.8 99.7C267.9 100 268.1 100.4 268.2 100.8C268.4 101.3 268.5 101.8 268.7 102.3C268.5 101.6 268.4 100.9 268.3 100.3C268.2 99.7 268.2 99.2 268.2 99V84.8H272.6V109.7H268.2L262.4 96C262.4 95.9 262.3 95.9 262.3 95.7C261.9 94.8 261.6 93.9 261.4 93.3C261.6 94.2 261.7 94.9 261.8 95.5C261.9 96.1 261.9 96.5 261.9 96.8V109.8H257.6V109.7Z" fill="#002F54"/>
<path d="M276.9 90.6C276.9 88.6 277.6 87.1 278.9 86C280.2 84.9 282 84.3 284.3 84.3C286.5 84.3 288.2 84.9 289.5 86C290.8 87.1 291.4 88.7 291.4 90.7V103.4C291.4 105.6 290.8 107.3 289.5 108.4C288.2 109.6 286.4 110.2 284.1 110.2C281.7 110.2 279.9 109.6 278.7 108.4C277.5 107.2 276.8 105.5 276.8 103.3V90.6H276.9ZM286.6 104.2V90.3C286.6 89.4 286.4 88.8 286 88.4C285.6 88 285 87.8 284.2 87.8C283.4 87.8 282.8 88 282.4 88.4C282 88.8 281.8 89.5 281.8 90.3V104.2C281.8 105.1 282 105.7 282.4 106.1C282.8 106.5 283.4 106.8 284.2 106.8C285 106.8 285.6 106.6 286 106.1C286.4 105.7 286.6 105.1 286.6 104.2Z" fill="#002F54"/>
<path d="M304.6 109.7V84.8H309.4V109.7H304.6V109.7Z" fill="#002F54"/>
<path d="M314.1 109.7V84.8H318.3L324.3 99.7C324.4 100 324.6 100.4 324.7 100.8C324.9 101.3 325 101.8 325.2 102.3C325 101.6 324.9 100.9 324.8 100.3C324.7 99.7 324.7 99.2 324.7 99V84.8H329.1V109.7H324.7L319 95.9C319 95.8 318.9 95.8 318.9 95.6C318.5 94.7 318.2 93.8 318 93.2C318.2 94.1 318.3 94.8 318.4 95.4C318.5 96 318.5 96.4 318.5 96.7V109.7H314.1Z" fill="#002F54"/>
<path d="M334 109.7V84.8H346.3V88.4H338.7V94.9H344.2V98.5H338.7V109.7H334V109.7Z" fill="#002F54"/>
<path d="M345.5 109.7L350.5 84.8H356.7L361.7 109.7H356.9L355.9 104.3H351.1L350.1 109.7H345.5V109.7ZM351.8 100.8H355.4L353.8 90.4H353.5L351.8 100.8Z" fill="#002F54"/>
<path d="M364.5 109.7V84.8H368.7L374.7 99.7C374.8 100 375 100.4 375.1 100.8C375.3 101.3 375.4 101.8 375.6 102.3C375.4 101.6 375.3 100.9 375.2 100.3C375.1 99.7 375.1 99.2 375.1 99V84.8H379.5V109.7H375.1L369.3 96C369.3 95.9 369.2 95.9 369.2 95.7C368.8 94.8 368.5 93.9 368.3 93.3C368.5 94.2 368.6 94.9 368.7 95.5C368.8 96.1 368.8 96.5 368.8 96.8V109.8H364.5V109.7Z" fill="#002F54"/>
<path d="M381.6 88.4V84.8H396.1V88.4H391.2V109.7H386.5V88.4H381.6Z" fill="#002F54"/>
<path d="M398.3 109.7V84.8H403.1V109.7H398.3V109.7Z" fill="#002F54"/>
<path d="M407.9 109.7V84.8H412.6V106.1H419.9V109.7H407.9V109.7Z" fill="#002F54"/>
<path d="M170.1 142.3V117.4H176.3C178.7 117.4 180.5 118 181.7 119.1C182.9 120.2 183.4 121.9 183.4 124.3V135.4C183.4 137.8 182.8 139.6 181.7 140.7C180.6 141.8 178.9 142.4 176.5 142.4H170.1V142.3ZM174.5 138.6H176.7C177.5 138.6 178 138.4 178.4 138C178.8 137.6 179 136.9 179 136V124C179 123 178.7 122.2 178.2 121.8C177.6 121.3 176.8 121.1 175.5 121.1H174.5V138.6V138.6Z" fill="#002F54"/>
<path d="M187.4 142.3V117.4H191.9V142.3H187.4Z" fill="#002F54"/>
<path d="M194.4 117.4H198.7L201.3 132.1C201.5 133 201.6 133.9 201.7 134.8C201.8 135.6 201.8 136.5 201.8 137.3V137.7C201.8 136.6 201.9 135.6 202 134.6C202.1 133.6 202.2 132.8 202.3 132L204.8 117.3H209.1L204.1 142.2H199.5L194.4 117.4Z" fill="#002F54"/>
<path d="M211.7 142.3V117.4H216.2V142.3H211.7Z" fill="#002F54"/>
<path d="M220.6 142.3V117.4H224.5L230.1 132.3C230.2 132.6 230.3 133 230.5 133.4C230.7 133.9 230.8 134.4 231 134.9C230.9 134.2 230.7 133.5 230.6 132.9C230.5 132.3 230.5 131.8 230.5 131.6V117.4H234.6V142.3H230.5L225.2 128.6C225.2 128.5 225.1 128.5 225.1 128.3C224.7 127.4 224.5 126.5 224.3 125.9C224.5 126.8 224.6 127.5 224.7 128.1C224.8 128.7 224.8 129.1 224.8 129.4V142.4H220.6V142.3Z" fill="#002F54"/>
<path d="M237 142.3L241.7 117.4H247.4L252.1 142.3H247.6L246.7 136.9H242.3L241.4 142.3H237ZM242.8 133.4H246.1L244.6 123H244.3L242.8 133.4Z" fill="#002F54"/>
<path d="M262.2 135.9V123.2C262.2 121.2 262.8 119.7 264 118.6C265.2 117.5 266.9 116.9 269.1 116.9C271.1 116.9 272.7 117.5 273.9 118.6C275.1 119.7 275.7 121.3 275.7 123.3V125.7H271.2V123C271.2 122.1 271 121.5 270.6 121.1C270.2 120.7 269.7 120.5 268.9 120.5C268.2 120.5 267.6 120.7 267.2 121.1C266.8 121.5 266.6 122.2 266.6 123V136.9C266.6 137.8 266.8 138.4 267.2 138.8C267.6 139.2 268.1 139.5 268.9 139.5C269.6 139.5 270.2 139.3 270.6 138.8C271 138.4 271.2 137.7 271.2 136.9V133.5H275.7V136.1C275.7 138.3 275.1 140 273.9 141.1C272.7 142.3 271.1 142.9 268.9 142.9C266.7 142.9 265 142.3 263.9 141.1C262.8 139.9 262.2 138.2 262.2 135.9Z" fill="#002F54"/>
<path d="M278.9 123.1C278.9 121.1 279.5 119.6 280.7 118.5C281.9 117.4 283.6 116.8 285.8 116.8C287.8 116.8 289.4 117.4 290.6 118.5C291.8 119.6 292.4 121.2 292.4 123.2V136C292.4 138.2 291.8 139.9 290.6 141C289.4 142.2 287.8 142.8 285.6 142.8C283.4 142.8 281.7 142.2 280.6 141C279.5 139.8 278.9 138.1 278.9 135.9V123.1V123.1ZM287.9 136.8V122.9C287.9 122 287.7 121.4 287.3 121C286.9 120.6 286.4 120.4 285.6 120.4C284.9 120.4 284.3 120.6 283.9 121C283.5 121.4 283.3 122.1 283.3 122.9V136.8C283.3 137.7 283.5 138.3 283.9 138.7C284.3 139.1 284.8 139.4 285.6 139.4C286.3 139.4 286.9 139.2 287.3 138.7C287.7 138.3 287.9 137.6 287.9 136.8Z" fill="#002F54"/>
<path d="M296.4 142.3V117.4H300.3L305.9 132.3C306 132.6 306.1 133 306.3 133.4C306.5 133.9 306.6 134.4 306.8 134.9C306.7 134.2 306.5 133.5 306.4 132.9C306.3 132.3 306.3 131.8 306.3 131.6V117.4H310.4V142.3H306.3L301 128.6C301 128.5 300.9 128.5 300.9 128.3C300.5 127.4 300.3 126.5 300.1 125.9C300.3 126.8 300.4 127.5 300.5 128.1C300.6 128.7 300.6 129.1 300.6 129.4V142.4H296.4V142.3Z" fill="#002F54"/>
<path d="M314.3 135.9V123.2C314.3 121.2 314.9 119.7 316.1 118.6C317.3 117.5 319 116.9 321.2 116.9C323.2 116.9 324.8 117.5 326 118.6C327.2 119.7 327.8 121.3 327.8 123.3V125.7H323.3V123C323.3 122.1 323.1 121.5 322.7 121.1C322.3 120.7 321.8 120.5 321 120.5C320.3 120.5 319.7 120.7 319.3 121.1C318.9 121.5 318.7 122.2 318.7 123V136.9C318.7 137.8 318.9 138.4 319.3 138.8C319.7 139.2 320.2 139.5 321 139.5C321.7 139.5 322.3 139.3 322.7 138.8C323.1 138.4 323.3 137.7 323.3 136.9V133.5H327.8V136.1C327.8 138.3 327.2 140 326 141.1C324.8 142.3 323.2 142.9 321 142.9C318.8 142.9 317.1 142.3 316 141.1C314.9 139.9 314.3 138.2 314.3 135.9Z" fill="#002F54"/>
<path d="M331.5 142.3V117.4H343V121H335.9V127.5H341V131.1H335.9V138.5H343V142.2H331.5V142.3Z" fill="#002F54"/>
<path d="M346.3 142.3V117.4H352.7C355.1 117.4 356.8 118 357.9 119.1C359 120.2 359.5 122.1 359.5 124.6C359.5 127 359 128.8 357.9 130.1C356.9 131.4 355.4 132.1 353.6 132.1H350.6V142.2H346.3V142.3ZM350.7 128.6H352.4C353.4 128.6 354.1 128.3 354.5 127.8C354.9 127.3 355.1 126.2 355.1 124.7C355.1 123.3 354.9 122.3 354.5 121.8C354.1 121.3 353.3 121 352.3 121H350.7V128.6Z" fill="#002F54"/>
<path d="M362.1 135.9V123.2C362.1 121.2 362.7 119.7 363.9 118.6C365.1 117.5 366.8 116.9 369 116.9C371 116.9 372.6 117.5 373.8 118.6C375 119.7 375.6 121.3 375.6 123.3V125.7H371.1V123C371.1 122.1 370.9 121.5 370.5 121.1C370.1 120.7 369.6 120.5 368.8 120.5C368.1 120.5 367.5 120.7 367.1 121.1C366.7 121.5 366.5 122.2 366.5 123V136.9C366.5 137.8 366.7 138.4 367.1 138.8C367.5 139.2 368 139.5 368.8 139.5C369.5 139.5 370.1 139.3 370.5 138.8C370.9 138.4 371.1 137.7 371.1 136.9V133.5H375.6V136.1C375.6 138.3 375 140 373.8 141.1C372.6 142.3 371 142.9 368.8 142.9C366.6 142.9 364.9 142.3 363.8 141.1C362.7 139.9 362.1 138.2 362.1 135.9Z" fill="#002F54"/>
<path d="M379.4 142.3V117.4H383.9V142.3H379.4Z" fill="#002F54"/>
<path d="M387.7 123.1C387.7 121.1 388.3 119.6 389.5 118.5C390.7 117.4 392.4 116.8 394.6 116.8C396.6 116.8 398.2 117.4 399.4 118.5C400.6 119.6 401.2 121.2 401.2 123.2V136C401.2 138.2 400.6 139.9 399.4 141C398.2 142.2 396.6 142.8 394.4 142.8C392.2 142.8 390.5 142.2 389.4 141C388.3 139.8 387.7 138.1 387.7 135.9V123.1V123.1ZM396.7 136.8V122.9C396.7 122 396.5 121.4 396.1 121C395.7 120.6 395.2 120.4 394.4 120.4C393.7 120.4 393.1 120.6 392.7 121C392.3 121.4 392.1 122.1 392.1 122.9V136.8C392.1 137.7 392.3 138.3 392.7 138.7C393.1 139.1 393.6 139.4 394.4 139.4C395.1 139.4 395.7 139.2 396.1 138.7C396.5 138.3 396.7 137.6 396.7 136.8ZM395.4 116.1H392.2L394.1 112.3H399.1L395.4 116.1Z" fill="#002F54"/>
<path d="M405.2 142.3V117.4H409.1L414.7 132.3C414.8 132.6 414.9 133 415.1 133.4C415.3 133.9 415.4 134.4 415.6 134.9C415.5 134.2 415.3 133.5 415.2 132.9C415.1 132.3 415.1 131.8 415.1 131.6V117.4H419.2V142.3H415L409.7 128.6C409.7 128.5 409.6 128.5 409.6 128.3C409.2 127.4 409 126.5 408.8 125.9C409 126.8 409.1 127.5 409.2 128.1C409.3 128.7 409.3 129.1 409.3 129.4V142.4H405.2V142.3Z" fill="#002F54"/>
</g>
<defs>
<linearGradient id="paint0_linear_902_2961" x1="2.57308" y1="84.2306" x2="79.8764" y2="84.2306" gradientUnits="userSpaceOnUse">
<stop stop-color="#1E6CB7"/>
<stop offset="0.5151" stop-color="#4AB4E2"/>
<stop offset="1" stop-color="#4AB4E2"/>
</linearGradient>
<linearGradient id="paint1_linear_902_2961" x1="99.3919" y1="141.724" x2="100.414" y2="141.724" gradientUnits="userSpaceOnUse">
<stop stop-color="#1E6CB7"/>
<stop offset="0.2915" stop-color="#2D85C6"/>
<stop offset="0.7508" stop-color="#42A7DA"/>
<stop offset="1" stop-color="#4AB4E2"/>
</linearGradient>
<linearGradient id="paint2_linear_902_2961" x1="70.2932" y1="76.5043" x2="131.015" y2="76.5043" gradientUnits="userSpaceOnUse">
<stop stop-color="#1E6CB7"/>
<stop offset="0.2915" stop-color="#2D85C6"/>
<stop offset="0.7508" stop-color="#42A7DA"/>
<stop offset="1" stop-color="#4AB4E2"/>
</linearGradient>
<linearGradient id="paint3_linear_902_2961" x1="85.8044" y1="112.472" x2="142.107" y2="112.472" gradientUnits="userSpaceOnUse">
<stop stop-color="#1E6CB7"/>
<stop offset="0.2915" stop-color="#2D85C6"/>
<stop offset="0.7508" stop-color="#42A7DA"/>
<stop offset="1" stop-color="#4AB4E2"/>
</linearGradient>
<linearGradient id="paint4_linear_902_2961" x1="37.5249" y1="105.876" x2="122.185" y2="105.876" gradientUnits="userSpaceOnUse">
<stop stop-color="#2D85C6"/>
<stop offset="1" stop-color="#2274BC"/>
</linearGradient>
<linearGradient id="paint5_linear_902_2961" x1="15.0297" y1="91.8976" x2="114.089" y2="91.8976" gradientUnits="userSpaceOnUse">
<stop stop-color="#1E6CB7"/>
<stop offset="1" stop-color="#4AB4E2"/>
</linearGradient>
<linearGradient id="paint6_linear_902_2961" x1="102.691" y1="84.6487" x2="143.093" y2="84.6487" gradientUnits="userSpaceOnUse">
<stop stop-color="#1E6CB7"/>
<stop offset="1" stop-color="#4AB4E2"/>
</linearGradient>
<clipPath id="clip0_902_2961">
<rect width="420" height="165.6" fill="white"/>
</clipPath>
</defs>
</svg>
