<?xml version="1.0" encoding="utf-8"?>
<!-- Generator: Adobe Illustrator 22.0.1, SVG Export Plug-In . SVG Version: 6.00 Build 0)  -->
<svg version="1.1" id="Capa_1" xmlns="http://www.w3.org/2000/svg" xmlns:xlink="http://www.w3.org/1999/xlink" x="0px" y="0px"
	 viewBox="0 0 1080 435.9" style="enable-background:new 0 0 1080 435.9;" xml:space="preserve">
<style type="text/css">
	.st0{clip-path:url(#SVGID_2_);fill:url(#SVGID_3_);}
	.st1{clip-path:url(#SVGID_5_);fill:url(#SVGID_6_);}
	.st2{clip-path:url(#SVGID_8_);fill:url(#SVGID_9_);}
	.st3{clip-path:url(#SVGID_11_);fill:url(#SVGID_12_);}
	.st4{clip-path:url(#SVGID_14_);}
	.st5{clip-path:url(#SVGID_16_);}
	.st6{clip-path:url(#SVGID_18_);}
	.st7{clip-path:url(#SVGID_20_);fill:url(#SVGID_21_);}
	.st8{clip-path:url(#SVGID_23_);fill:#4AB4E2;}
	.st9{clip-path:url(#SVGID_25_);fill:url(#SVGID_26_);}
	.st10{clip-path:url(#SVGID_28_);fill:url(#SVGID_29_);}
	.st11{opacity:0.4;}
	.st12{clip-path:url(#SVGID_31_);}
	.st13{clip-path:url(#SVGID_33_);fill:#1E6CB7;}
	.st14{clip-path:url(#SVGID_35_);}
	.st15{clip-path:url(#SVGID_37_);}
	.st16{clip-path:url(#SVGID_39_);}
	.st17{clip-path:url(#SVGID_41_);fill:#2171BA;}
	.st18{fill:#002F54;}
</style>
<g id="Divina_3_">
	<g>
		<g>
			<defs>
				<path id="SVGID_1_" d="M55.9,77.7c-78.4,96.7-38.4,203.5-38.4,203.5c46.7,145.1,186.8,140.1,186.8,140.1
					C55.9,404.5,27.5,282.8,27.5,282.8c-28.4-93.4,10-158.4,10-158.4c18.3-36.7,23.3-41.7,50-66.7c26.7-25,61.7-36.7,61.7-36.7
					c31.7-11.7,55.9-10.8,55.9-10.8c-2.6-0.1-5.2-0.2-7.8-0.2C109.4,9.9,55.9,77.7,55.9,77.7"/>
			</defs>
			<clipPath id="SVGID_2_">
				<use xlink:href="#SVGID_1_"  style="overflow:visible;"/>
			</clipPath>
			
				<linearGradient id="SVGID_3_" gradientUnits="userSpaceOnUse" x1="-68.4471" y1="938.7186" x2="-67.2783" y2="938.7186" gradientTransform="matrix(169.265 0 0 -169.265 11592.9961 159109.9531)">
				<stop  offset="0" style="stop-color:#1E6CB7"/>
				<stop  offset="0.5151" style="stop-color:#4AB4E2"/>
				<stop  offset="1" style="stop-color:#4AB4E2"/>
			</linearGradient>
			<rect x="-22.5" y="9.3" class="st0" width="227.6" height="416.9"/>
		</g>
		<g>
			<defs>
				<path id="SVGID_4_" d="M257.7,366.2c-0.9-0.9-1.7-1.7-2.6-2.6C256.7,365.3,257.7,366.2,257.7,366.2"/>
			</defs>
			<clipPath id="SVGID_5_">
				<use xlink:href="#SVGID_4_"  style="overflow:visible;"/>
			</clipPath>
			
				<linearGradient id="SVGID_6_" gradientUnits="userSpaceOnUse" x1="-85.826" y1="1058.3131" x2="-84.6568" y2="1058.3131" gradientTransform="matrix(2.238 0 0 -2.238 447.1337 2733.4124)">
				<stop  offset="0" style="stop-color:#1E6CB7"/>
				<stop  offset="0.2915" style="stop-color:#2D85C6"/>
				<stop  offset="0.7508" style="stop-color:#42A7DA"/>
				<stop  offset="1" style="stop-color:#4AB4E2"/>
			</linearGradient>
			<rect x="255.1" y="363.6" class="st1" width="2.6" height="2.6"/>
		</g>
		<g>
			<defs>
				<path id="SVGID_7_" d="M255.1,363.6c-11.5-11.8-56.4-64.3-49.1-157.5c0,0,1.7-46.7,43.4-75c0,0,10-10,18.3-8.3c0,0,5,1.7,0,6.7
					c0,0-16.7,8.3-25,23.3c7.7-0.2,12.4,3.1,15.9,6.4c5.6,5.2,8.3,10.3,15.8,2c0,0,8.3-8.3,15-8.3c12.1,1.6,0-8.8,16.7-18.3
					c0,0,6.7,0,10-3.3c0,0-8.3,1.7-8.3-1.7c0,0-1.7-1.7,5-5c39.5-25.4,6.7-41.1-13.3-10c0,0-8.3,13.3-16.7,10
					c-8.2-12.6,10.2-29.8,53.4-36.7c-21.1-39-44.6-55.2-66.8-55.2C188.7,32.4,125,246.6,255.1,363.6"/>
			</defs>
			<clipPath id="SVGID_8_">
				<use xlink:href="#SVGID_7_"  style="overflow:visible;"/>
			</clipPath>
			
				<linearGradient id="SVGID_9_" gradientUnits="userSpaceOnUse" x1="-68.3808" y1="939.2229" x2="-67.212" y2="939.2229" gradientTransform="matrix(132.986 0 0 -132.986 9274.3115 125101.5)">
				<stop  offset="0" style="stop-color:#1E6CB7"/>
				<stop  offset="0.2915" style="stop-color:#2D85C6"/>
				<stop  offset="0.7508" style="stop-color:#42A7DA"/>
				<stop  offset="1" style="stop-color:#4AB4E2"/>
			</linearGradient>
			<rect x="125" y="32.4" class="st2" width="227.2" height="331.2"/>
		</g>
		<g>
			<defs>
				<path id="SVGID_10_" d="M364.4,394.5c-8.3-21.7-8.3-75-8.3-75c-55,11.7-70-23.3-70-23.3c-17.1-21.7-38.6-104.8-45-105.1
					c-4-3.7-7.4-5.4-10.2-5.4C199.8,185.6,235.5,387.3,364.4,394.5"/>
			</defs>
			<clipPath id="SVGID_11_">
				<use xlink:href="#SVGID_10_"  style="overflow:visible;"/>
			</clipPath>
			
				<linearGradient id="SVGID_12_" gradientUnits="userSpaceOnUse" x1="-68.3643" y1="939.2895" x2="-67.1955" y2="939.2895" gradientTransform="matrix(123.309 0 0 -123.309 8650.209 116112.9141)">
				<stop  offset="0" style="stop-color:#1E6CB7"/>
				<stop  offset="0.2915" style="stop-color:#2D85C6"/>
				<stop  offset="0.7508" style="stop-color:#42A7DA"/>
				<stop  offset="1" style="stop-color:#4AB4E2"/>
			</linearGradient>
			<rect x="199.8" y="185.6" class="st3" width="164.6" height="208.9"/>
		</g>
		<g>
			<defs>
				<path id="SVGID_13_" d="M257.7,366.2c-0.9-0.9-1.7-1.7-2.6-2.6C256.7,365.3,257.7,366.2,257.7,366.2"/>
			</defs>
			<clipPath id="SVGID_14_">
				<use xlink:href="#SVGID_13_"  style="overflow:visible;"/>
			</clipPath>
			<g class="st4">
				<defs>
					<path id="SVGID_15_" d="M206,206.1c0,0,1.7-46.7,43.4-75c0,0,10-10,18.3-8.3c0,0,5,1.7,0,6.7c0,0-16.7,8.3-25,23.3
						c19.8-0.6,19.5,22.1,31.7,8.3c0,0,8.3-8.3,15-8.3c12.1,1.6,0-8.8,16.7-18.3c0,0,6.7,0,10-3.3c0,0-8.3,1.7-8.3-1.7
						c0,0-1.7-1.7,5-5c39.5-25.4,6.7-41.1-13.3-10c0,0-8.3,13.3-16.7,10c-8.2-12.6,10.2-29.8,53.4-36.7
						c-97.6-180.6-246.8,126.7-81,276C243.6,351.8,198.7,299.3,206,206.1"/>
				</defs>
				<clipPath id="SVGID_16_">
					<use xlink:href="#SVGID_15_"  style="overflow:visible;"/>
				</clipPath>
				<g class="st5">
					<defs>
						<path id="SVGID_17_" d="M286,296.1c-17.1-21.7-38.6-104.8-45-105.1c-47-44.2-17.4,195.6,123.4,203.5c-8.3-21.7-8.3-75-8.3-75
							C301,331.2,286,296.1,286,296.1"/>
					</defs>
					<clipPath id="SVGID_18_">
						<use xlink:href="#SVGID_17_"  style="overflow:visible;"/>
					</clipPath>
					<g class="st6">
						<defs>
							<path id="SVGID_19_" d="M312.4,261.6c17.6,189.5-191.4,212-214.5,23.1C80.3,95.2,289.3,72.7,312.4,261.6"/>
						</defs>
						<clipPath id="SVGID_20_">
							<use xlink:href="#SVGID_19_"  style="overflow:visible;"/>
						</clipPath>
						
							<linearGradient id="SVGID_21_" gradientUnits="userSpaceOnUse" x1="-68.3386" y1="938.5364" x2="-67.1698" y2="938.5364" gradientTransform="matrix(185.334 0 0 -185.334 12762.2764 174215.8906)">
							<stop  offset="0" style="stop-color:#2D85C6"/>
							<stop  offset="1" style="stop-color:#2274BC"/>
						</linearGradient>
						<rect x="80.3" y="72.7" class="st7" width="249.7" height="400.9"/>
					</g>
				</g>
			</g>
		</g>
		<g>
			<defs>
				<rect id="SVGID_22_" x="-169.2" y="-211.4" width="1424.6" height="927.7"/>
			</defs>
			<clipPath id="SVGID_23_">
				<use xlink:href="#SVGID_22_"  style="overflow:visible;"/>
			</clipPath>
			<path class="st8" d="M369.4,329.5c0,0-3.3,25,3.3,46.7l1.7-41.7c0,0,20-5,20-23.3C394.4,311.1,392.8,324.5,369.4,329.5"/>
		</g>
		<g>
			<defs>
				<path id="SVGID_24_" d="M85.9,91c0,0-75,63.4-35,195.1c0,0,48.4,151.8,241.8,91.7H182.6V272.8H75.9V157.7h106.7V52.6h41.7
					c0,0,13.3,5,20-15c0,0-6.8-0.8-17.8-0.8C195.7,36.8,131.3,43.1,85.9,91"/>
			</defs>
			<clipPath id="SVGID_25_">
				<use xlink:href="#SVGID_24_"  style="overflow:visible;"/>
			</clipPath>
			
				<linearGradient id="SVGID_26_" gradientUnits="userSpaceOnUse" x1="-68.3276" y1="938.2457" x2="-67.1588" y2="938.2457" gradientTransform="matrix(216.951 0 0 -216.951 14862.8691 203790.6875)">
				<stop  offset="0" style="stop-color:#1E6CB7"/>
				<stop  offset="1" style="stop-color:#4AB4E2"/>
			</linearGradient>
			<rect x="10.9" y="36.8" class="st9" width="281.8" height="401.1"/>
		</g>
		<g>
			<defs>
				<path id="SVGID_27_" d="M313.5,158.5c-18.3,25-50,28.4-50,28.4c12.2,18,33.2,92.3,35,86.7h68.4V158.5H313.5z"/>
			</defs>
			<clipPath id="SVGID_28_">
				<use xlink:href="#SVGID_27_"  style="overflow:visible;"/>
			</clipPath>
			
				<linearGradient id="SVGID_29_" gradientUnits="userSpaceOnUse" x1="-68.4372" y1="940.282" x2="-67.2684" y2="940.282" gradientTransform="matrix(88.4657 0 0 -88.4657 6317.8486 83401.5547)">
				<stop  offset="0" style="stop-color:#1E6CB7"/>
				<stop  offset="1" style="stop-color:#4AB4E2"/>
			</linearGradient>
			<rect x="263.5" y="158.5" class="st10" width="103.4" height="120.6"/>
		</g>
		<g>
			<g class="st11">
				<g>
					<defs>
						<rect id="SVGID_30_" x="96.8" y="32.5" width="269.3" height="385"/>
					</defs>
					<clipPath id="SVGID_31_">
						<use xlink:href="#SVGID_30_"  style="overflow:visible;"/>
					</clipPath>
					<g class="st12">
						<defs>
							<path id="SVGID_32_" d="M315.6,260c8.5,79.4-32.6,149-91.8,155.3c-59.2,6.4-114.2-52.9-122.7-132.3
								c-8.5-79.4,32.6-149,91.8-155.3C252.2,121.4,307.1,180.6,315.6,260"/>
						</defs>
						<clipPath id="SVGID_33_">
							<use xlink:href="#SVGID_32_"  style="overflow:visible;"/>
						</clipPath>
						<path class="st13" d="M257.7,366.3c-0.9-0.9-1.7-1.7-2.6-2.6C256.8,365.4,257.7,366.3,257.7,366.3"/>
						<path class="st13" d="M206,206.2c0,0,1.7-46.7,43.4-75c0,0,10-10,18.3-8.3c0,0,5,1.7,0,6.7c0,0-16.7,8.3-25,23.3
							c0,0,11.7,0,18.3,8.3c0,0,5,10,13.3,0c0,0,8.3-8.3,15-8.3c0,0,5,1.7,6.7-3.3c0,0-1.7-8.3,10-15c0,0,6.7,0,10-3.3
							c0,0-8.3,1.7-8.3-1.7c0,0-1.7-1.7,5-5c0,0,15-8.3,18.3-20c0,0,3.3-8.3-10-6.7c0,0-13.3,1.7-21.7,16.7c0,0-8.3,13.3-16.7,10
							c0,0-6.7-5,3.3-16.7c0,0,13.3-15,50-20c0,0-21.7-50-61.7-55c0,0-36.7-5-61.7,36.7c0,0-28.4,36.7-31.7,135.1
							c0,0-8.1,78.4,74.1,159.2C243.6,351.9,198.7,299.4,206,206.2"/>
						<path class="st13" d="M312.8,157.8c-18.3,25-50,28.4-50,28.4c5,5,16.7,38.4,16.7,38.4c11.7,40,19.1,49.1,19.1,49.1l67.6-0.7
							V157.8H312.8z"/>
						<path class="st13" d="M286.1,296.2c-10-10-28.4-66.7-28.4-66.7c-13.3-38.4-16.7-38.4-16.7-38.4c-13.3-15-18.3,1.7-18.3,1.7
							c-6.7,30,6.7,71.7,6.7,71.7c10,38.4,33.4,70,33.4,70c40,56.7,101.7,60,101.7,60c-8.3-21.7-8.3-75-8.3-75
							C301.1,331.2,286.1,296.2,286.1,296.2"/>
					</g>
					<g class="st12">
						<defs>
							<path id="SVGID_34_" d="M257.7,366.3c-0.9-0.9-1.7-1.7-2.6-2.6C256.8,365.4,257.7,366.3,257.7,366.3"/>
						</defs>
						<clipPath id="SVGID_35_">
							<use xlink:href="#SVGID_34_"  style="overflow:visible;"/>
						</clipPath>
						<g class="st14">
							<defs>
								<path id="SVGID_36_" d="M206,206.2c0,0,1.7-46.7,43.4-75c0,0,10-10,18.3-8.3c0,0,5,1.7,0,6.7c0,0-16.7,8.3-25,23.3
									c0,0,11.7,0,18.3,8.3c0,0,5,10,13.3,0c0,0,8.3-8.3,15-8.3c0,0,5,1.7,6.7-3.3c0,0-1.7-8.3,10-15c0,0,6.7,0,10-3.3
									c0,0-8.3,1.7-8.3-1.7c0,0-1.7-1.7,5-5c0,0,15-8.3,18.3-20c0,0,3.3-8.3-10-6.7c0,0-13.3,1.7-21.7,16.7c0,0-8.3,13.3-16.7,10
									c0,0-6.7-5,3.3-16.7c0,0,13.3-15,50-20c0,0-21.7-50-61.7-55c0,0-36.7-5-61.7,36.7c0,0-28.4,36.7-31.7,135.1
									c0,0-8.2,78.4,74.1,159.2C243.6,351.9,198.7,299.4,206,206.2"/>
							</defs>
							<clipPath id="SVGID_37_">
								<use xlink:href="#SVGID_36_"  style="overflow:visible;"/>
							</clipPath>
							<g class="st15">
								<defs>
									<path id="SVGID_38_" d="M312.8,157.8c-18.3,25-50,28.4-50,28.4c5,5,16.7,38.4,16.7,38.4c11.7,40,19.1,49.1,19.1,49.1
										l67.6-0.7V157.8H312.8z"/>
								</defs>
								<clipPath id="SVGID_39_">
									<use xlink:href="#SVGID_38_"  style="overflow:visible;"/>
								</clipPath>
								<g class="st16">
									<defs>
										<path id="SVGID_40_" d="M286.1,296.2c-10-10-28.4-66.7-28.4-66.7c-13.3-38.4-16.7-38.4-16.7-38.4
											c-13.3-15-18.3,1.7-18.3,1.7c-6.7,30,6.7,71.7,6.7,71.7c10,38.4,33.4,70,33.4,70c40,56.7,101.7,60,101.7,60
											c-8.3-21.7-8.3-75-8.3-75C301.1,331.2,286.1,296.2,286.1,296.2"/>
									</defs>
									<clipPath id="SVGID_41_">
										<use xlink:href="#SVGID_40_"  style="overflow:visible;"/>
									</clipPath>
									<path class="st17" d="M312.4,261.7c8.5,79.4-32.6,149-91.8,155.3c-59.2,6.4-114.2-52.9-122.7-132.3
										c-8.5-79.4,32.6-149,91.8-155.3C249,123.1,303.9,182.3,312.4,261.7"/>
								</g>
							</g>
						</g>
					</g>
				</g>
			</g>
		</g>
		<g>
			<path class="st18" d="M435.2,65.2h24.3v54.1h24.6V65.2h24.6v132.5h-24.6v-59.3h-24.6v59.3h-24.3V65.2z"/>
			<path class="st18" d="M531,95.8c0-10.4,3.4-18.6,10.2-24.6c6.8-5.9,16.3-8.9,28.3-8.9c11.4,0,20.4,3,27,9.1
				c6.6,6.1,10,14.4,10,24.9v67.9c0,11.6-3.3,20.6-9.9,26.8c-6.6,6.3-15.9,9.4-28,9.4c-12.3,0-21.6-3.1-28-9.4
				c-6.4-6.3-9.6-15.4-9.6-27.4V95.8z M581.3,168.4V94.5c0-4.6-1.1-8-3.2-10.3c-2.1-2.3-5.3-3.4-9.5-3.4c-4.2,0-7.3,1.1-9.5,3.4
				c-2.1,2.3-3.2,5.7-3.2,10.3v73.9c0,4.6,1.1,8,3.2,10.4c2.1,2.3,5.3,3.5,9.5,3.5c4.2,0,7.3-1.2,9.5-3.5
				C580.3,176.5,581.3,173,581.3,168.4z"/>
			<path class="st18" d="M621.4,164.1l23.4-2.9c0.4,6.7,2,11.7,4.6,14.9s6.5,4.8,11.7,4.8c4.5,0,8.1-1.2,10.9-3.5
				c2.8-2.4,4.2-5.5,4.2-9.3c0-6.9-6.6-15.8-19.8-26.8c-1-0.9-1.8-1.5-2.3-1.9c-12.9-10.8-21.2-19-24.9-24.8
				c-3.7-5.8-5.5-11.9-5.5-18.4c0-9.3,3.7-17.2,11.1-23.6c7.4-6.4,16.4-9.6,27-9.6c10.3,0,18.8,2.9,25.4,8.8
				c6.6,5.9,10.4,13.9,11.3,24l-24,2.8c-0.4-5.9-1.7-10.2-3.8-12.7c-2.1-2.6-5.3-3.8-9.6-3.8c-4,0-7.1,1.1-9.5,3.3
				c-2.4,2.2-3.6,5.2-3.6,8.9c0,7.7,7.7,17.7,23.1,30.1c0.6,0.5,1.1,0.9,1.4,1.2c11.3,9.2,18.7,16.6,22.2,22.4
				c3.5,5.8,5.3,12.3,5.3,19.5c0,9.7-3.6,17.6-10.8,23.8c-7.2,6.2-16.3,9.3-27.3,9.3c-12.2,0-21.9-3.2-29-9.7
				C625.9,184.5,622,175.5,621.4,164.1z"/>
			<path class="st18" d="M717.1,197.7V65.2h36c13.4,0,23.2,3,29.2,9.1c6.1,6,9.1,15.8,9.1,29.2c0,12.5-2.9,22.4-8.8,29.6
				c-5.9,7.2-13.9,10.8-24.1,10.8h-16.8v53.9H717.1z M741.6,124.8h9.7c5.7,0,9.7-1.5,11.8-4.4c2.2-2.9,3.2-8.4,3.2-16.6
				c0-7.5-1.1-12.6-3.4-15.4c-2.3-2.7-6.5-4.1-12.6-4.1h-8.8V124.8z"/>
			<path class="st18" d="M808.6,197.7V65.2h25v132.5H808.6z"/>
			<path class="st18" d="M844.3,84.3V65.2h75.5v19.2h-25.5v113.3h-24.6V84.3H844.3z"/>
			<path class="st18" d="M913.9,197.7l26.2-132.5h32l26.1,132.5H973l-5-28.7h-24.8l-5.3,28.7H913.9z M946.4,150.2h18.7l-8.4-55.3
				h-1.5L946.4,150.2z"/>
			<path class="st18" d="M1012.3,197.7V65.2h24.3v113.3h38.1v19.2H1012.3z"/>
		</g>
		<g>
			<path class="st18" d="M434.8,282.9v-63.6h16.1l7.9,35.2c0.3,1.4,0.6,2.9,0.7,4.5c0.2,1.6,0.2,3.3,0.2,5c0-1.5,0.1-3,0.3-4.5
				c0.2-1.6,0.5-3.2,0.8-4.9l7.5-35.3h16.3v63.6h-11.3v-40.2c0-1.1,0.1-2.7,0.2-4.6s0.4-4.1,0.7-6.5c-0.2,0.9-0.4,2-0.7,3.5
				c-0.6,2.8-1,4.7-1.2,5.5l-9.9,42.2h-6l-9.4-42.3c-0.4-1.7-0.8-3.6-1.2-5.6c-0.4-2-0.7-3.2-0.7-3.4c0.3,2.2,0.5,4.2,0.6,6.1
				c0.1,1.9,0.2,3.6,0.2,5v40.2H434.8z"/>
			<path class="st18" d="M491.5,282.9l12.9-63.6h15.8l12.8,63.6h-12.4l-2.4-13.8H506l-2.6,13.8H491.5z M507.5,260.1h9.2l-4.1-26.6
				h-0.8L507.5,260.1z"/>
			<path class="st18" d="M530.2,228.5v-9.2h37.2v9.2h-12.6v54.4h-12.1v-54.4H530.2z"/>
			<path class="st18" d="M572.9,282.9v-63.6h31.5v9.2H585v16.7h14v9.2h-14v19h19.5v9.5H572.9z"/>
			<path class="st18" d="M625.8,256.2v26.8h-12.1v-63.6h17.7c6.6,0,11.5,1.5,14.4,4.4c3,2.9,4.4,7.6,4.4,14c0,4-0.6,7.2-1.8,9.7
				c-1.2,2.5-3.1,4.5-5.9,6l8.9,29.6H639l-7.5-26.8H625.8z M625.8,228.5V247h4.8c2.8,0,4.7-0.7,5.8-2c1.1-1.4,1.6-3.9,1.6-7.6
				c0-3.3-0.6-5.7-1.7-6.9c-1.1-1.3-3.2-1.9-6.1-1.9H625.8z"/>
			<path class="st18" d="M660.1,282.9v-63.6h10.8l15.3,38c0.3,0.7,0.6,1.7,1.1,2.9c0.4,1.2,0.8,2.5,1.3,3.9c-0.4-1.8-0.7-3.6-1-5.1
				c-0.3-1.6-0.4-2.7-0.4-3.5v-36.2h11.3v63.6h-11.3l-14.7-35.2c-0.1-0.1-0.2-0.4-0.3-0.7c-1-2.4-1.8-4.5-2.3-6.2
				c0.4,2.2,0.8,4.1,1,5.6c0.2,1.5,0.4,2.6,0.4,3.2v33.3H660.1z"/>
			<path class="st18" d="M709.4,234c0-5,1.7-8.9,5-11.8c3.4-2.8,8-4.3,13.9-4.3c5.6,0,10,1.5,13.3,4.4c3.3,2.9,4.9,6.9,4.9,11.9
				v32.6c0,5.6-1.6,9.9-4.8,12.9c-3.2,3-7.8,4.5-13.8,4.5c-6,0-10.6-1.5-13.8-4.5c-3.2-3-4.7-7.4-4.7-13.2V234z M734.2,268.9v-35.5
				c0-2.2-0.5-3.9-1.6-5c-1-1.1-2.6-1.7-4.7-1.7c-2.1,0-3.6,0.6-4.7,1.7c-1,1.1-1.6,2.8-1.6,5v35.5c0,2.2,0.5,3.9,1.6,5
				c1,1.1,2.6,1.7,4.7,1.7c2.1,0,3.6-0.6,4.7-1.7C733.7,272.7,734.2,271.1,734.2,268.9z"/>
			<path class="st18" d="M780.1,282.9v-63.6h12.3v63.6H780.1z"/>
			<path class="st18" d="M804.6,282.9v-63.6h10.8l15.3,38c0.3,0.7,0.6,1.7,1.1,2.9c0.4,1.2,0.8,2.5,1.3,3.9c-0.4-1.8-0.7-3.6-1-5.1
				c-0.3-1.6-0.4-2.7-0.4-3.5v-36.2H843v63.6h-11.3L817,247.8c-0.1-0.1-0.2-0.4-0.3-0.7c-1-2.4-1.8-4.5-2.3-6.2
				c0.4,2.2,0.8,4.1,1,5.6c0.2,1.5,0.4,2.6,0.4,3.2v33.3H804.6z"/>
			<path class="st18" d="M855.4,282.9v-63.6h31.5v9.2h-19.4v16.7h14v9.2h-14v28.6H855.4z"/>
			<path class="st18" d="M885,282.9l12.9-63.6h15.8l12.8,63.6h-12.4l-2.4-13.8h-12.2l-2.6,13.8H885z M901,260.1h9.2l-4.1-26.6h-0.8
				L901,260.1z"/>
			<path class="st18" d="M933.4,282.9v-63.6h10.8l15.3,38c0.3,0.7,0.6,1.7,1.1,2.9c0.4,1.2,0.8,2.5,1.3,3.9c-0.4-1.8-0.7-3.6-1-5.1
				c-0.3-1.6-0.4-2.7-0.4-3.5v-36.2h11.3v63.6h-11.3l-14.7-35.2c-0.1-0.1-0.2-0.4-0.3-0.7c-1-2.4-1.8-4.5-2.3-6.2
				c0.4,2.2,0.8,4.1,1,5.6c0.2,1.5,0.4,2.6,0.4,3.2v33.3H933.4z"/>
			<path class="st18" d="M977.4,228.5v-9.2h37.2v9.2H1002v54.4h-12.1v-54.4H977.4z"/>
			<path class="st18" d="M1020.1,282.9v-63.6h12.3v63.6H1020.1z"/>
			<path class="st18" d="M1044.6,282.9v-63.6h12v54.4h18.7v9.2H1044.6z"/>
		</g>
		<g>
			<path class="st18" d="M436.1,366.3v-63.6H452c6.2,0,10.7,1.4,13.7,4.3c3,2.8,4.5,7.2,4.5,13.2v28.4c0,6.2-1.4,10.7-4.2,13.5
				c-2.8,2.8-7.3,4.2-13.4,4.2H436.1z M447.2,356.9h5.7c2,0,3.4-0.5,4.4-1.6c1-1.1,1.4-2.8,1.4-5.1v-30.6c0-2.6-0.7-4.5-2.2-5.7
				c-1.4-1.2-3.7-1.8-6.8-1.8h-2.6V356.9z"/>
			<path class="st18" d="M480.4,366.3v-63.6h11.4v63.6H480.4z"/>
			<path class="st18" d="M498.3,302.7h11l6.7,37.7c0.4,2.4,0.7,4.7,0.9,6.8c0.2,2.1,0.3,4.3,0.3,6.4v1.1c0.1-2.8,0.3-5.4,0.5-7.9
				c0.2-2.4,0.5-4.6,0.8-6.5l6.5-37.7h11L523,366.3h-11.7L498.3,302.7z"/>
			<path class="st18" d="M542.6,366.3v-63.6H554v63.6H542.6z"/>
			<path class="st18" d="M565.3,366.3v-63.6h10.1l14.2,38c0.3,0.7,0.6,1.7,1,2.9c0.4,1.2,0.8,2.5,1.2,3.9c-0.4-1.8-0.7-3.6-0.9-5.1
				c-0.2-1.6-0.4-2.7-0.4-3.5v-36.2H601v63.6h-10.5l-13.7-35.2c-0.1-0.1-0.2-0.4-0.3-0.7c-0.9-2.4-1.6-4.5-2.1-6.2
				c0.4,2.2,0.7,4.1,0.9,5.6c0.2,1.5,0.3,2.6,0.3,3.2v33.3H565.3z"/>
			<path class="st18" d="M607.3,366.3l12-63.6h14.6l11.9,63.6h-11.5l-2.3-13.8h-11.3l-2.4,13.8H607.3z M622.1,343.5h8.6l-3.8-26.6
				h-0.7L622.1,343.5z"/>
			<path class="st18" d="M671.8,350v-32.6c0-5,1.6-8.9,4.7-11.8c3.1-2.8,7.4-4.3,12.9-4.3c5.2,0,9.3,1.5,12.3,4.4
				c3,2.9,4.6,6.9,4.6,11.9v6.1h-11.5v-7c0-2.2-0.5-3.9-1.5-5c-1-1.1-2.4-1.7-4.3-1.7c-1.9,0-3.4,0.6-4.3,1.7c-1,1.1-1.5,2.8-1.5,5
				v35.5c0,2.2,0.5,3.9,1.5,5c1,1.1,2.4,1.7,4.3,1.7c1.9,0,3.4-0.6,4.3-1.7c1-1.1,1.5-2.8,1.5-5v-8.7h11.5v6.6
				c0,5.6-1.5,9.9-4.5,12.9c-3,3-7.3,4.5-12.8,4.5c-5.7,0-10-1.5-12.9-4.5C673.3,360.2,671.8,355.8,671.8,350z"/>
			<path class="st18" d="M714.6,317.4c0-5,1.6-8.9,4.7-11.8c3.1-2.8,7.4-4.3,12.9-4.3c5.2,0,9.3,1.5,12.3,4.4
				c3,2.9,4.6,6.9,4.6,11.9v32.6c0,5.6-1.5,9.9-4.5,12.9c-3,3-7.3,4.5-12.8,4.5c-5.6,0-9.9-1.5-12.8-4.5c-2.9-3-4.4-7.4-4.4-13.2
				V317.4z M737.5,352.3v-35.5c0-2.2-0.5-3.9-1.5-5c-1-1.1-2.4-1.7-4.3-1.7c-1.9,0-3.4,0.6-4.3,1.7c-1,1.1-1.5,2.8-1.5,5v35.5
				c0,2.2,0.5,3.9,1.5,5c1,1.1,2.4,1.7,4.3,1.7c1.9,0,3.4-0.6,4.3-1.7C737.1,356.1,737.5,354.5,737.5,352.3z"/>
			<path class="st18" d="M759.3,366.3v-63.6h10.1l14.2,38c0.3,0.7,0.6,1.7,1,2.9c0.4,1.2,0.8,2.5,1.2,3.9c-0.4-1.8-0.7-3.6-0.9-5.1
				c-0.2-1.6-0.4-2.7-0.4-3.5v-36.2H795v63.6h-10.5l-13.7-35.2c-0.1-0.1-0.2-0.4-0.3-0.7c-0.9-2.4-1.6-4.5-2.1-6.2
				c0.4,2.2,0.7,4.1,0.9,5.6c0.2,1.5,0.3,2.6,0.3,3.2v33.3H759.3z"/>
			<path class="st18" d="M805.1,350v-32.6c0-5,1.6-8.9,4.7-11.8c3.1-2.8,7.4-4.3,12.9-4.3c5.2,0,9.3,1.5,12.3,4.4
				c3,2.9,4.6,6.9,4.6,11.9v6.1h-11.5v-7c0-2.2-0.5-3.9-1.5-5c-1-1.1-2.4-1.7-4.3-1.7c-1.9,0-3.4,0.6-4.3,1.7c-1,1.1-1.5,2.8-1.5,5
				v35.5c0,2.2,0.5,3.9,1.5,5c1,1.1,2.4,1.7,4.3,1.7c1.9,0,3.4-0.6,4.3-1.7c1-1.1,1.5-2.8,1.5-5v-8.7h11.5v6.6
				c0,5.6-1.5,9.9-4.5,12.9c-3,3-7.3,4.5-12.8,4.5c-5.7,0-10-1.5-12.9-4.5C806.5,360.2,805.1,355.8,805.1,350z"/>
			<path class="st18" d="M849.2,366.3v-63.6h29.3v9.2h-18.1v16.7h13v9.2h-13v19h18.1v9.5H849.2z"/>
			<path class="st18" d="M887,366.3v-63.6h16.4c6.1,0,10.6,1.5,13.4,4.4c2.8,2.9,4.1,7.6,4.1,14c0,6-1.3,10.7-4,14.2
				c-2.7,3.4-6.4,5.2-11,5.2h-7.7v25.9H887z M898.2,331.3h4.4c2.6,0,4.4-0.7,5.4-2.1c1-1.4,1.5-4.1,1.5-8c0-3.6-0.5-6.1-1.6-7.4
				c-1-1.3-3-2-5.7-2h-4V331.3z"/>
			<path class="st18" d="M927.5,350v-32.6c0-5,1.6-8.9,4.7-11.8c3.1-2.8,7.4-4.3,12.9-4.3c5.2,0,9.3,1.5,12.3,4.4
				c3,2.9,4.6,6.9,4.6,11.9v6.1h-11.5v-7c0-2.2-0.5-3.9-1.5-5c-1-1.1-2.4-1.7-4.3-1.7c-1.9,0-3.4,0.6-4.3,1.7c-1,1.1-1.5,2.8-1.5,5
				v35.5c0,2.2,0.5,3.9,1.5,5c1,1.1,2.4,1.7,4.3,1.7c1.9,0,3.4-0.6,4.3-1.7c1-1.1,1.5-2.8,1.5-5v-8.7H962v6.6
				c0,5.6-1.5,9.9-4.5,12.9c-3,3-7.3,4.5-12.8,4.5c-5.7,0-10-1.5-12.9-4.5C928.9,360.2,927.5,355.8,927.5,350z"/>
			<path class="st18" d="M971.6,366.3v-63.6H983v63.6H971.6z"/>
			<path class="st18" d="M992.9,317.4c0-5,1.6-8.9,4.7-11.8c3.1-2.8,7.4-4.3,12.9-4.3c5.2,0,9.3,1.5,12.3,4.4
				c3,2.9,4.6,6.9,4.6,11.9v32.6c0,5.6-1.5,9.9-4.5,12.9c-3,3-7.3,4.5-12.8,4.5c-5.6,0-9.9-1.5-12.8-4.5c-2.9-3-4.4-7.4-4.4-13.2
				V317.4z M1015.9,352.3v-35.5c0-2.2-0.5-3.9-1.5-5c-1-1.1-2.4-1.7-4.3-1.7c-1.9,0-3.4,0.6-4.3,1.7c-1,1.1-1.5,2.8-1.5,5v35.5
				c0,2.2,0.5,3.9,1.5,5c1,1.1,2.4,1.7,4.3,1.7c1.9,0,3.4-0.6,4.3-1.7C1015.4,356.1,1015.9,354.5,1015.9,352.3z M1012.6,299.5h-8.1
				l4.9-9.8h12.8L1012.6,299.5z"/>
			<path class="st18" d="M1037.6,366.3v-63.6h10.1l14.2,38c0.3,0.7,0.6,1.7,1,2.9c0.4,1.2,0.8,2.5,1.2,3.9c-0.4-1.8-0.7-3.6-0.9-5.1
				c-0.2-1.6-0.4-2.7-0.4-3.5v-36.2h10.5v63.6h-10.5l-13.7-35.2c-0.1-0.1-0.2-0.4-0.3-0.7c-0.9-2.4-1.6-4.5-2.1-6.2
				c0.4,2.2,0.7,4.1,0.9,5.6c0.2,1.5,0.3,2.6,0.3,3.2v33.3H1037.6z"/>
		</g>
	</g>
</g>
</svg>
