<?xml version="1.0" encoding="utf-8"?>
<!-- Generator: Adobe Illustrator 22.0.1, SVG Export Plug-In . SVG Version: 6.00 Build 0)  -->
<svg version="1.1" xmlns="http://www.w3.org/2000/svg" xmlns:xlink="http://www.w3.org/1999/xlink" x="0px" y="0px"
	 viewBox="0 0 1078.5 487" style="enable-background:new 0 0 1078.5 487;" xml:space="preserve">
<style type="text/css">
	.st0{display:none;}
	.st1{display:inline;}
	.st2{fill-rule:evenodd;clip-rule:evenodd;fill:#FFFFFF;}
	.st3{fill:none;}
	.st4{fill:#002B54;}
	.st5{fill:#002B54;stroke:#FFFFFF;stroke-width:17.0079;stroke-miterlimit:10;}
	.st6{fill:none;stroke:#002B54;stroke-width:25.5118;stroke-miterlimit:10;}
	.st7{fill:#00D9B2;}
	.st8{display:none;fill:#002B54;}
	.st9{display:inline;fill:#FFFFFF;}
	.st10{display:inline;fill:#009FD6;}
	.st11{fill:#FFFFFF;}
	.st12{fill:#009FD6;}
	.st13{fill:#00E8E5;}
	.st14{clip-path:url(#SVGID_2_);fill:url(#SVGID_3_);}
	.st15{clip-path:url(#SVGID_5_);fill:url(#SVGID_6_);}
	.st16{clip-path:url(#SVGID_8_);fill:url(#SVGID_9_);}
	.st17{clip-path:url(#SVGID_11_);fill:url(#SVGID_12_);}
	.st18{clip-path:url(#SVGID_14_);}
	.st19{clip-path:url(#SVGID_16_);}
	.st20{clip-path:url(#SVGID_18_);}
	.st21{clip-path:url(#SVGID_20_);fill:url(#SVGID_21_);}
	.st22{fill:#4AB4E2;}
	.st23{clip-path:url(#SVGID_23_);fill:url(#SVGID_24_);}
	.st24{clip-path:url(#SVGID_26_);fill:url(#SVGID_27_);}
	.st25{opacity:0.4;}
	.st26{clip-path:url(#SVGID_29_);}
	.st27{clip-path:url(#SVGID_31_);fill:#1E6CB7;}
	.st28{clip-path:url(#SVGID_33_);}
	.st29{clip-path:url(#SVGID_35_);}
	.st30{clip-path:url(#SVGID_37_);}
	.st31{clip-path:url(#SVGID_39_);fill:#2171BA;}
	.st32{font-family:'AlternateGothicNo2BT-Regular';}
	.st33{font-size:188.1722px;}
	.st34{letter-spacing:-4.2;}
	.st35{font-size:90.3687px;}
	.st36{letter-spacing:-1.6;}
	.st37{letter-spacing:-0.8;}
</style>
<g id="Capa_1" class="st0">
	<g class="st1">
		<path class="st2" d="M-1660-302c-291.6,0-528.8,237.2-528.8,528.8c0,102.6,29.1,201.1,84.5,286.6l-80.3,177
			c-7.4,16.3-4.7,35.4,6.9,49.1c8.9,10.4,21.8,16.2,35.1,16.2c4.1,0,8.2-0.5,12.2-1.6l221.3-60.7c76.4,40.9,162.1,62.4,249.1,62.4
			c291.6,0,528.8-237.2,528.8-528.8C-1131.2-64.7-1368.4-302-1660-302z M-1660,663.3c-77.2,0-153.2-20.5-219.8-59.4
			c-7.1-4.2-15.2-6.3-23.3-6.3c-4.1,0-8.2,0.5-12.2,1.6l-144.6,39.7l50.4-110.9c6.8-15.1,5.1-32.7-4.6-46.1
			c-53.9-74.7-82.3-162.8-82.3-255c0-240.7,195.8-436.4,436.5-436.4c240.7,0,436.5,195.8,436.5,436.4
			C-1223.6,467.5-1419.3,663.3-1660,663.3z"/>
		<path class="st2" d="M-1456.7,306c-22.1-13.2-51-28-77.1-17.4c-20,8.2-32.8,39.5-45.8,55.5c-6.7,8.2-14.6,9.5-24.8,5.4
			c-75.1-29.9-132.7-80.1-174.2-149.2c-7-10.7-5.8-19.2,2.7-29.2c12.5-14.7,28.3-31.5,31.6-51.4c3.4-19.9-5.9-43.1-14.1-60.8
			c-10.5-22.6-22.2-54.9-44.9-67.6c-20.8-11.8-48.3-5.2-66.8,9.9c-32,26.1-47.5,66.9-47,107.4c0.1,11.5,1.5,23,4.2,34.1
			c6.5,26.7,18.8,51.7,32.7,75.4c10.5,17.9,21.9,35.2,34.1,51.9c40.2,54.6,90.2,102,148.1,137.5c28.9,17.7,60.1,33.3,92.3,43.9
			c36.2,12,68.4,24.4,107.5,17c40.9-7.8,81.2-33.1,97.5-72.5c4.8-11.7,7.2-24.7,4.5-37C-1401.6,333.5-1436.1,318.4-1456.7,306z"/>
	</g>
</g>
<g id="Capa_3">
	<circle class="st3" cx="-779.1" cy="226.8" r="195.1"/>
	<path class="st4" d="M-96-114.7h-317.2h-292.7h-317.2c-40.3,0-73.1,32.8-73.1,73.1v536.8c0,40.3,32.8,73.1,73.1,73.1H-96
		c40.3,0,73.1-32.8,73.1-73.1V-41.6C-22.9-81.9-55.7-114.7-96-114.7z M-462-114.7 M-71.7,495.1c0,13.4-10.9,24.3-24.3,24.3h-927.1
		c-13.4,0-24.3-10.9-24.3-24.3V-41.6c0-13.4,10.9-24.3,24.3-24.3H-96c13.4,0,24.3,10.9,24.3,24.3V495.1z"/>
	<path class="st4" d="M-779.1,446.3c-121,0-219.5-98.5-219.5-219.5S-900.1,7.2-779.1,7.2s219.5,98.5,219.5,219.5
		S-658,446.3-779.1,446.3z M-779.1,56c-94.2,0-170.7,76.6-170.7,170.7s76.6,170.7,170.7,170.7s170.7-76.6,170.7-170.7
		S-684.9,56-779.1,56z"/>
	<path class="st4" d="M-705.9,190.2h-36.6v-36.6c0-20.2-16.4-36.6-36.6-36.6c-20.2,0-36.6,16.4-36.6,36.6v36.6h-36.6
		c-20.2,0-36.6,16.4-36.6,36.6s16.4,36.6,36.6,36.6h36.6v36.6c0,20.2,16.4,36.6,36.6,36.6c20.2,0,36.6-16.4,36.6-36.6v-36.6h36.6
		c20.2,0,36.6-16.4,36.6-36.6S-685.7,190.2-705.9,190.2z"/>
	<path class="st4" d="M-144.9,104.8H-462c-13.5,0-24.4-10.9-24.4-24.4S-475.4,56-462,56h317.1c13.5,0,24.4,10.9,24.4,24.4
		S-131.4,104.8-144.9,104.8z"/>
	<path class="st4" d="M-388.8,202.4H-462c-13.5,0-24.4-10.9-24.4-24.4c0-13.5,10.9-24.4,24.4-24.4h73.2c13.5,0,24.4,10.9,24.4,24.4
		S-375.3,202.4-388.8,202.4z"/>
	<path class="st4" d="M-144.9,202.4h-146.4c-13.5,0-24.4-10.9-24.4-24.4c0-13.5,10.9-24.4,24.4-24.4h146.4
		c13.5,0,24.4,10.9,24.4,24.4S-131.4,202.4-144.9,202.4z"/>
	<path class="st4" d="M-144.9,299.9H-462c-13.5,0-24.4-10.9-24.4-24.4c0-13.5,10.9-24.4,24.4-24.4h317.1c13.5,0,24.4,10.9,24.4,24.4
		C-120.5,289-131.4,299.9-144.9,299.9z"/>
	<path class="st4" d="M-193.7,397.5H-462c-13.5,0-24.4-10.9-24.4-24.4s10.9-24.4,24.4-24.4h268.3c13.5,0,24.4,10.9,24.4,24.4
		S-180.2,397.5-193.7,397.5z"/>
</g>
<g id="Capa_4">
	<g>
		<rect x="-2180.8" y="-82.2" class="st5" width="1045.7" height="836.5"/>
		<path class="st5" d="M-1135.1-82.2h-1045.7v209.1c0,77,62.4,139.4,139.4,139.4h766.8c77,0,139.4-62.4,139.4-139.4V-82.2z"/>
		<path class="st6" d="M-1936.8-82.2v-139.4c0-38.5,31.2-69.7,69.7-69.7h418.3c38.5,0,69.7,31.2,69.7,69.7v139.4"/>
		<path class="st7" d="M-1658,405.8L-1658,405.8c-38.5,0-69.7-31.2-69.7-69.7V196.6c0-38.5,31.2-69.7,69.7-69.7l0,0
			c38.5,0,69.7,31.2,69.7,69.7V336C-1588.2,374.6-1619.4,405.8-1658,405.8z"/>
		<line class="st8" x1="-1588.2" y1="266.3" x2="-1727.7" y2="266.3"/>
	</g>
</g>
<g id="Capa_5" class="st0">
	<g id="EPS_Plus" class="st1">
		<path class="st4" d="M579.3,94.3v32.1h77.1v32.3h-77.1v32.6h88v32.3H538.2V61.9h126.6v32.3H579.3z"/>
		<path class="st4" d="M756,61.9c41.3,0,65.1,20.3,65.1,56.4c0,37.9-23.8,59.8-65.1,59.8h-29.3v45.5h-41.1V61.9H756z M726.7,145.8
			h27.3c18,0,28.4-9,28.4-26.1c0-16.9-10.4-25.4-28.4-25.4h-27.3V145.8z"/>
		<path class="st4" d="M960.2,78.1l-15.5,32.1c-17.1-9.9-38.6-16.9-51.7-16.9c-10.6,0-17.8,3.9-17.8,11.8c0,27.9,85.5,12,85.5,70.4
			c0,32.3-28.6,49.4-64.7,49.4c-27,0-54.7-10.2-73.9-25.9l15.9-31.6c16.6,14.6,41.6,24.3,58.4,24.3c12.9,0,21-4.9,21-14.1
			c0-28.6-85.5-11.5-85.5-68.8c0-29.8,25.6-48.7,64.4-48.7C919.7,60.1,943.5,67.2,960.2,78.1z"/>
		<path class="st4" d="M607.3,254.1c40,0,63.1,19.9,63.1,54.3c0,35.8-23.1,56.4-63.1,56.4H565v51h-18.5V254.1H607.3z M565,346.9
			h41.6c29.1,0,46-12.9,46-38.1c0-24.5-16.9-37-46-37H565V346.9z"/>
		<path class="st4" d="M782.1,398.2v17.6h-89.4V254.1h18.5v144.1H782.1z"/>
		<path class="st4" d="M935.9,349.2c0,42-25.4,67.4-67.7,67.4c-42.5,0-68.1-25.4-68.1-67.4v-95.2h18.5v95.2
			c0,31.4,18.9,49.7,49.7,49.7c30.7,0,49.2-18.2,49.2-49.7v-95.2h18.5V349.2z"/>
		<path class="st4" d="M1072.2,268.4l-7.9,17.3c-14.6-9.7-31.6-13.6-44.6-13.6c-20.8,0-34.4,7.9-34.4,21.5c0,41.6,91,19.9,90.8,78.5
			c0,27-23.8,44.3-58.4,44.3c-23.6,0-46.7-10.2-61.9-24.7l8.3-16.6c15,14.6,35.6,22.9,53.8,22.9c23.3,0,37.9-9.5,37.9-24.9
			c0.2-42.5-90.8-19.9-90.8-77.8c0-25.4,22.4-41.8,55.9-41.8C1039.6,253.4,1058.8,259.4,1072.2,268.4z"/>
		<path class="st4" d="M270.1,154.4c0,24.4,0,48.8,0,73.2c0,12.5,10.1,20.1,22.2,17c7.1-1.8,11.7-7.3,12.1-14.6c0-0.2,0-0.4,0-0.5
			c0.3-47.3,1-94.7,0.8-142c-0.2-44.4-30.2-62.8-61.4-68.3c-12.9-2.3-25.7-1.7-38.3,2c-28.4,8.3-46.7,31-47.9,60.5
			c-0.6,14.9-0.4,29.8-0.1,44.6c0.3,12.9,10.8,20.1,23,16.4c7.4-2.3,11.7-8.1,11.5-16.8c-0.2-9.9-1-19.7-1.1-29.6
			c-0.1-5.3,0.4-10.7,1.2-16c2-13.7,9.8-22.3,23.5-25.3c13.3-2.9,26.4-2.8,39,2.7c10,4.4,15.4,11.9,15.4,23
			C270.1,105.2,270.1,129.8,270.1,154.4z"/>
		<path class="st4" d="M192.2,308.5c0-22.4,0.1-44.8,0-67.3c-0.1-13.6-12-21.6-24.5-16.5c-5.4,2.2-8.8,6-9.7,11.9
			c-0.3,2.3-0.5,4.6-0.5,7c-0.4,39.3-0.8,78.5-1,117.8c0,8.4,0.8,16.8,2,25.2c1.7,12.1,7.6,22.2,16.3,30.8
			c27.3,27,76.6,30,106.9,6.5c14-10.8,21.8-25,22.7-42.7c0.6-10.7,0.8-21.5,0.8-32.2c0-11.4-6.6-18.4-17.2-18.3
			c-10.7,0-17.6,7.2-17.5,18.8c0,7.2,0.7,14.3,0.5,21.5c-0.5,19.3-9,29.5-28,33c-12.2,2.3-24.3,1.3-35.6-4.6
			c-9.9-5.1-15.3-13.1-15.2-24.6C192.3,352.7,192.2,330.6,192.2,308.5z"/>
		<path class="st4" d="M360.1,196.9c7,0,14,0,21,0c20.6,0,32.1,9.6,35.1,30c1.6,10.4,0.6,20.8-3.3,30.7
			c-4.3,10.9-11.7,17.4-23.9,17.4c-17,0-34.1,0-51.1,0.1c-9.2,0.1-14.9,4.8-16.7,13.6c-2.3,11.1,5,20.6,16.4,20.9
			c14.7,0.4,29.4,1.2,44.1,1c45.1-0.6,75.7-37.1,69.4-81.9c-2.2-15.3-6.6-29.7-15.8-42.3c-11-15-26.1-23.2-44.4-23.9
			c-20-0.8-40.2-0.4-60.2,0c-9.7,0.2-15.7,7.5-15.5,17.7c0.1,9.8,6.2,16.4,15.9,16.7C340.7,197.1,350.4,196.9,360.1,196.9
			C360.1,196.9,360.1,196.9,360.1,196.9z"/>
		<path class="st4" d="M101.1,196.8c8.6,0,17.2,0.1,25.8,0c11.1-0.1,17.9-6.6,17.9-17c0-10.4-6.8-17.2-17.7-17.4
			c-15.2-0.4-30.5-1.2-45.7-1c-48,0.4-79.6,38.2-72.5,85.9c2.4,16,7.5,30.6,18.3,42.8c12.8,14.5,29.6,19.8,48.1,20.3
			c16.3,0.4,32.6-0.3,48.9-1c8.9-0.3,14.8-7.9,14.6-17.4c-0.2-9.6-6.3-16.5-15.4-16.6c-14.2-0.2-28.3-0.1-42.5,0.1
			c-24.3,0.3-36.6-10.6-38-35c-0.4-6.7,0.5-13.7,2.3-20.1c4.6-16.2,14.7-23.4,31.6-23.5C85,196.8,93.1,196.8,101.1,196.8z"/>
		<path class="st4" d="M270,292.6c0,10.3,6.6,17.1,16.5,17.2c9.9,0,16.7-6.8,16.8-17c0.1-10.5-6.8-17.6-16.8-17.5
			C276.7,275.4,270,282.4,270,292.6z"/>
		<path class="st4" d="M191.3,179.8c0-10.3-6.6-17.3-16.4-17.4c-9.7-0.1-16.7,7.1-16.8,17.1c-0.1,10.2,6.6,17.2,16.5,17.3
			C184.6,196.8,191.3,190.1,191.3,179.8z"/>
		<rect x="496" y="14.3" class="st4" width="11.1" height="461.9"/>
	</g>
	<g id="EPS_smile">
		<path class="st9" d="M192.5,306.6c0-22.5,0.1-44.9,0-67.4c-0.1-13.6-12-21.6-24.6-16.5c-5.4,2.2-8.9,6-9.7,11.9
			c-0.3,2.3-0.5,4.6-0.5,7c-0.4,39.3-0.8,78.7-1,118c0,8.4,0.8,16.9,2,25.2c1.7,12.1,7.6,22.2,16.3,30.9
			c27.3,27,76.7,30.1,107.1,6.5c14-10.8,21.8-25.1,22.8-42.8c0.6-10.8,0.8-21.5,0.8-32.3c0-11.5-6.7-18.4-17.3-18.4
			c-10.8,0-17.6,7.2-17.6,18.8c0,7.2,0.7,14.4,0.5,21.5c-0.5,19.3-9.1,29.6-28,33.1c-12.2,2.3-24.4,1.3-35.7-4.6
			c-9.9-5.1-15.3-13.1-15.2-24.6C192.6,350.7,192.5,328.6,192.5,306.6z"/>
		<path class="st10" d="M360.7,194.8c7,0,14,0,21,0c20.6,0,32.1,9.6,35.2,30c1.6,10.4,0.6,20.8-3.3,30.7
			c-4.3,10.9-11.7,17.4-24,17.4c-17.1,0-34.1,0-51.2,0.1c-9.2,0.1-14.9,4.8-16.7,13.6c-2.3,11.2,5.1,20.6,16.5,20.9
			c14.7,0.4,29.5,1.2,44.2,1c45.2-0.6,75.9-37.1,69.5-82c-2.2-15.4-6.6-29.8-15.9-42.4c-11-15-26.1-23.2-44.5-23.9
			c-20.1-0.8-40.2-0.4-60.3,0c-9.7,0.2-15.7,7.6-15.6,17.7c0.1,9.8,6.2,16.4,15.9,16.7C341.3,194.9,351,194.7,360.7,194.8
			C360.7,194.7,360.7,194.7,360.7,194.8z"/>
		<path class="st9" d="M101.3,194.6c8.6,0,17.2,0.1,25.9,0c11.2-0.1,17.9-6.6,17.9-17c0-10.4-6.8-17.2-17.7-17.5
			c-15.3-0.4-30.5-1.2-45.8-1c-48.1,0.4-79.8,38.2-72.6,86c2.4,16,7.5,30.6,18.3,42.9c12.8,14.5,29.7,19.9,48.2,20.3
			c16.3,0.4,32.7-0.3,49-1c8.9-0.3,14.8-7.9,14.6-17.5c-0.2-9.6-6.3-16.5-15.4-16.7c-14.2-0.2-28.4-0.1-42.6,0.1
			c-24.4,0.3-36.7-10.6-38.1-35c-0.4-6.7,0.5-13.7,2.3-20.2c4.6-16.3,14.7-23.4,31.7-23.5C85.1,194.6,93.2,194.6,101.3,194.6z"/>
		<path class="st10" d="M270.5,290.6c0,10.3,6.6,17.2,16.5,17.2c10,0,16.7-6.8,16.8-17c0.1-10.5-6.8-17.6-16.8-17.6
			C277.2,273.3,270.5,280.4,270.5,290.6z"/>
		<g class="st1">
			<path class="st11" d="M578.2,92.8v29.4h70.6v29.6h-70.6v29.8h80.5v29.6H540.6V63.2h115.8v29.6H578.2z"/>
			<path class="st11" d="M739.9,63.2c37.8,0,59.6,18.6,59.6,51.6c0,34.7-21.8,54.7-59.6,54.7H713v41.6h-37.6V63.2H739.9z M713,139.9
				H738c16.5,0,26-8.2,26-23.9c0-15.4-9.5-23.2-26-23.2H713V139.9z"/>
			<path class="st11" d="M926.7,78l-14.2,29.4c-15.6-9.1-35.3-15.4-47.3-15.4c-9.7,0-16.3,3.6-16.3,10.8c0,25.6,78.2,11,78.2,64.4
				c0,29.6-26.2,45.2-59.2,45.2c-24.7,0-50.1-9.3-67.6-23.7l14.6-28.9c15.2,13.3,38,22.2,53.5,22.2c11.8,0,19.2-4.4,19.2-12.9
				c0-26.2-78.2-10.6-78.2-63c0-27.3,23.5-44.6,59-44.6C889.7,61.5,911.5,68.1,926.7,78z"/>
			<path class="st12" d="M634.2,245.5l-7.2,15.8c-13.3-8.9-28.9-12.5-40.8-12.5c-19,0-31.5,7.2-31.5,19.7c0,38,83.3,18.2,83,71.8
				c0,24.7-21.8,40.6-53.5,40.6c-21.6,0-42.7-9.3-56.6-22.6l7.6-15.2c13.7,13.3,32.5,20.9,49.2,20.9c21.3,0,34.7-8.7,34.7-22.8
				c0.2-38.9-83-18.2-83-71.2c0-23.2,20.5-38.2,51.1-38.2C604.4,231.8,621.9,237.3,634.2,245.5z"/>
			<path class="st12" d="M846.5,311.7v68.7h-16.5v-64.2c0-19.9-11.6-31.5-30.9-31.5c-23,0.6-36.3,17.1-36.3,41v54.7h-16.7v-64.2
				c0-19.9-11.4-31.5-30.9-31.5c-22.8,0.6-36.6,17.1-36.6,41v54.7h-16.3V269h16.3v25.1c7.4-17.3,22.4-25.6,42.5-25.8
				c20.9,0,35.3,10.8,39.9,29.2c7-19.7,22.6-28.9,44-29.2C831.1,268.3,846.5,284.8,846.5,311.7z"/>
			<path class="st12" d="M894.3,237.1c0,6.5-4.6,11.4-10.8,11.4s-10.8-4.9-10.8-11.4c0-6.6,4.6-11.4,10.8-11.4
				S894.3,230.5,894.3,237.1z M875.5,380.3V269h16.3v111.4H875.5z"/>
			<path class="st12" d="M925.4,380.3V223.5h16.5v156.8H925.4z"/>
			<path class="st12" d="M1071.4,331.1h-90.9c3,21.8,18.8,35.5,40.4,35.5c13.7,0,25.8-4.9,34.4-13.9l9.1,9.7
				c-10.6,11.8-26.2,18.6-44.8,18.6c-32.8,0-55.4-23-55.4-56.2s22.8-56.2,55.1-56.2C1055.3,268.3,1073.1,293.3,1071.4,331.1z
				 M1056.6,317.6c-1.1-21.3-15.4-34.9-37.2-34.9c-21.1,0-36.3,13.7-38.9,34.9H1056.6z"/>
		</g>
		
			<rect x="491.6" y="15.5" transform="matrix(-1 -1.224647e-16 1.224647e-16 -1 998.3005 492.4208)" class="st9" width="15.2" height="461.5"/>
		<g>
			<path class="st9" d="M377.2,325.9l-1.1,1.4c-1.3-1.3-3.1-2.1-4.9-2.1c-3.7,0-6.8,2.9-6.8,6.5c0,3.6,3,6.5,6.8,6.5
				c1.8,0,3.6-0.8,4.9-2l1.2,1.3c-1.6,1.5-3.9,2.6-6.2,2.6c-4.8,0-8.6-3.7-8.6-8.4c0-4.6,3.8-8.3,8.7-8.3
				C373.4,323.5,375.6,324.4,377.2,325.9z"/>
			<path class="st9" d="M390.2,338.3v1.8H381v-16.6h1.9v14.8H390.2z"/>
			<path class="st9" d="M395.1,321.4h-1.8l2.8-3.2l1.9,0.9L395.1,321.4z M393.7,340.1v-16.6h1.9v16.6H393.7z"/>
			<path class="st9" d="M412.8,340.1l-10-13.3v13.3H401v-16.6h2l10,13.4v-13.4h1.9v16.6H412.8z"/>
			<path class="st9" d="M420.2,340.1v-16.6h1.9v16.6H420.2z"/>
			<path class="st9" d="M440.7,325.9l-1.1,1.4c-1.3-1.3-3.1-2.1-4.9-2.1c-3.7,0-6.8,2.9-6.8,6.5c0,3.6,3,6.5,6.8,6.5
				c1.8,0,3.6-0.8,4.9-2l1.2,1.3c-1.6,1.5-3.9,2.6-6.2,2.6c-4.8,0-8.6-3.7-8.6-8.4c0-4.6,3.8-8.3,8.7-8.3
				C436.9,323.5,439.1,324.4,440.7,325.9z"/>
			<path class="st9" d="M445.9,335.9l-1.9,4.2h-2l7.4-16.6h2l7.4,16.6h-2.1l-1.9-4.2H445.9z M450.4,325.7l-3.7,8.4h7.4L450.4,325.7z
				"/>
			<path class="st9" d="M484.5,331.8c0,4.7-3.8,8.4-8.7,8.4c-4.9,0-8.7-3.7-8.7-8.4c0-4.7,3.8-8.4,8.7-8.4
				C480.7,323.5,484.5,327.1,484.5,331.8z M469,331.8c0,3.7,3.1,6.6,6.8,6.6s6.7-2.9,6.7-6.6c0-3.7-3-6.5-6.7-6.5
				S469,328.2,469,331.8z"/>
			<path class="st9" d="M495.1,323.5c4.8,0,8.5,3.6,8.5,8.3s-3.7,8.3-8.6,8.3h-6.6v-16.6H495.1z M490.2,338.3h4.8
				c3.7,0,6.6-2.8,6.6-6.5c0-3.7-2.9-6.5-6.7-6.5h-4.8V338.3z"/>
			<path class="st9" d="M522.8,331.8c0,4.7-3.8,8.4-8.7,8.4c-4.9,0-8.7-3.7-8.7-8.4c0-4.7,3.8-8.4,8.7-8.4
				C519,323.5,522.8,327.1,522.8,331.8z M507.4,331.8c0,3.7,3.1,6.6,6.8,6.6c3.7,0,6.7-2.9,6.7-6.6c0-3.7-3-6.5-6.7-6.5
				C510.5,325.3,507.4,328.2,507.4,331.8z"/>
			<path class="st9" d="M538.5,340.1l-10-13.3v13.3h-1.9v-16.6h2l10,13.4v-13.4h1.9v16.6H538.5z"/>
			<path class="st9" d="M551,325.3v14.8h-1.9v-14.8h-5.4v-1.8h12.7v1.8H551z"/>
			<path class="st9" d="M574.3,331.8c0,4.7-3.8,8.4-8.7,8.4c-4.9,0-8.7-3.7-8.7-8.4c0-4.7,3.8-8.4,8.7-8.4
				C570.4,323.5,574.3,327.1,574.3,331.8z M558.8,331.8c0,3.7,3.1,6.6,6.8,6.6c3.7,0,6.7-2.9,6.7-6.6c0-3.7-3-6.5-6.7-6.5
				C561.9,325.3,558.8,328.2,558.8,331.8z"/>
			<path class="st9" d="M587.3,338.3v1.8h-9.2v-16.6h1.9v14.8H587.3z"/>
			<path class="st9" d="M606.6,331.8c0,4.7-3.8,8.4-8.7,8.4c-4.9,0-8.7-3.7-8.7-8.4c0-4.7,3.8-8.4,8.7-8.4
				C602.7,323.5,606.6,327.1,606.6,331.8z M591.1,331.8c0,3.7,3.1,6.6,6.8,6.6s6.7-2.9,6.7-6.6c0-3.7-3-6.5-6.7-6.5
				S591.1,328.2,591.1,331.8z M598.3,321.4h-1.8l2.8-3.2l1.9,0.9L598.3,321.4z"/>
			<path class="st9" d="M623.2,332v6c-1.6,1.3-3.9,2.2-6.2,2.2c-4.8,0-8.7-3.7-8.7-8.4s3.9-8.4,8.8-8.4c2.3,0,4.5,0.9,6.1,2.3
				l-1.1,1.4c-1.3-1.2-3.2-1.9-5-1.9c-3.8,0-6.8,2.9-6.8,6.6c0,3.7,3.1,6.6,6.9,6.6c1.5,0,3.1-0.5,4.4-1.4v-5H623.2z"/>
			<path class="st9" d="M628.2,340.1v-16.6h1.9v16.6H628.2z"/>
			<path class="st9" d="M648.7,325.9l-1.1,1.4c-1.3-1.3-3.1-2.1-4.9-2.1c-3.7,0-6.8,2.9-6.8,6.5c0,3.6,3,6.5,6.8,6.5
				c1.8,0,3.6-0.8,4.9-2l1.2,1.3c-1.6,1.5-3.9,2.6-6.2,2.6c-4.8,0-8.6-3.7-8.6-8.4c0-4.6,3.8-8.3,8.7-8.3
				C644.9,323.5,647.1,324.4,648.7,325.9z"/>
			<path class="st9" d="M653.9,335.9l-1.9,4.2h-2l7.5-16.6h2l7.4,16.6h-2.1l-1.9-4.2H653.9z M658.4,325.7l-3.7,8.4h7.5L658.4,325.7z
				"/>
			<path class="st9" d="M685.5,325.3v5.5h8.4v1.8h-8.4v5.7h9.7v1.8h-11.6v-16.6h11.3v1.8H685.5z"/>
			<path class="st9" d="M709.6,325l-0.8,1.8c-1.5-1-3.3-1.4-4.6-1.4c-2.1,0-3.5,0.8-3.5,2.2c0,4.3,9.3,2,9.3,8.1
				c0,2.8-2.4,4.6-6,4.6c-2.4,0-4.8-1-6.4-2.5l0.9-1.7c1.5,1.5,3.7,2.4,5.5,2.4c2.4,0,3.9-1,3.9-2.6c0-4.4-9.3-2-9.3-8
				c0-2.6,2.3-4.3,5.7-4.3C706.2,323.4,708.2,324.1,709.6,325z"/>
			<path class="st9" d="M720.5,323.5c4.1,0,6.5,2,6.5,5.6c0,3.7-2.4,5.8-6.5,5.8h-4.3v5.2h-1.9v-16.6H720.5z M716.2,333h4.3
				c3,0,4.7-1.3,4.7-3.9c0-2.5-1.7-3.8-4.7-3.8h-4.3V333z"/>
			<path class="st9" d="M732.4,325.3v5.5h8.4v1.8h-8.4v5.7h9.7v1.8h-11.6v-16.6h11.3v1.8H732.4z"/>
			<path class="st9" d="M759.5,325.9l-1.1,1.4c-1.3-1.3-3.1-2.1-4.9-2.1c-3.7,0-6.8,2.9-6.8,6.5c0,3.6,3,6.5,6.8,6.5
				c1.8,0,3.6-0.8,4.9-2l1.2,1.3c-1.6,1.5-3.9,2.6-6.2,2.6c-4.8,0-8.6-3.7-8.6-8.4c0-4.6,3.8-8.3,8.7-8.3
				C755.7,323.5,757.9,324.4,759.5,325.9z"/>
			<path class="st9" d="M763.3,340.1v-16.6h1.9v16.6H763.3z"/>
			<path class="st9" d="M772,335.9l-1.9,4.2h-2l7.5-16.6h2l7.4,16.6h-2.1l-1.9-4.2H772z M776.5,325.7l-3.7,8.4h7.5L776.5,325.7z"/>
			<path class="st9" d="M797.2,338.3v1.8H788v-16.6h1.9v14.8H797.2z"/>
			<path class="st9" d="M800.6,340.1v-16.6h1.9v16.6H800.6z"/>
			<path class="st9" d="M808.9,338.3H820l0,1.8h-13.6v-1.5l11-13.3h-10.7v-1.8h13.2v1.5L808.9,338.3z"/>
			<path class="st9" d="M825.4,335.9l-1.9,4.2h-2l7.4-16.6h2l7.4,16.6h-2.1l-1.9-4.2H825.4z M829.9,325.7l-3.7,8.4h7.4L829.9,325.7z
				"/>
			<path class="st9" d="M848.1,323.5c4.8,0,8.5,3.6,8.5,8.3s-3.7,8.3-8.6,8.3h-6.6v-16.6H848.1z M843.3,338.3h4.8
				c3.7,0,6.6-2.8,6.6-6.5c0-3.7-2.9-6.5-6.7-6.5h-4.8V338.3z"/>
			<path class="st9" d="M861.5,335.9l-1.9,4.2h-2l7.4-16.6h2l7.4,16.6h-2.1l-1.9-4.2H861.5z M866,325.7l-3.7,8.4h7.4L866,325.7z"/>
		</g>
		<g class="st1">
			<g>
				<path class="st12" d="M913.5,469.5c-22.1-0.5-48.6-9.9-70.7-33.1c-5.5-5.8-9.9-13.1-14.8-19.8c-1.4-1.9-2.2-4.1-0.2-6.2
					c2-2.1,3.5-0.4,5.1,1.2c11.6,12,25.5,18.5,40.2,22.8c22.4,6.6,45.2,8.1,68.1,5.3c16.7-2,33-5.7,48.2-14.3
					c6.7-3.8,12.7-9.2,18.9-13.9c1.7-1.3,3.2-3.2,5.2-1c1.9,2.2,0.7,4.2-0.4,6.2c-11.5,19.9-27.2,33.4-45.9,42.3
					C952.2,466.3,936.7,469.6,913.5,469.5z"/>
				<path class="st12" d="M1012.2,397.1c7.3,0.3,13.4,7.7,13.3,16.3c0,2.2,0,4.6-2.4,5.4c-2.3,0.7-3.7-1-3.8-4.6
					c-0.2-5.9-2.9-9.5-7.5-9.5c-2.4,0-4.5-0.4-4.7-3.8C1006.9,398.4,1009,397,1012.2,397.1z"/>
				<path class="st12" d="M828.2,397.1c0.2,0,0.8,0,1.3,0.1c1.9,0.4,3.4,1.6,3.2,4.1c-0.2,2.4-1.8,3.3-3.8,3.4
					c-5.8,0.3-8.1,3-8.3,9.9c-0.1,2.4-0.7,4.1-3,4.2c-2.3,0.1-3-1.7-3.3-4C813.2,406.2,820.1,397.2,828.2,397.1z"/>
			</g>
		</g>
		<path class="st10" d="M270.6,152.1c0,24.4,0,48.9,0,73.3c0,12.5,10.1,20.2,22.2,17.1c7.1-1.8,11.7-7.3,12.1-14.7
			c0-0.2,0-0.4,0-0.5c0.3-47.4,1-94.8,0.8-142.3c-0.2-44.5-30.2-62.9-61.5-68.4c-12.9-2.3-25.7-1.7-38.4,2
			c-28.5,8.3-46.8,31-48,60.6c-0.6,14.9-0.4,29.8-0.1,44.7c0.3,12.9,10.8,20.1,23,16.4c7.5-2.3,11.7-8.2,11.6-16.8
			c-0.2-9.9-1-19.7-1.1-29.6c-0.1-5.4,0.4-10.8,1.2-16.1c2.1-13.7,9.8-22.3,23.5-25.3c13.3-2.9,26.4-2.8,39.1,2.7
			c10,4.4,15.4,11.9,15.4,23.1C270.6,102.9,270.6,127.5,270.6,152.1z"/>
		<path class="st10" d="M189.9,177.2c0-10.3-6.6-17.4-16.4-17.5c-9.7-0.1-16.7,7.1-16.8,17.1c-0.1,10.3,6.6,17.2,16.5,17.3
			C183.2,194.3,189.9,187.5,189.9,177.2z"/>
	</g>
</g>
<g id="Capa_7" class="st0">
	<g id="Los_angeles" class="st1">
		<path class="st13" d="M270.7,153.2c0,24.6,0,49.2,0,73.8c0,12.6,10.2,20.3,22.4,17.2c7.2-1.8,11.8-7.4,12.2-14.8
			c0-0.2,0-0.4,0-0.5c0.3-47.7,1-95.5,0.8-143.2c-0.2-44.8-30.5-63.3-62-68.9c-13-2.3-25.9-1.7-38.6,2c-28.7,8.4-47.1,31.2-48.3,61
			c-0.6,15-0.4,30-0.1,45c0.3,13,10.9,20.3,23.2,16.5c7.5-2.3,11.8-8.2,11.6-16.9c-0.2-9.9-1-19.9-1.1-29.8
			c-0.1-5.4,0.4-10.8,1.2-16.2c2.1-13.8,9.9-22.5,23.7-25.5c13.4-2.9,26.6-2.8,39.3,2.8c10.1,4.4,15.6,12,15.6,23.2
			C270.7,103.7,270.7,128.5,270.7,153.2z"/>
		<path class="st11" d="M192.1,308.7c0-22.6,0.1-45.2,0-67.8c-0.1-13.7-12.1-21.8-24.8-16.6c-5.4,2.2-8.9,6.1-9.8,12
			c-0.3,2.3-0.5,4.7-0.5,7c-0.4,39.6-0.8,79.2-1,118.8c0,8.5,0.8,17,2,25.4c1.7,12.2,7.6,22.4,16.4,31.1
			c27.5,27.2,77.2,30.3,107.8,6.5c14.1-10.9,22-25.2,22.9-43.1c0.6-10.8,0.8-21.7,0.8-32.5c0-11.5-6.7-18.5-17.4-18.5
			c-10.8,0-17.7,7.3-17.7,18.9c0,7.2,0.7,14.5,0.6,21.7c-0.5,19.5-9.1,29.8-28.2,33.3c-12.3,2.3-24.5,1.3-35.9-4.6
			c-10-5.2-15.4-13.2-15.3-24.8C192.2,353.2,192.1,331,192.1,308.7z"/>
		<path class="st13" d="M361.5,196.2c7.1,0,14.1,0,21.2,0c20.8,0,32.4,9.6,35.4,30.2c1.6,10.5,0.6,20.9-3.3,31
			c-4.3,11-11.8,17.6-24.1,17.6c-17.2,0-34.4,0-51.6,0.1c-9.3,0.1-15,4.8-16.9,13.7c-2.4,11.2,5.1,20.7,16.6,21
			c14.8,0.4,29.7,1.2,44.5,1c45.5-0.6,76.4-37.4,70-82.6c-2.2-15.5-6.7-30-16-42.7c-11.1-15.1-26.3-23.4-44.8-24.1
			c-20.2-0.8-40.5-0.4-60.7,0c-9.8,0.2-15.8,7.6-15.7,17.8c0.1,9.8,6.3,16.5,16,16.8C341.9,196.4,351.7,196.1,361.5,196.2
			C361.5,196.1,361.5,196.1,361.5,196.2z"/>
		<path class="st11" d="M100.3,196c8.7,0,17.4,0.1,26,0c11.2-0.1,18-6.6,18-17.2c0-10.5-6.9-17.3-17.8-17.6
			c-15.4-0.4-30.7-1.2-46.1-1C32,160.6,0.1,198.7,7.4,246.8c2.4,16.1,7.5,30.8,18.4,43.2c12.9,14.6,29.9,20,48.5,20.5
			c16.4,0.4,32.9-0.3,49.3-1c8.9-0.4,14.9-7.9,14.7-17.6c-0.2-9.7-6.3-16.7-15.5-16.8c-14.3-0.2-28.6-0.1-42.9,0.1
			c-24.5,0.3-36.9-10.7-38.4-35.2c-0.4-6.7,0.5-13.8,2.4-20.3c4.6-16.4,14.8-23.6,31.9-23.7C84,196,92.2,196,100.3,196z"/>
		<path class="st13" d="M270.6,292.7c0,10.4,6.6,17.3,16.7,17.3c10,0,16.8-6.9,16.9-17.1c0.1-10.5-6.8-17.8-17-17.7
			C277.3,275.3,270.6,282.4,270.6,292.7z"/>
		<path class="st13" d="M191.2,178.9c0-10.3-6.7-17.5-16.5-17.6c-9.8-0.1-16.9,7.1-16.9,17.3c-0.1,10.3,6.6,17.4,16.6,17.4
			C184.5,196.1,191.2,189.3,191.2,178.9z"/>
		<g>
			<path class="st11" d="M650.5,222.3V155h-86v67.2h-27.4V60h27.4v70.5h86V60h27.4v162.3H650.5z"/>
			<path class="st11" d="M870.7,141.1c0,46.4-37.6,82.3-86,82.3s-86-35.9-86-82.3c0-46.6,37.6-81.8,86-81.8S870.7,94.8,870.7,141.1z
				 M726.5,141.1c0,32.2,26.7,57.7,58.4,57.7s57.7-25.5,57.7-57.7s-26-57.3-57.7-57.3C752.9,83.9,726.5,108.9,726.5,141.1z"/>
			<path class="st11" d="M1001.7,75.5l-11.4,24.1c-17.6-10.7-35.2-15.1-47.5-15.1c-16,0-26.4,6-26.4,16.9
				c0,35.5,87.6,16.5,87.4,74.9c0,29-25.5,46.8-61.2,46.8c-25.5,0-49.6-10.4-66.3-25.7l11.8-23.6c16.7,15.3,37.6,23.6,54.9,23.6
				c19,0,30.4-7.2,30.4-19.7c0-36.2-87.6-16-87.6-73.7c0-27.8,23.9-45.2,59.1-45.2C966,58.8,986.6,65.6,1001.7,75.5z"/>
			<path class="st11" d="M1092.1,60c40.8,0,64.2,20.2,64.2,55.4c0,36.6-23.4,58-64.2,58h-37.3v48.9h-27.4V60H1092.1z M1054.7,148.8
				h36.2c25,0,39.2-10.7,39.2-32.7c0-21.3-14.1-31.5-39.2-31.5h-36.2V148.8z"/>
			<path class="st11" d="M1175,222.3V60h27.4v162.3H1175z"/>
			<path class="st11" d="M1296,84.6v137.7h-27.4V84.6h-51.2V60h130.1v24.6H1296z"/>
			<path class="st11" d="M1369.5,185.6l-15.5,36.6h-28.5L1397.1,60h28.1l70.9,162.3h-29.2l-15.5-36.6H1369.5z M1410.3,89.2
				l-30.6,72.1h61.2L1410.3,89.2z"/>
			<path class="st11" d="M1606.9,197.5v24.8h-97.6V60h27.4v137.5H1606.9z"/>
			<path class="st11" d="M630.1,397.5v17.6h-89.7V252.9h18.5v144.7H630.1z"/>
			<path class="st11" d="M806.5,334c0,45.7-37.6,82.1-84.8,82.1c-47.5,0-85.1-36.4-85.1-82.1c0-45.9,37.6-81.6,85.1-81.6
				C768.9,252.4,806.5,288.3,806.5,334z M655.3,334c0,35.7,30.1,64.2,66.3,64.2s65.8-28.5,65.8-64.2s-29.7-64-65.8-64
				S655.3,298.3,655.3,334z"/>
			<path class="st11" d="M931.7,267.2l-7.9,17.4C909.2,274.9,892,271,879,271c-20.9,0-34.5,7.9-34.5,21.6
				c0,41.7,91.3,19.9,91.1,78.8c0,27.1-23.9,44.5-58.7,44.5c-23.6,0-46.8-10.2-62.1-24.8l8.3-16.7c15.1,14.6,35.7,23,54,23
				c23.4,0,38-9.5,38-25c0.2-42.7-91.1-19.9-91.1-78.1c0-25.5,22.5-42,56.1-42C899,252.2,918.2,258.2,931.7,267.2z"/>
			<path class="st11" d="M1034.6,374.1l-18.1,41h-19.7l72.8-162.3h19.2l72.6,162.3h-20.2l-18.1-41H1034.6z M1078.6,274l-36.2,82.3
				h72.8L1078.6,274z"/>
			<path class="st11" d="M1294.4,415.1l-97.4-130.3v130.3h-18.5V252.9h19.2l97.4,130.5V252.9h18.3v162.3H1294.4z"/>
			<path class="st11" d="M1484,335.9v58.9c-16,12.8-38.5,21.3-60.3,21.3c-47.1,0-84.6-36.4-84.6-82.1s37.8-81.6,85.5-81.6
				c22.5,0,44.3,8.6,59.8,22.3l-10.7,13.9c-13.2-11.8-31.1-18.8-49.1-18.8c-37.1,0-66.8,28.5-66.8,64.2c0,35.9,29.9,64.4,67,64.4
				c14.6,0,30.1-5.1,42.7-13.7v-48.9H1484z"/>
			<path class="st11" d="M1539.2,270.7V324h81.8v17.9h-81.8v55.6h94.6v17.6h-113.1V252.9h110.1v17.9H1539.2z"/>
			<path class="st11" d="M1752.9,397.5v17.6h-89.7V252.9h18.5v144.7H1752.9z"/>
			<path class="st11" d="M1793.3,270.7V324h81.8v17.9h-81.8v55.6h94.6v17.6h-113.1V252.9h110.1v17.9H1793.3z"/>
			<path class="st11" d="M2017,267.2l-7.9,17.4c-14.6-9.7-31.8-13.7-44.7-13.7c-20.9,0-34.5,7.9-34.5,21.6
				c0,41.7,91.3,19.9,91.1,78.8c0,27.1-23.9,44.5-58.7,44.5c-23.6,0-46.8-10.2-62.1-24.8l8.3-16.7c15.1,14.6,35.7,23,54,23
				c23.4,0,38-9.5,38-25c0.2-42.7-91.1-19.9-91.1-78.1c0-25.5,22.5-42,56.1-42C1984.3,252.2,2003.5,258.2,2017,267.2z"/>
		</g>
		<rect x="496.4" y="11.2" class="st11" width="11.3" height="469.7"/>
	</g>
</g>
<g id="Capa_8">
	<g id="Divina">
		<g>
			<g>
				<defs>
					<path id="SVGID_1_" d="M48.3,107.2c-78.6,97-38.5,204-38.5,204c46.8,145.5,187.3,140.5,187.3,140.5
						C48.3,434.9,19.9,312.9,19.9,312.9c-28.4-93.6,10-158.9,10-158.9c18.4-36.8,23.4-41.8,50.2-66.9c26.8-25.1,61.9-36.8,61.9-36.8
						c31.8-11.7,56-10.9,56-10.9c-2.6-0.1-5.2-0.2-7.8-0.2C102,39.3,48.3,107.2,48.3,107.2"/>
				</defs>
				<clipPath id="SVGID_2_">
					<use xlink:href="#SVGID_1_"  style="overflow:visible;"/>
				</clipPath>
				
					<linearGradient id="SVGID_3_" gradientUnits="userSpaceOnUse" x1="-2255.4954" y1="626.1472" x2="-2254.3232" y2="626.1472" gradientTransform="matrix(169.265 0 0 -169.265 381776 106232.4375)">
					<stop  offset="0" style="stop-color:#1E6CB7"/>
					<stop  offset="0.5151" style="stop-color:#4AB4E2"/>
					<stop  offset="1" style="stop-color:#4AB4E2"/>
				</linearGradient>
				<rect x="-30.3" y="38.6" class="st14" width="228.3" height="418.1"/>
			</g>
			<g>
				<defs>
					<path id="SVGID_4_" d="M250.6,396.5c-0.9-0.9-1.8-1.7-2.6-2.6C249.7,395.6,250.6,396.5,250.6,396.5"/>
				</defs>
				<clipPath id="SVGID_5_">
					<use xlink:href="#SVGID_4_"  style="overflow:visible;"/>
				</clipPath>
				
					<linearGradient id="SVGID_6_" gradientUnits="userSpaceOnUse" x1="-1305.9557" y1="595.4542" x2="-1304.7832" y2="595.4542" gradientTransform="matrix(2.238 0 0 -2.238 3170.7556 1727.8157)">
					<stop  offset="0" style="stop-color:#1E6CB7"/>
					<stop  offset="0.2915" style="stop-color:#2D85C6"/>
					<stop  offset="0.7508" style="stop-color:#42A7DA"/>
					<stop  offset="1" style="stop-color:#4AB4E2"/>
				</linearGradient>
				<rect x="248" y="393.9" class="st15" width="2.6" height="2.6"/>
			</g>
			<g>
				<defs>
					<path id="SVGID_7_" d="M248,393.9c-11.5-11.8-56.5-64.5-49.2-158c0,0,1.7-46.8,43.5-75.3c0,0,10-10,18.4-8.4c0,0,5,1.7,0,6.7
						c0,0-16.7,8.4-25.1,23.4c7.7-0.2,12.4,3.1,16,6.4c5.6,5.2,8.4,10.4,15.8,2c0,0,8.4-8.4,15-8.4c12.1,1.6,0-8.9,16.7-18.4
						c0,0,6.7,0,10-3.3c0,0-8.4,1.7-8.4-1.7c0,0-1.7-1.7,5-5c39.6-25.5,6.7-41.2-13.4-10c0,0-8.4,13.4-16.7,10
						c-8.2-12.7,10.2-29.9,53.5-36.8c-21.1-39.1-44.7-55.4-66.9-55.4C181.5,61.8,117.6,276.6,248,393.9"/>
				</defs>
				<clipPath id="SVGID_8_">
					<use xlink:href="#SVGID_7_"  style="overflow:visible;"/>
				</clipPath>
				
					<linearGradient id="SVGID_9_" gradientUnits="userSpaceOnUse" x1="-2251.8921" y1="626.1032" x2="-2250.7202" y2="626.1032" gradientTransform="matrix(132.986 0 0 -132.986 299643.5 83490.7969)">
					<stop  offset="0" style="stop-color:#1E6CB7"/>
					<stop  offset="0.2915" style="stop-color:#2D85C6"/>
					<stop  offset="0.7508" style="stop-color:#42A7DA"/>
					<stop  offset="1" style="stop-color:#4AB4E2"/>
				</linearGradient>
				<rect x="117.6" y="61.8" class="st16" width="227.8" height="332.1"/>
			</g>
			<g>
				<defs>
					<path id="SVGID_10_" d="M357.7,424.9c-8.4-21.7-8.4-75.3-8.4-75.3c-55.2,11.7-70.2-23.4-70.2-23.4
						c-17.1-21.8-38.7-105.1-45.2-105.4c-4-3.7-7.4-5.5-10.3-5.5C192.6,215.4,228.4,417.6,357.7,424.9"/>
				</defs>
				<clipPath id="SVGID_11_">
					<use xlink:href="#SVGID_10_"  style="overflow:visible;"/>
				</clipPath>
				
					<linearGradient id="SVGID_12_" gradientUnits="userSpaceOnUse" x1="-2250.5808" y1="625.9669" x2="-2249.4087" y2="625.9669" gradientTransform="matrix(123.309 0 0 -123.309 277730 77507.5)">
					<stop  offset="0" style="stop-color:#1E6CB7"/>
					<stop  offset="0.2915" style="stop-color:#2D85C6"/>
					<stop  offset="0.7508" style="stop-color:#42A7DA"/>
					<stop  offset="1" style="stop-color:#4AB4E2"/>
				</linearGradient>
				<rect x="192.6" y="215.4" class="st17" width="165.1" height="209.5"/>
			</g>
			<g>
				<defs>
					<path id="SVGID_13_" d="M250.6,396.5c-0.9-0.9-1.8-1.7-2.6-2.6C249.7,395.6,250.6,396.5,250.6,396.5"/>
				</defs>
				<clipPath id="SVGID_14_">
					<use xlink:href="#SVGID_13_"  style="overflow:visible;"/>
				</clipPath>
				<g class="st18">
					<defs>
						<path id="SVGID_15_" d="M198.8,235.9c0,0,1.7-46.8,43.5-75.3c0,0,10-10,18.4-8.4c0,0,5,1.7,0,6.7c0,0-16.7,8.4-25.1,23.4
							c19.9-0.6,19.6,22.1,31.8,8.4c0,0,8.4-8.4,15.1-8.4c12.1,1.6,0-8.9,16.7-18.4c0,0,6.7,0,10-3.3c0,0-8.4,1.7-8.4-1.7
							c0,0-1.7-1.7,5-5c39.6-25.5,6.7-41.2-13.4-10c0,0-8.4,13.4-16.7,10c-8.2-12.7,10.2-29.9,53.5-36.8
							C231.3-63.9,81.7,244.3,248,393.9C236.5,382.1,191.5,329.4,198.8,235.9"/>
					</defs>
					<clipPath id="SVGID_16_">
						<use xlink:href="#SVGID_15_"  style="overflow:visible;"/>
					</clipPath>
					<g class="st19">
						<defs>
							<path id="SVGID_17_" d="M279.1,326.2c-17.1-21.8-38.7-105.1-45.2-105.4c-47.1-44.4-17.5,196.1,123.7,204
								c-8.4-21.7-8.4-75.3-8.4-75.3C294.1,361.3,279.1,326.2,279.1,326.2"/>
						</defs>
						<clipPath id="SVGID_18_">
							<use xlink:href="#SVGID_17_"  style="overflow:visible;"/>
						</clipPath>
						<g class="st20">
							<defs>
								<path id="SVGID_19_" d="M305.5,291.7c17.6,190.1-192,212.6-215.1,23.1C72.7,124.7,282.4,102.2,305.5,291.7"/>
							</defs>
							<clipPath id="SVGID_20_">
								<use xlink:href="#SVGID_19_"  style="overflow:visible;"/>
							</clipPath>
							
								<linearGradient id="SVGID_21_" gradientUnits="userSpaceOnUse" x1="-2256.5085" y1="626.1385" x2="-2255.3364" y2="626.1385" gradientTransform="matrix(185.334 0 0 -185.334 418297.0625 116347.9766)">
								<stop  offset="0" style="stop-color:#2D85C6"/>
								<stop  offset="1" style="stop-color:#2274BC"/>
							</linearGradient>
							<rect x="72.7" y="102.2" class="st21" width="250.4" height="402"/>
						</g>
					</g>
				</g>
			</g>
			<g>
				<path class="st22" d="M362.7,359.7c0,0-3.3,25.1,3.3,46.8l1.7-41.8c0,0,20.1-5,20.1-23.4C387.8,341.3,386.1,354.7,362.7,359.7"
					/>
			</g>
			<g>
				<defs>
					<path id="SVGID_22_" d="M78.4,120.5c0,0-75.3,63.5-35.1,195.7c0,0,48.5,152.2,242.5,92H175.4V302.8h-107V187.4h107V82.1h41.8
						c0,0,13.4,5,20.1-15.1c0,0-6.8-0.8-17.9-0.8C188.5,66.2,123.9,72.5,78.4,120.5"/>
				</defs>
				<clipPath id="SVGID_23_">
					<use xlink:href="#SVGID_22_"  style="overflow:visible;"/>
				</clipPath>
				
					<linearGradient id="SVGID_24_" gradientUnits="userSpaceOnUse" x1="-2258.2222" y1="626.1161" x2="-2257.0503" y2="626.1161" gradientTransform="matrix(216.951 0 0 -216.951 489955.0938 136103.8125)">
					<stop  offset="0" style="stop-color:#1E6CB7"/>
					<stop  offset="1" style="stop-color:#4AB4E2"/>
				</linearGradient>
				<rect x="3.1" y="66.2" class="st23" width="282.6" height="402.2"/>
			</g>
			<g>
				<defs>
					<path id="SVGID_25_" d="M306.7,188.3c-18.4,25.1-50.2,28.4-50.2,28.4c12.3,18,33.3,92.5,35.1,87h68.6V188.3H306.7z"/>
				</defs>
				<clipPath id="SVGID_26_">
					<use xlink:href="#SVGID_25_"  style="overflow:visible;"/>
				</clipPath>
				
					<linearGradient id="SVGID_27_" gradientUnits="userSpaceOnUse" x1="-2243.6482" y1="625.8736" x2="-2242.4761" y2="625.8736" gradientTransform="matrix(88.4657 0 0 -88.4657 198742.3906 55617.082)">
					<stop  offset="0" style="stop-color:#1E6CB7"/>
					<stop  offset="1" style="stop-color:#4AB4E2"/>
				</linearGradient>
				<rect x="256.5" y="188.3" class="st24" width="103.7" height="120.9"/>
			</g>
			<g>
				<g class="st25">
					<g>
						<defs>
							<rect id="SVGID_28_" x="89.3" y="61.9" width="270.1" height="386.1"/>
						</defs>
						<clipPath id="SVGID_29_">
							<use xlink:href="#SVGID_28_"  style="overflow:visible;"/>
						</clipPath>
						<g class="st26">
							<defs>
								<path id="SVGID_30_" d="M308.8,290c8.6,79.6-32.6,149.4-92,155.8c-59.4,6.4-114.5-53-123.1-132.6
									c-8.6-79.6,32.6-149.4,92-155.8C245.1,151,300.2,210.4,308.8,290"/>
							</defs>
							<clipPath id="SVGID_31_">
								<use xlink:href="#SVGID_30_"  style="overflow:visible;"/>
							</clipPath>
							<path class="st27" d="M250.7,396.6c-0.9-0.9-1.8-1.7-2.6-2.6C249.7,395.7,250.7,396.6,250.7,396.6"/>
							<path class="st27" d="M198.8,236c0,0,1.7-46.8,43.5-75.3c0,0,10-10,18.4-8.4c0,0,5,1.7,0,6.7c0,0-16.7,8.4-25.1,23.4
								c0,0,11.7,0,18.4,8.4c0,0,5,10,13.4,0c0,0,8.4-8.4,15.1-8.4c0,0,5,1.7,6.7-3.3c0,0-1.7-8.4,10-15c0,0,6.7,0,10-3.3
								c0,0-8.4,1.7-8.4-1.7c0,0-1.7-1.7,5-5c0,0,15.1-8.4,18.4-20.1c0,0,3.3-8.4-10-6.7c0,0-13.4,1.7-21.7,16.7
								c0,0-8.4,13.4-16.7,10c0,0-6.7-5,3.3-16.7c0,0,13.4-15.1,50.2-20.1c0,0-21.7-50.2-61.9-55.2c0,0-36.8-5-61.9,36.8
								c0,0-28.4,36.8-31.8,135.5c0,0-8.2,78.6,74.3,159.6C236.6,382.2,191.5,329.5,198.8,236"/>
							<path class="st27" d="M305.9,187.5c-18.4,25.1-50.2,28.4-50.2,28.4c5,5,16.7,38.5,16.7,38.5c11.7,40.1,19.2,49.2,19.2,49.2
								l67.8-0.7V187.5H305.9z"/>
							<path class="st27" d="M279.1,326.3c-10-10-28.4-66.9-28.4-66.9C237.3,221,234,221,234,221c-13.4-15.1-18.4,1.7-18.4,1.7
								c-6.7,30.1,6.7,71.9,6.7,71.9c10,38.5,33.4,70.2,33.4,70.2c40.1,56.9,102,60.2,102,60.2c-8.4-21.7-8.4-75.3-8.4-75.3
								C294.2,361.4,279.1,326.3,279.1,326.3"/>
						</g>
						<g class="st26">
							<defs>
								<path id="SVGID_32_" d="M250.7,396.6c-0.9-0.9-1.8-1.7-2.6-2.6C249.7,395.7,250.7,396.6,250.7,396.6"/>
							</defs>
							<clipPath id="SVGID_33_">
								<use xlink:href="#SVGID_32_"  style="overflow:visible;"/>
							</clipPath>
							<g class="st28">
								<defs>
									<path id="SVGID_34_" d="M198.8,236c0,0,1.7-46.8,43.5-75.3c0,0,10-10,18.4-8.4c0,0,5,1.7,0,6.7c0,0-16.7,8.4-25.1,23.4
										c0,0,11.7,0,18.4,8.4c0,0,5,10,13.4,0c0,0,8.4-8.4,15.1-8.4c0,0,5,1.7,6.7-3.3c0,0-1.7-8.4,10-15.1c0,0,6.7,0,10-3.3
										c0,0-8.4,1.7-8.4-1.7c0,0-1.7-1.7,5-5c0,0,15.1-8.4,18.4-20.1c0,0,3.3-8.4-10-6.7c0,0-13.4,1.7-21.7,16.7
										c0,0-8.4,13.4-16.7,10c0,0-6.7-5,3.3-16.7c0,0,13.4-15.1,50.2-20.1c0,0-21.7-50.2-61.9-55.2c0,0-36.8-5-61.9,36.8
										c0,0-28.4,36.8-31.8,135.5c0,0-8.2,78.6,74.3,159.6C236.6,382.2,191.5,329.5,198.8,236"/>
								</defs>
								<clipPath id="SVGID_35_">
									<use xlink:href="#SVGID_34_"  style="overflow:visible;"/>
								</clipPath>
								<g class="st29">
									<defs>
										<path id="SVGID_36_" d="M305.9,187.5c-18.4,25.1-50.2,28.4-50.2,28.4c5,5,16.7,38.5,16.7,38.5
											c11.7,40.1,19.2,49.2,19.2,49.2l67.8-0.7V187.5H305.9z"/>
									</defs>
									<clipPath id="SVGID_37_">
										<use xlink:href="#SVGID_36_"  style="overflow:visible;"/>
									</clipPath>
									<g class="st30">
										<defs>
											<path id="SVGID_38_" d="M279.1,326.3c-10-10-28.4-66.9-28.4-66.9C237.3,221,234,221,234,221
												c-13.4-15.1-18.4,1.7-18.4,1.7c-6.7,30.1,6.7,71.9,6.7,71.9c10,38.5,33.4,70.2,33.4,70.2c40.1,56.9,102,60.2,102,60.2
												c-8.4-21.7-8.4-75.3-8.4-75.3C294.2,361.4,279.1,326.3,279.1,326.3"/>
										</defs>
										<clipPath id="SVGID_39_">
											<use xlink:href="#SVGID_38_"  style="overflow:visible;"/>
										</clipPath>
										<path class="st31" d="M305.6,291.7c8.6,79.6-32.6,149.4-92,155.8c-59.4,6.4-114.5-53-123.1-132.6
											c-8.6-79.6,32.6-149.4,92-155.8C241.9,152.7,297,212.1,305.6,291.7"/>
									</g>
								</g>
							</g>
						</g>
					</g>
				</g>
			</g>
			<text transform="matrix(1.2015 0 0 1 416.0107 227.5063)"><tspan x="0" y="0" class="st11 st32 st33">HOSPI</tspan><tspan x="353" y="0" class="st11 st32 st33 st34">T</tspan><tspan x="408.9" y="0" class="st11 st32 st33">AL</tspan></text>
			<text transform="matrix(1.2313 0 0 1 422.0527 312.979)"><tspan x="0" y="0" class="st11 st32 st35">M</tspan><tspan x="50.7" y="0" class="st11 st32 st35 st36">A</tspan><tspan x="83.3" y="0" class="st11 st32 st35">TERNO IN</tspan><tspan x="342.5" y="0" class="st11 st32 st35 st37">F</tspan><tspan x="371.1" y="0" class="st11 st32 st35">ANTIL</tspan></text>
			<text transform="matrix(1.143 0 0 1 423.7158 396.5923)" class="st11 st32 st35">DIVINA CONCEPCIÓN</text>
		</g>
	</g>
</g>
<g id="lineas_logos">
</g>
<g id="Capa_2">
</g>
</svg>
