<svg width="1080" height="487" viewBox="0 0 1080 487" fill="none" xmlns="http://www.w3.org/2000/svg">
<g clip-path="url(#clip0_902_1280)">
<path d="M579.3 94.3V126.4H656.4V158.7H579.3V191.3H667.3V223.6H538.2V61.9H664.8V94.2H579.3V94.3Z" fill="#002F54"/>
<path d="M756 61.9C797.3 61.9 821.1 82.2 821.1 118.3C821.1 156.2 797.3 178.1 756 178.1H726.7V223.6H685.6V61.9H756ZM726.7 145.8H754C772 145.8 782.4 136.8 782.4 119.7C782.4 102.8 772 94.3 754 94.3H726.7V145.8Z" fill="#002F54"/>
<path d="M960.2 78.1L944.7 110.2C927.6 100.3 906.1 93.3 893 93.3C882.4 93.3 875.2 97.2 875.2 105.1C875.2 133 960.7 117.1 960.7 175.5C960.7 207.8 932.1 224.9 896 224.9C869 224.9 841.3 214.7 822.1 199L838 167.4C854.6 182 879.6 191.7 896.4 191.7C909.3 191.7 917.4 186.8 917.4 177.6C917.4 149 831.9 166.1 831.9 108.8C831.9 79 857.5 60.1 896.3 60.1C919.7 60.1 943.5 67.2 960.2 78.1Z" fill="#002F54"/>
<path d="M607.3 254.1C647.3 254.1 670.4 274 670.4 308.4C670.4 344.2 647.3 364.8 607.3 364.8H565V415.8H546.5V254.1H607.3ZM565 346.9H606.6C635.7 346.9 652.6 334 652.6 308.8C652.6 284.3 635.7 271.8 606.6 271.8H565V346.9Z" fill="#FB5000"/>
<path d="M782.1 398.2V415.8H692.7V254.1H711.2V398.2H782.1Z" fill="#FB5000"/>
<path d="M935.9 349.2C935.9 391.2 910.5 416.6 868.2 416.6C825.7 416.6 800.1 391.2 800.1 349.2V254H818.6V349.2C818.6 380.6 837.5 398.9 868.3 398.9C899 398.9 917.5 380.7 917.5 349.2V254H936V349.2H935.9Z" fill="#FB5000"/>
<path d="M1072.2 268.4L1064.3 285.7C1049.7 276 1032.7 272.1 1019.7 272.1C998.9 272.1 985.3 280 985.3 293.6C985.3 335.2 1076.3 313.5 1076.1 372.1C1076.1 399.1 1052.3 416.4 1017.7 416.4C994.1 416.4 971 406.2 955.8 391.7L964.1 375.1C979.1 389.7 999.7 398 1017.9 398C1041.2 398 1055.8 388.5 1055.8 373.1C1056 330.6 965 353.2 965 295.3C965 269.9 987.4 253.5 1020.9 253.5C1039.6 253.4 1058.8 259.4 1072.2 268.4Z" fill="#FB5000"/>
<path d="M270.1 154.4C270.1 178.8 270.1 203.2 270.1 227.6C270.1 240.1 280.2 247.7 292.3 244.6C299.4 242.8 304 237.3 304.4 230C304.4 229.8 304.4 229.6 304.4 229.5C304.7 182.2 305.4 134.8 305.2 87.5C305 43.1 275 24.7 243.8 19.2C230.9 16.9 218.1 17.5 205.5 21.2C177.1 29.5 158.8 52.2 157.6 81.7C157 96.6 157.2 111.5 157.5 126.3C157.8 139.2 168.3 146.4 180.5 142.7C187.9 140.4 192.2 134.6 192 125.9C191.8 116 191 106.2 190.9 96.3C190.8 91 191.3 85.6 192.1 80.3C194.1 66.6 201.9 58 215.6 55C228.9 52.1 242 52.2 254.6 57.7C264.6 62.1 270 69.6 270 80.7C270.1 105.2 270.1 129.8 270.1 154.4Z" fill="#FB5000"/>
<path d="M192.2 308.5C192.2 286.1 192.3 263.7 192.2 241.2C192.1 227.6 180.2 219.6 167.7 224.7C162.3 226.9 158.9 230.7 158 236.6C157.7 238.9 157.5 241.2 157.5 243.6C157.1 282.9 156.7 322.1 156.5 361.4C156.5 369.8 157.3 378.2 158.5 386.6C160.2 398.7 166.1 408.8 174.8 417.4C202.1 444.4 251.4 447.4 281.7 423.9C295.7 413.1 303.5 398.9 304.4 381.2C305 370.5 305.2 359.7 305.2 349C305.2 337.6 298.6 330.6 288 330.7C277.3 330.7 270.4 337.9 270.5 349.5C270.5 356.7 271.2 363.8 271 371C270.5 390.3 262 400.5 243 404C230.8 406.3 218.7 405.3 207.4 399.4C197.5 394.3 192.1 386.3 192.2 374.8C192.3 352.7 192.2 330.6 192.2 308.5Z" fill="#002F54"/>
<path d="M360.1 196.9C367.1 196.9 374.1 196.9 381.1 196.9C401.7 196.9 413.2 206.5 416.2 226.9C417.8 237.3 416.8 247.7 412.9 257.6C408.6 268.5 401.2 275 389 275C372 275 354.9 275 337.9 275.1C328.7 275.2 323 279.9 321.2 288.7C318.9 299.8 326.2 309.3 337.6 309.6C352.3 310 367 310.8 381.7 310.6C426.8 310 457.4 273.5 451.1 228.7C448.9 213.4 444.5 199 435.3 186.4C424.3 171.4 409.2 163.2 390.9 162.5C370.9 161.7 350.7 162.1 330.7 162.5C321 162.7 315 170 315.2 180.2C315.3 190 321.4 196.6 331.1 196.9C340.7 197.1 350.4 196.9 360.1 196.9Z" fill="#FB5000"/>
<path d="M101.1 196.8C109.7 196.8 118.3 196.9 126.9 196.8C138 196.7 144.8 190.2 144.8 179.8C144.8 169.4 138 162.6 127.1 162.4C111.9 162 96.6 161.2 81.4 161.4C33.4 161.8 1.80002 199.6 8.90002 247.3C11.3 263.3 16.4 277.9 27.2 290.1C40 304.6 56.8 309.9 75.3 310.4C91.6 310.8 107.9 310.1 124.2 309.4C133.1 309.1 139 301.5 138.8 292C138.6 282.4 132.5 275.5 123.4 275.4C109.2 275.2 95.1 275.3 80.9 275.5C56.6 275.8 44.3 264.9 42.9 240.5C42.5 233.8 43.4 226.8 45.2 220.4C49.8 204.2 59.9 197 76.8 196.9C85 196.8 93.1 196.8 101.1 196.8Z" fill="#002F54"/>
<path d="M270 292.6C270 302.9 276.6 309.7 286.5 309.8C296.4 309.8 303.2 303 303.3 292.8C303.4 282.3 296.5 275.2 286.5 275.3C276.7 275.4 270 282.4 270 292.6Z" fill="#FB5000"/>
<path d="M191.3 179.8C191.3 169.5 184.7 162.5 174.9 162.4C165.2 162.3 158.2 169.5 158.1 179.5C158 189.7 164.7 196.7 174.6 196.8C184.6 196.8 191.3 190.1 191.3 179.8Z" fill="#FB5000"/>
<path d="M507.1 14.3H496V476.2H507.1V14.3Z" fill="#002F54"/>
</g>
<defs>
<clipPath id="clip0_902_1280">
<rect width="1080" height="487" fill="white"/>
</clipPath>
</defs>
</svg>
