<svg width="1080" height="487" viewBox="0 0 1080 487" fill="none" xmlns="http://www.w3.org/2000/svg">
<g clip-path="url(#clip0_902_1320)">
<path d="M192.5 306.6C192.5 284.1 192.6 261.7 192.5 239.2C192.4 225.6 180.5 217.6 167.9 222.7C162.5 224.9 159 228.7 158.2 234.6C157.9 236.9 157.7 239.2 157.7 241.6C157.3 280.9 156.9 320.3 156.7 359.6C156.7 368 157.5 376.5 158.7 384.8C160.4 396.9 166.3 407 175 415.7C202.3 442.7 251.7 445.8 282.1 422.2C296.1 411.4 303.9 397.1 304.9 379.4C305.5 368.6 305.7 357.9 305.7 347.1C305.7 335.6 299 328.7 288.4 328.7C277.6 328.7 270.8 335.9 270.8 347.5C270.8 354.7 271.5 361.9 271.3 369C270.8 388.3 262.2 398.6 243.3 402.1C231.1 404.4 218.9 403.4 207.6 397.5C197.7 392.4 192.3 384.4 192.4 372.9C192.6 350.7 192.5 328.6 192.5 306.6Z" fill="#002F54"/>
<path d="M360.7 194.8C367.7 194.8 374.7 194.8 381.7 194.8C402.3 194.8 413.8 204.4 416.9 224.8C418.5 235.2 417.5 245.6 413.6 255.5C409.3 266.4 401.9 272.9 389.6 272.9C372.5 272.9 355.5 272.9 338.4 273C329.2 273.1 323.5 277.8 321.7 286.6C319.4 297.8 326.8 307.2 338.2 307.5C352.9 307.9 367.7 308.7 382.4 308.5C427.6 307.9 458.3 271.4 451.9 226.5C449.7 211.1 445.3 196.7 436 184.1C425 169.1 409.9 160.9 391.5 160.2C371.4 159.4 351.3 159.8 331.2 160.2C321.5 160.4 315.5 167.8 315.6 177.9C315.7 187.7 321.8 194.3 331.5 194.6C341.3 194.9 351 194.7 360.7 194.8C360.7 194.7 360.7 194.7 360.7 194.8Z" fill="#009FD6"/>
<path d="M101.3 194.6C109.9 194.6 118.5 194.7 127.2 194.6C138.4 194.5 145.1 188 145.1 177.6C145.1 167.2 138.3 160.4 127.4 160.1C112.1 159.7 96.9 158.9 81.6 159.1C33.5 159.5 1.80001 197.3 9.00001 245.1C11.4 261.1 16.5 275.7 27.3 288C40.1 302.5 57 307.9 75.5 308.3C91.8 308.7 108.2 308 124.5 307.3C133.4 307 139.3 299.4 139.1 289.8C138.9 280.2 132.8 273.3 123.7 273.1C109.5 272.9 95.3 273 81.1 273.2C56.7 273.5 44.4 262.6 43 238.2C42.6 231.5 43.5 224.5 45.3 218C49.9 201.7 60 194.6 77 194.5C85.1 194.6 93.2 194.6 101.3 194.6Z" fill="#002F54"/>
<path d="M270.5 290.6C270.5 300.9 277.1 307.8 287 307.8C297 307.8 303.7 301 303.8 290.8C303.9 280.3 297 273.2 287 273.2C277.2 273.3 270.5 280.4 270.5 290.6Z" fill="#009FD6"/>
<path d="M578.2 92.8V122.2H648.8V151.8H578.2V181.6H658.7V211.2H540.6V63.2H656.4V92.8H578.2V92.8Z" fill="#002F54"/>
<path d="M739.9 63.2C777.7 63.2 799.5 81.8 799.5 114.8C799.5 149.5 777.7 169.5 739.9 169.5H713V211.1H675.4V63.2H739.9ZM713 139.9H738C754.5 139.9 764 131.7 764 116C764 100.6 754.5 92.8 738 92.8H713V139.9Z" fill="#002F54"/>
<path d="M926.7 78L912.5 107.4C896.9 98.3 877.2 92 865.2 92C855.5 92 848.9 95.6 848.9 102.8C848.9 128.4 927.1 113.8 927.1 167.2C927.1 196.8 900.9 212.4 867.9 212.4C843.2 212.4 817.8 203.1 800.3 188.7L814.9 159.8C830.1 173.1 852.9 182 868.4 182C880.2 182 887.6 177.6 887.6 169.1C887.6 142.9 809.4 158.5 809.4 106.1C809.4 78.8 832.9 61.5 868.4 61.5C889.7 61.5 911.5 68.1 926.7 78Z" fill="#002F54"/>
<path d="M634.2 245.5L627 261.3C613.7 252.4 598.1 248.8 586.2 248.8C567.2 248.8 554.7 256 554.7 268.5C554.7 306.5 638 286.7 637.7 340.3C637.7 365 615.9 380.9 584.2 380.9C562.6 380.9 541.5 371.6 527.6 358.3L535.2 343.1C548.9 356.4 567.7 364 584.4 364C605.7 364 619.1 355.3 619.1 341.2C619.3 302.3 536.1 323 536.1 270C536.1 246.8 556.6 231.8 587.2 231.8C604.4 231.8 621.9 237.3 634.2 245.5Z" fill="#009FD6"/>
<path d="M846.5 311.7V380.4H830V316.2C830 296.3 818.4 284.7 799.1 284.7C776.1 285.3 762.8 301.8 762.8 325.7V380.4H746.1V316.2C746.1 296.3 734.7 284.7 715.2 284.7C692.4 285.3 678.6 301.8 678.6 325.7V380.4H662.3V269H678.6V294.1C686 276.8 701 268.5 721.1 268.3C742 268.3 756.4 279.1 761 297.5C768 277.8 783.6 268.6 805 268.3C831.1 268.3 846.5 284.8 846.5 311.7Z" fill="#009FD6"/>
<path d="M894.3 237.1C894.3 243.6 889.7 248.5 883.5 248.5C877.3 248.5 872.7 243.6 872.7 237.1C872.7 230.5 877.3 225.7 883.5 225.7C889.7 225.7 894.3 230.5 894.3 237.1ZM875.5 380.3V269H891.8V380.4H875.5V380.3Z" fill="#009FD6"/>
<path d="M925.4 380.3V223.5H941.9V380.3H925.4Z" fill="#009FD6"/>
<path d="M1071.4 331.1H980.5C983.5 352.9 999.3 366.6 1020.9 366.6C1034.6 366.6 1046.7 361.7 1055.3 352.7L1064.4 362.4C1053.8 374.2 1038.2 381 1019.6 381C986.8 381 964.2 358 964.2 324.8C964.2 291.6 987 268.6 1019.3 268.6C1055.3 268.3 1073.1 293.3 1071.4 331.1ZM1056.6 317.6C1055.5 296.3 1041.2 282.7 1019.4 282.7C998.3 282.7 983.1 296.4 980.5 317.6H1056.6Z" fill="#009FD6"/>
<path d="M491.5 476.921H506.7L506.7 15.4208H491.5L491.5 476.921Z" fill="#002F54"/>
<path d="M913.5 469.5C891.4 469 864.9 459.6 842.8 436.4C837.3 430.6 832.9 423.3 828 416.6C826.6 414.7 825.8 412.5 827.8 410.4C829.8 408.3 831.3 410 832.9 411.6C844.5 423.6 858.4 430.1 873.1 434.4C895.5 441 918.3 442.5 941.2 439.7C957.9 437.7 974.2 434 989.4 425.4C996.1 421.6 1002.1 416.2 1008.3 411.5C1010 410.2 1011.5 408.3 1013.5 410.5C1015.4 412.7 1014.2 414.7 1013.1 416.7C1001.6 436.6 985.9 450.1 967.2 459C952.2 466.3 936.7 469.6 913.5 469.5Z" fill="#009FD6"/>
<path d="M1012.2 397.1C1019.5 397.4 1025.6 404.8 1025.5 413.4C1025.5 415.6 1025.5 418 1023.1 418.8C1020.8 419.5 1019.4 417.8 1019.3 414.2C1019.1 408.3 1016.4 404.7 1011.8 404.7C1009.4 404.7 1007.3 404.3 1007.1 400.9C1006.9 398.4 1009 397 1012.2 397.1Z" fill="#009FD6"/>
<path d="M828.2 397.1C828.4 397.1 829 397.1 829.5 397.2C831.4 397.6 832.9 398.8 832.7 401.3C832.5 403.7 830.9 404.6 828.9 404.7C823.1 405 820.8 407.7 820.6 414.6C820.5 417 819.9 418.7 817.6 418.8C815.3 418.9 814.6 417.1 814.3 414.8C813.2 406.2 820.1 397.2 828.2 397.1Z" fill="#009FD6"/>
<path d="M270.6 152.1C270.6 176.5 270.6 201 270.6 225.4C270.6 237.9 280.7 245.6 292.8 242.5C299.9 240.7 304.5 235.2 304.9 227.8C304.9 227.6 304.9 227.4 304.9 227.3C305.2 179.9 305.9 132.5 305.7 85C305.5 40.5 275.5 22.1 244.2 16.6C231.3 14.3 218.5 14.9 205.8 18.6C177.3 26.9 159 49.6 157.8 79.2C157.2 94.1 157.4 109 157.7 123.9C158 136.8 168.5 144 180.7 140.3C188.2 138 192.4 132.1 192.3 123.5C192.1 113.6 191.3 103.8 191.2 93.9C191.1 88.5 191.6 83.1 192.4 77.8C194.5 64.1 202.2 55.5 215.9 52.5C229.2 49.6 242.3 49.7 255 55.2C265 59.6 270.4 67.1 270.4 78.3C270.6 102.9 270.6 127.5 270.6 152.1Z" fill="#009FD6"/>
<path d="M189.9 177.2C189.9 166.9 183.3 159.8 173.5 159.7C163.8 159.6 156.8 166.8 156.7 176.8C156.6 187.1 163.3 194 173.2 194.1C183.2 194.3 189.9 187.5 189.9 177.2Z" fill="#009FD6"/>
</g>
<defs>
<clipPath id="clip0_902_1320">
<rect width="1080" height="487" fill="white"/>
</clipPath>
</defs>
</svg>
