<?xml version="1.0" encoding="utf-8"?>
<!-- Generator: Adobe Illustrator 22.0.1, SVG Export Plug-In . SVG Version: 6.00 Build 0)  -->
<svg version="1.1" id="Capa_1" xmlns="http://www.w3.org/2000/svg" xmlns:xlink="http://www.w3.org/1999/xlink" x="0px" y="0px"
	 viewBox="0 0 148 83" style="enable-background:new 0 0 148 83;" xml:space="preserve">
<style type="text/css">
	.st0{fill:#00DAB4;}
	.st1{fill:#FFFFFF;}
	.st2{fill:#FAFAFA;}
</style>
<g>
	<g>
		<path class="st0" d="M80.7,20.8c0,3.3,0,6.6,0,9.9c0,1.7,1.4,2.7,3,2.3c1-0.2,1.6-1,1.6-2c0,0,0,0,0-0.1c0-6.4,0.1-12.8,0.1-19.2
			c0-6-4.1-8.5-8.3-9.2c-1.7-0.3-3.5-0.2-5.2,0.3C68.2,3.9,65.7,7,65.5,11c-0.1,2-0.1,4,0,6c0,1.7,1.5,2.7,3.1,2.2
			c1-0.3,1.6-1.1,1.6-2.3c0-1.3-0.1-2.7-0.1-4c0-0.7,0.1-1.5,0.2-2.2c0.3-1.9,1.3-3,3.2-3.4C75.2,7,76.9,7,78.6,7.7
			c1.3,0.6,2.1,1.6,2.1,3.1C80.7,14.2,80.7,17.5,80.7,20.8z"/>
		<path class="st1" d="M70.2,41.6c0-3,0-6.1,0-9.1c0-1.8-1.6-2.9-3.3-2.2c-0.7,0.3-1.2,0.8-1.3,1.6c0,0.3-0.1,0.6-0.1,0.9
			c-0.1,5.3-0.1,10.6-0.1,15.9c0,1.1,0.1,2.3,0.3,3.4c0.2,1.6,1,3,2.2,4.2c3.7,3.6,10.4,4.1,14.5,0.9c1.9-1.5,2.9-3.4,3.1-5.8
			c0.1-1.5,0.1-2.9,0.1-4.4c0-1.5-0.9-2.5-2.3-2.5c-1.5,0-2.4,1-2.4,2.5c0,1,0.1,1.9,0.1,2.9c-0.1,2.6-1.2,4-3.8,4.5
			c-1.7,0.3-3.3,0.2-4.8-0.6c-1.3-0.7-2.1-1.8-2.1-3.3C70.2,47.6,70.2,44.6,70.2,41.6z"/>
		<path class="st0" d="M92.9,26.6c0.9,0,1.9,0,2.8,0c2.8,0,4.3,1.3,4.7,4.1c0.2,1.4,0.1,2.8-0.4,4.1c-0.6,1.5-1.6,2.4-3.2,2.4
			c-2.3,0-4.6,0-6.9,0c-1.2,0-2,0.6-2.3,1.8c-0.3,1.5,0.7,2.8,2.2,2.8c2,0.1,4,0.2,6,0.1c6.1-0.1,10.2-5,9.4-11.1
			c-0.3-2.1-0.9-4-2.1-5.7c-1.5-2-3.5-3.1-6-3.2c-2.7-0.1-5.4-0.1-8.1,0c-1.3,0-2.1,1-2.1,2.4c0,1.3,0.8,2.2,2.2,2.3
			C90.3,26.6,91.6,26.6,92.9,26.6C92.9,26.6,92.9,26.6,92.9,26.6z"/>
		<path class="st1" d="M57.9,26.5c1.2,0,2.3,0,3.5,0c1.5,0,2.4-0.9,2.4-2.3c0-1.4-0.9-2.3-2.4-2.4c-2.1-0.1-4.1-0.2-6.2-0.1
			c-6.5,0.1-10.8,5.2-9.8,11.6c0.3,2.2,1,4.1,2.5,5.8c1.7,2,4,2.7,6.5,2.7c2.2,0.1,4.4,0,6.6-0.1c1.2,0,2-1.1,2-2.4
			c0-1.3-0.8-2.2-2.1-2.2c-1.9,0-3.8,0-5.7,0c-3.3,0-4.9-1.4-5.1-4.7c-0.1-0.9,0.1-1.9,0.3-2.7c0.6-2.2,2-3.2,4.3-3.2
			C55.7,26.5,56.8,26.5,57.9,26.5z"/>
		<path class="st0" d="M80.7,39.5c0,1.4,0.9,2.3,2.2,2.3c1.3,0,2.3-0.9,2.3-2.3c0-1.4-0.9-2.4-2.3-2.4
			C81.6,37.2,80.7,38.1,80.7,39.5z"/>
		<path class="st1" d="M70.1,24.2c0-1.4-0.9-2.3-2.2-2.4c-1.3,0-2.3,1-2.3,2.3c0,1.4,0.9,2.3,2.2,2.3C69.2,26.5,70.1,25.6,70.1,24.2
			z"/>
	</g>
	<g>
		<path class="st1" d="M33.2,73.5v5.2c-1.4,1.1-3.6,1.8-5.5,1.8c-4.2,0-7.5-3.1-7.5-7.2s3.3-7.2,7.6-7.2c2,0,4.1,0.8,5.5,2L32,70
			c-1.1-1-2.6-1.6-4.1-1.6c-2.9,0-5.2,2.2-5.2,5c0,2.8,2.3,5.1,5.2,5.1c1.1,0,2.3-0.4,3.3-1v-4H33.2z"/>
		<path class="st1" d="M42.3,76.2c-0.2,0-0.4,0-0.6,0h-3.4v4.3h-2.4V66.3h5.8c3.6,0,5.7,1.8,5.7,4.8c0,2.3-1.1,3.9-2.9,4.6l3.2,4.7
			h-2.7L42.3,76.2z M41.7,74.1c2.2,0,3.4-0.9,3.4-2.9c0-1.9-1.3-2.8-3.4-2.8h-3.4v5.6H41.7z"/>
		<path class="st1" d="M61.9,74.6c0,3.7-2.3,6-6.2,6s-6.2-2.3-6.2-6v-8.3h2.4v8.3c0,2.4,1.5,3.8,3.8,3.8c2.3,0,3.8-1.4,3.8-3.8v-8.3
			h2.4V74.6z"/>
		<path class="st1" d="M70.3,66.3c3.6,0,5.6,1.8,5.6,4.8c0,3.2-2,5.1-5.6,5.1H67v4.3h-2.4V66.3H70.3z M67,74.1h3.2
			c2.2,0,3.4-0.9,3.4-2.9c0-1.9-1.2-2.8-3.4-2.8H67V74.1z"/>
		<path class="st1" d="M91.4,73.4c0,4.1-3.3,7.2-7.5,7.2c-4.2,0-7.5-3.1-7.5-7.2c0-4.1,3.3-7.2,7.5-7.2
			C88.1,66.3,91.4,69.4,91.4,73.4z M78.8,73.4c0,2.8,2.3,5.1,5.1,5.1c2.8,0,5.1-2.2,5.1-5.1c0-2.8-2.3-5-5.1-5
			C81.1,68.4,78.8,70.6,78.8,73.4z"/>
		<path class="st1" d="M99.6,67.9v4.7h7.2v1.6h-7.2V79h8.3v1.5H98V66.3h9.6v1.6H99.6z"/>
		<path class="st1" d="M115.8,66.3c3.5,0,5.5,1.7,5.5,4.8c0,3.1-2,4.9-5.5,4.9h-3.7v4.5h-1.6V66.3H115.8z M112.1,74.5h3.7
			c2.6,0,4-1.1,4-3.3c0-2.1-1.5-3.2-4-3.2h-3.7V74.5z"/>
		<path class="st1" d="M132,67.6l-0.7,1.5c-1.3-0.9-2.8-1.2-3.9-1.2c-1.8,0-3,0.7-3,1.9c0,3.7,8,1.7,8,6.9c0,2.4-2.1,3.9-5.1,3.9
			c-2.1,0-4.1-0.9-5.4-2.2l0.7-1.5c1.3,1.3,3.1,2,4.7,2c2,0,3.3-0.8,3.3-2.2c0-3.7-8-1.7-8-6.8c0-2.2,2-3.7,4.9-3.7
			C129.2,66.3,130.9,66.8,132,67.6z"/>
	</g>
	<path class="st2" d="M86.4,60.6c-0.1-0.1-0.3-0.3-0.4-0.4C86.3,60.1,86.5,60.2,86.4,60.6z"/>
</g>
</svg>
