<?xml version="1.0" encoding="utf-8"?>
<!-- Generator: Adobe Illustrator 22.0.1, SVG Export Plug-In . SVG Version: 6.00 Build 0)  -->
<svg version="1.1" xmlns="http://www.w3.org/2000/svg" xmlns:xlink="http://www.w3.org/1999/xlink" x="0px" y="0px"
	 viewBox="0 0 4877 2891.5" style="enable-background:new 0 0 4877 2891.5;" xml:space="preserve">
<style type="text/css">
	.st0{display:none;}
	.st1{display:inline;}
	.st2{display:inline;fill:url(#SVGID_1_);}
	.st3{display:inline;fill:#8E1D7E;}
	.st4{display:inline;fill:#002857;}
	.st5{display:inline;fill:url(#SVGID_2_);}
	.st6{fill:#EFF5F9;stroke:#002857;stroke-width:2.8346;stroke-miterlimit:10;}
	.st7{fill:#EFF5F9;stroke:#002857;stroke-width:8.5039;stroke-miterlimit:10;}
	.st8{fill:#8E1D7E;stroke:#002857;stroke-width:14.1732;stroke-miterlimit:10;}
	.st9{fill:#FFFFFF;}
	.st10{fill:#002857;}
</style>
<g id="machete" class="st0">
	<g class="st1">
		
			<image style="overflow:visible;" width="207" height="53" id="s1zEYC_2_" xlink:href="52A680CABAC678E3.png"  transform="matrix(7.6549 0 0 7.6549 -1808.619 68.1984)">
		</image>
	</g>
	<linearGradient id="SVGID_1_" gradientUnits="userSpaceOnUse" x1="-1846.7142" y1="755.5714" x2="-180.0476" y2="755.5714">
		<stop  offset="0" style="stop-color:#C39E33"/>
		<stop  offset="0.5259" style="stop-color:#FAF8D1"/>
		<stop  offset="0.9947" style="stop-color:#DEC75D"/>
	</linearGradient>
	<rect x="-1846.7" y="650.8" class="st2" width="1666.7" height="209.5"/>
	<rect x="-703.9" y="1031.8" class="st3" width="495.2" height="390.5"/>
	<rect x="-1346.7" y="1027" class="st4" width="495.2" height="390.5"/>
	<linearGradient id="SVGID_2_" gradientUnits="userSpaceOnUse" x1="-1027.6666" y1="1817.4762" x2="-532.4286" y2="1817.4762">
		<stop  offset="0" style="stop-color:#C39E33"/>
		<stop  offset="0.5259" style="stop-color:#FAF8D1"/>
		<stop  offset="0.9947" style="stop-color:#DEC75D"/>
	</linearGradient>
	<rect x="-1027.7" y="1622.2" class="st5" width="495.2" height="390.5"/>
</g>
<g id="Capa_3">
	<path class="st6" d="M168.7,1193.4c31.2-23.9,102.9-36,136.5-56.3c58.7-24.3,168.9-193.6,202.9-79c-17.8,38.5,71.7,51,40.1,79.8
		c-0.8,19,22.3,32.8,15,51c-34.4,20.7-27.5,69.3-45.4,101.2c11.3,58.3,48.2-12.2,49.4,46.2c0.4,30.4-16.6,21.5-12.1,38.1
		c-45.8,34,15.8,79.4-6.9,102.5c-38.1,21.9-111.4-15-102.5,23.1c2.8,19.8,28.3,36.4,38.1,52.2c14.2,24.3,25.1,85-22.3,65.2
		c-79.8,5.3-12.6,48.2-59.1,38.5c-39.7-15.8-61.2-39.3-64-85.9c-73.7-53.1-38.1-27.1-74.5-91.1c-101.2-25.1-80.2,61.2-136.1-62.8
		c-38.1-32.4-26.7-65.2,7.7-93.5C172.3,1280.1,112.4,1229.1,168.7,1193.4z"/>
	<path class="st6" d="M702.4,827.3c40.1-29.6,94.4-72.5,114.2-119.5c4.9-10.9,24.7-3.6,33.6-10.9c8.5-2.8,24.7-19,30-6.1
		c23.9-91.1,50.2,80.2,142.1-55.1c9.7-5.7,24.3-11.7,15-25.1c24.7,9.3,124.3-27.9,79-51.4c-3.2-2.4-14.6-10.5-7.7-14.2
		c29.6,6.1,56.7-13.4,82.6-21.9c10.1,1.2,73.3-4.9,81.8-8.5c17.8-37.3,19,12.1-12.2,34c-10.5,36.4-52.2,54.7-7.7,79.8
		c17,12.6,2.8,36-15.8,36c-61.6,39.3,5.7,12.6-25.1,40.5c23.5,19.8,74.1,72.5,20.2,76.5c-2.4,31.2-43.3,47.4-19.4,77.8
		c6.9,13.8,4.9,34.8-13,17.8c-37.7,3.6,26.7,22.7,8.9,42.5c-26.7,21.9-28.3,57.9-68.8,66.4c-1.2,16.2,2.4,10.1-11.3,24.7
		c6.5,16.6-9.7,34.4-4,48.2c25.5-9.7-2.8,34,9.7,40.5c21.9-9.3,52.6-2.8,59.5,22.3c11.7-1.2,21.9,5.7,33.6,5.7
		c4.5,5.3,3.2,14.6,13,13.4c54.7-2.8,29.6,65.6,37.3,98c9.7,47.8-31.2,70.1-67.2,89.5c-39.3-0.4-103.3,129.6-129.2,57.1
		c8.1-108.9-107.7-35.6-25.5-178.6c-2-6.5-10.1-8.1-14.2-13c-136.5-44.5,12.2-89.5-35.6-115.4c-43.3-18.2-31.2-95.2-41.7-129.6
		c-49.8-18.6-91.5-29.6-83-92.7C840.1,822.9,752.6,799.8,702.4,827.3z"/>
	<path class="st6" d="M3426.6,1460.1c-21.9,10.9-19,40.5-25.9,58.7c-35.2,6.9-0.4,18.6,10.1,29.2c-19.4,21.5-29.6,19-2.8,25.5
		c-32.8,54.3-42.9,49.8-89.5,19.4c-15,19.9-5.7,59.1-14.2,80.2c-39.7,33.6,4.9,30.4-39.7,58.7c125.5,100.8-82.6,64.4-106.1,124.7
		c-55.9,6.9-42.5,103.7-105.3,121.5c-41.7-0.8-27.1,52.6-69.7,49.8c-1.2-28.8-33.2-34.8-38.1-59.1c4.9-21.1-24.3-73.7-42.1-49.8
		c-21.1-3.2-55.5-18.6-77.4-17.4c-20.6,57.5-48.6-10.9-84.6,26.3c-8.5,20.2-0.8,30.8-32.8,26.7c-6.9-2.4-20.2-22.7-24.7-27.9
		c-9.7-6.5-36.4-12.1-40.1-25.1c-2.8-26.7-27.1-70.9-58.7-57.1c-81,52.6-55.9-95.6-150.6-53.5c-69.7,35.6-47,48.2-137.7,33.2
		c-26.3-47.8-90.7-65.6-140.1-75.3c-21.5-42.5-18.2,3.2-77.3-30.4c-1.6-29.6-15.4-62-26.3-88.7c0.8-24.3,9.3-33.2-11.7-53.5
		c-15.4-23.5-51-34-67.6-54.7c-22.7-66.8-87.9-163.2-45.4-222.7c-25.9-22.7-94.4-50.2-45-87.5c86.7,1.2,81.4-106.9,82.2-167.7
		c7.7-11.7,32.4-9.3,34.4-25.9l36.4-8.1c39.3,47,89.9,15.4,102.5-34c79.4-24.3,108.5-76.1,179.8,7.3c68,10.5,124.3-102.5,186.7-40.5
		c40.9,13.4,63.6-27.9,110.2-10.1c-1.2-6.1,45.4-26.3,48.6-29.6l47.8-47c8.1-7.7,20.2-50.2,38.9-35.6c18.2,17.4,61.1-16.2,57.5-37.7
		c111.4-38.1,197.2,115.4,306.6,134.9C3316.8,1176.6,3477.2,1070.1,3426.6,1460.1z"/>
	<path class="st6" d="M1371.8,1991.6c-3.2-48.2,51-41.7,80.6-57.5c36.5-24.7-4-32,65.2-51c16.6-32.8-37.3-4.4-25.5-88.7
		c19.4-23.5,16.6,28.3,54.3-34c24.3-33.2-22.7-28.4-13-45.4c13-28.3-45.4-31.6-44.1-74.9c19-18.2,56.7-49,49-79.8
		c23.9-17.8,48.2,45.4,63.2-21.5c-5.7-32.8,6.5-4.9,8.1-23.5c103.3-44.1-7.3-121.1,82.6-148.6c-58.7-55.9,23.5-62,18.6-123.5
		c40.9-32.8,106.9-4.5,155.1-3.6c-4.1,32.4,74.1,47.4,56.7,67.6c-23.9,32,33.2,232.9,85.5,237.7c25.1,24.3,59.9,47.8,46.6,86.7
		c12.6,23.1,17,52.7,26.7,77.4c-2.8,27.5-70.5,57.1-85,81c4.9,57.9-98.8,94.8-66.8,136.5c10.1,12.2-7.7,27.9-20.6,25.5
		c-113.4-9.3,77.8,79-4,138.5c-15,16.6-47.8-11.3-36.9,13.8c-9.7,273.4-121.5,40.1-115,151.5c4,17,27.5,35.6,9.3,52.7
		c-16.6,45-0.4,30.4-49.8,13.4c-32.4,10.9-75.7-4.1-107.3-10.9c-29.6,10.5-72.5-13-52.7-48.6c-9.3-0.8-20.2-0.8-29.2-4.5
		c-51.4-15.4-12.6,85.5-43.3,74.5c-17.4-8.9-41.3-30.4-57.5-40.5c-92.7,9.7-87.5-86.3-46.6-140.1
		C1397,2117.6,1375.9,2027.7,1371.8,1991.6z"/>
	<g>
		<path class="st7" d="M1105,2151.7c-10.1-0.8-39.8,16.4-49,20.7c-13.7-35.8-48.1-65.6-65.4-99.4c-41.1-5.7-115.5,27.9-86.9-43.1
			c-0.9-10.9-22.5-26-15.1-34.6c26.6-27.4,79.4-63.8,96.6-98.3c17.4-20.4,43.5-42.3,72.3-36.6c15.9-27.6-5.8-21.9,30.3-40.4
			c29.2-29.3,3.2-66.3,21.5-69.1c25.1,14.1,54.3-19.9,73.5-31.9c25.9,37.7,80.8,45.9,122.7,59.4c31-11.5,37.8-26.7,50.4,15.4
			c-0.4,19.7,9.8,39.1-9.7,53.2c-44.1,10.9-90.5,31-138,29.2c-9.9,0.6-4.2,17.5-3.9,23.1c64.7,24.4,21.8,29.6,34.9,50.3
			c34.8,9.8,79,31.1,71.4,74.2c97.5-106.4,83.1,141.3,33.3,174.5c-34.4,1-26.8-22-80.1-9.2c-26.2-14-39.1-32.7-53.4-56.5
			c-26.9-1.8-22.7,32-56.4,18C1123.2,2148.9,1142.1,2173.1,1105,2151.7z"/>
		<path class="st7" d="M1210.8,2542c33.5-10.4,119.1-53.9,54.1-85.7c-56.4,22-20.5-61.4-9.5-83.3c-8.4-53.6,27.6-74,17.4-98
			c21.8-77.8,45.1-41.5-9.1-86c19.3-4.2,48.6-6.9,63.4,9.2c43.6-4.2-18.3,64.4,52.7,89.7c38.1-1,65.1,22.6,95.3,43.5
			c27.4-2.5,52.8,26.8,42.7,56.7c19.5,52.1,76.6,90.7,51.3,152.3c-28.5,28.2-17.8-14.4-55.6-0.7c-20.5-18.2-43.2,11.3-33.2,34
			c-7,8.2-67.4,15.9-66.3,0.9c3.7-1.4,14,3.2,11.2-4.9c-47.1-24.8-73.6,25-49-27.9c-30.7-1.5,11-74.7-35-36.5
			c-11.6,6-3.2,23.2-0.5,31.9c-9.3,25.7-40.7,49.3-68.7,40.3c-8.4-10.5-37.9-10.4-34.4-27.2
			C1230.8,2545.8,1218.4,2546.8,1210.8,2542z M1368.6,2635.5c12.1,24.2-22.1,42.7-40.6,27.4
			C1325.5,2630,1327.2,2635.5,1368.6,2635.5z M1363,2572.3c9.2,7.7,39.6-11.9,40.2,2.4c-32,8.3,12.8,33.4-16,49.4
			c-14.8-7.5-62-10.9-50.9-35.9C1342.3,2579.4,1350.5,2562.5,1363,2572.3z"/>
		<path class="st7" d="M16.1,1731.8c-23.4,0.5-16-49.1,0.7-55.6c31.4-9.9,53.8-50.4,77.8-73.5c23.5-19.9,63.9,26.8,70.3-20.1
			c3-13-6.4-48.3-0.1-60.1c9.5-6.6,13-21.1,7.5-31.2c30.6-10.5,87.7-27.5,106.2,8.8c-4.5,48.3,79,58.1,66.8,106
			c8.1,29.5,49.8,59.4,78.8,51.4c-16.4-32.5,32-40.5,54.5-33.7c59.5-15.9,9.8,64.7,5.6,87.7c-19.4,26.4-86-5.5-49.6,41.3
			c-37.8,7.1-31.3-22.5-50.8-15.4c5.1,58.6-102.8,46.8-74.7,110.1c1.2,11.6,2,36.1,0.8,47.7c-8.5-36.3-47.5-51.1-49-91.5
			c-18.7-14.8-56.3,2.6-44.3-33.2c-11-49.5-35.2-11.2-50.2,11C117.7,1766.6,67.6,1738.5,16.1,1731.8z"/>
		<path class="st7" d="M679.8,2184.5c15.2-15.3-0.1-36.5-4.3-53c1.1-13.7,9.2-29.2,0-41.7c30.9-41.4,116.6-55.3,133.8-105
			c18.3-15-0.3-51.1,2.1-71.1c10.3-39.6-32.1-29.4-54.9-37.8c-44.8-22.2,6.5-18.3-18.6-92.4c-29.1-16.8-71.9-42.9-59.3-86.6
			c76.5-31.9,106.6,8.6,137.3-94.3c-17.7-109.3-40.3-42.6,124.5-69c22.5,5.6,50.4,12.7,69-5c8.4,21.4,36.7,20.8,55.3,26.9
			c48,15.4,29.5,60.5,74.4,77.8c8.9,4.6,8.9,14.4,7.2,23.2c11.7,12.5,41.7,41.1,39.7,59.5c-27.6,26-50.9,37.6-82.9,39.5
			c0.5,26.5,0.8,64.8-32.1,73.5c-13.7,27.2-7.6,35.8-46.3,32.7c-46.1,40.7-90.1,97.4-138.1,135.9c15.3,22.1,19.8,50.7,9.5,74.3
			c-23-8.9-25.9,19.4-10.4,29.6c3.4,24.2-18.4,5.3-28.7,22.9c-6.3,19.1-22.5,17.9-38.4,22.9c-4.3,14.6-11.6,6.3-22.9,5
			c-13.7-2.9-2.1,19.3-14.7,14.7C747.2,2148.3,712.7,2186.7,679.8,2184.5z"/>
		<path class="st7" d="M4872.5,1260.2c-13.1-3.6-149,29.6-111.4-4.9c-36.9-6.9-55.5,7.2-81.9-14.7c-17.5-22.1-14.9,32.8-63.6,31.4
			c-15.5-7.6-15.7-30.4-39-23.5c-5.3,3.2,0.9,8.8,2.6,11.9c-5.9,4.9-5.8,15.7-5.9,22.6c-5.1-3.6-6.8-9.6-12-3.7
			c-3.9,17.4,10.1,23.4-14.6,14.7c14.5,14.6-18.2,18-25.3,30c-42,6.6-6,54.4-54.8,23.9c-83.6-5-30.7,33.2-48.8,40.4
			c-2.4-12.5-16.7-12.2-26.7-11c16.2,37.7-94,2-42.7,39.1c-29.8-6.3-46.5,30.9-69.3,10.5c13.2,27-18.2-6.8-27.2-10.5
			c-1.5,8.2-7.8,25.6,0,32.6c0,0-77.2,4.1-77.2,4.1c-18.4-1-8.7-1.9-18.9-10.1c-8.1-0.6-23.4,3.7-26.4-7.3
			c-10.2-7.1-22.4-17.5-32.2-3.8c27.9,57.6,42,27.4-47,57.1c-113.2-92.8-27.1,8.8-82,37.7c-66.6-10.4-30-0.1-58.7-39.1
			c-18.9,39.7-59.6,80.4-105.5,74.1c-21.1-25.8-36.8,10.9-23-29.5c-11-2.4-64.5,0.8-74.6-5.5c-15.8-8.2-44.5-22.7-59.7-6
			c-11.2-22.7-32.3-72.2-52.8-74.5c26.4-54-73.5-54-107.3-40.4c-169.1,296.2-33.3-891.2-74.9-949c77.8,35.6,187.3,64.2,263.9,99.4
			c-28.1,32.5-15.1,94.7,36.4,69.9c3.7-6.4-1-29,12.4-23.3c9,28,36.3,14,57.4,18.9c39.6,4.7,26.2,9.4,57.5-8.7
			c-42.4-22.9-120.6-8.6-147.7-54.6c75.8,16.6,177.9,35.4,255.3,36.7c156.5,89.6,275,276.3,451.8,329.7c11.3,12.6,4,20.1-10.9,19.9
			c-20.9-6-42.7-33.8-65.4-36.5c-6.9-19.7-85.1-8.8-54.7-30.5c-16.6-27.8-28.8-36.7-56.8-41.2c-39-38.8-47,14.5-66,4.2
			c-33.7-10.9-15.2-4.9-5.7-26.8c-58.5-17.9-9,32.2-9,50.1c-16.2,12.4-25.1-60-48-54.1c-24,7.5-31.3,6.6-55.6,1.5
			c5.5,39.1,33.8,16.7,23,45.6c0,5.2-5.4,11.3,3.7,9.7c35.9-60.4,33-50.8,63,7.7c11.8,26.9-8.8,17.6-20.4,35
			c6.7,34,33.4,67.5,69.4,71.6c12.4-4.7,1.8-23.3,0-31.4c10.3,7,21.9,18.8,23.5,31.8c-24.2,48.7,57.9,13.6,57.5,29.5
			c-58.6,8.2,26.7,70.7,56.4,43.4c52.8-16.3,12.7-28.1-13.7-43.4c-10-10.3-9.5-18.4-27.1-17.2c-32.5-5.4-140-58.8-64.6-77.3
			c19.6,10.6,82,28,85.4,55.9c21.5,19,58.2,13.5,70.3,44.2c-11.2,8.4-27.2,16.4-3.2,19c45.1-38.4,5.2,62.7,36.7,58.4
			c7.2-4.5-0.9-19.3,9.7-16.5c12.1,42.1,18.5-34.9,82.9-27.1c-2.4-52.8,35.4-22.1,69.6-19.9c6.8-2.1,21.5-4.7,8.6,7.2
			c6.1,14.7,10.9,47.4-8.5,54.4c-20.9-6-1.6-26.7-37.6-26.1c-10.5,7-42.4,65.6-8.5,44.7c-6.6-6.7-6.2-24.1,5.8-22.1
			c-0.1,47.6,25,50,48,11.6c19.9-14.8,62.7-8.8,25.1-41.5c-7.1-16.8-10.4-57.7-35.8-36.9c-13.8-8.3-32.8-23.3-48.5-10.6
			c-7.4-4.4-1.8-10.6,0-16.6c-8.1,0.3-38.5-10.8-46.4-14.2c-146.3-115.6,163.5,57.7,204.3,62C4760,1122,4688.3,1219.1,4872.5,1260.2
			z"/>
		<path class="st7" d="M2971.8,2030.9c-36.3,4.2-23.4,27.7-66.2,34.4c6.8,19.9-21.3,8.3-30.2,25.7c-11.7,10.7-28.2-3.2-35.7,6.3
			c6.1,20.7-30.1,62.7,2.7,68c9.1,12.8,0.8,32.6-10.8,41.3c-9.3-8.4-13.9-15.4-28.3-13.9c-37.8,8.1-49-25.1-64.8-51.1
			c-14-9.1-27.4-8-42.1-2.4c-23.2-12.9-61.3-58.5-88.2-71.3c-3.8-55.1,36.4-57.5-64.1-33.1c-19.4,16.5-19,45.1-49.3,51.1
			c-25.8,33.2-73.6,88.1-98.7,122.6c-4,25.8-15.5,54.3-45.7,55.6c-71,10.1-40-19.9-117.2-9.7c-29.4-26.9-86.4-5.1-120.4-0.3
			c-35.8-9.9-90.9-2.2-85.3,45.9c-42.2,17.7-79.3,50.1-125.8,37.8c1.2,46.9-59.8,49.6-65.4,88.3c-20.8,30.8-70.8,58.1-77.4,1.2
			c-36.5-15.9-49.4,7.3-64-43.2c-29.9-22-19.3-20.5-13-54.8c38.7-24.7,63.2,38.6,74-21.3c22.7-25.5-24.3-43.4-6.8-84.3
			c9.1-19.3,33.1,25,60.1,21.9c54.8-9.2,42.5-100.4,51.6-140.7c-15.5-33.2,53.5,33.4,56.9-71.6c-24-44.9-109.9-86.8,0.1-82.1
			c7.8-12.3,12.5-24.5-6.6-27.4c4.3-27,33.3-61.5,56.7-78c15.1-51.7,58.6-93.8,104.6-122.7c57,27.1,30.7,6.8,65.2,12.7
			c20.3,26.4,7.1,19.4,40.5,22.6c41.1,11.8,89.6,31.5,110.6,69.6c94.7,39.6,174.8-118,230.6,20c36.4,14.6,37.3,18,65.8-3.1
			c34.9,2,42.7,39.7,52.7,65.9c31,5.6,58.6,69.8,88.3,39.2c2.7-41.2,42.6-31.2,67.9-18.4c30.6-45.3,43.7-16.9,100.3-9.9
			c20.5-23,44.6,38.4,41,58.4C2952,2004.4,2961.8,1991.1,2971.8,2030.9z"/>
		<path class="st7" d="M2288.4,616.9c58.3,48.5,138.3-30.1,180.3-67.5c39-26.2,132.6-15.2,175.7-24.5c58.3-31.8,97.4-86-0.2-88
			c-97.7-34.4,265.3,6.5,230.9,62.6c19.9-21.8,23.9-6.5,44.9,10.9c159.8,76.4,289.3,51.6,432.7-52.2c0,0,59.3-1.4,59.3-1.4
			c-33-20.2,66.1,944.7-46.6,690.1c-123.3-96.1-126.6-19.7-235-197.6c-14.2-20.9-90.3-46.8-113.2-55.4
			c-32.1-30.4-101.9-87.8-143-103.5c-17.7-9.4-29.2,9.9-44.7,1.1c-24.7-20.4-28.5,7.5-39.2,22c-18.7,18.7-36.8,28.3-60.4,14.1
			c-19,19.7-51.2,67.4-75.6,84.9c-21,8.5-51.6,37.5-73,24.3c-46.6,16.8-90.7,24.4-132.5-10.6c-8.3-13.5,5.8-110.5-15.6-88.3
			c-42.3-30-98.4-3-131.3-52c43.4-24.2,54.4-18.5,42.9-75.2c-36.5-8-18.6-16.4-40.4-38.5C2283.2,658.7,2277.8,632.9,2288.4,616.9z"
			/>
		<path class="st7" d="M2058,2652.9c-28.9,20-68-44.5-101.6-9.2c-26,20-71,56.9-49.1,93.3c4.9,9-15.1,50.4,4.1,54.1
			c-25.3,33.2-64.1,75.9-98.9,92.7c-12.4-36.7-294.4,37.3-173.7-34.2c-1.4-14.1-49.5,7.8-65.4-39.6c-3.9-18.7,18.6-15.4,30.3-18.3
			c18.4-7.3-69-21.6-82.2-12.8c0.8-44.4-26.6-99.2-55.5-127.1c-15.7,5-22.3-20.2-9.1-27.8c50.9-31.6,26.9-38.2,96-54.3
			c-7.1-24.4,19-21.9,24.4-49c0.9-23.7-22.7-44.8-13-69.4c-48.5-20.8-36.2-70.9-53.6-104.5c-24.3-9.4-30.5-33.4-21-56.4
			c-7.4-43.5,40.5-36,56.5-25.3c-15.4,21,8,35.4,21.5,48.9c36.6-3.5,79.1,1.3,114,15.3c-1.1,9.6-12.1,36.8-2.4,44.5
			c31.9,8.7,13.6,37.4,36.8,46.3c6.3,1.6,39.4-0.8,42.6,7.3c25.1,95.4,92.6-37.5,129.4-55.9c27.3-40.9-11.7-29.3,45.8-32.6
			c4.8,15.7,33.2-25.3,58.9-17.2c37.9-31.4,36.9-25.9,32.8,20.9c13.3,33.6,25.7,5.8,13.2,62.9c-2.9,34.6,42.7,113.1,14.4,144.8
			C2056.8,2583.8,2114.7,2616.9,2058,2652.9z"/>
		<path class="st7" d="M1009.4,1528.6c22.5-21.8-10.2-39.7,0.1-62.7c11.6-6.1,32.2-24.4,40.8-35.4c34.7-1.4,27.8-12.9,28.7-40.5
			c8.3,57.1,58.4-8.9,79.8-17.6c28.7-53.8,130-49.6,115.5-128c28.8-0.2,89.2,1.5,116-7.9c43.7-67.5,60.8,28.2,96.6,43.9
			c7.2,21.7,1,58,35.3,51.3c27.2-20.5,59.8-34.6,90.5-8.9c26-3,22.4-3.9,44.6,17.6c15.9,4.6,40.6,30.1,16.6,40.6
			c-7.5,1.7-20.8-0.9-23.4,8.8c-2.8,45.7,16.4,113.9-45.1,127.1c-1.5,5.9-1.4,14.8-8.9,7c2.4,21.1-11.4,71.7-37.1,41
			c-8.5,3.2-21.3-12.9-25.5-0.7c1.5,68.5-99.4,77.1-4.1,139.2c-3.9,30,4.7,20.9,20.5,42.7c-12.1,27.4-28.4,55.5-59.8,46.2
			c-31.1,79.5,83.8,72.6-18.5,110.4c-9.3,39.6-46.8,43.2-80.3,49c-35,55.5-40.8,31.5-81.2,71.9c7.6-49.4-39.9-60.6-74.2-77
			c-0.7-17.6,13.7-19.6-5.1-36c0,0-27-11.4-27-11.4c-0.1-6.4-6.6-23.8,5.1-23c20.2-0.9,50.3-4.8,71.4-8.1
			c16.3-2.7,29.8-20.1,46.1-15.7c46.7-4.4,32.1-56.1,17.2-85.6c-45.5,20.6-96.7-7.7-142.6-24.6c-32.3-30.5-4.6-19-20.9-44.8
			c-8.4-16-39.6-36.8-33.8-56.5c-18.5-18.5-39.9-13.9-41.1-48.3C1091.7,1547.5,1030.2,1563,1009.4,1528.6z"/>
		<path class="st7" d="M528.2,2055.3c2.7-18.1-17-24.6-31.4-24.7c-29.8-10.9,18.3-79.1-36.2-46.1c-83.7,18-47.5-116.8-140.5-68.9
			c-19.5-12.8-5.2-48.1-11-67.8c-13.7-34.3,2-27.3,19.7-56.8c82.5-20.3,34.6-55.4,64.9-54.8c8.1,14.9,25,19.5,40.8,16.8
			c-9.1-5.1-16.8-40-0.1-28.7c18,4.7,52.8-2.5,54.2-25.3c28.8-77.8,17-124.1-32.7-173.7c-49.6-84.5,120.9,5.4,96.5-68.3
			c-41.3-51.8,31.5-86.7,11.8-140.5c83.8-50.8,78.7,68.2,128.9,91.3c45.7-55.3,33-20.6,93.1-3.9c-69.4,91.7,85.5,42,13.1,133.2
			c9.4,8.4,13.9,54,16.6,65.5c-24.6,137.9-156.9,29.5-134.5,134c30.8,49.8,40,24.6,56.5,46.9c15.6,114.2-23.9,73.9,73.6,107.5
			c29.9,144.3-55.2,117.2-130.3,197.6C666.6,2068.6,555.4,2048.5,528.2,2055.3z"/>
		<path class="st7" d="M1280.2,511.1c27.3-8.9,54.2,27.9,79.9,27.1c-16.4-20.1,11.6-27.9,27.2-38.8c-4.1,9.7-30.4,31-13.5,38.8
			c28,22.5,89,108.4,130.4,73c7.7-20.3,20.9-18.6,39.5-16.8c12.8-16.8,7.9-25.2,36-25.9c140.8,22.7,316.1,121.9,448.8,35.6
			c58.8,50.5,273.2-55.9,257.1,45.9c16.8,17.4,28.5,50.2,51.3,58.3c31.1,33.5,5.4,62.1-35.2,77.4c-56.9-18.6-118.8-1.9-177.4-15.9
			c-41.9,11.5-80.3,48.7-126.6,42.1c-58.6-19.1-67.7,0.7-126.8-1c-12.3-2.9-35.6,21.3-43.7,28.3c-22.8,26-119.2,76.2-152.6,72.7
			c-37.4-4.1-86.7-34.8-118.8-11.4c-57.6,0.8-29.3-83.2-73.6-79.1c-29.4,20.4-74.1,24.4-109.4,27.8
			c-85.6-50.9-18.6-123.7-138.8-175.7c57.4-16.8-6.6-40.8-5.7-67.3c13.9-16.1,26.4-35.7,33.8-55.5
			C1278.6,537.4,1286.3,534,1280.2,511.1z"/>
		<path class="st7" d="M1233.9,673.6c61.4,31.1,87.6,68.7,95.4,135.9c32,59.1,105.1,38.5,152.8,12c35.4-8.7,21,38.5,35.8,55.9
			c22.7,43,58.2-2.1,85.5,20.2c84.1,29.4,129.6-1.5,203.5-37.8c35.4-56.2,99.5-45.3,155-63c12.8,26.8,53.7,14.4,77,11.1
			c46.5-16.3,83.4-55.7,135.8-29.5c55,2.8,122.6-18.7,159.1,37.1c20.4,14.5,67.4-6.9,86.4,16.2c4.1,1.4,10.4,6.7,13.6,5
			c22.3-14.8,6.3,48.7,8.4,57.3c20.9,32-13.3,49.7-38.6,60.9c-156.8,111.8-72-83.7-271.7,29.9c-42,109.3-70,22-138.4,42
			c-6.6,23.6-38.7,8.8-37.2,43.3c9.3,52-0.3,112.6-45.4,144c-31.1,11.3-36.2-5.1-51.9,30.8c-31.6-8.3-72-2.4-103.1-13
			c-14,1.9-55.6,2.4-50.7,25c0.4,32.9-35,53.9-48.1,83.5c-17.5-20.2-23.4-20.3-44.6-17.6c-45.9-44.1-77.3,26-116.5,2.5
			c-2.1-62.9-30.2-38.6-42.5-85.9c-20.8-34.5-41.2-36.1-63.3-2.9c-40.8,6.2-143.2,32.1-117.2-39.5c14.4-18.6-17.7-59.1-39.9-50.4
			c-13.9-26-39.4-6.9-47.1-29.4c-12.3-16.5-36.4-18.8-54.4-11.3c-10-3.9,5.8-32,0-41.5c-6.3-2.3-9.3,6.1-13.1-4.6
			c15.3-53.7,8-57.5,56.4-90.4c14.9-29.5,55.4-56.8,8-77.2c10.9-23.6,29.9,20,30.6-14.2c-26.7-33.3,7.2-54.3,15.3-88
			c4.4,1.4,19,6.2,17.1-2.8c19.6-36-18.7-48.6-37.3-73.4C1239.6,685.7,1172.7,712.6,1233.9,673.6z"/>
		<path class="st7" d="M473.4,1014.9C573,959.7,666,807.8,789.3,826.6c61.5,21.8,94.7,9.9,96,85.3c119.7,67.2,58.6,57.3,102.7,161.4
			c60.7,22.8-0.2,40.5-8.9,78.6c76.3,102.6,87.3-13.7,44.4,148.8c16.8,31.7,60.7,10.8,55.4,89.4c0.8,67.6-5.7,8.6-56.7,68.2
			c-39.1,13.7,13.5,47.1-12.9,70.4c-59.7,19.7-144,7.9-210,8.5c52-76.3-6.1-41.5-30.7-90.1c-14.4-20.7,55.1-53.5-19.3-52.4
			c-7.1-14.4-24.1-28.4-35.8-10.2c-57.5,79.4-49.2-98.8-115.7-79.6c-167.8,66.8-7.4-103.9-43.5-139.8c-15.9-32.7,26.7-31.5-17-49.6
			c-10.6-14-37.5-29.6-28.2-49.9C511.3,1057,476.4,1022,473.4,1014.9z"/>
		<path class="st7" d="M1795.8,369c18.3,42.2-51,31.2-76.7,57.2C1647.7,395.7,1760.7,370.4,1795.8,369z"/>
		<path class="st7" d="M2041.5,220.7c21.8-95.6,341.9-167.7,365-129.3c-114.3-2.4-204.8,72.8-312.3,103.2
			C2080,203.4,2047,254.7,2041.5,220.7z"/>
		<path class="st7" d="M2668.9,54.1c36.9-94.8,126.4-22.5,60.7-20.5c-11.1,36.2-64.9,49.3-92.8,75.9
			C2631,92.2,2652.1,60.6,2668.9,54.1z"/>
	</g>
</g>
<g id="reglas">
</g>
<g id="Capa_5">
	<path id="_x31__1_" class="st8" d="M3406.7,1468.7c-21.6,10.7-19,40.1-25.9,58.5c-34.9,6.9-0.5,18.6,10,28.9
		c-19.3,21.5-29.5,18.8-2.7,25.2c-32.8,53.8-42.7,49.6-89,19.4c-14.9,19.7-5.7,58.7-14,79.9c-39.5,33.5,4.9,30.4-39.4,58.3
		c124.7,100.4-82.2,64.2-105.5,124c-55.8,7-42.4,103-104.6,120.9c-41.3-0.9-27,52.3-69.1,49.5c-1.4-28.5-33.2-34.6-37.7-58.6
		c5-20.9-24.2-73.5-42-49.6c-21-3.3-55.2-18.5-77-17.3c-20.7,57.2-48.2-10.7-84.1,26.1c-8.4,20-0.7,30.7-32.6,26.4
		c-6.8-2.6-20-22.4-24.5-28c-9.7-6.6-36.3-12.1-39.8-25.2c-2.9-26.6-26.8-70.5-58.4-56.6c-80.5,52.3-55.5-95.1-150-53
		c-69.1,35.3-46.6,47.9-137,33c-26.3-47.7-90.3-65.1-139.3-74.8c-21.3-42.2-18.1,3.3-77-30.1c-1.4-29.3-15.2-61.5-26-88.1
		c0.6-24.1,9.2-33.2-11.7-53.1c-15.2-23.5-50.7-33.7-67.1-54.2c-22.7-66.5-87.5-162.2-45.2-221.6c-25.7-22.4-93.7-50-44.8-86.9
		c86.2,1.4,80.8-106.3,81.7-166.7c7.6-11.5,32.2-9.1,34-25.7c0,0,36.4-8,36.4-8c39,46.5,89.5,15.2,102-34
		c79.1-24.1,108-75.9,179,7.3c67.8,10.3,123.7-102,185.5-40.4c40.7,13.2,63.3-27.7,109.4-10c-1.1-6.1,45.1-26.1,48.2-29.4
		c0,0,47.5-46.7,47.5-46.7c8.2-7.8,20-50,38.7-35.5c18.2,17.5,60.8-16.1,57.3-37.6c110.7-37.8,196,114.6,305,134.1
		C3297.6,1186.7,3456.9,1080.6,3406.7,1468.7z"/>
	<path id="_x32__1_" class="st8" d="M1363.4,1995.9c-3.1-47.8,50.9-41.4,80.2-57.3c36.2-24.7-4-32,64.8-50.9
		c16.4-32.8-37.1-4.3-25.3-88.3c19.2-23.5,16.4,28,53.8-33.7c24.1-32.9-22.4-28.4-13-45c12.8-28.3-45.1-31.5-43.8-74.6
		c18.8-18.2,56.5-48.9,48.6-79.5c23.8-17.9,47.7,45.1,62.7-21.5c-5.7-32.8,6.3-5,7.9-23.5c102.7-43.9-7.4-120.3,82-147.9
		c-58.4-55.4,23.5-61.7,18.4-122.9c40.7-32.5,106.1-4.5,154.2-3.6c-3.9,32.1,73.8,47,56.3,67.4c-23.7,31.8,33.1,231.7,85,236.5
		c25.1,24.3,59.4,47.5,46.2,86.3c12.4,22.9,16.8,52.2,26.5,76.8c-2.9,27.4-70.2,56.8-84.5,80.7c4.7,57.7-98.3,94.2-66.6,135.6
		c10.1,12-7.6,27.9-20.6,25.6c-112.8-9.2,77.4,78.6-4,137.7c-14.8,16.6-47.5-11.3-36.6,13.6c-9.8,271.7-120.9,39.7-114.4,150.8
		c4,17,27.3,35.5,9.4,52.3c-16.5,44.5-0.3,30.4-49.4,13.3c-32.1,11-75.5-4.2-106.9-11c-29.4,10.6-72.3-12.9-52.5-48.4
		c-9.3-0.6-20-0.8-29.1-4.4c-51.1-15.2-12.6,85.1-43.1,74c-17.3-9-41-30.1-57-40.3c-92.4,9.8-86.9-86-46.5-139.5
		C1388.3,2121.4,1367.4,2031.9,1363.4,1995.9z"/>
	<path id="_x33__1_" class="st8" d="M697.6,838.5c39.7-29.5,93.6-72.1,113.4-118.9c4.8-11,24.5-3.6,33.3-10.9
		c8.3-2.9,24.5-18.8,29.8-6.1c23.6-90.7,50,79.8,141.2-54.8c9.8-5.8,24.3-11.5,15.1-25.1c24.6,9.3,123.5-27.7,78.4-51.3
		c-3.3-2.6-14.6-10.4-7.6-14.1c29.2,6.2,56.4-13.3,82-21.7c10.2,1.1,73.1-5,81.2-8.6c17.8-36.9,18.8,11.9-12,33.8
		c-10.6,36.3-51.8,54.2-7.8,79.2c17,12.6,2.9,35.7-15.8,35.9c-61.1,38.9,5.7,12.3-25.1,40.1c23.5,19.6,73.6,71.9,20.2,76.2
		c-2.3,31.1-43.2,47.2-19.3,77.3c6.7,13.7,4.7,34.8-12.9,17.8c-37.7,3.4,26.6,22.6,8.8,42.4c-26.7,21.7-28.1,57.5-68.5,66
		c-1.2,16.3,2.4,10.3-11.1,24.5c6.4,16.3-9.6,34.1-3.9,47.9c25.4-9.8-2.6,34,9.7,40.1c21.7-9.4,52.4-2.8,59.2,22.2
		c11.9-1.3,21.9,5.5,33.4,5.7c4.3,5.3,3.3,14.6,12.8,13.4c54.2-2.9,29.3,65.4,37.1,97.3c9.5,47.4-30.8,69.6-66.9,88.9
		c-39.1-0.2-102.7,128.8-128.4,56.7c8.2-108.5-107.3-35.5-25.3-177.4c-1.8-6.5-10.1-8-14-13c-135.8-44.4,12-89.2-35.5-114.8
		c-43.3-18-31-94.8-41.3-129c-49.5-18.6-91.1-29.3-82.4-92.2C834.6,833.8,747.5,810.8,697.6,838.5z"/>
	<path id="_x34__1_" class="st8" d="M166.7,1202.5c31.1-23.9,102.2-35.8,135.6-55.9c58.3-24.3,167.8-192.4,201.8-78.5
		c-17.9,38.4,71.1,50.8,40.1,79.2c-0.9,18.9,22.3,32.7,15.1,50.6c-34.2,20.5-27.3,68.9-45.1,100.8c11.4,58.1,47.9-11.9,49.2,45.8
		c0.5,30.4-16.6,21.3-12.1,37.8c-45.4,34,15.6,79-6.9,101.8c-37.8,21.7-110.6-15-101.9,23.1c3,19.9,28.1,36.4,37.9,51.8
		c14.1,24.1,25.1,84.7-22,64.9c-79.3,5.1-12.6,47.8-58.9,38.1c-39.4-15.6-60.7-39.2-63.6-85.5c-73.1-52.9-38.1-27-74.3-90.6
		c-100.6-25.1-79.7,60.9-135.3-62.4c-37.9-32.2-26.7-64.8,7.5-92.9C170.3,1288.7,111,1237.8,166.7,1202.5z"/>
</g>
<g id="Capa_2">
	<g>
		<circle class="st9" cx="2608.1" cy="1190.8" r="59.9"/>
		<path class="st10" d="M2738.9,1190.4c0-72.3-58.7-131-131-131c-72.3,0-131,58.7-131,131c0,0-9.1,128.2,131,252.2
			C2748,1318.6,2738.9,1190.4,2738.9,1190.4z M2607.9,1245.7c-30.5,0-55.3-24.8-55.3-55.3c0-30.5,24.8-55.3,55.3-55.3
			s55.3,24.8,55.3,55.3C2663.2,1221,2638.4,1245.7,2607.9,1245.7z"/>
	</g>
	<g>
		<circle class="st9" cx="332.8" cy="1000.5" r="59.9"/>
		<path class="st10" d="M463.6,1000.1c0-72.3-58.7-131-131-131s-131,58.7-131,131c0,0-9.1,128.2,131,252.2
			C472.7,1128.3,463.6,1000.1,463.6,1000.1z M332.6,1055.4c-30.5,0-55.3-24.8-55.3-55.3c0-30.5,24.8-55.3,55.3-55.3
			c30.5,0,55.3,24.8,55.3,55.3C387.9,1030.7,363.1,1055.4,332.6,1055.4z"/>
	</g>
	<g>
		<circle class="st9" cx="1011.3" cy="517.5" r="59.9"/>
		<path class="st10" d="M1142,517.2c0-72.3-58.7-131-131-131c-72.3,0-131,58.7-131,131c0,0-9.1,128.2,131,252.2
			C1151.2,645.3,1142,517.2,1142,517.2z M1011,572.5c-30.5,0-55.3-24.8-55.3-55.3c0-30.5,24.8-55.3,55.3-55.3
			c30.5,0,55.3,24.8,55.3,55.3C1066.3,547.7,1041.5,572.5,1011,572.5z"/>
	</g>
	<g>
		<circle class="st9" cx="1663.8" cy="1657.2" r="59.9"/>
		<path class="st10" d="M1794.6,1656.9c0-72.3-58.7-131-131-131c-72.3,0-131,58.7-131,131c0,0-9.1,128.2,131,252.2
			C1803.8,1785,1794.6,1656.9,1794.6,1656.9z M1663.6,1712.2c-30.5,0-55.3-24.8-55.3-55.3c0-30.5,24.8-55.3,55.3-55.3
			c30.5,0,55.3,24.8,55.3,55.3C1718.9,1687.4,1694.1,1712.2,1663.6,1712.2z"/>
	</g>
	
		<image style="overflow:visible;" width="330" height="180" xlink:href="../../../../../../../Users/florianaelsegood/Desktop/Captura de pantalla 2022-01-05 a la(s) 20.42.14.png"  transform="matrix(14.9576 0 0 14.9576 5028.4272 75.567)">
	</image>
</g>
</svg>
