<?xml version="1.0" encoding="utf-8"?>
<!-- Generator: Adobe Illustrator 22.0.1, SVG Export Plug-In . SVG Version: 6.00 Build 0)  -->
<svg version="1.1" xmlns="http://www.w3.org/2000/svg" xmlns:xlink="http://www.w3.org/1999/xlink" x="0px" y="0px"
	 viewBox="0 0 4877 2903" style="enable-background:new 0 0 4877 2903;" xml:space="preserve">
<style type="text/css">
	.st0{fill:#F1F4FA;stroke:#002857;stroke-width:8.5039;stroke-miterlimit:10;}
	.st1{fill:#DC521C;stroke:#002857;stroke-width:14.1732;stroke-miterlimit:10;}
	.st2{fill:#FFFFFF;}
	.st3{fill:#002857;}
</style>
<g id="machete">
	<g>
		<path class="st0" d="M1800.7,373.4c18.4,42.4-51.3,31.4-77.2,57.5C1651.6,400.3,1765.4,374.9,1800.7,373.4z"/>
		<path class="st0" d="M2047.8,224.2c21.9-96.1,343.9-168.7,367.1-130.1c-114.9-2.4-206,73.2-314.1,103.8
			C2086.5,206.9,2053.3,258.4,2047.8,224.2z"/>
		<path class="st0" d="M2678.8,56.7c37.1-95.4,127.1-22.6,61-20.6c-11.1,36.4-65.3,49.6-93.3,76.3C2640.7,95,2662,63.2,2678.8,56.7z
			"/>
	</g>
</g>
<g id="Capa_1">
	<path class="st0" d="M1110.2,2161.8c-10.1-0.8-39.8,16.5-49.1,20.5c-13.7-35.8-47.9-65.6-65.2-99.4c-41-5.6-115.4,27.7-86.9-43
		c-0.8-10.9-22.5-26.1-15.3-34.6c26.5-27.4,79.2-63.5,96.5-98.1c17.3-20.5,43.4-42.2,72-36.6c15.7-27.7-5.6-21.7,30.2-40.2
		c29.4-29.4,3.2-66.4,21.3-69.2c24.9,14.1,54.3-20.1,73.2-31.8c25.7,37.8,80.9,45.9,122.7,59.5c31-11.7,37.8-26.6,50.3,15.3
		c-0.4,19.7,9.7,39-9.7,53.1c-44.2,10.9-90.5,31-138,29.4c-10.1,0.4-4,17.3-4,22.9c64.8,24.5,21.7,29.4,35,50.3
		c35,9.7,78.8,31,71.2,74c97.3-106.2,82.9,141.2,33.4,174.2c-34.2,1.2-26.9-22.1-80-9.2c-26.1-14.1-39-32.6-53.5-56.3
		c-26.9-1.6-22.5,31.8-56.3,18.1C1128.3,2159,1147.2,2183.5,1110.2,2161.8z"/>
	<path class="st0" d="M1216,2552c33.4-10.5,119.1-53.9,53.9-85.7c-56.3,22.1-20.5-61.1-9.2-83.3c-8.4-53.5,27.7-74,17.3-97.8
		c21.7-77.6,45-41.4-9.3-85.7c19.3-4,48.7-6.8,63.2,9.3c43.4-4-18.5,64.4,52.7,89.7c38.2-0.8,65.2,22.5,95.3,43.4
		c27.4-2.4,52.7,26.9,42.6,56.7c19.3,51.9,76.4,90.5,51.1,152c-28.6,28.2-17.7-14.5-55.5-0.8c-20.5-18.1-43,11.3-33,33.8
		c-6.8,8.1-67.2,16.1-66.4,0.8c3.6-1.6,14.1,3.2,11.3-4.8c-47.1-24.5-73.6,24.9-49.1-27.7c-30.6-1.6,10.9-74.8-35-36.6
		c-11.7,6-3.2,23.3-0.4,31.8c-9.2,25.7-40.6,49.1-68.8,40.2c-8.4-10.5-37.8-10.5-34.2-27.4C1235.7,2555.6,1223.3,2556.4,1216,2552z
		 M1373.3,2645.3c12.1,24.1-22.1,42.6-40.6,27.4C1330.3,2639.7,1332.3,2645.3,1373.3,2645.3z M1368.1,2582.1
		c9.2,7.6,39.4-11.7,40.2,2.4c-31.8,8.4,12.9,33.4-16.1,49.5c-14.9-7.6-61.9-10.9-50.7-35.8
		C1347.2,2589.4,1355.2,2572.5,1368.1,2582.1z"/>
	<path class="st0" d="M22.6,1742.7c-23.3,0.4-16.1-49.1,0.8-55.5c31.4-10.1,53.9-50.3,77.6-73.2c23.3-19.7,64,26.6,70-20.1
		c2.8-12.9-6.4-48.3,0-59.9c9.7-6.4,12.9-20.9,7.6-31c30.6-10.5,87.7-27.4,106.2,8.9c-4.4,48.3,78.8,57.9,66.8,105.8
		c8,29.4,49.9,59.1,78.8,51.5c-16.5-32.6,32.2-40.6,54.3-33.8c59.5-15.7,9.7,64.8,5.6,87.7c-19.3,26.1-86.1-5.6-49.5,41.4
		c-37.8,7.2-31.4-22.5-50.7-15.3c5.2,58.7-102.6,46.7-74.4,110.2c1.2,11.7,2,36.2,0.8,47.5c-8.4-36.2-47.5-51.1-49.1-91.3
		c-18.5-14.9-56.3,2.8-44.2-33.4c-10.9-49.5-35-11.3-50.3,10.9C123.9,1777.3,74,1749.1,22.6,1742.7z"/>
	<path class="st0" d="M685.5,2194.8c15.3-15.3,0-36.6-4.4-53.1c1.2-13.7,9.3-29.4,0-41.8c31-41.4,116.7-55.1,133.5-105
		c18.5-14.9-0.4-51.1,2-71.2c10.5-39.4-32.2-29.4-54.7-37.8c-44.6-22.1,6.4-18.5-18.5-92.1c-29-16.9-72-43-59.1-86.5
		c76.4-31.8,106.6,8.4,137.2-94.1c-17.7-109-40.2-42.6,124.3-68.8c22.5,5.6,50.3,12.5,68.8-4.8c8.4,21.3,36.6,20.9,55.1,26.9
		c47.9,15.3,29.4,60.3,74.4,77.6c8.9,4.4,8.9,14.5,7.2,23.3c11.7,12.5,41.8,41,39.4,59.5c-27.8,26.1-50.7,37.4-82.9,39.4
		c0.4,26.6,0.8,64.8-32.2,73.2c-13.7,26.9-7.6,35.8-46.3,32.6c-46.3,40.6-90.1,97.3-138,135.6c15.3,22.1,19.7,50.7,9.7,74.4
		c-22.9-8.8-25.7,19.3-10.5,29.8c3.2,24.1-18.5,5.2-28.6,22.9c-6.4,18.9-22.5,18.1-38.2,22.9c-4.4,14.5-11.7,6.4-22.9,4.8
		c-13.7-2.8-2,19.3-14.9,14.9C752.6,2158.6,718.4,2196.8,685.5,2194.8z"/>
	<path class="st0" d="M4873.3,1271.6c-13.3-3.6-148.8,29.8-111.4-4.8c-37-6.8-55.5,7.2-81.7-14.9c-17.3-22.1-14.9,32.6-63.6,31.4
		c-15.7-7.6-15.7-30.2-39-23.3c-5.2,3.2,0.8,8.9,2.8,12.1c-6,4.8-5.6,15.7-6,22.5c-5.2-3.6-6.8-9.7-12.1-3.6
		c-4,17.3,10.1,23.3-14.5,14.9c14.5,14.5-18.1,18.1-25.3,30.2c-41.8,6.4-6,54.3-54.7,23.7c-83.7-4.8-30.6,33-48.7,40.2
		c-2.4-12.5-16.5-12.1-26.5-10.9c16.1,37.8-93.7,2-42.6,39c-29.8-6.4-46.7,31-69.2,10.5c13.3,26.9-18.1-6.8-26.9-10.5
		c-1.6,8.1-7.6,25.7,0,32.6l-77.2,4c-18.5-1.2-8.9-2-18.9-10.1c-8-0.4-23.3,3.6-26.1-7.2c-10.1-7.2-22.5-17.3-32.2-3.6
		c27.8,57.5,41.8,27.4-47.1,57.1c-113-92.9-26.9,8.9-82.1,37.8c-66.4-10.5-29.8,0-58.7-39c-18.9,39.8-59.5,80.5-105.4,74
		c-20.9-25.7-36.6,10.9-22.9-29.4c-10.9-2.4-64.4,0.8-74.4-5.6c-15.7-8.1-44.2-22.5-59.5-6c-11.3-22.5-32.2-72-52.7-74.4
		c26.1-53.9-73.6-53.9-107-40.2c-168.9,296.1-33.4-890.2-74.8-948.1c77.6,35.4,187.1,64,263.5,99.4c-28.2,32.6-15.3,94.5,36.2,70
		c3.6-6.4-0.8-29,12.5-23.3c8.9,27.8,36.2,14.1,57.1,18.9c39.4,4.8,26.1,9.3,57.5-8.8c-42.2-22.9-120.3-8.4-147.6-54.7
		c75.6,16.5,177.8,35.4,255,36.6c156.5,89.3,274.7,275.9,451.3,329.4c11.3,12.5,4,20.1-10.9,19.7c-20.9-6-42.6-33.8-65.2-36.6
		c-6.8-19.7-84.9-8.8-54.7-30.6c-16.5-27.8-29-36.6-56.7-41c-39-38.6-47.1,14.5-66,4c-33.8-10.9-15.3-4.8-5.6-27
		c-58.3-17.7-8.9,32.2-8.9,49.9c-16.1,12.5-24.9-59.9-47.9-53.9c-24.1,7.6-31.4,6.4-55.5,1.6c5.6,39,33.8,16.9,22.9,45.5
		c0,5.2-5.2,11.3,3.6,9.7c35.8-60.3,33-50.7,62.8,7.6c11.7,27-8.9,17.7-20.5,35c6.8,33.8,33.4,67.6,69.2,71.6
		c12.5-4.8,2-23.3,0-31.4c10.5,7.2,22.1,18.9,23.3,31.8c-24.1,48.7,57.9,13.7,57.5,29.4c-58.7,8,26.6,70.8,56.3,43.4
		c52.7-16.1,12.9-28.2-13.7-43.4c-10.1-10.5-9.7-18.5-27-17.3c-32.6-5.2-140-58.7-64.4-77.2c19.7,10.5,82.1,27.8,85.3,55.9
		c21.3,18.9,58.3,13.7,70,44.2c-11.3,8.4-27.4,16.5-3.2,18.9c45.1-38.2,5.2,62.8,36.6,58.3c7.2-4.4-0.8-19.3,9.7-16.5
		c12.1,42.2,18.5-35,82.9-27c-2.4-52.7,35.4-22.1,69.6-19.7c6.8-2,21.3-4.8,8.4,7.2c6,14.5,10.9,47.5-8.4,54.3
		c-20.9-6-1.6-26.5-37.4-26.1c-10.5,6.8-42.2,65.6-8.4,44.6c-6.4-6.8-6-24.1,5.6-22.1c0,47.5,24.9,49.9,47.9,11.7
		c19.7-14.9,62.8-8.8,24.9-41.4c-7.2-16.9-10.5-57.5-35.8-37c-13.7-8.4-33-23.3-48.3-10.5c-7.2-4.4-2-10.5,0-16.5
		c-8,0.4-38.6-10.9-46.3-14.1c-146-115.4,163.3,57.5,203.9,61.9C4761,1133.3,4689.4,1230.6,4873.3,1271.6z"/>
	<path class="st0" d="M2975.1,2041.5c-36.2,4-23.3,27.7-66,34.2c6.8,19.7-21.3,8.4-30.2,25.7c-11.7,10.9-28.2-3.2-35.8,6.4
		c6,20.5-30.2,62.7,2.8,68c9.3,12.9,0.8,32.6-10.9,41.4c-9.3-8.4-13.7-15.3-28.2-13.7c-37.8,8.1-49.1-24.9-64.8-51.1
		c-14.1-9.2-27.4-8-42.2-2.4c-23.3-12.9-61.1-58.3-88.1-71.2c-3.6-55.1,36.2-57.5-64-33c-19.3,16.5-18.9,45-49.1,51.1
		c-25.7,33-73.6,88.1-98.6,122.3c-4,25.7-15.3,54.3-45.9,55.5c-70.8,10.1-39.8-19.7-117.1-9.7c-29.4-26.9-86.1-5.2-120.3-0.4
		c-35.8-9.7-90.9-2.4-85.3,45.9c-42.2,17.7-79.2,49.9-125.5,37.8c1.2,47.1-59.5,49.5-65.2,88.1c-20.9,31-70.8,57.9-77.2,1.2
		c-36.6-16.1-49.5,7.2-64-43c-29.8-22.1-19.3-20.5-12.9-54.7c38.6-24.5,63.2,38.6,74-21.3c22.5-25.3-24.1-43.4-6.8-84.1
		c9.3-19.3,33,24.9,59.9,21.7c54.7-9.3,42.2-100.2,51.5-140.4c-15.7-33,53.5,33.4,56.7-71.6c-24.1-45.1-109.8-86.9,0-82.1
		c7.6-12.5,12.5-24.5-6.4-27.4c4.4-26.9,33.4-61.5,56.7-78c14.9-51.5,58.7-93.7,104.6-122.7c57.1,26.9,30.6,6.8,65.2,12.9
		c20.1,26.5,7.2,19.3,40.2,22.5c41,11.7,89.3,31.4,110.6,69.6c94.5,39.4,174.6-117.9,230.5,20.1c36.2,14.5,37.4,18.1,65.6-3.2
		c35,2,42.6,39.8,52.7,66c31,5.6,58.7,69.6,88.1,39c2.8-41,42.6-31,68-18.5c30.6-45.5,43.4-16.9,100.2-10.1
		c20.5-22.9,44.7,38.2,41,58.3C2954.9,2015,2965,2001.7,2975.1,2041.5z"/>
	<path class="st0" d="M2292.4,628.8c58.3,48.3,138-30.2,180.2-67.6c39-26.1,132.3-15.3,175.4-24.5c58.3-31.8,97.3-86.1,0-88.1
		c-97.8-34.2,265.1,6.4,230.5,62.3c19.7-21.7,23.7-6.4,44.6,10.9c159.7,76.4,288.8,51.5,432-52.3l59.1-1.2
		c-33-20.1,66,943.7-46.7,689.4c-123.1-96.1-126.3-19.7-234.9-197.5c-14.1-20.9-90.1-46.7-113-55.5
		c-32.2-30.2-101.8-87.7-142.8-103.4c-17.7-9.3-29,10.1-44.7,1.2c-24.5-20.5-28.6,7.6-39,22.1c-18.9,18.9-36.6,28.2-60.3,14.1
		c-18.9,19.7-51.1,67.2-75.6,84.9c-20.9,8.4-51.5,37.4-72.8,24.1c-46.7,16.9-90.5,24.5-132.3-10.5c-8.4-13.7,5.6-110.2-15.7-88.1
		c-42.2-30.2-98.1-3.2-131.1-51.9c43.4-24.1,54.3-18.5,43-75.2c-36.6-8-18.5-16.5-40.2-38.2C2287.2,670.7,2281.6,644.9,2292.4,628.8
		z"/>
	<path class="st0" d="M1014.5,1539.5c22.5-21.7-10.1-39.8,0-62.7c11.7-6,32.2-24.5,40.6-35.4c34.6-1.2,27.7-12.9,28.6-40.6
		c8,57.1,58.3-8.8,79.6-17.7c28.6-53.9,129.9-49.5,115.4-127.9c29,0,88.9,1.6,115.8-8c43.4-67.6,60.7,28.2,96.5,43.8
		c7.2,21.7,0.8,57.9,35.4,51.1c27.4-20.5,59.9-34.6,90.5-8.8c26.1-2.8,22.5-4,44.7,17.7c15.7,4.4,40.6,30.2,16.5,40.6
		c-7.6,1.6-20.9-0.8-23.3,8.9c-2.8,45.5,16.5,113.8-45,127.1c-1.6,6-1.2,14.9-8.9,6.8c2.4,20.9-11.3,71.6-37,41
		c-8.4,3.2-21.3-12.9-25.3-0.8c1.6,68.4-99.4,76.8-4,139.2c-4,29.8,4.8,20.9,20.5,42.6c-12.1,27.4-28.2,55.5-59.9,46.3
		c-31,79.2,83.7,72.4-18.5,110.2c-9.3,39.4-46.7,43-80,49.1c-35,55.5-40.6,31.4-81.3,72c7.6-49.5-39.8-60.3-74-76.8
		c-0.8-17.7,13.7-19.7-5.2-35.8l-26.9-11.3c0-6.4-6.8-23.7,5.2-22.9c20.1-0.8,50.3-4.8,71.2-8c16.5-2.8,29.8-20.1,45.9-15.7
		c46.7-4.4,32.2-55.9,17.3-85.7c-45.5,20.5-96.5-7.6-142.4-24.5c-32.2-30.6-4.4-18.9-20.9-44.7c-8.5-16.1-39.4-36.6-33.8-56.3
		c-18.5-18.5-39.8-13.7-41-48.3C1097,1558.4,1035.4,1574.1,1014.5,1539.5z"/>
	<path class="st0" d="M534.2,2065.7c2.8-18.1-16.9-24.5-31.4-24.5c-29.8-10.9,18.5-78.8-36.2-46.3c-83.7,18.1-47.5-116.7-140.4-68.8
		c-19.3-12.9-5.2-47.9-10.9-67.6c-13.7-34.2,2-27.4,19.7-56.7c82.5-20.1,34.6-55.5,64.8-54.7c8,14.9,24.9,19.3,40.6,16.9
		c-9.3-5.2-16.9-39.8,0-28.6c18.1,4.8,52.7-2.4,54.3-25.3c28.6-77.6,16.9-123.9-32.6-173.4c-49.5-84.5,120.7,5.2,96.5-68.4
		c-41-51.9,31.4-86.5,11.7-140.4c83.7-50.7,78.4,68,128.7,91.3c45.9-55.1,33-20.5,92.9-4c-69.2,91.7,85.3,41.8,12.9,133.1
		c9.3,8.4,13.7,53.9,16.5,65.6c-24.5,137.6-156.9,29.4-134.4,133.9c31,49.9,39.8,24.5,56.3,46.7c15.7,113.8-23.7,73.6,73.6,107.4
		c29.8,144-55.1,117.1-130.3,197.5C672.2,2078.9,561.2,2058.8,534.2,2065.7z"/>
	<path class="st0" d="M1285.2,523.4c27.4-8.8,54.3,27.8,79.6,27c-16.5-20.1,11.7-27.8,26.9-38.6c-4,9.7-30.6,31-13.7,38.6
		c28.2,22.5,88.9,108.2,130.3,72.8c7.6-20.1,20.9-18.5,39.4-16.9c12.9-16.9,8-25.3,35.8-25.7c140.8,22.5,315.8,121.9,448.1,35.4
		c58.7,50.3,272.7-55.9,257,45.9c16.9,17.3,28.6,50.3,51.1,58.3c31,33.4,5.2,61.9-35,77.2c-56.7-18.5-118.7-2-177-16.1
		c-41.8,11.7-80.5,48.7-126.3,42.2c-58.3-18.9-67.6,0.8-126.7-0.8c-12.5-2.8-35.8,21.3-43.8,28.2c-22.9,26.1-119.1,76-152.5,72.8
		c-37.4-4-86.5-34.6-118.7-11.3c-57.5,0.8-29.4-83.3-73.6-78.8c-29.4,20.5-74,24.5-109.4,27.8c-85.3-50.7-18.5-123.5-138.8-175.4
		c57.1-16.9-6.4-40.6-5.6-67.2c14.1-16.1,26.5-35.8,33.8-55.5C1283.6,549.6,1291.2,546,1285.2,523.4z"/>
	<path class="st0" d="M1239,685.6c61.5,31,87.7,68.4,95.3,135.6c32.2,59.1,105,38.6,152.5,12.1c35.4-8.8,20.9,38.6,35.8,55.9
		c22.5,43,57.9-2,85.3,20.1c84.1,29.4,129.5-1.6,203.1-37.8c35.4-56.3,99.4-45.5,154.9-62.8c12.9,26.5,53.5,14.5,76.8,10.9
		c46.7-16.1,83.3-55.5,135.6-29.4c55.1,2.8,122.7-18.5,158.9,37c20.5,14.5,67.2-6.8,86.5,16.1c4,1.2,10.5,6.8,13.7,4.8
		c22.1-14.9,6.4,48.7,8.4,57.1c20.9,31.8-13.3,49.5-38.6,60.7c-156.5,111.8-72-83.7-271.5,29.8c-41.8,109-70,22.1-138.4,41.8
		c-6.4,23.7-38.6,8.8-37,43c9.3,51.9-0.4,112.6-45.5,144c-31,11.3-36.2-5.2-51.9,31c-31.4-8.4-72-2.4-103-12.9
		c-14.1,2-55.5,2.4-50.7,24.9c0.4,33-35,53.9-47.9,83.3c-17.3-20.1-23.3-20.5-44.6-17.7c-45.9-44.2-77.2,26.1-116.3,2.4
		c-2-62.7-30.2-38.6-42.6-85.7c-20.9-34.6-41-36.2-63.2-2.8c-40.6,6-143.2,32.2-117.1-39.4c14.5-18.5-17.7-59.1-39.8-50.3
		c-14.1-26.2-39.4-6.8-47.1-29.4c-12.5-16.5-36.2-18.9-54.3-11.3c-10.1-4,5.6-31.8,0-41.4c-6.4-2.4-9.3,6-12.9-4.4
		c15.3-53.5,8-57.5,56.3-90.1c14.9-29.4,55.5-56.7,8.1-77.2c10.9-23.7,29.8,20.1,30.6-14.1c-26.5-33.4,7.2-54.3,15.3-88.1
		c4.4,1.2,18.9,6,17.3-2.8c19.7-36.2-18.5-48.7-37.4-73.2C1244.6,697.6,1177.8,724.6,1239,685.6z"/>
	<path class="st0" d="M479.5,1026.7c99.4-55.1,192.3-206.8,315.4-188.3c61.5,21.7,94.5,10.1,95.7,85.3
		c119.5,67.2,58.3,57.1,102.6,161.3c60.7,22.9,0,40.6-8.9,78.4c76,102.6,87.3-13.7,44.2,148.4c16.9,31.8,60.7,10.9,55.5,89.3
		c0.8,67.6-5.6,8.4-56.7,68c-39,13.7,13.3,47.1-12.9,70.4c-59.5,19.7-144,8.1-210,8.4c51.9-76.4-6-41.4-30.6-90.1
		c-14.5-20.5,55.1-53.5-19.3-52.3c-7.2-14.5-24.1-28.2-35.8-10.1c-57.5,79.2-49.1-98.6-115.4-79.6c-167.7,66.8-7.2-103.8-43.4-139.6
		c-16.1-32.6,26.5-31.4-16.9-49.5c-10.5-14.1-37.4-29.8-28.2-49.9C517.3,1068.5,482.3,1033.5,479.5,1026.7z"/>
</g>
<g id="Capa_3">
	<path class="st1" d="M708.4,847.7c39.8-29.4,93.7-72,113.4-118.7c4.8-10.9,24.5-3.6,33.4-10.9c8.4-2.8,24.5-18.9,29.8-6
		c23.7-90.5,49.9,79.6,141.2-54.7c9.7-5.6,24.1-11.7,14.9-24.9c24.5,9.3,123.5-27.8,78.4-51.1c-3.2-2.4-14.5-10.5-7.6-14.1
		c29.4,6,56.3-13.3,82.1-21.7c10.1,1.2,72.8-4.8,81.3-8.4c17.7-37,18.9,12.1-12.1,33.8c-10.5,36.2-51.9,54.3-7.6,79.2
		c16.9,12.5,2.8,35.8-15.7,35.8c-61.1,39,5.6,12.5-24.9,40.2c23.3,19.7,73.6,72,20.1,76c-2.4,31-43,47.1-19.3,77.2
		c6.8,13.7,4.8,34.6-12.9,17.7c-37.4,3.6,26.6,22.5,8.9,42.2c-26.5,21.7-28.2,57.5-68.4,66c-1.2,16.1,2.4,10.1-11.3,24.5
		c6.4,16.5-9.7,34.2-4,47.9c25.3-9.7-2.8,33.8,9.7,40.2c21.7-9.3,52.3-2.8,59.1,22.1c11.7-1.2,21.7,5.6,33.4,5.6
		c4.4,5.2,3.2,14.5,12.9,13.3c54.3-2.8,29.4,65.2,37,97.3c9.7,47.5-31,69.6-66.8,88.9c-39-0.4-102.6,128.7-128.3,56.7
		c8-108.2-107-35.4-25.3-177.4c-2-6.4-10.1-8.1-14.1-12.9c-135.6-44.2,12.1-88.9-35.4-114.6c-43-18.1-31-94.5-41.4-128.7
		c-49.5-18.5-90.9-29.4-82.5-92.1C845.2,843.2,758.3,820.3,708.4,847.7z"/>
	<path class="st1" d="M178.2,1211.3c31-23.7,102.2-35.8,135.6-55.9c58.3-24.1,167.7-192.3,201.5-78.4
		c-17.7,38.2,71.2,50.7,39.8,79.2c-0.8,18.9,22.1,32.6,14.9,50.7c-34.2,20.5-27.4,68.8-45.1,100.6c11.3,57.9,47.9-12.1,49.1,45.8
		c0.4,30.2-16.5,21.3-12.1,37.8c-45.5,33.8,15.7,78.8-6.8,101.8c-37.8,21.7-110.6-14.9-101.8,22.9c2.8,19.7,28.2,36.2,37.8,51.9
		c14.1,24.1,24.9,84.5-22.1,64.8c-79.2,5.2-12.5,47.9-58.7,38.2c-39.4-15.7-60.7-39-63.6-85.3c-73.2-52.7-37.8-26.9-74-90.5
		c-100.6-24.9-79.6,60.7-135.2-62.3c-37.8-32.2-26.5-64.8,7.6-92.9C181.8,1297.4,122.3,1246.7,178.2,1211.3z"/>
	<path class="st1" d="M2062,2662.6c-29,20.1-68-44.7-101.4-9.2c-26.1,20.1-70.8,56.7-49.1,93.3c4.8,8.9-15.3,50.3,4,53.9
		c-25.3,33-64,75.6-99,92.5c-12.5-36.6-294,37.4-173.4-34.2c-1.2-14.1-49.5,7.6-65.2-39.4c-4-18.5,18.5-15.3,30.2-18.5
		c18.5-7.2-68.8-21.7-82.1-12.9c0.8-44.2-26.5-98.9-55.5-127.1c-15.7,4.8-22.1-20.1-9.3-27.7c50.7-31.8,27-38.2,95.7-54.3
		c-7.2-24.1,18.9-21.7,24.5-49.1c0.8-23.7-22.5-44.7-12.9-69.2c-48.3-20.9-36.2-70.8-53.5-104.2c-24.1-9.2-30.6-33.4-20.9-56.3
		c-7.2-43.4,40.6-35.8,56.3-25.3c-15.3,20.9,8,35.4,21.3,48.7c36.6-3.6,78.8,1.2,113.8,15.3c-1.2,9.7-12.1,36.6-2.4,44.2
		c31.8,8.9,13.7,37.4,36.6,46.3c6.4,1.6,39.4-0.8,42.6,7.2c24.9,95.3,92.5-37.4,129.1-55.9c27.4-41-11.7-29.4,45.9-32.6
		c4.8,15.7,33.4-25.3,58.7-17.3c37.8-31.4,37-25.7,32.6,20.9c13.3,33.4,25.7,5.6,13.3,62.8c-2.8,34.6,42.6,113,14.5,144.8
		C2060.8,2593.4,2118.7,2626.8,2062,2662.6z"/>
	<path class="st1" d="M3414.2,1476.1c-21.7,10.9-18.9,40.2-25.7,58.3c-35,6.8-0.4,18.5,10.1,29c-19.3,21.3-29.4,18.9-2.8,25.3
		c-32.6,53.9-42.6,49.5-88.9,19.3c-14.9,19.7-5.6,58.7-14.1,79.7c-39.4,33.4,4.8,30.2-39.4,58.3c124.7,100.2-82.1,64-105.4,123.9
		c-55.5,6.8-42.2,103-104.6,120.7c-41.4-0.8-27,52.3-69.2,49.5c-1.2-28.6-33-34.6-37.8-58.7c4.8-20.9-24.1-73.2-41.8-49.5
		c-20.9-3.2-55.1-18.5-76.8-17.3c-20.5,57.1-48.3-10.9-84.1,26.1c-8.4,20.1-0.8,30.6-32.6,26.5c-6.8-2.4-20.1-22.5-24.5-27.8
		c-9.7-6.4-36.2-12.1-39.8-24.9c-2.8-26.5-26.9-70.4-58.3-56.7c-80.5,52.3-55.5-94.9-149.6-53.1c-69.2,35.4-46.7,47.9-136.8,33
		c-26.1-47.5-90.1-65.2-139.2-74.8c-21.3-42.2-18.1,3.2-76.8-30.2c-1.6-29.4-15.3-61.5-26.1-88.1c0.8-24.1,9.2-33-11.7-53.1
		c-15.3-23.3-50.7-33.8-67.2-54.3c-22.5-66.4-87.3-162.1-45-221.2c-25.7-22.5-93.7-49.9-44.7-86.9c86.1,1.2,80.8-106.2,81.7-166.5
		c7.6-11.7,32.2-9.3,34.2-25.7l36.2-8c39,46.7,89.3,15.3,101.8-33.8c78.8-24.1,107.8-75.6,178.6,7.2
		c67.6,10.5,123.5-101.8,185.4-40.2c40.6,13.3,63.2-27.8,109.4-10.1c-1.2-6,45-26.1,48.3-29.4l47.5-46.7c8-7.6,20.1-49.9,38.6-35.4
		c18.1,17.3,60.7-16.1,57.1-37.4c110.6-37.8,195.9,114.6,304.5,133.9C3305.2,1194.6,3464.5,1088.8,3414.2,1476.1z"/>
	<path class="st1" d="M1373.3,2004.1c-3.2-47.9,50.7-41.4,80-57.1c36.2-24.5-4-31.8,64.8-50.7c16.5-32.6-37-4.4-25.3-88.1
		c19.3-23.3,16.5,28.2,53.9-33.8c24.1-33-22.5-28.2-12.9-45.1c12.9-28.2-45.1-31.4-43.9-74.4c18.9-18.1,56.3-48.7,48.7-79.2
		c23.7-17.7,47.9,45,62.7-21.3c-5.6-32.6,6.4-4.8,8.1-23.3c102.6-43.8-7.2-120.3,82.1-147.6c-58.3-55.5,23.3-61.5,18.5-122.7
		c40.6-32.6,106.2-4.4,154.1-3.6c-4,32.2,73.6,47.1,56.3,67.2c-23.7,31.8,33,231.3,84.9,236.1c24.9,24.1,59.5,47.5,46.3,86.1
		c12.5,22.9,16.9,52.3,26.6,76.8c-2.8,27.3-70,56.7-84.5,80.4c4.8,57.5-98.1,94.1-66.4,135.6c10.1,12.1-7.6,27.8-20.5,25.3
		c-112.6-9.3,77.2,78.4-4,137.6c-14.9,16.5-47.5-11.3-36.6,13.7c-9.7,271.5-120.7,39.8-114.2,150.4c4,16.9,27.4,35.4,9.3,52.3
		c-16.5,44.7-0.4,30.2-49.5,13.3c-32.2,10.9-75.2-4-106.6-10.9c-29.4,10.5-72-12.9-52.3-48.3c-9.2-0.8-20.1-0.8-29-4.4
		c-51.1-15.3-12.5,84.9-43,74c-17.3-8.9-41-30.2-57.1-40.2c-92.1,9.7-86.9-85.7-46.3-139.2
		C1398.3,2129.2,1377.3,2039.9,1373.3,2004.1z"/>
</g>
<g id="Capa_2">
	<g>
		<circle class="st2" cx="2687.8" cy="1261.2" r="61.3"/>
		<path class="st3" d="M2821.5,1260.8c0-74-60-133.9-133.9-133.9c-74,0-134,60-134,133.9c0,0-9.3,131.1,133.9,257.9
			C2830.9,1391.9,2821.5,1260.8,2821.5,1260.8z M2687.6,1317.4c-31.2,0-56.5-25.3-56.5-56.5s25.3-56.5,56.5-56.5
			c31.2,0,56.5,25.3,56.5,56.5S2718.8,1317.4,2687.6,1317.4z"/>
	</g>
	<g>
		<circle class="st2" cx="361.1" cy="1066.6" r="61.3"/>
		<path class="st3" d="M494.8,1066.3c0-74-60-133.9-133.9-133.9s-134,60-134,133.9c0,0-9.3,131.1,133.9,257.9
			C504.2,1197.3,494.8,1066.3,494.8,1066.3z M360.9,1122.8c-31.2,0-56.6-25.3-56.6-56.6c0-31.2,25.3-56.6,56.6-56.6
			c31.2,0,56.6,25.3,56.6,56.6C417.4,1097.5,392,1122.8,360.9,1122.8z"/>
	</g>
	<g>
		<circle class="st2" cx="1054.9" cy="572.7" r="61.3"/>
		<path class="st3" d="M1188.6,572.4c0-74-60-133.9-133.9-133.9s-134,60-134,133.9c0,0-9.3,131.1,133.9,257.9
			C1197.9,703.4,1188.6,572.4,1188.6,572.4z M1054.7,628.9c-31.2,0-56.5-25.3-56.5-56.6c0-31.2,25.3-56.6,56.5-56.6
			c31.2,0,56.5,25.3,56.5,56.6C1111.2,603.6,1085.8,628.9,1054.7,628.9z"/>
	</g>
	<g>
		<circle class="st2" cx="1722.2" cy="1738.2" r="61.3"/>
		<path class="st3" d="M1855.9,1737.8c0-74-60-133.9-133.9-133.9s-134,60-134,133.9c0,0-9.3,131.1,133.9,257.9
			C1865.3,1868.9,1855.9,1737.8,1855.9,1737.8z M1722,1794.4c-31.2,0-56.5-25.3-56.5-56.5s25.3-56.5,56.5-56.5
			c31.2,0,56.5,25.3,56.5,56.5S1753.2,1794.4,1722,1794.4z"/>
	</g>
	<g>
		<circle class="st2" cx="1783.5" cy="2417.2" r="61.3"/>
		<path class="st3" d="M1917.3,2416.8c0-74-60-133.9-133.9-133.9s-134,60-134,133.9c0,0-9.3,131.1,133.9,257.9
			C1926.6,2547.9,1917.3,2416.8,1917.3,2416.8z M1783.3,2473.4c-31.2,0-56.5-25.3-56.5-56.6c0-31.2,25.3-56.5,56.5-56.5
			c31.2,0,56.5,25.3,56.5,56.5C1839.9,2448,1814.5,2473.4,1783.3,2473.4z"/>
	</g>
	
		<image style="display:none;overflow:visible;" width="330" height="180" xlink:href="../../../../../../../Users/florianaelsegood/Desktop/Captura de pantalla 2022-01-05 a la(s) 20.42.14.png"  transform="matrix(14.9576 0 0 14.9576 5023.9707 63.6558)">
	</image>
</g>
</svg>
