<svg width="4877" height="3101" viewBox="0 0 4877 3101" fill="none" xmlns="http://www.w3.org/2000/svg">
<path d="M1192.28 1960.61C1182.85 1959.85 1154.94 1976.07 1146.27 1979.84C1133.44 1946.27 1101.38 1918.36 1085.16 1886.68C1046.69 1881.4 976.909 1912.7 1003.69 1846.32C1002.94 1836.14 982.567 1821.8 989.356 1813.88C1014.25 1788.23 1063.66 1754.29 1079.88 1721.85C1096.1 1702.61 1120.62 1682.24 1147.4 1687.52C1162.11 1661.5 1142.12 1667.16 1175.69 1649.81C1203.22 1622.27 1178.7 1587.57 1195.68 1584.93C1219.06 1598.13 1246.6 1566.07 1264.32 1555.13C1288.46 1590.59 1340.14 1598.13 1379.37 1610.96C1408.41 1600.02 1414.82 1586.06 1426.51 1625.29C1426.14 1643.77 1435.57 1661.88 1417.46 1675.08C1375.97 1685.26 1332.59 1704.12 1288.09 1702.61C1278.66 1702.99 1284.31 1718.83 1284.31 1724.11C1345.04 1747.12 1304.68 1751.65 1317.13 1771.26C1349.95 1780.31 1391.06 1800.3 1383.89 1840.66C1475.17 1741.08 1461.59 1973.05 1415.2 2003.98C1383.14 2005.11 1389.93 1983.24 1340.14 1995.31C1315.62 1982.11 1303.55 1964.76 1289.97 1942.5C1264.7 1940.99 1268.85 1972.3 1237.17 1959.48C1209.26 1957.97 1226.98 1980.97 1192.28 1960.61Z" fill="#F1F5F9" stroke="#002857" stroke-width="21.3837" stroke-miterlimit="10"/>
<path d="M1291.48 2326.48C1322.79 2316.67 1403.13 2275.93 1342.02 2246.14C1289.22 2266.88 1322.79 2188.8 1333.35 2168.06C1325.43 2117.89 1359.37 2098.66 1349.57 2076.4C1369.94 2003.61 1391.81 2037.55 1340.89 1996.06C1359 1992.29 1386.53 1989.65 1400.11 2004.74C1440.85 2000.97 1382.76 2065.09 1449.52 2088.85C1485.35 2088.09 1510.63 2109.97 1538.91 2129.59C1564.56 2127.32 1588.33 2154.86 1578.9 2182.77C1597 2231.43 1650.56 2267.63 1626.8 2325.34C1600.02 2351.75 1610.2 2311.77 1574.75 2324.59C1555.51 2307.62 1534.39 2335.15 1543.82 2356.27C1537.41 2363.82 1480.83 2371.36 1481.58 2357.03C1484.98 2355.52 1494.78 2360.05 1492.14 2352.5C1448.01 2329.49 1423.12 2375.89 1446.13 2326.48C1417.46 2324.97 1456.31 2256.32 1413.31 2292.15C1402.37 2297.81 1410.29 2314.03 1412.93 2321.95C1404.26 2346.09 1374.84 2367.97 1348.44 2359.67C1340.52 2349.86 1312.98 2349.86 1316.38 2334.02C1309.96 2329.87 1298.27 2330.62 1291.48 2326.48ZM1438.96 2413.98C1450.28 2436.61 1418.22 2453.96 1400.86 2439.63C1398.6 2408.7 1400.49 2413.98 1438.96 2413.98ZM1434.06 2354.76C1442.73 2361.93 1471.02 2343.83 1471.78 2357.03C1441.98 2364.95 1483.85 2388.33 1456.69 2403.42C1442.73 2396.26 1398.6 2393.24 1409.16 2369.85C1414.44 2361.55 1421.99 2345.71 1434.06 2354.76Z" fill="#F1F5F9" stroke="#002857" stroke-width="21.3837" stroke-miterlimit="10"/>
<path d="M172.374 1567.58C150.497 1567.96 157.286 1521.56 173.128 1515.53C202.549 1506.1 223.671 1468.38 245.925 1446.88C267.801 1428.4 305.897 1471.78 311.555 1428.02C314.195 1415.95 305.52 1382.76 311.555 1371.82C320.607 1365.79 323.625 1352.21 318.721 1342.78C347.388 1332.97 400.948 1317.13 418.298 1351.08C414.149 1396.34 492.226 1405.39 480.911 1450.28C488.455 1477.81 527.682 1505.72 554.839 1498.56C539.375 1468 585.014 1460.46 605.759 1466.87C661.582 1452.16 614.812 1527.6 611.04 1549.1C592.935 1573.62 530.322 1543.82 564.646 1587.95C529.191 1594.74 535.226 1566.83 517.121 1573.62C522.024 1628.68 420.939 1617.37 447.341 1676.96C448.473 1687.9 449.227 1710.91 448.096 1721.47C440.175 1687.53 403.588 1673.57 402.079 1635.85C384.729 1621.9 349.273 1638.49 360.589 1604.54C350.405 1558.15 327.774 1593.98 313.441 1614.73C267.424 1600.02 220.653 1573.62 172.374 1567.58Z" fill="#F1F5F9" stroke="#002857" stroke-width="21.3837" stroke-miterlimit="10"/>
<path d="M793.974 1991.54C808.307 1977.2 793.974 1957.21 789.825 1941.75C790.957 1928.92 798.5 1914.21 789.825 1902.52C818.868 1863.67 899.209 1850.85 915.051 1804.07C932.401 1790.12 914.673 1756.17 916.937 1737.31C926.743 1700.35 886.762 1709.78 865.639 1701.86C823.772 1681.11 871.674 1684.51 848.289 1615.48C821.132 1599.64 780.773 1575.12 792.843 1534.39C864.508 1504.59 892.797 1542.31 921.463 1446.13C904.867 1343.91 883.744 1406.14 1038.01 1381.63C1059.14 1386.91 1085.16 1393.32 1102.51 1377.1C1110.43 1397.09 1136.84 1396.72 1154.19 1402.37C1199.07 1416.71 1181.72 1458.95 1223.96 1475.17C1232.26 1479.32 1232.26 1488.75 1230.75 1497.05C1241.69 1508.74 1269.98 1535.52 1267.72 1552.87C1241.69 1577.39 1220.19 1587.95 1190.02 1589.83C1190.4 1614.73 1190.77 1650.56 1159.84 1658.48C1147.02 1683.75 1152.68 1692.05 1116.47 1689.03C1073.09 1727.13 1031.98 1780.31 987.093 1816.14C1001.43 1836.89 1005.57 1863.67 996.145 1885.92C974.646 1877.63 972.005 1904.03 986.339 1913.84C989.356 1936.47 968.988 1918.74 959.558 1935.33C953.523 1953.06 938.436 1952.31 923.726 1956.83C919.577 1970.41 912.787 1962.87 902.226 1961.36C889.402 1958.72 900.34 1979.47 888.27 1975.32C856.964 1957.59 824.903 1993.42 793.974 1991.54Z" fill="#F1F5F9" stroke="#002857" stroke-width="21.3837" stroke-miterlimit="10"/>
<path d="M4720.85 1125.9C4708.4 1122.5 4581.29 1153.81 4616.37 1121.37C4581.66 1114.96 4564.31 1128.16 4539.8 1107.41C4523.58 1086.67 4525.84 1137.97 4480.2 1136.83C4465.49 1129.67 4465.49 1108.55 4443.61 1114.96C4438.71 1117.98 4444.37 1123.26 4446.26 1126.27C4440.6 1130.8 4440.97 1140.98 4440.6 1147.4C4435.69 1144 4434.19 1138.34 4429.28 1144C4425.51 1160.22 4438.71 1165.88 4415.7 1157.96C4429.28 1171.54 4398.73 1174.93 4391.94 1186.25C4352.71 1192.28 4386.28 1237.17 4340.64 1208.5C4262.19 1203.97 4311.98 1239.43 4295 1246.22C4292.74 1234.53 4279.54 1234.9 4270.11 1236.03C4285.2 1271.49 4182.23 1237.92 4230.13 1272.62C4202.22 1266.59 4186.38 1301.66 4165.25 1282.43C4177.7 1307.7 4148.28 1276.02 4139.98 1272.62C4138.47 1280.16 4132.81 1296.76 4139.98 1303.17L4067.56 1306.95C4050.21 1305.81 4059.26 1305.06 4049.83 1297.52C4042.29 1297.14 4027.96 1300.91 4025.32 1290.73C4015.89 1283.94 4004.19 1274.51 3995.14 1287.33C4021.17 1341.27 4034.37 1312.98 3951.01 1340.89C3845.02 1253.76 3925.74 1349.19 3874.07 1376.35C3811.83 1366.54 3846.15 1376.35 3819 1339.76C3801.27 1377.1 3763.17 1415.2 3720.17 1409.16C3700.56 1385.02 3685.85 1419.35 3698.67 1381.63C3688.49 1379.36 3638.33 1382.38 3628.9 1376.35C3614.19 1368.8 3587.41 1355.22 3573.07 1370.69C3562.51 1349.57 3542.9 1303.17 3523.66 1300.91C3548.18 1250.37 3454.64 1250.37 3423.33 1263.19C3264.91 1540.8 3392.02 428.482 3353.17 374.167C3425.97 407.359 3528.56 434.139 3600.23 467.332C3573.83 497.884 3585.9 555.97 3634.18 532.962C3637.57 526.927 3633.42 505.805 3645.87 511.085C3654.17 537.111 3679.82 524.287 3699.43 528.813C3736.39 533.339 3723.95 537.488 3753.37 520.515C3713.76 499.015 3640.59 512.594 3614.94 469.218C3685.85 484.682 3781.66 502.41 3854.08 503.541C4000.8 587.276 4111.69 762.29 4277.28 812.456C4287.84 824.148 4281.05 831.315 4267.09 830.938C4247.48 825.28 4227.11 799.254 4205.99 796.614C4199.58 778.132 4126.4 788.316 4154.69 767.948C4139.23 741.922 4127.53 733.624 4101.51 729.475C4064.92 693.265 4057.38 743.054 4039.65 733.247C4007.97 723.063 4025.32 728.721 4034.37 707.976C3979.68 691.379 4026.07 738.15 4026.07 754.747C4010.98 766.439 4002.69 698.546 3981.19 704.204C3958.56 711.37 3951.77 710.239 3929.13 705.712C3934.42 742.299 3960.82 721.554 3950.63 748.334C3950.63 753.238 3945.73 758.896 3954.03 757.387C3987.6 700.809 3984.96 709.861 4012.87 764.553C4023.81 789.825 4004.57 781.149 3993.63 797.368C4000.05 829.052 4024.94 860.735 4058.51 864.507C4070.2 859.981 4060.4 842.631 4058.51 835.087C4068.32 841.876 4079.25 852.815 4080.39 864.884C4057.76 910.524 4134.7 877.709 4134.32 892.419C4079.25 899.963 4159.22 958.803 4187.13 933.155C4236.54 918.067 4199.2 906.752 4174.3 892.419C4164.88 882.612 4165.25 875.068 4149.03 876.2C4118.48 871.297 4017.77 821.131 4088.68 803.781C4107.17 813.587 4165.63 829.806 4168.65 856.209C4188.64 873.937 4223.34 869.033 4234.28 897.7C4223.72 905.62 4208.63 913.164 4231.26 915.427C4273.5 879.595 4236.16 974.268 4265.58 970.119C4272.37 965.97 4264.83 952.014 4274.64 954.654C4285.95 994.259 4291.99 921.839 4352.34 929.383C4350.07 879.972 4385.53 908.638 4417.59 910.901C4424 909.015 4437.58 906.375 4425.51 917.69C4431.17 931.269 4435.69 962.198 4417.59 968.61C4397.98 962.952 4416.08 943.716 4382.51 944.093C4372.7 950.505 4342.91 1005.57 4374.59 985.961C4368.56 979.549 4368.93 963.33 4379.87 965.216C4379.87 1009.72 4403.26 1011.99 4424.76 976.154C4443.24 962.198 4483.6 967.856 4448.14 937.304C4441.35 921.462 4438.33 883.367 4414.57 902.603C4401.75 894.682 4383.64 880.726 4369.31 892.796C4362.52 888.647 4367.42 882.989 4369.31 877.332C4361.77 877.709 4333.1 867.148 4325.93 864.13C4189.02 755.878 4479.07 918.068 4517.17 922.217C4615.61 996.145 4548.47 1087.42 4720.85 1125.9Z" fill="#F1F5F9" stroke="#002857" stroke-width="21.3837" stroke-miterlimit="10"/>
<path d="M2940.91 1847.83C2906.96 1851.6 2919.03 1873.85 2879.05 1879.89C2885.46 1898.37 2859.06 1887.81 2850.76 1904.03C2839.82 1914.21 2824.36 1901.01 2817.19 1910.06C2822.85 1929.3 2788.9 1968.9 2819.83 1973.81C2828.51 1985.88 2820.59 2004.36 2809.65 2012.66C2800.97 2004.74 2796.83 1998.33 2783.25 1999.83C2747.79 2007.38 2737.23 1976.45 2722.52 1951.93C2709.32 1943.26 2696.87 1944.39 2682.92 1949.67C2661.04 1937.6 2625.58 1894.98 2600.31 1882.91C2596.92 1831.23 2634.26 1828.97 2540.34 1851.98C2522.23 1867.44 2522.61 1894.22 2494.32 1899.88C2470.18 1930.81 2425.3 1982.48 2401.91 2014.54C2398.14 2038.68 2387.58 2065.46 2358.91 2066.6C2292.53 2076.03 2321.57 2048.11 2249.15 2057.54C2221.62 2032.27 2168.44 2052.64 2136.37 2057.17C2102.81 2048.11 2051.13 2054.9 2056.41 2100.17C2016.81 2116.76 1982.11 2146.94 1938.73 2135.62C1939.86 2179.75 1882.91 2182.01 1877.63 2218.22C1858.01 2247.27 1811.24 2272.54 1805.21 2219.36C1770.88 2204.27 1758.81 2226.14 1745.23 2179C1717.32 2158.25 1727.13 2159.76 1733.16 2127.7C1769.37 2104.69 1792.38 2163.91 1802.57 2107.71C1823.69 2083.95 1779.94 2066.97 1796.15 2028.88C1804.83 2010.77 1827.08 2052.26 1852.35 2049.25C1903.65 2040.57 1891.96 1955.33 1900.63 1917.61C1885.92 1886.68 1950.8 1948.91 1953.82 1850.47C1931.19 1808.22 1850.85 1769 1953.82 1773.52C1960.98 1761.83 1965.51 1750.51 1947.78 1747.87C1951.93 1722.6 1979.09 1690.17 2000.97 1674.7C2014.92 1626.42 2056.03 1586.82 2099.03 1559.66C2152.59 1584.93 2127.7 1566.07 2160.14 1571.73C2179 1596.62 2166.93 1589.83 2197.86 1592.85C2236.33 1603.79 2281.59 1622.27 2301.58 1658.1C2390.22 1695.07 2465.28 1547.59 2517.71 1676.96C2551.66 1690.54 2552.79 1693.94 2579.19 1673.95C2612 1675.83 2619.17 1711.29 2628.6 1735.8C2657.64 1741.09 2683.67 1801.06 2711.2 1772.39C2713.84 1733.92 2751.19 1743.35 2774.95 1755.04C2803.61 1712.42 2815.68 1739.2 2868.87 1745.61C2888.1 1724.11 2910.74 1781.44 2907.34 1800.3C2922.05 1822.93 2931.48 1810.49 2940.91 1847.83Z" fill="#F1F5F9" stroke="#002857" stroke-width="21.3837" stroke-miterlimit="10"/>
<path d="M3352.8 1318.64C3332.43 1328.82 3335.07 1356.36 3328.66 1373.33C3295.84 1379.74 3328.28 1390.68 3338.09 1400.49C3319.98 1420.48 3310.55 1418.22 3335.45 1424.25C3304.89 1474.79 3295.46 1470.64 3252.09 1442.36C3238.13 1460.84 3246.81 1497.42 3238.89 1517.04C3201.92 1548.34 3243.41 1545.33 3201.92 1571.73C3318.85 1665.65 3124.98 1631.7 3103.1 1687.9C3051.05 1694.31 3063.5 1784.46 3005.03 1801.06C2966.18 1800.3 2979.76 1850.09 2940.16 1847.45C2939.02 1820.67 2909.23 1815.01 2904.7 1792.38C2909.23 1772.77 2882.07 1723.73 2865.47 1745.99C2845.86 1742.97 2813.8 1728.64 2793.43 1729.77C2774.19 1783.33 2748.17 1719.59 2714.6 1754.29C2706.68 1773.15 2713.84 1782.95 2684.05 1779.18C2677.63 1776.92 2665.19 1758.06 2661.04 1753.16C2651.99 1747.12 2627.09 1741.84 2623.7 1729.77C2621.06 1704.88 2598.43 1663.76 2569.01 1676.59C2493.57 1725.62 2516.95 1587.57 2428.69 1626.8C2363.82 1659.99 2384.94 1671.68 2300.45 1657.73C2275.93 1613.22 2215.96 1596.62 2169.94 1587.57C2149.95 1547.97 2152.97 1590.59 2097.9 1559.28C2096.39 1531.75 2083.57 1501.57 2073.38 1476.68C2074.14 1454.05 2082.06 1445.75 2062.45 1426.89C2048.11 1405.01 2014.92 1395.21 1999.46 1375.97C1978.33 1313.74 1917.61 1223.97 1957.21 1168.52C1933.07 1147.4 1869.33 1121.75 1915.34 1087.05C1996.06 1088.18 1991.16 987.47 1991.91 930.892C1999.08 919.954 2022.09 922.217 2023.97 906.753L2057.92 899.209C2094.51 942.962 2141.66 913.542 2153.35 867.525C2227.28 844.894 2254.43 796.615 2320.82 874.315C2384.19 884.122 2436.61 778.887 2494.7 836.596C2532.8 849.043 2553.92 810.57 2597.29 827.167C2596.16 821.509 2639.54 802.65 2642.56 799.632L2687.06 755.879C2694.61 748.712 2705.92 709.108 2723.27 722.686C2740.25 738.905 2780.23 707.599 2776.83 687.608C2880.56 652.153 2960.52 795.106 3062.36 813.211C3250.58 1054.61 3399.94 955.409 3352.8 1318.64Z" fill="#F1F5F9" stroke="#002857" stroke-width="21.3837" stroke-miterlimit="10"/>
<path d="M1438.96 1812.75C1435.94 1767.87 1486.49 1773.9 1514.02 1759.19C1547.97 1736.18 1510.25 1729.39 1574.75 1711.66C1590.21 1681.11 1540.05 1707.52 1550.98 1629.06C1569.09 1607.18 1566.45 1655.46 1601.53 1597.38C1624.16 1566.45 1580.4 1570.97 1589.46 1555.13C1601.53 1528.73 1547.21 1525.71 1548.34 1485.35C1566.07 1468.38 1601.15 1439.71 1593.98 1411.05C1616.24 1394.45 1638.87 1453.29 1652.82 1391.06C1647.54 1360.51 1658.86 1386.53 1660.37 1369.18C1756.55 1328.07 1653.58 1256.4 1737.31 1230.75C1682.62 1178.7 1759.19 1173.04 1754.66 1115.71C1792.76 1085.16 1854.24 1111.56 1899.13 1112.32C1895.35 1142.49 1968.15 1156.45 1951.93 1175.31C1929.68 1205.11 1982.86 1392.19 2031.52 1396.72C2054.9 1419.35 2087.34 1441.22 2074.89 1477.43C2086.59 1498.93 2090.74 1526.47 2099.79 1549.48C2097.15 1575.12 2034.16 1602.66 2020.58 1624.91C2025.11 1678.85 1928.55 1713.17 1958.34 1752.02C1967.77 1763.34 1951.18 1778.05 1939.11 1775.79C1833.5 1767.11 2011.53 1849.34 1935.34 1904.78C1921.38 1920.25 1890.83 1894.22 1901.01 1917.61C1891.96 2172.21 1787.86 1954.95 1793.89 2058.67C1797.66 2074.52 1819.54 2091.87 1802.57 2107.71C1787.1 2149.58 1802.19 2136 1756.17 2120.16C1726 2130.34 1685.64 2116.38 1656.22 2109.97C1628.68 2119.78 1588.7 2097.9 1607.19 2064.71C1598.51 2063.96 1588.33 2063.96 1580.03 2060.56C1532.13 2046.23 1568.34 2140.15 1539.67 2129.96C1523.45 2121.66 1501.2 2101.67 1486.11 2092.24C1399.73 2101.3 1404.64 2011.9 1442.73 1961.74C1462.35 1930.05 1442.73 1846.32 1438.96 1812.75Z" fill="#009ED6" stroke="#002857" stroke-width="21.3837" stroke-miterlimit="10"/>
<path d="M2300.83 523.155C2355.52 568.418 2430.2 494.867 2469.81 459.788C2506.39 435.271 2593.9 445.455 2634.26 436.78C2688.95 406.982 2725.54 356.063 2634.26 354.177C2542.6 322.116 2882.82 360.212 2850.39 412.64C2868.87 392.272 2872.64 406.605 2892.25 422.824C3042 494.489 3163.07 471.104 3297.35 373.79L3352.8 372.659C3321.87 353.799 3414.65 1257.53 3309.04 1019.15C3193.62 929.006 3190.61 1000.67 3088.77 833.956C3075.57 814.342 3004.28 790.202 2982.78 781.904C2952.6 753.615 2887.35 699.678 2848.88 684.968C2832.28 676.292 2821.72 694.397 2807.01 686.099C2784 666.863 2780.23 693.266 2770.42 706.844C2752.7 724.572 2736.1 733.247 2713.85 720.046C2696.12 738.528 2665.94 783.036 2642.93 799.632C2623.32 807.553 2594.66 834.71 2574.66 822.263C2530.91 838.105 2489.8 845.271 2450.57 812.456C2442.65 799.632 2455.85 709.108 2435.86 729.853C2396.26 701.564 2343.83 726.835 2312.9 681.196C2353.63 658.565 2363.82 663.845 2353.26 610.662C2318.93 603.119 2335.91 595.198 2315.54 574.83C2295.92 562.383 2290.64 538.243 2300.83 523.155Z" fill="#F1F5F9" stroke="#002857" stroke-width="21.3837" stroke-miterlimit="10"/>
<path d="M2084.7 2430.2C2057.54 2449.06 2020.96 2388.33 1989.65 2421.53C1965.13 2440.39 1923.27 2474.71 1943.63 2509.03C1948.16 2517.33 1929.3 2556.18 1947.41 2559.58C1923.64 2590.51 1887.43 2630.49 1854.62 2646.33C1842.93 2612 1578.9 2681.41 1692.05 2614.27C1690.92 2601.07 1645.66 2621.43 1630.95 2577.3C1627.18 2559.95 1648.3 2562.97 1659.24 2559.95C1676.59 2553.16 1594.74 2539.59 1582.29 2547.88C1583.04 2506.39 1557.4 2455.1 1530.24 2428.69C1515.53 2433.22 1509.49 2409.83 1521.56 2402.67C1569.09 2372.87 1546.84 2366.83 1611.33 2351.75C1604.54 2329.12 1629.06 2331.38 1634.34 2305.73C1635.1 2283.48 1613.22 2263.86 1622.27 2240.85C1577.01 2221.24 1588.33 2174.47 1572.11 2143.16C1549.48 2134.49 1543.44 2111.86 1552.49 2090.36C1545.7 2049.62 1590.59 2056.79 1605.3 2066.6C1590.97 2086.21 1612.84 2099.79 1625.29 2112.24C1659.61 2108.84 1699.22 2113.37 1732.03 2126.57C1730.9 2135.62 1720.72 2160.89 1729.77 2168.06C1759.57 2176.36 1742.59 2203.14 1764.09 2211.43C1770.13 2212.94 1801.06 2210.68 1804.08 2218.22C1827.46 2307.62 1890.83 2183.15 1925.15 2165.8C1950.8 2127.32 1914.21 2138.26 1968.15 2135.24C1972.68 2149.95 1999.46 2111.48 2023.22 2119.02C2058.68 2089.6 2057.92 2094.88 2053.77 2138.64C2066.22 2169.94 2077.91 2143.92 2066.22 2197.48C2063.58 2229.92 2106.2 2303.47 2079.8 2333.27C2083.57 2365.33 2137.88 2396.63 2084.7 2430.2Z" fill="#F1F5F9" stroke="#002857" stroke-width="21.3837" stroke-miterlimit="10"/>
<path d="M1102.51 1377.1C1123.63 1356.73 1093.08 1339.76 1102.51 1318.26C1113.45 1312.6 1132.69 1295.25 1140.61 1285.07C1173.05 1283.94 1166.63 1273 1167.39 1246.97C1174.93 1300.53 1222.08 1238.68 1242.07 1230.38C1268.85 1179.83 1363.9 1183.98 1350.32 1110.43C1377.48 1110.43 1433.68 1111.94 1458.95 1102.89C1499.69 1039.52 1515.91 1129.29 1549.48 1144C1556.26 1164.37 1550.23 1198.32 1582.67 1191.9C1608.32 1172.67 1638.87 1159.47 1667.53 1183.61C1692.05 1180.97 1688.66 1179.83 1709.4 1200.2C1724.11 1204.35 1747.5 1228.49 1724.87 1238.3C1717.7 1239.81 1705.25 1237.54 1702.99 1246.6C1700.35 1289.22 1718.45 1353.34 1660.75 1365.79C1659.24 1371.44 1659.61 1379.74 1652.45 1372.2C1654.71 1391.81 1641.89 1439.34 1617.75 1410.67C1609.83 1413.69 1597.76 1398.6 1593.98 1409.92C1595.49 1474.04 1500.82 1481.96 1590.21 1540.42C1586.44 1568.33 1594.74 1560.04 1609.45 1580.4C1598.13 1606.05 1583.04 1632.46 1553.25 1623.78C1524.2 1698.09 1631.7 1691.67 1535.9 1727.13C1527.22 1764.09 1492.14 1767.49 1460.84 1773.15C1428.02 1825.2 1422.74 1802.57 1384.65 1840.66C1391.81 1794.27 1347.3 1784.08 1315.24 1768.62C1314.49 1752.02 1328.07 1750.14 1310.34 1735.05L1285.07 1724.49C1285.07 1718.45 1278.66 1702.24 1289.97 1702.99C1308.83 1702.24 1337.12 1698.46 1356.73 1695.45C1372.2 1692.81 1384.65 1676.59 1399.73 1680.74C1443.49 1676.59 1429.91 1628.31 1415.95 1600.4C1373.33 1619.63 1325.43 1593.23 1282.43 1577.39C1252.25 1548.72 1278.28 1559.66 1262.82 1535.52C1254.89 1520.43 1225.85 1501.2 1231.13 1482.71C1213.78 1465.36 1193.79 1469.89 1192.66 1437.45C1179.83 1394.83 1122.13 1409.54 1102.51 1377.1Z" fill="#F1F5F9" stroke="#002857" stroke-width="21.3837" stroke-miterlimit="10"/>
<path d="M652.153 1870.46C654.793 1853.49 636.311 1847.45 622.733 1847.45C594.821 1837.27 640.083 1773.52 588.786 1804.08C510.332 1821.05 544.278 1694.69 457.148 1739.58C439.044 1727.51 452.245 1694.69 446.964 1676.21C434.14 1644.15 448.85 1650.56 465.447 1623.03C542.769 1604.17 497.884 1570.98 526.173 1571.73C533.717 1585.69 549.559 1589.83 564.269 1587.57C555.594 1582.67 548.427 1550.23 564.269 1560.79C581.242 1565.32 613.68 1558.53 615.189 1537.03C641.969 1464.23 631.031 1420.86 584.637 1374.46C538.243 1295.25 697.792 1379.37 675.161 1310.34C636.688 1261.68 704.582 1229.25 686.1 1178.7C764.554 1131.18 759.651 1242.45 806.799 1264.32C849.798 1212.65 837.728 1245.09 893.929 1260.55C829.053 1346.55 973.892 1299.78 905.998 1385.4C914.674 1393.32 918.823 1435.94 921.463 1446.88C898.455 1575.88 774.361 1474.42 795.483 1572.48C824.526 1619.25 832.825 1595.49 848.289 1616.24C862.999 1722.98 826.035 1685.26 917.314 1716.95C945.226 1851.98 865.64 1826.71 795.106 1902.14C781.527 1882.91 677.424 1864.05 652.153 1870.46Z" fill="#F1F5F9" stroke="#002857" stroke-width="21.3837" stroke-miterlimit="10"/>
<path d="M1356.36 424.333C1382.01 416.035 1407.28 450.359 1431.04 449.604C1415.57 430.745 1441.98 423.579 1456.31 413.395C1452.54 422.447 1427.64 442.438 1443.49 449.604C1469.89 470.727 1526.84 551.067 1565.69 517.875C1572.86 499.016 1585.31 500.524 1602.66 502.033C1614.73 486.191 1610.2 478.27 1636.23 477.893C1768.24 499.015 1932.32 592.18 2056.41 511.085C2111.48 558.234 2312.14 458.657 2297.43 554.084C2313.27 570.303 2324.21 601.233 2345.34 608.776C2374.38 640.083 2350.24 666.863 2312.52 681.196C2259.34 663.845 2201.25 679.31 2146.56 666.108C2107.33 677.047 2071.12 711.748 2028.12 705.713C1973.43 687.985 1964.76 706.467 1909.31 704.958C1897.62 702.318 1875.74 724.949 1868.2 731.361C1846.7 755.878 1756.55 802.649 1725.24 799.632C1690.17 795.86 1644.15 767.194 1613.97 789.071C1560.04 789.825 1586.44 710.993 1544.95 715.142C1517.41 734.379 1475.55 738.151 1442.36 741.168C1362.39 693.643 1425 625.372 1312.23 576.716C1365.79 560.874 1306.19 538.62 1306.95 513.726C1320.15 498.638 1331.84 480.156 1338.63 461.674C1354.85 448.85 1362.01 445.455 1356.36 424.333Z" fill="#F1F5F9" stroke="#002857" stroke-width="21.3837" stroke-miterlimit="10"/>
<path d="M1312.98 576.339C1370.69 605.382 1395.21 640.46 1402.37 703.45C1432.55 758.896 1500.82 739.66 1545.33 714.766C1578.52 706.468 1564.94 750.975 1578.9 767.194C1600.02 807.553 1633.21 765.308 1658.86 786.054C1737.69 813.588 1780.31 784.545 1849.34 750.598C1882.53 697.792 1942.5 707.976 1994.55 691.757C2006.62 716.652 2044.72 705.336 2066.6 701.941C2110.35 686.854 2144.67 649.89 2193.71 674.407C2245.38 677.047 2308.75 657.056 2342.7 709.108C2361.93 722.687 2405.68 702.696 2423.79 724.195C2427.56 725.327 2433.6 730.607 2436.61 728.722C2457.36 714.766 2442.65 774.361 2444.53 782.282C2464.15 812.079 2432.09 828.676 2408.33 839.237C2261.6 944.094 2340.81 760.782 2153.73 867.148C2114.5 969.365 2088.1 887.894 2023.97 906.376C2017.94 928.63 1987.76 914.674 1989.27 946.734C1997.95 995.391 1988.9 1052.35 1946.65 1081.77C1917.61 1092.33 1912.7 1076.86 1897.99 1110.81C1868.57 1102.89 1830.48 1108.55 1801.43 1098.74C1788.23 1100.63 1749.38 1101 1753.91 1122.13C1754.29 1153.05 1721.09 1172.67 1709.02 1200.2C1692.81 1181.34 1687.15 1180.97 1667.16 1183.61C1624.16 1142.12 1594.74 1208.12 1558.15 1185.87C1556.26 1127.03 1529.86 1149.66 1518.17 1105.53C1498.56 1073.09 1479.7 1071.58 1458.95 1102.89C1420.86 1108.55 1324.67 1133.06 1349.19 1065.92C1362.77 1048.57 1332.59 1010.48 1311.85 1018.78C1298.65 994.26 1274.88 1012.36 1267.72 991.242C1256.03 975.778 1233.77 973.514 1216.8 980.681C1207.37 976.909 1222.08 950.883 1216.8 941.831C1210.76 939.568 1208.12 947.489 1204.73 937.682C1219.06 887.516 1212.27 883.744 1257.53 853.193C1271.49 825.658 1309.59 800.009 1265.08 780.773C1275.26 758.519 1292.99 799.632 1293.74 767.572C1268.85 736.265 1300.53 716.652 1308.08 684.968C1312.23 686.1 1325.8 690.626 1324.3 682.328C1342.78 648.381 1306.95 636.688 1289.22 613.68C1318.26 587.654 1255.65 612.926 1312.98 576.339Z" fill="#F1F5F9" stroke="#002857" stroke-width="21.3837" stroke-miterlimit="10"/>
<path d="M815.474 728.344C852.815 700.81 903.358 660.828 921.84 617.075C926.366 606.891 944.848 613.68 953.146 606.891C961.067 604.251 976.155 589.163 981.058 601.233C1003.31 516.366 1027.83 675.916 1113.45 549.936C1122.5 544.655 1136.08 538.998 1127.41 526.55C1150.41 535.226 1243.2 500.525 1200.96 478.648C1197.94 476.385 1187.38 468.841 1193.79 465.447C1221.32 471.104 1246.6 452.999 1270.74 445.079C1280.17 446.21 1339.01 440.552 1346.93 437.158C1363.52 402.457 1364.66 448.473 1335.61 468.841C1325.81 502.788 1286.95 519.761 1328.45 543.147C1344.29 554.839 1331.09 576.716 1313.74 576.716C1256.4 613.303 1319.02 588.409 1290.35 614.435C1312.23 632.917 1359.37 681.951 1309.21 685.722C1306.95 714.766 1268.85 729.853 1291.1 758.142C1297.52 770.966 1295.63 790.58 1279.03 774.738C1243.96 778.133 1303.93 795.86 1287.33 814.342C1262.44 834.71 1260.93 868.28 1223.21 876.201C1222.08 891.288 1225.47 885.63 1212.65 899.209C1218.68 914.674 1203.6 931.27 1208.88 944.094C1232.64 935.042 1206.24 975.778 1217.93 981.813C1238.3 973.137 1266.96 979.172 1273.38 1002.56C1284.31 1001.43 1293.74 1007.84 1304.68 1007.84C1308.83 1012.74 1307.7 1021.42 1316.75 1020.29C1367.67 1017.65 1344.29 1081.39 1351.45 1111.56C1360.51 1156.07 1322.41 1176.82 1288.84 1194.92C1252.25 1194.54 1192.66 1315.62 1168.52 1248.11C1176.06 1146.64 1068.19 1214.91 1144.76 1081.77C1142.87 1075.73 1135.33 1074.22 1131.55 1069.7C1004.44 1028.21 1142.87 986.339 1098.36 962.199C1058 945.226 1069.32 873.561 1059.51 841.5C1013.12 824.149 974.269 813.965 982.19 755.124C943.717 724.195 862.245 702.696 815.474 728.344Z" fill="#009ED6" stroke="#002857" stroke-width="21.3837" stroke-miterlimit="10"/>
<path d="M600.856 896.192C694.02 844.517 781.15 702.319 896.569 719.669C954.278 740.037 985.207 729.099 986.339 799.632C1098.36 862.622 1041.03 853.193 1082.52 950.883C1139.48 972.383 1082.52 988.979 1074.22 1024.43C1145.51 1120.62 1156.07 1011.61 1115.71 1163.62C1131.55 1193.41 1172.67 1173.8 1167.76 1247.35C1168.52 1310.72 1162.48 1255.27 1114.58 1311.09C1077.99 1323.92 1127.03 1355.23 1102.51 1377.1C1046.69 1395.58 967.479 1384.65 905.621 1385.02C954.278 1313.36 899.963 1346.17 876.955 1300.53C863.376 1281.3 928.629 1250.37 858.85 1251.5C852.061 1237.92 836.219 1225.1 825.281 1242.07C771.343 1316.38 779.264 1149.66 717.029 1167.39C559.743 1230 710.239 1070.07 676.293 1036.5C661.205 1005.95 701.187 1007.08 660.451 990.111C650.644 976.909 625.373 962.199 634.048 943.34C636.311 935.419 603.496 902.604 600.856 896.192Z" fill="#F1F5F9" stroke="#002857" stroke-width="21.3837" stroke-miterlimit="10"/>
<path d="M318.344 1069.32C347.387 1047.06 414.149 1035.75 445.455 1016.89C500.147 994.259 602.741 836.596 634.425 943.339C617.829 979.171 701.187 990.864 671.766 1017.64C671.012 1035.37 692.511 1048.2 685.722 1065.17C653.661 1084.41 660.073 1129.67 643.477 1159.47C654.039 1213.78 688.362 1148.15 689.494 1202.46C689.871 1230.75 674.029 1222.46 678.178 1237.92C635.556 1269.6 692.889 1311.85 671.766 1333.35C636.311 1353.72 568.04 1319.39 576.338 1354.85C578.979 1373.33 602.741 1388.79 611.794 1403.5C624.995 1426.14 635.179 1482.71 591.049 1464.23C516.743 1469.13 579.356 1509.12 535.98 1500.06C499.016 1485.35 479.025 1463.48 476.384 1420.1C407.737 1370.69 440.929 1394.83 406.982 1335.23C312.686 1311.85 332.3 1392.19 280.248 1276.77C244.793 1246.6 255.354 1216.04 287.415 1189.64C321.739 1150.04 265.915 1102.51 318.344 1069.32Z" fill="#009ED6" stroke="#002857" stroke-width="21.3837" stroke-miterlimit="10"/>
<g filter="url(#filter0_d_202_153)">
<circle cx="487.013" cy="949.013" r="57.9264" fill="white"/>
<path d="M613.47 948.65C613.47 878.713 556.757 822 486.82 822C416.883 822 360.118 878.713 360.118 948.65C360.118 948.65 351.284 1072.58 486.768 1192.49C622.304 1072.58 613.47 948.65 613.47 948.65ZM486.81 1002.12C457.278 1002.12 433.338 978.183 433.338 948.65C433.338 919.118 457.278 895.178 486.81 895.178C516.343 895.178 540.282 919.118 540.282 948.65C540.282 978.183 516.29 1002.12 486.81 1002.12Z" fill="#002857"/>
</g>
<g filter="url(#filter1_d_202_153)">
<circle cx="1141.01" cy="439.013" r="57.9264" fill="white"/>
<path d="M1267.47 438.65C1267.47 368.713 1210.76 312 1140.82 312C1070.88 312 1014.12 368.713 1014.12 438.65C1014.12 438.65 1005.28 562.582 1140.77 682.489C1276.3 562.582 1267.47 438.65 1267.47 438.65ZM1140.81 492.122C1111.28 492.122 1087.34 468.183 1087.34 438.65C1087.34 409.118 1111.28 385.178 1140.81 385.178C1170.34 385.178 1194.28 409.118 1194.28 438.65C1194.28 468.183 1170.29 492.122 1140.81 492.122Z" fill="#002857"/>
</g>
<g filter="url(#filter2_d_202_153)">
<circle cx="1772.01" cy="1537.01" r="57.9264" fill="white"/>
<path d="M1898.47 1536.65C1898.47 1466.71 1841.76 1410 1771.82 1410C1701.88 1410 1645.12 1466.71 1645.12 1536.65C1645.12 1536.65 1636.28 1660.58 1771.77 1780.49C1907.3 1660.58 1898.47 1536.65 1898.47 1536.65ZM1771.81 1590.12C1742.28 1590.12 1718.34 1566.18 1718.34 1536.65C1718.34 1507.12 1742.28 1483.18 1771.81 1483.18C1801.34 1483.18 1825.28 1507.12 1825.28 1536.65C1825.28 1566.18 1801.29 1590.12 1771.81 1590.12Z" fill="#002857"/>
</g>
<defs>
<filter id="filter0_d_202_153" x="330" y="822" width="313.587" height="450.489" filterUnits="userSpaceOnUse" color-interpolation-filters="sRGB">
<feFlood flood-opacity="0" result="BackgroundImageFix"/>
<feColorMatrix in="SourceAlpha" type="matrix" values="0 0 0 0 0 0 0 0 0 0 0 0 0 0 0 0 0 0 127 0" result="hardAlpha"/>
<feOffset dy="50"/>
<feGaussianBlur stdDeviation="15"/>
<feComposite in2="hardAlpha" operator="out"/>
<feColorMatrix type="matrix" values="0 0 0 0 0 0 0 0 0 0 0 0 0 0 0 0 0 0 0.3 0"/>
<feBlend mode="normal" in2="BackgroundImageFix" result="effect1_dropShadow_202_153"/>
<feBlend mode="normal" in="SourceGraphic" in2="effect1_dropShadow_202_153" result="shape"/>
</filter>
<filter id="filter1_d_202_153" x="984" y="312" width="313.587" height="450.489" filterUnits="userSpaceOnUse" color-interpolation-filters="sRGB">
<feFlood flood-opacity="0" result="BackgroundImageFix"/>
<feColorMatrix in="SourceAlpha" type="matrix" values="0 0 0 0 0 0 0 0 0 0 0 0 0 0 0 0 0 0 127 0" result="hardAlpha"/>
<feOffset dy="50"/>
<feGaussianBlur stdDeviation="15"/>
<feComposite in2="hardAlpha" operator="out"/>
<feColorMatrix type="matrix" values="0 0 0 0 0 0 0 0 0 0 0 0 0 0 0 0 0 0 0.3 0"/>
<feBlend mode="normal" in2="BackgroundImageFix" result="effect1_dropShadow_202_153"/>
<feBlend mode="normal" in="SourceGraphic" in2="effect1_dropShadow_202_153" result="shape"/>
</filter>
<filter id="filter2_d_202_153" x="1615" y="1410" width="313.587" height="450.489" filterUnits="userSpaceOnUse" color-interpolation-filters="sRGB">
<feFlood flood-opacity="0" result="BackgroundImageFix"/>
<feColorMatrix in="SourceAlpha" type="matrix" values="0 0 0 0 0 0 0 0 0 0 0 0 0 0 0 0 0 0 127 0" result="hardAlpha"/>
<feOffset dy="50"/>
<feGaussianBlur stdDeviation="15"/>
<feComposite in2="hardAlpha" operator="out"/>
<feColorMatrix type="matrix" values="0 0 0 0 0 0 0 0 0 0 0 0 0 0 0 0 0 0 0.3 0"/>
<feBlend mode="normal" in2="BackgroundImageFix" result="effect1_dropShadow_202_153"/>
<feBlend mode="normal" in="SourceGraphic" in2="effect1_dropShadow_202_153" result="shape"/>
</filter>
</defs>
</svg>
