<?xml version="1.0" encoding="utf-8"?>
<!-- Generator: Adobe Illustrator 22.0.1, SVG Export Plug-In . SVG Version: 6.00 Build 0)  -->
<svg version="1.1" xmlns="http://www.w3.org/2000/svg" xmlns:xlink="http://www.w3.org/1999/xlink" x="0px" y="0px"
	 viewBox="0 0 4877 2893" style="enable-background:new 0 0 4877 2893;" xml:space="preserve">
<style type="text/css">
	.st0{display:none;}
	.st1{display:inline;fill:#002857;stroke:url(#SVGID_1_);stroke-width:14.1732;stroke-miterlimit:10;}
	.st2{display:inline;fill:#002857;stroke:url(#SVGID_2_);stroke-width:14.1732;stroke-miterlimit:10;}
	.st3{display:inline;fill:#002857;stroke:url(#SVGID_3_);stroke-width:14.1732;stroke-miterlimit:10;}
	.st4{display:inline;fill:#002857;stroke:url(#SVGID_4_);stroke-width:14.1732;stroke-miterlimit:10;}
	.st5{display:inline;fill:#002857;stroke:url(#SVGID_5_);stroke-width:14.1732;stroke-miterlimit:10;}
	.st6{display:inline;fill:#002857;stroke:url(#SVGID_6_);stroke-width:14.1732;stroke-miterlimit:10;}
	.st7{display:inline;fill:#002857;stroke:url(#SVGID_7_);stroke-width:14.1732;stroke-miterlimit:10;}
	.st8{display:inline;fill:#002857;stroke:url(#SVGID_8_);stroke-width:14.1732;stroke-miterlimit:10;}
	.st9{display:inline;fill:#002857;stroke:url(#SVGID_9_);stroke-width:14.1732;stroke-miterlimit:10;}
	.st10{display:inline;fill:#002857;stroke:url(#SVGID_10_);stroke-width:14.1732;stroke-miterlimit:10;}
	.st11{display:inline;fill:#002857;stroke:url(#SVGID_11_);stroke-width:14.1732;stroke-miterlimit:10;}
	.st12{display:inline;fill:#002857;stroke:url(#SVGID_12_);stroke-width:14.1732;stroke-miterlimit:10;}
	.st13{display:inline;fill:#DC521C;stroke:url(#SVGID_13_);stroke-width:14.1732;stroke-miterlimit:10;}
	.st14{display:inline;fill:#DC521C;stroke:url(#SVGID_14_);stroke-width:14.1732;stroke-miterlimit:10;}
	.st15{display:inline;fill:#DC521C;stroke:url(#SVGID_15_);stroke-width:14.1732;stroke-miterlimit:10;}
	.st16{display:inline;fill:#DC521C;stroke:url(#SVGID_16_);stroke-width:14.1732;stroke-miterlimit:10;}
	.st17{display:inline;fill:#DC521C;stroke:url(#SVGID_17_);stroke-width:14.1732;stroke-miterlimit:10;}
	.st18{display:inline;}
	.st19{fill:#FFFFFF;}
	.st20{fill:#002857;}
	.st21{fill:#F1F4FA;stroke:#002857;stroke-width:14.1732;stroke-miterlimit:10;}
	.st22{fill:#009ED6;stroke:#002857;stroke-width:14.1732;stroke-miterlimit:10;}
</style>
<g id="Capa_2" class="st0">
	<linearGradient id="SVGID_1_" gradientUnits="userSpaceOnUse" x1="890.5623" y1="1960.6611" x2="1397.0109" y2="1960.6611">
		<stop  offset="0" style="stop-color:#C39E33"/>
		<stop  offset="0.5259" style="stop-color:#FAF8D1"/>
		<stop  offset="0.9947" style="stop-color:#DEC75D"/>
	</linearGradient>
	<path class="st1" d="M1114.7,2154.2c-10-0.8-39.7,16.4-48.9,20.4c-13.6-35.7-47.7-65.3-64.9-99c-40.9-5.6-115,27.6-86.5-42.9
		c-0.8-10.8-22.4-26-15.2-34.5c26.4-27.2,78.9-63.3,96.2-97.8c17.2-20.4,43.3-42.1,71.7-36.5c15.6-27.6-5.6-21.6,30.1-40.1
		c29.2-29.3,3.2-66.1,21.2-68.9c24.8,14,54.1-20,72.9-31.7c25.6,37.7,80.5,45.7,122.2,59.3c30.8-11.6,37.7-26.5,50.1,15.2
		c-0.4,19.6,9.6,38.9-9.6,52.9c-44.1,10.8-90.2,30.8-137.4,29.2c-10,0.4-4,17.2-4,22.8c64.5,24.4,21.6,29.3,34.9,50.1
		c34.9,9.6,78.5,30.8,70.9,73.7c97-105.8,82.5,140.6,33.3,173.5c-34.1,1.2-26.8-22-79.7-9.2c-26-14-38.9-32.5-53.3-56.1
		c-26.8-1.6-22.4,31.7-56.1,18C1132.7,2151.4,1151.5,2175.8,1114.7,2154.2z"/>
	<linearGradient id="SVGID_2_" gradientUnits="userSpaceOnUse" x1="1203.0206" y1="2428.6958" x2="1589.6943" y2="2428.6958">
		<stop  offset="0" style="stop-color:#C39E33"/>
		<stop  offset="0.5259" style="stop-color:#FAF8D1"/>
		<stop  offset="0.9947" style="stop-color:#DEC75D"/>
	</linearGradient>
	<path class="st2" d="M1220.1,2542.9c33.3-10.4,118.6-53.7,53.7-85.3c-56.1,22-20.4-60.9-9.2-82.9c-8.4-53.3,27.6-73.7,17.2-97.4
		c21.6-77.3,44.9-41.3-9.2-85.3c19.2-4,48.5-6.8,62.9,9.2c43.3-4-18.4,64.1,52.5,89.3c38.1-0.8,64.9,22.4,95,43.3
		c27.2-2.4,52.5,26.8,42.5,56.5c19.2,51.7,76.1,90.1,50.9,151.4c-28.4,28.1-17.6-14.4-55.3-0.8c-20.4-18-42.9,11.2-32.9,33.7
		c-6.8,8-66.9,16-66.1,0.8c3.6-1.6,14,3.2,11.2-4.8c-46.9-24.4-73.3,24.8-48.9-27.6c-30.5-1.6,10.8-74.5-34.9-36.5
		c-11.6,6-3.2,23.2-0.4,31.7c-9.2,25.6-40.5,48.9-68.5,40.1c-8.4-10.4-37.7-10.4-34.1-27.2
		C1239.7,2546.5,1227.3,2547.3,1220.1,2542.9z M1376.7,2635.8c12,24-22,42.5-40.5,27.2C1333.8,2630.2,1335.9,2635.8,1376.7,2635.8z
		 M1371.5,2572.9c9.2,7.6,39.3-11.6,40.1,2.4c-31.7,8.4,12.8,33.2-16,49.3c-14.8-7.6-61.7-10.8-50.5-35.7
		C1350.7,2580.1,1358.7,2563.3,1371.5,2572.9z"/>
	<linearGradient id="SVGID_3_" gradientUnits="userSpaceOnUse" x1="9.398" y1="1710.0861" x2="527.6164" y2="1710.0861">
		<stop  offset="0" style="stop-color:#C39E33"/>
		<stop  offset="0.5259" style="stop-color:#FAF8D1"/>
		<stop  offset="0.9947" style="stop-color:#DEC75D"/>
	</linearGradient>
	<path class="st3" d="M31.3,1736.7c-23.2,0.4-16-48.9,0.8-55.3c31.3-10,53.7-50.1,77.3-72.9c23.2-19.6,63.7,26.5,69.7-20
		c2.8-12.8-6.4-48.1,0-59.7c9.6-6.4,12.8-20.8,7.6-30.8c30.5-10.4,87.3-27.2,105.8,8.8c-4.4,48.1,78.5,57.7,66.5,105.4
		c8,29.2,49.7,58.9,78.5,51.3c-16.4-32.5,32.1-40.5,54.1-33.7c59.3-15.6,9.6,64.5,5.6,87.4c-19.2,26-85.7-5.6-49.3,41.3
		c-37.7,7.2-31.3-22.4-50.5-15.2c5.2,58.5-102.2,46.5-74.1,109.8c1.2,11.6,2,36.1,0.8,47.3c-8.4-36.1-47.3-50.9-48.9-91
		c-18.4-14.8-56.1,2.8-44.1-33.3c-10.8-49.3-34.9-11.2-50.1,10.8C132.2,1771.2,82.5,1743.1,31.3,1736.7z"/>
	<linearGradient id="SVGID_4_" gradientUnits="userSpaceOnUse" x1="675.4333" y1="1858.1664" x2="1202.0406" y2="1858.1664">
		<stop  offset="0" style="stop-color:#C39E33"/>
		<stop  offset="0.5259" style="stop-color:#FAF8D1"/>
		<stop  offset="0.9947" style="stop-color:#DEC75D"/>
	</linearGradient>
	<path class="st4" d="M691.6,2187.1c15.2-15.2,0-36.5-4.4-52.9c1.2-13.6,9.2-29.3,0-41.7c30.9-41.3,116.2-54.9,133-104.6
		c18.4-14.8-0.4-50.9,2-70.9c10.4-39.3-32.1-29.2-54.5-37.7c-44.5-22,6.4-18.4-18.4-91.8c-28.8-16.8-71.7-42.9-58.9-86.1
		c76.1-31.7,106.2,8.4,136.6-93.8c-17.6-108.6-40.1-42.5,123.8-68.5c22.4,5.6,50.1,12.4,68.5-4.8c8.4,21.2,36.5,20.8,54.9,26.8
		c47.7,15.2,29.2,60.1,74.1,77.3c8.8,4.4,8.8,14.4,7.2,23.2c11.6,12.4,41.7,40.9,39.3,59.3c-27.7,26-50.5,37.3-82.5,39.3
		c0.4,26.5,0.8,64.5-32.1,72.9c-13.6,26.8-7.6,35.7-46.1,32.5c-46.1,40.5-89.8,97-137.4,135c15.2,22,19.6,50.5,9.6,74.1
		c-22.8-8.8-25.6,19.2-10.4,29.7c3.2,24-18.4,5.2-28.4,22.8c-6.4,18.8-22.4,18-38.1,22.8c-4.4,14.4-11.6,6.4-22.8,4.8
		c-13.6-2.8-2,19.2-14.8,14.8C758.5,2151,724.4,2189.1,691.6,2187.1z"/>
	<linearGradient id="SVGID_5_" gradientUnits="userSpaceOnUse" x1="3388.9473" y1="1013.8578" x2="4864.8657" y2="1013.8578">
		<stop  offset="0" style="stop-color:#C39E33"/>
		<stop  offset="0.5259" style="stop-color:#FAF8D1"/>
		<stop  offset="0.9947" style="stop-color:#DEC75D"/>
	</linearGradient>
	<path class="st5" d="M4863,1267.5c-13.2-3.6-148.3,29.6-111-4.8c-36.9-6.8-55.3,7.2-81.3-14.8c-17.2-22-14.8,32.5-63.3,31.3
		c-15.6-7.6-15.6-30.1-38.9-23.2c-5.2,3.2,0.8,8.8,2.8,12c-6,4.8-5.6,15.6-6,22.4c-5.2-3.6-6.8-9.6-12-3.6
		c-4,17.2,10,23.2-14.4,14.8c14.4,14.4-18,18-25.2,30.1c-41.7,6.4-6,54.1-54.5,23.6c-83.3-4.8-30.4,32.9-48.5,40.1
		c-2.4-12.4-16.4-12-26.4-10.8c16,37.7-93.4,2-42.5,38.9c-29.6-6.4-46.5,30.8-68.9,10.4c13.2,26.8-18-6.8-26.8-10.4
		c-1.6,8-7.6,25.6,0,32.5l-76.9,4c-18.4-1.2-8.8-2-18.8-10c-8-0.4-23.2,3.6-26-7.2c-10-7.2-22.4-17.2-32.1-3.6
		c27.7,57.3,41.7,27.2-46.9,56.9c-112.6-92.6-26.8,8.8-81.7,37.7c-66.1-10.4-29.7,0-58.5-38.9c-18.8,39.7-59.3,80.1-105,73.7
		c-20.8-25.6-36.5,10.8-22.8-29.2c-10.8-2.4-64.1,0.8-74.1-5.6c-15.6-8-44.1-22.4-59.3-6c-11.2-22.4-32-71.7-52.5-74.1
		c26-53.7-73.3-53.7-106.6-40.1c-168.3,294.9-33.3-886.7-74.5-944.4c77.3,35.3,186.3,63.7,262.4,99c-28,32.5-15.2,94.2,36.1,69.7
		c3.6-6.4-0.8-28.8,12.4-23.2c8.8,27.6,36.1,14,56.9,18.8c39.3,4.8,26,9.2,57.3-8.8c-42.1-22.8-119.8-8.4-147.1-54.5
		c75.3,16.4,177.1,35.3,254,36.5c155.9,88.9,273.7,274.9,449.6,328.2c11.2,12.4,4,20-10.8,19.6c-20.8-6-42.5-33.7-64.9-36.5
		c-6.8-19.6-84.5-8.8-54.5-30.5c-16.4-27.6-28.9-36.5-56.5-40.9c-38.9-38.5-46.9,14.4-65.7,4c-33.7-10.8-15.2-4.8-5.6-26.8
		c-58.1-17.6-8.8,32.1-8.8,49.7c-16,12.4-24.8-59.7-47.7-53.7c-24,7.6-31.3,6.4-55.3,1.6c5.6,38.9,33.7,16.8,22.8,45.3
		c0,5.2-5.2,11.2,3.6,9.6c35.7-60.1,32.9-50.5,62.5,7.6c11.6,26.8-8.8,17.6-20.4,34.9c6.8,33.7,33.3,67.3,68.9,71.3
		c12.4-4.8,2-23.2,0-31.3c10.4,7.2,22,18.8,23.2,31.7c-24,48.5,57.7,13.6,57.3,29.2c-58.5,8,26.5,70.5,56.1,43.3
		c52.5-16,12.8-28-13.6-43.3c-10-10.4-9.6-18.4-26.9-17.2c-32.5-5.2-139.4-58.5-64.1-76.9c19.6,10.4,81.7,27.6,85,55.7
		c21.2,18.8,58.1,13.6,69.7,44.1c-11.2,8.4-27.2,16.4-3.2,18.8c44.9-38.1,5.2,62.5,36.5,58.1c7.2-4.4-0.8-19.2,9.6-16.4
		c12,42.1,18.4-34.9,82.5-26.8c-2.4-52.5,35.3-22,69.3-19.6c6.8-2,21.2-4.8,8.4,7.2c6,14.4,10.8,47.3-8.4,54.1
		c-20.8-6-1.6-26.4-37.3-26c-10.4,6.8-42.1,65.3-8.4,44.5c-6.4-6.8-6-24,5.6-22c0,47.3,24.8,49.7,47.7,11.6
		c19.6-14.8,62.5-8.8,24.8-41.3c-7.2-16.8-10.4-57.3-35.7-36.9c-13.6-8.4-32.9-23.2-48.1-10.4c-7.2-4.4-2-10.4,0-16.4
		c-8,0.4-38.5-10.8-46.1-14c-145.4-115,162.7,57.3,203.1,61.7C4751.2,1129.7,4679.9,1226.7,4863,1267.5z"/>
	<linearGradient id="SVGID_6_" gradientUnits="userSpaceOnUse" x1="1675.0333" y1="2094.6812" x2="2981.0706" y2="2094.6812">
		<stop  offset="0" style="stop-color:#C39E33"/>
		<stop  offset="0.5259" style="stop-color:#FAF8D1"/>
		<stop  offset="0.9947" style="stop-color:#DEC75D"/>
	</linearGradient>
	<path class="st6" d="M2972.2,2034.4c-36.1,4-23.2,27.6-65.7,34.1c6.8,19.6-21.2,8.4-30.1,25.6c-11.6,10.8-28-3.2-35.7,6.4
		c6,20.4-30.1,62.5,2.8,67.7c9.2,12.8,0.8,32.5-10.8,41.3c-9.2-8.4-13.6-15.2-28-13.6c-37.7,8-48.9-24.8-64.5-50.9
		c-14-9.2-27.2-8-42.1-2.4c-23.2-12.8-60.9-58.1-87.8-70.9c-3.6-54.9,36.1-57.3-63.7-32.9c-19.2,16.4-18.8,44.9-48.9,50.9
		c-25.6,32.9-73.3,87.7-98.2,121.8c-4,25.6-15.2,54.1-45.7,55.3c-70.5,10-39.7-19.6-116.6-9.6c-29.2-26.8-85.7-5.2-119.8-0.4
		c-35.7-9.6-90.6-2.4-85,45.7c-42.1,17.6-78.9,49.7-125,37.7c1.2,46.9-59.3,49.3-64.9,87.7c-20.8,30.9-70.5,57.7-76.9,1.2
		c-36.5-16-49.3,7.2-63.7-42.9c-29.6-22-19.2-20.4-12.8-54.5c38.5-24.4,62.9,38.5,73.7-21.2c22.4-25.2-24-43.3-6.8-83.7
		c9.2-19.2,32.9,24.8,59.7,21.6c54.5-9.2,42.1-99.8,51.3-139.8c-15.6-32.9,53.3,33.2,56.5-71.3c-24-44.9-109.4-86.5,0-81.7
		c7.6-12.4,12.4-24.4-6.4-27.2c4.4-26.8,33.3-61.3,56.5-77.7c14.8-51.3,58.5-93.4,104.2-122.2c56.9,26.8,30.5,6.8,64.9,12.8
		c20,26.4,7.2,19.2,40.1,22.4c40.9,11.6,88.9,31.3,110.2,69.3c94.2,39.3,173.9-117.4,229.6,20c36.1,14.4,37.3,18,65.3-3.2
		c34.9,2,42.5,39.7,52.5,65.7c30.8,5.6,58.5,69.3,87.7,38.9c2.8-40.9,42.5-30.8,67.7-18.4c30.5-45.3,43.3-16.8,99.8-10
		c20.4-22.8,44.5,38.1,40.9,58.1C2952.2,2008,2962.2,1994.8,2972.2,2034.4z"/>
	<linearGradient id="SVGID_7_" gradientUnits="userSpaceOnUse" x1="2279.7893" y1="815.9729" x2="3434.1702" y2="815.9729">
		<stop  offset="0" style="stop-color:#C39E33"/>
		<stop  offset="0.5259" style="stop-color:#FAF8D1"/>
		<stop  offset="0.9947" style="stop-color:#DEC75D"/>
	</linearGradient>
	<path class="st7" d="M2292.3,627.2c58.1,48.1,137.4-30,179.5-67.3c38.9-26,131.8-15.2,174.7-24.4c58.1-31.7,97-85.7,0-87.7
		c-97.4-34.1,264,6.4,229.6,62.1c19.6-21.6,23.6-6.4,44.5,10.8c159.1,76.1,287.7,51.3,430.3-52.1l58.9-1.2
		c-32.9-20,65.7,940-46.5,686.8c-122.6-95.8-125.8-19.6-234-196.7c-14-20.8-89.8-46.5-112.6-55.3c-32.1-30.1-101.4-87.3-142.2-103
		c-17.6-9.2-28.9,10-44.5,1.2c-24.4-20.4-28.4,7.6-38.9,22c-18.8,18.8-36.5,28-60.1,14c-18.8,19.6-50.9,66.9-75.3,84.5
		c-20.8,8.4-51.3,37.3-72.5,24c-46.5,16.8-90.1,24.4-131.8-10.4c-8.4-13.6,5.6-109.8-15.6-87.7c-42.1-30.1-97.8-3.2-130.6-51.7
		c43.3-24,54.1-18.4,42.9-74.9c-36.5-8-18.4-16.4-40.1-38.1C2287.1,668.9,2281.4,643.3,2292.3,627.2z"/>
	<linearGradient id="SVGID_8_" gradientUnits="userSpaceOnUse" x1="1010.2556" y1="1629.6735" x2="1697.5299" y2="1629.6735">
		<stop  offset="0" style="stop-color:#C39E33"/>
		<stop  offset="0.5259" style="stop-color:#FAF8D1"/>
		<stop  offset="0.9947" style="stop-color:#DEC75D"/>
	</linearGradient>
	<path class="st8" d="M1019.3,1534.4c22.4-21.6-10-39.7,0-62.5c11.6-6,32.1-24.4,40.5-35.3c34.5-1.2,27.6-12.8,28.4-40.5
		c8,56.9,58.1-8.8,79.3-17.6c28.4-53.7,129.4-49.3,115-127.4c28.9,0,88.6,1.6,115.4-8c43.3-67.3,60.5,28,96.2,43.7
		c7.2,21.6,0.8,57.7,35.3,50.9c27.2-20.4,59.7-34.4,90.1-8.8c26-2.8,22.4-4,44.5,17.6c15.6,4.4,40.5,30.1,16.4,40.5
		c-7.6,1.6-20.8-0.8-23.2,8.8c-2.8,45.3,16.4,113.4-44.9,126.6c-1.6,6-1.2,14.8-8.8,6.8c2.4,20.8-11.2,71.3-36.9,40.9
		c-8.4,3.2-21.2-12.8-25.3-0.8c1.6,68.1-99,76.5-4,138.6c-4,29.6,4.8,20.8,20.4,42.5c-12,27.2-28.1,55.3-59.7,46.1
		c-30.9,78.9,83.3,72.1-18.4,109.8c-9.2,39.3-46.5,42.9-79.7,48.9c-34.9,55.3-40.5,31.3-80.9,71.7c7.6-49.3-39.7-60.1-73.7-76.5
		c-0.8-17.6,13.6-19.6-5.2-35.7l-26.8-11.2c0-6.4-6.8-23.6,5.2-22.8c20-0.8,50.1-4.8,70.9-8c16.4-2.8,29.7-20,45.7-15.6
		c46.5-4.4,32.1-55.7,17.2-85.3c-45.3,20.4-96.2-7.6-141.8-24.4c-32.1-30.5-4.4-18.8-20.8-44.5c-8.4-16-39.3-36.5-33.7-56.1
		c-18.4-18.4-39.7-13.6-40.9-48.1C1101.5,1553.2,1040.2,1568.8,1019.3,1534.4z"/>
	<linearGradient id="SVGID_9_" gradientUnits="userSpaceOnUse" x1="310.6869" y1="1703.709" x2="837.4026" y2="1703.709">
		<stop  offset="0" style="stop-color:#C39E33"/>
		<stop  offset="0.5259" style="stop-color:#FAF8D1"/>
		<stop  offset="0.9947" style="stop-color:#DEC75D"/>
	</linearGradient>
	<path class="st9" d="M540.9,2058.5c2.8-18-16.8-24.4-31.3-24.4c-29.7-10.8,18.4-78.5-36.1-46.1c-83.3,18-47.3-116.2-139.8-68.5
		c-19.2-12.8-5.2-47.7-10.8-67.3c-13.6-34.1,2-27.2,19.6-56.5c82.1-20,34.5-55.3,64.5-54.5c8,14.8,24.8,19.2,40.5,16.8
		c-9.2-5.2-16.8-39.7,0-28.4c18,4.8,52.5-2.4,54.1-25.2c28.4-77.3,16.8-123.4-32.5-172.7c-49.3-84.1,120.2,5.2,96.2-68.1
		c-40.9-51.7,31.3-86.1,11.6-139.8c83.3-50.5,78.1,67.7,128.2,91c45.7-54.9,32.9-20.4,92.6-4c-68.9,91.4,84.9,41.7,12.8,132.6
		c9.2,8.4,13.6,53.7,16.4,65.3c-24.4,137-156.3,29.3-133.8,133.4c30.9,49.7,39.7,24.4,56.1,46.5c15.6,113.4-23.6,73.3,73.3,107
		c29.7,143.4-54.9,116.6-129.8,196.7C678.3,2071.7,567.8,2051.6,540.9,2058.5z"/>
	<linearGradient id="SVGID_10_" gradientUnits="userSpaceOnUse" x1="1221.3257" y1="709.3635" x2="2360.2917" y2="709.3635">
		<stop  offset="0" style="stop-color:#C39E33"/>
		<stop  offset="0.5259" style="stop-color:#FAF8D1"/>
		<stop  offset="0.9947" style="stop-color:#DEC75D"/>
	</linearGradient>
	<path class="st10" d="M1289,522.3c27.2-8.8,54.1,27.6,79.3,26.8c-16.4-20,11.6-27.6,26.8-38.5c-4,9.6-30.5,30.9-13.6,38.5
		c28,22.4,88.5,107.8,129.8,72.5c7.6-20,20.8-18.4,39.3-16.8c12.8-16.8,8-25.2,35.7-25.6c140.2,22.4,314.5,121.4,446.3,35.3
		c58.5,50.1,271.7-55.7,256,45.7c16.8,17.2,28.4,50.1,50.9,58.1c30.8,33.3,5.2,61.7-34.9,76.9c-56.5-18.4-118.2-2-176.3-16
		c-41.7,11.6-80.1,48.5-125.8,42.1c-58.1-18.8-67.3,0.8-126.2-0.8c-12.4-2.8-35.7,21.2-43.7,28c-22.8,26-118.6,75.7-151.9,72.5
		c-37.3-4-86.1-34.5-118.2-11.2c-57.3,0.8-29.2-82.9-73.3-78.5c-29.3,20.4-73.7,24.4-109,27.6c-84.9-50.5-18.4-123-138.2-174.7
		c56.9-16.8-6.4-40.5-5.6-66.9c14-16,26.4-35.7,33.7-55.3C1287.4,548.3,1295,544.7,1289,522.3z"/>
	<linearGradient id="SVGID_11_" gradientUnits="userSpaceOnUse" x1="1120.4774" y1="1017.6073" x2="2458.4668" y2="1017.6073">
		<stop  offset="0" style="stop-color:#C39E33"/>
		<stop  offset="0.5259" style="stop-color:#FAF8D1"/>
		<stop  offset="0.9947" style="stop-color:#DEC75D"/>
	</linearGradient>
	<path class="st11" d="M1242.9,683.7c61.3,30.9,87.4,68.1,95,135c32.1,58.9,104.6,38.5,151.9,12c35.3-8.8,20.8,38.5,35.7,55.7
		c22.4,42.9,57.7-2,84.9,20c83.7,29.2,129-1.6,202.3-37.7c35.3-56.1,99-45.3,154.3-62.5c12.8,26.4,53.3,14.4,76.5,10.8
		c46.5-16,82.9-55.3,135-29.2c54.9,2.8,122.2-18.4,158.3,36.9c20.4,14.4,66.9-6.8,86.1,16c4,1.2,10.4,6.8,13.6,4.8
		c22-14.8,6.4,48.5,8.4,56.9c20.8,31.7-13.2,49.3-38.5,60.5c-155.9,111.4-71.7-83.3-270.5,29.7c-41.7,108.6-69.7,22-137.8,41.7
		c-6.4,23.6-38.5,8.8-36.9,42.9c9.2,51.7-0.4,112.2-45.3,143.4c-30.8,11.2-36.1-5.2-51.7,30.8c-31.3-8.4-71.7-2.4-102.6-12.8
		c-14,2-55.3,2.4-50.5,24.8c0.4,32.9-34.9,53.7-47.7,82.9c-17.2-20-23.2-20.4-44.5-17.6c-45.7-44.1-76.9,26-115.8,2.4
		c-2-62.5-30.1-38.5-42.5-85.3c-20.8-34.5-40.9-36.1-62.9-2.8c-40.5,6-142.6,32-116.6-39.3c14.4-18.4-17.6-58.9-39.7-50.1
		c-14-26-39.3-6.8-46.9-29.3c-12.4-16.4-36.1-18.8-54.1-11.2c-10-4,5.6-31.7,0-41.3c-6.4-2.4-9.2,6-12.8-4.4
		c15.2-53.3,8-57.3,56.1-89.8c14.8-29.2,55.3-56.5,8-76.9c10.8-23.6,29.6,20,30.4-14c-26.4-33.3,7.2-54.1,15.2-87.7
		c4.4,1.2,18.8,6,17.2-2.8c19.6-36.1-18.4-48.5-37.3-72.9C1248.5,695.8,1182,722.6,1242.9,683.7z"/>
	<linearGradient id="SVGID_12_" gradientUnits="userSpaceOnUse" x1="477.4669" y1="1190.1443" x2="1096.1492" y2="1190.1443">
		<stop  offset="0" style="stop-color:#C39E33"/>
		<stop  offset="0.5259" style="stop-color:#FAF8D1"/>
		<stop  offset="0.9947" style="stop-color:#DEC75D"/>
	</linearGradient>
	<path class="st12" d="M486.4,1023.5c99-54.9,191.5-205.9,314.1-187.5c61.3,21.6,94.2,10,95.4,84.9c119,66.9,58.1,56.9,102.2,160.7
		c60.5,22.8,0,40.5-8.8,78.1c75.7,102.2,86.9-13.6,44.1,147.9c16.8,31.6,60.5,10.8,55.3,88.9c0.8,67.3-5.6,8.4-56.5,67.7
		c-38.9,13.6,13.2,46.9-12.8,70.1c-59.3,19.6-143.4,8-209.2,8.4c51.7-76.1-6-41.3-30.5-89.8c-14.4-20.4,54.9-53.3-19.2-52.1
		c-7.2-14.4-24-28-35.7-10c-57.3,78.9-48.9-98.2-115-79.3c-167.1,66.5-7.2-103.4-43.3-139c-16-32.5,26.4-31.3-16.8-49.3
		c-10.4-14-37.3-29.7-28-49.7C524.1,1065.2,489.2,1030.3,486.4,1023.5z"/>
	<linearGradient id="SVGID_13_" gradientUnits="userSpaceOnUse" x1="710.202" y1="970.8216" x2="1298.4417" y2="970.8216">
		<stop  offset="0" style="stop-color:#C39E33"/>
		<stop  offset="0.5259" style="stop-color:#FAF8D1"/>
		<stop  offset="0.9947" style="stop-color:#DEC75D"/>
	</linearGradient>
	<path class="st13" d="M714.4,845.2c39.7-29.2,93.4-71.7,113-118.2c4.8-10.8,24.4-3.6,33.3-10.8c8.4-2.8,24.4-18.8,29.7-6
		c23.6-90.2,49.7,79.3,140.6-54.5c9.6-5.6,24-11.6,14.8-24.8c24.4,9.2,123-27.6,78.1-50.9c-3.2-2.4-14.4-10.4-7.6-14
		c29.2,6,56.1-13.2,81.7-21.6c10,1.2,72.5-4.8,80.9-8.4c17.6-36.9,18.8,12-12,33.7c-10.4,36.1-51.7,54.1-7.6,78.9
		c16.8,12.4,2.8,35.7-15.6,35.7c-60.9,38.9,5.6,12.4-24.8,40.1c23.2,19.6,73.3,71.7,20,75.7c-2.4,30.9-42.9,46.9-19.2,76.9
		c6.8,13.6,4.8,34.5-12.8,17.6c-37.3,3.6,26.5,22.4,8.8,42.1c-26.4,21.6-28,57.3-68.1,65.7c-1.2,16,2.4,10-11.2,24.4
		c6.4,16.4-9.6,34.1-4,47.7c25.2-9.6-2.8,33.7,9.6,40.1c21.6-9.2,52.1-2.8,58.9,22c11.6-1.2,21.6,5.6,33.2,5.6
		c4.4,5.2,3.2,14.4,12.8,13.2c54.1-2.8,29.3,64.9,36.9,97c9.6,47.3-30.8,69.3-66.5,88.6c-38.9-0.4-102.2,128.2-127.8,56.5
		c8-107.8-106.6-35.3-25.2-176.7c-2-6.4-10-8-14-12.8c-135-44.1,12-88.6-35.3-114.2c-42.9-18-30.8-94.2-41.3-128.2
		c-49.3-18.4-90.6-29.2-82.1-91.8C850.6,840.8,764.1,818,714.4,845.2z"/>
	<linearGradient id="SVGID_14_" gradientUnits="userSpaceOnUse" x1="115.2178" y1="1350.495" x2="587.6757" y2="1350.495">
		<stop  offset="0" style="stop-color:#C39E33"/>
		<stop  offset="0.5259" style="stop-color:#FAF8D1"/>
		<stop  offset="0.9947" style="stop-color:#DEC75D"/>
	</linearGradient>
	<path class="st14" d="M186.3,1207.4c30.9-23.6,101.8-35.7,135-55.7c58.1-24,167.1-191.5,200.7-78.1c-17.6,38.1,70.9,50.5,39.7,78.9
		c-0.8,18.8,22,32.5,14.8,50.5c-34.1,20.4-27.2,68.5-44.9,100.2c11.2,57.7,47.7-12,48.9,45.7c0.4,30.1-16.4,21.2-12,37.7
		c-45.3,33.7,15.6,78.5-6.8,101.4c-37.7,21.6-110.2-14.8-101.4,22.8c2.8,19.6,28,36.1,37.7,51.7c14,24.1,24.8,84.1-22,64.5
		c-78.9,5.2-12.4,47.7-58.5,38.1c-39.3-15.6-60.5-38.9-63.3-84.9c-72.9-52.5-37.7-26.8-73.7-90.2c-100.2-24.8-79.3,60.5-134.6-62.1
		c-37.7-32-26.4-64.5,7.6-92.6C189.9,1293.2,130.6,1242.7,186.3,1207.4z"/>
	<linearGradient id="SVGID_15_" gradientUnits="userSpaceOnUse" x1="1450.5409" y1="2572.0718" x2="2094.4241" y2="2572.0718">
		<stop  offset="0" style="stop-color:#C39E33"/>
		<stop  offset="0.5259" style="stop-color:#FAF8D1"/>
		<stop  offset="0.9947" style="stop-color:#DEC75D"/>
	</linearGradient>
	<path class="st15" d="M2062.7,2653.1c-28.9,20-67.7-44.5-101-9.2c-26,20-70.5,56.5-48.9,92.9c4.8,8.8-15.2,50.1,4,53.7
		c-25.3,32.9-63.7,75.3-98.6,92.2c-12.4-36.5-292.9,37.3-172.7-34.1c-1.2-14-49.3,7.6-64.9-39.3c-4-18.4,18.4-15.2,30.1-18.4
		c18.4-7.2-68.5-21.6-81.7-12.8c0.8-44.1-26.4-98.6-55.3-126.6c-15.6,4.8-22-20-9.2-27.6c50.5-31.7,26.9-38.1,95.4-54.1
		c-7.2-24,18.8-21.6,24.4-48.9c0.8-23.6-22.4-44.5-12.8-68.9c-48.1-20.8-36.1-70.5-53.3-103.8c-24-9.2-30.5-33.2-20.8-56.1
		c-7.2-43.3,40.5-35.7,56.1-25.2c-15.2,20.8,8,35.3,21.2,48.5c36.5-3.6,78.5,1.2,113.4,15.2c-1.2,9.6-12,36.5-2.4,44.1
		c31.7,8.8,13.6,37.3,36.5,46.1c6.4,1.6,39.3-0.8,42.5,7.2c24.8,95,92.2-37.3,128.6-55.7c27.2-40.9-11.6-29.3,45.7-32.5
		c4.8,15.6,33.3-25.2,58.5-17.2c37.7-31.3,36.9-25.6,32.5,20.8c13.2,33.2,25.6,5.6,13.2,62.5c-2.8,34.5,42.5,112.6,14.4,144.2
		C2061.5,2584.1,2119.2,2617.4,2062.7,2653.1z"/>
	<linearGradient id="SVGID_16_" gradientUnits="userSpaceOnUse" x1="1858.3263" y1="1414.0005" x2="3426.0774" y2="1414.0005">
		<stop  offset="0" style="stop-color:#C39E33"/>
		<stop  offset="0.5259" style="stop-color:#FAF8D1"/>
		<stop  offset="0.9947" style="stop-color:#DEC75D"/>
	</linearGradient>
	<path class="st16" d="M3409.7,1471.2c-21.6,10.8-18.8,40.1-25.6,58.1c-34.9,6.8-0.4,18.4,10,28.9c-19.2,21.2-29.2,18.8-2.8,25.2
		c-32.5,53.7-42.5,49.3-88.6,19.2c-14.8,19.6-5.6,58.5-14,79.3c-39.3,33.2,4.8,30.1-39.3,58.1c124.2,99.8-81.7,63.7-105,123.4
		c-55.3,6.8-42.1,102.6-104.2,120.2c-41.3-0.8-26.9,52.1-68.9,49.3c-1.2-28.4-32.9-34.5-37.7-58.5c4.8-20.8-24-72.9-41.7-49.3
		c-20.8-3.2-54.9-18.4-76.5-17.2c-20.4,56.9-48.1-10.8-83.7,26c-8.4,20-0.8,30.4-32.5,26.4c-6.8-2.4-20-22.4-24.4-27.7
		c-9.6-6.4-36.1-12-39.7-24.8c-2.8-26.4-26.8-70.1-58.1-56.5c-80.1,52.1-55.3-94.6-149-52.9c-68.9,35.3-46.5,47.7-136.2,32.9
		c-26-47.3-89.8-64.9-138.6-74.5c-21.2-42.1-18,3.2-76.5-30.1c-1.6-29.2-15.2-61.3-26-87.7c0.8-24,9.2-32.9-11.6-52.9
		c-15.2-23.2-50.5-33.7-66.9-54.1c-22.4-66.1-86.9-161.5-44.9-220.4c-25.6-22.4-93.4-49.7-44.5-86.5c85.7,1.2,80.5-105.8,81.3-165.9
		c7.6-11.6,32-9.2,34.1-25.6l36.1-8c38.9,46.5,89,15.2,101.4-33.7c78.5-24,107.4-75.3,177.9,7.2c67.3,10.4,123-101.4,184.7-40.1
		c40.5,13.2,62.9-27.6,109-10c-1.2-6,44.9-26,48.1-29.2l47.3-46.5c8-7.6,20-49.7,38.5-35.3c18,17.2,60.5-16,56.9-37.3
		c110.2-37.7,195.1,114.2,303.3,133.4C3301.1,1190.8,3459.8,1085.4,3409.7,1471.2z"/>
	<linearGradient id="SVGID_17_" gradientUnits="userSpaceOnUse" x1="1345.8842" y1="1790.583" x2="2085.9331" y2="1790.583">
		<stop  offset="0" style="stop-color:#C39E33"/>
		<stop  offset="0.5259" style="stop-color:#FAF8D1"/>
		<stop  offset="0.9947" style="stop-color:#DEC75D"/>
	</linearGradient>
	<path class="st17" d="M1376.7,1997.2c-3.2-47.7,50.5-41.3,79.7-56.9c36.1-24.4-4-31.7,64.5-50.5c16.4-32.5-36.9-4.4-25.3-87.7
		c19.2-23.2,16.4,28,53.7-33.7c24-32.9-22.4-28.1-12.8-44.9c12.8-28-44.9-31.3-43.7-74.1c18.8-18,56.1-48.5,48.5-78.9
		c23.6-17.6,47.7,44.9,62.5-21.2c-5.6-32.5,6.4-4.8,8-23.2c102.2-43.7-7.2-119.8,81.7-147.1c-58.1-55.3,23.2-61.3,18.4-122.2
		c40.5-32.5,105.8-4.4,153.5-3.6c-4,32,73.3,46.9,56.1,66.9c-23.6,31.7,32.9,230.4,84.5,235.2c24.8,24,59.3,47.3,46.1,85.7
		c12.4,22.8,16.8,52.1,26.5,76.5c-2.8,27.2-69.7,56.5-84.1,80.1c4.8,57.3-97.8,93.8-66.1,135c10,12-7.6,27.7-20.4,25.3
		c-112.2-9.2,76.9,78.1-4,137c-14.8,16.4-47.3-11.2-36.5,13.6c-9.6,270.5-120.2,39.7-113.8,149.8c4,16.8,27.2,35.3,9.2,52.1
		c-16.4,44.5-0.4,30.1-49.3,13.2c-32,10.8-74.9-4-106.2-10.8c-29.3,10.4-71.7-12.8-52.1-48.1c-9.2-0.8-20-0.8-28.8-4.4
		c-50.9-15.2-12.4,84.5-42.9,73.7c-17.2-8.8-40.9-30.1-56.9-40.1c-91.8,9.6-86.5-85.3-46.1-138.6
		C1401.6,2121.8,1380.7,2032.8,1376.7,1997.2z"/>
	<g class="st18">
		<circle class="st19" cx="2686.1" cy="1257.2" r="61"/>
		<path class="st20" d="M2819.3,1256.8c0-73.7-59.7-133.4-133.4-133.4s-133.5,59.7-133.5,133.4c0,0-9.3,130.6,133.4,256.9
			C2828.6,1387.3,2819.3,1256.8,2819.3,1256.8z M2685.9,1313.1c-31.1,0-56.3-25.2-56.3-56.3s25.2-56.3,56.3-56.3
			s56.3,25.2,56.3,56.3S2716.9,1313.1,2685.9,1313.1z"/>
	</g>
	<g class="st18">
		<circle class="st19" cx="368.5" cy="1063.3" r="61"/>
		<path class="st20" d="M501.7,1063c0-73.7-59.7-133.4-133.4-133.4S234.8,989.3,234.8,1063c0,0-9.3,130.6,133.4,256.9
			C511,1193.5,501.7,1063,501.7,1063z M368.2,1119.3c-31.1,0-56.3-25.2-56.3-56.3c0-31.1,25.2-56.3,56.3-56.3
			c31.1,0,56.3,25.2,56.3,56.3C424.6,1094.1,399.3,1119.3,368.2,1119.3z"/>
	</g>
	<g class="st18">
		<circle class="st19" cx="1059.5" cy="571.4" r="61"/>
		<path class="st20" d="M1192.7,571c0-73.7-59.7-133.4-133.4-133.4c-73.7,0-133.5,59.7-133.5,133.4c0,0-9.3,130.6,133.4,256.9
			C1202,701.5,1192.7,571,1192.7,571z M1059.3,627.3c-31.1,0-56.3-25.2-56.3-56.3c0-31.1,25.2-56.3,56.3-56.3
			c31.1,0,56.3,25.2,56.3,56.3C1115.6,602.1,1090.4,627.3,1059.3,627.3z"/>
	</g>
	<g class="st18">
		<circle class="st19" cx="1724.3" cy="1732.3" r="61"/>
		<path class="st20" d="M1857.5,1731.9c0-73.7-59.7-133.4-133.4-133.4c-73.7,0-133.5,59.7-133.5,133.4c0,0-9.3,130.6,133.4,256.9
			C1866.8,1862.5,1857.5,1731.9,1857.5,1731.9z M1724,1788.2c-31.1,0-56.3-25.2-56.3-56.3s25.2-56.3,56.3-56.3
			c31.1,0,56.3,25.2,56.3,56.3S1755.1,1788.2,1724,1788.2z"/>
	</g>
	<g class="st18">
		<circle class="st19" cx="1785.4" cy="2408.6" r="61"/>
		<path class="st20" d="M1918.6,2408.2c0-73.7-59.7-133.4-133.4-133.4c-73.7,0-133.5,59.7-133.5,133.4c0,0-9.3,130.6,133.4,256.9
			C1927.9,2538.8,1918.6,2408.2,1918.6,2408.2z M1785.1,2464.5c-31.1,0-56.3-25.2-56.3-56.3c0-31.1,25.2-56.3,56.3-56.3
			c31.1,0,56.3,25.2,56.3,56.3C1841.5,2439.3,1816.2,2464.5,1785.1,2464.5z"/>
	</g>
</g>
<g id="Capa_1">
	<path class="st21" d="M1121.4,2146.1c-9.9-0.8-39.3,16.3-48.5,20.3c-13.5-35.4-47.3-64.8-64.4-98.1c-40.5-5.6-114,27.4-85.8-42.5
		c-0.8-10.7-22.2-25.8-15.1-34.2c26.2-27,78.3-62.8,95.3-96.9c17.1-20.3,42.9-41.7,71.1-36.2c15.5-27.4-5.6-21.4,29.8-39.7
		c29-29,3.2-65.6,21.1-68.3c24.6,13.9,53.6-19.9,72.3-31.4c25.4,37.3,79.9,45.3,121.2,58.8c30.6-11.5,37.3-26.2,49.7,15.1
		c-0.4,19.5,9.5,38.5-9.5,52.4c-43.7,10.7-89.4,30.6-136.3,29c-9.9,0.4-4,17.1-4,22.6c64,24.2,21.5,29,34.6,49.7
		c34.6,9.5,77.9,30.6,70.3,73.1c96.1-104.9,81.8,139.4,33,172c-33.8,1.2-26.6-21.8-79.1-9.1c-25.8-13.9-38.5-32.2-52.8-55.6
		c-26.6-1.6-22.2,31.4-55.6,17.9C1139.3,2143.3,1157.9,2167.6,1121.4,2146.1z"/>
	<path class="st21" d="M1225.9,2531.5c33-10.3,117.6-53.2,53.2-84.6c-55.6,21.8-20.3-60.4-9.1-82.2c-8.3-52.8,27.4-73.1,17.1-96.5
		c21.5-76.7,44.5-40.9-9.1-84.6c19.1-4,48.1-6.8,62.4,9.1c42.9-4-18.3,63.6,52,88.6c37.7-0.8,64.4,22.2,94.2,42.9
		c27-2.4,52.1,26.6,42.1,56c19.1,51.3,75.5,89.4,50.5,150.2c-28.2,27.8-17.5-14.3-54.8-0.8c-20.3-17.9-42.5,11.1-32.6,33.4
		c-6.8,8-66.3,15.9-65.6,0.8c3.6-1.6,13.9,3.2,11.1-4.8c-46.5-24.2-72.7,24.6-48.5-27.4c-30.2-1.6,10.7-73.9-34.6-36.2
		c-11.5,6-3.2,23-0.4,31.4c-9.1,25.4-40.1,48.5-67.9,39.7c-8.3-10.3-37.3-10.3-33.8-27C1245.3,2535,1233,2535.8,1225.9,2531.5z
		 M1381.2,2623.6c11.9,23.8-21.8,42.1-40.1,27C1338.7,2618.1,1340.7,2623.6,1381.2,2623.6z M1376,2561.3c9.1,7.6,38.9-11.5,39.7,2.4
		c-31.4,8.3,12.7,33-15.9,48.9c-14.7-7.5-61.2-10.7-50.1-35.4C1355.4,2568.4,1363.3,2551.7,1376,2561.3z"/>
	<path class="st21" d="M47.2,1732.2c-23,0.4-15.9-48.5,0.8-54.8c31-9.9,53.2-49.7,76.7-72.3c23-19.5,63.2,26.2,69.1-19.9
		c2.8-12.7-6.4-47.7,0-59.2c9.5-6.4,12.7-20.7,7.5-30.6c30.2-10.3,86.6-27,104.9,8.7c-4.4,47.7,77.9,57.2,65.9,104.5
		c7.9,29,49.3,58.4,77.9,50.9c-16.3-32.2,31.8-40.1,53.6-33.4c58.8-15.5,9.5,64,5.6,86.6c-19.1,25.8-85-5.6-48.9,40.9
		c-37.3,7.2-31-22.2-50.1-15.1c5.2,58-101.3,46.1-73.5,108.8c1.2,11.5,2,35.8,0.8,46.9c-8.3-35.7-46.9-50.5-48.5-90.2
		c-18.3-14.7-55.6,2.8-43.7-33c-10.7-48.9-34.6-11.1-49.7,10.7C147.3,1766.3,98,1738.5,47.2,1732.2z"/>
	<path class="st21" d="M701.9,2178.7c15.1-15.1,0-36.2-4.4-52.4c1.2-13.5,9.1-29,0-41.3c30.6-40.9,115.2-54.4,131.9-103.7
		c18.3-14.7-0.4-50.5,2-70.3c10.3-38.9-31.8-29-54-37.3c-44.1-21.9,6.4-18.3-18.3-91c-28.6-16.7-71.1-42.5-58.4-85.4
		c75.5-31.4,105.3,8.3,135.5-93c-17.5-107.7-39.7-42.1,122.8-67.9c22.3,5.6,49.7,12.3,67.9-4.8c8.3,21.1,36.2,20.7,54.4,26.6
		c47.3,15.1,29,59.6,73.5,76.7c8.7,4.4,8.7,14.3,7.2,23c11.5,12.3,41.3,40.5,38.9,58.8c-27.4,25.8-50.1,36.9-81.8,38.9
		c0.4,26.2,0.8,64-31.8,72.3c-13.5,26.6-7.5,35.4-45.7,32.2c-45.7,40.1-89,96.1-136.3,133.9c15.1,21.9,19.5,50.1,9.5,73.5
		c-22.6-8.7-25.4,19.1-10.3,29.4c3.2,23.8-18.3,5.2-28.2,22.6c-6.4,18.7-22.2,17.9-37.7,22.6c-4.4,14.3-11.5,6.4-22.6,4.8
		c-13.5-2.8-2,19.1-14.7,14.7C768.2,2142.9,734.4,2180.7,701.9,2178.7z"/>
	<path class="st21" d="M4837.8,1267c-13.1-3.6-147,29.4-110-4.8c-36.6-6.8-54.8,7.2-80.6-14.7c-17.1-21.8-14.7,32.2-62.8,31
		c-15.5-7.5-15.5-29.8-38.5-23c-5.2,3.2,0.8,8.7,2.8,11.9c-6,4.8-5.6,15.5-6,22.3c-5.2-3.6-6.8-9.5-11.9-3.6
		c-4,17.1,9.9,23-14.3,14.7c14.3,14.3-17.9,17.9-25,29.8c-41.3,6.4-6,53.6-54,23.4c-82.6-4.8-30.2,32.6-48.1,39.7
		c-2.4-12.3-16.3-11.9-26.2-10.7c15.9,37.3-92.6,2-42.1,38.5c-29.4-6.4-46.1,30.6-68.3,10.3c13.1,26.6-17.9-6.8-26.6-10.3
		c-1.6,7.9-7.6,25.4,0,32.2l-76.3,4c-18.3-1.2-8.7-2-18.7-9.9c-7.9-0.4-23,3.6-25.8-7.2c-9.9-7.2-22.3-17.1-31.8-3.6
		c27.4,56.8,41.3,27-46.5,56.4c-111.6-91.8-26.6,8.7-81,37.3c-65.6-10.3-29.4,0-58-38.5c-18.7,39.3-58.8,79.5-104.1,73.1
		c-20.7-25.4-36.1,10.7-22.6-29c-10.7-2.4-63.6,0.8-73.5-5.6c-15.5-8-43.7-22.3-58.8-6c-11.1-22.2-31.8-71.1-52-73.5
		c25.8-53.2-72.7-53.2-105.7-39.7c-166.9,292.4-33-879.2-73.9-936.4c76.7,35,184.7,63.2,260.2,98.1c-27.8,32.2-15.1,93.4,35.8,69.1
		c3.6-6.4-0.8-28.6,12.3-23c8.7,27.4,35.8,13.9,56.4,18.7c38.9,4.8,25.8,9.1,56.8-8.7c-41.7-22.6-118.8-8.3-145.8-54
		c74.7,16.3,175.6,35,251.9,36.2c154.5,88.2,271.3,272.5,445.7,325.4c11.1,12.3,4,19.9-10.7,19.5c-20.7-6-42.1-33.4-64.4-36.2
		c-6.8-19.5-83.8-8.7-54-30.2c-16.3-27.4-28.6-36.2-56-40.5c-38.5-38.1-46.5,14.3-65.2,4c-33.4-10.7-15.1-4.8-5.6-26.6
		c-57.6-17.5-8.7,31.8-8.7,49.3c-15.9,12.3-24.6-59.2-47.3-53.2c-23.8,7.5-31,6.4-54.8,1.6c5.6,38.5,33.4,16.7,22.6,44.9
		c0,5.2-5.2,11.1,3.6,9.5c35.4-59.6,32.6-50.1,62,7.5c11.5,26.6-8.7,17.5-20.3,34.6c6.8,33.4,33,66.7,68.3,70.7c12.3-4.8,2-23,0-31
		c10.3,7.2,21.8,18.7,23,31.4c-23.8,48.1,57.2,13.5,56.8,29c-58,7.9,26.2,69.9,55.6,42.9c52-15.9,12.7-27.8-13.5-42.9
		c-9.9-10.3-9.5-18.3-26.6-17.1c-32.2-5.2-138.2-58-63.6-76.3c19.5,10.3,81,27.4,84.2,55.2c21.1,18.7,57.6,13.5,69.1,43.7
		c-11.1,8.3-27,16.3-3.2,18.7c44.5-37.7,5.2,62,36.1,57.6c7.2-4.4-0.8-19.1,9.5-16.3c11.9,41.7,18.3-34.6,81.8-26.6
		c-2.4-52,35-21.8,68.7-19.5c6.8-2,21.1-4.8,8.3,7.2c6,14.3,10.7,46.9-8.3,53.6c-20.7-6-1.6-26.2-36.9-25.8
		c-10.3,6.8-41.7,64.8-8.3,44.1c-6.4-6.8-6-23.8,5.6-21.8c0,46.9,24.6,49.3,47.3,11.5c19.5-14.7,62-8.7,24.6-40.9
		c-7.2-16.7-10.3-56.8-35.4-36.5c-13.5-8.3-32.6-23-47.7-10.3c-7.2-4.4-2-10.3,0-16.3c-7.9,0.4-38.1-10.7-45.7-13.9
		c-144.2-114,161.3,56.8,201.4,61.2C4727,1130.3,4656.3,1226.4,4837.8,1267z"/>
	<path class="st21" d="M2963.1,2027.3c-35.8,4-23,27.4-65.2,33.8c6.8,19.5-21.1,8.3-29.8,25.4c-11.5,10.7-27.8-3.2-35.4,6.4
		c6,20.3-29.8,62,2.8,67.1c9.1,12.7,0.8,32.2-10.7,40.9c-9.1-8.3-13.5-15.1-27.8-13.5c-37.3,8-48.5-24.6-64-50.5
		c-13.9-9.1-27-7.9-41.7-2.4c-23-12.7-60.4-57.6-87-70.3c-3.6-54.4,35.8-56.8-63.2-32.6c-19.1,16.3-18.7,44.5-48.5,50.5
		c-25.4,32.6-72.7,87-97.3,120.8c-4,25.4-15.1,53.6-45.3,54.8c-69.9,9.9-39.3-19.5-115.6-9.5c-29-26.6-85-5.2-118.8-0.4
		c-35.3-9.5-89.8-2.4-84.2,45.3c-41.7,17.5-78.3,49.3-123.9,37.3c1.2,46.5-58.8,48.9-64.4,87c-20.7,30.6-69.9,57.2-76.3,1.2
		c-36.2-15.9-48.9,7.1-63.2-42.5c-29.4-21.9-19.1-20.3-12.7-54c38.1-24.2,62.4,38.1,73.1-21.1c22.2-25-23.8-42.9-6.8-83
		c9.1-19.1,32.6,24.6,59.2,21.5c54-9.1,41.7-98.9,50.9-138.7c-15.5-32.6,52.8,33,56-70.7c-23.8-44.5-108.5-85.8,0-81
		c7.5-12.3,12.3-24.2-6.4-27c4.4-26.6,33-60.8,56-77.1c14.7-50.9,58-92.6,103.3-121.2c56.4,26.6,30.2,6.8,64.4,12.7
		c19.9,26.2,7.2,19.1,39.7,22.2c40.5,11.5,88.2,31,109.2,68.7c93.4,38.9,172.4-116.4,227.6,19.9c35.8,14.3,36.9,17.9,64.8-3.2
		c34.6,2,42.1,39.3,52,65.1c30.6,5.6,58,68.7,87,38.5c2.8-40.5,42.1-30.6,67.1-18.3c30.2-44.9,42.9-16.7,98.9-9.9
		c20.3-22.6,44.1,37.7,40.5,57.6C2943.3,2001.1,2953.2,1988,2963.1,2027.3z"/>
	<path class="st21" d="M3396.9,1470c-21.5,10.7-18.7,39.7-25.4,57.6c-34.6,6.8-0.4,18.3,9.9,28.6c-19.1,21.1-29,18.7-2.8,25
		c-32.2,53.2-42.1,48.9-87.8,19.1c-14.7,19.5-5.6,58-13.9,78.7c-38.9,33,4.8,29.8-38.9,57.6c123.2,98.9-81,63.2-104.1,122.4
		c-54.8,6.8-41.7,101.7-103.3,119.2c-40.9-0.8-26.6,51.6-68.3,48.9c-1.2-28.2-32.6-34.2-37.3-58c4.8-20.7-23.8-72.3-41.3-48.9
		c-20.7-3.2-54.4-18.3-75.9-17.1c-20.3,56.4-47.7-10.7-83,25.8c-8.3,19.9-0.8,30.2-32.2,26.2c-6.8-2.4-19.9-22.2-24.2-27.4
		c-9.5-6.4-35.8-11.9-39.3-24.6c-2.8-26.2-26.6-69.5-57.6-56c-79.5,51.6-54.8-93.8-147.8-52.4c-68.3,35-46.1,47.3-135.1,32.6
		c-25.8-46.9-89-64.4-137.5-73.9c-21.1-41.7-17.9,3.2-75.9-29.8c-1.6-29-15.1-60.8-25.8-87c0.8-23.8,9.1-32.6-11.5-52.4
		c-15.1-23-50.1-33.4-66.3-53.6c-22.3-65.5-86.2-160.1-44.5-218.5c-25.4-22.2-92.6-49.3-44.1-85.8c85,1.2,79.9-104.9,80.6-164.5
		c7.6-11.5,31.8-9.1,33.8-25.4l35.8-7.9c38.5,46.1,88.2,15.1,100.5-33.4c77.9-23.8,106.5-74.7,176.4,7.2
		c66.7,10.3,122-100.5,183.1-39.7c40.1,13.1,62.4-27.4,108.1-9.9c-1.2-6,44.5-25.8,47.7-29l46.9-46.1c8-7.5,19.9-49.3,38.1-35
		c17.9,17.1,60-15.9,56.4-36.9c109.3-37.3,193.5,113.2,300.7,132.3C3289.3,1191.9,3446.6,1087.4,3396.9,1470z"/>
	<path class="st21" d="M2289,632.1c57.6,47.7,136.3-29.8,178-66.7c38.5-25.8,130.7-15.1,173.2-24.2c57.6-31.4,96.1-85,0-87
		c-96.5-33.8,261.8,6.4,227.6,61.6c19.5-21.5,23.4-6.4,44.1,10.7c157.7,75.5,285.2,50.9,426.7-51.6l58.4-1.2
		c-32.6-19.9,65.1,932-46.1,680.9c-121.6-94.9-124.7-19.5-232-195.1c-13.9-20.7-89-46.1-111.6-54.8c-31.8-29.8-100.5-86.6-141-102.1
		c-17.5-9.1-28.6,9.9-44.1,1.2c-24.2-20.3-28.2,7.5-38.5,21.8c-18.7,18.7-36.1,27.8-59.6,13.9c-18.7,19.5-50.5,66.3-74.7,83.8
		c-20.7,8.3-50.8,36.9-71.9,23.8c-46.1,16.7-89.4,24.2-130.7-10.3c-8.3-13.5,5.6-108.9-15.5-87c-41.7-29.8-96.9-3.2-129.5-51.2
		c42.9-23.8,53.6-18.3,42.5-74.3c-36.2-7.9-18.3-16.3-39.7-37.7C2283.8,673.4,2278.2,648,2289,632.1z"/>
	<path class="st21" d="M2061.3,2640.7c-28.6,19.9-67.1-44.1-100.1-9.1c-25.8,19.9-69.9,56-48.5,92.2c4.8,8.7-15.1,49.7,4,53.2
		c-25,32.6-63.2,74.7-97.7,91.4c-12.3-36.2-290.4,36.9-171.2-33.8c-1.2-13.9-48.9,7.5-64.4-38.9c-4-18.3,18.3-15.1,29.8-18.3
		c18.3-7.2-67.9-21.4-81-12.7c0.8-43.7-26.2-97.7-54.8-125.5c-15.5,4.8-21.9-19.9-9.1-27.4c50.1-31.4,26.6-37.7,94.6-53.6
		c-7.2-23.8,18.7-21.5,24.2-48.5c0.8-23.4-22.2-44.1-12.7-68.3c-47.7-20.7-35.7-69.9-52.8-102.9c-23.8-9.1-30.2-33-20.7-55.6
		c-7.2-42.9,40.1-35.4,55.6-25c-15.1,20.7,7.9,35,21.1,48.1c36.1-3.6,77.9,1.2,112.4,15.1c-1.2,9.5-11.9,36.1-2.4,43.7
		c31.4,8.7,13.5,36.9,36.1,45.7c6.4,1.6,38.9-0.8,42.1,7.2c24.6,94.2,91.4-36.9,127.5-55.2c27-40.5-11.5-29,45.3-32.2
		c4.8,15.5,33-25,58-17.1c37.3-31,36.5-25.4,32.2,20.7c13.1,33,25.4,5.6,13.1,62c-2.8,34.2,42.1,111.6,14.3,143
		C2060.1,2572.4,2117.3,2605.4,2061.3,2640.7z"/>
	<path class="st21" d="M1026.8,1531.5c22.2-21.5-9.9-39.3,0-62c11.5-6,31.8-24.2,40.1-35c34.2-1.2,27.4-12.7,28.2-40.1
		c7.9,56.4,57.6-8.7,78.7-17.5c28.2-53.2,128.3-48.9,114-126.3c28.6,0,87.8,1.6,114.4-7.9c42.9-66.7,60,27.8,95.4,43.3
		c7.1,21.5,0.8,57.2,35,50.5c27-20.3,59.2-34.2,89.4-8.7c25.8-2.8,22.3-4,44.1,17.5c15.5,4.4,40.1,29.8,16.3,40.1
		c-7.6,1.6-20.7-0.8-23,8.7c-2.8,44.9,16.3,112.4-44.5,125.5c-1.6,6-1.2,14.7-8.7,6.8c2.4,20.7-11.1,70.7-36.5,40.5
		c-8.3,3.2-21.1-12.7-25-0.8c1.6,67.5-98.1,75.9-4,137.4c-4,29.4,4.8,20.7,20.3,42.1c-11.9,27-27.8,54.8-59.2,45.7
		c-30.6,78.3,82.6,71.5-18.3,108.9c-9.1,38.9-46.1,42.5-79.1,48.5c-34.6,54.8-40.1,31-80.2,71.1c7.5-48.9-39.3-59.6-73.1-75.9
		c-0.8-17.5,13.5-19.5-5.2-35.4l-26.6-11.1c0-6.4-6.8-23.4,5.2-22.6c19.9-0.8,49.7-4.8,70.3-7.9c16.3-2.8,29.4-19.9,45.3-15.5
		c46.1-4.4,31.8-55.2,17.1-84.6c-44.9,20.3-95.3-7.6-140.6-24.2c-31.8-30.2-4.4-18.7-20.7-44.1c-8.4-15.9-38.9-36.1-33.4-55.6
		c-18.3-18.3-39.3-13.5-40.5-47.7C1108.3,1550.2,1047.5,1565.7,1026.8,1531.5z"/>
	<path class="st21" d="M552.5,2051.2c2.8-17.9-16.7-24.2-31-24.2c-29.4-10.7,18.3-77.9-35.8-45.7c-82.6,17.9-46.9-115.2-138.6-67.9
		c-19.1-12.7-5.2-47.3-10.7-66.7c-13.5-33.8,2-27,19.5-56c81.4-19.9,34.2-54.8,64-54c7.9,14.7,24.6,19.1,40.1,16.7
		c-9.1-5.2-16.7-39.3,0-28.2c17.9,4.8,52-2.4,53.6-25c28.2-76.7,16.7-122.4-32.2-171.2c-48.9-83.4,119.2,5.2,95.3-67.5
		c-40.5-51.3,31-85.4,11.5-138.7c82.6-50.1,77.5,67.1,127.1,90.2c45.3-54.4,32.6-20.3,91.8-4c-68.3,90.6,84.2,41.3,12.7,131.5
		c9.1,8.3,13.5,53.2,16.3,64.8c-24.2,135.9-154.9,29-132.7,132.3c30.6,49.3,39.3,24.2,55.6,46.1c15.5,112.4-23.4,72.7,72.7,106.1
		c29.4,142.2-54.4,115.6-128.7,195.1C688.7,2064.3,579.1,2044.4,552.5,2051.2z"/>
	<path class="st21" d="M1294.2,528c27-8.7,53.6,27.4,78.7,26.6c-16.3-19.9,11.5-27.4,26.6-38.1c-4,9.5-30.2,30.6-13.5,38.1
		c27.8,22.2,87.8,106.9,128.7,71.9c7.6-19.9,20.7-18.3,38.9-16.7c12.7-16.7,7.9-25,35.4-25.4c139,22.2,311.9,120.4,442.6,35
		c58,49.7,269.3-55.2,253.9,45.3c16.7,17.1,28.2,49.7,50.5,57.6c30.6,33,5.2,61.2-34.6,76.3c-56-18.3-117.2-2-174.8-15.9
		c-41.3,11.5-79.5,48.1-124.7,41.7c-57.6-18.7-66.7,0.8-125.1-0.8c-12.3-2.8-35.4,21.1-43.3,27.8c-22.6,25.8-117.6,75.1-150.6,71.9
		c-36.9-4-85.4-34.2-117.2-11.1c-56.8,0.8-29-82.2-72.7-77.9c-29,20.3-73.1,24.2-108.1,27.4c-84.2-50.1-18.3-122-137.1-173.2
		c56.4-16.7-6.4-40.1-5.6-66.3c13.9-15.9,26.2-35.4,33.4-54.8C1292.6,553.9,1300.1,550.3,1294.2,528z"/>
	<path class="st21" d="M1248.5,688.1c60.8,30.6,86.6,67.5,94.2,133.9c31.8,58.4,103.7,38.1,150.6,11.9c35-8.7,20.7,38.1,35.4,55.2
		c22.2,42.5,57.2-2,84.2,19.9c83,29,127.9-1.6,200.6-37.3c35-55.6,98.1-44.9,152.9-62c12.7,26.2,52.8,14.3,75.9,10.7
		c46.1-15.9,82.2-54.8,133.9-29c54.4,2.8,121.2-18.3,156.9,36.5c20.3,14.3,66.3-6.8,85.4,15.9c4,1.2,10.3,6.8,13.5,4.8
		c21.9-14.7,6.4,48.1,8.3,56.4c20.7,31.4-13.1,48.9-38.1,60c-154.5,110.4-71.1-82.6-268.2,29.4c-41.3,107.7-69.1,21.9-136.7,41.3
		c-6.4,23.4-38.1,8.7-36.5,42.5c9.1,51.2-0.4,111.2-44.9,142.2c-30.6,11.1-35.8-5.2-51.3,30.6c-31-8.3-71.1-2.4-101.7-12.7
		c-13.9,2-54.8,2.4-50.1,24.6c0.4,32.6-34.6,53.2-47.3,82.2c-17.1-19.9-23-20.3-44.1-17.5c-45.3-43.7-76.3,25.8-114.8,2.4
		c-2-62-29.8-38.1-42.1-84.6c-20.7-34.2-40.5-35.8-62.4-2.8c-40.1,6-141.4,31.8-115.6-38.9c14.3-18.3-17.5-58.4-39.3-49.7
		c-13.9-25.8-38.9-6.8-46.5-29c-12.3-16.3-35.8-18.7-53.6-11.1c-9.9-4,5.6-31.4,0-40.9c-6.4-2.4-9.1,6-12.7-4.4
		c15.1-52.8,7.9-56.8,55.6-89c14.7-29,54.8-56,8-76.3c10.7-23.4,29.4,19.9,30.2-13.9c-26.2-33,7.2-53.6,15.1-87
		c4.4,1.2,18.7,6,17.1-2.8c19.5-35.8-18.3-48.1-36.9-72.3C1254.1,700,1188.1,726.7,1248.5,688.1z"/>
	<path class="st21" d="M498.5,1025c98.1-54.4,189.9-204.2,311.5-185.9c60.8,21.5,93.4,9.9,94.6,84.2c118,66.3,57.6,56.4,101.3,159.3
		c60,22.6,0,40.1-8.7,77.5c75.1,101.3,86.2-13.5,43.7,146.6c16.7,31.4,60,10.7,54.8,88.2c0.8,66.7-5.6,8.3-56,67.1
		c-38.5,13.5,13.1,46.5-12.7,69.5c-58.8,19.5-142.2,8-207.4,8.3c51.2-75.5-6-40.9-30.2-89c-14.3-20.3,54.4-52.8-19.1-51.6
		c-7.2-14.3-23.8-27.8-35.4-9.9c-56.8,78.3-48.5-97.3-114-78.7c-165.7,65.9-7.2-102.5-42.9-137.9c-15.9-32.2,26.2-31-16.7-48.9
		c-10.3-13.9-36.9-29.4-27.8-49.3C535.8,1066.3,501.2,1031.8,498.5,1025z"/>
	<g>
		<path class="st21" d="M1802.4,372.8c18.3,42.3-51.1,31.3-76.9,57.3C1654,399.6,1767.2,374.3,1802.4,372.8z"/>
		<path class="st21" d="M2048.6,224.2c21.8-95.7,342.6-168,365.7-129.5c-114.5-2.4-205.2,73-312.9,103.4
			C2087.1,206.9,2054,258.3,2048.6,224.2z"/>
		<path class="st21" d="M2677.2,57.4c37-95,126.6-22.5,60.8-20.5c-11.1,36.3-65,49.4-93,76C2639.2,95.5,2660.3,63.8,2677.2,57.4z"/>
	</g>
</g>
<g id="Capa_4">
	<path class="st22" d="M200.9,1207.4c30.6-23.4,100.9-35.4,133.9-55.2c57.6-23.8,165.7-189.9,199-77.5
		c-17.5,37.7,70.3,50.1,39.3,78.3c-0.8,18.7,21.8,32.2,14.7,50.1c-33.8,20.3-27,67.9-44.5,99.3c11.1,57.2,47.3-11.9,48.5,45.3
		c0.4,29.8-16.3,21.1-11.9,37.3c-44.9,33.4,15.5,77.9-6.8,100.5c-37.3,21.5-109.2-14.7-100.5,22.6c2.8,19.5,27.8,35.7,37.3,51.2
		c13.9,23.8,24.6,83.4-21.8,64c-78.3,5.2-12.3,47.3-58,37.7c-38.9-15.5-60-38.5-62.8-84.2c-72.3-52-37.3-26.6-73.1-89.4
		c-99.3-24.6-78.7,60-133.5-61.6c-37.3-31.8-26.2-64,7.5-91.8C204.5,1292.4,145.7,1242.3,200.9,1207.4z"/>
	<path class="st22" d="M724.5,848.2c39.3-29,92.6-71.1,112-117.2c4.8-10.7,24.2-3.6,33-10.7c8.3-2.8,24.2-18.7,29.4-6
		c23.4-89.4,49.3,78.7,139.4-54c9.5-5.6,23.8-11.5,14.7-24.6c24.2,9.1,122-27.4,77.5-50.5c-3.2-2.4-14.3-10.3-7.6-13.9
		c29,6,55.6-13.1,81-21.5c9.9,1.2,71.9-4.8,80.2-8.3c17.5-36.5,18.7,11.9-11.9,33.4c-10.3,35.8-51.3,53.6-7.5,78.3
		c16.7,12.3,2.8,35.4-15.5,35.4c-60.4,38.5,5.6,12.3-24.6,39.7c23,19.5,72.7,71.1,19.9,75.1c-2.4,30.6-42.5,46.5-19.1,76.3
		c6.8,13.5,4.8,34.2-12.7,17.5c-36.9,3.6,26.2,22.2,8.7,41.7c-26.2,21.5-27.8,56.8-67.5,65.2c-1.2,15.9,2.4,9.9-11.1,24.2
		c6.4,16.3-9.5,33.8-4,47.3c25-9.5-2.8,33.4,9.5,39.7c21.5-9.1,51.6-2.8,58.4,21.9c11.5-1.2,21.4,5.6,33,5.6
		c4.4,5.2,3.2,14.3,12.7,13.1c53.6-2.8,29,64.4,36.5,96.1c9.5,46.9-30.6,68.7-65.9,87.8c-38.5-0.4-101.3,127.1-126.7,56
		c7.9-106.9-105.7-35-25-175.2c-2-6.4-9.9-8-13.9-12.7c-133.9-43.7,11.9-87.8-35-113.2c-42.5-17.9-30.6-93.4-40.9-127.1
		c-48.9-18.3-89.8-29-81.4-91C859.6,843.9,773.8,821.2,724.5,848.2z"/>
	<path class="st22" d="M1381.2,1990.4c-3.2-47.3,50.1-40.9,79.1-56.4c35.8-24.2-4-31.4,64-50.1c16.3-32.2-36.5-4.4-25-87
		c19.1-23,16.3,27.8,53.2-33.4c23.8-32.6-22.3-27.8-12.7-44.5c12.7-27.8-44.5-31-43.3-73.5c18.7-17.9,55.6-48.1,48.1-78.3
		c23.4-17.5,47.3,44.5,62-21.1c-5.6-32.2,6.4-4.8,8-23c101.3-43.3-7.2-118.8,81-145.8c-57.6-54.8,23-60.8,18.3-121.2
		c40.1-32.2,104.9-4.4,152.2-3.6c-4,31.8,72.7,46.5,55.6,66.3c-23.4,31.4,32.6,228.4,83.8,233.2c24.6,23.8,58.8,46.9,45.7,85
		c12.3,22.6,16.7,51.7,26.2,75.9c-2.8,27-69.1,56-83.4,79.4c4.8,56.8-96.9,93-65.6,133.9c9.9,11.9-7.5,27.4-20.3,25
		c-111.2-9.1,76.3,77.5-4,135.9c-14.7,16.3-46.9-11.1-36.2,13.5c-9.5,268.2-119.2,39.3-112.8,148.6c4,16.7,27,35,9.1,51.7
		c-16.3,44.1-0.4,29.8-48.9,13.1c-31.8,10.7-74.3-4-105.3-10.7c-29,10.3-71.1-12.7-51.6-47.7c-9.1-0.8-19.9-0.8-28.6-4.4
		c-50.5-15.1-12.3,83.8-42.5,73.1c-17.1-8.7-40.5-29.8-56.4-39.7c-91,9.5-85.8-84.6-45.7-137.4
		C1405.8,2113.9,1385.2,2025.7,1381.2,1990.4z"/>
</g>
<g id="Capa_3">
	<g>
		<circle class="st19" cx="378.5" cy="1080.6" r="61"/>
		<path class="st20" d="M511.7,1080.3c0-73.7-59.7-133.4-133.4-133.4s-133.4,59.7-133.4,133.4c0,0-9.3,130.5,133.4,256.8
			C521,1210.8,511.7,1080.3,511.7,1080.3z M378.3,1136.6c-31.1,0-56.3-25.2-56.3-56.3c0-31.1,25.2-56.3,56.3-56.3
			c31.1,0,56.3,25.2,56.3,56.3C434.7,1111.4,409.4,1136.6,378.3,1136.6z"/>
	</g>
	<g>
		<circle class="st19" cx="1067.4" cy="543.5" r="61"/>
		<path class="st20" d="M1200.6,543.1c0-73.7-59.7-133.4-133.4-133.4s-133.4,59.7-133.4,133.4c0,0-9.3,130.5,133.4,256.8
			C1209.9,673.6,1200.6,543.1,1200.6,543.1z M1067.2,599.4c-31.1,0-56.3-25.2-56.3-56.3c0-31.1,25.2-56.3,56.3-56.3
			c31.1,0,56.3,25.2,56.3,56.3C1123.5,574.2,1098.2,599.4,1067.2,599.4z"/>
	</g>
	<g>
		<circle class="st19" cx="1732" cy="1700" r="61"/>
		<path class="st20" d="M1865.2,1699.6c0-73.7-59.7-133.4-133.4-133.4s-133.4,59.7-133.4,133.4c0,0-9.3,130.5,133.4,256.8
			C1874.5,1830.1,1865.2,1699.6,1865.2,1699.6z M1731.8,1755.9c-31.1,0-56.3-25.2-56.3-56.3c0-31.1,25.2-56.3,56.3-56.3
			c31.1,0,56.3,25.2,56.3,56.3C1788.1,1730.7,1762.8,1755.9,1731.8,1755.9z"/>
	</g>
	
		<image style="overflow:visible;" width="330" height="180" xlink:href="../../../../../../Users/florianaelsegood/Desktop/Captura de pantalla 2022-01-05 a la(s) 20.42.14.png"  transform="matrix(14.9576 0 0 14.9576 4956.5454 23.4329)">
	</image>
</g>
</svg>
