<?xml version="1.0" encoding="utf-8"?>
<!-- Generator: Adobe Illustrator 22.0.1, SVG Export Plug-In . SVG Version: 6.00 Build 0)  -->
<svg version="1.1" xmlns="http://www.w3.org/2000/svg" xmlns:xlink="http://www.w3.org/1999/xlink" x="0px" y="0px"
	 viewBox="0 0 4877 2886.7" style="enable-background:new 0 0 4877 2886.7;" xml:space="preserve">
<style type="text/css">
	.st0{display:none;}
	.st1{display:inline;fill:#F1F6F5;stroke:#002857;stroke-width:14.1732;stroke-miterlimit:10;}
	.st2{display:inline;}
	.st3{fill:#F1F6F5;stroke:#002857;stroke-width:14.1732;stroke-miterlimit:10;}
	.st4{fill:#009ED6;stroke:#002857;stroke-width:14.1732;stroke-miterlimit:10;}
	.st5{fill:#FFFFFF;}
	.st6{fill:#002857;}
</style>
<g id="machte" class="st0">
	<path class="st1" d="M1110.7,2147.6c-10-0.8-39.7,16.5-49,20.5c-13.6-35.7-47.8-65.4-65-99.1c-40.9-5.6-115.2,27.7-86.7-43
		c-0.8-10.8-22.5-26.1-15.3-34.5c26.5-27.3,79.1-63.4,96.3-97.9c17.3-20.5,43.4-42.2,71.9-36.5c15.7-27.7-5.6-21.7,30.1-40.1
		c29.3-29.3,3.2-66.2,21.3-69c24.9,14,54.2-20.1,73.1-31.7c25.7,37.7,80.7,45.8,122.4,59.4c30.9-11.6,37.7-26.5,50.2,15.3
		c-0.4,19.7,9.6,38.9-9.6,53c-44.2,10.8-90.3,30.9-137.7,29.3c-10,0.4-4,17.3-4,22.9c64.6,24.5,21.7,29.3,34.9,50.2
		c34.9,9.6,78.7,30.9,71,73.9c97.1-106,82.7,140.9,33.3,173.8c-34.1,1.2-26.9-22.1-79.9-9.2c-26.1-14-38.9-32.5-53.4-56.2
		c-26.9-1.6-22.5,31.7-56.2,18.1C1128.8,2144.8,1147.7,2169.3,1110.7,2147.6z"/>
	<path class="st1" d="M1216.3,2537c33.3-10.4,118.8-53.8,53.8-85.5c-56.2,22.1-20.5-61-9.2-83.1c-8.4-53.4,27.7-73.9,17.3-97.5
		c21.7-77.5,45-41.3-9.2-85.5c19.3-4,48.6-6.8,63,9.2c43.4-4-18.5,64.2,52.6,89.5c38.1-0.8,65,22.5,95.1,43.4
		c27.3-2.4,52.6,26.9,42.6,56.6c19.3,51.8,76.3,90.3,51,151.7c-28.5,28.1-17.7-14.4-55.4-0.8c-20.5-18.1-43,11.2-32.9,33.7
		c-6.8,8-67,16.1-66.2,0.8c3.6-1.6,14,3.2,11.2-4.8c-47-24.5-73.5,24.9-49-27.7c-30.5-1.6,10.8-74.7-34.9-36.5
		c-11.6,6-3.2,23.3-0.4,31.7c-9.2,25.7-40.5,49-68.6,40.1c-8.4-10.4-37.7-10.4-34.1-27.3C1236,2540.6,1223.5,2541.4,1216.3,2537z
		 M1373.3,2630.1c12,24.1-22.1,42.5-40.5,27.3C1330.3,2624.5,1332.3,2630.1,1373.3,2630.1z M1368,2567.1c9.2,7.6,39.3-11.6,40.1,2.4
		c-31.7,8.4,12.8,33.3-16.1,49.4c-14.9-7.6-61.8-10.8-50.6-35.7C1347.2,2574.3,1355.2,2557.4,1368,2567.1z"/>
	<path class="st1" d="M25.3,1729.3c-23.3,0.4-16.1-49,0.8-55.4c31.3-10,53.8-50.2,77.5-73.1c23.3-19.7,63.8,26.5,69.8-20.1
		c2.8-12.8-6.4-48.2,0-59.8c9.6-6.4,12.8-20.9,7.6-30.9c30.5-10.4,87.5-27.3,106,8.8c-4.4,48.2,78.7,57.8,66.6,105.6
		c8,29.3,49.8,59,78.7,51.4c-16.5-32.5,32.1-40.5,54.2-33.7c59.4-15.7,9.6,64.6,5.6,87.5c-19.3,26.1-85.9-5.6-49.4,41.3
		c-37.7,7.2-31.3-22.5-50.6-15.3c5.2,58.6-102.4,46.6-74.3,110c1.2,11.6,2,36.1,0.8,47.4c-8.4-36.1-47.4-51-49-91.1
		c-18.5-14.8-56.2,2.8-44.2-33.3c-10.8-49.4-34.9-11.2-50.2,10.8C126.4,1763.8,76.7,1735.7,25.3,1729.3z"/>
	<path class="st1" d="M686.8,2180.5c15.3-15.3,0-36.5-4.4-53c1.2-13.7,9.2-29.3,0-41.8c30.9-41.3,116.4-55,133.3-104.8
		c18.5-14.8-0.4-51,2-71c10.4-39.3-32.1-29.3-54.6-37.7c-44.6-22.1,6.4-18.5-18.5-91.9c-28.9-16.9-71.9-43-59-86.3
		c76.3-31.7,106.4,8.4,136.9-93.9c-17.7-108.8-40.1-42.6,124-68.6c22.5,5.6,50.2,12.4,68.6-4.8c8.4,21.3,36.5,20.9,55,26.9
		c47.8,15.3,29.3,60.2,74.3,77.5c8.8,4.4,8.8,14.5,7.2,23.3c11.6,12.4,41.8,40.9,39.3,59.4c-27.7,26.1-50.6,37.3-82.7,39.3
		c0.4,26.5,0.8,64.6-32.1,73.1c-13.6,26.9-7.6,35.7-46.2,32.5c-46.2,40.5-89.9,97.1-137.7,135.3c15.3,22.1,19.7,50.6,9.6,74.3
		c-22.9-8.8-25.7,19.3-10.4,29.7c3.2,24.1-18.5,5.2-28.5,22.9c-6.4,18.9-22.5,18.1-38.1,22.9c-4.4,14.5-11.6,6.4-22.9,4.8
		c-13.6-2.8-2,19.3-14.9,14.9C753.9,2144.4,719.7,2182.5,686.8,2180.5z"/>
	<path class="st1" d="M4866,1259.3c-13.3-3.6-148.5,29.7-111.2-4.8c-36.9-6.8-55.4,7.2-81.5-14.9c-17.3-22.1-14.9,32.5-63.4,31.3
		c-15.7-7.6-15.7-30.1-38.9-23.3c-5.2,3.2,0.8,8.8,2.8,12c-6,4.8-5.6,15.7-6,22.5c-5.2-3.6-6.8-9.6-12-3.6
		c-4,17.3,10,23.3-14.5,14.9c14.5,14.5-18.1,18.1-25.3,30.1c-41.8,6.4-6,54.2-54.6,23.7c-83.5-4.8-30.5,32.9-48.6,40.1
		c-2.4-12.4-16.5-12-26.5-10.8c16.1,37.7-93.5,2-42.5,38.9c-29.7-6.4-46.6,30.9-69,10.4c13.2,26.9-18.1-6.8-26.9-10.4
		c-1.6,8-7.6,25.7,0,32.5l-77.1,4c-18.5-1.2-8.8-2-18.9-10c-8-0.4-23.3,3.6-26.1-7.2c-10-7.2-22.5-17.3-32.1-3.6
		c27.7,57.4,41.8,27.3-47,57c-112.8-92.7-26.9,8.8-81.9,37.7c-66.2-10.4-29.7,0-58.6-38.9c-18.9,39.7-59.4,80.3-105.2,73.9
		c-20.9-25.7-36.5,10.8-22.9-29.3c-10.8-2.4-64.2,0.8-74.3-5.6c-15.7-8-44.2-22.5-59.4-6c-11.2-22.5-32.1-71.9-52.6-74.3
		c26.1-53.8-73.5-53.8-106.8-40.1c-168.6,295.4-33.3-888.3-74.7-946.1c77.5,35.3,186.7,63.8,262.9,99.2
		c-28.1,32.5-15.3,94.3,36.1,69.8c3.6-6.4-0.8-28.9,12.4-23.3c8.8,27.7,36.1,14,57,18.9c39.3,4.8,26.1,9.2,57.4-8.8
		c-42.2-22.9-120-8.4-147.3-54.6c75.5,16.5,177.4,35.3,254.5,36.5c156.1,89.1,274.2,275.4,450.4,328.8c11.2,12.4,4,20.1-10.8,19.7
		c-20.9-6-42.5-33.7-65-36.5c-6.8-19.7-84.7-8.8-54.6-30.5c-16.5-27.7-28.9-36.5-56.6-40.9c-38.9-38.5-47,14.5-65.8,4
		c-33.7-10.8-15.3-4.8-5.6-26.9c-58.2-17.7-8.8,32.1-8.8,49.8c-16.1,12.4-24.9-59.8-47.8-53.8c-24.1,7.6-31.3,6.4-55.4,1.6
		c5.6,38.9,33.7,16.9,22.9,45.4c0,5.2-5.2,11.2,3.6,9.6c35.7-60.2,32.9-50.6,62.6,7.6c11.6,26.9-8.8,17.7-20.5,34.9
		c6.8,33.7,33.3,67.4,69,71.5c12.4-4.8,2-23.3,0-31.3c10.4,7.2,22.1,18.9,23.3,31.7c-24.1,48.6,57.8,13.6,57.4,29.3
		c-58.6,8,26.5,70.7,56.2,43.4c52.6-16.1,12.8-28.1-13.6-43.4c-10-10.4-9.6-18.5-26.9-17.3c-32.5-5.2-139.7-58.6-64.2-77.1
		c19.7,10.4,81.9,27.7,85.1,55.8c21.3,18.9,58.2,13.6,69.8,44.2c-11.2,8.4-27.3,16.5-3.2,18.9c45-38.1,5.2,62.6,36.5,58.2
		c7.2-4.4-0.8-19.3,9.6-16.5c12,42.1,18.5-34.9,82.7-26.9c-2.4-52.6,35.3-22.1,69.4-19.7c6.8-2,21.3-4.8,8.4,7.2
		c6,14.5,10.8,47.4-8.4,54.2c-20.9-6-1.6-26.5-37.3-26.1c-10.4,6.8-42.1,65.4-8.4,44.6c-6.4-6.8-6-24.1,5.6-22.1
		c0,47.4,24.9,49.8,47.8,11.6c19.7-14.9,62.6-8.8,24.9-41.3c-7.2-16.9-10.4-57.4-35.7-36.9c-13.6-8.4-32.9-23.3-48.2-10.4
		c-7.2-4.4-2-10.4,0-16.5c-8,0.4-38.5-10.8-46.2-14c-145.7-115.2,163,57.4,203.5,61.8C4754,1121.2,4682.6,1218.3,4866,1259.3z"/>
	<path class="st1" d="M2971.7,2027.6c-36.1,4-23.3,27.7-65.8,34.1c6.8,19.7-21.3,8.4-30.1,25.7c-11.6,10.8-28.1-3.2-35.7,6.4
		c6,20.5-30.1,62.6,2.8,67.8c9.2,12.8,0.8,32.5-10.8,41.3c-9.2-8.4-13.6-15.3-28.1-13.7c-37.7,8-49-24.9-64.6-51
		c-14-9.2-27.3-8-42.1-2.4c-23.3-12.8-61-58.2-87.9-71c-3.6-55,36.1-57.4-63.8-32.9c-19.3,16.5-18.9,45-49,51
		c-25.7,32.9-73.5,87.9-98.3,122c-4,25.7-15.3,54.2-45.8,55.4c-70.6,10-39.7-19.7-116.8-9.6c-29.3-26.9-85.9-5.2-120-0.4
		c-35.7-9.6-90.7-2.4-85.1,45.8c-42.1,17.7-79.1,49.8-125.2,37.7c1.2,47-59.4,49.4-65,87.9c-20.9,30.9-70.7,57.8-77.1,1.2
		c-36.5-16.1-49.4,7.2-63.8-43c-29.7-22.1-19.3-20.5-12.8-54.6c38.5-24.5,63,38.5,73.9-21.3c22.5-25.3-24.1-43.4-6.8-83.9
		c9.2-19.3,32.9,24.9,59.8,21.7c54.6-9.2,42.2-100,51.4-140.1c-15.7-32.9,53.4,33.3,56.6-71.5c-24.1-45-109.6-86.7,0-81.9
		c7.6-12.4,12.4-24.5-6.4-27.3c4.4-26.9,33.3-61.4,56.6-77.9c14.8-51.4,58.6-93.5,104.4-122.4c57,26.9,30.5,6.8,65,12.8
		c20.1,26.5,7.2,19.3,40.1,22.5c40.9,11.6,89.1,31.3,110.4,69.4c94.3,39.3,174.2-117.6,230,20.1c36.1,14.5,37.3,18.1,65.4-3.2
		c34.9,2,42.5,39.7,52.6,65.8c30.9,5.6,58.6,69.5,87.9,38.9c2.8-40.9,42.6-30.9,67.8-18.5c30.5-45.4,43.3-16.9,100-10
		c20.5-22.9,44.6,38.1,40.9,58.2C2951.6,2001.1,2961.7,1987.8,2971.7,2027.6z"/>
	<path class="st1" d="M2290.5,617.8c58.2,48.2,137.7-30.1,179.8-67.4c38.9-26.1,132.1-15.3,175-24.5c58.2-31.7,97.1-85.9,0-87.9
		c-97.5-34.1,264.5,6.4,230,62.2c19.7-21.7,23.7-6.4,44.6,10.8c159.4,76.3,288.2,51.4,431.1-52.2l59-1.2
		c-32.9-20.1,65.8,941.7-46.6,688c-122.8-95.9-126-19.7-234.4-197.1c-14-20.9-89.9-46.6-112.8-55.4
		c-32.1-30.1-101.6-87.5-142.5-103.2c-17.7-9.2-28.9,10-44.6,1.2c-24.5-20.5-28.5,7.6-38.9,22.1c-18.9,18.9-36.5,28.1-60.2,14.1
		c-18.9,19.7-51,67-75.5,84.7c-20.9,8.4-51.4,37.3-72.7,24.1c-46.6,16.9-90.3,24.5-132.1-10.4c-8.4-13.6,5.6-110-15.7-87.9
		c-42.1-30.1-97.9-3.2-130.9-51.8c43.3-24.1,54.2-18.5,43-75.1c-36.5-8-18.5-16.5-40.1-38.1C2285.3,659.5,2279.7,633.8,2290.5,617.8
		z"/>
	<path class="st1" d="M1015.2,1526.6c22.5-21.7-10-39.7,0-62.6c11.6-6,32.1-24.5,40.5-35.3c34.5-1.2,27.7-12.8,28.5-40.5
		c8,57,58.2-8.8,79.5-17.7c28.5-53.8,129.7-49.4,115.2-127.7c28.9,0,88.7,1.6,115.6-8c43.4-67.4,60.6,28.1,96.3,43.8
		c7.2,21.7,0.8,57.8,35.3,51c27.3-20.5,59.8-34.5,90.3-8.8c26.1-2.8,22.5-4,44.6,17.7c15.7,4.4,40.5,30.1,16.5,40.5
		c-7.6,1.6-20.9-0.8-23.3,8.8c-2.8,45.4,16.5,113.6-45,126.8c-1.6,6-1.2,14.8-8.8,6.8c2.4,20.9-11.2,71.5-36.9,40.9
		c-8.4,3.2-21.3-12.8-25.3-0.8c1.6,68.2-99.1,76.7-4,138.9c-4,29.7,4.8,20.9,20.5,42.5c-12,27.3-28.1,55.4-59.8,46.2
		c-30.9,79.1,83.5,72.3-18.5,110c-9.2,39.3-46.6,43-79.9,49c-34.9,55.4-40.5,31.3-81.1,71.8c7.6-49.4-39.8-60.2-73.9-76.7
		c-0.8-17.7,13.7-19.7-5.2-35.7l-26.9-11.2c0-6.4-6.8-23.7,5.2-22.9c20.1-0.8,50.2-4.8,71-8c16.5-2.8,29.7-20.1,45.8-15.7
		c46.6-4.4,32.1-55.8,17.3-85.5c-45.4,20.5-96.3-7.6-142.1-24.5c-32.1-30.5-4.4-18.9-20.9-44.6c-8.4-16.1-39.3-36.5-33.7-56.2
		c-18.5-18.5-39.7-13.6-40.9-48.2C1097.5,1545.5,1036.1,1561.1,1015.2,1526.6z"/>
	<path class="st1" d="M535.9,2051.7c2.8-18.1-16.9-24.5-31.3-24.5c-29.7-10.8,18.5-78.7-36.1-46.2c-83.5,18.1-47.4-116.4-140.1-68.6
		c-19.3-12.8-5.2-47.8-10.8-67.4c-13.6-34.1,2-27.3,19.7-56.6c82.3-20.1,34.5-55.4,64.6-54.6c8,14.9,24.9,19.3,40.5,16.9
		c-9.2-5.2-16.9-39.7,0-28.5c18.1,4.8,52.6-2.4,54.2-25.3c28.5-77.5,16.9-123.6-32.5-173c-49.4-84.3,120.4,5.2,96.3-68.2
		c-40.9-51.8,31.3-86.3,11.6-140.1c83.5-50.6,78.3,67.8,128.5,91.1c45.8-55,32.9-20.5,92.7-4c-69,91.5,85.1,41.8,12.8,132.9
		c9.2,8.4,13.6,53.8,16.5,65.4c-24.5,137.3-156.6,29.3-134.1,133.7c30.9,49.8,39.7,24.5,56.2,46.6c15.7,113.6-23.7,73.5,73.5,107.2
		c29.7,143.7-55,116.8-130.1,197.1C673.6,2064.9,562.8,2044.8,535.9,2051.7z"/>
	<path class="st1" d="M1285.3,512.6c27.3-8.8,54.2,27.7,79.5,26.9c-16.5-20.1,11.6-27.7,26.9-38.5c-4,9.6-30.5,30.9-13.6,38.5
		c28.1,22.5,88.7,108,130.1,72.7c7.6-20.1,20.9-18.5,39.3-16.9c12.8-16.9,8-25.3,35.7-25.7c140.5,22.5,315.1,121.6,447.2,35.3
		c58.6,50.2,272.2-55.8,256.5,45.8c16.9,17.3,28.5,50.2,51,58.2c30.9,33.3,5.2,61.8-34.9,77.1c-56.6-18.5-118.4-2-176.6-16.1
		c-41.8,11.6-80.3,48.6-126.1,42.1c-58.2-18.9-67.4,0.8-126.4-0.8c-12.4-2.8-35.7,21.3-43.8,28.1c-22.9,26.1-118.8,75.9-152.1,72.7
		c-37.3-4-86.3-34.5-118.4-11.2c-57.4,0.8-29.3-83.1-73.5-78.7c-29.3,20.5-73.9,24.5-109.2,27.7c-85.1-50.6-18.5-123.2-138.5-175
		c57-16.9-6.4-40.5-5.6-67c14-16.1,26.5-35.7,33.7-55.4C1283.7,538.7,1291.4,535.1,1285.3,512.6z"/>
	<path class="st1" d="M1239.2,674.4c61.4,30.9,87.5,68.2,95.1,135.3c32.1,59,104.8,38.5,152.1,12c35.3-8.8,20.9,38.5,35.7,55.8
		c22.5,43,57.8-2,85.1,20.1c83.9,29.3,129.3-1.6,202.7-37.7c35.3-56.2,99.1-45.4,154.5-62.6c12.8,26.5,53.4,14.5,76.7,10.8
		c46.6-16.1,83.1-55.4,135.3-29.3c55,2.8,122.4-18.5,158.6,36.9c20.5,14.5,67-6.8,86.3,16.1c4,1.2,10.4,6.8,13.6,4.8
		c22.1-14.9,6.4,48.6,8.4,57c20.9,31.7-13.2,49.4-38.5,60.6c-156.2,111.6-71.9-83.5-271,29.7c-41.8,108.8-69.8,22.1-138.1,41.7
		c-6.4,23.7-38.5,8.8-36.9,43c9.2,51.8-0.4,112.4-45.4,143.7c-30.9,11.2-36.1-5.2-51.8,30.9c-31.3-8.4-71.8-2.4-102.8-12.8
		c-14,2-55.4,2.4-50.6,24.9c0.4,32.9-34.9,53.8-47.8,83.1c-17.3-20.1-23.3-20.5-44.5-17.7c-45.8-44.2-77.1,26.1-116,2.4
		c-2-62.6-30.1-38.5-42.5-85.5c-20.9-34.5-40.9-36.1-63-2.8c-40.5,6-142.9,32.1-116.8-39.3c14.5-18.5-17.7-59-39.7-50.2
		c-14-26.1-39.3-6.8-47-29.3c-12.4-16.5-36.1-18.9-54.2-11.2c-10-4,5.6-31.7,0-41.3c-6.4-2.4-9.2,6-12.8-4.4
		c15.3-53.4,8-57.4,56.2-89.9c14.9-29.3,55.4-56.6,8-77.1c10.8-23.7,29.7,20.1,30.5-14.1c-26.5-33.3,7.2-54.2,15.3-87.9
		c4.4,1.2,18.9,6,17.3-2.8c19.7-36.1-18.5-48.6-37.3-73.1C1244.8,686.4,1178.2,713.3,1239.2,674.4z"/>
	<path class="st1" d="M481.3,1014.8c99.2-55,191.9-206.3,314.7-187.9c61.4,21.7,94.3,10,95.5,85.1c119.2,67,58.2,57,102.4,161
		c60.6,22.9,0,40.5-8.8,78.3c75.9,102.4,87.1-13.6,44.2,148.1c16.9,31.7,60.6,10.8,55.4,89.1c0.8,67.4-5.6,8.4-56.6,67.8
		c-38.9,13.7,13.2,47-12.8,70.3c-59.4,19.7-143.7,8-209.5,8.4c51.8-76.3-6-41.3-30.5-89.9c-14.5-20.5,55-53.4-19.3-52.2
		c-7.2-14.5-24.1-28.1-35.7-10c-57.4,79.1-49-98.3-115.2-79.5c-167.4,66.6-7.2-103.6-43.4-139.3c-16.1-32.5,26.5-31.3-16.9-49.4
		c-10.4-14.1-37.3-29.7-28.1-49.8C519,1056.5,484.1,1021.6,481.3,1014.8z"/>
	<path class="st1" d="M709.7,836.2c39.7-29.3,93.5-71.9,113.2-118.4c4.8-10.8,24.5-3.6,33.3-10.8c8.4-2.8,24.5-18.9,29.7-6
		c23.7-90.3,49.8,79.5,140.9-54.6c9.6-5.6,24.1-11.6,14.9-24.9c24.5,9.2,123.2-27.7,78.3-51c-3.2-2.4-14.5-10.4-7.6-14
		c29.3,6,56.2-13.2,81.9-21.7c10,1.2,72.7-4.8,81.1-8.4c17.7-36.9,18.9,12-12,33.7c-10.4,36.1-51.8,54.2-7.6,79.1
		c16.9,12.4,2.8,35.7-15.7,35.7c-61,38.9,5.6,12.4-24.9,40.1c23.3,19.7,73.5,71.9,20.1,75.9c-2.4,30.9-43,47-19.3,77.1
		c6.8,13.6,4.8,34.5-12.8,17.7c-37.3,3.6,26.5,22.5,8.8,42.1c-26.5,21.7-28.1,57.4-68.2,65.8c-1.2,16.1,2.4,10-11.2,24.5
		c6.4,16.5-9.6,34.1-4,47.8c25.3-9.6-2.8,33.7,9.6,40.1c21.7-9.2,52.2-2.8,59,22.1c11.6-1.2,21.7,5.6,33.3,5.6
		c4.4,5.2,3.2,14.5,12.8,13.2c54.2-2.8,29.3,65,36.9,97.1c9.6,47.4-30.9,69.5-66.6,88.7c-38.9-0.4-102.4,128.5-128.1,56.6
		c8-108-106.8-35.3-25.3-177c-2-6.4-10-8-14.1-12.8c-135.3-44.2,12-88.7-35.3-114.4c-43-18.1-30.9-94.3-41.3-128.5
		c-49.4-18.5-90.7-29.3-82.3-91.9C846.2,831.7,759.5,808.9,709.7,836.2z"/>
	<path class="st1" d="M180.6,1199c30.9-23.7,102-35.7,135.3-55.8c58.2-24.1,167.4-191.9,201.1-78.3c-17.7,38.1,71.1,50.6,39.7,79.1
		c-0.8,18.9,22.1,32.5,14.9,50.6c-34.1,20.5-27.3,68.6-45,100.4c11.2,57.8,47.8-12,49,45.8c0.4,30.1-16.5,21.3-12,37.7
		c-45.4,33.7,15.7,78.7-6.8,101.6c-37.7,21.7-110.4-14.9-101.6,22.9c2.8,19.7,28.1,36.1,37.7,51.8c14,24.1,24.9,84.3-22.1,64.6
		c-79.1,5.2-12.4,47.8-58.6,38.1c-39.3-15.7-60.6-38.9-63.4-85.1c-73.1-52.6-37.7-26.9-73.9-90.3c-100.4-24.9-79.5,60.6-134.9-62.2
		c-37.7-32.1-26.5-64.6,7.6-92.7C184.2,1284.9,124.8,1234.4,180.6,1199z"/>
	<path class="st1" d="M2060.5,2647.4c-28.9,20.1-67.8-44.6-101.2-9.2c-26.1,20.1-70.6,56.6-49,93.1c4.8,8.8-15.3,50.2,4,53.8
		c-25.3,32.9-63.8,75.5-98.8,92.3c-12.4-36.5-293.4,37.3-173-34.1c-1.2-14-49.4,7.6-65-39.3c-4-18.5,18.5-15.3,30.1-18.5
		c18.5-7.2-68.6-21.7-81.9-12.8c0.8-44.2-26.5-98.7-55.4-126.8c-15.7,4.8-22.1-20.1-9.2-27.7c50.6-31.7,26.9-38.1,95.5-54.2
		c-7.2-24.1,18.9-21.7,24.5-49c0.8-23.7-22.5-44.6-12.8-69c-48.2-20.9-36.1-70.6-53.4-104c-24.1-9.2-30.5-33.3-20.9-56.2
		c-7.2-43.4,40.5-35.7,56.2-25.3c-15.3,20.9,8,35.3,21.3,48.6c36.5-3.6,78.7,1.2,113.6,15.3c-1.2,9.6-12,36.5-2.4,44.2
		c31.7,8.8,13.6,37.3,36.5,46.2c6.4,1.6,39.3-0.8,42.6,7.2c24.9,95.1,92.3-37.3,128.8-55.8c27.3-41-11.6-29.3,45.8-32.5
		c4.8,15.7,33.3-25.3,58.6-17.3c37.7-31.3,36.9-25.7,32.5,20.9c13.2,33.3,25.7,5.6,13.2,62.6c-2.8,34.5,42.5,112.8,14.5,144.5
		C2059.3,2578.3,2117.1,2611.6,2060.5,2647.4z"/>
	<path class="st1" d="M3410,1463.3c-21.7,10.8-18.9,40.1-25.7,58.2c-34.9,6.8-0.4,18.5,10,28.9c-19.3,21.3-29.3,18.9-2.8,25.3
		c-32.5,53.8-42.5,49.4-88.7,19.3c-14.8,19.7-5.6,58.6-14,79.5c-39.3,33.3,4.8,30.1-39.3,58.2c124.4,100-81.9,63.8-105.2,123.6
		c-55.4,6.8-42.1,102.8-104.4,120.4c-41.3-0.8-26.9,52.2-69,49.4c-1.2-28.5-32.9-34.5-37.7-58.6c4.8-20.9-24.1-73.1-41.7-49.4
		c-20.9-3.2-55-18.5-76.7-17.3c-20.5,57-48.2-10.8-83.9,26.1c-8.4,20.1-0.8,30.5-32.5,26.5c-6.8-2.4-20.1-22.5-24.5-27.7
		c-9.6-6.4-36.1-12-39.7-24.9c-2.8-26.5-26.9-70.3-58.2-56.6c-80.3,52.2-55.4-94.7-149.3-53c-69,35.3-46.6,47.8-136.5,32.9
		c-26.1-47.4-89.9-65-138.9-74.7c-21.3-42.1-18.1,3.2-76.7-30.1c-1.6-29.3-15.3-61.4-26.1-87.9c0.8-24.1,9.2-32.9-11.6-53
		c-15.3-23.3-50.6-33.7-67-54.2c-22.5-66.2-87.1-161.8-45-220.8c-25.7-22.5-93.5-49.8-44.6-86.7c85.9,1.2,80.7-106,81.5-166.2
		c7.6-11.6,32.1-9.2,34.1-25.7l36.1-8c38.9,46.6,89.1,15.3,101.6-33.7c78.7-24.1,107.6-75.5,178.2,7.2
		c67.4,10.4,123.2-101.6,185.1-40.1c40.5,13.2,63-27.7,109.2-10c-1.2-6,45-26.1,48.2-29.3l47.4-46.6c8-7.6,20.1-49.8,38.5-35.3
		c18.1,17.3,60.6-16.1,57-37.3c110.4-37.7,195.5,114.4,303.9,133.7C3301.2,1182.3,3460.2,1076.8,3410,1463.3z"/>
	<path class="st1" d="M1373.3,1990.2c-3.2-47.8,50.6-41.3,79.9-57c36.1-24.5-4-31.7,64.6-50.6c16.5-32.5-36.9-4.4-25.3-87.9
		c19.3-23.3,16.5,28.1,53.8-33.7c24.1-32.9-22.5-28.1-12.8-45c12.8-28.1-45-31.3-43.8-74.3c18.9-18.1,56.2-48.6,48.6-79.1
		c23.7-17.7,47.8,45,62.6-21.3c-5.6-32.5,6.4-4.8,8-23.3c102.4-43.8-7.2-120,81.9-147.3c-58.2-55.4,23.3-61.4,18.5-122.4
		c40.5-32.5,106-4.4,153.8-3.6c-4,32.1,73.5,47,56.2,67c-23.7,31.7,32.9,230.8,84.7,235.6c24.9,24.1,59.4,47.4,46.2,85.9
		c12.5,22.9,16.9,52.2,26.5,76.7c-2.8,27.3-69.8,56.6-84.3,80.3c4.8,57.4-97.9,93.9-66.2,135.3c10,12-7.6,27.7-20.5,25.3
		c-112.4-9.2,77.1,78.3-4,137.3c-14.9,16.5-47.4-11.2-36.5,13.7c-9.6,271-120.4,39.7-114,150.1c4,16.9,27.3,35.3,9.2,52.2
		c-16.5,44.6-0.4,30.1-49.4,13.2c-32.1,10.8-75.1-4-106.4-10.8c-29.3,10.4-71.9-12.8-52.2-48.2c-9.2-0.8-20.1-0.8-28.9-4.4
		c-51-15.3-12.5,84.7-43,73.9c-17.3-8.8-40.9-30.1-57-40.1c-91.9,9.6-86.7-85.5-46.2-138.9C1398.1,2115.1,1377.3,2026,1373.3,1990.2
		z"/>
	<g class="st2">
		<circle class="st3" cx="2685" cy="1248.9" r="61.1"/>
		<path class="st3" d="M2818.5,1248.5c0-73.8-59.9-133.7-133.7-133.7s-133.7,59.9-133.7,133.7c0,0-9.3,130.8,133.7,257.4
			C2827.8,1379.3,2818.5,1248.5,2818.5,1248.5z M2684.8,1304.9c-31.2,0-56.4-25.3-56.4-56.4s25.3-56.4,56.4-56.4
			c31.2,0,56.4,25.3,56.4,56.4S2715.9,1304.9,2684.8,1304.9z"/>
	</g>
	<g class="st2">
		<circle class="st3" cx="363.1" cy="1054.7" r="61.1"/>
		<path class="st3" d="M496.6,1054.3c0-73.8-59.9-133.7-133.7-133.7s-133.7,59.9-133.7,133.7c0,0-9.3,130.8,133.7,257.4
			C505.9,1185.1,496.6,1054.3,496.6,1054.3z M362.9,1110.7c-31.2,0-56.4-25.3-56.4-56.4c0-31.2,25.3-56.4,56.4-56.4
			c31.2,0,56.4,25.3,56.4,56.4C419.3,1085.5,394,1110.7,362.9,1110.7z"/>
	</g>
	<g class="st2">
		<circle class="st3" cx="1055.5" cy="561.8" r="61.1"/>
		<path class="st3" d="M1188.9,561.4c0-73.8-59.9-133.7-133.7-133.7s-133.7,59.9-133.7,133.7c0,0-9.3,130.8,133.7,257.4
			C1198.3,692.2,1188.9,561.4,1188.9,561.4z M1055.3,617.8c-31.2,0-56.4-25.3-56.4-56.4c0-31.2,25.3-56.4,56.4-56.4
			c31.2,0,56.4,25.3,56.4,56.4C1111.7,592.6,1086.4,617.8,1055.3,617.8z"/>
	</g>
	<g class="st2">
		<circle class="st3" cx="1721.4" cy="1724.9" r="61.1"/>
		<path class="st3" d="M1854.9,1724.5c0-73.8-59.9-133.7-133.7-133.7s-133.7,59.9-133.7,133.7c0,0-9.3,130.8,133.7,257.4
			C1864.2,1855.3,1854.9,1724.5,1854.9,1724.5z M1721.2,1780.9c-31.2,0-56.4-25.3-56.4-56.4s25.3-56.4,56.4-56.4
			s56.4,25.3,56.4,56.4S1752.3,1780.9,1721.2,1780.9z"/>
	</g>
	<g class="st2">
		<circle class="st3" cx="1782.7" cy="2402.4" r="61.1"/>
		<path class="st3" d="M1916.1,2402.1c0-73.8-59.9-133.7-133.7-133.7c-73.8,0-133.7,59.9-133.7,133.7c0,0-9.3,130.8,133.7,257.4
			C1925.4,2532.9,1916.1,2402.1,1916.1,2402.1z M1782.4,2458.5c-31.2,0-56.4-25.3-56.4-56.4c0-31.2,25.3-56.4,56.4-56.4
			c31.2,0,56.4,25.3,56.4,56.4C1838.9,2433.2,1813.6,2458.5,1782.4,2458.5z"/>
	</g>
	<path class="st1" d="M1117.4,2139.5c-10-0.8-39.4,16.3-48.6,20.3c-13.5-35.4-47.4-64.9-64.5-98.3c-40.6-5.6-114.2,27.5-86-42.6
		c-0.8-10.7-22.3-25.9-15.1-34.2c26.3-27.1,78.4-62.9,95.5-97.1c17.1-20.3,43-41.8,71.2-36.2c15.5-27.5-5.6-21.5,29.9-39.8
		c29.1-29.1,3.2-65.7,21.1-68.5c24.7,13.9,53.7-19.9,72.4-31.4c25.5,37.4,80,45.4,121.4,58.9c30.6-11.5,37.4-26.3,49.7,15.1
		c-0.4,19.5,9.6,38.6-9.5,52.5c-43.8,10.7-89.6,30.6-136.5,29.1c-10,0.4-4,17.1-4,22.7c64.1,24.3,21.5,29.1,34.6,49.8
		c34.6,9.5,78,30.6,70.4,73.2c96.3-105.1,82,139.7,33,172.3c-33.8,1.2-26.7-21.9-79.2-9.1c-25.9-13.9-38.6-32.2-52.9-55.7
		c-26.7-1.6-22.3,31.4-55.7,17.9C1135.3,2136.7,1154,2161,1117.4,2139.5z"/>
	<path class="st1" d="M1222.1,2525.5c33-10.4,117.8-53.3,53.3-84.8c-55.7,21.9-20.3-60.5-9.1-82.4c-8.4-52.9,27.5-73.2,17.1-96.7
		c21.5-76.8,44.6-41-9.2-84.8c19.1-4,48.2-6.8,62.5,9.2c43-4-18.3,63.7,52.1,88.8c37.8-0.8,64.5,22.3,94.3,43
		c27.1-2.4,52.1,26.7,42.2,56.1c19.1,51.3,75.6,89.5,50.5,150.4c-28.3,27.9-17.5-14.3-54.9-0.8c-20.3-17.9-42.6,11.1-32.6,33.4
		c-6.8,8-66.5,15.9-65.7,0.8c3.6-1.6,13.9,3.2,11.1-4.8c-46.6-24.3-72.8,24.7-48.6-27.5c-30.3-1.6,10.7-74-34.6-36.2
		c-11.5,6-3.2,23.1-0.4,31.4c-9.1,25.5-40.2,48.6-68.1,39.8c-8.4-10.4-37.4-10.4-33.8-27.1
		C1241.6,2529.1,1229.3,2529.9,1222.1,2525.5z M1377.7,2617.9c11.9,23.9-21.9,42.2-40.2,27.1
		C1335.1,2612.3,1337.1,2617.9,1377.7,2617.9z M1372.6,2555.4c9.1,7.6,39-11.5,39.8,2.4c-31.4,8.4,12.7,33-15.9,49
		c-14.7-7.6-61.3-10.7-50.2-35.4C1351.9,2562.6,1359.8,2545.8,1372.6,2555.4z"/>
	<path class="st1" d="M41.2,1724.7c-23.1,0.4-15.9-48.6,0.8-54.9c31-10,53.3-49.8,76.8-72.4c23.1-19.5,63.3,26.3,69.3-19.9
		c2.8-12.7-6.4-47.8,0-59.3c9.6-6.4,12.7-20.7,7.6-30.6c30.2-10.4,86.8-27.1,105.1,8.8c-4.4,47.8,78,57.3,66.1,104.7
		c8,29.1,49.4,58.5,78,50.9c-16.3-32.2,31.8-40.2,53.7-33.4c58.9-15.5,9.6,64.1,5.6,86.8c-19.1,25.9-85.2-5.6-49,41
		c-37.4,7.2-31-22.3-50.1-15.1c5.2,58.1-101.5,46.2-73.6,109c1.2,11.5,2,35.8,0.8,47c-8.4-35.8-47-50.5-48.6-90.3
		c-18.3-14.7-55.7,2.8-43.8-33c-10.7-49-34.6-11.1-49.8,10.8C141.5,1759,92.2,1731.1,41.2,1724.7z"/>
	<path class="st1" d="M697.1,2172.1c15.1-15.1,0-36.2-4.4-52.5c1.2-13.5,9.2-29.1,0-41.4c30.6-41,115.4-54.5,132.1-103.9
		c18.3-14.7-0.4-50.5,2-70.4c10.3-39-31.8-29.1-54.1-37.4c-44.2-21.9,6.4-18.3-18.3-91.1c-28.7-16.7-71.2-42.6-58.5-85.6
		c75.6-31.4,105.5,8.4,135.7-93.1c-17.5-107.9-39.8-42.2,123-68.1c22.3,5.6,49.8,12.3,68.1-4.8c8.4,21.1,36.2,20.7,54.5,26.7
		c47.4,15.1,29.1,59.7,73.6,76.8c8.8,4.4,8.8,14.3,7.2,23.1c11.5,12.3,41.4,40.6,39,58.9c-27.5,25.9-50.2,37-82,39
		c0.4,26.3,0.8,64.1-31.8,72.4c-13.5,26.7-7.6,35.4-45.8,32.2c-45.8,40.2-89.2,96.3-136.5,134.1c15.1,21.9,19.5,50.2,9.6,73.6
		c-22.7-8.7-25.5,19.1-10.3,29.5c3.2,23.9-18.3,5.2-28.3,22.7c-6.4,18.7-22.3,17.9-37.8,22.7c-4.4,14.3-11.5,6.4-22.7,4.8
		c-13.5-2.8-2,19.1-14.7,14.7C763.6,2136.3,729.8,2174.1,697.1,2172.1z"/>
	<path class="st1" d="M4840.8,1258.7c-13.1-3.6-147.3,29.5-110.2-4.8c-36.6-6.8-54.9,7.2-80.8-14.7c-17.1-21.9-14.7,32.2-62.9,31
		c-15.5-7.6-15.5-29.8-38.6-23.1c-5.2,3.2,0.8,8.8,2.8,11.9c-6,4.8-5.6,15.5-6,22.3c-5.2-3.6-6.8-9.6-11.9-3.6
		c-4,17.1,10,23.1-14.3,14.7c14.3,14.3-17.9,17.9-25.1,29.9c-41.4,6.4-6,53.7-54.1,23.5c-82.8-4.8-30.2,32.6-48.2,39.8
		c-2.4-12.3-16.3-11.9-26.3-10.8c15.9,37.4-92.7,2-42.2,38.6c-29.5-6.4-46.2,30.6-68.5,10.4c13.1,26.7-17.9-6.8-26.7-10.4
		c-1.6,8-7.6,25.5,0,32.2l-76.4,4c-18.3-1.2-8.8-2-18.7-10c-8-0.4-23.1,3.6-25.9-7.2c-10-7.2-22.3-17.1-31.8-3.6
		c27.5,56.9,41.4,27.1-46.6,56.5c-111.8-91.9-26.7,8.8-81.2,37.4c-65.7-10.4-29.5,0-58.1-38.6c-18.7,39.4-58.9,79.6-104.3,73.2
		c-20.7-25.5-36.2,10.8-22.7-29.1c-10.7-2.4-63.7,0.8-73.6-5.6c-15.5-8-43.8-22.3-58.9-6c-11.1-22.3-31.8-71.2-52.1-73.6
		c25.9-53.3-72.8-53.3-105.9-39.8c-167.2,292.9-33-880.8-74-938.1c76.8,35,185.1,63.3,260.7,98.3c-27.9,32.2-15.1,93.5,35.8,69.3
		c3.6-6.4-0.8-28.7,12.3-23.1c8.8,27.5,35.8,13.9,56.5,18.7c39,4.8,25.9,9.2,56.9-8.8c-41.8-22.7-119-8.4-146.1-54.1
		c74.8,16.3,175.9,35,252.3,36.2c154.8,88.4,271.8,273,446.6,326c11.1,12.3,4,19.9-10.8,19.5c-20.7-6-42.2-33.4-64.5-36.2
		c-6.8-19.5-84-8.8-54.1-30.2c-16.3-27.5-28.7-36.2-56.1-40.6c-38.6-38.2-46.6,14.3-65.3,4c-33.4-10.7-15.1-4.8-5.6-26.7
		c-57.7-17.5-8.8,31.8-8.8,49.4c-15.9,12.3-24.7-59.3-47.4-53.3c-23.9,7.6-31,6.4-54.9,1.6c5.6,38.6,33.4,16.7,22.7,45
		c0,5.2-5.2,11.1,3.6,9.6c35.4-59.7,32.6-50.2,62.1,7.6c11.5,26.7-8.8,17.5-20.3,34.6c6.8,33.4,33,66.9,68.5,70.8
		c12.3-4.8,2-23.1,0-31c10.4,7.2,21.9,18.7,23.1,31.4c-23.9,48.2,57.3,13.5,56.9,29.1c-58.1,8,26.3,70,55.7,43
		c52.1-15.9,12.7-27.9-13.5-43c-9.9-10.3-9.5-18.3-26.7-17.1c-32.2-5.2-138.5-58.1-63.7-76.4c19.5,10.3,81.2,27.5,84.4,55.3
		c21.1,18.7,57.7,13.5,69.3,43.8c-11.1,8.4-27.1,16.3-3.2,18.7c44.6-37.8,5.2,62.1,36.2,57.7c7.2-4.4-0.8-19.1,9.6-16.3
		c11.9,41.8,18.3-34.6,82-26.7c-2.4-52.1,35-21.9,68.9-19.5c6.8-2,21.1-4.8,8.4,7.2c6,14.3,10.7,47-8.4,53.7
		c-20.7-6-1.6-26.3-37-25.9c-10.4,6.8-41.8,64.9-8.4,44.2c-6.4-6.8-6-23.9,5.6-21.9c0,47,24.7,49.4,47.4,11.5
		c19.5-14.7,62.1-8.8,24.7-41c-7.2-16.7-10.4-56.9-35.4-36.6c-13.5-8.4-32.6-23.1-47.8-10.3c-7.2-4.4-2-10.3,0-16.3
		c-8,0.4-38.2-10.7-45.8-13.9c-144.5-114.2,161.6,56.9,201.8,61.3C4729.8,1121.8,4658.9,1218.1,4840.8,1258.7z"/>
	<path class="st1" d="M2962.6,2020.5c-35.8,4-23.1,27.5-65.3,33.8c6.8,19.5-21.1,8.4-29.9,25.5c-11.5,10.7-27.9-3.2-35.4,6.4
		c6,20.3-29.9,62.1,2.8,67.3c9.2,12.7,0.8,32.2-10.7,41c-9.2-8.4-13.5-15.1-27.9-13.5c-37.4,8-48.6-24.7-64.1-50.5
		c-13.9-9.1-27.1-8-41.8-2.4c-23.1-12.7-60.5-57.7-87.2-70.4c-3.6-54.5,35.8-56.9-63.3-32.6c-19.1,16.3-18.7,44.6-48.6,50.5
		c-25.5,32.6-72.8,87.2-97.5,121c-4,25.5-15.1,53.7-45.4,54.9c-70,10-39.4-19.5-115.8-9.6c-29-26.7-85.2-5.2-119-0.4
		c-35.4-9.6-89.9-2.4-84.4,45.4c-41.8,17.5-78.4,49.4-124.2,37.4c1.2,46.6-58.9,49-64.5,87.2c-20.7,30.7-70.1,57.3-76.4,1.2
		c-36.2-15.9-49,7.2-63.3-42.6c-29.5-21.9-19.1-20.3-12.7-54.1c38.2-24.3,62.5,38.2,73.2-21.1c22.3-25.1-23.9-43-6.8-83.2
		c9.2-19.1,32.6,24.7,59.3,21.5c54.1-9.2,41.8-99.1,50.9-138.9c-15.5-32.6,52.9,33,56.1-70.8c-23.9-44.6-108.7-86,0-81.2
		c7.6-12.3,12.3-24.3-6.4-27.1c4.4-26.7,33-60.9,56.1-77.2c14.7-50.9,58.1-92.7,103.5-121.4c56.5,26.7,30.3,6.8,64.5,12.7
		c19.9,26.3,7.2,19.1,39.8,22.3c40.6,11.5,88.4,31,109.4,68.9c93.5,39,172.7-116.6,228.1,19.9c35.8,14.3,37,17.9,64.9-3.2
		c34.6,2,42.2,39.4,52.1,65.3c30.6,5.6,58.1,68.9,87.2,38.6c2.8-40.6,42.2-30.6,67.3-18.3c30.2-45,43-16.7,99.1-10
		c20.3-22.7,44.2,37.8,40.6,57.7C2942.7,1994.2,2952.7,1981.1,2962.6,2020.5z"/>
	<path class="st1" d="M3397.2,1462.1c-21.5,10.7-18.7,39.8-25.5,57.7c-34.6,6.8-0.4,18.3,10,28.7c-19.1,21.1-29.1,18.7-2.8,25.1
		c-32.2,53.3-42.2,49-88,19.1c-14.7,19.5-5.6,58.1-13.9,78.8c-39,33,4.8,29.9-39,57.7c123.4,99.1-81.2,63.3-104.3,122.6
		c-54.9,6.8-41.8,101.9-103.5,119.4c-41-0.8-26.7,51.7-68.5,49c-1.2-28.3-32.6-34.2-37.4-58.1c4.8-20.7-23.9-72.4-41.4-49
		c-20.7-3.2-54.5-18.3-76-17.1c-20.3,56.5-47.8-10.7-83.2,25.9c-8.4,19.9-0.8,30.2-32.2,26.3c-6.8-2.4-19.9-22.3-24.3-27.5
		c-9.5-6.4-35.8-11.9-39.4-24.7c-2.8-26.3-26.7-69.7-57.7-56.1c-79.6,51.7-54.9-93.9-148.1-52.5c-68.5,35-46.2,47.4-135.3,32.6
		c-25.9-47-89.2-64.5-137.7-74c-21.1-41.8-17.9,3.2-76-29.9c-1.6-29.1-15.1-60.9-25.9-87.2c0.8-23.9,9.2-32.6-11.5-52.5
		c-15.1-23.1-50.2-33.4-66.5-53.7c-22.3-65.7-86.4-160.4-44.6-218.9c-25.5-22.3-92.7-49.4-44.2-86c85.2,1.2,80-105.1,80.8-164.8
		c7.6-11.5,31.8-9.2,33.8-25.5l35.8-8c38.6,46.2,88.4,15.1,100.7-33.4c78-23.9,106.7-74.8,176.7,7.2
		c66.9,10.3,122.2-100.7,183.5-39.8c40.2,13.1,62.5-27.5,108.3-9.9c-1.2-6,44.6-25.9,47.8-29.1l47-46.2c8-7.6,19.9-49.4,38.2-35
		c17.9,17.1,60.1-15.9,56.5-37c109.5-37.4,193.8,113.4,301.3,132.5C3289.4,1183.5,3447,1078.8,3397.2,1462.1z"/>
	<path class="st1" d="M2287.2,622.7c57.7,47.8,136.5-29.8,178.3-66.9c38.6-25.9,130.9-15.1,173.5-24.3c57.7-31.4,96.3-85.2,0-87.2
		c-96.7-33.8,262.3,6.4,228.1,61.7c19.5-21.5,23.5-6.4,44.2,10.7c158,75.6,285.8,50.9,427.5-51.7l58.5-1.2
		c-32.6-19.9,65.3,933.7-46.2,682.2c-121.8-95.1-125-19.5-232.4-195.4c-13.9-20.7-89.2-46.2-111.8-54.9
		c-31.8-29.9-100.7-86.8-141.3-102.3c-17.5-9.2-28.7,9.9-44.2,1.2c-24.3-20.3-28.3,7.6-38.6,21.9c-18.7,18.7-36.2,27.9-59.7,13.9
		c-18.7,19.5-50.6,66.5-74.8,84c-20.7,8.4-50.9,37-72,23.9c-46.2,16.7-89.5,24.3-130.9-10.3c-8.4-13.5,5.6-109.1-15.5-87.2
		c-41.8-29.9-97.1-3.2-129.7-51.3c43-23.9,53.7-18.3,42.6-74.4c-36.2-8-18.3-16.3-39.8-37.8C2282,664,2276.4,638.6,2287.2,622.7z"/>
	<path class="st1" d="M2059.1,2635c-28.7,19.9-67.3-44.2-100.3-9.1c-25.9,19.9-70,56.1-48.6,92.3c4.8,8.8-15.1,49.8,4,53.3
		c-25.1,32.6-63.3,74.8-97.9,91.5c-12.3-36.2-290.9,37-171.5-33.8c-1.2-13.9-49,7.6-64.5-39c-4-18.3,18.3-15.1,29.9-18.3
		c18.3-7.2-68.1-21.5-81.2-12.7c0.8-43.8-26.3-97.9-54.9-125.8c-15.5,4.8-21.9-19.9-9.2-27.5c50.2-31.4,26.7-37.8,94.7-53.7
		c-7.2-23.9,18.7-21.5,24.3-48.6c0.8-23.5-22.3-44.2-12.7-68.5c-47.8-20.7-35.8-70-52.9-103.1c-23.9-9.1-30.3-33-20.7-55.7
		c-7.2-43,40.2-35.4,55.7-25.1c-15.1,20.7,8,35,21.1,48.2c36.2-3.6,78,1.2,112.6,15.1c-1.2,9.5-11.9,36.2-2.4,43.8
		c31.4,8.8,13.5,37,36.2,45.8c6.4,1.6,39-0.8,42.2,7.2c24.7,94.3,91.5-37,127.8-55.3c27.1-40.6-11.5-29.1,45.4-32.2
		c4.8,15.5,33-25.1,58.1-17.1c37.4-31,36.6-25.5,32.2,20.7c13.1,33,25.5,5.6,13.1,62.1c-2.8,34.2,42.2,111.8,14.3,143.3
		C2057.9,2566.5,2115.2,2599.6,2059.1,2635z"/>
	<path class="st1" d="M1022.7,1523.7c22.3-21.5-10-39.4,0-62.1c11.5-6,31.8-24.3,40.2-35c34.2-1.2,27.5-12.7,28.3-40.2
		c8,56.5,57.7-8.7,78.8-17.5c28.3-53.3,128.6-49,114.2-126.6c28.7,0,88,1.6,114.6-8c43-66.9,60.1,27.9,95.5,43.4
		c7.2,21.5,0.8,57.3,35,50.5c27.1-20.3,59.3-34.2,89.5-8.7c25.9-2.8,22.3-4,44.2,17.5c15.5,4.4,40.2,29.9,16.3,40.2
		c-7.6,1.6-20.7-0.8-23.1,8.8c-2.8,45,16.3,112.6-44.6,125.8c-1.6,6-1.2,14.7-8.8,6.8c2.4,20.7-11.1,70.8-36.6,40.6
		c-8.4,3.2-21.1-12.7-25.1-0.8c1.6,67.7-98.3,76-4,137.7c-4,29.5,4.8,20.7,20.3,42.2c-11.9,27.1-27.9,54.9-59.3,45.8
		c-30.7,78.4,82.8,71.6-18.3,109.1c-9.2,39-46.2,42.6-79.2,48.6c-34.6,54.9-40.2,31-80.4,71.2c7.6-49-39.4-59.7-73.2-76
		c-0.8-17.5,13.5-19.5-5.2-35.4l-26.7-11.1c0-6.4-6.8-23.5,5.2-22.7c19.9-0.8,49.8-4.8,70.4-8c16.3-2.8,29.5-19.9,45.4-15.5
		c46.2-4.4,31.8-55.3,17.1-84.8c-45,20.3-95.5-7.6-140.9-24.3c-31.8-30.3-4.4-18.7-20.7-44.2c-8.4-15.9-39-36.2-33.4-55.7
		c-18.3-18.3-39.4-13.5-40.6-47.8C1104.3,1542.5,1043.4,1558,1022.7,1523.7z"/>
	<path class="st1" d="M547.5,2044.4c2.8-17.9-16.7-24.3-31-24.3c-29.5-10.7,18.3-78-35.8-45.8c-82.8,17.9-47-115.4-138.9-68.1
		c-19.1-12.7-5.2-47.4-10.7-66.9c-13.5-33.8,2-27.1,19.5-56.1c81.6-19.9,34.2-54.9,64.1-54.1c8,14.7,24.7,19.1,40.2,16.7
		c-9.2-5.2-16.7-39.4,0-28.3c17.9,4.8,52.1-2.4,53.7-25.1c28.3-76.8,16.7-122.6-32.2-171.5c-49-83.6,119.4,5.2,95.5-67.7
		c-40.6-51.3,31-85.6,11.5-138.9c82.8-50.1,77.6,67.3,127.4,90.3c45.4-54.5,32.6-20.3,91.9-4c-68.5,90.7,84.4,41.4,12.7,131.7
		c9.2,8.4,13.5,53.3,16.3,64.9c-24.3,136.1-155.2,29.1-132.9,132.5c30.6,49.4,39.4,24.3,55.7,46.2c15.5,112.6-23.5,72.8,72.8,106.3
		c29.5,142.5-54.5,115.8-129,195.4C684,2057.5,574.1,2037.6,547.5,2044.4z"/>
	<path class="st1" d="M1290.6,518.4c27.1-8.8,53.7,27.5,78.8,26.7c-16.3-19.9,11.5-27.5,26.7-38.2c-4,9.6-30.3,30.6-13.5,38.2
		c27.9,22.3,88,107.1,128.9,72c7.6-19.9,20.7-18.3,39-16.7c12.7-16.7,8-25.1,35.4-25.5c139.3,22.3,312.4,120.6,443.4,35
		c58.1,49.8,269.9-55.3,254.3,45.4c16.7,17.1,28.3,49.8,50.6,57.7c30.6,33,5.2,61.3-34.6,76.4c-56.1-18.3-117.4-2-175.1-15.9
		c-41.4,11.5-79.6,48.2-125,41.8c-57.7-18.7-66.9,0.8-125.4-0.8c-12.3-2.8-35.4,21.1-43.4,27.9c-22.7,25.9-117.8,75.2-150.9,72
		c-37-4-85.6-34.2-117.4-11.1c-56.9,0.8-29.1-82.4-72.8-78c-29.1,20.3-73.2,24.3-108.3,27.5c-84.4-50.1-18.3-122.2-137.3-173.5
		c56.5-16.7-6.4-40.2-5.6-66.5c13.9-15.9,26.3-35.4,33.4-54.9C1289,544.2,1296.5,540.7,1290.6,518.4z"/>
	<path class="st1" d="M1244.8,678.8c60.9,30.6,86.8,67.7,94.3,134.1c31.8,58.5,103.9,38.2,150.9,11.9c35-8.8,20.7,38.2,35.4,55.3
		c22.3,42.6,57.3-2,84.4,19.9c83.2,29.1,128.2-1.6,201-37.4c35-55.7,98.3-45,153.2-62.1c12.7,26.3,52.9,14.3,76,10.7
		c46.2-15.9,82.4-54.9,134.1-29.1c54.5,2.8,121.4-18.3,157.2,36.6c20.3,14.3,66.5-6.8,85.6,15.9c4,1.2,10.4,6.8,13.5,4.8
		c21.9-14.7,6.4,48.2,8.4,56.5c20.7,31.4-13.1,49-38.2,60.1c-154.8,110.6-71.2-82.8-268.7,29.5c-41.4,107.9-69.3,21.9-136.9,41.4
		c-6.4,23.5-38.2,8.8-36.6,42.6c9.2,51.3-0.4,111.4-45,142.5c-30.6,11.1-35.8-5.2-51.3,30.6c-31-8.4-71.2-2.4-101.9-12.7
		c-13.9,2-54.9,2.4-50.1,24.7c0.4,32.6-34.6,53.3-47.4,82.4c-17.1-19.9-23.1-20.3-44.2-17.5c-45.4-43.8-76.4,25.9-115,2.4
		c-2-62.1-29.9-38.2-42.2-84.8c-20.7-34.2-40.6-35.8-62.5-2.8c-40.2,6-141.7,31.8-115.8-39c14.3-18.3-17.5-58.5-39.4-49.7
		c-13.9-25.9-39-6.8-46.6-29.1c-12.3-16.3-35.8-18.7-53.7-11.1c-10-4,5.6-31.4,0-41c-6.4-2.4-9.2,6-12.7-4.4
		c15.1-52.9,8-56.9,55.7-89.2c14.7-29.1,54.9-56.1,8-76.4c10.7-23.5,29.5,19.9,30.2-13.9c-26.3-33,7.2-53.7,15.1-87.2
		c4.4,1.2,18.7,6,17.1-2.8c19.5-35.8-18.3-48.2-37-72.4C1250.4,690.7,1184.3,717.4,1244.8,678.8z"/>
	<path class="st1" d="M493.4,1016.3c98.3-54.5,190.2-204.6,312-186.3c60.9,21.5,93.5,10,94.7,84.4c118.2,66.5,57.7,56.5,101.5,159.6
		c60.1,22.7,0,40.2-8.8,77.6c75.2,101.5,86.4-13.5,43.8,146.9c16.7,31.4,60.1,10.7,54.9,88.4c0.8,66.9-5.6,8.4-56.1,67.3
		c-38.6,13.5,13.1,46.6-12.7,69.7c-58.9,19.5-142.5,8-207.8,8.4c51.3-75.6-6-41-30.2-89.2c-14.3-20.3,54.5-52.9-19.1-51.7
		c-7.2-14.3-23.9-27.9-35.4-10c-56.9,78.4-48.6-97.5-114.2-78.8c-166,66.1-7.2-102.7-43-138.1c-15.9-32.2,26.3-31-16.7-49
		c-10.3-13.9-37-29.5-27.9-49.4C530.8,1057.7,496.1,1023.1,493.4,1016.3z"/>
	<path class="st1" d="M195.2,1199c30.6-23.5,101.1-35.4,134.1-55.3c57.7-23.9,166-190.2,199.4-77.6c-17.5,37.8,70.4,50.1,39.4,78.4
		c-0.8,18.7,21.9,32.2,14.7,50.2c-33.8,20.3-27.1,68.1-44.6,99.5c11.1,57.3,47.4-11.9,48.6,45.4c0.4,29.9-16.3,21.1-11.9,37.4
		c-45,33.4,15.5,78-6.8,100.7c-37.4,21.5-109.5-14.7-100.7,22.7c2.8,19.5,27.9,35.8,37.4,51.3c13.9,23.9,24.7,83.6-21.9,64.1
		c-78.4,5.2-12.3,47.4-58.1,37.8c-39-15.5-60.1-38.6-62.9-84.4c-72.4-52.1-37.4-26.7-73.2-89.6c-99.5-24.7-78.8,60.1-133.7-61.7
		c-37.4-31.8-26.3-64.1,7.6-91.9C198.8,1284.2,139.9,1234,195.2,1199z"/>
	<path class="st1" d="M719.8,839.2c39.4-29.1,92.7-71.2,112.2-117.4c4.8-10.7,24.3-3.6,33-10.7c8.4-2.8,24.3-18.7,29.5-6
		c23.5-89.6,49.4,78.8,139.7-54.1c9.5-5.6,23.9-11.5,14.7-24.7c24.3,9.2,122.2-27.5,77.6-50.5c-3.2-2.4-14.3-10.3-7.6-13.9
		c29,6,55.7-13.1,81.2-21.5c10,1.2,72-4.8,80.4-8.4c17.5-36.6,18.7,11.9-11.9,33.4c-10.3,35.8-51.3,53.7-7.6,78.4
		c16.7,12.3,2.8,35.4-15.5,35.4c-60.5,38.6,5.6,12.3-24.7,39.8c23.1,19.5,72.8,71.2,19.9,75.2c-2.4,30.6-42.6,46.6-19.1,76.4
		c6.8,13.5,4.8,34.2-12.7,17.5c-37,3.6,26.3,22.3,8.8,41.8c-26.3,21.5-27.9,56.9-67.7,65.3c-1.2,15.9,2.4,9.9-11.1,24.3
		c6.4,16.3-9.5,33.8-4,47.4c25.1-9.6-2.8,33.4,9.5,39.8c21.5-9.2,51.7-2.8,58.5,21.9c11.5-1.2,21.5,5.6,33,5.6
		c4.4,5.2,3.2,14.3,12.7,13.1c53.7-2.8,29.1,64.5,36.6,96.3c9.6,47-30.6,68.9-66.1,88c-38.6-0.4-101.5,127.4-127,56.1
		c8-107.1-105.9-35-25.1-175.5c-2-6.4-10-8-13.9-12.7c-134.1-43.8,11.9-88-35-113.4c-42.6-17.9-30.6-93.5-41-127.4
		c-49-18.3-89.9-29.1-81.6-91.1C855.1,834.8,769.2,812.1,719.8,839.2z"/>
	<path class="st1" d="M1377.7,1983.5c-3.2-47.4,50.2-41,79.2-56.5c35.8-24.3-4-31.4,64.1-50.2c16.3-32.2-36.6-4.4-25.1-87.2
		c19.1-23.1,16.3,27.9,53.3-33.4c23.9-32.6-22.3-27.9-12.7-44.6c12.7-27.9-44.6-31-43.4-73.6c18.7-17.9,55.7-48.2,48.2-78.4
		c23.5-17.5,47.4,44.6,62.1-21.1c-5.6-32.2,6.4-4.8,8-23.1c101.5-43.4-7.2-119,81.2-146.1c-57.7-54.9,23.1-60.9,18.3-121.4
		c40.2-32.2,105.1-4.4,152.4-3.6c-4,31.8,72.8,46.6,55.7,66.5c-23.5,31.4,32.6,228.9,84,233.6c24.7,23.9,58.9,47,45.8,85.2
		c12.3,22.7,16.7,51.7,26.3,76c-2.8,27.1-69.3,56.1-83.6,79.6c4.8,56.9-97.1,93.1-65.7,134.1c10,11.9-7.6,27.5-20.3,25.1
		c-111.4-9.2,76.4,77.6-4,136.1c-14.7,16.3-47-11.1-36.2,13.5c-9.5,268.7-119.4,39.4-113,148.8c4,16.7,27.1,35,9.2,51.7
		c-16.3,44.2-0.4,29.9-49,13.1c-31.8,10.7-74.4-4-105.5-10.8c-29.1,10.4-71.2-12.7-51.7-47.8c-9.2-0.8-19.9-0.8-28.7-4.4
		c-50.5-15.1-12.3,84-42.6,73.2c-17.1-8.8-40.6-29.9-56.5-39.8c-91.1,9.6-86-84.8-45.8-137.7
		C1402.4,2107.2,1381.7,2018.9,1377.7,1983.5z"/>
	<g class="st2">
		<circle class="st3" cx="373.2" cy="1072" r="61.1"/>
		<path class="st3" d="M506.7,1071.6c0-73.8-59.8-133.6-133.6-133.6s-133.7,59.8-133.7,133.6c0,0-9.3,130.8,133.6,257.3
			C516,1202.4,506.7,1071.6,506.7,1071.6z M373,1128.1c-31.2,0-56.4-25.3-56.4-56.4c0-31.2,25.3-56.4,56.4-56.4
			c31.2,0,56.4,25.3,56.4,56.4C429.4,1102.8,404.1,1128.1,373,1128.1z"/>
	</g>
	<g class="st2">
		<circle class="st3" cx="1063.3" cy="533.9" r="61.1"/>
		<path class="st3" d="M1196.8,533.5c0-73.8-59.8-133.6-133.6-133.6s-133.7,59.8-133.7,133.6c0,0-9.3,130.8,133.6,257.3
			C1206.1,664.3,1196.8,533.5,1196.8,533.5z M1063.1,589.9c-31.2,0-56.4-25.3-56.4-56.4c0-31.2,25.3-56.4,56.4-56.4
			c31.2,0,56.4,25.3,56.4,56.4C1119.5,564.6,1094.2,589.9,1063.1,589.9z"/>
	</g>
	<g class="st2">
		<circle class="st3" cx="1729.2" cy="1692.5" r="61.1"/>
		<path class="st3" d="M1862.6,1692.1c0-73.8-59.8-133.6-133.6-133.6c-73.8,0-133.7,59.8-133.7,133.6c0,0-9.3,130.8,133.6,257.3
			C1871.9,1822.9,1862.6,1692.1,1862.6,1692.1z M1729,1748.5c-31.2,0-56.4-25.3-56.4-56.4s25.3-56.4,56.4-56.4
			c31.2,0,56.4,25.3,56.4,56.4S1760.1,1748.5,1729,1748.5z"/>
	</g>
</g>
<g id="Capa_4">
	
		<image style="overflow:visible;" width="330" height="180" xlink:href="../../../../../../Users/florianaelsegood/Desktop/Captura de pantalla 2022-01-05 a la(s) 20.42.14.png"  transform="matrix(14.9576 0 0 14.9576 5104 219.5238)">
	</image>
</g>
<g id="Capa_1">
	<path class="st3" d="M1111.3,2139.2c-10-0.8-39.6,16.4-48.8,20.4c-13.6-35.6-47.6-65.2-64.8-98.8c-40.8-5.6-114.8,27.6-86.4-42.8
		c-0.8-10.8-22.4-26-15.2-34.4c26.4-27.2,78.8-63.2,96-97.6c17.2-20.4,43.2-42,71.6-36.4c15.6-27.6-5.6-21.6,30-40
		c29.2-29.2,3.2-66,21.2-68.8c24.8,14,54-20,72.8-31.6c25.6,37.6,80.4,45.6,122.1,59.2c30.8-11.6,37.6-26.4,50,15.2
		c-0.4,19.6,9.6,38.8-9.6,52.8c-44,10.8-90,30.8-137.2,29.2c-10,0.4-4,17.2-4,22.8c64.4,24.4,21.6,29.2,34.8,50
		c34.8,9.6,78.4,30.8,70.8,73.6c96.8-105.6,82.4,140.5,33.2,173.3c-34,1.2-26.8-22-79.6-9.2c-26-14-38.8-32.4-53.2-56
		c-26.8-1.6-22.4,31.6-56,18C1129.3,2136.4,1148.1,2160.8,1111.3,2139.2z"/>
	<path class="st3" d="M1216.6,2527.4c33.2-10.4,118.5-53.6,53.6-85.2c-56,22-20.4-60.8-9.2-82.8c-8.4-53.2,27.6-73.6,17.2-97.2
		c21.6-77.2,44.8-41.2-9.2-85.2c19.2-4,48.4-6.8,62.8,9.2c43.2-4-18.4,64,52.4,89.2c38-0.8,64.8,22.4,94.8,43.2
		c27.2-2.4,52.4,26.8,42.4,56.4c19.2,51.6,76,90,50.8,151.3c-28.4,28-17.6-14.4-55.2-0.8c-20.4-18-42.8,11.2-32.8,33.6
		c-6.8,8-66.8,16-66,0.8c3.6-1.6,14,3.2,11.2-4.8c-46.8-24.4-73.2,24.8-48.8-27.6c-30.4-1.6,10.8-74.4-34.8-36.4
		c-11.6,6-3.2,23.2-0.4,31.6c-9.2,25.6-40.4,48.8-68.4,40c-8.4-10.4-37.6-10.4-34-27.2C1236.2,2531,1223.8,2531.8,1216.6,2527.4z
		 M1373,2620.2c12,24-22,42.4-40.4,27.2C1330.2,2614.6,1332.2,2620.2,1373,2620.2z M1367.8,2557.4c9.2,7.6,39.2-11.6,40,2.4
		c-31.6,8.4,12.8,33.2-16,49.2c-14.8-7.6-61.6-10.8-50.4-35.6C1347,2564.6,1355,2547.8,1367.8,2557.4z"/>
	<path class="st3" d="M29.3,1722.3c-23.2,0.4-16-48.8,0.8-55.2c31.2-10,53.6-50,77.2-72.8c23.2-19.6,63.6,26.4,69.6-20
		c2.8-12.8-6.4-48,0-59.6c9.6-6.4,12.8-20.8,7.6-30.8c30.4-10.4,87.2-27.2,105.6,8.8c-4.4,48,78.4,57.6,66.4,105.2
		c8,29.2,49.6,58.8,78.4,51.2c-16.4-32.4,32-40.4,54-33.6c59.2-15.6,9.6,64.4,5.6,87.2c-19.2,26-85.6-5.6-49.2,41.2
		c-37.6,7.2-31.2-22.4-50.4-15.2c5.2,58.4-102,46.4-74,109.6c1.2,11.6,2,36,0.8,47.2c-8.4-36-47.2-50.8-48.8-90.8
		c-18.4-14.8-56,2.8-44-33.2c-10.8-49.2-34.8-11.2-50,10.8C130.1,1756.7,80.5,1728.7,29.3,1722.3z"/>
	<path class="st3" d="M688.7,2172c15.2-15.2,0-36.4-4.4-52.8c1.2-13.6,9.2-29.2,0-41.6c30.8-41.2,116-54.8,132.9-104.4
		c18.4-14.8-0.4-50.8,2-70.8c10.4-39.2-32-29.2-54.4-37.6c-44.4-22,6.4-18.4-18.4-91.6c-28.8-16.8-71.6-42.8-58.8-86
		c76-31.6,106,8.4,136.5-93.6c-17.6-108.4-40-42.4,123.6-68.4c22.4,5.6,50,12.4,68.4-4.8c8.4,21.2,36.4,20.8,54.8,26.8
		c47.6,15.2,29.2,60,74,77.2c8.8,4.4,8.8,14.4,7.2,23.2c11.6,12.4,41.6,40.8,39.2,59.2c-27.6,26-50.4,37.2-82.4,39.2
		c0.4,26.4,0.8,64.4-32,72.8c-13.6,26.8-7.6,35.6-46,32.4c-46,40.4-89.6,96.8-137.3,134.9c15.2,22,19.6,50.4,9.6,74
		c-22.8-8.8-25.6,19.2-10.4,29.6c3.2,24-18.4,5.2-28.4,22.8c-6.4,18.8-22.4,18-38,22.8c-4.4,14.4-11.6,6.4-22.8,4.8
		c-13.6-2.8-2,19.2-14.8,14.8C755.6,2136,721.6,2174,688.7,2172z"/>
	<path class="st3" d="M4854.8,1253.7c-13.2-3.6-148.1,29.6-110.8-4.8c-36.8-6.8-55.2,7.2-81.2-14.8c-17.2-22-14.8,32.4-63.2,31.2
		c-15.6-7.6-15.6-30-38.8-23.2c-5.2,3.2,0.8,8.8,2.8,12c-6,4.8-5.6,15.6-6,22.4c-5.2-3.6-6.8-9.6-12-3.6c-4,17.2,10,23.2-14.4,14.8
		c14.4,14.4-18,18-25.2,30c-41.6,6.4-6,54-54.4,23.6c-83.2-4.8-30.4,32.8-48.4,40c-2.4-12.4-16.4-12-26.4-10.8
		c16,37.6-93.2,2-42.4,38.8c-29.6-6.4-46.4,30.8-68.8,10.4c13.2,26.8-18-6.8-26.8-10.4c-1.6,8-7.6,25.6,0,32.4l-76.8,4
		c-18.4-1.2-8.8-2-18.8-10c-8-0.4-23.2,3.6-26-7.2c-10-7.2-22.4-17.2-32-3.6c27.6,57.2,41.6,27.2-46.8,56.8
		c-112.4-92.4-26.8,8.8-81.6,37.6c-66-10.4-29.6,0-58.4-38.8c-18.8,39.6-59.2,80-104.8,73.6c-20.8-25.6-36.4,10.8-22.8-29.2
		c-10.8-2.4-64,0.8-74-5.6c-15.6-8-44-22.4-59.2-6c-11.2-22.4-32-71.6-52.4-74c26-53.6-73.2-53.6-106.4-40
		c-168.1,294.5-33.2-885.6-74.4-943.2c77.2,35.2,186.1,63.6,262.1,98.8c-28,32.4-15.2,94,36,69.6c3.6-6.4-0.8-28.8,12.4-23.2
		c8.8,27.6,36,14,56.8,18.8c39.2,4.8,26,9.2,57.2-8.8c-42-22.8-119.6-8.4-146.9-54.4c75.2,16.4,176.9,35.2,253.7,36.4
		c155.7,88.8,273.3,274.5,449,327.7c11.2,12.4,4,20-10.8,19.6c-20.8-6-42.4-33.6-64.8-36.4c-6.8-19.6-84.4-8.8-54.4-30.4
		c-16.4-27.6-28.8-36.4-56.4-40.8c-38.8-38.4-46.8,14.4-65.6,4c-33.6-10.8-15.2-4.8-5.6-26.8c-58-17.6-8.8,32-8.8,49.6
		c-16,12.4-24.8-59.6-47.6-53.6c-24,7.6-31.2,6.4-55.2,1.6c5.6,38.8,33.6,16.8,22.8,45.2c0,5.2-5.2,11.2,3.6,9.6
		c35.6-60,32.8-50.4,62.4,7.6c11.6,26.8-8.8,17.6-20.4,34.8c6.8,33.6,33.2,67.2,68.8,71.2c12.4-4.8,2-23.2,0-31.2
		c10.4,7.2,22,18.8,23.2,31.6c-24,48.4,57.6,13.6,57.2,29.2c-58.4,8,26.4,70.4,56,43.2c52.4-16,12.8-28-13.6-43.2
		c-10-10.4-9.6-18.4-26.8-17.2c-32.4-5.2-139.3-58.4-64-76.8c19.6,10.4,81.6,27.6,84.8,55.6c21.2,18.8,58,13.6,69.6,44
		c-11.2,8.4-27.2,16.4-3.2,18.8c44.8-38,5.2,62.4,36.4,58c7.2-4.4-0.8-19.2,9.6-16.4c12,42,18.4-34.8,82.4-26.8
		c-2.4-52.4,35.2-22,69.2-19.6c6.8-2,21.2-4.8,8.4,7.2c6,14.4,10.8,47.2-8.4,54c-20.8-6-1.6-26.4-37.2-26
		c-10.4,6.8-42,65.2-8.4,44.4c-6.4-6.8-6-24,5.6-22c0,47.2,24.8,49.6,47.6,11.6c19.6-14.8,62.4-8.8,24.8-41.2
		c-7.2-16.8-10.4-57.2-35.6-36.8c-13.6-8.4-32.8-23.2-48-10.4c-7.2-4.4-2-10.4,0-16.4c-8,0.4-38.4-10.8-46-14
		c-145.2-114.8,162.5,57.2,202.9,61.6C4743.2,1116,4671.9,1212.8,4854.8,1253.7z"/>
	<path class="st3" d="M2966.5,2019.6c-36,4-23.2,27.6-65.6,34c6.8,19.6-21.2,8.4-30,25.6c-11.6,10.8-28-3.2-35.6,6.4
		c6,20.4-30,62.4,2.8,67.6c9.2,12.8,0.8,32.4-10.8,41.2c-9.2-8.4-13.6-15.2-28-13.6c-37.6,8-48.8-24.8-64.4-50.8
		c-14-9.2-27.2-8-42-2.4c-23.2-12.8-60.8-58-87.6-70.8c-3.6-54.8,36-57.2-63.6-32.8c-19.2,16.4-18.8,44.8-48.8,50.8
		c-25.6,32.8-73.2,87.6-98,121.6c-4,25.6-15.2,54-45.6,55.2c-70.4,10-39.6-19.6-116.4-9.6c-29.2-26.8-85.6-5.2-119.6-0.4
		c-35.6-9.6-90.4-2.4-84.8,45.6c-42,17.6-78.8,49.6-124.8,37.6c1.2,46.8-59.2,49.2-64.8,87.6c-20.8,30.8-70.4,57.6-76.8,1.2
		c-36.4-16-49.2,7.2-63.6-42.8c-29.6-22-19.2-20.4-12.8-54.4c38.4-24.4,62.8,38.4,73.6-21.2c22.4-25.2-24-43.2-6.8-83.6
		c9.2-19.2,32.8,24.8,59.6,21.6c54.4-9.2,42-99.6,51.2-139.7c-15.6-32.8,53.2,33.2,56.4-71.2c-24-44.8-109.2-86.4,0-81.6
		c7.6-12.4,12.4-24.4-6.4-27.2c4.4-26.8,33.2-61.2,56.4-77.6c14.8-51.2,58.4-93.2,104-122c56.8,26.8,30.4,6.8,64.8,12.8
		c20,26.4,7.2,19.2,40,22.4c40.8,11.6,88.8,31.2,110,69.2c94,39.2,173.7-117.2,229.3,20c36,14.4,37.2,18,65.2-3.2
		c34.8,2,42.4,39.6,52.4,65.6c30.8,5.6,58.4,69.2,87.6,38.8c2.8-40.8,42.4-30.8,67.6-18.4c30.4-45.2,43.2-16.8,99.6-10
		c20.4-22.8,44.4,38,40.8,58C2946.4,1993.2,2956.4,1980,2966.5,2019.6z"/>
	<path class="st3" d="M3403.4,1458.2c-21.6,10.8-18.8,40-25.6,58c-34.8,6.8-0.4,18.4,10,28.8c-19.2,21.2-29.2,18.8-2.8,25.2
		c-32.4,53.6-42.4,49.2-88.4,19.2c-14.8,19.6-5.6,58.4-14,79.2c-39.2,33.2,4.8,30-39.2,58c124.1,99.6-81.6,63.6-104.8,123.2
		c-55.2,6.8-42,102.4-104,120.1c-41.2-0.8-26.8,52-68.8,49.2c-1.2-28.4-32.8-34.4-37.6-58.4c4.8-20.8-24-72.8-41.6-49.2
		c-20.8-3.2-54.8-18.4-76.4-17.2c-20.4,56.8-48-10.8-83.6,26c-8.4,20-0.8,30.4-32.4,26.4c-6.8-2.4-20-22.4-24.4-27.6
		c-9.6-6.4-36-12-39.6-24.8c-2.8-26.4-26.8-70-58-56.4c-80,52-55.2-94.4-148.9-52.8c-68.8,35.2-46.4,47.6-136.1,32.8
		c-26-47.2-89.6-64.8-138.5-74.4c-21.2-42-18,3.2-76.4-30c-1.6-29.2-15.2-61.2-26-87.6c0.8-24,9.2-32.8-11.6-52.8
		c-15.2-23.2-50.4-33.6-66.8-54c-22.4-66-86.8-161.3-44.8-220.1c-25.6-22.4-93.2-49.6-44.4-86.4c85.6,1.2,80.4-105.6,81.2-165.7
		c7.6-11.6,32-9.2,34-25.6l36-8c38.8,46.4,88.8,15.2,101.2-33.6c78.4-24,107.2-75.2,177.7,7.2c67.2,10.4,122.8-101.2,184.5-40
		c40.4,13.2,62.8-27.6,108.8-10c-1.2-6,44.8-26,48-29.2l47.2-46.4c8-7.6,20-49.6,38.4-35.2c18,17.2,60.4-16,56.8-37.2
		c110-37.6,194.9,114,302.9,133.3C3295,1178,3453.4,1072.8,3403.4,1458.2z"/>
	<path class="st3" d="M1373,1982.4c-3.2-47.6,50.4-41.2,79.6-56.8c36-24.4-4-31.6,64.4-50.4c16.4-32.4-36.8-4.4-25.2-87.6
		c19.2-23.2,16.4,28,53.6-33.6c24-32.8-22.4-28-12.8-44.8c12.8-28-44.8-31.2-43.6-74c18.8-18,56-48.4,48.4-78.8
		c23.6-17.6,47.6,44.8,62.4-21.2c-5.6-32.4,6.4-4.8,8-23.2c102-43.6-7.2-119.6,81.6-146.9c-58-55.2,23.2-61.2,18.4-122
		c40.4-32.4,105.6-4.4,153.3-3.6c-4,32,73.2,46.8,56,66.8c-23.6,31.6,32.8,230.1,84.4,234.9c24.8,24,59.2,47.2,46,85.6
		c12.4,22.8,16.8,52,26.4,76.4c-2.8,27.2-69.6,56.4-84,80c4.8,57.2-97.6,93.6-66,134.9c10,12-7.6,27.6-20.4,25.2
		c-112-9.2,76.8,78-4,136.8c-14.8,16.4-47.2-11.2-36.4,13.6c-9.6,270.1-120,39.6-113.6,149.7c4,16.8,27.2,35.2,9.2,52
		c-16.4,44.4-0.4,30-49.2,13.2c-32,10.8-74.8-4-106-10.8c-29.2,10.4-71.6-12.8-52-48c-9.2-0.8-20-0.8-28.8-4.4
		c-50.8-15.2-12.4,84.4-42.8,73.6c-17.2-8.8-40.8-30-56.8-40c-91.6,9.6-86.4-85.2-46-138.4C1397.8,2106.8,1377,2018,1373,1982.4z"/>
	<path class="st3" d="M2287.4,614.2c58,48,137.2-30,179.3-67.2c38.8-26,131.6-15.2,174.5-24.4c58-31.6,96.8-85.6,0-87.6
		c-97.2-34,263.7,6.4,229.3,62c19.6-21.6,23.6-6.4,44.4,10.8c158.9,76,287.3,51.2,429.8-52l58.8-1.2c-32.8-20,65.6,938.8-46.4,685.9
		c-122.5-95.6-125.6-19.6-233.7-196.5c-14-20.8-89.6-46.4-112.4-55.2c-32-30-101.2-87.2-142.1-102.8c-17.6-9.2-28.8,10-44.4,1.2
		c-24.4-20.4-28.4,7.6-38.8,22c-18.8,18.8-36.4,28-60,14c-18.8,19.6-50.8,66.8-75.2,84.4c-20.8,8.4-51.2,37.2-72.4,24
		c-46.4,16.8-90,24.4-131.6-10.4c-8.4-13.6,5.6-109.6-15.6-87.6c-42-30-97.6-3.2-130.4-51.6c43.2-24,54-18.4,42.8-74.8
		c-36.4-8-18.4-16.4-40-38C2282.2,655.8,2276.6,630.2,2287.4,614.2z"/>
	<path class="st3" d="M2058.1,2637.4c-28.8,20-67.6-44.4-100.8-9.2c-26,20-70.4,56.4-48.8,92.8c4.8,8.8-15.2,50,4,53.6
		c-25.2,32.8-63.6,75.2-98.4,92c-12.4-36.4-292.5,37.2-172.5-34c-1.2-14-49.2,7.6-64.8-39.2c-4-18.4,18.4-15.2,30-18.4
		c18.4-7.2-68.4-21.6-81.6-12.8c0.8-44-26.4-98.4-55.2-126.4c-15.6,4.8-22-20-9.2-27.6c50.4-31.6,26.8-38,95.2-54
		c-7.2-24,18.8-21.6,24.4-48.8c0.8-23.6-22.4-44.4-12.8-68.8c-48-20.8-36-70.4-53.2-103.6c-24-9.2-30.4-33.2-20.8-56
		c-7.2-43.2,40.4-35.6,56-25.2c-15.2,20.8,8,35.2,21.2,48.4c36.4-3.6,78.4,1.2,113.2,15.2c-1.2,9.6-12,36.4-2.4,44
		c31.6,8.8,13.6,37.2,36.4,46c6.4,1.6,39.2-0.8,42.4,7.2c24.8,94.8,92-37.2,128.4-55.6c27.2-40.8-11.6-29.2,45.6-32.4
		c4.8,15.6,33.2-25.2,58.4-17.2c37.6-31.2,36.8-25.6,32.4,20.8c13.2,33.2,25.6,5.6,13.2,62.4c-2.8,34.4,42.4,112.4,14.4,144.1
		C2056.9,2568.6,2114.5,2601.8,2058.1,2637.4z"/>
	<path class="st3" d="M1016.1,1520.2c22.4-21.6-10-39.6,0-62.4c11.6-6,32-24.4,40.4-35.2c34.4-1.2,27.6-12.8,28.4-40.4
		c8,56.8,58-8.8,79.2-17.6c28.4-53.6,129.3-49.2,114.8-127.3c28.8,0,88.4,1.6,115.2-8c43.2-67.2,60.4,28,96,43.6
		c7.2,21.6,0.8,57.6,35.2,50.8c27.2-20.4,59.6-34.4,90-8.8c26-2.8,22.4-4,44.4,17.6c15.6,4.4,40.4,30,16.4,40.4
		c-7.6,1.6-20.8-0.8-23.2,8.8c-2.8,45.2,16.4,113.2-44.8,126.5c-1.6,6-1.2,14.8-8.8,6.8c2.4,20.8-11.2,71.2-36.8,40.8
		c-8.4,3.2-21.2-12.8-25.2-0.8c1.6,68-98.8,76.4-4,138.4c-4,29.6,4.8,20.8,20.4,42.4c-12,27.2-28,55.2-59.6,46
		c-30.8,78.8,83.2,72-18.4,109.6c-9.2,39.2-46.4,42.8-79.6,48.8c-34.8,55.2-40.4,31.2-80.8,71.6c7.6-49.2-39.6-60-73.6-76.4
		c-0.8-17.6,13.6-19.6-5.2-35.6l-26.8-11.2c0-6.4-6.8-23.6,5.2-22.8c20-0.8,50-4.8,70.8-8c16.4-2.8,29.6-20,45.6-15.6
		c46.4-4.4,32-55.6,17.2-85.2c-45.2,20.4-96-7.6-141.7-24.4c-32-30.4-4.4-18.8-20.8-44.4c-8.4-16-39.2-36.4-33.6-56
		c-18.4-18.4-39.6-13.6-40.8-48C1098.1,1539,1036.9,1554.6,1016.1,1520.2z"/>
	<path class="st3" d="M538.3,2043.6c2.8-18-16.8-24.4-31.2-24.4c-29.6-10.8,18.4-78.4-36-46c-83.2,18-47.2-116.1-139.7-68.4
		c-19.2-12.8-5.2-47.6-10.8-67.2c-13.6-34,2-27.2,19.6-56.4c82-20,34.4-55.2,64.4-54.4c8,14.8,24.8,19.2,40.4,16.8
		c-9.2-5.2-16.8-39.6,0-28.4c18,4.8,52.4-2.4,54-25.2c28.4-77.2,16.8-123.2-32.4-172.5c-49.2-84,120,5.2,96-68
		c-40.8-51.6,31.2-86,11.6-139.7c83.2-50.4,78,67.6,128.1,90.8c45.6-54.8,32.8-20.4,92.4-4c-68.8,91.2,84.8,41.6,12.8,132.5
		c9.2,8.4,13.6,53.6,16.4,65.2c-24.4,136.9-156.1,29.2-133.7,133.3c30.8,49.6,39.6,24.4,56,46.4c15.6,113.2-23.6,73.2,73.2,106.8
		c29.6,143.3-54.8,116.4-129.7,196.5C675.5,2056.8,565.1,2036.8,538.3,2043.6z"/>
	<path class="st3" d="M1285.4,509.4c27.2-8.8,54,27.6,79.2,26.8c-16.4-20,11.6-27.6,26.8-38.4c-4,9.6-30.4,30.8-13.6,38.4
		c28,22.4,88.4,107.6,129.6,72.4c7.6-20,20.8-18.4,39.2-16.8c12.8-16.8,8-25.2,35.6-25.6c140.1,22.4,314.1,121.2,445.8,35.2
		c58.4,50,271.3-55.6,255.7,45.6c16.8,17.2,28.4,50,50.8,58c30.8,33.2,5.2,61.6-34.8,76.8c-56.4-18.4-118-2-176.1-16
		c-41.6,11.6-80,48.4-125.7,42c-58-18.8-67.2,0.8-126-0.8c-12.4-2.8-35.6,21.2-43.6,28c-22.8,26-118.5,75.6-151.7,72.4
		c-37.2-4-86-34.4-118-11.2c-57.2,0.8-29.2-82.8-73.2-78.4c-29.2,20.4-73.6,24.4-108.8,27.6c-84.8-50.4-18.4-122.8-138.1-174.5
		c56.8-16.8-6.4-40.4-5.6-66.8c14-16,26.4-35.6,33.6-55.2C1283.8,535.4,1291.4,531.8,1285.4,509.4z"/>
	<path class="st3" d="M1239.4,670.6c61.2,30.8,87.2,68,94.8,134.9c32,58.8,104.4,38.4,151.7,12c35.2-8.8,20.8,38.4,35.6,55.6
		c22.4,42.8,57.6-2,84.8,20c83.6,29.2,128.8-1.6,202.1-37.6c35.2-56,98.8-45.2,154.1-62.4c12.8,26.4,53.2,14.4,76.4,10.8
		c46.4-16,82.8-55.2,134.9-29.2c54.8,2.8,122-18.4,158.1,36.8c20.4,14.4,66.8-6.8,86,16c4,1.2,10.4,6.8,13.6,4.8
		c22-14.8,6.4,48.4,8.4,56.8c20.8,31.6-13.2,49.2-38.4,60.4c-155.7,111.2-71.6-83.2-270.1,29.6c-41.6,108.4-69.6,22-137.7,41.6
		c-6.4,23.6-38.4,8.8-36.8,42.8c9.2,51.6-0.4,112-45.2,143.3c-30.8,11.2-36-5.2-51.6,30.8c-31.2-8.4-71.6-2.4-102.4-12.8
		c-14,2-55.2,2.4-50.4,24.8c0.4,32.8-34.8,53.6-47.6,82.8c-17.2-20-23.2-20.4-44.4-17.6c-45.6-44-76.8,26-115.6,2.4
		c-2-62.4-30-38.4-42.4-85.2c-20.8-34.4-40.8-36-62.8-2.8c-40.4,6-142.5,32-116.4-39.2c14.4-18.4-17.6-58.8-39.6-50
		c-14-26-39.2-6.8-46.8-29.2c-12.4-16.4-36-18.8-54-11.2c-10-4,5.6-31.6,0-41.2c-6.4-2.4-9.2,6-12.8-4.4c15.2-53.2,8-57.2,56-89.6
		c14.8-29.2,55.2-56.4,8-76.8c10.8-23.6,29.6,20,30.4-14c-26.4-33.2,7.2-54,15.2-87.6c4.4,1.2,18.8,6,17.2-2.8
		c19.6-36-18.4-48.4-37.2-72.8C1245,682.6,1178.5,709.5,1239.4,670.6z"/>
	<path class="st3" d="M711.6,831.9c39.6-29.2,93.2-71.6,112.8-118c4.8-10.8,24.4-3.6,33.2-10.8c8.4-2.8,24.4-18.8,29.6-6
		c23.6-90,49.6,79.2,140.5-54.4c9.6-5.6,24-11.6,14.8-24.8c24.4,9.2,122.8-27.6,78-50.8c-3.2-2.4-14.4-10.4-7.6-14
		c29.2,6,56-13.2,81.6-21.6c10,1.2,72.4-4.8,80.8-8.4c17.6-36.8,18.8,12-12,33.6c-10.4,36-51.6,54-7.6,78.8
		c16.8,12.4,2.8,35.6-15.6,35.6c-60.8,38.8,5.6,12.4-24.8,40c23.2,19.6,73.2,71.6,20,75.6c-2.4,30.8-42.8,46.8-19.2,76.8
		c6.8,13.6,4.8,34.4-12.8,17.6c-37.2,3.6,26.4,22.4,8.8,42c-26.4,21.6-28,57.2-68,65.6c-1.2,16,2.4,10-11.2,24.4
		c6.4,16.4-9.6,34-4,47.6c25.2-9.6-2.8,33.6,9.6,40c21.6-9.2,52-2.8,58.8,22c11.6-1.2,21.6,5.6,33.2,5.6c4.4,5.2,3.2,14.4,12.8,13.2
		c54-2.8,29.2,64.8,36.8,96.8c9.6,47.2-30.8,69.2-66.4,88.4c-38.8-0.4-102,128.1-127.6,56.4c8-107.7-106.4-35.2-25.2-176.5
		c-2-6.4-10-8-14-12.8c-134.9-44,12-88.4-35.2-114c-42.8-18-30.8-94-41.2-128.1c-49.2-18.4-90.4-29.2-82-91.6
		C847.6,827.5,761.2,804.7,711.6,831.9z"/>
	<path class="st3" d="M483.9,1010c98.8-54.8,191.3-205.7,313.7-187.3c61.2,21.6,94,10,95.2,84.8c118.8,66.8,58,56.8,102,160.5
		c60.4,22.8,0,40.4-8.8,78c75.6,102,86.8-13.6,44,147.7c16.8,31.6,60.4,10.8,55.2,88.8c0.8,67.2-5.6,8.4-56.4,67.6
		c-38.8,13.6,13.2,46.8-12.8,70c-59.2,19.6-143.3,8-208.9,8.4c51.6-76-6-41.2-30.4-89.6c-14.4-20.4,54.8-53.2-19.2-52
		c-7.2-14.4-24-28-35.6-10c-57.2,78.8-48.8-98-114.8-79.2c-166.9,66.4-7.2-103.2-43.2-138.9c-16-32.4,26.4-31.2-16.8-49.2
		c-10.4-14-37.2-29.6-28-49.6C521.5,1051.6,486.7,1016.8,483.9,1010z"/>
	<g id="islas">
		<path class="st3" d="M1799.7,362.8c18.4,42.3-51.2,31.4-77,57.4C1651,389.7,1764.5,364.3,1799.7,362.8z"/>
		<path class="st3" d="M2046.3,214c21.9-95.9,343.2-168.3,366.4-129.8c-114.7-2.4-205.5,73.1-313.5,103.5
			C2085,196.7,2051.8,248.1,2046.3,214z"/>
		<path class="st3" d="M2676.1,46.8c37-95.2,126.8-22.6,60.9-20.5c-11.1,36.4-65.1,49.5-93.2,76.1
			C2638.1,85.1,2659.3,53.3,2676.1,46.8z"/>
	</g>
</g>
<g id="Capa_3">
	<path class="st4" d="M184.1,1193.6C215,1170,285.8,1158,319,1138c58-24,166.9-191.3,200.5-78c-17.6,38,70.8,50.4,39.6,78.8
		c-0.8,18.8,22,32.4,14.8,50.4c-34,20.4-27.2,68.4-44.8,100c11.2,57.6,47.6-12,48.8,45.6c0.4,30-16.4,21.2-12,37.6
		c-45.2,33.6,15.6,78.4-6.8,101.2c-37.6,21.6-110-14.8-101.2,22.8c2.8,19.6,28,36,37.6,51.6c14,24,24.8,84-22,64.4
		c-78.8,5.2-12.4,47.6-58.4,38c-39.2-15.6-60.4-38.8-63.2-84.8c-72.8-52.4-37.6-26.8-73.6-90c-100-24.8-79.2,60.4-134.5-62
		c-37.6-32-26.4-64.4,7.6-92.4C187.7,1279.3,128.5,1228.9,184.1,1193.6z"/>
	<g>
		<circle class="st5" cx="363.1" cy="1066" r="61.5"/>
		<path class="st6" d="M497.2,1065.6c0-74.2-60.2-134.4-134.4-134.4s-134.4,60.2-134.4,134.4c0,0-9.4,131.5,134.4,258.7
			C506.6,1197.1,497.2,1065.6,497.2,1065.6z M362.9,1122.4c-31.3,0-56.7-25.4-56.7-56.7c0-31.3,25.4-56.7,56.7-56.7
			c31.3,0,56.7,25.4,56.7,56.7C419.6,1097,394.1,1122.4,362.9,1122.4z"/>
	</g>
</g>
</svg>
