<?xml version="1.0" encoding="utf-8"?>
<!-- Generator: Adobe Illustrator 22.0.1, SVG Export Plug-In . SVG Version: 6.00 Build 0)  -->
<svg version="1.1" xmlns="http://www.w3.org/2000/svg" xmlns:xlink="http://www.w3.org/1999/xlink" x="0px" y="0px"
	 viewBox="0 0 4933 2839" style="enable-background:new 0 0 4933 2839;" xml:space="preserve">
<style type="text/css">
	.st0{display:none;}
	.st1{display:inline;fill:#002857;stroke:url(#SVGID_1_);stroke-width:14.1732;stroke-miterlimit:10;}
	.st2{display:inline;fill:#002857;stroke:url(#SVGID_2_);stroke-width:14.1732;stroke-miterlimit:10;}
	.st3{display:inline;fill:#002857;stroke:url(#SVGID_3_);stroke-width:14.1732;stroke-miterlimit:10;}
	.st4{display:inline;fill:#002857;stroke:url(#SVGID_4_);stroke-width:14.1732;stroke-miterlimit:10;}
	.st5{display:inline;fill:#002857;stroke:url(#SVGID_5_);stroke-width:14.1732;stroke-miterlimit:10;}
	.st6{display:inline;fill:#002857;stroke:url(#SVGID_6_);stroke-width:14.1732;stroke-miterlimit:10;}
	.st7{display:inline;fill:#002857;stroke:url(#SVGID_7_);stroke-width:14.1732;stroke-miterlimit:10;}
	.st8{display:inline;fill:#002857;stroke:url(#SVGID_8_);stroke-width:14.1732;stroke-miterlimit:10;}
	.st9{display:inline;fill:#002857;stroke:url(#SVGID_9_);stroke-width:14.1732;stroke-miterlimit:10;}
	.st10{display:inline;fill:#002857;stroke:url(#SVGID_10_);stroke-width:14.1732;stroke-miterlimit:10;}
	.st11{display:inline;fill:#002857;stroke:url(#SVGID_11_);stroke-width:14.1732;stroke-miterlimit:10;}
	.st12{display:inline;fill:#002857;stroke:url(#SVGID_12_);stroke-width:14.1732;stroke-miterlimit:10;}
	.st13{display:inline;fill:#DC521C;stroke:url(#SVGID_13_);stroke-width:14.1732;stroke-miterlimit:10;}
	.st14{display:inline;fill:#DC521C;stroke:url(#SVGID_14_);stroke-width:14.1732;stroke-miterlimit:10;}
	.st15{display:inline;fill:#DC521C;stroke:url(#SVGID_15_);stroke-width:14.1732;stroke-miterlimit:10;}
	.st16{display:inline;fill:#DC521C;stroke:url(#SVGID_16_);stroke-width:14.1732;stroke-miterlimit:10;}
	.st17{display:inline;fill:#DC521C;stroke:url(#SVGID_17_);stroke-width:14.1732;stroke-miterlimit:10;}
	.st18{display:inline;}
	.st19{fill:#FFFFFF;}
	.st20{fill:#002857;}
	.st21{display:inline;fill:#002857;stroke:url(#SVGID_18_);stroke-width:14.1732;stroke-miterlimit:10;}
	.st22{display:inline;fill:#002857;stroke:url(#SVGID_19_);stroke-width:14.1732;stroke-miterlimit:10;}
	.st23{display:inline;fill:#002857;stroke:url(#SVGID_20_);stroke-width:14.1732;stroke-miterlimit:10;}
	.st24{display:inline;fill:#002857;stroke:url(#SVGID_21_);stroke-width:14.1732;stroke-miterlimit:10;}
	.st25{display:inline;fill:#002857;stroke:url(#SVGID_22_);stroke-width:14.1732;stroke-miterlimit:10;}
	.st26{display:inline;fill:#002857;stroke:url(#SVGID_23_);stroke-width:14.1732;stroke-miterlimit:10;}
	.st27{display:inline;fill:#002857;stroke:url(#SVGID_24_);stroke-width:14.1732;stroke-miterlimit:10;}
	.st28{display:inline;fill:#002857;stroke:url(#SVGID_25_);stroke-width:14.1732;stroke-miterlimit:10;}
	.st29{display:inline;fill:#002857;stroke:url(#SVGID_26_);stroke-width:14.1732;stroke-miterlimit:10;}
	.st30{display:inline;fill:#002857;stroke:url(#SVGID_27_);stroke-width:14.1732;stroke-miterlimit:10;}
	.st31{display:inline;fill:#002857;stroke:url(#SVGID_28_);stroke-width:14.1732;stroke-miterlimit:10;}
	.st32{display:inline;fill:#002857;stroke:url(#SVGID_29_);stroke-width:14.1732;stroke-miterlimit:10;}
	.st33{display:inline;fill:#002857;stroke:url(#SVGID_30_);stroke-width:14.1732;stroke-miterlimit:10;}
	.st34{display:inline;fill:#002857;stroke:url(#SVGID_31_);stroke-width:14.1732;stroke-miterlimit:10;}
	.st35{display:inline;fill:#009ED6;stroke:url(#SVGID_32_);stroke-width:21.3837;stroke-miterlimit:10;}
	.st36{display:inline;fill:#009ED6;stroke:url(#SVGID_33_);stroke-width:21.3837;stroke-miterlimit:10;}
	.st37{display:inline;fill:#009ED6;stroke:url(#SVGID_34_);stroke-width:21.3837;stroke-miterlimit:10;}
	.st38{fill:#F1F4F9;stroke:#002857;stroke-width:14.1732;stroke-miterlimit:10;}
	.st39{fill:#009ED6;stroke:#002857;stroke-width:21.3837;stroke-miterlimit:10;}
</style>
<g id="Capa_2" class="st0">
	<linearGradient id="SVGID_1_" gradientUnits="userSpaceOnUse" x1="915.2039" y1="1899.6812" x2="1422.5696" y2="1899.6812">
		<stop  offset="0" style="stop-color:#C39E33"/>
		<stop  offset="0.5259" style="stop-color:#FAF8D1"/>
		<stop  offset="0.9947" style="stop-color:#DEC75D"/>
	</linearGradient>
	<path class="st1" d="M1139.7,2093.6c-10-0.8-39.7,16.5-49,20.5c-13.6-35.7-47.8-65.4-65-99.1c-40.9-5.6-115.2,27.7-86.7-43
		c-0.8-10.8-22.5-26.1-15.3-34.5c26.5-27.3,79.1-63.4,96.3-97.9c17.3-20.5,43.4-42.2,71.9-36.5c15.7-27.7-5.6-21.7,30.1-40.1
		c29.3-29.3,3.2-66.2,21.3-69c24.9,14,54.2-20.1,73.1-31.7c25.7,37.7,80.7,45.8,122.4,59.4c30.9-11.6,37.7-26.5,50.2,15.3
		c-0.4,19.7,9.6,38.9-9.6,53c-44.2,10.8-90.3,30.9-137.7,29.3c-10,0.4-4,17.3-4,22.9c64.6,24.5,21.7,29.3,34.9,50.2
		c34.9,9.6,78.7,30.9,71,73.9c97.1-106,82.7,140.9,33.3,173.8c-34.1,1.2-26.9-22.1-79.9-9.2c-26.1-14-38.9-32.5-53.4-56.2
		c-26.9-1.6-22.5,31.7-56.2,18.1C1157.8,2090.8,1176.7,2115.3,1139.7,2093.6z"/>
	<linearGradient id="SVGID_2_" gradientUnits="userSpaceOnUse" x1="1228.2628" y1="2368.5854" x2="1615.6119" y2="2368.5854">
		<stop  offset="0" style="stop-color:#C39E33"/>
		<stop  offset="0.5259" style="stop-color:#FAF8D1"/>
		<stop  offset="0.9947" style="stop-color:#DEC75D"/>
	</linearGradient>
	<path class="st2" d="M1245.3,2483c33.3-10.4,118.8-53.8,53.8-85.5c-56.2,22.1-20.5-61-9.2-83.1c-8.4-53.4,27.7-73.9,17.3-97.5
		c21.7-77.5,45-41.3-9.2-85.5c19.3-4,48.6-6.8,63,9.2c43.4-4-18.5,64.2,52.6,89.5c38.1-0.8,65,22.5,95.1,43.4
		c27.3-2.4,52.6,26.9,42.6,56.6c19.3,51.8,76.3,90.3,51,151.7c-28.5,28.1-17.7-14.4-55.4-0.8c-20.5-18.1-43,11.2-32.9,33.7
		c-6.8,8-67,16.1-66.2,0.8c3.6-1.6,14,3.2,11.2-4.8c-47-24.5-73.5,24.9-49-27.7c-30.5-1.6,10.8-74.7-34.9-36.5
		c-11.6,6-3.2,23.3-0.4,31.7c-9.2,25.7-40.5,49-68.6,40.1c-8.4-10.4-37.7-10.4-34.1-27.3C1265,2486.6,1252.5,2487.4,1245.3,2483z
		 M1402.3,2576.1c12,24.1-22.1,42.5-40.5,27.3C1359.3,2570.5,1361.3,2576.1,1402.3,2576.1z M1397,2513.1c9.2,7.6,39.3-11.6,40.1,2.4
		c-31.7,8.4,12.8,33.3-16.1,49.4c-14.9-7.6-61.8-10.8-50.6-35.7C1376.2,2520.3,1384.2,2503.4,1397,2513.1z"/>
	<linearGradient id="SVGID_3_" gradientUnits="userSpaceOnUse" x1="32.398" y1="1648.6042" x2="551.5554" y2="1648.6042">
		<stop  offset="0" style="stop-color:#C39E33"/>
		<stop  offset="0.5259" style="stop-color:#FAF8D1"/>
		<stop  offset="0.9947" style="stop-color:#DEC75D"/>
	</linearGradient>
	<path class="st3" d="M54.3,1675.3c-23.3,0.4-16.1-49,0.8-55.4c31.3-10,53.8-50.2,77.5-73.1c23.3-19.7,63.8,26.5,69.8-20.1
		c2.8-12.8-6.4-48.2,0-59.8c9.6-6.4,12.8-20.9,7.6-30.9c30.5-10.4,87.5-27.3,106,8.8c-4.4,48.2,78.7,57.8,66.6,105.6
		c8,29.3,49.8,59,78.7,51.4c-16.5-32.5,32.1-40.5,54.2-33.7c59.4-15.7,9.6,64.6,5.6,87.5c-19.3,26.1-85.9-5.6-49.4,41.3
		c-37.7,7.2-31.3-22.5-50.6-15.3c5.2,58.6-102.4,46.6-74.3,110c1.2,11.6,2,36.1,0.8,47.4c-8.4-36.1-47.4-51-49-91.1
		c-18.5-14.8-56.2,2.8-44.2-33.3c-10.8-49.4-34.9-11.2-50.2,10.8C155.4,1709.8,105.7,1681.7,54.3,1675.3z"/>
	<linearGradient id="SVGID_4_" gradientUnits="userSpaceOnUse" x1="699.691" y1="1796.9979" x2="1227.2361" y2="1796.9979">
		<stop  offset="0" style="stop-color:#C39E33"/>
		<stop  offset="0.5259" style="stop-color:#FAF8D1"/>
		<stop  offset="0.9947" style="stop-color:#DEC75D"/>
	</linearGradient>
	<path class="st4" d="M715.8,2126.5c15.3-15.3,0-36.5-4.4-53c1.2-13.7,9.2-29.3,0-41.8c30.9-41.3,116.4-55,133.3-104.8
		c18.5-14.8-0.4-51,2-71c10.4-39.3-32.1-29.3-54.6-37.7c-44.6-22.1,6.4-18.5-18.5-91.9c-28.9-16.9-71.9-43-59-86.3
		c76.3-31.7,106.4,8.4,136.9-93.9c-17.7-108.8-40.1-42.6,124-68.6c22.5,5.6,50.2,12.4,68.6-4.8c8.4,21.3,36.5,20.9,55,26.9
		c47.8,15.3,29.3,60.2,74.3,77.5c8.8,4.4,8.8,14.5,7.2,23.3c11.6,12.4,41.8,40.9,39.3,59.4c-27.7,26.1-50.6,37.3-82.7,39.3
		c0.4,26.5,0.8,64.6-32.1,73.1c-13.6,26.9-7.6,35.7-46.2,32.5c-46.2,40.5-89.9,97.1-137.7,135.3c15.3,22.1,19.7,50.6,9.6,74.3
		c-22.9-8.8-25.7,19.3-10.4,29.7c3.2,24.1-18.5,5.2-28.5,22.9c-6.4,18.9-22.5,18.1-38.1,22.9c-4.4,14.5-11.6,6.4-22.9,4.8
		c-13.6-2.8-2,19.3-14.9,14.9C782.9,2090.4,748.7,2128.5,715.8,2126.5z"/>
	<linearGradient id="SVGID_5_" gradientUnits="userSpaceOnUse" x1="3418.2695" y1="951.1214" x2="4896.8945" y2="951.1214">
		<stop  offset="0" style="stop-color:#C39E33"/>
		<stop  offset="0.5259" style="stop-color:#FAF8D1"/>
		<stop  offset="0.9947" style="stop-color:#DEC75D"/>
	</linearGradient>
	<path class="st5" d="M4895,1205.3c-13.3-3.6-148.5,29.7-111.2-4.8c-36.9-6.8-55.4,7.2-81.5-14.9c-17.3-22.1-14.9,32.5-63.4,31.3
		c-15.7-7.6-15.7-30.1-38.9-23.3c-5.2,3.2,0.8,8.8,2.8,12c-6,4.8-5.6,15.7-6,22.5c-5.2-3.6-6.8-9.6-12-3.6
		c-4,17.3,10,23.3-14.5,14.9c14.5,14.5-18.1,18.1-25.3,30.1c-41.8,6.4-6,54.2-54.6,23.7c-83.5-4.8-30.5,32.9-48.6,40.1
		c-2.4-12.4-16.5-12-26.5-10.8c16.1,37.7-93.5,2-42.5,38.9c-29.7-6.4-46.6,30.9-69,10.4c13.2,26.9-18.1-6.8-26.9-10.4
		c-1.6,8-7.6,25.7,0,32.5l-77.1,4c-18.5-1.2-8.8-2-18.9-10c-8-0.4-23.3,3.6-26.1-7.2c-10-7.2-22.5-17.3-32.1-3.6
		c27.7,57.4,41.8,27.3-47,57c-112.8-92.7-26.9,8.8-81.9,37.7c-66.2-10.4-29.7,0-58.6-38.9c-18.9,39.7-59.4,80.3-105.2,73.9
		c-20.9-25.7-36.5,10.8-22.9-29.3c-10.8-2.4-64.2,0.8-74.3-5.6c-15.7-8-44.2-22.5-59.4-6c-11.2-22.5-32.1-71.9-52.6-74.3
		c26.1-53.8-73.5-53.8-106.8-40.1c-168.6,295.4-33.3-888.3-74.7-946.1c77.5,35.3,186.7,63.8,262.9,99.2
		c-28.1,32.5-15.3,94.3,36.1,69.8c3.6-6.4-0.8-28.9,12.4-23.3c8.8,27.7,36.1,14,57,18.9c39.3,4.8,26.1,9.2,57.4-8.8
		c-42.2-22.9-120-8.4-147.3-54.6c75.5,16.5,177.4,35.3,254.5,36.5c156.1,89.1,274.2,275.4,450.4,328.8c11.2,12.4,4,20.1-10.8,19.7
		c-20.9-6-42.5-33.7-65-36.5c-6.8-19.7-84.7-8.8-54.6-30.5c-16.5-27.7-28.9-36.5-56.6-40.9c-38.9-38.5-47,14.5-65.8,4
		c-33.7-10.8-15.3-4.8-5.6-26.9c-58.2-17.7-8.8,32.1-8.8,49.8c-16.1,12.4-24.9-59.8-47.8-53.8c-24.1,7.6-31.3,6.4-55.4,1.6
		c5.6,38.9,33.7,16.9,22.9,45.4c0,5.2-5.2,11.2,3.6,9.6c35.7-60.2,32.9-50.6,62.6,7.6c11.6,26.9-8.8,17.7-20.5,34.9
		c6.8,33.7,33.3,67.4,69,71.5c12.4-4.8,2-23.3,0-31.3c10.4,7.2,22.1,18.9,23.3,31.7c-24.1,48.6,57.8,13.6,57.4,29.3
		c-58.6,8,26.5,70.7,56.2,43.4c52.6-16.1,12.8-28.1-13.6-43.4c-10-10.4-9.6-18.5-26.9-17.3c-32.5-5.2-139.7-58.6-64.2-77.1
		c19.7,10.4,81.9,27.7,85.1,55.8c21.3,18.9,58.2,13.6,69.8,44.2c-11.2,8.4-27.3,16.5-3.2,18.9c45-38.1,5.2,62.6,36.5,58.2
		c7.2-4.4-0.8-19.3,9.6-16.5c12,42.1,18.5-34.9,82.7-26.9c-2.4-52.6,35.3-22.1,69.4-19.7c6.8-2,21.3-4.8,8.4,7.2
		c6,14.5,10.8,47.4-8.4,54.2c-20.9-6-1.6-26.5-37.3-26.1c-10.4,6.8-42.1,65.4-8.4,44.6c-6.4-6.8-6-24.1,5.6-22.1
		c0,47.4,24.9,49.8,47.8,11.6c19.7-14.9,62.6-8.8,24.9-41.3c-7.2-16.9-10.4-57.4-35.7-36.9c-13.6-8.4-32.9-23.3-48.2-10.4
		c-7.2-4.4-2-10.4,0-16.5c-8,0.4-38.5-10.8-46.2-14c-145.7-115.2,163,57.4,203.5,61.8C4783,1067.2,4711.6,1164.3,4895,1205.3z"/>
	<linearGradient id="SVGID_6_" gradientUnits="userSpaceOnUse" x1="1701.1364" y1="2033.9495" x2="3009.5769" y2="2033.9495">
		<stop  offset="0" style="stop-color:#C39E33"/>
		<stop  offset="0.5259" style="stop-color:#FAF8D1"/>
		<stop  offset="0.9947" style="stop-color:#DEC75D"/>
	</linearGradient>
	<path class="st6" d="M3000.7,1973.6c-36.1,4-23.3,27.7-65.8,34.1c6.8,19.7-21.3,8.4-30.1,25.7c-11.6,10.8-28.1-3.2-35.7,6.4
		c6,20.5-30.1,62.6,2.8,67.8c9.2,12.8,0.8,32.5-10.8,41.3c-9.2-8.4-13.6-15.3-28.1-13.7c-37.7,8-49-24.9-64.6-51
		c-14-9.2-27.3-8-42.1-2.4c-23.3-12.8-61-58.2-87.9-71c-3.6-55,36.1-57.4-63.8-32.9c-19.3,16.5-18.9,45-49,51
		c-25.7,32.9-73.5,87.9-98.3,122c-4,25.7-15.3,54.2-45.8,55.4c-70.6,10-39.7-19.7-116.8-9.6c-29.3-26.9-85.9-5.2-120-0.4
		c-35.7-9.6-90.7-2.4-85.1,45.8c-42.1,17.7-79.1,49.8-125.2,37.7c1.2,47-59.4,49.4-65,87.9c-20.9,30.9-70.7,57.8-77.1,1.2
		c-36.5-16.1-49.4,7.2-63.8-43c-29.7-22.1-19.3-20.5-12.8-54.6c38.5-24.5,63,38.5,73.9-21.3c22.5-25.3-24.1-43.4-6.8-83.9
		c9.2-19.3,32.9,24.9,59.8,21.7c54.6-9.2,42.2-100,51.4-140.1c-15.7-32.9,53.4,33.3,56.6-71.5c-24.1-45-109.6-86.7,0-81.9
		c7.6-12.4,12.4-24.5-6.4-27.3c4.4-26.9,33.3-61.4,56.6-77.9c14.8-51.4,58.6-93.5,104.4-122.4c57,26.9,30.5,6.8,65,12.8
		c20.1,26.5,7.2,19.3,40.1,22.5c40.9,11.6,89.1,31.3,110.4,69.4c94.3,39.3,174.2-117.6,230,20.1c36.1,14.5,37.3,18.1,65.4-3.2
		c34.9,2,42.5,39.7,52.6,65.8c30.9,5.6,58.6,69.5,87.9,38.9c2.8-40.9,42.6-30.9,67.8-18.5c30.5-45.4,43.3-16.9,100-10
		c20.5-22.9,44.6,38.1,40.9,58.2C2980.6,1947.1,2990.7,1933.8,3000.7,1973.6z"/>
	<linearGradient id="SVGID_7_" gradientUnits="userSpaceOnUse" x1="2307.0188" y1="752.8581" x2="3463.4917" y2="752.8581">
		<stop  offset="0" style="stop-color:#C39E33"/>
		<stop  offset="0.5259" style="stop-color:#FAF8D1"/>
		<stop  offset="0.9947" style="stop-color:#DEC75D"/>
	</linearGradient>
	<path class="st7" d="M2319.5,563.8c58.2,48.2,137.7-30.1,179.8-67.4c38.9-26.1,132.1-15.3,175-24.5c58.2-31.7,97.1-85.9,0-87.9
		c-97.5-34.1,264.5,6.4,230,62.2c19.7-21.7,23.7-6.4,44.6,10.8c159.4,76.3,288.2,51.4,431.1-52.2l59-1.2
		c-32.9-20.1,65.8,941.7-46.6,688c-122.8-95.9-126-19.7-234.4-197.1c-14-20.9-89.9-46.6-112.8-55.4
		c-32.1-30.1-101.6-87.5-142.5-103.2c-17.7-9.2-28.9,10-44.6,1.2c-24.5-20.5-28.5,7.6-38.9,22.1c-18.9,18.9-36.5,28.1-60.2,14.1
		c-18.9,19.7-51,67-75.5,84.7c-20.9,8.4-51.4,37.3-72.7,24.1c-46.6,16.9-90.3,24.5-132.1-10.4c-8.4-13.6,5.6-110-15.7-87.9
		c-42.1-30.1-97.9-3.2-130.9-51.8c43.3-24.1,54.2-18.5,43-75.1c-36.5-8-18.5-16.5-40.1-38.1C2314.3,605.5,2308.7,579.8,2319.5,563.8
		z"/>
	<linearGradient id="SVGID_8_" gradientUnits="userSpaceOnUse" x1="1035.1201" y1="1568.0623" x2="1723.6484" y2="1568.0623">
		<stop  offset="0" style="stop-color:#C39E33"/>
		<stop  offset="0.5259" style="stop-color:#FAF8D1"/>
		<stop  offset="0.9947" style="stop-color:#DEC75D"/>
	</linearGradient>
	<path class="st8" d="M1044.2,1472.6c22.5-21.7-10-39.7,0-62.6c11.6-6,32.1-24.5,40.5-35.3c34.5-1.2,27.7-12.8,28.5-40.5
		c8,57,58.2-8.8,79.5-17.7c28.5-53.8,129.7-49.4,115.2-127.7c28.9,0,88.7,1.6,115.6-8c43.4-67.4,60.6,28.1,96.3,43.8
		c7.2,21.7,0.8,57.8,35.3,51c27.3-20.5,59.8-34.5,90.3-8.8c26.1-2.8,22.5-4,44.6,17.7c15.7,4.4,40.5,30.1,16.5,40.5
		c-7.6,1.6-20.9-0.8-23.3,8.8c-2.8,45.4,16.5,113.6-45,126.8c-1.6,6-1.2,14.8-8.8,6.8c2.4,20.9-11.2,71.5-36.9,40.9
		c-8.4,3.2-21.3-12.8-25.3-0.8c1.6,68.2-99.1,76.7-4,138.9c-4,29.7,4.8,20.9,20.5,42.5c-12,27.3-28.1,55.4-59.8,46.2
		c-30.9,79.1,83.5,72.3-18.5,110c-9.2,39.3-46.6,43-79.9,49c-34.9,55.4-40.5,31.3-81.1,71.8c7.6-49.4-39.8-60.2-73.9-76.7
		c-0.8-17.7,13.7-19.7-5.2-35.7l-26.9-11.2c0-6.4-6.8-23.7,5.2-22.9c20.1-0.8,50.2-4.8,71-8c16.5-2.8,29.7-20.1,45.8-15.7
		c46.6-4.4,32.1-55.8,17.3-85.5c-45.4,20.5-96.3-7.6-142.1-24.5c-32.1-30.5-4.4-18.9-20.9-44.6c-8.4-16.1-39.3-36.5-33.7-56.2
		c-18.5-18.5-39.7-13.6-40.9-48.2C1126.5,1491.5,1065.1,1507.1,1044.2,1472.6z"/>
	<linearGradient id="SVGID_9_" gradientUnits="userSpaceOnUse" x1="334.2482" y1="1642.2441" x2="861.9188" y2="1642.2441">
		<stop  offset="0" style="stop-color:#C39E33"/>
		<stop  offset="0.5259" style="stop-color:#FAF8D1"/>
		<stop  offset="0.9947" style="stop-color:#DEC75D"/>
	</linearGradient>
	<path class="st9" d="M564.9,1997.7c2.8-18.1-16.9-24.5-31.3-24.5c-29.7-10.8,18.5-78.7-36.1-46.2c-83.5,18.1-47.4-116.4-140.1-68.6
		c-19.3-12.8-5.2-47.8-10.8-67.4c-13.6-34.1,2-27.3,19.7-56.6c82.3-20.1,34.5-55.4,64.6-54.6c8,14.9,24.9,19.3,40.5,16.9
		c-9.2-5.2-16.9-39.7,0-28.5c18.1,4.8,52.6-2.4,54.2-25.3c28.5-77.5,16.9-123.6-32.5-173c-49.4-84.3,120.4,5.2,96.3-68.2
		c-40.9-51.8,31.3-86.3,11.6-140.1c83.5-50.6,78.3,67.8,128.5,91.1c45.8-55,32.9-20.5,92.7-4c-69,91.5,85.1,41.8,12.8,132.9
		c9.2,8.4,13.6,53.8,16.5,65.4c-24.5,137.3-156.6,29.3-134.1,133.7c30.9,49.8,39.7,24.5,56.2,46.6c15.7,113.6-23.7,73.5,73.5,107.2
		c29.7,143.7-55,116.8-130.1,197.1C702.6,2010.9,591.8,1990.8,564.9,1997.7z"/>
	<linearGradient id="SVGID_10_" gradientUnits="userSpaceOnUse" x1="1246.609" y1="646.0623" x2="2387.645" y2="646.0623">
		<stop  offset="0" style="stop-color:#C39E33"/>
		<stop  offset="0.5259" style="stop-color:#FAF8D1"/>
		<stop  offset="0.9947" style="stop-color:#DEC75D"/>
	</linearGradient>
	<path class="st10" d="M1314.3,458.6c27.3-8.8,54.2,27.7,79.5,26.9c-16.5-20.1,11.6-27.7,26.9-38.5c-4,9.6-30.5,30.9-13.6,38.5
		c28.1,22.5,88.7,108,130.1,72.7c7.6-20.1,20.9-18.5,39.3-16.9c12.8-16.9,8-25.3,35.7-25.7c140.5,22.5,315.1,121.6,447.2,35.3
		c58.6,50.2,272.2-55.8,256.5,45.8c16.9,17.3,28.5,50.2,51,58.2c30.9,33.3,5.2,61.8-34.9,77.1c-56.6-18.5-118.4-2-176.6-16.1
		c-41.8,11.6-80.3,48.6-126.1,42.1c-58.2-18.9-67.4,0.8-126.4-0.8c-12.4-2.8-35.7,21.3-43.8,28.1c-22.9,26.1-118.8,75.9-152.1,72.7
		c-37.3-4-86.3-34.5-118.4-11.2c-57.4,0.8-29.3-83.1-73.5-78.7c-29.3,20.5-73.9,24.5-109.2,27.7c-85.1-50.6-18.5-123.2-138.5-175
		c57-16.9-6.4-40.5-5.6-67c14-16.1,26.5-35.7,33.7-55.4C1312.7,484.7,1320.4,481.1,1314.3,458.6z"/>
	<linearGradient id="SVGID_11_" gradientUnits="userSpaceOnUse" x1="1145.5479" y1="954.8635" x2="2486.0029" y2="954.8635">
		<stop  offset="0" style="stop-color:#C39E33"/>
		<stop  offset="0.5259" style="stop-color:#FAF8D1"/>
		<stop  offset="0.9947" style="stop-color:#DEC75D"/>
	</linearGradient>
	<path class="st11" d="M1268.2,620.4c61.4,30.9,87.5,68.2,95.1,135.3c32.1,59,104.8,38.5,152.1,12c35.3-8.8,20.9,38.5,35.7,55.8
		c22.5,43,57.8-2,85.1,20.1c83.9,29.3,129.3-1.6,202.7-37.7c35.3-56.2,99.1-45.4,154.5-62.6c12.8,26.5,53.4,14.5,76.7,10.8
		c46.6-16.1,83.1-55.4,135.3-29.3c55,2.8,122.4-18.5,158.6,36.9c20.5,14.5,67-6.8,86.3,16.1c4,1.2,10.4,6.8,13.6,4.8
		c22.1-14.9,6.4,48.6,8.4,57c20.9,31.7-13.2,49.4-38.5,60.6c-156.2,111.6-71.9-83.5-271,29.7c-41.8,108.8-69.8,22.1-138.1,41.7
		c-6.4,23.7-38.5,8.8-36.9,43c9.2,51.8-0.4,112.4-45.4,143.7c-30.9,11.2-36.1-5.2-51.8,30.9c-31.3-8.4-71.8-2.4-102.8-12.8
		c-14,2-55.4,2.4-50.6,24.9c0.4,32.9-34.9,53.8-47.8,83.1c-17.3-20.1-23.3-20.5-44.5-17.7c-45.8-44.2-77.1,26.1-116,2.4
		c-2-62.6-30.1-38.5-42.5-85.5c-20.9-34.5-40.9-36.1-63-2.8c-40.5,6-142.9,32.1-116.8-39.3c14.5-18.5-17.7-59-39.7-50.2
		c-14-26.1-39.3-6.8-47-29.3c-12.4-16.5-36.1-18.9-54.2-11.2c-10-4,5.6-31.7,0-41.3c-6.4-2.4-9.2,6-12.8-4.4
		c15.3-53.4,8-57.4,56.2-89.9c14.9-29.3,55.4-56.6,8-77.1c10.8-23.7,29.7,20.1,30.5-14.1c-26.5-33.3,7.2-54.2,15.3-87.9
		c4.4,1.2,18.9,6,17.3-2.8c19.7-36.1-18.5-48.6-37.3-73.1C1273.8,632.4,1207.2,659.3,1268.2,620.4z"/>
	<linearGradient id="SVGID_12_" gradientUnits="userSpaceOnUse" x1="501.3424" y1="1127.7266" x2="1121.1473" y2="1127.7266">
		<stop  offset="0" style="stop-color:#C39E33"/>
		<stop  offset="0.5259" style="stop-color:#FAF8D1"/>
		<stop  offset="0.9947" style="stop-color:#DEC75D"/>
	</linearGradient>
	<path class="st12" d="M510.3,960.8c99.2-55,191.9-206.3,314.7-187.9c61.4,21.7,94.3,10,95.5,85.1c119.2,67,58.2,57,102.4,161
		c60.6,22.9,0,40.5-8.8,78.3c75.9,102.4,87.1-13.6,44.2,148.1c16.9,31.7,60.6,10.8,55.4,89.1c0.8,67.4-5.6,8.4-56.6,67.8
		c-38.9,13.7,13.2,47-12.8,70.3c-59.4,19.7-143.7,8-209.5,8.4c51.8-76.3-6-41.3-30.5-89.9c-14.5-20.5,55-53.4-19.3-52.2
		c-7.2-14.5-24.1-28.1-35.7-10c-57.4,79.1-49-98.3-115.2-79.5c-167.4,66.6-7.2-103.6-43.4-139.3c-16.1-32.5,26.5-31.3-16.9-49.4
		c-10.4-14.1-37.3-29.7-28.1-49.8C548,1002.5,513.1,967.6,510.3,960.8z"/>
	<linearGradient id="SVGID_13_" gradientUnits="userSpaceOnUse" x1="734.5022" y1="907.9953" x2="1323.8167" y2="907.9953">
		<stop  offset="0" style="stop-color:#C39E33"/>
		<stop  offset="0.5259" style="stop-color:#FAF8D1"/>
		<stop  offset="0.9947" style="stop-color:#DEC75D"/>
	</linearGradient>
	<path class="st13" d="M738.7,782.2c39.7-29.3,93.5-71.9,113.2-118.4c4.8-10.8,24.5-3.6,33.3-10.8c8.4-2.8,24.5-18.9,29.7-6
		c23.7-90.3,49.8,79.5,140.9-54.6c9.6-5.6,24.1-11.6,14.9-24.9c24.5,9.2,123.2-27.7,78.3-51c-3.2-2.4-14.5-10.4-7.6-14
		c29.3,6,56.2-13.2,81.9-21.7c10,1.2,72.7-4.8,81.1-8.4c17.7-36.9,18.9,12-12,33.7c-10.4,36.1-51.8,54.2-7.6,79.1
		c16.9,12.4,2.8,35.7-15.7,35.7c-61,38.9,5.6,12.4-24.9,40.1c23.3,19.7,73.5,71.9,20.1,75.9c-2.4,30.9-43,47-19.3,77.1
		c6.8,13.6,4.8,34.5-12.8,17.7c-37.3,3.6,26.5,22.5,8.8,42.1c-26.5,21.7-28.1,57.4-68.2,65.8c-1.2,16.1,2.4,10-11.2,24.5
		c6.4,16.5-9.6,34.1-4,47.8c25.3-9.6-2.8,33.7,9.6,40.1c21.7-9.2,52.2-2.8,59,22.1c11.6-1.2,21.7,5.6,33.3,5.6
		c4.4,5.2,3.2,14.5,12.8,13.2c54.2-2.8,29.3,65,36.9,97.1c9.6,47.4-30.9,69.5-66.6,88.7c-38.9-0.4-102.4,128.5-128.1,56.6
		c8-108-106.8-35.3-25.3-177c-2-6.4-10-8-14.1-12.8c-135.3-44.2,12-88.7-35.3-114.4c-43-18.1-30.9-94.3-41.3-128.5
		c-49.4-18.5-90.7-29.3-82.3-91.9C875.2,777.7,788.5,754.9,738.7,782.2z"/>
	<linearGradient id="SVGID_14_" gradientUnits="userSpaceOnUse" x1="138.4149" y1="1288.376" x2="611.7266" y2="1288.376">
		<stop  offset="0" style="stop-color:#C39E33"/>
		<stop  offset="0.5259" style="stop-color:#FAF8D1"/>
		<stop  offset="0.9947" style="stop-color:#DEC75D"/>
	</linearGradient>
	<path class="st14" d="M209.6,1145c30.9-23.7,102-35.7,135.3-55.8c58.2-24.1,167.4-191.9,201.1-78.3c-17.7,38.1,71.1,50.6,39.7,79.1
		c-0.8,18.9,22.1,32.5,14.9,50.6c-34.1,20.5-27.3,68.6-45,100.4c11.2,57.8,47.8-12,49,45.8c0.4,30.1-16.5,21.3-12,37.7
		c-45.4,33.7,15.7,78.7-6.8,101.6c-37.7,21.7-110.4-14.9-101.6,22.9c2.8,19.7,28.1,36.1,37.7,51.8c14,24.1,24.9,84.3-22.1,64.6
		c-79.1,5.2-12.4,47.8-58.6,38.1c-39.3-15.7-60.6-38.9-63.4-85.1c-73.1-52.6-37.7-26.9-73.9-90.3c-100.4-24.9-79.5,60.6-134.9-62.2
		c-37.7-32.1-26.5-64.6,7.6-92.7C213.2,1230.9,153.8,1180.4,209.6,1145z"/>
	<linearGradient id="SVGID_15_" gradientUnits="userSpaceOnUse" x1="1476.2257" y1="2512.2261" x2="2121.282" y2="2512.2261">
		<stop  offset="0" style="stop-color:#C39E33"/>
		<stop  offset="0.5259" style="stop-color:#FAF8D1"/>
		<stop  offset="0.9947" style="stop-color:#DEC75D"/>
	</linearGradient>
	<path class="st15" d="M2089.5,2593.4c-28.9,20.1-67.8-44.6-101.2-9.2c-26.1,20.1-70.6,56.6-49,93.1c4.8,8.8-15.3,50.2,4,53.8
		c-25.3,32.9-63.8,75.5-98.8,92.3c-12.4-36.5-293.4,37.3-173-34.1c-1.2-14-49.4,7.6-65-39.3c-4-18.5,18.5-15.3,30.1-18.5
		c18.5-7.2-68.6-21.7-81.9-12.8c0.8-44.2-26.5-98.7-55.4-126.8c-15.7,4.8-22.1-20.1-9.2-27.7c50.6-31.7,26.9-38.1,95.5-54.2
		c-7.2-24.1,18.9-21.7,24.5-49c0.8-23.7-22.5-44.6-12.8-69c-48.2-20.9-36.1-70.6-53.4-104c-24.1-9.2-30.5-33.3-20.9-56.2
		c-7.2-43.4,40.5-35.7,56.2-25.3c-15.3,20.9,8,35.3,21.3,48.6c36.5-3.6,78.7,1.2,113.6,15.3c-1.2,9.6-12,36.5-2.4,44.2
		c31.7,8.8,13.6,37.3,36.5,46.2c6.4,1.6,39.3-0.8,42.6,7.2c24.9,95.1,92.3-37.3,128.8-55.8c27.3-41-11.6-29.3,45.8-32.5
		c4.8,15.7,33.3-25.3,58.6-17.3c37.7-31.3,36.9-25.7,32.5,20.9c13.2,33.3,25.7,5.6,13.2,62.6c-2.8,34.5,42.5,112.8,14.5,144.5
		C2088.3,2524.3,2146.1,2557.6,2089.5,2593.4z"/>
	<linearGradient id="SVGID_16_" gradientUnits="userSpaceOnUse" x1="1884.7709" y1="1351.9999" x2="3455.416" y2="1351.9999">
		<stop  offset="0" style="stop-color:#C39E33"/>
		<stop  offset="0.5259" style="stop-color:#FAF8D1"/>
		<stop  offset="0.9947" style="stop-color:#DEC75D"/>
	</linearGradient>
	<path class="st16" d="M3439,1409.3c-21.7,10.8-18.9,40.1-25.7,58.2c-34.9,6.8-0.4,18.5,10,28.9c-19.3,21.3-29.3,18.9-2.8,25.3
		c-32.5,53.8-42.5,49.4-88.7,19.3c-14.8,19.7-5.6,58.6-14,79.5c-39.3,33.3,4.8,30.1-39.3,58.2c124.4,100-81.9,63.8-105.2,123.6
		c-55.4,6.8-42.1,102.8-104.4,120.4c-41.3-0.8-26.9,52.2-69,49.4c-1.2-28.5-32.9-34.5-37.7-58.6c4.8-20.9-24.1-73.1-41.7-49.4
		c-20.9-3.2-55-18.5-76.7-17.3c-20.5,57-48.2-10.8-83.9,26.1c-8.4,20.1-0.8,30.5-32.5,26.5c-6.8-2.4-20.1-22.5-24.5-27.7
		c-9.6-6.4-36.1-12-39.7-24.9c-2.8-26.5-26.9-70.3-58.2-56.6c-80.3,52.2-55.4-94.7-149.3-53c-69,35.3-46.6,47.8-136.5,32.9
		c-26.1-47.4-89.9-65-138.9-74.7c-21.3-42.1-18.1,3.2-76.7-30.1c-1.6-29.3-15.3-61.4-26.1-87.9c0.8-24.1,9.2-32.9-11.6-53
		c-15.3-23.3-50.6-33.7-67-54.2c-22.5-66.2-87.1-161.8-45-220.8c-25.7-22.5-93.5-49.8-44.6-86.7c85.9,1.2,80.7-106,81.5-166.2
		c7.6-11.6,32.1-9.2,34.1-25.7l36.1-8c38.9,46.6,89.1,15.3,101.6-33.7c78.7-24.1,107.6-75.5,178.2,7.2
		c67.4,10.4,123.2-101.6,185.1-40.1c40.5,13.2,63-27.7,109.2-10c-1.2-6,45-26.1,48.2-29.3l47.4-46.6c8-7.6,20.1-49.8,38.5-35.3
		c18.1,17.3,60.6-16.1,57-37.3c110.4-37.7,195.5,114.4,303.9,133.7C3330.2,1128.3,3489.2,1022.8,3439,1409.3z"/>
	<linearGradient id="SVGID_17_" gradientUnits="userSpaceOnUse" x1="1371.3739" y1="1729.2839" x2="2112.7749" y2="1729.2839">
		<stop  offset="0" style="stop-color:#C39E33"/>
		<stop  offset="0.5259" style="stop-color:#FAF8D1"/>
		<stop  offset="0.9947" style="stop-color:#DEC75D"/>
	</linearGradient>
	<path class="st17" d="M1402.3,1936.2c-3.2-47.8,50.6-41.3,79.9-57c36.1-24.5-4-31.7,64.6-50.6c16.5-32.5-36.9-4.4-25.3-87.9
		c19.3-23.3,16.5,28.1,53.8-33.7c24.1-32.9-22.5-28.1-12.8-45c12.8-28.1-45-31.3-43.8-74.3c18.9-18.1,56.2-48.6,48.6-79.1
		c23.7-17.7,47.8,45,62.6-21.3c-5.6-32.5,6.4-4.8,8-23.3c102.4-43.8-7.2-120,81.9-147.3c-58.2-55.4,23.3-61.4,18.5-122.4
		c40.5-32.5,106-4.4,153.8-3.6c-4,32.1,73.5,47,56.2,67c-23.7,31.7,32.9,230.8,84.7,235.6c24.9,24.1,59.4,47.4,46.2,85.9
		c12.5,22.9,16.9,52.2,26.5,76.7c-2.8,27.3-69.8,56.6-84.3,80.3c4.8,57.4-97.9,93.9-66.2,135.3c10,12-7.6,27.7-20.5,25.3
		c-112.4-9.2,77.1,78.3-4,137.3c-14.9,16.5-47.4-11.2-36.5,13.7c-9.6,271-120.4,39.7-114,150.1c4,16.9,27.3,35.3,9.2,52.2
		c-16.5,44.6-0.4,30.1-49.4,13.2c-32.1,10.8-75.1-4-106.4-10.8c-29.3,10.4-71.9-12.8-52.2-48.2c-9.2-0.8-20.1-0.8-28.9-4.4
		c-51-15.3-12.5,84.7-43,73.9c-17.3-8.8-40.9-30.1-57-40.1c-91.9,9.6-86.7-85.5-46.2-138.9C1427.1,2061.1,1406.3,1972,1402.3,1936.2
		z"/>
	<g class="st18">
		<circle class="st19" cx="2714" cy="1194.9" r="61.1"/>
		<path class="st20" d="M2847.5,1194.5c0-73.8-59.9-133.7-133.7-133.7s-133.7,59.9-133.7,133.7c0,0-9.3,130.8,133.7,257.4
			C2856.8,1325.3,2847.5,1194.5,2847.5,1194.5z M2713.8,1250.9c-31.2,0-56.4-25.3-56.4-56.4s25.3-56.4,56.4-56.4
			c31.2,0,56.4,25.3,56.4,56.4S2744.9,1250.9,2713.8,1250.9z"/>
	</g>
	<g class="st18">
		<circle class="st19" cx="392.1" cy="1000.7" r="61.1"/>
		<path class="st20" d="M525.6,1000.3c0-73.8-59.9-133.7-133.7-133.7s-133.7,59.9-133.7,133.7c0,0-9.3,130.8,133.7,257.4
			C534.9,1131.1,525.6,1000.3,525.6,1000.3z M391.9,1056.7c-31.2,0-56.4-25.3-56.4-56.4c0-31.2,25.3-56.4,56.4-56.4
			c31.2,0,56.4,25.3,56.4,56.4C448.3,1031.5,423,1056.7,391.9,1056.7z"/>
	</g>
	<g class="st18">
		<circle class="st19" cx="1084.5" cy="507.8" r="61.1"/>
		<path class="st20" d="M1217.9,507.4c0-73.8-59.9-133.7-133.7-133.7s-133.7,59.9-133.7,133.7c0,0-9.3,130.8,133.7,257.4
			C1227.3,638.2,1217.9,507.4,1217.9,507.4z M1084.3,563.8c-31.2,0-56.4-25.3-56.4-56.4c0-31.2,25.3-56.4,56.4-56.4
			c31.2,0,56.4,25.3,56.4,56.4C1140.7,538.6,1115.4,563.8,1084.3,563.8z"/>
	</g>
	<g class="st18">
		<circle class="st19" cx="1750.4" cy="1670.9" r="61.1"/>
		<path class="st20" d="M1883.9,1670.5c0-73.8-59.9-133.7-133.7-133.7s-133.7,59.9-133.7,133.7c0,0-9.3,130.8,133.7,257.4
			C1893.2,1801.3,1883.9,1670.5,1883.9,1670.5z M1750.2,1726.9c-31.2,0-56.4-25.3-56.4-56.4s25.3-56.4,56.4-56.4
			s56.4,25.3,56.4,56.4S1781.3,1726.9,1750.2,1726.9z"/>
	</g>
	<g class="st18">
		<circle class="st19" cx="1811.7" cy="2348.4" r="61.1"/>
		<path class="st20" d="M1945.1,2348.1c0-73.8-59.9-133.7-133.7-133.7c-73.8,0-133.7,59.9-133.7,133.7c0,0-9.3,130.8,133.7,257.4
			C1954.4,2478.9,1945.1,2348.1,1945.1,2348.1z M1811.4,2404.5c-31.2,0-56.4-25.3-56.4-56.4c0-31.2,25.3-56.4,56.4-56.4
			c31.2,0,56.4,25.3,56.4,56.4C1867.9,2379.2,1842.6,2404.5,1811.4,2404.5z"/>
	</g>
	<linearGradient id="SVGID_18_" gradientUnits="userSpaceOnUse" x1="923.7566" y1="1893.1967" x2="1426.9318" y2="1893.1967">
		<stop  offset="0" style="stop-color:#C39E33"/>
		<stop  offset="0.5259" style="stop-color:#FAF8D1"/>
		<stop  offset="0.9947" style="stop-color:#DEC75D"/>
	</linearGradient>
	<path class="st21" d="M1146.4,2085.5c-10-0.8-39.4,16.3-48.6,20.3c-13.5-35.4-47.4-64.9-64.5-98.3c-40.6-5.6-114.2,27.5-86-42.6
		c-0.8-10.7-22.3-25.9-15.1-34.2c26.3-27.1,78.4-62.9,95.5-97.1c17.1-20.3,43-41.8,71.2-36.2c15.5-27.5-5.6-21.5,29.9-39.8
		c29.1-29.1,3.2-65.7,21.1-68.5c24.7,13.9,53.7-19.9,72.4-31.4c25.5,37.4,80,45.4,121.4,58.9c30.6-11.5,37.4-26.3,49.7,15.1
		c-0.4,19.5,9.6,38.6-9.5,52.5c-43.8,10.7-89.6,30.6-136.5,29.1c-10,0.4-4,17.1-4,22.7c64.1,24.3,21.5,29.1,34.6,49.8
		c34.6,9.5,78,30.6,70.4,73.2c96.3-105.1,82,139.7,33,172.3c-33.8,1.2-26.7-21.9-79.2-9.1c-25.9-13.9-38.6-32.2-52.9-55.7
		c-26.7-1.6-22.3,31.4-55.7,17.9C1164.3,2082.7,1183,2107,1146.4,2085.5z"/>
	<linearGradient id="SVGID_19_" gradientUnits="userSpaceOnUse" x1="1234.0708" y1="2358.1279" x2="1618.3341" y2="2358.1279">
		<stop  offset="0" style="stop-color:#C39E33"/>
		<stop  offset="0.5259" style="stop-color:#FAF8D1"/>
		<stop  offset="0.9947" style="stop-color:#DEC75D"/>
	</linearGradient>
	<path class="st22" d="M1251.1,2471.5c33-10.4,117.8-53.3,53.3-84.8c-55.7,21.9-20.3-60.5-9.1-82.4c-8.4-52.9,27.5-73.2,17.1-96.7
		c21.5-76.8,44.6-41-9.2-84.8c19.1-4,48.2-6.8,62.5,9.2c43-4-18.3,63.7,52.1,88.8c37.8-0.8,64.5,22.3,94.3,43
		c27.1-2.4,52.1,26.7,42.2,56.1c19.1,51.3,75.6,89.5,50.5,150.4c-28.3,27.9-17.5-14.3-54.9-0.8c-20.3-17.9-42.6,11.1-32.6,33.4
		c-6.8,8-66.5,15.9-65.7,0.8c3.6-1.6,13.9,3.2,11.1-4.8c-46.6-24.3-72.8,24.7-48.6-27.5c-30.3-1.6,10.7-74-34.6-36.2
		c-11.5,6-3.2,23.1-0.4,31.4c-9.1,25.5-40.2,48.6-68.1,39.8c-8.4-10.4-37.4-10.4-33.8-27.1
		C1270.6,2475.1,1258.3,2475.9,1251.1,2471.5z M1406.7,2563.9c11.9,23.9-21.9,42.2-40.2,27.1
		C1364.1,2558.3,1366.1,2563.9,1406.7,2563.9z M1401.6,2501.4c9.1,7.6,39-11.5,39.8,2.4c-31.4,8.4,12.7,33-15.9,49
		c-14.7-7.6-61.3-10.7-50.2-35.4C1380.9,2508.6,1388.8,2491.8,1401.6,2501.4z"/>
	<linearGradient id="SVGID_20_" gradientUnits="userSpaceOnUse" x1="48.4502" y1="1644.4131" x2="563.3177" y2="1644.4131">
		<stop  offset="0" style="stop-color:#C39E33"/>
		<stop  offset="0.5259" style="stop-color:#FAF8D1"/>
		<stop  offset="0.9947" style="stop-color:#DEC75D"/>
	</linearGradient>
	<path class="st23" d="M70.2,1670.7c-23.1,0.4-15.9-48.6,0.8-54.9c31-10,53.3-49.8,76.8-72.4c23.1-19.5,63.3,26.3,69.3-19.9
		c2.8-12.7-6.4-47.8,0-59.3c9.6-6.4,12.7-20.7,7.6-30.6c30.2-10.4,86.8-27.1,105.1,8.8c-4.4,47.8,78,57.3,66.1,104.7
		c8,29.1,49.4,58.5,78,50.9c-16.3-32.2,31.8-40.2,53.7-33.4c58.9-15.5,9.6,64.1,5.6,86.8c-19.1,25.9-85.2-5.6-49,41
		c-37.4,7.2-31-22.3-50.1-15.1c5.2,58.1-101.5,46.2-73.6,109c1.2,11.5,2,35.8,0.8,47c-8.4-35.8-47-50.5-48.6-90.3
		c-18.3-14.7-55.7,2.8-43.8-33c-10.7-49-34.6-11.1-49.8,10.8C170.5,1705,121.2,1677.1,70.2,1670.7z"/>
	<linearGradient id="SVGID_21_" gradientUnits="userSpaceOnUse" x1="709.9972" y1="1791.3744" x2="1233.2578" y2="1791.3744">
		<stop  offset="0" style="stop-color:#C39E33"/>
		<stop  offset="0.5259" style="stop-color:#FAF8D1"/>
		<stop  offset="0.9947" style="stop-color:#DEC75D"/>
	</linearGradient>
	<path class="st24" d="M726.1,2118.1c15.1-15.1,0-36.2-4.4-52.5c1.2-13.5,9.2-29.1,0-41.4c30.6-41,115.4-54.5,132.1-103.9
		c18.3-14.7-0.4-50.5,2-70.4c10.3-39-31.8-29.1-54.1-37.4c-44.2-21.9,6.4-18.3-18.3-91.1c-28.7-16.7-71.2-42.6-58.5-85.6
		c75.6-31.4,105.5,8.4,135.7-93.1c-17.5-107.9-39.8-42.2,123-68.1c22.3,5.6,49.8,12.3,68.1-4.8c8.4,21.1,36.2,20.7,54.5,26.7
		c47.4,15.1,29.1,59.7,73.6,76.8c8.8,4.4,8.8,14.3,7.2,23.1c11.5,12.3,41.4,40.6,39,58.9c-27.5,25.9-50.2,37-82,39
		c0.4,26.3,0.8,64.1-31.8,72.4c-13.5,26.7-7.6,35.4-45.8,32.2c-45.8,40.2-89.2,96.3-136.5,134.1c15.1,21.9,19.5,50.2,9.6,73.6
		c-22.7-8.7-25.5,19.1-10.3,29.5c3.2,23.9-18.3,5.2-28.3,22.7c-6.4,18.7-22.3,17.9-37.8,22.7c-4.4,14.3-11.5,6.4-22.7,4.8
		c-13.5-2.8-2,19.1-14.7,14.7C792.6,2082.3,758.8,2120.1,726.1,2118.1z"/>
	<linearGradient id="SVGID_22_" gradientUnits="userSpaceOnUse" x1="3405.437" y1="952.6624" x2="4871.6958" y2="952.6624">
		<stop  offset="0" style="stop-color:#C39E33"/>
		<stop  offset="0.5259" style="stop-color:#FAF8D1"/>
		<stop  offset="0.9947" style="stop-color:#DEC75D"/>
	</linearGradient>
	<path class="st25" d="M4869.8,1204.7c-13.1-3.6-147.3,29.5-110.2-4.8c-36.6-6.8-54.9,7.2-80.8-14.7c-17.1-21.9-14.7,32.2-62.9,31
		c-15.5-7.6-15.5-29.8-38.6-23.1c-5.2,3.2,0.8,8.8,2.8,11.9c-6,4.8-5.6,15.5-6,22.3c-5.2-3.6-6.8-9.6-11.9-3.6
		c-4,17.1,10,23.1-14.3,14.7c14.3,14.3-17.9,17.9-25.1,29.9c-41.4,6.4-6,53.7-54.1,23.5c-82.8-4.8-30.2,32.6-48.2,39.8
		c-2.4-12.3-16.3-11.9-26.3-10.8c15.9,37.4-92.7,2-42.2,38.6c-29.5-6.4-46.2,30.6-68.5,10.4c13.1,26.7-17.9-6.8-26.7-10.4
		c-1.6,8-7.6,25.5,0,32.2l-76.4,4c-18.3-1.2-8.8-2-18.7-10c-8-0.4-23.1,3.6-25.9-7.2c-10-7.2-22.3-17.1-31.8-3.6
		c27.5,56.9,41.4,27.1-46.6,56.5c-111.8-91.9-26.7,8.8-81.2,37.4c-65.7-10.4-29.5,0-58.1-38.6c-18.7,39.4-58.9,79.6-104.3,73.2
		c-20.7-25.5-36.2,10.8-22.7-29.1c-10.7-2.4-63.7,0.8-73.6-5.6c-15.5-8-43.8-22.3-58.9-6c-11.1-22.3-31.8-71.2-52.1-73.6
		c25.9-53.3-72.8-53.3-105.9-39.8c-167.2,292.9-33-880.8-74-938.1c76.8,35,185.1,63.3,260.7,98.3c-27.9,32.2-15.1,93.5,35.8,69.3
		c3.6-6.4-0.8-28.7,12.3-23.1c8.8,27.5,35.8,13.9,56.5,18.7c39,4.8,25.9,9.2,56.9-8.8c-41.8-22.7-119-8.4-146.1-54.1
		c74.8,16.3,175.9,35,252.3,36.2c154.8,88.4,271.8,273,446.6,326c11.1,12.3,4,19.9-10.8,19.5c-20.7-6-42.2-33.4-64.5-36.2
		c-6.8-19.5-84-8.8-54.1-30.2c-16.3-27.5-28.7-36.2-56.1-40.6c-38.6-38.2-46.6,14.3-65.3,4c-33.4-10.7-15.1-4.8-5.6-26.7
		c-57.7-17.5-8.8,31.8-8.8,49.4c-15.9,12.3-24.7-59.3-47.4-53.3c-23.9,7.6-31,6.4-54.9,1.6c5.6,38.6,33.4,16.7,22.7,45
		c0,5.2-5.2,11.1,3.6,9.6c35.4-59.7,32.6-50.2,62.1,7.6c11.5,26.7-8.8,17.5-20.3,34.6c6.8,33.4,33,66.9,68.5,70.8
		c12.3-4.8,2-23.1,0-31c10.4,7.2,21.9,18.7,23.1,31.4c-23.9,48.2,57.3,13.5,56.9,29.1c-58.1,8,26.3,70,55.7,43
		c52.1-15.9,12.7-27.9-13.5-43c-9.9-10.3-9.5-18.3-26.7-17.1c-32.2-5.2-138.5-58.1-63.7-76.4c19.5,10.3,81.2,27.5,84.4,55.3
		c21.1,18.7,57.7,13.5,69.3,43.8c-11.1,8.4-27.1,16.3-3.2,18.7c44.6-37.8,5.2,62.1,36.2,57.7c7.2-4.4-0.8-19.1,9.6-16.3
		c11.9,41.8,18.3-34.6,82-26.7c-2.4-52.1,35-21.9,68.9-19.5c6.8-2,21.1-4.8,8.4,7.2c6,14.3,10.7,47-8.4,53.7
		c-20.7-6-1.6-26.3-37-25.9c-10.4,6.8-41.8,64.9-8.4,44.2c-6.4-6.8-6-23.9,5.6-21.9c0,47,24.7,49.4,47.4,11.5
		c19.5-14.7,62.1-8.8,24.7-41c-7.2-16.7-10.4-56.9-35.4-36.6c-13.5-8.4-32.6-23.1-47.8-10.3c-7.2-4.4-2-10.3,0-16.3
		c-8,0.4-38.2-10.7-45.8-13.9c-144.5-114.2,161.6,56.9,201.8,61.3C4758.8,1067.8,4687.9,1164.1,4869.8,1204.7z"/>
	<linearGradient id="SVGID_23_" gradientUnits="userSpaceOnUse" x1="1703.0115" y1="2026.3307" x2="3000.4717" y2="2026.3307">
		<stop  offset="0" style="stop-color:#C39E33"/>
		<stop  offset="0.5259" style="stop-color:#FAF8D1"/>
		<stop  offset="0.9947" style="stop-color:#DEC75D"/>
	</linearGradient>
	<path class="st26" d="M2991.6,1966.5c-35.8,4-23.1,27.5-65.3,33.8c6.8,19.5-21.1,8.4-29.9,25.5c-11.5,10.7-27.9-3.2-35.4,6.4
		c6,20.3-29.9,62.1,2.8,67.3c9.2,12.7,0.8,32.2-10.7,41c-9.2-8.4-13.5-15.1-27.9-13.5c-37.4,8-48.6-24.7-64.1-50.5
		c-13.9-9.1-27.1-8-41.8-2.4c-23.1-12.7-60.5-57.7-87.2-70.4c-3.6-54.5,35.8-56.9-63.3-32.6c-19.1,16.3-18.7,44.6-48.6,50.5
		c-25.5,32.6-72.8,87.2-97.5,121c-4,25.5-15.1,53.7-45.4,54.9c-70,10-39.4-19.5-115.8-9.6c-29-26.7-85.2-5.2-119-0.4
		c-35.4-9.6-89.9-2.4-84.4,45.4c-41.8,17.5-78.4,49.4-124.2,37.4c1.2,46.6-58.9,49-64.5,87.2c-20.7,30.7-70.1,57.3-76.4,1.2
		c-36.2-15.9-49,7.2-63.3-42.6c-29.5-21.9-19.1-20.3-12.7-54.1c38.2-24.3,62.5,38.2,73.2-21.1c22.3-25.1-23.9-43-6.8-83.2
		c9.2-19.1,32.6,24.7,59.3,21.5c54.1-9.2,41.8-99.1,50.9-138.9c-15.5-32.6,52.9,33,56.1-70.8c-23.9-44.6-108.7-86,0-81.2
		c7.6-12.3,12.3-24.3-6.4-27.1c4.4-26.7,33-60.9,56.1-77.2c14.7-50.9,58.1-92.7,103.5-121.4c56.5,26.7,30.3,6.8,64.5,12.7
		c19.9,26.3,7.2,19.1,39.8,22.3c40.6,11.5,88.4,31,109.4,68.9c93.5,39,172.7-116.6,228.1,19.9c35.8,14.3,37,17.9,64.9-3.2
		c34.6,2,42.2,39.4,52.1,65.3c30.6,5.6,58.1,68.9,87.2,38.6c2.8-40.6,42.2-30.6,67.3-18.3c30.2-45,43-16.7,99.1-10
		c20.3-22.7,44.2,37.8,40.6,57.7C2971.7,1940.2,2981.7,1927.1,2991.6,1966.5z"/>
	<linearGradient id="SVGID_24_" gradientUnits="userSpaceOnUse" x1="1885.1642" y1="1351.2131" x2="3442.5894" y2="1351.2131">
		<stop  offset="0" style="stop-color:#C39E33"/>
		<stop  offset="0.5259" style="stop-color:#FAF8D1"/>
		<stop  offset="0.9947" style="stop-color:#DEC75D"/>
	</linearGradient>
	<path class="st27" d="M3426.2,1408.1c-21.5,10.7-18.7,39.8-25.5,57.7c-34.6,6.8-0.4,18.3,10,28.7c-19.1,21.1-29.1,18.7-2.8,25.1
		c-32.2,53.3-42.2,49-88,19.1c-14.7,19.5-5.6,58.1-13.9,78.8c-39,33,4.8,29.9-39,57.7c123.4,99.1-81.2,63.3-104.3,122.6
		c-54.9,6.8-41.8,101.9-103.5,119.4c-41-0.8-26.7,51.7-68.5,49c-1.2-28.3-32.6-34.2-37.4-58.1c4.8-20.7-23.9-72.4-41.4-49
		c-20.7-3.2-54.5-18.3-76-17.1c-20.3,56.5-47.8-10.7-83.2,25.9c-8.4,19.9-0.8,30.2-32.2,26.3c-6.8-2.4-19.9-22.3-24.3-27.5
		c-9.5-6.4-35.8-11.9-39.4-24.7c-2.8-26.3-26.7-69.7-57.7-56.1c-79.6,51.7-54.9-93.9-148.1-52.5c-68.5,35-46.2,47.4-135.3,32.6
		c-25.9-47-89.2-64.5-137.7-74c-21.1-41.8-17.9,3.2-76-29.9c-1.6-29.1-15.1-60.9-25.9-87.2c0.8-23.9,9.2-32.6-11.5-52.5
		c-15.1-23.1-50.2-33.4-66.5-53.7c-22.3-65.7-86.4-160.4-44.6-218.9c-25.5-22.3-92.7-49.4-44.2-86c85.2,1.2,80-105.1,80.8-164.8
		c7.6-11.5,31.8-9.2,33.8-25.5l35.8-8c38.6,46.2,88.4,15.1,100.7-33.4c78-23.9,106.7-74.8,176.7,7.2
		c66.9,10.3,122.2-100.7,183.5-39.8c40.2,13.1,62.5-27.5,108.3-9.9c-1.2-6,44.6-25.9,47.8-29.1l47-46.2c8-7.6,19.9-49.4,38.2-35
		c17.9,17.1,60.1-15.9,56.5-37c109.5-37.4,193.8,113.4,301.3,132.5C3318.4,1129.5,3476,1024.8,3426.2,1408.1z"/>
	<linearGradient id="SVGID_25_" gradientUnits="userSpaceOnUse" x1="2303.7468" y1="756.1273" x2="3450.6624" y2="756.1273">
		<stop  offset="0" style="stop-color:#C39E33"/>
		<stop  offset="0.5259" style="stop-color:#FAF8D1"/>
		<stop  offset="0.9947" style="stop-color:#DEC75D"/>
	</linearGradient>
	<path class="st28" d="M2316.2,568.7c57.7,47.8,136.5-29.8,178.3-66.9c38.6-25.9,130.9-15.1,173.5-24.3c57.7-31.4,96.3-85.2,0-87.2
		c-96.7-33.8,262.3,6.4,228.1,61.7c19.5-21.5,23.5-6.4,44.2,10.7c158,75.6,285.8,50.9,427.5-51.7l58.5-1.2
		c-32.6-19.9,65.3,933.7-46.2,682.2c-121.8-95.1-125-19.5-232.4-195.4c-13.9-20.7-89.2-46.2-111.8-54.9
		c-31.8-29.9-100.7-86.8-141.3-102.3c-17.5-9.2-28.7,9.9-44.2,1.2c-24.3-20.3-28.3,7.6-38.6,21.9c-18.7,18.7-36.2,27.9-59.7,13.9
		c-18.7,19.5-50.6,66.5-74.8,84c-20.7,8.4-50.9,37-72,23.9c-46.2,16.7-89.5,24.3-130.9-10.3c-8.4-13.5,5.6-109.1-15.5-87.2
		c-41.8-29.9-97.1-3.2-129.7-51.3c43-23.9,53.7-18.3,42.6-74.4c-36.2-8-18.3-16.3-39.8-37.8C2311,610,2305.4,584.6,2316.2,568.7z"/>
	<linearGradient id="SVGID_26_" gradientUnits="userSpaceOnUse" x1="1480.0116" y1="2500.5601" x2="2119.708" y2="2500.5601">
		<stop  offset="0" style="stop-color:#C39E33"/>
		<stop  offset="0.5259" style="stop-color:#FAF8D1"/>
		<stop  offset="0.9947" style="stop-color:#DEC75D"/>
	</linearGradient>
	<path class="st29" d="M2088.1,2581c-28.7,19.9-67.3-44.2-100.3-9.1c-25.9,19.9-70,56.1-48.6,92.3c4.8,8.8-15.1,49.8,4,53.3
		c-25.1,32.6-63.3,74.8-97.9,91.5c-12.3-36.2-290.9,37-171.5-33.8c-1.2-13.9-49,7.6-64.5-39c-4-18.3,18.3-15.1,29.9-18.3
		c18.3-7.2-68.1-21.5-81.2-12.7c0.8-43.8-26.3-97.9-54.9-125.8c-15.5,4.8-21.9-19.9-9.2-27.5c50.2-31.4,26.7-37.8,94.7-53.7
		c-7.2-23.9,18.7-21.5,24.3-48.6c0.8-23.5-22.3-44.2-12.7-68.5c-47.8-20.7-35.8-70-52.9-103.1c-23.9-9.1-30.3-33-20.7-55.7
		c-7.2-43,40.2-35.4,55.7-25.1c-15.1,20.7,8,35,21.1,48.2c36.2-3.6,78,1.2,112.6,15.1c-1.2,9.5-11.9,36.2-2.4,43.8
		c31.4,8.8,13.5,37,36.2,45.8c6.4,1.6,39-0.8,42.2,7.2c24.7,94.3,91.5-37,127.8-55.3c27.1-40.6-11.5-29.1,45.4-32.2
		c4.8,15.5,33-25.1,58.1-17.1c37.4-31,36.6-25.5,32.2,20.7c13.1,33,25.5,5.6,13.1,62.1c-2.8,34.2,42.2,111.8,14.3,143.3
		C2086.9,2512.5,2144.2,2545.6,2088.1,2581z"/>
	<linearGradient id="SVGID_27_" gradientUnits="userSpaceOnUse" x1="1042.6536" y1="1564.462" x2="1725.4528" y2="1564.462">
		<stop  offset="0" style="stop-color:#C39E33"/>
		<stop  offset="0.5259" style="stop-color:#FAF8D1"/>
		<stop  offset="0.9947" style="stop-color:#DEC75D"/>
	</linearGradient>
	<path class="st30" d="M1051.7,1469.7c22.3-21.5-10-39.4,0-62.1c11.5-6,31.8-24.3,40.2-35c34.2-1.2,27.5-12.7,28.3-40.2
		c8,56.5,57.7-8.7,78.8-17.5c28.3-53.3,128.6-49,114.2-126.6c28.7,0,88,1.6,114.6-8c43-66.9,60.1,27.9,95.5,43.4
		c7.2,21.5,0.8,57.3,35,50.5c27.1-20.3,59.3-34.2,89.5-8.7c25.9-2.8,22.3-4,44.2,17.5c15.5,4.4,40.2,29.9,16.3,40.2
		c-7.6,1.6-20.7-0.8-23.1,8.8c-2.8,45,16.3,112.6-44.6,125.8c-1.6,6-1.2,14.7-8.8,6.8c2.4,20.7-11.1,70.8-36.6,40.6
		c-8.4,3.2-21.1-12.7-25.1-0.8c1.6,67.7-98.3,76-4,137.7c-4,29.5,4.8,20.7,20.3,42.2c-11.9,27.1-27.9,54.9-59.3,45.8
		c-30.7,78.4,82.8,71.6-18.3,109.1c-9.2,39-46.2,42.6-79.2,48.6c-34.6,54.9-40.2,31-80.4,71.2c7.6-49-39.4-59.7-73.2-76
		c-0.8-17.5,13.5-19.5-5.2-35.4l-26.7-11.1c0-6.4-6.8-23.5,5.2-22.7c19.9-0.8,49.8-4.8,70.4-8c16.3-2.8,29.5-19.9,45.4-15.5
		c46.2-4.4,31.8-55.3,17.1-84.8c-45,20.3-95.5-7.6-140.9-24.3c-31.8-30.3-4.4-18.7-20.7-44.2c-8.4-15.9-39-36.2-33.4-55.7
		c-18.3-18.3-39.4-13.5-40.6-47.8C1133.3,1488.5,1072.4,1504,1051.7,1469.7z"/>
	<linearGradient id="SVGID_28_" gradientUnits="userSpaceOnUse" x1="347.7354" y1="1637.9747" x2="871.0435" y2="1637.9747">
		<stop  offset="0" style="stop-color:#C39E33"/>
		<stop  offset="0.5259" style="stop-color:#FAF8D1"/>
		<stop  offset="0.9947" style="stop-color:#DEC75D"/>
	</linearGradient>
	<path class="st31" d="M576.5,1990.4c2.8-17.9-16.7-24.3-31-24.3c-29.5-10.7,18.3-78-35.8-45.8c-82.8,17.9-47-115.4-138.9-68.1
		c-19.1-12.7-5.2-47.4-10.7-66.9c-13.5-33.8,2-27.1,19.5-56.1c81.6-19.9,34.2-54.9,64.1-54.1c8,14.7,24.7,19.1,40.2,16.7
		c-9.2-5.2-16.7-39.4,0-28.3c17.9,4.8,52.1-2.4,53.7-25.1c28.3-76.8,16.7-122.6-32.2-171.5c-49-83.6,119.4,5.2,95.5-67.7
		c-40.6-51.3,31-85.6,11.5-138.9c82.8-50.1,77.6,67.3,127.4,90.3c45.4-54.5,32.6-20.3,91.9-4c-68.5,90.7,84.4,41.4,12.7,131.7
		c9.2,8.4,13.5,53.3,16.3,64.9c-24.3,136.1-155.2,29.1-132.9,132.5c30.6,49.4,39.4,24.3,55.7,46.2c15.5,112.6-23.5,72.8,72.8,106.3
		c29.5,142.5-54.5,115.8-129,195.4C713,2003.5,603.1,1983.6,576.5,1990.4z"/>
	<linearGradient id="SVGID_29_" gradientUnits="userSpaceOnUse" x1="1252.2291" y1="650.1834" x2="2383.8081" y2="650.1834">
		<stop  offset="0" style="stop-color:#C39E33"/>
		<stop  offset="0.5259" style="stop-color:#FAF8D1"/>
		<stop  offset="0.9947" style="stop-color:#DEC75D"/>
	</linearGradient>
	<path class="st32" d="M1319.6,464.4c27.1-8.8,53.7,27.5,78.8,26.7c-16.3-19.9,11.5-27.5,26.7-38.2c-4,9.6-30.3,30.6-13.5,38.2
		c27.9,22.3,88,107.1,128.9,72c7.6-19.9,20.7-18.3,39-16.7c12.7-16.7,8-25.1,35.4-25.5c139.3,22.3,312.4,120.6,443.4,35
		c58.1,49.8,269.9-55.3,254.3,45.4c16.7,17.1,28.3,49.8,50.6,57.7c30.6,33,5.2,61.3-34.6,76.4c-56.1-18.3-117.4-2-175.1-15.9
		c-41.4,11.5-79.6,48.2-125,41.8c-57.7-18.7-66.9,0.8-125.4-0.8c-12.3-2.8-35.4,21.1-43.4,27.9c-22.7,25.9-117.8,75.2-150.9,72
		c-37-4-85.6-34.2-117.4-11.1c-56.9,0.8-29.1-82.4-72.8-78c-29.1,20.3-73.2,24.3-108.3,27.5c-84.4-50.1-18.3-122.2-137.3-173.5
		c56.5-16.7-6.4-40.2-5.6-66.5c13.9-15.9,26.3-35.4,33.4-54.9C1318,490.2,1325.5,486.7,1319.6,464.4z"/>
	<linearGradient id="SVGID_30_" gradientUnits="userSpaceOnUse" x1="1152.1403" y1="956.4384" x2="2481.3306" y2="956.4384">
		<stop  offset="0" style="stop-color:#C39E33"/>
		<stop  offset="0.5259" style="stop-color:#FAF8D1"/>
		<stop  offset="0.9947" style="stop-color:#DEC75D"/>
	</linearGradient>
	<path class="st33" d="M1273.8,624.8c60.9,30.6,86.8,67.7,94.3,134.1c31.8,58.5,103.9,38.2,150.9,11.9c35-8.8,20.7,38.2,35.4,55.3
		c22.3,42.6,57.3-2,84.4,19.9c83.2,29.1,128.2-1.6,201-37.4c35-55.7,98.3-45,153.2-62.1c12.7,26.3,52.9,14.3,76,10.7
		c46.2-15.9,82.4-54.9,134.1-29.1c54.5,2.8,121.4-18.3,157.2,36.6c20.3,14.3,66.5-6.8,85.6,15.9c4,1.2,10.4,6.8,13.5,4.8
		c21.9-14.7,6.4,48.2,8.4,56.5c20.7,31.4-13.1,49-38.2,60.1c-154.8,110.6-71.2-82.8-268.7,29.5c-41.4,107.9-69.3,21.9-136.9,41.4
		c-6.4,23.5-38.2,8.8-36.6,42.6c9.2,51.3-0.4,111.4-45,142.5c-30.6,11.1-35.8-5.2-51.3,30.6c-31-8.4-71.2-2.4-101.9-12.7
		c-13.9,2-54.9,2.4-50.1,24.7c0.4,32.6-34.6,53.3-47.4,82.4c-17.1-19.9-23.1-20.3-44.2-17.5c-45.4-43.8-76.4,25.9-115,2.4
		c-2-62.1-29.9-38.2-42.2-84.8c-20.7-34.2-40.6-35.8-62.5-2.8c-40.2,6-141.7,31.8-115.8-39c14.3-18.3-17.5-58.5-39.4-49.7
		c-13.9-25.9-39-6.8-46.6-29.1c-12.3-16.3-35.8-18.7-53.7-11.1c-10-4,5.6-31.4,0-41c-6.4-2.4-9.2,6-12.7-4.4
		c15.1-52.9,8-56.9,55.7-89.2c14.7-29.1,54.9-56.1,8-76.4c10.7-23.5,29.5,19.9,30.2-13.9c-26.3-33,7.2-53.7,15.1-87.2
		c4.4,1.2,18.7,6,17.1-2.8c19.5-35.8-18.3-48.2-37-72.4C1279.4,636.7,1213.3,663.4,1273.8,624.8z"/>
	<linearGradient id="SVGID_31_" gradientUnits="userSpaceOnUse" x1="513.3966" y1="1127.811" x2="1128.0703" y2="1127.811">
		<stop  offset="0" style="stop-color:#C39E33"/>
		<stop  offset="0.5259" style="stop-color:#FAF8D1"/>
		<stop  offset="0.9947" style="stop-color:#DEC75D"/>
	</linearGradient>
	<path class="st34" d="M522.4,962.3c98.3-54.5,190.2-204.6,312-186.3c60.9,21.5,93.5,10,94.7,84.4c118.2,66.5,57.7,56.5,101.5,159.6
		c60.1,22.7,0,40.2-8.8,77.6c75.2,101.5,86.4-13.5,43.8,146.9c16.7,31.4,60.1,10.7,54.9,88.4c0.8,66.9-5.6,8.4-56.1,67.3
		c-38.6,13.5,13.1,46.6-12.7,69.7c-58.9,19.5-142.5,8-207.8,8.4c51.3-75.6-6-41-30.2-89.2c-14.3-20.3,54.5-52.9-19.1-51.7
		c-7.2-14.3-23.9-27.9-35.4-10c-56.9,78.4-48.6-97.5-114.2-78.8c-166,66.1-7.2-102.7-43-138.1c-15.9-32.2,26.3-31-16.7-49
		c-10.3-13.9-37-29.5-27.9-49.4C559.8,1003.7,525.1,969.1,522.4,962.3z"/>
	<linearGradient id="SVGID_32_" gradientUnits="userSpaceOnUse" x1="149.9612" y1="1287.0956" x2="626.5827" y2="1287.0956">
		<stop  offset="0" style="stop-color:#C39E33"/>
		<stop  offset="0.5259" style="stop-color:#FAF8D1"/>
		<stop  offset="0.9947" style="stop-color:#DEC75D"/>
	</linearGradient>
	<path class="st35" d="M224.2,1145c30.6-23.5,101.1-35.4,134.1-55.3c57.7-23.9,166-190.2,199.4-77.6c-17.5,37.8,70.4,50.1,39.4,78.4
		c-0.8,18.7,21.9,32.2,14.7,50.2c-33.8,20.3-27.1,68.1-44.6,99.5c11.1,57.3,47.4-11.9,48.6,45.4c0.4,29.9-16.3,21.1-11.9,37.4
		c-45,33.4,15.5,78-6.8,100.7c-37.4,21.5-109.5-14.7-100.7,22.7c2.8,19.5,27.9,35.8,37.4,51.3c13.9,23.9,24.7,83.6-21.9,64.1
		c-78.4,5.2-12.3,47.4-58.1,37.8c-39-15.5-60.1-38.6-62.9-84.4c-72.4-52.1-37.4-26.7-73.2-89.6c-99.5-24.7-78.8,60.1-133.7-61.7
		c-37.4-31.8-26.3-64.1,7.6-91.9C227.8,1230.2,168.9,1180,224.2,1145z"/>
	<linearGradient id="SVGID_33_" gradientUnits="userSpaceOnUse" x1="742.4744" y1="909.9465" x2="1332.6266" y2="909.9465">
		<stop  offset="0" style="stop-color:#C39E33"/>
		<stop  offset="0.5259" style="stop-color:#FAF8D1"/>
		<stop  offset="0.9947" style="stop-color:#DEC75D"/>
	</linearGradient>
	<path class="st36" d="M748.8,785.2c39.4-29.1,92.7-71.2,112.2-117.4c4.8-10.7,24.3-3.6,33-10.7c8.4-2.8,24.3-18.7,29.5-6
		c23.5-89.6,49.4,78.8,139.7-54.1c9.5-5.6,23.9-11.5,14.7-24.7c24.3,9.2,122.2-27.5,77.6-50.5c-3.2-2.4-14.3-10.3-7.6-13.9
		c29,6,55.7-13.1,81.2-21.5c10,1.2,72-4.8,80.4-8.4c17.5-36.6,18.7,11.9-11.9,33.4c-10.3,35.8-51.3,53.7-7.6,78.4
		c16.7,12.3,2.8,35.4-15.5,35.4c-60.5,38.6,5.6,12.3-24.7,39.8c23.1,19.5,72.8,71.2,19.9,75.2c-2.4,30.6-42.6,46.6-19.1,76.4
		c6.8,13.5,4.8,34.2-12.7,17.5c-37,3.6,26.3,22.3,8.8,41.8c-26.3,21.5-27.9,56.9-67.7,65.3c-1.2,15.9,2.4,9.9-11.1,24.3
		c6.4,16.3-9.5,33.8-4,47.4c25.1-9.6-2.8,33.4,9.5,39.8c21.5-9.2,51.7-2.8,58.5,21.9c11.5-1.2,21.5,5.6,33,5.6
		c4.4,5.2,3.2,14.3,12.7,13.1c53.7-2.8,29.1,64.5,36.6,96.3c9.6,47-30.6,68.9-66.1,88c-38.6-0.4-101.5,127.4-127,56.1
		c8-107.1-105.9-35-25.1-175.5c-2-6.4-10-8-13.9-12.7c-134.1-43.8,11.9-88-35-113.4c-42.6-17.9-30.6-93.5-41-127.4
		c-49-18.3-89.9-29.1-81.6-91.1C884.1,780.8,798.2,758.1,748.8,785.2z"/>
	<linearGradient id="SVGID_34_" gradientUnits="userSpaceOnUse" x1="1372.4454" y1="1724.2577" x2="2114.9507" y2="1724.2577">
		<stop  offset="0" style="stop-color:#C39E33"/>
		<stop  offset="0.5259" style="stop-color:#FAF8D1"/>
		<stop  offset="0.9947" style="stop-color:#DEC75D"/>
	</linearGradient>
	<path class="st37" d="M1406.7,1929.5c-3.2-47.4,50.2-41,79.2-56.5c35.8-24.3-4-31.4,64.1-50.2c16.3-32.2-36.6-4.4-25.1-87.2
		c19.1-23.1,16.3,27.9,53.3-33.4c23.9-32.6-22.3-27.9-12.7-44.6c12.7-27.9-44.6-31-43.4-73.6c18.7-17.9,55.7-48.2,48.2-78.4
		c23.5-17.5,47.4,44.6,62.1-21.1c-5.6-32.2,6.4-4.8,8-23.1c101.5-43.4-7.2-119,81.2-146.1c-57.7-54.9,23.1-60.9,18.3-121.4
		c40.2-32.2,105.1-4.4,152.4-3.6c-4,31.8,72.8,46.6,55.7,66.5c-23.5,31.4,32.6,228.9,84,233.6c24.7,23.9,58.9,47,45.8,85.2
		c12.3,22.7,16.7,51.7,26.3,76c-2.8,27.1-69.3,56.1-83.6,79.6c4.8,56.9-97.1,93.1-65.7,134.1c10,11.9-7.6,27.5-20.3,25.1
		c-111.4-9.2,76.4,77.6-4,136.1c-14.7,16.3-47-11.1-36.2,13.5c-9.5,268.7-119.4,39.4-113,148.8c4,16.7,27.1,35,9.2,51.7
		c-16.3,44.2-0.4,29.9-49,13.1c-31.8,10.7-74.4-4-105.5-10.8c-29.1,10.4-71.2-12.7-51.7-47.8c-9.2-0.8-19.9-0.8-28.7-4.4
		c-50.5-15.1-12.3,84-42.6,73.2c-17.1-8.8-40.6-29.9-56.5-39.8c-91.1,9.6-86-84.8-45.8-137.7
		C1431.4,2053.2,1410.7,1964.9,1406.7,1929.5z"/>
	<g class="st18">
		<circle class="st19" cx="402.2" cy="1018" r="61.1"/>
		<path class="st20" d="M535.7,1017.6c0-73.8-59.8-133.6-133.6-133.6s-133.7,59.8-133.7,133.6c0,0-9.3,130.8,133.6,257.3
			C545,1148.4,535.7,1017.6,535.7,1017.6z M402,1074.1c-31.2,0-56.4-25.3-56.4-56.4c0-31.2,25.3-56.4,56.4-56.4
			c31.2,0,56.4,25.3,56.4,56.4C458.4,1048.8,433.1,1074.1,402,1074.1z"/>
	</g>
	<g class="st18">
		<circle class="st19" cx="1092.3" cy="479.9" r="61.1"/>
		<path class="st20" d="M1225.8,479.5c0-73.8-59.8-133.6-133.6-133.6s-133.7,59.8-133.7,133.6c0,0-9.3,130.8,133.6,257.3
			C1235.1,610.3,1225.8,479.5,1225.8,479.5z M1092.1,535.9c-31.2,0-56.4-25.3-56.4-56.4c0-31.2,25.3-56.4,56.4-56.4
			c31.2,0,56.4,25.3,56.4,56.4C1148.5,510.6,1123.2,535.9,1092.1,535.9z"/>
	</g>
	<g class="st18">
		<circle class="st19" cx="1758.2" cy="1638.5" r="61.1"/>
		<path class="st20" d="M1891.6,1638.1c0-73.8-59.8-133.6-133.6-133.6c-73.8,0-133.7,59.8-133.7,133.6c0,0-9.3,130.8,133.6,257.3
			C1900.9,1768.9,1891.6,1638.1,1891.6,1638.1z M1758,1694.5c-31.2,0-56.4-25.3-56.4-56.4s25.3-56.4,56.4-56.4
			c31.2,0,56.4,25.3,56.4,56.4S1789.1,1694.5,1758,1694.5z"/>
	</g>
</g>
<g id="Capa_1">
	<path class="st38" d="M1124.3,2079.4c-10.2-0.8-40.2,16.7-49.6,20.7c-13.8-36.2-48.3-66.2-65.8-100.3c-41.4-5.7-116.6,28-87.8-43.5
		c-0.8-11-22.8-26.4-15.4-34.9c26.8-27.6,80-64.2,97.5-99.1c17.5-20.7,43.9-42.7,72.7-37c15.8-28-5.7-21.9,30.5-40.6
		c29.7-29.7,3.2-67,21.5-69.9c25.2,14.2,54.8-20.3,73.9-32.1c26,38.2,81.7,46.3,123.9,60.1c31.3-11.8,38.2-26.8,50.8,15.4
		c-0.4,19.9,9.8,39.4-9.7,53.6c-44.7,11-91.4,31.3-139.3,29.7c-10.2,0.4-4.1,17.5-4.1,23.2c65.4,24.8,21.9,29.7,35.4,50.8
		c35.3,9.7,79.6,31.3,71.9,74.8c98.3-107.3,83.7,142.6,33.7,175.9c-34.5,1.2-27.2-22.3-80.8-9.3c-26.4-14.2-39.4-32.9-54-56.9
		c-27.2-1.6-22.7,32.1-56.9,18.3C1142.6,2076.6,1161.7,2101.3,1124.3,2079.4z"/>
	<path class="st38" d="M1231.2,2473.5c33.7-10.6,120.3-54.4,54.4-86.5c-56.9,22.3-20.7-61.8-9.3-84.1c-8.5-54,28-74.8,17.5-98.7
		c21.9-78.4,45.5-41.8-9.3-86.5c19.5-4.1,49.2-6.9,63.8,9.3c43.9-4.1-18.7,65,53.2,90.6c38.6-0.8,65.8,22.7,96.3,43.9
		c27.6-2.4,53.2,27.2,43.1,57.3c19.5,52.4,77.2,91.4,51.6,153.6c-28.8,28.4-17.9-14.6-56.1-0.8c-20.7-18.3-43.5,11.4-33.3,34.1
		c-6.9,8.1-67.8,16.3-67,0.8c3.7-1.6,14.2,3.3,11.4-4.9c-47.5-24.8-74.3,25.2-49.6-28c-30.9-1.6,11-75.6-35.4-37
		c-11.8,6.1-3.3,23.6-0.4,32.1c-9.3,26-41,49.6-69.5,40.6c-8.5-10.6-38.2-10.6-34.5-27.6C1251.1,2477.1,1238.5,2478,1231.2,2473.5z
		 M1390,2567.7c12.2,24.4-22.3,43.1-41,27.6C1346.6,2562,1348.6,2567.7,1390,2567.7z M1384.8,2504c9.3,7.7,39.8-11.8,40.6,2.4
		c-32.1,8.5,13,33.7-16.3,50c-15-7.7-62.6-11-51.2-36.2C1363.6,2511.3,1371.8,2494.2,1384.8,2504z"/>
	<path class="st38" d="M25.8,1656.1c-23.6,0.4-16.3-49.6,0.8-56.1c31.7-10.2,54.4-50.8,78.4-73.9c23.6-19.9,64.6,26.8,70.7-20.3
		c2.8-13-6.5-48.7,0-60.5c9.7-6.5,13-21.1,7.7-31.3c30.9-10.6,88.6-27.6,107.3,8.9c-4.5,48.8,79.6,58.5,67.4,106.8
		c8.1,29.7,50.4,59.7,79.6,52c-16.7-32.9,32.5-41,54.8-34.1c60.1-15.8,9.8,65.4,5.7,88.6c-19.5,26.4-86.9-5.7-50,41.8
		c-38.2,7.3-31.7-22.7-51.2-15.4c5.3,59.3-103.6,47.1-75.2,111.3c1.2,11.8,2,36.6,0.8,47.9c-8.5-36.6-47.9-51.6-49.6-92.2
		c-18.7-15-56.9,2.8-44.7-33.7c-11-50-35.3-11.4-50.8,11C128.2,1691,77.8,1662.6,25.8,1656.1z"/>
	<path class="st38" d="M695.3,2112.7c15.4-15.4,0-37-4.5-53.6c1.2-13.8,9.3-29.7,0-42.3c31.3-41.8,117.8-55.7,134.9-106
		c18.7-15-0.4-51.6,2-71.9c10.6-39.8-32.5-29.7-55.3-38.2c-45.1-22.3,6.5-18.7-18.7-93c-29.3-17.1-72.7-43.5-59.7-87.3
		c77.2-32.1,107.7,8.5,138.5-95.1c-17.9-110.1-40.6-43.1,125.5-69.5c22.8,5.7,50.8,12.6,69.5-4.9c8.5,21.5,37,21.1,55.7,27.2
		c48.3,15.4,29.7,60.9,75.1,78.4c8.9,4.5,8.9,14.6,7.3,23.6c11.8,12.6,42.3,41.4,39.8,60.1c-28,26.4-51.2,37.8-83.7,39.8
		c0.4,26.8,0.8,65.4-32.5,73.9c-13.8,27.2-7.7,36.2-46.7,32.9c-46.7,41-91,98.3-139.4,136.9c15.4,22.3,19.9,51.2,9.8,75.1
		c-23.2-8.9-26,19.5-10.6,30.1c3.2,24.4-18.7,5.3-28.8,23.2c-6.5,19.1-22.8,18.3-38.6,23.2c-4.5,14.6-11.8,6.5-23.2,4.9
		c-13.8-2.8-2,19.5-15,15C763.2,2076.2,728.6,2114.7,695.3,2112.7z"/>
	<path class="st38" d="M4925,1180.3c-13.4-3.7-150.3,30.1-112.5-4.9c-37.4-6.9-56.1,7.3-82.5-15c-17.5-22.3-15,32.9-64.2,31.7
		c-15.8-7.7-15.8-30.5-39.4-23.6c-5.3,3.3,0.8,8.9,2.8,12.2c-6.1,4.9-5.7,15.8-6.1,22.8c-5.3-3.7-6.9-9.8-12.2-3.7
		c-4.1,17.5,10.2,23.6-14.6,15c14.6,14.6-18.3,18.3-25.6,30.5c-42.3,6.5-6.1,54.8-55.3,24c-84.5-4.9-30.9,33.3-49.2,40.6
		c-2.4-12.6-16.7-12.2-26.8-11c16.3,38.2-94.7,2-43.1,39.4c-30.1-6.5-47.1,31.3-69.9,10.6c13.4,27.2-18.3-6.9-27.2-10.6
		c-1.6,8.1-7.7,26,0,32.9l-78,4.1c-18.7-1.2-8.9-2-19.1-10.2c-8.1-0.4-23.6,3.7-26.4-7.3c-10.2-7.3-22.8-17.5-32.5-3.7
		c28,58.1,42.3,27.6-47.5,57.7c-114.2-93.8-27.2,8.9-82.9,38.2c-67-10.6-30.1,0-59.3-39.4c-19.1,40.2-60.1,81.3-106.5,74.8
		c-21.1-26-37,11-23.1-29.7c-11-2.4-65,0.8-75.2-5.7c-15.8-8.1-44.7-22.7-60.1-6.1c-11.4-22.7-32.5-72.7-53.2-75.2
		c26.4-54.4-74.3-54.4-108.1-40.6c-170.6,299-33.7-899.1-75.6-957.6c78.4,35.8,188.9,64.6,266.1,100.3
		c-28.4,32.9-15.4,95.5,36.6,70.7c3.7-6.5-0.8-29.3,12.6-23.6c8.9,28,36.6,14.2,57.7,19.1c39.8,4.9,26.4,9.3,58.1-8.9
		c-42.7-23.2-121.5-8.5-149.1-55.3c76.4,16.7,179.6,35.8,257.6,37c158,90.2,277.5,278.7,455.8,332.7c11.4,12.6,4.1,20.3-11,19.9
		c-21.1-6.1-43.1-34.1-65.8-37c-6.9-19.9-85.7-8.9-55.3-30.9c-16.7-28-29.3-37-57.3-41.4c-39.4-39-47.5,14.6-66.6,4.1
		c-34.1-11-15.4-4.9-5.7-27.2c-58.9-17.9-8.9,32.5-8.9,50.4c-16.3,12.6-25.2-60.5-48.3-54.4c-24.4,7.7-31.7,6.5-56.1,1.6
		c5.7,39.4,34.1,17.1,23.1,45.9c0,5.3-5.3,11.4,3.7,9.8c36.2-60.9,33.3-51.2,63.4,7.7c11.8,27.2-8.9,17.9-20.7,35.3
		c6.9,34.1,33.7,68.3,69.9,72.3c12.6-4.9,2-23.6,0-31.7c10.6,7.3,22.4,19.1,23.6,32.1c-24.4,49.2,58.5,13.8,58.1,29.7
		c-59.3,8.1,26.8,71.5,56.9,43.9c53.2-16.3,13-28.4-13.8-43.9c-10.2-10.6-9.8-18.7-27.2-17.5c-32.9-5.3-141.4-59.3-65-78
		c19.9,10.6,82.9,28,86.1,56.5c21.5,19.1,58.9,13.8,70.7,44.7c-11.4,8.5-27.6,16.7-3.3,19.1c45.5-38.6,5.3,63.4,37,58.9
		c7.3-4.5-0.8-19.5,9.8-16.7c12.2,42.7,18.7-35.3,83.7-27.2c-2.4-53.2,35.7-22.3,70.3-19.9c6.9-2,21.5-4.9,8.5,7.3
		c6.1,14.6,11,47.9-8.5,54.8c-21.1-6.1-1.6-26.8-37.8-26.4c-10.6,6.9-42.7,66.2-8.5,45.1c-6.5-6.9-6.1-24.4,5.7-22.3
		c0,47.9,25.2,50.4,48.4,11.8c19.9-15,63.4-8.9,25.2-41.8c-7.3-17.1-10.6-58.1-36.2-37.4c-13.8-8.5-33.3-23.6-48.8-10.6
		c-7.3-4.5-2-10.6,0-16.7c-8.1,0.4-39-11-46.7-14.2c-147.5-116.6,164.9,58.1,206,62.6C4811.6,1040.6,4739.3,1138.9,4925,1180.3z"/>
	<path class="st38" d="M3007.8,1957.9c-36.6,4.1-23.6,28-66.6,34.5c6.9,19.9-21.5,8.5-30.5,26c-11.8,11-28.4-3.3-36.2,6.5
		c6.1,20.7-30.5,63.4,2.8,68.7c9.3,13,0.8,32.9-11,41.8c-9.3-8.5-13.8-15.4-28.4-13.8c-38.2,8.1-49.6-25.2-65.4-51.6
		c-14.2-9.3-27.6-8.1-42.7-2.4c-23.6-13-61.8-58.9-89-71.9c-3.7-55.7,36.6-58.1-64.6-33.3c-19.5,16.7-19.1,45.5-49.6,51.6
		c-26,33.3-74.3,89-99.5,123.5c-4.1,26-15.4,54.8-46.3,56.1c-71.5,10.2-40.2-19.9-118.2-9.8c-29.7-27.2-86.9-5.3-121.5-0.4
		c-36.2-9.8-91.8-2.4-86.1,46.3c-42.7,17.9-80,50.4-126.8,38.2c1.2,47.5-60.1,50-65.8,89c-21.1,31.3-71.5,58.5-78,1.2
		c-37-16.3-50,7.3-64.6-43.5c-30.1-22.3-19.5-20.7-13-55.3c39-24.8,63.8,39,74.8-21.5c22.7-25.6-24.4-43.9-6.9-84.9
		c9.3-19.5,33.3,25.2,60.5,21.9c55.3-9.3,42.7-101.2,52-141.8c-15.8-33.3,54,33.7,57.3-72.3c-24.4-45.5-110.9-87.8,0-82.9
		c7.7-12.6,12.6-24.8-6.5-27.6c4.5-27.2,33.7-62.1,57.3-78.8c15-52,59.3-94.7,105.6-123.9c57.7,27.2,30.9,6.9,65.8,13
		c20.3,26.8,7.3,19.5,40.6,22.7c41.4,11.8,90.2,31.7,111.7,70.3c95.5,39.8,176.3-119,232.8,20.3c36.6,14.6,37.8,18.3,66.2-3.2
		c35.4,2,43.1,40.2,53.2,66.6c31.3,5.7,59.3,70.3,89,39.4c2.9-41.4,43.1-31.3,68.7-18.7c30.9-45.9,43.9-17.1,101.2-10.2
		c20.7-23.2,45.1,38.6,41.4,58.9C2987.5,1931.1,2997.7,1917.7,3007.8,1957.9z"/>
	<path class="st38" d="M1390,1920.1c-3.3-48.3,51.2-41.8,80.8-57.7c36.6-24.8-4.1-32.1,65.4-51.2c16.7-32.9-37.4-4.5-25.6-89
		c19.5-23.6,16.7,28.4,54.4-34.1c24.4-33.3-22.8-28.4-13-45.5c13-28.4-45.5-31.7-44.3-75.2c19.1-18.3,56.9-49.2,49.2-80
		c24-17.9,48.4,45.5,63.4-21.5c-5.7-32.9,6.5-4.9,8.1-23.6c103.6-44.3-7.3-121.5,82.9-149.1c-58.9-56.1,23.6-62.2,18.7-123.9
		c41-32.9,107.3-4.5,155.6-3.7c-4.1,32.5,74.3,47.5,56.9,67.8c-24,32.1,33.3,233.6,85.7,238.5c25.2,24.4,60.1,47.9,46.7,86.9
		c12.6,23.2,17.1,52.8,26.8,77.6c-2.8,27.6-70.7,57.3-85.3,81.2c4.9,58.1-99.1,95.1-67,136.9c10.2,12.2-7.7,28-20.7,25.6
		c-113.8-9.3,78,79.2-4.1,138.9c-15,16.7-47.9-11.4-37,13.8c-9.7,274.2-121.9,40.2-115.4,151.9c4.1,17.1,27.6,35.8,9.3,52.8
		c-16.7,45.1-0.4,30.5-50,13.4c-32.5,11-76-4.1-107.7-11c-29.7,10.6-72.7-13-52.8-48.8c-9.3-0.8-20.3-0.8-29.2-4.5
		c-51.6-15.4-12.6,85.7-43.5,74.8c-17.5-8.9-41.4-30.5-57.7-40.6c-93,9.8-87.8-86.5-46.7-140.6
		C1415.2,2046.5,1394.1,1956.3,1390,1920.1z"/>
	<path class="st38" d="M2318.4,531.1c58.9,48.8,139.3-30.5,182-68.3c39.4-26.4,133.7-15.4,177.1-24.8c58.9-32.1,98.3-86.9,0-89
		c-98.7-34.5,267.7,6.5,232.8,63c19.9-21.9,24-6.5,45.1,11c161.3,77.2,291.7,52,436.3-52.8l59.7-1.2
		c-33.3-20.3,66.6,953.1-47.1,696.3c-124.3-97.1-127.6-19.9-237.3-199.5c-14.2-21.1-91-47.1-114.2-56.1
		c-32.5-30.5-102.8-88.6-144.2-104.4c-17.9-9.3-29.3,10.2-45.1,1.2c-24.8-20.7-28.8,7.7-39.4,22.3c-19.1,19.1-37,28.4-60.9,14.2
		c-19.1,19.9-51.6,67.8-76.4,85.7c-21.1,8.5-52,37.8-73.5,24.4c-47.1,17.1-91.4,24.8-133.7-10.6c-8.5-13.8,5.7-111.3-15.8-89
		c-42.7-30.5-99.1-3.3-132.4-52.4c43.9-24.4,54.8-18.7,43.5-76c-37-8.1-18.7-16.7-40.6-38.6C2313.1,573.4,2307.4,547.4,2318.4,531.1
		z"/>
	<path class="st38" d="M2085.6,2585.2c-29.3,20.3-68.7-45.1-102.4-9.3c-26.4,20.3-71.5,57.3-49.6,94.2c4.9,8.9-15.4,50.8,4.1,54.4
		c-25.6,33.3-64.6,76.4-99.9,93.4c-12.6-37-297,37.8-175.1-34.5c-1.2-14.2-50,7.7-65.8-39.8c-4.1-18.7,18.7-15.4,30.5-18.7
		c18.7-7.3-69.5-21.9-82.9-13c0.8-44.7-26.8-99.9-56.1-128.4c-15.8,4.9-22.3-20.3-9.3-28c51.2-32.1,27.2-38.6,96.7-54.8
		c-7.3-24.4,19.1-21.9,24.8-49.6c0.8-24-22.7-45.1-13-69.9c-48.8-21.1-36.6-71.5-54-105.2c-24.4-9.3-30.9-33.7-21.1-56.9
		c-7.3-43.9,41-36.2,56.9-25.6c-15.4,21.1,8.1,35.7,21.5,49.2c37-3.7,79.6,1.2,115,15.4c-1.2,9.7-12.2,37-2.4,44.7
		c32.1,8.9,13.8,37.8,37,46.7c6.5,1.6,39.8-0.8,43.1,7.3c25.2,96.3,93.4-37.8,130.4-56.5c27.6-41.4-11.8-29.7,46.3-32.9
		c4.9,15.8,33.7-25.6,59.3-17.5c38.2-31.7,37.4-26,32.9,21.1c13.4,33.7,26,5.7,13.4,63.4c-2.8,34.9,43.1,114.2,14.6,146.3
		C2084.4,2515.3,2142.9,2549,2085.6,2585.2z"/>
	<path class="st38" d="M1027.7,1450.9c22.7-21.9-10.2-40.2,0-63.4c11.8-6.1,32.5-24.8,41-35.7c34.9-1.2,28-13,28.8-41
		c8.1,57.7,58.9-8.9,80.4-17.9c28.8-54.4,131.2-50,116.6-129.2c29.3,0,89.8,1.6,117-8.1c43.9-68.3,61.4,28.4,97.5,44.3
		c7.3,21.9,0.8,58.5,35.7,51.6c27.6-20.7,60.5-34.9,91.4-8.9c26.4-2.8,22.8-4.1,45.1,17.9c15.8,4.5,41,30.5,16.7,41
		c-7.7,1.6-21.1-0.8-23.6,8.9c-2.8,45.9,16.7,115-45.5,128.4c-1.6,6.1-1.2,15-8.9,6.9c2.4,21.1-11.4,72.3-37.4,41.4
		c-8.5,3.3-21.5-13-25.6-0.8c1.6,69.1-100.3,77.6-4.1,140.6c-4.1,30.1,4.9,21.1,20.7,43.1c-12.2,27.6-28.4,56.1-60.5,46.7
		c-31.3,80,84.5,73.1-18.7,111.3c-9.3,39.8-47.1,43.5-80.8,49.6c-35.4,56.1-41,31.7-82.1,72.7c7.7-50-40.2-60.9-74.8-77.6
		c-0.8-17.9,13.8-19.9-5.3-36.2l-27.2-11.4c0-6.5-6.9-24,5.3-23.2c20.3-0.8,50.8-4.9,71.9-8.1c16.7-2.8,30.1-20.3,46.3-15.8
		c47.1-4.5,32.5-56.5,17.5-86.5c-45.9,20.7-97.5-7.7-143.8-24.8c-32.5-30.9-4.5-19.1-21.1-45.1c-8.5-16.3-39.8-37-34.1-56.9
		c-18.7-18.7-40.2-13.8-41.4-48.7C1110.9,1470,1048.8,1485.8,1027.7,1450.9z"/>
	<path class="st38" d="M542.6,1982.3c2.8-18.3-17.1-24.8-31.7-24.8c-30.1-11,18.7-79.6-36.6-46.7c-84.5,18.3-47.9-117.8-141.8-69.5
		c-19.5-13-5.3-48.4-11-68.3c-13.8-34.5,2-27.6,19.9-57.3c83.3-20.3,34.9-56.1,65.4-55.3c8.1,15,25.2,19.5,41,17.1
		c-9.3-5.3-17.1-40.2,0-28.8c18.3,4.9,53.2-2.4,54.8-25.6c28.8-78.4,17.1-125.1-32.9-175.1c-50-85.3,121.9,5.3,97.5-69.1
		c-41.4-52.4,31.7-87.3,11.8-141.8c84.5-51.2,79.2,68.7,130,92.2c46.3-55.7,33.3-20.7,93.8-4.1c-69.9,92.6,86.1,42.3,13,134.5
		c9.3,8.5,13.8,54.4,16.7,66.2c-24.8,138.9-158.4,29.7-135.7,135.3c31.3,50.4,40.2,24.8,56.9,47.1c15.8,115-24,74.3,74.3,108.5
		c30.1,145.4-55.7,118.2-131.6,199.5C681.9,1995.7,569.8,1975.4,542.6,1982.3z"/>
	<path class="st38" d="M1301.1,424.7c27.6-8.9,54.8,28,80.4,27.2c-16.7-20.3,11.8-28,27.2-39c-4.1,9.8-30.9,31.3-13.8,39
		c28.4,22.8,89.8,109.3,131.6,73.5c7.7-20.3,21.1-18.7,39.8-17.1c13-17.1,8.1-25.6,36.2-26c142.2,22.8,318.9,123.1,452.6,35.8
		c59.3,50.8,275.4-56.5,259.6,46.3c17.1,17.5,28.8,50.8,51.6,58.9c31.3,33.7,5.3,62.6-35.4,78c-57.3-18.7-119.8-2-178.8-16.3
		c-42.3,11.8-81.3,49.2-127.6,42.7c-58.9-19.1-68.2,0.8-128-0.8c-12.6-2.8-36.2,21.5-44.3,28.4c-23.2,26.4-120.3,76.8-154,73.5
		c-37.8-4.1-87.3-34.9-119.8-11.4c-58.1,0.8-29.7-84.1-74.3-79.6c-29.7,20.7-74.8,24.8-110.5,28c-86.1-51.2-18.7-124.7-140.2-177.1
		c57.7-17.1-6.5-41-5.7-67.8c14.2-16.3,26.8-36.2,34.1-56.1C1299.5,451.1,1307.2,447.4,1301.1,424.7z"/>
	<path class="st38" d="M1254.4,588.4c62.2,31.3,88.6,69.1,96.3,136.9c32.5,59.7,106,39,154,12.2c35.7-8.9,21.1,39,36.2,56.5
		c22.7,43.5,58.5-2,86.1,20.3c84.9,29.7,130.8-1.6,205.2-38.2c35.7-56.9,100.3-45.9,156.4-63.4c13,26.8,54,14.6,77.6,11
		c47.1-16.3,84.1-56.1,136.9-29.7c55.7,2.8,123.9-18.7,160.5,37.4c20.7,14.6,67.8-6.9,87.3,16.3c4.1,1.2,10.6,6.9,13.8,4.9
		c22.4-15,6.5,49.2,8.5,57.7c21.1,32.1-13.4,50-39,61.3c-158,112.9-72.7-84.5-274.2,30.1c-42.3,110.1-70.7,22.3-139.8,42.3
		c-6.5,24-39,8.9-37.4,43.5c9.3,52.4-0.4,113.8-45.9,145.4c-31.3,11.4-36.6-5.3-52.4,31.3c-31.7-8.5-72.7-2.4-104-13
		c-14.2,2-56.1,2.4-51.2,25.2c0.4,33.3-35.4,54.4-48.4,84.1c-17.5-20.3-23.6-20.7-45.1-17.9c-46.3-44.7-78,26.4-117.4,2.4
		c-2-63.4-30.5-39-43.1-86.5c-21.1-34.9-41.4-36.6-63.8-2.8c-41,6.1-144.6,32.5-118.2-39.8c14.6-18.7-17.9-59.7-40.2-50.8
		c-14.2-26.4-39.8-6.9-47.5-29.7c-12.6-16.7-36.6-19.1-54.8-11.4c-10.2-4.1,5.7-32.1,0-41.8c-6.5-2.4-9.3,6.1-13-4.5
		c15.4-54,8.1-58.1,56.9-91c15-29.7,56.1-57.3,8.1-78c11-24,30.1,20.3,30.9-14.2c-26.8-33.7,7.3-54.8,15.4-89
		c4.5,1.2,19.1,6.1,17.5-2.8c19.9-36.6-18.7-49.2-37.8-73.9C1260,600.6,1192.6,627.8,1254.4,588.4z"/>
	<path class="st38" d="M718.5,752.1c40.2-29.7,94.7-72.7,114.6-119.8c4.9-11,24.8-3.7,33.7-11c8.5-2.8,24.8-19.1,30.1-6.1
		c24-91.4,50.4,80.4,142.6-55.3c9.7-5.7,24.4-11.8,15-25.2c24.8,9.3,124.7-28,79.2-51.6c-3.3-2.4-14.6-10.6-7.7-14.2
		c29.7,6.1,56.9-13.4,82.9-21.9c10.2,1.2,73.5-4.9,82.1-8.5c17.9-37.4,19.1,12.2-12.2,34.1c-10.6,36.6-52.4,54.8-7.7,80
		c17.1,12.6,2.8,36.2-15.9,36.2c-61.8,39.4,5.7,12.6-25.2,40.6c23.6,19.9,74.3,72.7,20.3,76.8c-2.4,31.3-43.5,47.5-19.5,78
		c6.9,13.8,4.9,34.9-13,17.9c-37.8,3.7,26.8,22.8,8.9,42.7c-26.8,21.9-28.4,58.1-69.1,66.6c-1.2,16.3,2.4,10.2-11.4,24.8
		c6.5,16.7-9.7,34.5-4.1,48.3c25.6-9.7-2.8,34.1,9.7,40.6c21.9-9.3,52.8-2.8,59.7,22.3c11.8-1.2,21.9,5.7,33.7,5.7
		c4.5,5.3,3.3,14.6,13,13.4c54.8-2.8,29.7,65.8,37.4,98.3c9.8,47.9-31.3,70.3-67.4,89.8c-39.4-0.4-103.6,130-129.6,57.3
		c8.1-109.3-108.1-35.8-25.6-179.2c-2-6.5-10.2-8.1-14.2-13c-136.9-44.7,12.2-89.8-35.7-115.8c-43.5-18.3-31.3-95.5-41.8-130
		c-50-18.7-91.8-29.7-83.3-93C856.6,747.7,768.9,724.5,718.5,752.1z"/>
	<path class="st38" d="M487.3,932.9c100.3-55.7,194.2-208.8,318.5-190.1c62.2,21.9,95.5,10.2,96.7,86.1
		c120.7,67.8,58.9,57.7,103.6,162.9c61.4,23.2,0,41-8.9,79.2c76.8,103.6,88.2-13.8,44.7,149.9c17.1,32.1,61.4,11,56.1,90.2
		c0.8,68.3-5.7,8.5-57.3,68.7c-39.4,13.8,13.4,47.5-13,71.1c-60.1,19.9-145.4,8.1-212.1,8.5c52.4-77.2-6.1-41.8-30.9-91
		c-14.6-20.7,55.7-54-19.5-52.8c-7.3-14.6-24.4-28.4-36.2-10.2c-58.1,80-49.6-99.5-116.6-80.4c-169.4,67.4-7.3-104.8-43.9-141
		c-16.3-32.9,26.8-31.7-17.1-50c-10.6-14.2-37.8-30.1-28.4-50.4C525.5,975.2,490.2,939.8,487.3,932.9z"/>
	<path class="st38" d="M183,1119.4c31.3-24,103.2-36.2,136.9-56.5c58.9-24.4,169.4-194.2,203.5-79.2c-17.9,38.6,71.9,51.2,40.2,80
		c-0.8,19.1,22.3,32.9,15,51.2c-34.5,20.7-27.6,69.5-45.5,101.6c11.4,58.5,48.3-12.2,49.6,46.3c0.4,30.5-16.7,21.5-12.2,38.2
		c-45.9,34.1,15.8,79.6-6.9,102.8c-38.2,21.9-111.7-15-102.8,23.2c2.8,19.9,28.4,36.6,38.2,52.4c14.2,24.4,25.2,85.3-22.3,65.4
		c-80,5.3-12.6,48.4-59.3,38.6c-39.8-15.8-61.3-39.4-64.2-86.1c-73.9-53.2-38.2-27.2-74.8-91.4c-101.6-25.2-80.4,61.4-136.5-63
		c-38.2-32.5-26.8-65.4,7.7-93.8C186.7,1206.3,126.6,1155.1,183,1119.4z"/>
	<g>
		<path class="st38" d="M1777.6,408c19.8,45.6-55.2,33.8-82.9,61.8C1617.4,436.9,1739.6,409.6,1777.6,408z"/>
		<path class="st38" d="M2043.2,247.6c23.6-103.3,369.7-181.3,394.6-139.8c-123.5-2.6-221.4,78.7-337.6,111.5
			C2084.8,229,2049.1,284.4,2043.2,247.6z"/>
		<path class="st38" d="M2721.5,67.6c39.9-102.5,136.6-24.3,65.6-22.1c-12,39.2-70.1,53.3-100.3,82
			C2680.6,108.8,2703.4,74.6,2721.5,67.6z"/>
	</g>
</g>
<g id="Capa_4">
	
		<image style="overflow:visible;" width="330" height="180" xlink:href="../../../../../../Users/florianaelsegood/Desktop/Captura de pantalla 2022-01-05 a la(s) 20.42.14.png"  transform="matrix(14.9576 0 0 14.9576 5069 3)">
	</image>
</g>
<g id="Capa_3">
	<path class="st39" d="M3451.4,1386.9c-21.9,11-19.1,40.6-26,58.9c-35.4,6.9-0.4,18.7,10.2,29.3c-19.5,21.5-29.7,19.1-2.8,25.6
		c-32.9,54.4-43.1,50-89.8,19.5c-15,19.9-5.7,59.3-14.2,80.4c-39.8,33.7,4.9,30.5-39.8,58.9c125.9,101.2-82.9,64.6-106.5,125.1
		c-56.1,6.9-42.7,104-105.6,121.9c-41.8-0.8-27.2,52.8-69.9,50c-1.2-28.8-33.3-34.9-38.2-59.3c4.9-21.1-24.4-73.9-42.2-50
		c-21.1-3.3-55.7-18.7-77.6-17.5c-20.7,57.7-48.8-11-84.9,26.4c-8.5,20.3-0.8,30.9-32.9,26.8c-6.9-2.4-20.3-22.7-24.8-28
		c-9.7-6.5-36.6-12.2-40.2-25.2c-2.8-26.8-27.2-71.1-58.9-57.3c-81.3,52.8-56.1-95.9-151.1-53.6c-69.9,35.7-47.1,48.3-138.1,33.3
		c-26.4-47.9-91-65.8-140.6-75.6c-21.5-42.7-18.3,3.3-77.6-30.5c-1.6-29.7-15.4-62.2-26.4-89c0.8-24.4,9.3-33.3-11.8-53.6
		c-15.4-23.6-51.2-34.1-67.8-54.8c-22.7-67-88.2-163.7-45.5-223.4c-26-22.7-94.7-50.4-45.1-87.8c86.9,1.2,81.7-107.3,82.5-168.2
		c7.7-11.8,32.5-9.3,34.5-26l36.6-8.1c39.4,47.1,90.2,15.4,102.8-34.1c79.6-24.4,108.9-76.4,180.4,7.3
		c68.3,10.6,124.7-102.8,187.3-40.6c41,13.4,63.8-28,110.5-10.2c-1.2-6.1,45.5-26.4,48.8-29.7l47.9-47.1c8.1-7.7,20.3-50.4,39-35.8
		c18.3,17.5,61.3-16.3,57.7-37.8c111.7-38.2,197.9,115.8,307.5,135.3C3341.3,1102.5,3502.2,995.6,3451.4,1386.9z"/>
	<g>
		<circle class="st19" cx="2730" cy="1162.1" r="62.4"/>
		<path class="st20" d="M2866.2,1161.8c0-75.3-61.1-136.4-136.4-136.4s-136.5,61.1-136.5,136.4c0,0-9.5,133.5,136.4,262.6
			C2875.7,1295.2,2866.2,1161.8,2866.2,1161.8z M2729.8,1219.3c-31.8,0-57.6-25.8-57.6-57.6s25.8-57.6,57.6-57.6
			c31.8,0,57.6,25.8,57.6,57.6S2761.6,1219.3,2729.8,1219.3z"/>
	</g>
</g>
</svg>
