<svg width="4877" height="2903" viewBox="0 0 4877 2903" fill="none" xmlns="http://www.w3.org/2000/svg">
<path d="M708.4 847.7C748.2 818.3 802.1 775.7 821.8 729C826.6 718.1 846.3 725.4 855.2 718.1C863.6 715.3 879.7 699.2 885 712.1C908.7 621.6 934.9 791.7 1026.2 657.4C1035.9 651.8 1050.3 645.7 1041.1 632.5C1065.6 641.8 1164.6 604.7 1119.5 581.4C1116.3 579 1105 570.9 1111.9 567.3C1141.3 573.3 1168.2 554 1194 545.6C1204.1 546.8 1266.8 540.8 1275.3 537.2C1293 500.2 1294.2 549.3 1263.2 571C1252.7 607.2 1211.3 625.3 1255.6 650.2C1272.5 662.7 1258.4 686 1239.9 686C1178.8 725 1245.5 698.5 1215 726.2C1238.3 745.9 1288.6 798.2 1235.1 802.2C1232.7 833.2 1192.1 849.3 1215.8 879.4C1222.6 893.1 1220.6 914 1202.9 897.1C1165.5 900.7 1229.5 919.6 1211.8 939.3C1185.3 961 1183.6 996.8 1143.4 1005.3C1142.2 1021.4 1145.8 1015.4 1132.1 1029.8C1138.5 1046.3 1122.4 1064 1128.1 1077.7C1153.4 1068 1125.3 1111.5 1137.8 1117.9C1159.5 1108.6 1190.1 1115.1 1196.9 1140C1208.6 1138.8 1218.6 1145.6 1230.3 1145.6C1234.7 1150.8 1233.5 1160.1 1243.2 1158.9C1297.5 1156.1 1272.6 1224.1 1280.2 1256.2C1289.9 1303.7 1249.2 1325.8 1213.4 1345.1C1174.4 1344.7 1110.8 1473.8 1085.1 1401.8C1093.1 1293.6 978.1 1366.4 1059.8 1224.4C1057.8 1218 1049.7 1216.3 1045.7 1211.5C910.1 1167.3 1057.8 1122.6 1010.3 1096.9C967.3 1078.8 979.3 1002.4 968.9 968.2C919.4 949.7 878 938.8 886.4 876.1C845.2 843.2 758.3 820.3 708.4 847.7Z" fill="#2DD4BF" stroke="white" stroke-width="14.1732" stroke-miterlimit="10"/>
<path d="M1800.7 373.4C1819.1 415.8 1749.4 404.8 1723.5 430.9C1651.6 400.3 1765.4 374.9 1800.7 373.4Z" fill="#2DD4BF" stroke="white" stroke-width="14.1732" stroke-miterlimit="10"/>
<path d="M2047.8 224.2C2069.7 128.1 2391.7 55.5001 2414.9 94.1001C2300 91.7001 2208.9 167.3 2100.8 197.9C2086.5 206.9 2053.3 258.4 2047.8 224.2Z" fill="#2DD4BF" stroke="white" stroke-width="14.1732" stroke-miterlimit="10"/>
<path d="M2678.8 56.7001C2715.9 -38.6999 2805.9 34.1 2739.8 36.1C2728.7 72.5001 2674.5 85.7001 2646.5 112.4C2640.7 95.0001 2662 63.2001 2678.8 56.7001Z" fill="#2DD4BF" stroke="white" stroke-width="14.1732" stroke-miterlimit="10"/>
<path d="M1110.2 2161.8C1100.1 2161 1070.4 2178.3 1061.1 2182.3C1047.4 2146.5 1013.2 2116.7 995.9 2082.9C954.9 2077.3 880.5 2110.6 909 2039.9C908.2 2029 886.5 2013.8 893.7 2005.3C920.2 1977.9 972.9 1941.8 990.2 1907.2C1007.5 1886.7 1033.6 1865 1062.2 1870.6C1077.9 1842.9 1056.6 1848.9 1092.4 1830.4C1121.8 1801 1095.6 1764 1113.7 1761.2C1138.6 1775.3 1168 1741.1 1186.9 1729.4C1212.6 1767.2 1267.8 1775.3 1309.6 1788.9C1340.6 1777.2 1347.4 1762.3 1359.9 1804.2C1359.5 1823.9 1369.6 1843.2 1350.2 1857.3C1306 1868.2 1259.7 1888.3 1212.2 1886.7C1202.1 1887.1 1208.2 1904 1208.2 1909.6C1273 1934.1 1229.9 1939 1243.2 1959.9C1278.2 1969.6 1322 1990.9 1314.4 2033.9C1411.7 1927.7 1397.3 2175.1 1347.8 2208.1C1313.6 2209.3 1320.9 2186 1267.8 2198.9C1241.7 2184.8 1228.8 2166.3 1214.3 2142.6C1187.4 2141 1191.8 2174.4 1158 2160.7C1128.3 2159 1147.2 2183.5 1110.2 2161.8Z" fill="#2DD4BF" stroke="white" stroke-width="14.1732" stroke-miterlimit="10"/>
<path d="M1216 2552C1249.4 2541.5 1335.1 2498.1 1269.9 2466.3C1213.6 2488.4 1249.4 2405.2 1260.7 2383C1252.3 2329.5 1288.4 2309 1278 2285.2C1299.7 2207.6 1323 2243.8 1268.7 2199.5C1288 2195.5 1317.4 2192.7 1331.9 2208.8C1375.3 2204.8 1313.4 2273.2 1384.6 2298.5C1422.8 2297.7 1449.8 2321 1479.9 2341.9C1507.3 2339.5 1532.6 2368.8 1522.5 2398.6C1541.8 2450.5 1598.9 2489.1 1573.6 2550.6C1545 2578.8 1555.9 2536.1 1518.1 2549.8C1497.6 2531.7 1475.1 2561.1 1485.1 2583.6C1478.3 2591.7 1417.9 2599.7 1418.7 2584.4C1422.3 2582.8 1432.8 2587.6 1430 2579.6C1382.9 2555.1 1356.4 2604.5 1380.9 2551.9C1350.3 2550.3 1391.8 2477.1 1345.9 2515.3C1334.2 2521.3 1342.7 2538.6 1345.5 2547.1C1336.3 2572.8 1304.9 2596.2 1276.7 2587.3C1268.3 2576.8 1238.9 2576.8 1242.5 2559.9C1235.7 2555.6 1223.3 2556.4 1216 2552ZM1373.3 2645.3C1385.4 2669.4 1351.2 2687.9 1332.7 2672.7C1330.3 2639.7 1332.3 2645.3 1373.3 2645.3ZM1368.1 2582.1C1377.3 2589.7 1407.5 2570.4 1408.3 2584.5C1376.5 2592.9 1421.2 2617.9 1392.2 2634C1377.3 2626.4 1330.3 2623.1 1341.5 2598.2C1347.2 2589.4 1355.2 2572.5 1368.1 2582.1Z" fill="#2DD4BF" stroke="white" stroke-width="14.1732" stroke-miterlimit="10"/>
<path d="M22.6 1742.7C-0.700015 1743.1 6.49998 1693.6 23.4 1687.2C54.8 1677.1 77.3 1636.9 101 1614C124.3 1594.3 165 1640.6 171 1593.9C173.8 1581 164.6 1545.6 171 1534C180.7 1527.6 183.9 1513.1 178.6 1503C209.2 1492.5 266.3 1475.6 284.8 1511.9C280.4 1560.2 363.6 1569.8 351.6 1617.7C359.6 1647.1 401.5 1676.8 430.4 1669.2C413.9 1636.6 462.6 1628.6 484.7 1635.4C544.2 1619.7 494.4 1700.2 490.3 1723.1C471 1749.2 404.2 1717.5 440.8 1764.5C403 1771.7 409.4 1742 390.1 1749.2C395.3 1807.9 287.5 1795.9 315.7 1859.4C316.9 1871.1 317.7 1895.6 316.5 1906.9C308.1 1870.7 269 1855.8 267.4 1815.6C248.9 1800.7 211.1 1818.4 223.2 1782.2C212.3 1732.7 188.2 1770.9 172.9 1793.1C123.9 1777.3 74 1749.1 22.6 1742.7Z" fill="#2DD4BF" stroke="white" stroke-width="14.1732" stroke-miterlimit="10"/>
<path d="M685.5 2194.8C700.8 2179.5 685.5 2158.2 681.1 2141.7C682.3 2128 690.4 2112.3 681.1 2099.9C712.1 2058.5 797.8 2044.8 814.6 1994.9C833.1 1980 814.2 1943.8 816.6 1923.7C827.1 1884.3 784.4 1894.3 761.9 1885.9C717.3 1863.8 768.3 1867.4 743.4 1793.8C714.4 1776.9 671.4 1750.8 684.3 1707.3C760.7 1675.5 790.9 1715.7 821.5 1613.2C803.8 1504.2 781.3 1570.6 945.8 1544.4C968.3 1550 996.1 1556.9 1014.6 1539.6C1023 1560.9 1051.2 1560.5 1069.7 1566.5C1117.6 1581.8 1099.1 1626.8 1144.1 1644.1C1153 1648.5 1153 1658.6 1151.3 1667.4C1163 1679.9 1193.1 1708.4 1190.7 1726.9C1162.9 1753 1140 1764.3 1107.8 1766.3C1108.2 1792.9 1108.6 1831.1 1075.6 1839.5C1061.9 1866.4 1068 1875.3 1029.3 1872.1C983 1912.7 939.2 1969.4 891.3 2007.7C906.6 2029.8 911 2058.4 901 2082.1C878.1 2073.3 875.3 2101.4 890.5 2111.9C893.7 2136 872 2117.1 861.9 2134.8C855.5 2153.7 839.4 2152.9 823.7 2157.7C819.3 2172.2 812 2164.1 800.8 2162.5C787.1 2159.7 798.8 2181.8 785.9 2177.4C752.6 2158.6 718.4 2196.8 685.5 2194.8Z" fill="#2DD4BF" stroke="white" stroke-width="14.1732" stroke-miterlimit="10"/>
<path d="M4873.3 1271.6C4860 1268 4724.5 1301.4 4761.9 1266.8C4724.9 1260 4706.4 1274 4680.2 1251.9C4662.9 1229.8 4665.3 1284.5 4616.6 1283.3C4600.9 1275.7 4600.9 1253.1 4577.6 1260C4572.4 1263.2 4578.4 1268.9 4580.4 1272.1C4574.4 1276.9 4574.8 1287.8 4574.4 1294.6C4569.2 1291 4567.6 1284.9 4562.3 1291C4558.3 1308.3 4572.4 1314.3 4547.8 1305.9C4562.3 1320.4 4529.7 1324 4522.5 1336.1C4480.7 1342.5 4516.5 1390.4 4467.8 1359.8C4384.1 1355 4437.2 1392.8 4419.1 1400C4416.7 1387.5 4402.6 1387.9 4392.6 1389.1C4408.7 1426.9 4298.9 1391.1 4350 1428.1C4320.2 1421.7 4303.3 1459.1 4280.8 1438.6C4294.1 1465.5 4262.7 1431.8 4253.9 1428.1C4252.3 1436.2 4246.3 1453.8 4253.9 1460.7L4176.7 1464.7C4158.2 1463.5 4167.8 1462.7 4157.8 1454.6C4149.8 1454.2 4134.5 1458.2 4131.7 1447.4C4121.6 1440.2 4109.2 1430.1 4099.5 1443.8C4127.3 1501.3 4141.3 1471.2 4052.4 1500.9C3939.4 1408 4025.5 1509.8 3970.3 1538.7C3903.9 1528.2 3940.5 1538.7 3911.6 1499.7C3892.7 1539.5 3852.1 1580.2 3806.2 1573.7C3785.3 1548 3769.6 1584.6 3783.3 1544.3C3772.4 1541.9 3718.9 1545.1 3708.9 1538.7C3693.2 1530.6 3664.7 1516.2 3649.4 1532.7C3638.1 1510.2 3617.2 1460.7 3596.7 1458.3C3622.8 1404.4 3523.1 1404.4 3489.7 1418.1C3320.8 1714.2 3456.3 527.9 3414.9 470C3492.5 505.4 3602 534 3678.4 569.4C3650.2 602 3663.1 663.9 3714.6 639.4C3718.2 633 3713.8 610.4 3727.1 616.1C3736 643.9 3763.3 630.2 3784.2 635C3823.6 639.8 3810.3 644.3 3841.7 626.2C3799.5 603.3 3721.4 617.8 3694.1 571.5C3769.7 588 3871.9 606.9 3949.1 608.1C4105.6 697.4 4223.8 884 4400.4 937.5C4411.7 950 4404.4 957.6 4389.5 957.2C4368.6 951.2 4346.9 923.4 4324.3 920.6C4317.5 900.9 4239.4 911.8 4269.6 890C4253.1 862.2 4240.6 853.4 4212.9 849C4173.9 810.4 4165.8 863.5 4146.9 853C4113.1 842.1 4131.6 848.2 4141.3 826C4083 808.3 4132.4 858.2 4132.4 875.9C4116.3 888.4 4107.5 816 4084.5 822C4060.4 829.6 4053.1 828.4 4029 823.6C4034.6 862.6 4062.8 840.5 4051.9 869.1C4051.9 874.3 4046.7 880.4 4055.5 878.8C4091.3 818.5 4088.5 828.1 4118.3 886.4C4130 913.4 4109.4 904.1 4097.8 921.4C4104.6 955.2 4131.2 989 4167 993C4179.5 988.2 4169 969.7 4167 961.6C4177.5 968.8 4189.1 980.5 4190.3 993.4C4166.2 1042.1 4248.2 1007.1 4247.8 1022.8C4189.1 1030.8 4274.4 1093.6 4304.1 1066.2C4356.8 1050.1 4317 1038 4290.4 1022.8C4280.3 1012.3 4280.7 1004.3 4263.4 1005.5C4230.8 1000.3 4123.4 946.8 4199 928.3C4218.7 938.8 4281.1 956.1 4284.3 984.2C4305.6 1003.1 4342.6 997.9 4354.3 1028.4C4343 1036.8 4326.9 1044.9 4351.1 1047.3C4396.2 1009.1 4356.3 1110.1 4387.7 1105.6C4394.9 1101.2 4386.9 1086.3 4397.4 1089.1C4409.5 1131.3 4415.9 1054.1 4480.3 1062.1C4477.9 1009.4 4515.7 1040 4549.9 1042.4C4556.7 1040.4 4571.2 1037.6 4558.3 1049.6C4564.3 1064.1 4569.2 1097.1 4549.9 1103.9C4529 1097.9 4548.3 1077.4 4512.5 1077.8C4502 1084.6 4470.3 1143.4 4504.1 1122.4C4497.7 1115.6 4498.1 1098.3 4509.7 1100.3C4509.7 1147.8 4534.6 1150.2 4557.6 1112C4577.3 1097.1 4620.4 1103.2 4582.5 1070.6C4575.3 1053.7 4572 1013.1 4546.7 1033.6C4533 1025.2 4513.7 1010.3 4498.4 1023.1C4491.2 1018.7 4496.4 1012.6 4498.4 1006.6C4490.4 1007 4459.8 995.7 4452.1 992.5C4306.1 877.1 4615.4 1050 4656 1054.4C4761 1133.3 4689.4 1230.6 4873.3 1271.6Z" fill="#2DD4BF" stroke="white" stroke-width="14.1732" stroke-miterlimit="10"/>
<path d="M2975.1 2041.5C2938.9 2045.5 2951.8 2069.2 2909.1 2075.7C2915.9 2095.4 2887.8 2084.1 2878.9 2101.4C2867.2 2112.3 2850.7 2098.2 2843.1 2107.8C2849.1 2128.3 2812.9 2170.5 2845.9 2175.8C2855.2 2188.7 2846.7 2208.4 2835 2217.2C2825.7 2208.8 2821.3 2201.9 2806.8 2203.5C2769 2211.6 2757.7 2178.6 2742 2152.4C2727.9 2143.2 2714.6 2144.4 2699.8 2150C2676.5 2137.1 2638.7 2091.7 2611.7 2078.8C2608.1 2023.7 2647.9 2021.3 2547.7 2045.8C2528.4 2062.3 2528.8 2090.8 2498.6 2096.9C2472.9 2129.9 2425 2185 2400 2219.2C2396 2244.9 2384.7 2273.5 2354.1 2274.7C2283.3 2284.8 2314.3 2255 2237 2265C2207.6 2238.1 2150.9 2259.8 2116.7 2264.6C2080.9 2254.9 2025.8 2262.2 2031.4 2310.5C1989.2 2328.2 1952.2 2360.4 1905.9 2348.3C1907.1 2395.4 1846.4 2397.8 1840.7 2436.4C1819.8 2467.4 1769.9 2494.3 1763.5 2437.6C1726.9 2421.5 1714 2444.8 1699.5 2394.6C1669.7 2372.5 1680.2 2374.1 1686.6 2339.9C1725.2 2315.4 1749.8 2378.5 1760.6 2318.6C1783.1 2293.3 1736.5 2275.2 1753.8 2234.5C1763.1 2215.2 1786.8 2259.4 1813.7 2256.2C1868.4 2246.9 1855.9 2156 1865.2 2115.8C1849.5 2082.8 1918.7 2149.2 1921.9 2044.2C1897.8 1999.1 1812.1 1957.3 1921.9 1962.1C1929.5 1949.6 1934.4 1937.6 1915.5 1934.7C1919.9 1907.8 1948.9 1873.2 1972.2 1856.7C1987.1 1805.2 2030.9 1763 2076.8 1734C2133.9 1760.9 2107.4 1740.8 2142 1746.9C2162.1 1773.4 2149.2 1766.2 2182.2 1769.4C2223.2 1781.1 2271.5 1800.8 2292.8 1839C2387.3 1878.4 2467.4 1721.1 2523.3 1859.1C2559.5 1873.6 2560.7 1877.2 2588.9 1855.9C2623.9 1857.9 2631.5 1895.7 2641.6 1921.9C2672.6 1927.5 2700.3 1991.5 2729.7 1960.9C2732.5 1919.9 2772.3 1929.9 2797.7 1942.4C2828.3 1896.9 2841.1 1925.5 2897.9 1932.3C2918.4 1909.4 2942.6 1970.5 2938.9 1990.6C2954.9 2015 2965 2001.7 2975.1 2041.5Z" fill="#2DD4BF" stroke="white" stroke-width="14.1732" stroke-miterlimit="10"/>
<path d="M2292.4 628.8C2350.7 677.1 2430.4 598.6 2472.6 561.2C2511.6 535.1 2604.9 545.9 2648 536.7C2706.3 504.9 2745.3 450.6 2648 448.6C2550.2 414.4 2913.1 455 2878.5 510.9C2898.2 489.2 2902.2 504.5 2923.1 521.8C3082.8 598.2 3211.9 573.3 3355.1 469.5L3414.2 468.3C3381.2 448.2 3480.2 1412 3367.5 1157.7C3244.4 1061.6 3241.2 1138 3132.6 960.2C3118.5 939.3 3042.5 913.5 3019.6 904.7C2987.4 874.5 2917.8 817 2876.8 801.3C2859.1 792 2847.8 811.4 2832.1 802.5C2807.6 782 2803.5 810.1 2793.1 824.6C2774.2 843.5 2756.5 852.8 2732.8 838.7C2713.9 858.4 2681.7 905.9 2657.2 923.6C2636.3 932 2605.7 961 2584.4 947.7C2537.7 964.6 2493.9 972.2 2452.1 937.2C2443.7 923.5 2457.7 827 2436.4 849.1C2394.2 818.9 2338.3 845.9 2305.3 797.2C2348.7 773.1 2359.6 778.7 2348.3 722C2311.7 714 2329.8 705.5 2308.1 683.8C2287.2 670.7 2281.6 644.9 2292.4 628.8Z" fill="#2DD4BF" stroke="white" stroke-width="14.1732" stroke-miterlimit="10"/>
<path d="M1014.5 1539.5C1037 1517.8 1004.4 1499.7 1014.5 1476.8C1026.2 1470.8 1046.7 1452.3 1055.1 1441.4C1089.7 1440.2 1082.8 1428.5 1083.7 1400.8C1091.7 1457.9 1142 1392 1163.3 1383.1C1191.9 1329.2 1293.2 1333.6 1278.7 1255.2C1307.7 1255.2 1367.6 1256.8 1394.5 1247.2C1437.9 1179.6 1455.2 1275.4 1491 1291C1498.2 1312.7 1491.8 1348.9 1526.4 1342.1C1553.8 1321.6 1586.3 1307.5 1616.9 1333.3C1643 1330.5 1639.4 1329.3 1661.6 1351C1677.3 1355.4 1702.2 1381.2 1678.1 1391.6C1670.5 1393.2 1657.2 1390.8 1654.8 1400.5C1652 1446 1671.3 1514.3 1609.8 1527.6C1608.2 1533.6 1608.6 1542.5 1600.9 1534.4C1603.3 1555.3 1589.6 1606 1563.9 1575.4C1555.5 1578.6 1542.6 1562.5 1538.6 1574.6C1540.2 1643 1439.2 1651.4 1534.6 1713.8C1530.6 1743.6 1539.4 1734.7 1555.1 1756.4C1543 1783.8 1526.9 1811.9 1495.2 1802.7C1464.2 1881.9 1578.9 1875.1 1476.7 1912.9C1467.4 1952.3 1430 1955.9 1396.7 1962C1361.7 2017.5 1356.1 1993.4 1315.4 2034C1323 1984.5 1275.6 1973.7 1241.4 1957.2C1240.6 1939.5 1255.1 1937.5 1236.2 1921.4L1209.3 1910.1C1209.3 1903.7 1202.5 1886.4 1214.5 1887.2C1234.6 1886.4 1264.8 1882.4 1285.7 1879.2C1302.2 1876.4 1315.5 1859.1 1331.6 1863.5C1378.3 1859.1 1363.8 1807.6 1348.9 1777.8C1303.4 1798.3 1252.4 1770.2 1206.5 1753.3C1174.3 1722.7 1202.1 1734.4 1185.6 1708.6C1177.1 1692.5 1146.2 1672 1151.8 1652.3C1133.3 1633.8 1112 1638.6 1110.8 1604C1097 1558.4 1035.4 1574.1 1014.5 1539.5Z" fill="#2DD4BF" stroke="white" stroke-width="14.1732" stroke-miterlimit="10"/>
<path d="M534.2 2065.7C537 2047.6 517.3 2041.2 502.8 2041.2C473 2030.3 521.3 1962.4 466.6 1994.9C382.9 2013 419.1 1878.2 326.2 1926.1C306.9 1913.2 321 1878.2 315.3 1858.5C301.6 1824.3 317.3 1831.1 335 1801.8C417.5 1781.7 369.6 1746.3 399.8 1747.1C407.8 1762 424.7 1766.4 440.4 1764C431.1 1758.8 423.5 1724.2 440.4 1735.4C458.5 1740.2 493.1 1733 494.7 1710.1C523.3 1632.5 511.6 1586.2 462.1 1536.7C412.6 1452.2 582.8 1541.9 558.6 1468.3C517.6 1416.4 590 1381.8 570.3 1327.9C654 1277.2 648.7 1395.9 699 1419.2C744.9 1364.1 732 1398.7 791.9 1415.2C722.7 1506.9 877.2 1457 804.8 1548.3C814.1 1556.7 818.5 1602.2 821.3 1613.9C796.8 1751.5 664.4 1643.3 686.9 1747.8C717.9 1797.7 726.7 1772.3 743.2 1794.5C758.9 1908.3 719.5 1868.1 816.8 1901.9C846.6 2045.9 761.7 2019 686.5 2099.4C672.2 2078.9 561.2 2058.8 534.2 2065.7Z" fill="#2DD4BF" stroke="white" stroke-width="14.1732" stroke-miterlimit="10"/>
<path d="M1285.2 523.4C1312.6 514.6 1339.5 551.2 1364.8 550.4C1348.3 530.3 1376.5 522.6 1391.7 511.8C1387.7 521.5 1361.1 542.8 1378 550.4C1406.2 572.9 1466.9 658.6 1508.3 623.2C1515.9 603.1 1529.2 604.7 1547.7 606.3C1560.6 589.4 1555.7 581 1583.5 580.6C1724.3 603.1 1899.3 702.5 2031.6 616C2090.3 666.3 2304.3 560.1 2288.6 661.9C2305.5 679.2 2317.2 712.2 2339.7 720.2C2370.7 753.6 2344.9 782.1 2304.7 797.4C2248 778.9 2186 795.4 2127.7 781.3C2085.9 793 2047.2 830 2001.4 823.5C1943.1 804.6 1933.8 824.3 1874.7 822.7C1862.2 819.9 1838.9 844 1830.9 850.9C1808 877 1711.8 926.9 1678.4 923.7C1641 919.7 1591.9 889.1 1559.7 912.4C1502.2 913.2 1530.3 829.1 1486.1 833.6C1456.7 854.1 1412.1 858.1 1376.7 861.4C1291.4 810.7 1358.2 737.9 1237.9 686C1295 669.1 1231.5 645.4 1232.3 618.8C1246.4 602.7 1258.8 583 1266.1 563.3C1283.6 549.6 1291.2 546 1285.2 523.4Z" fill="#2DD4BF" stroke="white" stroke-width="14.1732" stroke-miterlimit="10"/>
<path d="M1239 685.6C1300.5 716.6 1326.7 754 1334.3 821.2C1366.5 880.3 1439.3 859.8 1486.8 833.3C1522.2 824.5 1507.7 871.9 1522.6 889.2C1545.1 932.2 1580.5 887.2 1607.9 909.3C1692 938.7 1737.4 907.7 1811 871.5C1846.4 815.2 1910.4 826 1965.9 808.7C1978.8 835.2 2019.4 823.2 2042.7 819.6C2089.4 803.5 2126 764.1 2178.3 790.2C2233.4 793 2301 771.7 2337.2 827.2C2357.7 841.7 2404.4 820.4 2423.7 843.3C2427.7 844.5 2434.2 850.1 2437.4 848.1C2459.5 833.2 2443.8 896.8 2445.8 905.2C2466.7 937 2432.5 954.7 2407.2 965.9C2250.7 1077.7 2335.2 882.2 2135.7 995.7C2093.9 1104.7 2065.7 1017.8 1997.3 1037.5C1990.9 1061.2 1958.7 1046.3 1960.3 1080.5C1969.6 1132.4 1959.9 1193.1 1914.8 1224.5C1883.8 1235.8 1878.6 1219.3 1862.9 1255.5C1831.5 1247.1 1790.9 1253.1 1759.9 1242.6C1745.8 1244.6 1704.4 1245 1709.2 1267.5C1709.6 1300.5 1674.2 1321.4 1661.3 1350.8C1644 1330.7 1638 1330.3 1616.7 1333.1C1570.8 1288.9 1539.5 1359.2 1500.4 1335.5C1498.4 1272.8 1470.2 1296.9 1457.8 1249.8C1436.9 1215.2 1416.8 1213.6 1394.6 1247C1354 1253 1251.4 1279.2 1277.5 1207.6C1292 1189.1 1259.8 1148.5 1237.7 1157.3C1223.6 1131.1 1198.3 1150.5 1190.6 1127.9C1178.1 1111.4 1154.4 1109 1136.3 1116.6C1126.2 1112.6 1141.9 1084.8 1136.3 1075.2C1129.9 1072.8 1127 1081.2 1123.4 1070.8C1138.7 1017.3 1131.4 1013.3 1179.7 980.7C1194.6 951.3 1235.2 924 1187.8 903.5C1198.7 879.8 1217.6 923.6 1218.4 889.4C1191.9 856 1225.6 835.1 1233.7 801.3C1238.1 802.5 1252.6 807.3 1251 798.5C1270.7 762.3 1232.5 749.8 1213.6 725.3C1244.6 697.6 1177.8 724.6 1239 685.6Z" fill="#2DD4BF" stroke="white" stroke-width="14.1732" stroke-miterlimit="10"/>
<path d="M479.5 1026.7C578.9 971.6 671.8 819.9 794.9 838.4C856.4 860.1 889.4 848.5 890.6 923.7C1010.1 990.9 948.9 980.8 993.2 1085C1053.9 1107.9 993.2 1125.6 984.3 1163.4C1060.3 1266 1071.6 1149.7 1028.5 1311.8C1045.4 1343.6 1089.2 1322.7 1084 1401.1C1084.8 1468.7 1078.4 1409.5 1027.3 1469.1C988.3 1482.8 1040.6 1516.2 1014.4 1539.5C954.9 1559.2 870.4 1547.6 804.4 1547.9C856.3 1471.5 798.4 1506.5 773.8 1457.8C759.3 1437.3 828.9 1404.3 754.5 1405.5C747.3 1391 730.4 1377.3 718.7 1395.4C661.2 1474.6 669.6 1296.8 603.3 1315.8C435.6 1382.6 596.1 1212 559.9 1176.2C543.8 1143.6 586.4 1144.8 543 1126.7C532.5 1112.6 505.6 1096.9 514.8 1076.8C517.3 1068.5 482.3 1033.5 479.5 1026.7Z" fill="#2DD4BF" stroke="white" stroke-width="14.1732" stroke-miterlimit="10"/>
<path d="M178.2 1211.3C209.2 1187.6 280.4 1175.5 313.8 1155.4C372.1 1131.3 481.5 963.1 515.3 1077C497.6 1115.2 586.5 1127.7 555.1 1156.2C554.3 1175.1 577.2 1188.8 570 1206.9C535.8 1227.4 542.6 1275.7 524.9 1307.5C536.2 1365.4 572.8 1295.4 574 1353.3C574.4 1383.5 557.5 1374.6 561.9 1391.1C516.4 1424.9 577.6 1469.9 555.1 1492.9C517.3 1514.6 444.5 1478 453.3 1515.8C456.1 1535.5 481.5 1552 491.1 1567.7C505.2 1591.8 516 1652.2 469 1632.5C389.8 1637.7 456.5 1680.4 410.3 1670.7C370.9 1655 349.6 1631.7 346.7 1585.4C273.5 1532.7 308.9 1558.5 272.7 1494.9C172.1 1470 193.1 1555.6 137.5 1432.6C99.7 1400.4 111 1367.8 145.1 1339.7C181.8 1297.4 122.3 1246.7 178.2 1211.3Z" fill="#2DD4BF" stroke="white" stroke-width="14.1732" stroke-miterlimit="10"/>
<path d="M2062 2662.6C2033 2682.7 1994 2617.9 1960.6 2653.4C1934.5 2673.5 1889.8 2710.1 1911.5 2746.7C1916.3 2755.6 1896.2 2797 1915.5 2800.6C1890.2 2833.6 1851.5 2876.2 1816.5 2893.1C1804 2856.5 1522.5 2930.5 1643.1 2858.9C1641.9 2844.8 1593.6 2866.5 1577.9 2819.5C1573.9 2801 1596.4 2804.2 1608.1 2801C1626.6 2793.8 1539.3 2779.3 1526 2788.1C1526.8 2743.9 1499.5 2689.2 1470.5 2661C1454.8 2665.8 1448.4 2640.9 1461.2 2633.3C1511.9 2601.5 1488.2 2595.1 1556.9 2579C1549.7 2554.9 1575.8 2557.3 1581.4 2529.9C1582.2 2506.2 1558.9 2485.2 1568.5 2460.7C1520.2 2439.8 1532.3 2389.9 1515 2356.5C1490.9 2347.3 1484.4 2323.1 1494.1 2300.2C1486.9 2256.8 1534.7 2264.4 1550.4 2274.9C1535.1 2295.8 1558.4 2310.3 1571.7 2323.6C1608.3 2320 1650.5 2324.8 1685.5 2338.9C1684.3 2348.6 1673.4 2375.5 1683.1 2383.1C1714.9 2392 1696.8 2420.5 1719.7 2429.4C1726.1 2431 1759.1 2428.6 1762.3 2436.6C1787.2 2531.9 1854.8 2399.2 1891.4 2380.7C1918.8 2339.7 1879.7 2351.3 1937.3 2348.1C1942.1 2363.8 1970.7 2322.8 1996 2330.8C2033.8 2299.4 2033 2305.1 2028.6 2351.7C2041.9 2385.1 2054.3 2357.3 2041.9 2414.5C2039.1 2449.1 2084.5 2527.5 2056.4 2559.3C2060.8 2593.4 2118.7 2626.8 2062 2662.6Z" fill="#2DD4BF" stroke="white" stroke-width="14.1732" stroke-miterlimit="10"/>
<path d="M3414.2 1476.1C3392.5 1487 3395.3 1516.3 3388.5 1534.4C3353.5 1541.2 3388.1 1552.9 3398.6 1563.4C3379.3 1584.7 3369.2 1582.3 3395.8 1588.7C3363.2 1642.6 3353.2 1638.2 3306.9 1608C3292 1627.7 3301.3 1666.7 3292.8 1687.7C3253.4 1721.1 3297.6 1717.9 3253.4 1746C3378.1 1846.2 3171.3 1810 3148 1869.9C3092.5 1876.7 3105.8 1972.9 3043.4 1990.6C3002 1989.8 3016.4 2042.9 2974.2 2040.1C2973 2011.5 2941.2 2005.5 2936.4 1981.4C2941.2 1960.5 2912.3 1908.2 2894.6 1931.9C2873.7 1928.7 2839.5 1913.4 2817.8 1914.6C2797.3 1971.7 2769.5 1903.7 2733.7 1940.7C2725.3 1960.8 2732.9 1971.3 2701.1 1967.2C2694.3 1964.8 2681 1944.7 2676.6 1939.4C2666.9 1933 2640.4 1927.3 2636.8 1914.5C2634 1888 2609.9 1844.1 2578.5 1857.8C2498 1910.1 2523 1762.9 2428.9 1804.7C2359.7 1840.1 2382.2 1852.6 2292.1 1837.7C2266 1790.2 2202 1772.5 2152.9 1762.9C2131.6 1720.7 2134.8 1766.1 2076.1 1732.7C2074.5 1703.3 2060.8 1671.2 2050 1644.6C2050.8 1620.5 2059.2 1611.6 2038.3 1591.5C2023 1568.2 1987.6 1557.7 1971.1 1537.2C1948.6 1470.8 1883.8 1375.1 1926.1 1316C1900.4 1293.5 1832.4 1266.1 1881.4 1229.1C1967.5 1230.3 1962.2 1122.9 1963.1 1062.6C1970.7 1050.9 1995.3 1053.3 1997.3 1036.9L2033.5 1028.9C2072.5 1075.6 2122.8 1044.2 2135.3 995.1C2214.1 971 2243.1 919.5 2313.9 1002.3C2381.5 1012.8 2437.4 900.5 2499.3 962.1C2539.9 975.4 2562.5 934.3 2608.7 952C2607.5 946 2653.7 925.9 2657 922.6L2704.5 875.9C2712.5 868.3 2724.6 826 2743.1 840.5C2761.2 857.8 2803.8 824.4 2800.2 803.1C2910.8 765.3 2996.1 917.7 3104.7 937C3305.2 1194.6 3464.5 1088.8 3414.2 1476.1Z" fill="#2DD4BF" stroke="white" stroke-width="14.1732" stroke-miterlimit="10"/>
<path d="M1373.3 2004.1C1370.1 1956.2 1424 1962.7 1453.3 1947C1489.5 1922.5 1449.3 1915.2 1518.1 1896.3C1534.6 1863.7 1481.1 1891.9 1492.8 1808.2C1512.1 1784.9 1509.3 1836.4 1546.7 1774.4C1570.8 1741.4 1524.2 1746.2 1533.8 1729.3C1546.7 1701.1 1488.7 1697.9 1489.9 1654.9C1508.8 1636.8 1546.2 1606.2 1538.6 1575.7C1562.3 1558 1586.5 1620.7 1601.3 1554.4C1595.7 1521.8 1607.7 1549.6 1609.4 1531.1C1712 1487.3 1602.2 1410.8 1691.5 1383.5C1633.2 1328 1714.8 1322 1710 1260.8C1750.6 1228.2 1816.2 1256.4 1864.1 1257.2C1860.1 1289.4 1937.7 1304.3 1920.4 1324.4C1896.7 1356.2 1953.4 1555.7 2005.3 1560.5C2030.2 1584.6 2064.8 1608 2051.6 1646.6C2064.1 1669.5 2068.5 1698.9 2078.2 1723.4C2075.4 1750.7 2008.2 1780.1 1993.7 1803.8C1998.5 1861.3 1895.6 1897.9 1927.3 1939.4C1937.4 1951.5 1919.7 1967.2 1906.8 1964.7C1794.2 1955.4 1984 2043.1 1902.8 2102.3C1887.9 2118.8 1855.3 2091 1866.2 2116C1856.5 2387.5 1745.5 2155.8 1752 2266.4C1756 2283.3 1779.4 2301.8 1761.3 2318.7C1744.8 2363.4 1760.9 2348.9 1711.8 2332C1679.6 2342.9 1636.6 2328 1605.2 2321.1C1575.8 2331.6 1533.2 2308.2 1552.9 2272.8C1543.7 2272 1532.8 2272 1523.9 2268.4C1472.8 2253.1 1511.4 2353.3 1480.9 2342.4C1463.6 2333.5 1439.9 2312.2 1423.8 2302.2C1331.7 2311.9 1336.9 2216.5 1377.5 2163C1398.3 2129.2 1377.3 2039.9 1373.3 2004.1Z" fill="#2DD4BF" stroke="white" stroke-width="14.1732" stroke-miterlimit="10"/>
</svg>
