<svg width="4877" height="3027" viewBox="0 0 4877 3027" fill="none" xmlns="http://www.w3.org/2000/svg">
<path d="M708.4 971.7C748.2 942.3 802.1 899.7 821.8 853C826.6 842.1 846.3 849.4 855.2 842.1C863.6 839.3 879.7 823.2 885 836.1C908.7 745.6 934.9 915.7 1026.2 781.4C1035.9 775.8 1050.3 769.7 1041.1 756.5C1065.6 765.8 1164.6 728.7 1119.5 705.4C1116.3 703 1105 694.9 1111.9 691.3C1141.3 697.3 1168.2 678 1194 669.6C1204.1 670.8 1266.8 664.8 1275.3 661.2C1293 624.2 1294.2 673.3 1263.2 695C1252.7 731.2 1211.3 749.3 1255.6 774.2C1272.5 786.7 1258.4 810 1239.9 810C1178.8 849 1245.5 822.5 1215 850.2C1238.3 869.9 1288.6 922.2 1235.1 926.2C1232.7 957.2 1192.1 973.3 1215.8 1003.4C1222.6 1017.1 1220.6 1038 1202.9 1021.1C1165.5 1024.7 1229.5 1043.6 1211.8 1063.3C1185.3 1085 1183.6 1120.8 1143.4 1129.3C1142.2 1145.4 1145.8 1139.4 1132.1 1153.8C1138.5 1170.3 1122.4 1188 1128.1 1201.7C1153.4 1192 1125.3 1235.5 1137.8 1241.9C1159.5 1232.6 1190.1 1239.1 1196.9 1264C1208.6 1262.8 1218.6 1269.6 1230.3 1269.6C1234.7 1274.8 1233.5 1284.1 1243.2 1282.9C1297.5 1280.1 1272.6 1348.1 1280.2 1380.2C1289.9 1427.7 1249.2 1449.8 1213.4 1469.1C1174.4 1468.7 1110.8 1597.8 1085.1 1525.8C1093.1 1417.6 978.1 1490.4 1059.8 1348.4C1057.8 1342 1049.7 1340.3 1045.7 1335.5C910.1 1291.3 1057.8 1246.6 1010.3 1220.9C967.3 1202.8 979.3 1126.4 968.9 1092.2C919.4 1073.7 878 1062.8 886.4 1000.1C845.2 967.2 758.3 944.3 708.4 971.7Z" fill="#2DD4BF" stroke="white" stroke-width="14.1732" stroke-miterlimit="10"/>
<path d="M1800.7 497.4C1819.1 539.8 1749.4 528.8 1723.5 554.9C1651.6 524.3 1765.4 498.9 1800.7 497.4Z" fill="#2DD4BF" stroke="white" stroke-width="14.1732" stroke-miterlimit="10"/>
<path d="M2047.8 348.2C2069.7 252.1 2391.7 179.5 2414.9 218.1C2300 215.7 2208.9 291.3 2100.8 321.9C2086.5 330.9 2053.3 382.4 2047.8 348.2Z" fill="#2DD4BF" stroke="white" stroke-width="14.1732" stroke-miterlimit="10"/>
<path d="M2678.8 180.7C2715.9 85.3001 2805.9 158.1 2739.8 160.1C2728.7 196.5 2674.5 209.7 2646.5 236.4C2640.7 219 2662 187.2 2678.8 180.7Z" fill="#2DD4BF" stroke="white" stroke-width="14.1732" stroke-miterlimit="10"/>
<path d="M1110.2 2285.8C1100.1 2285 1070.4 2302.3 1061.1 2306.3C1047.4 2270.5 1013.2 2240.7 995.9 2206.9C954.9 2201.3 880.5 2234.6 909 2163.9C908.2 2153 886.5 2137.8 893.7 2129.3C920.2 2101.9 972.9 2065.8 990.2 2031.2C1007.5 2010.7 1033.6 1989 1062.2 1994.6C1077.9 1966.9 1056.6 1972.9 1092.4 1954.4C1121.8 1925 1095.6 1888 1113.7 1885.2C1138.6 1899.3 1168 1865.1 1186.9 1853.4C1212.6 1891.2 1267.8 1899.3 1309.6 1912.9C1340.6 1901.2 1347.4 1886.3 1359.9 1928.2C1359.5 1947.9 1369.6 1967.2 1350.2 1981.3C1306 1992.2 1259.7 2012.3 1212.2 2010.7C1202.1 2011.1 1208.2 2028 1208.2 2033.6C1273 2058.1 1229.9 2063 1243.2 2083.9C1278.2 2093.6 1322 2114.9 1314.4 2157.9C1411.7 2051.7 1397.3 2299.1 1347.8 2332.1C1313.6 2333.3 1320.9 2310 1267.8 2322.9C1241.7 2308.8 1228.8 2290.3 1214.3 2266.6C1187.4 2265 1191.8 2298.4 1158 2284.7C1128.3 2283 1147.2 2307.5 1110.2 2285.8Z" fill="#2DD4BF" stroke="white" stroke-width="14.1732" stroke-miterlimit="10"/>
<path d="M1216 2676C1249.4 2665.5 1335.1 2622.1 1269.9 2590.3C1213.6 2612.4 1249.4 2529.2 1260.7 2507C1252.3 2453.5 1288.4 2433 1278 2409.2C1299.7 2331.6 1323 2367.8 1268.7 2323.5C1288 2319.5 1317.4 2316.7 1331.9 2332.8C1375.3 2328.8 1313.4 2397.2 1384.6 2422.5C1422.8 2421.7 1449.8 2445 1479.9 2465.9C1507.3 2463.5 1532.6 2492.8 1522.5 2522.6C1541.8 2574.5 1598.9 2613.1 1573.6 2674.6C1545 2702.8 1555.9 2660.1 1518.1 2673.8C1497.6 2655.7 1475.1 2685.1 1485.1 2707.6C1478.3 2715.7 1417.9 2723.7 1418.7 2708.4C1422.3 2706.8 1432.8 2711.6 1430 2703.6C1382.9 2679.1 1356.4 2728.5 1380.9 2675.9C1350.3 2674.3 1391.8 2601.1 1345.9 2639.3C1334.2 2645.3 1342.7 2662.6 1345.5 2671.1C1336.3 2696.8 1304.9 2720.2 1276.7 2711.3C1268.3 2700.8 1238.9 2700.8 1242.5 2683.9C1235.7 2679.6 1223.3 2680.4 1216 2676ZM1373.3 2769.3C1385.4 2793.4 1351.2 2811.9 1332.7 2796.7C1330.3 2763.7 1332.3 2769.3 1373.3 2769.3ZM1368.1 2706.1C1377.3 2713.7 1407.5 2694.4 1408.3 2708.5C1376.5 2716.9 1421.2 2741.9 1392.2 2758C1377.3 2750.4 1330.3 2747.1 1341.5 2722.2C1347.2 2713.4 1355.2 2696.5 1368.1 2706.1Z" fill="#2DD4BF" stroke="white" stroke-width="14.1732" stroke-miterlimit="10"/>
<path d="M22.6 1866.7C-0.700015 1867.1 6.49998 1817.6 23.4 1811.2C54.8 1801.1 77.3 1760.9 101 1738C124.3 1718.3 165 1764.6 171 1717.9C173.8 1705 164.6 1669.6 171 1658C180.7 1651.6 183.9 1637.1 178.6 1627C209.2 1616.5 266.3 1599.6 284.8 1635.9C280.4 1684.2 363.6 1693.8 351.6 1741.7C359.6 1771.1 401.5 1800.8 430.4 1793.2C413.9 1760.6 462.6 1752.6 484.7 1759.4C544.2 1743.7 494.4 1824.2 490.3 1847.1C471 1873.2 404.2 1841.5 440.8 1888.5C403 1895.7 409.4 1866 390.1 1873.2C395.3 1931.9 287.5 1919.9 315.7 1983.4C316.9 1995.1 317.7 2019.6 316.5 2030.9C308.1 1994.7 269 1979.8 267.4 1939.6C248.9 1924.7 211.1 1942.4 223.2 1906.2C212.3 1856.7 188.2 1894.9 172.9 1917.1C123.9 1901.3 74 1873.1 22.6 1866.7Z" fill="#2DD4BF" stroke="white" stroke-width="14.1732" stroke-miterlimit="10"/>
<path d="M685.5 2318.8C700.8 2303.5 685.5 2282.2 681.1 2265.7C682.3 2252 690.4 2236.3 681.1 2223.9C712.1 2182.5 797.8 2168.8 814.6 2118.9C833.1 2104 814.2 2067.8 816.6 2047.7C827.1 2008.3 784.4 2018.3 761.9 2009.9C717.3 1987.8 768.3 1991.4 743.4 1917.8C714.4 1900.9 671.4 1874.8 684.3 1831.3C760.7 1799.5 790.9 1839.7 821.5 1737.2C803.8 1628.2 781.3 1694.6 945.8 1668.4C968.3 1674 996.1 1680.9 1014.6 1663.6C1023 1684.9 1051.2 1684.5 1069.7 1690.5C1117.6 1705.8 1099.1 1750.8 1144.1 1768.1C1153 1772.5 1153 1782.6 1151.3 1791.4C1163 1803.9 1193.1 1832.4 1190.7 1850.9C1162.9 1877 1140 1888.3 1107.8 1890.3C1108.2 1916.9 1108.6 1955.1 1075.6 1963.5C1061.9 1990.4 1068 1999.3 1029.3 1996.1C983 2036.7 939.2 2093.4 891.3 2131.7C906.6 2153.8 911 2182.4 901 2206.1C878.1 2197.3 875.3 2225.4 890.5 2235.9C893.7 2260 872 2241.1 861.9 2258.8C855.5 2277.7 839.4 2276.9 823.7 2281.7C819.3 2296.2 812 2288.1 800.8 2286.5C787.1 2283.7 798.8 2305.8 785.9 2301.4C752.6 2282.6 718.4 2320.8 685.5 2318.8Z" fill="#2DD4BF" stroke="white" stroke-width="14.1732" stroke-miterlimit="10"/>
<path d="M4873.3 1395.6C4860 1392 4724.5 1425.4 4761.9 1390.8C4724.9 1384 4706.4 1398 4680.2 1375.9C4662.9 1353.8 4665.3 1408.5 4616.6 1407.3C4600.9 1399.7 4600.9 1377.1 4577.6 1384C4572.4 1387.2 4578.4 1392.9 4580.4 1396.1C4574.4 1400.9 4574.8 1411.8 4574.4 1418.6C4569.2 1415 4567.6 1408.9 4562.3 1415C4558.3 1432.3 4572.4 1438.3 4547.8 1429.9C4562.3 1444.4 4529.7 1448 4522.5 1460.1C4480.7 1466.5 4516.5 1514.4 4467.8 1483.8C4384.1 1479 4437.2 1516.8 4419.1 1524C4416.7 1511.5 4402.6 1511.9 4392.6 1513.1C4408.7 1550.9 4298.9 1515.1 4350 1552.1C4320.2 1545.7 4303.3 1583.1 4280.8 1562.6C4294.1 1589.5 4262.7 1555.8 4253.9 1552.1C4252.3 1560.2 4246.3 1577.8 4253.9 1584.7L4176.7 1588.7C4158.2 1587.5 4167.8 1586.7 4157.8 1578.6C4149.8 1578.2 4134.5 1582.2 4131.7 1571.4C4121.6 1564.2 4109.2 1554.1 4099.5 1567.8C4127.3 1625.3 4141.3 1595.2 4052.4 1624.9C3939.4 1532 4025.5 1633.8 3970.3 1662.7C3903.9 1652.2 3940.5 1662.7 3911.6 1623.7C3892.7 1663.5 3852.1 1704.2 3806.2 1697.7C3785.3 1672 3769.6 1708.6 3783.3 1668.3C3772.4 1665.9 3718.9 1669.1 3708.9 1662.7C3693.2 1654.6 3664.7 1640.2 3649.4 1656.7C3638.1 1634.2 3617.2 1584.7 3596.7 1582.3C3622.8 1528.4 3523.1 1528.4 3489.7 1542.1C3320.8 1838.2 3456.3 651.9 3414.9 594C3492.5 629.4 3602 658 3678.4 693.4C3650.2 726 3663.1 787.9 3714.6 763.4C3718.2 757 3713.8 734.4 3727.1 740.1C3736 767.9 3763.3 754.2 3784.2 759C3823.6 763.8 3810.3 768.3 3841.7 750.2C3799.5 727.3 3721.4 741.8 3694.1 695.5C3769.7 712 3871.9 730.9 3949.1 732.1C4105.6 821.4 4223.8 1008 4400.4 1061.5C4411.7 1074 4404.4 1081.6 4389.5 1081.2C4368.6 1075.2 4346.9 1047.4 4324.3 1044.6C4317.5 1024.9 4239.4 1035.8 4269.6 1014C4253.1 986.2 4240.6 977.4 4212.9 973C4173.9 934.4 4165.8 987.5 4146.9 977C4113.1 966.1 4131.6 972.2 4141.3 950C4083 932.3 4132.4 982.2 4132.4 999.9C4116.3 1012.4 4107.5 940 4084.5 946C4060.4 953.6 4053.1 952.4 4029 947.6C4034.6 986.6 4062.8 964.5 4051.9 993.1C4051.9 998.3 4046.7 1004.4 4055.5 1002.8C4091.3 942.5 4088.5 952.1 4118.3 1010.4C4130 1037.4 4109.4 1028.1 4097.8 1045.4C4104.6 1079.2 4131.2 1113 4167 1117C4179.5 1112.2 4169 1093.7 4167 1085.6C4177.5 1092.8 4189.1 1104.5 4190.3 1117.4C4166.2 1166.1 4248.2 1131.1 4247.8 1146.8C4189.1 1154.8 4274.4 1217.6 4304.1 1190.2C4356.8 1174.1 4317 1162 4290.4 1146.8C4280.3 1136.3 4280.7 1128.3 4263.4 1129.5C4230.8 1124.3 4123.4 1070.8 4199 1052.3C4218.7 1062.8 4281.1 1080.1 4284.3 1108.2C4305.6 1127.1 4342.6 1121.9 4354.3 1152.4C4343 1160.8 4326.9 1168.9 4351.1 1171.3C4396.2 1133.1 4356.3 1234.1 4387.7 1229.6C4394.9 1225.2 4386.9 1210.3 4397.4 1213.1C4409.5 1255.3 4415.9 1178.1 4480.3 1186.1C4477.9 1133.4 4515.7 1164 4549.9 1166.4C4556.7 1164.4 4571.2 1161.6 4558.3 1173.6C4564.3 1188.1 4569.2 1221.1 4549.9 1227.9C4529 1221.9 4548.3 1201.4 4512.5 1201.8C4502 1208.6 4470.3 1267.4 4504.1 1246.4C4497.7 1239.6 4498.1 1222.3 4509.7 1224.3C4509.7 1271.8 4534.6 1274.2 4557.6 1236C4577.3 1221.1 4620.4 1227.2 4582.5 1194.6C4575.3 1177.7 4572 1137.1 4546.7 1157.6C4533 1149.2 4513.7 1134.3 4498.4 1147.1C4491.2 1142.7 4496.4 1136.6 4498.4 1130.6C4490.4 1131 4459.8 1119.7 4452.1 1116.5C4306.1 1001.1 4615.4 1174 4656 1178.4C4761 1257.3 4689.4 1354.6 4873.3 1395.6Z" fill="#2DD4BF" stroke="white" stroke-width="14.1732" stroke-miterlimit="10"/>
<path d="M2975.1 2165.5C2938.9 2169.5 2951.8 2193.2 2909.1 2199.7C2915.9 2219.4 2887.8 2208.1 2878.9 2225.4C2867.2 2236.3 2850.7 2222.2 2843.1 2231.8C2849.1 2252.3 2812.9 2294.5 2845.9 2299.8C2855.2 2312.7 2846.7 2332.4 2835 2341.2C2825.7 2332.8 2821.3 2325.9 2806.8 2327.5C2769 2335.6 2757.7 2302.6 2742 2276.4C2727.9 2267.2 2714.6 2268.4 2699.8 2274C2676.5 2261.1 2638.7 2215.7 2611.7 2202.8C2608.1 2147.7 2647.9 2145.3 2547.7 2169.8C2528.4 2186.3 2528.8 2214.8 2498.6 2220.9C2472.9 2253.9 2425 2309 2400 2343.2C2396 2368.9 2384.7 2397.5 2354.1 2398.7C2283.3 2408.8 2314.3 2379 2237 2389C2207.6 2362.1 2150.9 2383.8 2116.7 2388.6C2080.9 2378.9 2025.8 2386.2 2031.4 2434.5C1989.2 2452.2 1952.2 2484.4 1905.9 2472.3C1907.1 2519.4 1846.4 2521.8 1840.7 2560.4C1819.8 2591.4 1769.9 2618.3 1763.5 2561.6C1726.9 2545.5 1714 2568.8 1699.5 2518.6C1669.7 2496.5 1680.2 2498.1 1686.6 2463.9C1725.2 2439.4 1749.8 2502.5 1760.6 2442.6C1783.1 2417.3 1736.5 2399.2 1753.8 2358.5C1763.1 2339.2 1786.8 2383.4 1813.7 2380.2C1868.4 2370.9 1855.9 2280 1865.2 2239.8C1849.5 2206.8 1918.7 2273.2 1921.9 2168.2C1897.8 2123.1 1812.1 2081.3 1921.9 2086.1C1929.5 2073.6 1934.4 2061.6 1915.5 2058.7C1919.9 2031.8 1948.9 1997.2 1972.2 1980.7C1987.1 1929.2 2030.9 1887 2076.8 1858C2133.9 1884.9 2107.4 1864.8 2142 1870.9C2162.1 1897.4 2149.2 1890.2 2182.2 1893.4C2223.2 1905.1 2271.5 1924.8 2292.8 1963C2387.3 2002.4 2467.4 1845.1 2523.3 1983.1C2559.5 1997.6 2560.7 2001.2 2588.9 1979.9C2623.9 1981.9 2631.5 2019.7 2641.6 2045.9C2672.6 2051.5 2700.3 2115.5 2729.7 2084.9C2732.5 2043.9 2772.3 2053.9 2797.7 2066.4C2828.3 2020.9 2841.1 2049.5 2897.9 2056.3C2918.4 2033.4 2942.6 2094.5 2938.9 2114.6C2954.9 2139 2965 2125.7 2975.1 2165.5Z" fill="#2DD4BF" stroke="white" stroke-width="14.1732" stroke-miterlimit="10"/>
<path d="M2292.4 752.8C2350.7 801.1 2430.4 722.6 2472.6 685.2C2511.6 659.1 2604.9 669.9 2648 660.7C2706.3 628.9 2745.3 574.6 2648 572.6C2550.2 538.4 2913.1 579 2878.5 634.9C2898.2 613.2 2902.2 628.5 2923.1 645.8C3082.8 722.2 3211.9 697.3 3355.1 593.5L3414.2 592.3C3381.2 572.2 3480.2 1536 3367.5 1281.7C3244.4 1185.6 3241.2 1262 3132.6 1084.2C3118.5 1063.3 3042.5 1037.5 3019.6 1028.7C2987.4 998.5 2917.8 941 2876.8 925.3C2859.1 916 2847.8 935.4 2832.1 926.5C2807.6 906 2803.5 934.1 2793.1 948.6C2774.2 967.5 2756.5 976.8 2732.8 962.7C2713.9 982.4 2681.7 1029.9 2657.2 1047.6C2636.3 1056 2605.7 1085 2584.4 1071.7C2537.7 1088.6 2493.9 1096.2 2452.1 1061.2C2443.7 1047.5 2457.7 951 2436.4 973.1C2394.2 942.9 2338.3 969.9 2305.3 921.2C2348.7 897.1 2359.6 902.7 2348.3 846C2311.7 838 2329.8 829.5 2308.1 807.8C2287.2 794.7 2281.6 768.9 2292.4 752.8Z" fill="#2DD4BF" stroke="white" stroke-width="14.1732" stroke-miterlimit="10"/>
<path d="M1014.5 1663.5C1037 1641.8 1004.4 1623.7 1014.5 1600.8C1026.2 1594.8 1046.7 1576.3 1055.1 1565.4C1089.7 1564.2 1082.8 1552.5 1083.7 1524.8C1091.7 1581.9 1142 1516 1163.3 1507.1C1191.9 1453.2 1293.2 1457.6 1278.7 1379.2C1307.7 1379.2 1367.6 1380.8 1394.5 1371.2C1437.9 1303.6 1455.2 1399.4 1491 1415C1498.2 1436.7 1491.8 1472.9 1526.4 1466.1C1553.8 1445.6 1586.3 1431.5 1616.9 1457.3C1643 1454.5 1639.4 1453.3 1661.6 1475C1677.3 1479.4 1702.2 1505.2 1678.1 1515.6C1670.5 1517.2 1657.2 1514.8 1654.8 1524.5C1652 1570 1671.3 1638.3 1609.8 1651.6C1608.2 1657.6 1608.6 1666.5 1600.9 1658.4C1603.3 1679.3 1589.6 1730 1563.9 1699.4C1555.5 1702.6 1542.6 1686.5 1538.6 1698.6C1540.2 1767 1439.2 1775.4 1534.6 1837.8C1530.6 1867.6 1539.4 1858.7 1555.1 1880.4C1543 1907.8 1526.9 1935.9 1495.2 1926.7C1464.2 2005.9 1578.9 1999.1 1476.7 2036.9C1467.4 2076.3 1430 2079.9 1396.7 2086C1361.7 2141.5 1356.1 2117.4 1315.4 2158C1323 2108.5 1275.6 2097.7 1241.4 2081.2C1240.6 2063.5 1255.1 2061.5 1236.2 2045.4L1209.3 2034.1C1209.3 2027.7 1202.5 2010.4 1214.5 2011.2C1234.6 2010.4 1264.8 2006.4 1285.7 2003.2C1302.2 2000.4 1315.5 1983.1 1331.6 1987.5C1378.3 1983.1 1363.8 1931.6 1348.9 1901.8C1303.4 1922.3 1252.4 1894.2 1206.5 1877.3C1174.3 1846.7 1202.1 1858.4 1185.6 1832.6C1177.1 1816.5 1146.2 1796 1151.8 1776.3C1133.3 1757.8 1112 1762.6 1110.8 1728C1097 1682.4 1035.4 1698.1 1014.5 1663.5Z" fill="#2DD4BF" stroke="white" stroke-width="14.1732" stroke-miterlimit="10"/>
<path d="M534.2 2189.7C537 2171.6 517.3 2165.2 502.8 2165.2C473 2154.3 521.3 2086.4 466.6 2118.9C382.9 2137 419.1 2002.2 326.2 2050.1C306.9 2037.2 321 2002.2 315.3 1982.5C301.6 1948.3 317.3 1955.1 335 1925.8C417.5 1905.7 369.6 1870.3 399.8 1871.1C407.8 1886 424.7 1890.4 440.4 1888C431.1 1882.8 423.5 1848.2 440.4 1859.4C458.5 1864.2 493.1 1857 494.7 1834.1C523.3 1756.5 511.6 1710.2 462.1 1660.7C412.6 1576.2 582.8 1665.9 558.6 1592.3C517.6 1540.4 590 1505.8 570.3 1451.9C654 1401.2 648.7 1519.9 699 1543.2C744.9 1488.1 732 1522.7 791.9 1539.2C722.7 1630.9 877.2 1581 804.8 1672.3C814.1 1680.7 818.5 1726.2 821.3 1737.9C796.8 1875.5 664.4 1767.3 686.9 1871.8C717.9 1921.7 726.7 1896.3 743.2 1918.5C758.9 2032.3 719.5 1992.1 816.8 2025.9C846.6 2169.9 761.7 2143 686.5 2223.4C672.2 2202.9 561.2 2182.8 534.2 2189.7Z" fill="#2DD4BF" stroke="white" stroke-width="14.1732" stroke-miterlimit="10"/>
<path d="M1285.2 647.4C1312.6 638.6 1339.5 675.2 1364.8 674.4C1348.3 654.3 1376.5 646.6 1391.7 635.8C1387.7 645.5 1361.1 666.8 1378 674.4C1406.2 696.9 1466.9 782.6 1508.3 747.2C1515.9 727.1 1529.2 728.7 1547.7 730.3C1560.6 713.4 1555.7 705 1583.5 704.6C1724.3 727.1 1899.3 826.5 2031.6 740C2090.3 790.3 2304.3 684.1 2288.6 785.9C2305.5 803.2 2317.2 836.2 2339.7 844.2C2370.7 877.6 2344.9 906.1 2304.7 921.4C2248 902.9 2186 919.4 2127.7 905.3C2085.9 917 2047.2 954 2001.4 947.5C1943.1 928.6 1933.8 948.3 1874.7 946.7C1862.2 943.9 1838.9 968 1830.9 974.9C1808 1001 1711.8 1050.9 1678.4 1047.7C1641 1043.7 1591.9 1013.1 1559.7 1036.4C1502.2 1037.2 1530.3 953.1 1486.1 957.6C1456.7 978.1 1412.1 982.1 1376.7 985.4C1291.4 934.7 1358.2 861.9 1237.9 810C1295 793.1 1231.5 769.4 1232.3 742.8C1246.4 726.7 1258.8 707 1266.1 687.3C1283.6 673.6 1291.2 670 1285.2 647.4Z" fill="#2DD4BF" stroke="white" stroke-width="14.1732" stroke-miterlimit="10"/>
<path d="M1239 809.6C1300.5 840.6 1326.7 878 1334.3 945.2C1366.5 1004.3 1439.3 983.8 1486.8 957.3C1522.2 948.5 1507.7 995.9 1522.6 1013.2C1545.1 1056.2 1580.5 1011.2 1607.9 1033.3C1692 1062.7 1737.4 1031.7 1811 995.5C1846.4 939.2 1910.4 950 1965.9 932.7C1978.8 959.2 2019.4 947.2 2042.7 943.6C2089.4 927.5 2126 888.1 2178.3 914.2C2233.4 917 2301 895.7 2337.2 951.2C2357.7 965.7 2404.4 944.4 2423.7 967.3C2427.7 968.5 2434.2 974.1 2437.4 972.1C2459.5 957.2 2443.8 1020.8 2445.8 1029.2C2466.7 1061 2432.5 1078.7 2407.2 1089.9C2250.7 1201.7 2335.2 1006.2 2135.7 1119.7C2093.9 1228.7 2065.7 1141.8 1997.3 1161.5C1990.9 1185.2 1958.7 1170.3 1960.3 1204.5C1969.6 1256.4 1959.9 1317.1 1914.8 1348.5C1883.8 1359.8 1878.6 1343.3 1862.9 1379.5C1831.5 1371.1 1790.9 1377.1 1759.9 1366.6C1745.8 1368.6 1704.4 1369 1709.2 1391.5C1709.6 1424.5 1674.2 1445.4 1661.3 1474.8C1644 1454.7 1638 1454.3 1616.7 1457.1C1570.8 1412.9 1539.5 1483.2 1500.4 1459.5C1498.4 1396.8 1470.2 1420.9 1457.8 1373.8C1436.9 1339.2 1416.8 1337.6 1394.6 1371C1354 1377 1251.4 1403.2 1277.5 1331.6C1292 1313.1 1259.8 1272.5 1237.7 1281.3C1223.6 1255.1 1198.3 1274.5 1190.6 1251.9C1178.1 1235.4 1154.4 1233 1136.3 1240.6C1126.2 1236.6 1141.9 1208.8 1136.3 1199.2C1129.9 1196.8 1127 1205.2 1123.4 1194.8C1138.7 1141.3 1131.4 1137.3 1179.7 1104.7C1194.6 1075.3 1235.2 1048 1187.8 1027.5C1198.7 1003.8 1217.6 1047.6 1218.4 1013.4C1191.9 980 1225.6 959.1 1233.7 925.3C1238.1 926.5 1252.6 931.3 1251 922.5C1270.7 886.3 1232.5 873.8 1213.6 849.3C1244.6 821.6 1177.8 848.6 1239 809.6Z" fill="#2DD4BF" stroke="white" stroke-width="14.1732" stroke-miterlimit="10"/>
<path d="M479.5 1150.7C578.9 1095.6 671.8 943.9 794.9 962.4C856.4 984.1 889.4 972.5 890.6 1047.7C1010.1 1114.9 948.9 1104.8 993.2 1209C1053.9 1231.9 993.2 1249.6 984.3 1287.4C1060.3 1390 1071.6 1273.7 1028.5 1435.8C1045.4 1467.6 1089.2 1446.7 1084 1525.1C1084.8 1592.7 1078.4 1533.5 1027.3 1593.1C988.3 1606.8 1040.6 1640.2 1014.4 1663.5C954.9 1683.2 870.4 1671.6 804.4 1671.9C856.3 1595.5 798.4 1630.5 773.8 1581.8C759.3 1561.3 828.9 1528.3 754.5 1529.5C747.3 1515 730.4 1501.3 718.7 1519.4C661.2 1598.6 669.6 1420.8 603.3 1439.8C435.6 1506.6 596.1 1336 559.9 1300.2C543.8 1267.6 586.4 1268.8 543 1250.7C532.5 1236.6 505.6 1220.9 514.8 1200.8C517.3 1192.5 482.3 1157.5 479.5 1150.7Z" fill="#2DD4BF" stroke="white" stroke-width="14.1732" stroke-miterlimit="10"/>
<path d="M178.2 1335.3C209.2 1311.6 280.4 1299.5 313.8 1279.4C372.1 1255.3 481.5 1087.1 515.3 1201C497.6 1239.2 586.5 1251.7 555.1 1280.2C554.3 1299.1 577.2 1312.8 570 1330.9C535.8 1351.4 542.6 1399.7 524.9 1431.5C536.2 1489.4 572.8 1419.4 574 1477.3C574.4 1507.5 557.5 1498.6 561.9 1515.1C516.4 1548.9 577.6 1593.9 555.1 1616.9C517.3 1638.6 444.5 1602 453.3 1639.8C456.1 1659.5 481.5 1676 491.1 1691.7C505.2 1715.8 516 1776.2 469 1756.5C389.8 1761.7 456.5 1804.4 410.3 1794.7C370.9 1779 349.6 1755.7 346.7 1709.4C273.5 1656.7 308.9 1682.5 272.7 1618.9C172.1 1594 193.1 1679.6 137.5 1556.6C99.7 1524.4 111 1491.8 145.1 1463.7C181.8 1421.4 122.3 1370.7 178.2 1335.3Z" fill="#2DD4BF" stroke="white" stroke-width="14.1732" stroke-miterlimit="10"/>
<path d="M2062 2786.6C2033 2806.7 1994 2741.9 1960.6 2777.4C1934.5 2797.5 1889.8 2834.1 1911.5 2870.7C1916.3 2879.6 1896.2 2921 1915.5 2924.6C1890.2 2957.6 1851.5 3000.2 1816.5 3017.1C1804 2980.5 1522.5 3054.5 1643.1 2982.9C1641.9 2968.8 1593.6 2990.5 1577.9 2943.5C1573.9 2925 1596.4 2928.2 1608.1 2925C1626.6 2917.8 1539.3 2903.3 1526 2912.1C1526.8 2867.9 1499.5 2813.2 1470.5 2785C1454.8 2789.8 1448.4 2764.9 1461.2 2757.3C1511.9 2725.5 1488.2 2719.1 1556.9 2703C1549.7 2678.9 1575.8 2681.3 1581.4 2653.9C1582.2 2630.2 1558.9 2609.2 1568.5 2584.7C1520.2 2563.8 1532.3 2513.9 1515 2480.5C1490.9 2471.3 1484.4 2447.1 1494.1 2424.2C1486.9 2380.8 1534.7 2388.4 1550.4 2398.9C1535.1 2419.8 1558.4 2434.3 1571.7 2447.6C1608.3 2444 1650.5 2448.8 1685.5 2462.9C1684.3 2472.6 1673.4 2499.5 1683.1 2507.1C1714.9 2516 1696.8 2544.5 1719.7 2553.4C1726.1 2555 1759.1 2552.6 1762.3 2560.6C1787.2 2655.9 1854.8 2523.2 1891.4 2504.7C1918.8 2463.7 1879.7 2475.3 1937.3 2472.1C1942.1 2487.8 1970.7 2446.8 1996 2454.8C2033.8 2423.4 2033 2429.1 2028.6 2475.7C2041.9 2509.1 2054.3 2481.3 2041.9 2538.5C2039.1 2573.1 2084.5 2651.5 2056.4 2683.3C2060.8 2717.4 2118.7 2750.8 2062 2786.6Z" fill="#2DD4BF" stroke="white" stroke-width="14.1732" stroke-miterlimit="10"/>
<path d="M3414.2 1600.1C3392.5 1611 3395.3 1640.3 3388.5 1658.4C3353.5 1665.2 3388.1 1676.9 3398.6 1687.4C3379.3 1708.7 3369.2 1706.3 3395.8 1712.7C3363.2 1766.6 3353.2 1762.2 3306.9 1732C3292 1751.7 3301.3 1790.7 3292.8 1811.7C3253.4 1845.1 3297.6 1841.9 3253.4 1870C3378.1 1970.2 3171.3 1934 3148 1993.9C3092.5 2000.7 3105.8 2096.9 3043.4 2114.6C3002 2113.8 3016.4 2166.9 2974.2 2164.1C2973 2135.5 2941.2 2129.5 2936.4 2105.4C2941.2 2084.5 2912.3 2032.2 2894.6 2055.9C2873.7 2052.7 2839.5 2037.4 2817.8 2038.6C2797.3 2095.7 2769.5 2027.7 2733.7 2064.7C2725.3 2084.8 2732.9 2095.3 2701.1 2091.2C2694.3 2088.8 2681 2068.7 2676.6 2063.4C2666.9 2057 2640.4 2051.3 2636.8 2038.5C2634 2012 2609.9 1968.1 2578.5 1981.8C2498 2034.1 2523 1886.9 2428.9 1928.7C2359.7 1964.1 2382.2 1976.6 2292.1 1961.7C2266 1914.2 2202 1896.5 2152.9 1886.9C2131.6 1844.7 2134.8 1890.1 2076.1 1856.7C2074.5 1827.3 2060.8 1795.2 2050 1768.6C2050.8 1744.5 2059.2 1735.6 2038.3 1715.5C2023 1692.2 1987.6 1681.7 1971.1 1661.2C1948.6 1594.8 1883.8 1499.1 1926.1 1440C1900.4 1417.5 1832.4 1390.1 1881.4 1353.1C1967.5 1354.3 1962.2 1246.9 1963.1 1186.6C1970.7 1174.9 1995.3 1177.3 1997.3 1160.9L2033.5 1152.9C2072.5 1199.6 2122.8 1168.2 2135.3 1119.1C2214.1 1095 2243.1 1043.5 2313.9 1126.3C2381.5 1136.8 2437.4 1024.5 2499.3 1086.1C2539.9 1099.4 2562.5 1058.3 2608.7 1076C2607.5 1070 2653.7 1049.9 2657 1046.6L2704.5 999.9C2712.5 992.3 2724.6 950 2743.1 964.5C2761.2 981.8 2803.8 948.4 2800.2 927.1C2910.8 889.3 2996.1 1041.7 3104.7 1061C3305.2 1318.6 3464.5 1212.8 3414.2 1600.1Z" fill="#2DD4BF" stroke="white" stroke-width="14.1732" stroke-miterlimit="10"/>
<path d="M1373.3 2128.1C1370.1 2080.2 1424 2086.7 1453.3 2071C1489.5 2046.5 1449.3 2039.2 1518.1 2020.3C1534.6 1987.7 1481.1 2015.9 1492.8 1932.2C1512.1 1908.9 1509.3 1960.4 1546.7 1898.4C1570.8 1865.4 1524.2 1870.2 1533.8 1853.3C1546.7 1825.1 1488.7 1821.9 1489.9 1778.9C1508.8 1760.8 1546.2 1730.2 1538.6 1699.7C1562.3 1682 1586.5 1744.7 1601.3 1678.4C1595.7 1645.8 1607.7 1673.6 1609.4 1655.1C1712 1611.3 1602.2 1534.8 1691.5 1507.5C1633.2 1452 1714.8 1446 1710 1384.8C1750.6 1352.2 1816.2 1380.4 1864.1 1381.2C1860.1 1413.4 1937.7 1428.3 1920.4 1448.4C1896.7 1480.2 1953.4 1679.7 2005.3 1684.5C2030.2 1708.6 2064.8 1732 2051.6 1770.6C2064.1 1793.5 2068.5 1822.9 2078.2 1847.4C2075.4 1874.7 2008.2 1904.1 1993.7 1927.8C1998.5 1985.3 1895.6 2021.9 1927.3 2063.4C1937.4 2075.5 1919.7 2091.2 1906.8 2088.7C1794.2 2079.4 1984 2167.1 1902.8 2226.3C1887.9 2242.8 1855.3 2215 1866.2 2240C1856.5 2511.5 1745.5 2279.8 1752 2390.4C1756 2407.3 1779.4 2425.8 1761.3 2442.7C1744.8 2487.4 1760.9 2472.9 1711.8 2456C1679.6 2466.9 1636.6 2452 1605.2 2445.1C1575.8 2455.6 1533.2 2432.2 1552.9 2396.8C1543.7 2396 1532.8 2396 1523.9 2392.4C1472.8 2377.1 1511.4 2477.3 1480.9 2466.4C1463.6 2457.5 1439.9 2436.2 1423.8 2426.2C1331.7 2435.9 1336.9 2340.5 1377.5 2287C1398.3 2253.2 1377.3 2163.9 1373.3 2128.1Z" fill="#2DD4BF" stroke="white" stroke-width="14.1732" stroke-miterlimit="10"/>
<g filter="url(#filter0_d_904_1157)">
<path d="M351.167 1288.3C373.892 1288.3 392.315 1269.88 392.315 1247.15C392.315 1224.43 373.892 1206 351.167 1206C328.441 1206 310.018 1224.43 310.018 1247.15C310.018 1269.88 328.441 1288.3 351.167 1288.3Z" fill="white"/>
<path d="M440.915 1246.88C440.915 1197.21 400.639 1157 351.032 1157C301.359 1157 261.083 1197.28 261.083 1246.88C261.083 1246.88 254.84 1334.89 350.965 1420C447.225 1334.89 440.915 1246.88 440.915 1246.88ZM351.032 1284.88C330.089 1284.88 313.106 1267.89 313.106 1246.95C313.106 1226.01 330.089 1209.02 351.032 1209.02C371.976 1209.02 388.959 1226.01 388.959 1246.95C388.959 1267.89 371.976 1284.88 351.032 1284.88Z" fill="#002857"/>
</g>
<g filter="url(#filter1_d_904_1157)">
<path d="M1062.17 896.3C1084.89 896.3 1103.32 877.877 1103.32 855.151C1103.32 832.425 1084.89 814.003 1062.17 814.003C1039.44 814.003 1021.02 832.425 1021.02 855.151C1021.02 877.877 1039.44 896.3 1062.17 896.3Z" fill="white"/>
<path d="M1151.92 854.883C1151.92 805.209 1111.64 765 1062.03 765C1012.36 765 972.083 805.276 972.083 854.883C972.083 854.883 965.84 942.886 1061.97 1028C1158.23 942.886 1151.92 854.883 1151.92 854.883ZM1062.03 892.877C1041.09 892.877 1024.11 875.894 1024.11 854.95C1024.11 834.006 1041.09 817.023 1062.03 817.023C1082.98 817.023 1099.96 834.006 1099.96 854.95C1099.96 875.894 1082.98 892.877 1062.03 892.877Z" fill="#002857"/>
</g>
<g filter="url(#filter2_d_904_1157)">
<path d="M1776.17 1825.3C1798.89 1825.3 1817.32 1806.88 1817.32 1784.15C1817.32 1761.43 1798.89 1743 1776.17 1743C1753.44 1743 1735.02 1761.43 1735.02 1784.15C1735.02 1806.88 1753.44 1825.3 1776.17 1825.3Z" fill="white"/>
<path d="M1865.92 1783.88C1865.92 1734.21 1825.64 1694 1776.03 1694C1726.36 1694 1686.08 1734.28 1686.08 1783.88C1686.08 1783.88 1679.84 1871.89 1775.97 1957C1872.23 1871.89 1865.92 1783.88 1865.92 1783.88ZM1776.03 1821.88C1755.09 1821.88 1738.11 1804.89 1738.11 1783.95C1738.11 1763.01 1755.09 1746.02 1776.03 1746.02C1796.98 1746.02 1813.96 1763.01 1813.96 1783.95C1813.96 1804.89 1796.98 1821.88 1776.03 1821.88Z" fill="#002857"/>
</g>
<g filter="url(#filter3_d_904_1157)">
<path d="M1386.17 2463.3C1408.89 2463.3 1427.32 2444.88 1427.32 2422.15C1427.32 2399.43 1408.89 2381 1386.17 2381C1363.44 2381 1345.02 2399.43 1345.02 2422.15C1345.02 2444.88 1363.44 2463.3 1386.17 2463.3Z" fill="white"/>
<path d="M1475.92 2421.88C1475.92 2372.21 1435.64 2332 1386.03 2332C1336.36 2332 1296.08 2372.28 1296.08 2421.88C1296.08 2421.88 1289.84 2509.89 1385.97 2595C1482.23 2509.89 1475.92 2421.88 1475.92 2421.88ZM1386.03 2459.88C1365.09 2459.88 1348.11 2442.89 1348.11 2421.95C1348.11 2401.01 1365.09 2384.02 1386.03 2384.02C1406.98 2384.02 1423.96 2401.01 1423.96 2421.95C1423.96 2442.89 1406.98 2459.88 1386.03 2459.88Z" fill="#002857"/>
</g>
<g filter="url(#filter4_d_904_1157)">
<path d="M2237.17 2091.3C2259.89 2091.3 2278.32 2072.88 2278.32 2050.15C2278.32 2027.43 2259.89 2009 2237.17 2009C2214.44 2009 2196.02 2027.43 2196.02 2050.15C2196.02 2072.88 2214.44 2091.3 2237.17 2091.3Z" fill="white"/>
<path d="M2326.92 2049.88C2326.92 2000.21 2286.64 1960 2237.03 1960C2187.36 1960 2147.08 2000.28 2147.08 2049.88C2147.08 2049.88 2140.84 2137.89 2236.97 2223C2333.23 2137.89 2326.92 2049.88 2326.92 2049.88ZM2237.03 2087.88C2216.09 2087.88 2199.11 2070.89 2199.11 2049.95C2199.11 2029.01 2216.09 2012.02 2237.03 2012.02C2257.98 2012.02 2274.96 2029.01 2274.96 2049.95C2274.96 2070.89 2257.98 2087.88 2237.03 2087.88Z" fill="#002857"/>
</g>
<g filter="url(#filter5_d_904_1157)">
<path d="M1364.17 1606.3C1386.89 1606.3 1405.32 1587.88 1405.32 1565.15C1405.32 1542.43 1386.89 1524 1364.17 1524C1341.44 1524 1323.02 1542.43 1323.02 1565.15C1323.02 1587.88 1341.44 1606.3 1364.17 1606.3Z" fill="white"/>
<path d="M1453.92 1564.88C1453.92 1515.21 1413.64 1475 1364.03 1475C1314.36 1475 1274.08 1515.28 1274.08 1564.88C1274.08 1564.88 1267.84 1652.89 1363.97 1738C1460.23 1652.89 1453.92 1564.88 1453.92 1564.88ZM1364.03 1602.88C1343.09 1602.88 1326.11 1585.89 1326.11 1564.95C1326.11 1544.01 1343.09 1527.02 1364.03 1527.02C1384.98 1527.02 1401.96 1544.01 1401.96 1564.95C1401.96 1585.89 1384.98 1602.88 1364.03 1602.88Z" fill="#002857"/>
</g>
<g filter="url(#filter6_d_904_1157)">
<path d="M1142.17 2094.3C1164.89 2094.3 1183.32 2075.88 1183.32 2053.15C1183.32 2030.43 1164.89 2012 1142.17 2012C1119.44 2012 1101.02 2030.43 1101.02 2053.15C1101.02 2075.88 1119.44 2094.3 1142.17 2094.3Z" fill="white"/>
<path d="M1231.92 2052.88C1231.92 2003.21 1191.64 1963 1142.03 1963C1092.36 1963 1052.08 2003.28 1052.08 2052.88C1052.08 2052.88 1045.84 2140.89 1141.97 2226C1238.23 2140.89 1231.92 2052.88 1231.92 2052.88ZM1142.03 2090.88C1121.09 2090.88 1104.11 2073.89 1104.11 2052.95C1104.11 2032.01 1121.09 2015.02 1142.03 2015.02C1162.98 2015.02 1179.96 2032.01 1179.96 2052.95C1179.96 2073.89 1162.98 2090.88 1142.03 2090.88Z" fill="#002857"/>
</g>
<g filter="url(#filter7_d_904_1157)">
<path d="M924.167 1828.3C946.892 1828.3 965.315 1809.88 965.315 1787.15C965.315 1764.43 946.892 1746 924.167 1746C901.441 1746 883.018 1764.43 883.018 1787.15C883.018 1809.88 901.441 1828.3 924.167 1828.3Z" fill="white"/>
<path d="M1013.92 1786.88C1013.92 1737.21 973.639 1697 924.032 1697C874.359 1697 834.083 1737.28 834.083 1786.88C834.083 1786.88 827.84 1874.89 923.965 1960C1020.23 1874.89 1013.92 1786.88 1013.92 1786.88ZM924.032 1824.88C903.089 1824.88 886.106 1807.89 886.106 1786.95C886.106 1766.01 903.089 1749.02 924.032 1749.02C944.976 1749.02 961.959 1766.01 961.959 1786.95C961.959 1807.89 944.976 1824.88 924.032 1824.88Z" fill="#002857"/>
</g>
<g filter="url(#filter8_d_904_1157)">
<path d="M618.167 1737.3C640.892 1737.3 659.315 1718.88 659.315 1696.15C659.315 1673.43 640.892 1655 618.167 1655C595.441 1655 577.018 1673.43 577.018 1696.15C577.018 1718.88 595.441 1737.3 618.167 1737.3Z" fill="white"/>
<path d="M707.915 1695.88C707.915 1646.21 667.639 1606 618.032 1606C568.359 1606 528.083 1646.28 528.083 1695.88C528.083 1695.88 521.84 1783.89 617.965 1869C714.225 1783.89 707.915 1695.88 707.915 1695.88ZM618.032 1733.88C597.089 1733.88 580.106 1716.89 580.106 1695.95C580.106 1675.01 597.089 1658.02 618.032 1658.02C638.976 1658.02 655.959 1675.01 655.959 1695.95C655.959 1716.89 638.976 1733.88 618.032 1733.88Z" fill="#002857"/>
</g>
<g filter="url(#filter9_d_904_1157)">
<path d="M264.167 1752.3C286.892 1752.3 305.315 1733.88 305.315 1711.15C305.315 1688.43 286.892 1670 264.167 1670C241.441 1670 223.018 1688.43 223.018 1711.15C223.018 1733.88 241.441 1752.3 264.167 1752.3Z" fill="white"/>
<path d="M353.915 1710.88C353.915 1661.21 313.639 1621 264.032 1621C214.359 1621 174.083 1661.28 174.083 1710.88C174.083 1710.88 167.84 1798.89 263.965 1884C360.225 1798.89 353.915 1710.88 353.915 1710.88ZM264.032 1748.88C243.089 1748.88 226.106 1731.89 226.106 1710.95C226.106 1690.01 243.089 1673.02 264.032 1673.02C284.976 1673.02 301.959 1690.01 301.959 1710.95C301.959 1731.89 284.976 1748.88 264.032 1748.88Z" fill="#002857"/>
</g>
<g filter="url(#filter10_d_904_1157)">
<path d="M771.167 1290.3C793.892 1290.3 812.315 1271.88 812.315 1249.15C812.315 1226.43 793.892 1208 771.167 1208C748.441 1208 730.018 1226.43 730.018 1249.15C730.018 1271.88 748.441 1290.3 771.167 1290.3Z" fill="white"/>
<path d="M860.915 1248.88C860.915 1199.21 820.639 1159 771.032 1159C721.359 1159 681.083 1199.28 681.083 1248.88C681.083 1248.88 674.84 1336.89 770.965 1422C867.225 1336.89 860.915 1248.88 860.915 1248.88ZM771.032 1286.88C750.089 1286.88 733.106 1269.89 733.106 1248.95C733.106 1228.01 750.089 1211.02 771.032 1211.02C791.976 1211.02 808.959 1228.01 808.959 1248.95C808.959 1269.89 791.976 1286.88 771.032 1286.88Z" fill="#002857"/>
</g>
<g filter="url(#filter11_d_904_1157)">
<path d="M1596.17 1145.3C1618.89 1145.3 1637.32 1126.88 1637.32 1104.15C1637.32 1081.43 1618.89 1063 1596.17 1063C1573.44 1063 1555.02 1081.43 1555.02 1104.15C1555.02 1126.88 1573.44 1145.3 1596.17 1145.3Z" fill="white"/>
<path d="M1685.92 1103.88C1685.92 1054.21 1645.64 1014 1596.03 1014C1546.36 1014 1506.08 1054.28 1506.08 1103.88C1506.08 1103.88 1499.84 1191.89 1595.97 1277C1692.23 1191.89 1685.92 1103.88 1685.92 1103.88ZM1596.03 1141.88C1575.09 1141.88 1558.11 1124.89 1558.11 1103.95C1558.11 1083.01 1575.09 1066.02 1596.03 1066.02C1616.98 1066.02 1633.96 1083.01 1633.96 1103.95C1633.96 1124.89 1616.98 1141.88 1596.03 1141.88Z" fill="#002857"/>
</g>
<g filter="url(#filter12_d_904_1157)">
<path d="M1686.17 764.3C1708.89 764.3 1727.32 745.877 1727.32 723.151C1727.32 700.425 1708.89 682.003 1686.17 682.003C1663.44 682.003 1645.02 700.425 1645.02 723.151C1645.02 745.877 1663.44 764.3 1686.17 764.3Z" fill="white"/>
<path d="M1775.92 722.883C1775.92 673.209 1735.64 633 1686.03 633C1636.36 633 1596.08 673.276 1596.08 722.883C1596.08 722.883 1589.84 810.886 1685.97 896.003C1782.23 810.886 1775.92 722.883 1775.92 722.883ZM1686.03 760.877C1665.09 760.877 1648.11 743.894 1648.11 722.95C1648.11 702.006 1665.09 685.023 1686.03 685.023C1706.98 685.023 1723.96 702.006 1723.96 722.95C1723.96 743.894 1706.98 760.877 1686.03 760.877Z" fill="#002857"/>
</g>
<g filter="url(#filter13_d_904_1157)">
<path d="M2196.17 131.3C2218.89 131.3 2237.32 112.877 2237.32 90.1513C2237.32 67.4254 2218.89 49.0026 2196.17 49.0026C2173.44 49.0026 2155.02 67.4254 2155.02 90.1513C2155.02 112.877 2173.44 131.3 2196.17 131.3Z" fill="white"/>
<path d="M2285.92 89.8828C2285.92 40.209 2245.64 0 2196.03 0C2146.36 0 2106.08 40.2761 2106.08 89.8828C2106.08 89.8828 2099.84 177.886 2195.97 263.003C2292.23 177.886 2285.92 89.8828 2285.92 89.8828ZM2196.03 127.877C2175.09 127.877 2158.11 110.894 2158.11 89.95C2158.11 69.0064 2175.09 52.0233 2196.03 52.0233C2216.98 52.0233 2233.96 69.0064 2233.96 89.95C2233.96 110.894 2216.98 127.877 2196.03 127.877Z" fill="#002857"/>
</g>
<g filter="url(#filter14_d_904_1157)">
<path d="M2889.17 647.3C2911.89 647.3 2930.32 628.877 2930.32 606.151C2930.32 583.425 2911.89 565.003 2889.17 565.003C2866.44 565.003 2848.02 583.425 2848.02 606.151C2848.02 628.877 2866.44 647.3 2889.17 647.3Z" fill="white"/>
<path d="M2978.92 605.883C2978.92 556.209 2938.64 516 2889.03 516C2839.36 516 2799.08 556.276 2799.08 605.883C2799.08 605.883 2792.84 693.886 2888.97 779.003C2985.23 693.886 2978.92 605.883 2978.92 605.883ZM2889.03 643.877C2868.09 643.877 2851.11 626.894 2851.11 605.95C2851.11 585.006 2868.09 568.023 2889.03 568.023C2909.98 568.023 2926.96 585.006 2926.96 605.95C2926.96 626.894 2909.98 643.877 2889.03 643.877Z" fill="#002857"/>
</g>
<g filter="url(#filter15_d_904_1157)">
<path d="M3910.17 1010.3C3932.89 1010.3 3951.32 991.877 3951.32 969.151C3951.32 946.425 3932.89 928.003 3910.17 928.003C3887.44 928.003 3869.02 946.425 3869.02 969.151C3869.02 991.877 3887.44 1010.3 3910.17 1010.3Z" fill="white"/>
<path d="M3999.92 968.883C3999.92 919.209 3959.64 879 3910.03 879C3860.36 879 3820.08 919.276 3820.08 968.883C3820.08 968.883 3813.84 1056.89 3909.97 1142C4006.23 1056.89 3999.92 968.883 3999.92 968.883ZM3910.03 1006.88C3889.09 1006.88 3872.11 989.894 3872.11 968.95C3872.11 948.006 3889.09 931.023 3910.03 931.023C3930.98 931.023 3947.96 948.006 3947.96 968.95C3947.96 989.894 3930.98 1006.88 3910.03 1006.88Z" fill="#002857"/>
</g>
<g filter="url(#filter16_d_904_1157)">
<path d="M1793.17 2609.3C1815.89 2609.3 1834.32 2590.88 1834.32 2568.15C1834.32 2545.43 1815.89 2527 1793.17 2527C1770.44 2527 1752.02 2545.43 1752.02 2568.15C1752.02 2590.88 1770.44 2609.3 1793.17 2609.3Z" fill="white"/>
<path d="M1882.92 2567.88C1882.92 2518.21 1842.64 2478 1793.03 2478C1743.36 2478 1703.08 2518.28 1703.08 2567.88C1703.08 2567.88 1696.84 2655.89 1792.97 2741C1889.23 2655.89 1882.92 2567.88 1882.92 2567.88ZM1793.03 2605.88C1772.09 2605.88 1755.11 2588.89 1755.11 2567.95C1755.11 2547.01 1772.09 2530.02 1793.03 2530.02C1813.98 2530.02 1830.96 2547.01 1830.96 2567.95C1830.96 2588.89 1813.98 2605.88 1793.03 2605.88Z" fill="#002857"/>
</g>
<g filter="url(#filter17_d_904_1157)">
<path d="M2709.17 1332.3C2731.89 1332.3 2750.32 1313.88 2750.32 1291.15C2750.32 1268.43 2731.89 1250 2709.17 1250C2686.44 1250 2668.02 1268.43 2668.02 1291.15C2668.02 1313.88 2686.44 1332.3 2709.17 1332.3Z" fill="white"/>
<path d="M2798.92 1290.88C2798.92 1241.21 2758.64 1201 2709.03 1201C2659.36 1201 2619.08 1241.28 2619.08 1290.88C2619.08 1290.88 2612.84 1378.89 2708.97 1464C2805.23 1378.89 2798.92 1290.88 2798.92 1290.88ZM2709.03 1328.88C2688.09 1328.88 2671.11 1311.89 2671.11 1290.95C2671.11 1270.01 2688.09 1253.02 2709.03 1253.02C2729.98 1253.02 2746.96 1270.01 2746.96 1290.95C2746.96 1311.89 2729.98 1328.88 2709.03 1328.88Z" fill="#002857"/>
</g>
<defs>
<filter id="filter0_d_904_1157" x="241" y="1157" width="220" height="313.003" filterUnits="userSpaceOnUse" color-interpolation-filters="sRGB">
<feFlood flood-opacity="0" result="BackgroundImageFix"/>
<feColorMatrix in="SourceAlpha" type="matrix" values="0 0 0 0 0 0 0 0 0 0 0 0 0 0 0 0 0 0 127 0" result="hardAlpha"/>
<feOffset dy="30"/>
<feGaussianBlur stdDeviation="10"/>
<feComposite in2="hardAlpha" operator="out"/>
<feColorMatrix type="matrix" values="0 0 0 0 0 0 0 0 0 0 0 0 0 0 0 0 0 0 0.25 0"/>
<feBlend mode="normal" in2="BackgroundImageFix" result="effect1_dropShadow_904_1157"/>
<feBlend mode="normal" in="SourceGraphic" in2="effect1_dropShadow_904_1157" result="shape"/>
</filter>
<filter id="filter1_d_904_1157" x="952" y="765" width="220" height="313.003" filterUnits="userSpaceOnUse" color-interpolation-filters="sRGB">
<feFlood flood-opacity="0" result="BackgroundImageFix"/>
<feColorMatrix in="SourceAlpha" type="matrix" values="0 0 0 0 0 0 0 0 0 0 0 0 0 0 0 0 0 0 127 0" result="hardAlpha"/>
<feOffset dy="30"/>
<feGaussianBlur stdDeviation="10"/>
<feComposite in2="hardAlpha" operator="out"/>
<feColorMatrix type="matrix" values="0 0 0 0 0 0 0 0 0 0 0 0 0 0 0 0 0 0 0.25 0"/>
<feBlend mode="normal" in2="BackgroundImageFix" result="effect1_dropShadow_904_1157"/>
<feBlend mode="normal" in="SourceGraphic" in2="effect1_dropShadow_904_1157" result="shape"/>
</filter>
<filter id="filter2_d_904_1157" x="1666" y="1694" width="220" height="313.003" filterUnits="userSpaceOnUse" color-interpolation-filters="sRGB">
<feFlood flood-opacity="0" result="BackgroundImageFix"/>
<feColorMatrix in="SourceAlpha" type="matrix" values="0 0 0 0 0 0 0 0 0 0 0 0 0 0 0 0 0 0 127 0" result="hardAlpha"/>
<feOffset dy="30"/>
<feGaussianBlur stdDeviation="10"/>
<feComposite in2="hardAlpha" operator="out"/>
<feColorMatrix type="matrix" values="0 0 0 0 0 0 0 0 0 0 0 0 0 0 0 0 0 0 0.25 0"/>
<feBlend mode="normal" in2="BackgroundImageFix" result="effect1_dropShadow_904_1157"/>
<feBlend mode="normal" in="SourceGraphic" in2="effect1_dropShadow_904_1157" result="shape"/>
</filter>
<filter id="filter3_d_904_1157" x="1276" y="2332" width="220" height="313.003" filterUnits="userSpaceOnUse" color-interpolation-filters="sRGB">
<feFlood flood-opacity="0" result="BackgroundImageFix"/>
<feColorMatrix in="SourceAlpha" type="matrix" values="0 0 0 0 0 0 0 0 0 0 0 0 0 0 0 0 0 0 127 0" result="hardAlpha"/>
<feOffset dy="30"/>
<feGaussianBlur stdDeviation="10"/>
<feComposite in2="hardAlpha" operator="out"/>
<feColorMatrix type="matrix" values="0 0 0 0 0 0 0 0 0 0 0 0 0 0 0 0 0 0 0.25 0"/>
<feBlend mode="normal" in2="BackgroundImageFix" result="effect1_dropShadow_904_1157"/>
<feBlend mode="normal" in="SourceGraphic" in2="effect1_dropShadow_904_1157" result="shape"/>
</filter>
<filter id="filter4_d_904_1157" x="2127" y="1960" width="220" height="313.003" filterUnits="userSpaceOnUse" color-interpolation-filters="sRGB">
<feFlood flood-opacity="0" result="BackgroundImageFix"/>
<feColorMatrix in="SourceAlpha" type="matrix" values="0 0 0 0 0 0 0 0 0 0 0 0 0 0 0 0 0 0 127 0" result="hardAlpha"/>
<feOffset dy="30"/>
<feGaussianBlur stdDeviation="10"/>
<feComposite in2="hardAlpha" operator="out"/>
<feColorMatrix type="matrix" values="0 0 0 0 0 0 0 0 0 0 0 0 0 0 0 0 0 0 0.25 0"/>
<feBlend mode="normal" in2="BackgroundImageFix" result="effect1_dropShadow_904_1157"/>
<feBlend mode="normal" in="SourceGraphic" in2="effect1_dropShadow_904_1157" result="shape"/>
</filter>
<filter id="filter5_d_904_1157" x="1254" y="1475" width="220" height="313.003" filterUnits="userSpaceOnUse" color-interpolation-filters="sRGB">
<feFlood flood-opacity="0" result="BackgroundImageFix"/>
<feColorMatrix in="SourceAlpha" type="matrix" values="0 0 0 0 0 0 0 0 0 0 0 0 0 0 0 0 0 0 127 0" result="hardAlpha"/>
<feOffset dy="30"/>
<feGaussianBlur stdDeviation="10"/>
<feComposite in2="hardAlpha" operator="out"/>
<feColorMatrix type="matrix" values="0 0 0 0 0 0 0 0 0 0 0 0 0 0 0 0 0 0 0.25 0"/>
<feBlend mode="normal" in2="BackgroundImageFix" result="effect1_dropShadow_904_1157"/>
<feBlend mode="normal" in="SourceGraphic" in2="effect1_dropShadow_904_1157" result="shape"/>
</filter>
<filter id="filter6_d_904_1157" x="1032" y="1963" width="220" height="313.003" filterUnits="userSpaceOnUse" color-interpolation-filters="sRGB">
<feFlood flood-opacity="0" result="BackgroundImageFix"/>
<feColorMatrix in="SourceAlpha" type="matrix" values="0 0 0 0 0 0 0 0 0 0 0 0 0 0 0 0 0 0 127 0" result="hardAlpha"/>
<feOffset dy="30"/>
<feGaussianBlur stdDeviation="10"/>
<feComposite in2="hardAlpha" operator="out"/>
<feColorMatrix type="matrix" values="0 0 0 0 0 0 0 0 0 0 0 0 0 0 0 0 0 0 0.25 0"/>
<feBlend mode="normal" in2="BackgroundImageFix" result="effect1_dropShadow_904_1157"/>
<feBlend mode="normal" in="SourceGraphic" in2="effect1_dropShadow_904_1157" result="shape"/>
</filter>
<filter id="filter7_d_904_1157" x="814" y="1697" width="220" height="313.003" filterUnits="userSpaceOnUse" color-interpolation-filters="sRGB">
<feFlood flood-opacity="0" result="BackgroundImageFix"/>
<feColorMatrix in="SourceAlpha" type="matrix" values="0 0 0 0 0 0 0 0 0 0 0 0 0 0 0 0 0 0 127 0" result="hardAlpha"/>
<feOffset dy="30"/>
<feGaussianBlur stdDeviation="10"/>
<feComposite in2="hardAlpha" operator="out"/>
<feColorMatrix type="matrix" values="0 0 0 0 0 0 0 0 0 0 0 0 0 0 0 0 0 0 0.25 0"/>
<feBlend mode="normal" in2="BackgroundImageFix" result="effect1_dropShadow_904_1157"/>
<feBlend mode="normal" in="SourceGraphic" in2="effect1_dropShadow_904_1157" result="shape"/>
</filter>
<filter id="filter8_d_904_1157" x="508" y="1606" width="220" height="313.003" filterUnits="userSpaceOnUse" color-interpolation-filters="sRGB">
<feFlood flood-opacity="0" result="BackgroundImageFix"/>
<feColorMatrix in="SourceAlpha" type="matrix" values="0 0 0 0 0 0 0 0 0 0 0 0 0 0 0 0 0 0 127 0" result="hardAlpha"/>
<feOffset dy="30"/>
<feGaussianBlur stdDeviation="10"/>
<feComposite in2="hardAlpha" operator="out"/>
<feColorMatrix type="matrix" values="0 0 0 0 0 0 0 0 0 0 0 0 0 0 0 0 0 0 0.25 0"/>
<feBlend mode="normal" in2="BackgroundImageFix" result="effect1_dropShadow_904_1157"/>
<feBlend mode="normal" in="SourceGraphic" in2="effect1_dropShadow_904_1157" result="shape"/>
</filter>
<filter id="filter9_d_904_1157" x="154" y="1621" width="220" height="313.003" filterUnits="userSpaceOnUse" color-interpolation-filters="sRGB">
<feFlood flood-opacity="0" result="BackgroundImageFix"/>
<feColorMatrix in="SourceAlpha" type="matrix" values="0 0 0 0 0 0 0 0 0 0 0 0 0 0 0 0 0 0 127 0" result="hardAlpha"/>
<feOffset dy="30"/>
<feGaussianBlur stdDeviation="10"/>
<feComposite in2="hardAlpha" operator="out"/>
<feColorMatrix type="matrix" values="0 0 0 0 0 0 0 0 0 0 0 0 0 0 0 0 0 0 0.25 0"/>
<feBlend mode="normal" in2="BackgroundImageFix" result="effect1_dropShadow_904_1157"/>
<feBlend mode="normal" in="SourceGraphic" in2="effect1_dropShadow_904_1157" result="shape"/>
</filter>
<filter id="filter10_d_904_1157" x="661" y="1159" width="220" height="313.003" filterUnits="userSpaceOnUse" color-interpolation-filters="sRGB">
<feFlood flood-opacity="0" result="BackgroundImageFix"/>
<feColorMatrix in="SourceAlpha" type="matrix" values="0 0 0 0 0 0 0 0 0 0 0 0 0 0 0 0 0 0 127 0" result="hardAlpha"/>
<feOffset dy="30"/>
<feGaussianBlur stdDeviation="10"/>
<feComposite in2="hardAlpha" operator="out"/>
<feColorMatrix type="matrix" values="0 0 0 0 0 0 0 0 0 0 0 0 0 0 0 0 0 0 0.25 0"/>
<feBlend mode="normal" in2="BackgroundImageFix" result="effect1_dropShadow_904_1157"/>
<feBlend mode="normal" in="SourceGraphic" in2="effect1_dropShadow_904_1157" result="shape"/>
</filter>
<filter id="filter11_d_904_1157" x="1486" y="1014" width="220" height="313.003" filterUnits="userSpaceOnUse" color-interpolation-filters="sRGB">
<feFlood flood-opacity="0" result="BackgroundImageFix"/>
<feColorMatrix in="SourceAlpha" type="matrix" values="0 0 0 0 0 0 0 0 0 0 0 0 0 0 0 0 0 0 127 0" result="hardAlpha"/>
<feOffset dy="30"/>
<feGaussianBlur stdDeviation="10"/>
<feComposite in2="hardAlpha" operator="out"/>
<feColorMatrix type="matrix" values="0 0 0 0 0 0 0 0 0 0 0 0 0 0 0 0 0 0 0.25 0"/>
<feBlend mode="normal" in2="BackgroundImageFix" result="effect1_dropShadow_904_1157"/>
<feBlend mode="normal" in="SourceGraphic" in2="effect1_dropShadow_904_1157" result="shape"/>
</filter>
<filter id="filter12_d_904_1157" x="1576" y="633" width="220" height="313.003" filterUnits="userSpaceOnUse" color-interpolation-filters="sRGB">
<feFlood flood-opacity="0" result="BackgroundImageFix"/>
<feColorMatrix in="SourceAlpha" type="matrix" values="0 0 0 0 0 0 0 0 0 0 0 0 0 0 0 0 0 0 127 0" result="hardAlpha"/>
<feOffset dy="30"/>
<feGaussianBlur stdDeviation="10"/>
<feComposite in2="hardAlpha" operator="out"/>
<feColorMatrix type="matrix" values="0 0 0 0 0 0 0 0 0 0 0 0 0 0 0 0 0 0 0.25 0"/>
<feBlend mode="normal" in2="BackgroundImageFix" result="effect1_dropShadow_904_1157"/>
<feBlend mode="normal" in="SourceGraphic" in2="effect1_dropShadow_904_1157" result="shape"/>
</filter>
<filter id="filter13_d_904_1157" x="2086" y="0" width="220" height="313.003" filterUnits="userSpaceOnUse" color-interpolation-filters="sRGB">
<feFlood flood-opacity="0" result="BackgroundImageFix"/>
<feColorMatrix in="SourceAlpha" type="matrix" values="0 0 0 0 0 0 0 0 0 0 0 0 0 0 0 0 0 0 127 0" result="hardAlpha"/>
<feOffset dy="30"/>
<feGaussianBlur stdDeviation="10"/>
<feComposite in2="hardAlpha" operator="out"/>
<feColorMatrix type="matrix" values="0 0 0 0 0 0 0 0 0 0 0 0 0 0 0 0 0 0 0.25 0"/>
<feBlend mode="normal" in2="BackgroundImageFix" result="effect1_dropShadow_904_1157"/>
<feBlend mode="normal" in="SourceGraphic" in2="effect1_dropShadow_904_1157" result="shape"/>
</filter>
<filter id="filter14_d_904_1157" x="2779" y="516" width="220" height="313.003" filterUnits="userSpaceOnUse" color-interpolation-filters="sRGB">
<feFlood flood-opacity="0" result="BackgroundImageFix"/>
<feColorMatrix in="SourceAlpha" type="matrix" values="0 0 0 0 0 0 0 0 0 0 0 0 0 0 0 0 0 0 127 0" result="hardAlpha"/>
<feOffset dy="30"/>
<feGaussianBlur stdDeviation="10"/>
<feComposite in2="hardAlpha" operator="out"/>
<feColorMatrix type="matrix" values="0 0 0 0 0 0 0 0 0 0 0 0 0 0 0 0 0 0 0.25 0"/>
<feBlend mode="normal" in2="BackgroundImageFix" result="effect1_dropShadow_904_1157"/>
<feBlend mode="normal" in="SourceGraphic" in2="effect1_dropShadow_904_1157" result="shape"/>
</filter>
<filter id="filter15_d_904_1157" x="3800" y="879" width="220" height="313.003" filterUnits="userSpaceOnUse" color-interpolation-filters="sRGB">
<feFlood flood-opacity="0" result="BackgroundImageFix"/>
<feColorMatrix in="SourceAlpha" type="matrix" values="0 0 0 0 0 0 0 0 0 0 0 0 0 0 0 0 0 0 127 0" result="hardAlpha"/>
<feOffset dy="30"/>
<feGaussianBlur stdDeviation="10"/>
<feComposite in2="hardAlpha" operator="out"/>
<feColorMatrix type="matrix" values="0 0 0 0 0 0 0 0 0 0 0 0 0 0 0 0 0 0 0.25 0"/>
<feBlend mode="normal" in2="BackgroundImageFix" result="effect1_dropShadow_904_1157"/>
<feBlend mode="normal" in="SourceGraphic" in2="effect1_dropShadow_904_1157" result="shape"/>
</filter>
<filter id="filter16_d_904_1157" x="1683" y="2478" width="220" height="313.003" filterUnits="userSpaceOnUse" color-interpolation-filters="sRGB">
<feFlood flood-opacity="0" result="BackgroundImageFix"/>
<feColorMatrix in="SourceAlpha" type="matrix" values="0 0 0 0 0 0 0 0 0 0 0 0 0 0 0 0 0 0 127 0" result="hardAlpha"/>
<feOffset dy="30"/>
<feGaussianBlur stdDeviation="10"/>
<feComposite in2="hardAlpha" operator="out"/>
<feColorMatrix type="matrix" values="0 0 0 0 0 0 0 0 0 0 0 0 0 0 0 0 0 0 0.25 0"/>
<feBlend mode="normal" in2="BackgroundImageFix" result="effect1_dropShadow_904_1157"/>
<feBlend mode="normal" in="SourceGraphic" in2="effect1_dropShadow_904_1157" result="shape"/>
</filter>
<filter id="filter17_d_904_1157" x="2599" y="1201" width="220" height="313.003" filterUnits="userSpaceOnUse" color-interpolation-filters="sRGB">
<feFlood flood-opacity="0" result="BackgroundImageFix"/>
<feColorMatrix in="SourceAlpha" type="matrix" values="0 0 0 0 0 0 0 0 0 0 0 0 0 0 0 0 0 0 127 0" result="hardAlpha"/>
<feOffset dy="30"/>
<feGaussianBlur stdDeviation="10"/>
<feComposite in2="hardAlpha" operator="out"/>
<feColorMatrix type="matrix" values="0 0 0 0 0 0 0 0 0 0 0 0 0 0 0 0 0 0 0.25 0"/>
<feBlend mode="normal" in2="BackgroundImageFix" result="effect1_dropShadow_904_1157"/>
<feBlend mode="normal" in="SourceGraphic" in2="effect1_dropShadow_904_1157" result="shape"/>
</filter>
</defs>
</svg>
