<?xml version="1.0" encoding="utf-8"?>
<!-- Generator: Adobe Illustrator 22.0.1, SVG Export Plug-In . SVG Version: 6.00 Build 0)  -->
<svg version="1.1" xmlns="http://www.w3.org/2000/svg" xmlns:xlink="http://www.w3.org/1999/xlink" x="0px" y="0px"
	 viewBox="0 0 1080 1080" style="enable-background:new 0 0 1080 1080;" xml:space="preserve">
<style type="text/css">
	.st0{display:none;}
	.st1{display:inline;}
	.st2{fill:#002B54;}
	.st3{fill:#FFFFFF;}
	.st4{fill:#00D9B2;}
</style>
<g id="Capa_1" class="st0">
	<g class="st1">
		<path class="st2" d="M735,647.1c57.5-6.1,113.5-36.3,161.8-89.2c7.6-9.1,9.1-18.2,7.6-28.8c65-78.6,104.3-186,104.3-269.2
			c0-128.5-60.4-142.1-163.2-163.3v-1.5c-7.6-12.1-19.7-19.7-34.8-19.7c-21.1,0-37.8,16.6-37.8,36.3c0,19.7,16.7,36.3,37.8,36.3
			c9.1,0,16.7-3,22.7-9.1l1.5,1.5c99.8,21.2,125.6,25.7,125.6,119.4c0,72.6-36.3,170.9-93.8,242c-9.1,0-18.1,3-25.7,10.6
			c-28.6,31.8-75.5,69.5-130,69.5c-56,0-101.2-37.8-130-68c-7.6-7.6-16.7-12.1-25.7-12.1c-57.4-71.1-95.2-169.4-95.2-242
			c0-93.7,27.2-98.3,127-119.4V139c6.1,6,15.1,9.1,24.2,9.1c21.2,0,37.8-16.6,37.8-36.3c0-19.7-16.7-36.3-37.8-36.3
			c-16.6,0-28.6,7.6-34.8,19.7h-1.5C473.5,117.9,411.5,130,411.5,260c0,83.2,39.3,190.6,105.7,270.7c-1.5,9.1,0,19.7,7.6,27.2
			c48.3,51.4,102.8,81.6,158.8,89.2l-1.6,163.3c0,111.9-98.2,202.7-217.8,202.7c-119.4,0-216.2-90.7-216.2-202.7V666.8
			c69.6-10.6,122.5-65,122.5-133.1c0-75.6-66.6-136.1-148.2-136.1c-80.1,0-146.6,60.5-146.6,136.1c0,68.1,54.4,122.5,122.4,133.1
			v143.6c0,136.1,119.5,246.5,266.1,246.5c148.3,0,267.7-110.4,267.7-246.5V647.1H735z"/>
		<path class="st3" d="M222.4,624.5L222.4,624.5c54.5,0,98.4-40.9,98.4-90.7c0-51.4-43.9-90.7-98.4-90.7
			c-52.9,0-96.8,39.3-96.8,90.7C125.7,583.6,169.5,624.5,222.4,624.5"/>
		<path class="st4" d="M221,465.7L221,465.7c39.3,0,71.1,30.2,71.1,68c0,37.8-31.8,69.6-71.1,69.6c-40.9,0-71.1-31.8-71.1-69.6
			C149.9,495.9,180.1,465.7,221,465.7"/>
	</g>
</g>
<g id="ambulancia">
	<g>
		<path class="st2" d="M760.1,520.6h-87.1v86.5h-84.1v-86.5h-87.1v-83.3h87.1v-86.6h84.1v86.6h87.1V520.6z M372.2,479H180.5
			l24.2-95.2c0.9-3,2.6-8.9,5.6-19.5c9.3-47.2,62.9-43.1,62.9-43.1h99.1L372.2,479z M916.4,266.8H422.3v-4
			c0-25.3-20.6-45.7-46.1-45.7c-25.5,0-46.2,20.4-46.2,45.7v4h-28.2c-77.7,0-148.7,35-176.1,139.7l-47,194.3
			c0,61.4,39.9,113.4,95.4,132.2c-0.8-5.2-1.4-10.3-1.4-15.6c0-55.7,45.7-101,101.8-101c56.2,0,101.8,45.3,101.8,101
			c0,8-1,15.8-2.9,23.3h311.1c-1.8-7.5-2.9-15.3-2.9-23.3c0-55.7,45.6-101,101.7-101c56.1,0,101.8,45.3,101.8,101
			c0,7.7-0.9,15.4-2.7,22.7c71.8-6.6,128-66.4,128-139.2V406.6C1010.4,329.5,994.2,266.8,916.4,266.8"/>
		<path class="st4" d="M353.2,720.6c0,43.9-35.8,79.5-80,79.5c-44.2,0-80-35.6-80-79.5c0-43.8,35.8-79.4,80-79.4
			C317.3,641.2,353.2,676.8,353.2,720.6"/>
		<path class="st4" d="M867.4,720.6c0,43.9-35.8,79.5-80,79.5c-44.1,0-80-35.6-80-79.5c0-43.8,35.9-79.4,80-79.4
			C831.6,641.2,867.4,676.8,867.4,720.6"/>
	</g>
</g>
<g id="Lineas">
</g>
</svg>
