<?xml version="1.0" encoding="utf-8"?>
<!-- Generator: Adobe Illustrator 22.0.1, SVG Export Plug-In . SVG Version: 6.00 Build 0)  -->
<svg version="1.1" xmlns="http://www.w3.org/2000/svg" xmlns:xlink="http://www.w3.org/1999/xlink" x="0px" y="0px"
	 viewBox="0 0 819 1080" style="enable-background:new 0 0 819 1080;" xml:space="preserve">
<style type="text/css">
	.st0{fill:#FFFFFF;}
	.st1{display:none;}
	.st2{display:inline;}
	.st3{fill:#002B54;}
	.st4{fill:#00D9B2;}
	.st5{display:inline;fill:#002B54;}
	.st6{display:inline;fill:#002B54;stroke:#FFFFFF;stroke-width:8.5039;stroke-miterlimit:10;}
	.st7{display:inline;fill:#00D9B2;}
	.st8{display:inline;fill:#FFFFFF;}
	.st9{fill:#002B54;stroke:#FFFFFF;stroke-width:17.0079;stroke-miterlimit:10;}
	.st10{fill:none;stroke:#002B54;stroke-width:25.5118;stroke-miterlimit:10;}
	.st11{display:none;fill:#002B54;}
	.st12{fill:#00DAB4;}
	.st13{fill:#002F54;}
	.st14{fill:#FAFAFA;}
	.st15{fill:none;stroke:#FFFFFF;stroke-width:42.5197;stroke-miterlimit:10;}
	.st16{fill:none;stroke:#FFFFFF;stroke-width:48.189;stroke-miterlimit:10;}
	.st17{fill:none;stroke:#FFFFFF;stroke-width:48.189;stroke-linecap:round;stroke-linejoin:round;stroke-miterlimit:10;}
</style>
<g id="Capa_1">
	<g>
		<path class="st0" d="M-1418.5,611.9c62.9-6.6,124-39.7,176.9-97.5c8.3-9.9,9.9-19.9,8.3-31.4c71.1-85.9,114-203.3,114-294.3
			c0-140.5-66.1-155.3-178.5-178.5V8.5c-8.3-13.3-21.5-21.5-38.1-21.5c-23.1,0-41.3,18.2-41.3,39.7c0,21.5,18.2,39.7,41.3,39.7
			c9.9,0,18.2-3.3,24.8-9.9l1.6,1.7c109.1,23.1,137.3,28.1,137.3,130.6c0,79.4-39.7,186.8-102.5,264.6c-9.9,0-19.8,3.3-28.1,11.5
			c-31.3,34.7-82.6,76-142.1,76c-61.2,0-110.7-41.3-142.1-74.4c-8.3-8.3-18.2-13.2-28.1-13.2c-62.7-77.8-104.1-185.2-104.1-264.6
			c0-102.4,29.7-107.4,138.8-130.6v-1.7c6.6,6.6,16.5,9.9,26.4,9.9c23.1,0,41.3-18.2,41.3-39.7c0-21.5-18.2-39.7-41.3-39.7
			c-18.1,0-31.3,8.3-38,21.5h-1.6c-110.7,24.8-178.5,38-178.5,180.2c0,90.9,42.9,208.3,115.6,295.9c-1.6,9.9,0,21.5,8.3,29.8
			c52.9,56.2,112.4,89.3,173.6,97.5l-1.7,178.5c0,122.4-107.4,221.6-238.1,221.6c-130.5,0-236.4-99.2-236.4-221.6v-157
			c76.1-11.6,134-71.1,134-145.5c0-82.7-72.8-148.8-162.1-148.8c-87.6,0-160.3,66.1-160.3,148.8c0,74.4,59.5,133.9,133.8,145.5v157
			c0,148.8,130.6,269.5,290.9,269.5c162.1,0,292.6-120.7,292.6-269.5V611.9H-1418.5z"/>
		<path class="st0" d="M-1978.9,587.1L-1978.9,587.1c59.5,0,107.5-44.7,107.5-99.2c0-56.2-48-99.2-107.5-99.2
			c-57.9,0-105.8,43-105.8,99.2C-2084.7,542.5-2036.8,587.1-1978.9,587.1"/>
		<path class="st0" d="M-1980.5,413.5L-1980.5,413.5c42.9,0,77.7,33.1,77.7,74.4c0,41.3-34.7,76.1-77.7,76.1
			c-44.7,0-77.7-34.7-77.7-76.1C-2058.2,446.6-2025.2,413.5-1980.5,413.5"/>
	</g>
</g>
<g id="ambulancia" class="st1">
	<g class="st2">
		<path class="st3" d="M-1382.9,505.6h-87.1v86.5h-84.1v-86.5h-87.1v-83.3h87.1v-86.6h84.1v86.6h87.1V505.6z M-1770.8,464h-191.7
			l24.2-95.2c0.9-3,2.6-8.9,5.6-19.5c9.3-47.2,62.9-43.1,62.9-43.1h99.1L-1770.8,464z M-1226.6,251.8h-494.1v-4
			c0-25.3-20.6-45.7-46.1-45.7c-25.5,0-46.2,20.4-46.2,45.7v4h-28.2c-77.7,0-148.7,35-176.1,139.7l-47,194.3
			c0,61.4,39.9,113.4,95.4,132.2c-0.8-5.2-1.4-10.3-1.4-15.6c0-55.7,45.7-101,101.8-101c56.2,0,101.8,45.3,101.8,101
			c0,8-1,15.8-2.9,23.3h311.1c-1.8-7.5-2.9-15.3-2.9-23.3c0-55.7,45.6-101,101.7-101c56.1,0,101.8,45.3,101.8,101
			c0,7.7-0.9,15.4-2.7,22.7c71.8-6.6,128-66.4,128-139.2V391.6C-1132.6,314.5-1148.8,251.8-1226.6,251.8"/>
		<path class="st4" d="M-1789.8,705.6c0,43.9-35.8,79.5-80,79.5c-44.2,0-80-35.6-80-79.5c0-43.8,35.8-79.4,80-79.4
			C-1825.7,626.2-1789.8,661.8-1789.8,705.6"/>
		<path class="st4" d="M-1275.6,705.6c0,43.9-35.8,79.5-80,79.5s-80-35.6-80-79.5c0-43.8,35.9-79.4,80-79.4
			S-1275.6,661.8-1275.6,705.6"/>
	</g>
</g>
<g id="laboratorio" class="st1">
	<g class="st2">
		<path class="st3" d="M-1159,857.6c20,38.1,18.4,82.1-3.1,117.1c-21.5,35-59.9,57.8-102.8,57.8h-678.4
			c-42.9,0-81.3-22.8-102.8-57.8c-21.6-35-21.6-79-3.1-117.1l262.4-479V94.2c0-27.4,21.6-50.2,49.2-50.2h267
			c27.6,0,50.6,22.8,50.6,50.2v284.4L-1159,857.6z"/>
		<path class="st4" d="M-1559.6,658.4L-1559.6,658.4c-24.5,0-42.9,18.3-42.9,41.1c0,22.9,18.4,42.6,42.9,42.6
			c23.1,0,41.5-19.7,41.5-42.6C-1518.2,676.7-1536.6,658.4-1559.6,658.4"/>
		<path class="st4" d="M-1680.8,405.9L-1680.8,405.9c-23.1,0-41.5,18.3-41.5,41.1c0,24.3,18.4,42.6,41.5,42.6
			c24.5,0,42.9-18.3,42.9-42.6C-1637.9,424.2-1656.3,405.9-1680.8,405.9"/>
		<path class="st4" d="M-1680.8,551.9L-1680.8,551.9c-36.9,0-67.6,30.4-67.6,66.9c0,39.5,30.6,68.4,67.6,68.4
			c39.9,0,69-28.9,69-68.4C-1611.8,582.3-1641,551.9-1680.8,551.9"/>
		<path class="st4" d="M-1284.9,901.7L-1284.9,901.7c7.7-15.2,9.2-33.5,0-48.7l-47.6-86.7c-13.7-22.8-44.5-32-67.4-18.3
			c-41.5,22.8-86,39.6-133.6,41.1c-89,4.5-187.3-71.5-276.2-79.1c-20-1.5-36.9,7.6-47.6,24.3l-66,118.6c-9.2,15.2-9.2,33.4,0,48.7
			c9.2,13.7,24.5,22.8,42.9,22.8h552.6C-1309.5,924.5-1294.1,915.4-1284.9,901.7"/>
	</g>
</g>
<g id="Capa_5">
	<g>
		<path class="st3" d="M-2640.2,871.8l130.4-243.2l-2-4.1l-44.8-68.6l-24.5-25c-83.6-79-191.6-97.7-244.5-101.8h-6.1l-138.6,257.7
			c-16.3,29.1-24.5,64.5-22.4,99.8c2,66.5,38.7,126.8,97.8,160.1C-2805.2,996.5-2691.1,963.3-2640.2,871.8"/>
		<path class="st3" d="M-2813.4,375l42.8,8.4c83.5,12.4,195.6,49.9,266.9,158l28.5,41.6l144.7-270.2c18.3-33.3,26.5-68.6,24.5-106
			c-2-70.7-40.8-133-101.9-166.3c-93.7-54-213.9-18.7-264.8,79L-2813.4,375z"/>
		<path class="st4" d="M-2436.4,94.5c42.8,22.9,69.3,66.5,71.3,114.3c0,27-4.1,52-16.3,74.8l-99.9,185
			c-73.4-85.2-167.1-122.6-238.4-139.2l97.8-180.9C-2585.1,79.9-2501.6,57-2436.4,94.5"/>
	</g>
</g>
<g id="Capa_6" class="st1">
	<g class="st2">
		<path class="st3" d="M-1635.3,469.3h24.1c16.5,0,28.5,12,28.5,27.1c0,15.1-12,27.1-28.5,27.1h-13.6
			C-1620.2,508.5-1629.2,482.9-1635.3,469.3"/>
		<path class="st4" d="M-1782.6,523.5l4.5-234.6c9-3,34.6-10.6,72.2-12.1l54.2,188.1c10.5,22.5,18,51.1,13.5,57.1c0,0,0,1.6-1.5,1.6
			H-1782.6z"/>
		<g>
			<path class="st3" d="M-1731.5,595.7c0,132.4-1.6,263.2-7.6,395.6c-3,66.3,112.9,66.3,115.9,0c6-118.8,7.5-151.9,7.5-270.7h16.5
				c0,118.8,1.5,151.9,6,270.7c3,66.3,118.8,66.3,115.8,0c-6-132.4-7.5-263.2-7.5-395.6V343h15v227.2v7.5c0,16.6,15,30.1,33.1,30.1
				c18,0,33.1-13.5,33.1-30.1V364c-9.1-88.7-115.9-88.7-120.4-88.7h-168.5l51.1,180.5h30.1c24,0,42.1,18,42.1,40.6
				c0,21.1-18,39.1-42.1,39.1h-120.3V595.7z"/>
			<path class="st3" d="M-1608.2,64.7c57.1,0,102.3,42.1,102.3,94.8c0,52.6-45.2,94.8-102.3,94.8c-55.7,0-102.3-42.2-102.3-94.8
				C-1710.5,106.9-1663.8,64.7-1608.2,64.7"/>
			<path class="st3" d="M-1797.7,523.5h-4.5c-9,0-15-3-19.6-6c-9-9-9-19.6-9-22.6V350.6c0-1.5,4.5-33.2,37.6-54.2L-1797.7,523.5z"/>
		</g>
	</g>
</g>
<g id="Capa_8" class="st1">
	<g class="st2">
		<g>
			<path class="st3" d="M-1518.1,125.8c-8.2,2.9-10.4,13.4-4.3,19.5l39.2,39.2c33.3,33.3-17,83.7-50.4,50.4
				c-71.2-71-64.4-64.2-66.3-66.3c-179.6-139.5-448.2-18-455.6,213.9c-2.2,70.3,21.2,138.7,66,192.8
				c31.6,38.1,155.5,336.6,169.2,355.3c33.5,45.6,104.6,33.7,121.8-20.3c21.9-68.8,61.3-113.2,100.4-113.2
				c39,0,78.4,44.4,100.4,113.2c19.9,62.4,104,61.3,125.5,13.9c155.1-340.7,145.5-324.8,165.5-348.9
				C-1022.7,353.6-1247.3,28.5-1518.1,125.8z M-1834.8,447.1c19.3,23.3,2.5,58.4-27.4,58.4c-49.7,0-102.8-137.1-20.4-220.7
				c13.8-14,36.4-14.2,50.4-0.4c14,13.8,14.2,36.4,0.4,50.4C-1861.1,364.5-1862.4,413.8-1834.8,447.1z"/>
		</g>
	</g>
</g>
<g id="HOSPITALIZACIÓN_Y_CIRUGÍA" class="st1">
	<path class="st5" d="M-1654.2,157.7c16.8-50.5,85.7-52.8,107.3-6.9l2.7,6.9l176.9,530.9l61-182.9c7.2-21.5,26.1-36.7,48.3-39.3
		l6.7-0.4h58c32,0,58,26,58,58c0,29.7-22.4,54.3-51.2,57.6l-6.8,0.4h-16.2l-102.7,308.3c-16.8,50.5-85.7,52.8-107.3,6.9l-2.7-6.9
		l-176.9-530.9l-119,356.9c-16.3,48.9-82.4,53.1-105.8,9.7l-3-6.5l-64.4-160.9l-4.1,5.1c-9.2,9.9-21.7,16.3-35.4,18l-6.9,0.4h-67.3
		c-32,0-58-26-58-58c0-29.7,22.4-54.3,51.2-57.6l6.8-0.4h28.7l33.8-80.4c19.1-45.5,81.7-47.2,104.2-5.6l3.1,6.6l57.2,143
		L-1654.2,157.7z"/>
</g>
<g id="ATENCIÓN_EN_CASA" class="st1">
	<path class="st5" d="M-1355.3,187.9v143.8c0,9.7-7.9,17.6-17.6,17.6c-9.7,0-17.6-7.9-17.6-17.6V187.9c0-40.4-32.6-73.3-72.7-73.3
		h-281.4c-40.1,0-72.7,32.9-72.7,73.3v143.8c0,9.7-7.9,17.6-17.6,17.6s-17.6-7.9-17.6-17.6V187.9c0-59.8,48.4-108.5,107.9-108.5
		h281.4C-1403.7,79.5-1355.3,128.1-1355.3,187.9z"/>
	<path class="st6" d="M-1926.7,300.3h645.6c69.8,0,127,57.5,127,127.8v423.2c0,70.3-57.2,127.8-127,127.8h-645.6
		c-69.8,0-127-57.5-127-127.8V428.1C-2053.7,357.8-1996.5,300.3-1926.7,300.3L-1926.7,300.3z"/>
	<path class="st6" d="M-1154.1,639.7v211.6c0,70.3-57.2,127.8-127,127.8h-645.6c-69.8,0-127-57.5-127-127.8V639.7H-1154.1z"/>
	<path class="st7" d="M-1765.9,571.4h94.2v-94.7c0-14.2,11.6-25.9,25.7-25.9h84.3c14.2,0,25.7,11.6,25.7,25.9v94.7h94.2
		c14.1,0,25.7,11.6,25.7,25.9v84.8c0,14.2-11.6,25.9-25.7,25.9h-94.2v94.7c0,14.2-11.6,25.9-25.7,25.9h-84.3
		c-14.2,0-25.7-11.6-25.7-25.9V708h-94.2c-14.1,0-25.7-11.6-25.7-25.9v-84.8C-1791.6,583-1780.1,571.4-1765.9,571.4L-1765.9,571.4z"
		/>
	<path class="st7" d="M-1416.1,639.7v42.4c0,14.2-11.6,25.9-25.7,25.9h-94.2v94.7c0,14.2-11.6,25.9-25.7,25.9h-84.3
		c-14.2,0-25.7-11.6-25.7-25.9V708h-94.2c-14.1,0-25.7-11.6-25.7-25.9v-42.4H-1416.1z"/>
</g>
<g id="RAYOS_X" class="st1">
	<path id="XMLID_9_" class="st5" d="M-1335.1,883.5c0,24.2-19.8,43.6-43.6,43.6c-24.2,0-43.6-19.4-43.6-43.6v-38.1h87.6v38.1
		H-1335.1z M-1450.5,845.4h-290.2v142.2h124.6v-61.2h41.8v61.2h124.2V845.4H-1450.5z M-1769.7,845.4h-87.6v38.1
		c0,24.2,19.8,43.6,43.6,43.6c24.2,0,43.6-19.4,43.6-43.6v-38.1H-1769.7z M-1596,65.5c-62.3,0-112.9,50.6-112.9,112.9
		s50.6,112.9,112.9,112.9s112.9-50.6,112.9-112.9S-1533.7,65.5-1596,65.5 M-1274.6,425.7h-642.8v375.6h642.8V425.7z M-1375,770.6
		h-439.8V456.5h439.8V770.6z M-1491.2,642.3c4.8,0,8.8-4,8.8-8.8c0-4.8-4-8.8-8.8-8.8h-83.6v-27.5h94.5c4.8,0,8.8-4,8.8-8.8
		c0-4.8-4-8.8-8.8-8.8h-94.5v-27.5h88.7c4.8,0,8.8-4,8.8-8.8c0-4.8-4-8.8-8.8-8.8h-88.7v-27.5h69.3c4.8,0,8.8-4,8.8-8.8
		s-4-8.8-8.8-8.8h-69.3v-15.4h-42.9v15.4h-69.3c-4.8,0-8.8,4-8.8,8.8s4,8.8,8.8,8.8h69.3v27.5h-88.7c-4.8,0-8.8,4-8.8,8.8
		c0,4.8,4,8.8,8.8,8.8h88.3v27.5h-93.8c-4.8,0-8.8,4-8.8,8.8c0,4.8,4,8.8,8.8,8.8h94.2v27.5h-83.9c-4.8,0-8.8,4-8.8,8.8
		c0,4.8,4,8.8,8.8,8.8h83.6v27.5h-80.6c-3.3,0-8.4,2.9-8.4,8.1c0,46.9,4.4,68.9,29.3,68.9c26.8,0,31.1-57.2,59.7-59.4v53.1h42.9
		v-53.1c27.1,3.7,32.6,59.4,58.3,59.4c24.6,0,30.8-22,30.8-68.9c0-5.1-4.8-8.1-8.4-8.1h-80.6v-27.5H-1491.2z M-1464.5,319.1h-259.5
		c-46.9,0-90.5,24.9-114.7,62.3h485.6C-1376.1,344.4-1417.6,319.1-1464.5,319.1"/>
</g>
<g id="Capa_12" class="st1">
	<path class="st7" d="M-1739.8,984.1h288.6c49,0,89.1-40.1,89.1-89.1V177.5c0-49-40.1-89.1-89.1-89.1h-288.6
		c-49,0-89.1,40.1-89.1,89.1v717.6C-1828.9,944.1-1788.8,984.1-1739.8,984.1z"/>
	<g class="st2">
		<g>
			<path class="st0" d="M-1469.1,795.6h-255.4c-23,0-41.9-18.8-41.9-41.9v-490c0-23,18.8-41.9,41.9-41.9h255.4
				c23,0,41.9,18.8,41.9,41.9v490C-1427.3,776.8-1446.1,795.6-1469.1,795.6z"/>
			<path class="st3" d="M-1446,67.2h-299.8c-48.9,0-104.6,58.1-104.6,109v714.2c0,50.9,55.7,109,104.6,109h299.8
				c48.9,0,104.6-58.1,104.6-109V176.2C-1341.4,125.3-1397.1,67.2-1446,67.2z M-1365.4,890.4c0,38.9-43.7,85-80.6,85h-299.8
				c-36.9,0-80.6-46.1-80.6-85V176.2c0-38.9,43.7-85,80.6-85h299.8c36.9,0,80.6,46.1,80.6,85V890.4z"/>
			<path class="st3" d="M-1595.9,834.6c-30.2,0-54.8,24.6-54.8,54.8s24.6,54.8,54.8,54.8s54.8-24.6,54.8-54.8
				S-1565.6,834.6-1595.9,834.6z M-1595.9,936.2c-25.8,0-46.8-21-46.8-46.8c0-25.8,21-46.8,46.8-46.8c25.8,0,46.8,21,46.8,46.8
				C-1549.1,915.2-1570.1,936.2-1595.9,936.2z"/>
			<path class="st3" d="M-1458.1,214.3h-275.5c-21,0-38,17-38,38V762c0,20.9,17,38,38,38h275.5c20.9,0,38-17,38-38V252.2
				C-1420.1,231.3-1437.2,214.3-1458.1,214.3z M-1432.1,762c0,14.3-11.7,26-26,26h-275.5c-14.3,0-26-11.7-26-26V252.2
				c0-14.3,11.7-26,26-26h275.5c14.3,0,26,11.7,26,26L-1432.1,762L-1432.1,762z"/>
			<circle class="st3" cx="-1672.3" cy="160.5" r="10"/>
			<circle class="st3" cx="-1605.9" cy="160.5" r="10"/>
			<circle class="st3" cx="-1539.5" cy="160.5" r="10"/>
		</g>
	</g>
	<g class="st2">
		<circle class="st3" cx="-1593.7" cy="419.6" r="8.9"/>
		<path class="st3" d="M-1436.9,783.8v-15.3c0-35-9.3-62-27.7-80.3c-23.5-23.3-52.9-23.3-54.1-23.3h-37.4v-22.6c0-0.4,0-0.8-0.1-1.2
			c23.9-9.9,39-26.4,48.2-40.7c14.4-22.3,17.6-43.7,17.7-44.6c0.1-0.4,0.1-0.7,0.1-1.1v-1.6c5.2-1.3,9.8-4,13.4-8
			c10.6-11.7,9.9-30.1,9.2-37.5c-0.6-5.6-3.1-10.3-7.4-13.6c-3-2.4-6.6-3.7-10-4.5v-73.7c0-24.5-10.1-40.9-31-50.1
			c-8.5-3.7-6.2-11.9-5.4-14.2c1.3-3.3,0.1-7-2.9-9c-3-1.9-6.9-1.5-9.4,1c-11.8,12-24.3,11.7-47,11.1c-15.8-0.4-35.5-0.9-61.4,2.8
			c-35.6,5.1-51.4,27.1-58.3,44.6c-7,17.6-6.6,34-6.5,36.3v48.8c0,0.8,0.1,1.6,0.4,2.3c-3.5,0.7-7.3,2.1-10.4,4.6
			c-4.2,3.3-6.8,8-7.4,13.6c-0.8,7.4-1.4,25.8,9.2,37.5c3.7,4.1,8.3,6.8,13.6,8v1.6c0,0.4,0,0.7,0.1,1.1c0.1,0.9,3.4,22.3,17.7,44.6
			c9.2,14.3,24.3,30.8,48.2,40.7c-0.1,0.4-0.1,0.8-0.1,1.2v22.6h-37.3c-1.2,0-30.7,0.1-54.2,23.3c-18.4,18.3-27.7,45.3-27.7,80.3
			v15.3c0,0,20.2,15.5,24.3,15.5l257.3-0.7C-1468.9,798.7-1436.9,783.8-1436.9,783.8z M-1510.9,430.7c-0.4-0.4-2.3-1.8-6.2-3.6h17.3
			v34.6l-8.3-7.8v-17.3C-1508.1,434.3-1509.1,432.2-1510.9,430.7z M-1482.4,509.2c0.9,8.7-0.1,20.1-5.4,26c-0.7,0.8-1.5,1.4-2.3,2
			v-33.4c2.3,0.3,4.6,0.9,6.1,2C-1483.3,506.4-1482.6,507.2-1482.4,509.2z M-1639.8,372.2c24.7-3.5,43.7-3,58.9-2.7
			c17.9,0.5,32.1,0.8,44.9-5.8c1.8,6.1,6,12,14.1,15.5c14.5,6.4,21.2,16.3,22,32.9h-53.3c-3.5-19.2-20.3-33.7-40.5-33.7
			c-20.2,0-37,14.6-40.5,33.7h-54C-1682.9,395.7-1670.1,376.6-1639.8,372.2z M-1691.8,462v-23.8c0-0.1,0-0.3,0-0.4
			c0-0.6-0.2-4.7,0.5-10.7h17.1c-3.9,1.8-5.8,3.3-6.2,3.6c-1.7,1.4-2.7,3.5-2.7,5.8v17.3L-1691.8,462z M-1567.4,419.6
			c0,14.5-11.8,26.3-26.3,26.3c-14.5,0-26.3-11.8-26.3-26.3c0-14.5,11.8-26.3,26.3-26.3C-1579.2,393.4-1567.4,405.2-1567.4,419.6z
			 M-1703.9,535.2c-5.3-5.9-6.3-17.3-5.4-26c0.2-2,1-2.8,1.7-3.4c1.5-1.2,3.9-1.8,6.3-2v33.5C-1702.3,536.7-1703.1,536-1703.9,535.2
			z M-1670.7,592.9c-11.7-17.9-15.2-35.6-15.7-38.7v-76.7l15.9-14.9c1.5-1.4,2.3-3.4,2.3-5.4v-16.3c4.6-2.2,15.2-6.3,35.3-8.7
			c5.3,16.6,20.9,28.7,39.2,28.7c18.2,0,33.7-11.9,39.1-28.3c17.7,2.4,27.3,6.1,31.6,8.2v16.3c0,2.1,0.8,4,2.3,5.4l15.6,14.7v77
			c-0.5,3.1-4.1,20.8-15.7,38.7c-16.7,25.7-41.7,39.8-74.3,41.9h-1.4C-1629,632.6-1654,618.5-1670.7,592.9z M-1597.2,649.7
			c0.2,0,0.3,0,0.5,0h1.9c0.2,0,0.3,0,0.5,0c8.5-0.5,16.2-1.8,23.3-3.6v26.3c0,3,1.8,5.6,4.4,6.8l-31,31.9l-27.9-31.7
			c2.9-1,5-3.8,5-7v-26.3C-1613.4,647.9-1605.6,649.2-1597.2,649.7z M-1739.7,768.5c0-87.7,64.2-88.7,66.9-88.7h27.8l41.6,47.2
			c1.4,1.6,3.3,2.5,5.4,2.5c0.1,0,0.1,0,0.2,0c2,0,3.9-0.8,5.4-2.3l46.1-47.4h27.8c0.3,0,24.4,0,43.5,19
			c15.5,15.4,23.3,38.8,23.3,69.7v15.3h-181.6v-41.9c0-4.1-3.3-7.5-7.5-7.5h-66.3c-4.1,0-7.5,3.3-7.5,7.5v41.9h-25.1V768.5z
			 M-1648.3,757.6h-51.4v-8.3h51.4V757.6z M-1699.7,772.6h51.4v11.3h-51.4C-1699.7,783.8-1699.7,772.6-1699.7,772.6z"/>
		<circle class="st3" cx="-1648.7" cy="492.8" r="8.9"/>
		<circle class="st3" cx="-1542.8" cy="492.8" r="8.9"/>
		<path class="st3" d="M-1597.7,545.2h3.8c9.6,0,17.5-7.6,17.9-17.1c0-0.3,0-0.5,0-0.8v-43.4c0-4.1-3.3-7.5-7.5-7.5
			s-7.5,3.3-7.5,7.5v43.4c0,1.6-1.3,3-3,3h-3.8c-1.6,0-3-1.3-3-3c0-4.1-3.3-7.5-7.5-7.5s-7.5,3.3-7.5,7.5
			C-1615.6,537.2-1607.6,545.2-1597.7,545.2z"/>
		<path class="st3" d="M-1549.5,585c2.6-3.2,2.1-7.9-1.1-10.5c-3.2-2.6-7.9-2.1-10.5,1.1c-0.1,0.1-9,9.9-32.8,9.9
			c-24.7,0-36.7-10.2-37.3-10.8c-3-2.7-7.7-2.5-10.5,0.5c-2.8,3-2.6,7.8,0.5,10.5c0.7,0.6,16.4,14.6,47.3,14.6
			C-1562.9,600.4-1550.8,586.6-1549.5,585z"/>
	</g>
</g>
<g id="Capa_7" class="st1">
	<g class="st2">
		<path class="st3" d="M-477.1,573.1c0,24.1,0,48.2,0,72.3c0,12.3,10,19.9,21.9,16.8c7-1.8,11.5-7.2,11.9-14.5c0-0.2,0-0.4,0-0.5
			c0.3-46.7,1-93.5,0.8-140.2c-0.2-43.8-29.8-62-60.7-67.4c-12.7-2.2-25.4-1.6-37.8,2c-28.1,8.2-46.1,30.6-47.3,59.7
			c-0.6,14.7-0.4,29.4-0.1,44.1c0.3,12.7,10.6,19.8,22.7,16.2c7.4-2.2,11.6-8,11.4-16.6c-0.2-9.7-0.9-19.5-1-29.2
			c-0.1-5.3,0.4-10.6,1.2-15.8c2-13.5,9.7-22,23.2-25c13.1-2.9,26-2.8,38.5,2.7c9.8,4.3,15.2,11.8,15.2,22.8
			C-477.1,524.6-477.1,548.8-477.1,573.1z"/>
		<path class="st3" d="M-554.1,725.3c0-22.1,0.1-44.3,0-66.4c-0.1-13.4-11.9-21.3-24.2-16.3c-5.3,2.1-8.7,6-9.6,11.7
			c-0.3,2.3-0.5,4.6-0.5,6.9c-0.4,38.8-0.8,77.6-1,116.3c0,8.3,0.8,16.6,1.9,24.8c1.7,11.9,7.5,21.9,16.1,30.4
			c26.9,26.6,75.6,29.6,105.6,6.4c13.8-10.7,21.5-24.7,22.5-42.2c0.6-10.6,0.8-21.2,0.8-31.8c0-11.3-6.6-18.1-17-18.1
			c-10.6,0-17.4,7.1-17.3,18.5c0,7.1,0.7,14.2,0.5,21.2c-0.5,19-8.9,29.1-27.6,32.6c-12.1,2.2-24,1.3-35.2-4.5
			c-9.8-5.1-15.1-12.9-15-24.3C-554,768.9-554.1,747.1-554.1,725.3z"/>
		<path class="st3" d="M-388.2,615.1c6.9,0,13.8,0,20.7,0c20.3,0,31.7,9.4,34.7,29.6c1.5,10.3,0.6,20.5-3.3,30.3
			c-4.2,10.7-11.6,17.2-23.6,17.2c-16.8,0-33.7,0-50.5,0.1c-9.1,0.1-14.7,4.7-16.5,13.4c-2.3,11,5,20.3,16.2,20.6
			c14.5,0.4,29,1.2,43.6,1c44.5-0.6,74.8-36.6,68.6-80.9c-2.1-15.2-6.5-29.3-15.6-41.8c-10.9-14.8-25.7-22.9-43.8-23.6
			c-19.8-0.7-39.6-0.4-59.5,0c-9.6,0.2-15.5,7.5-15.3,17.5c0.1,9.6,6.1,16.2,15.7,16.5C-407.4,615.3-397.8,615.1-388.2,615.1
			C-388.2,615.1-388.2,615.1-388.2,615.1z"/>
		<path class="st3" d="M-644,615c8.5,0,17,0.1,25.5,0c11-0.1,17.6-6.5,17.7-16.8c0-10.3-6.7-17-17.5-17.2c-15-0.4-30.1-1.1-45.1-1
			c-47.4,0.4-78.6,37.7-71.6,84.8c2.4,15.8,7.4,30.2,18,42.3c12.6,14.3,29.3,19.6,47.5,20c16.1,0.4,32.2-0.3,48.3-0.9
			c8.7-0.3,14.6-7.8,14.4-17.2c-0.2-9.5-6.2-16.3-15.2-16.4c-14-0.2-28-0.1-42,0.1c-24,0.3-36.1-10.4-37.6-34.5
			c-0.4-6.6,0.5-13.5,2.3-19.9c4.5-16,14.5-23.1,31.2-23.2C-659.9,614.9-652,615-644,615z"/>
		<path class="st3" d="M-477.2,709.6c0,10.2,6.5,16.9,16.3,17c9.8,0,16.5-6.7,16.5-16.7c0.1-10.3-6.7-17.4-16.6-17.3
			C-470.6,692.6-477.2,699.5-477.2,709.6z"/>
		<path class="st3" d="M-554.9,598.2c0-10.1-6.5-17.1-16.2-17.2c-9.6-0.1-16.5,7-16.6,16.9c-0.1,10.1,6.5,17,16.3,17.1
			C-561.5,615-555,608.3-554.9,598.2z"/>
	</g>
	<desc></desc>
</g>
<g id="Capa_13" class="st1">
	<circle class="st7" cx="-676.3" cy="520.6" r="172.1"/>
	<path class="st5" d="M130.3,72.3h-279.8h-258.2h-279.8c-35.6,0-64.5,28.9-64.5,64.5v473.5c0,35.5,28.9,64.5,64.5,64.5h817.8
		c35.6,0,64.5-28.9,64.5-64.5V136.8C194.8,101.3,165.9,72.3,130.3,72.3z M-192.5,72.3 M151.8,610.3c0,11.8-9.6,21.5-21.5,21.5
		h-817.8c-11.8,0-21.5-9.6-21.5-21.5V136.8c0-11.8,9.6-21.5,21.5-21.5h817.8c11.8,0,21.5,9.6,21.5,21.5V610.3z"/>
	<path class="st5" d="M-676.3,714.3c-106.8,0-193.7-86.9-193.7-193.7s86.9-193.7,193.7-193.7s193.7,86.9,193.7,193.7
		S-569.5,714.3-676.3,714.3z M-676.3,370c-83.1,0-150.6,67.6-150.6,150.6s67.6,150.6,150.6,150.6s150.6-67.6,150.6-150.6
		S-593.2,370-676.3,370z"/>
	<path class="st8" d="M-611.7,488.3H-644V456c0-17.8-14.4-32.3-32.3-32.3s-32.3,14.4-32.3,32.3v32.3h-32.3
		c-17.8,0-32.3,14.4-32.3,32.3c0,17.8,14.4,32.3,32.3,32.3h32.3v32.3c0,17.8,14.4,32.3,32.3,32.3S-644,603-644,585.1v-32.3h32.3
		c17.8,0,32.3-14.4,32.3-32.3C-579.4,502.7-593.9,488.3-611.7,488.3z"/>
	<path class="st5" d="M87.2,266h-279.7c-11.9,0-21.5-9.6-21.5-21.5s9.6-21.5,21.5-21.5H87.2c11.9,0,21.5,9.6,21.5,21.5
		C108.7,256.4,99.1,266,87.2,266z"/>
	<path class="st5" d="M-332,499.1h-64.6c-11.9,0-21.5-9.6-21.5-21.5c0-11.9,9.6-21.5,21.5-21.5h64.6c11.9,0,21.5,9.6,21.5,21.5
		S-320.1,499.1-332,499.1z"/>
	<path class="st5" d="M87.2,352.1H-41.9c-11.9,0-21.5-9.6-21.5-21.5c0-11.9,9.6-21.5,21.5-21.5H87.2c11.9,0,21.5,9.6,21.5,21.5
		S99.1,352.1,87.2,352.1z"/>
	<path class="st5" d="M87.2,438.1h-279.7c-11.9,0-21.5-9.6-21.5-21.5c0-11.9,9.6-21.5,21.5-21.5H87.2c11.9,0,21.5,9.6,21.5,21.5
		C108.7,428.5,99.1,438.1,87.2,438.1z"/>
	<path class="st5" d="M44.2,524.2h-236.7c-11.9,0-21.5-9.6-21.5-21.5s9.6-21.5,21.5-21.5H44.2c11.9,0,21.5,9.6,21.5,21.5
		S56.1,524.2,44.2,524.2z"/>
</g>
<g id="Capa_14" class="st1">
	<g class="st2">
		<g>
			<path class="st0" d="M-264.8,295.5c82.7-55.4,185.6-124.4,185.6-262.7C-79.2-73.5-165.7-160-272-160c-43.7,0-85,14.3-118.7,40.8
				c-33.7-26.5-75-40.8-118.7-40.8c-106.3,0-192.8,86.5-192.8,192.8c0,138.8,102.1,207.4,184.2,262.5c46.1,31,89.7,60.2,100.5,93.2
				c3.8,11.6,14.6,19.3,26.7,19.3c0.2,0,0.4,0,0.6,0c12.3-0.3,23.1-8.5,26.5-20.4C-354.6,355.7-310.9,326.4-264.8,295.5z
				 M-505.5-75.5C-561.5-59.5-599-11.7-599,43.2c0,18.9,4.4,37,13.1,53.9c2.2,4.3,1.2,9.6-2.4,12.9c-2,1.8-4.6,2.7-7.1,2.7
				c-2.1,0-4.1-0.6-5.9-1.8c-32.5-21.6-51.9-56.9-51.9-94.5c0-63.5,54.5-115.2,121.5-115.2c8.6,0,17.1,0.9,25.5,2.5
				c4.8,1,8.4,5.1,8.6,10.1C-497.6-81.3-500.8-76.9-505.5-75.5z"/>
			<path class="st0" d="M-473.4,751.9c-4-9.9-8.6-19.7-13.5-29.1c-32-61.8-75.9-103-118.3-142.9c-12-11.2-27.2-28.8-43.3-47.4
				c-23.6-27.1-47.9-55.2-64.3-65.9c-14.8-9.7-27-10-36-0.8c-13.2,13.4-9.3,38.3,12.7,80.8c14.7,28.4,36,61.9,58.6,97.3
				c3.6,5.7,7.3,11.5,11,17.3c-40-43.7-69.3-83.5-87.4-118.4c-20.7-40.1-25-71-11.9-87.2c9.2-11.4,26.8-14.2,49.5-8l3.4,0.9
				l-0.8-3.4c-0.4-1.8-42.4-176.5-51.2-209.6c-1.9-7.3-4.7-14.3-8.1-20.9c-12.2-23.6-31.5-37.9-45.9-34.1
				c-6.9,1.9-18.4,9.8-16.9,41.7l21.8,275.8c1.1,9,1.9,18.4,2.7,28.4c2.5,30.6,5.2,62.2,17.7,86.3c5.2,10.1,11.2,19.1,18.4,27.8
				c13,15.5,49,53,87.1,92.7c37.1,38.6,75.5,78.6,89.6,95.3c11,13.1,20.5,27.5,29.1,44.1c6.9,13.4,12.7,27.2,17.9,41.3h134.2l-2-6.9
				C-435.3,852.5-453,801.6-473.4,751.9z"/>
			<path class="st0" d="M37.7,180.7C23.3,176.8,4,191.1-8.2,214.7c-3.4,6.6-6.1,13.6-8.1,20.9c-8.9,33.1-50.8,207.8-51.2,209.6
				l-0.8,3.4l3.4-0.9c22.7-6.3,40.3-3.4,49.5,8c13.1,16.1,8.9,47.1-11.9,87.2c-18.1,34.9-47.4,74.7-87.4,118.4
				c3.7-5.8,7.4-11.6,11-17.3c22.6-35.4,43.9-68.9,58.6-97.3c22-42.5,25.9-67.4,12.7-80.8c-9.1-9.2-21.2-8.9-36,0.8
				c-16.4,10.7-40.7,38.8-64.3,65.9c-16.1,18.6-31.4,36.2-43.3,47.4c-42.5,39.9-86.4,81.1-118.3,142.9c-4.9,9.4-9.4,19.2-13.5,29.1
				c-20.3,49.7-38,100.6-54.2,155.4l-2,6.9h134.2c5.2-14.1,11-27.9,17.9-41.3c8.6-16.6,18.1-31,29.1-44.1
				c14-16.7,52.4-56.6,89.6-95.3c38.1-39.7,74.2-77.2,87.1-92.7C1,632.1,7.1,623.1,12.3,613c12.5-24.2,15.1-55.8,17.7-86.3
				c0.8-10,1.6-19.4,2.7-28.4l21.8-275.8C56.1,190.4,44.6,182.5,37.7,180.7z"/>
		</g>
	</g>
</g>
<g id="Capa_15" class="st1">
	<path class="st5" d="M-265.5,74c21.2,0,38.4,17.3,38.4,38.4v120.8c0,21.2-17.3,38.4-38.4,38.4c-21.2,0-38.4-17.3-38.4-38.4V112.4
		C-303.9,91.2-286.7,74-265.5,74"/>
	<path class="st5" d="M20.1,38.3V87c0,44.7-36.9,81.6-81.6,81.6c-44.7,0-81.6-36.9-81.6-81.6V38.3h-318.5V87
		c0,44.7-36.9,81.6-81.6,81.6c-45.5,0-81.6-36.9-81.6-81.6V38.3h-120v202.4v596.1h884.8V241.5V38.3H20.1z M92.3,614.1L-83.4,787.4
		h-613.4V241.5H92.3V614.1z"/>
	<path class="st5" d="M-747.1,74c21.2,0,38.4,17.3,38.4,38.4v120.8c0,21.2-17.3,38.4-38.4,38.4c-21.2,0-38.4-17.3-38.4-38.4V112.4
		C-785.6,91.2-768.3,74-747.1,74"/>
	<path class="st5" d="M-265.5,74c21.2,0,38.4,17.3,38.4,38.4v120.8c0,21.2-17.3,38.4-38.4,38.4c-21.2,0-38.4-17.3-38.4-38.4V112.4
		C-303.9,91.2-286.7,74-265.5,74"/>
</g>
<g id="Capa_16" class="st1">
	<g class="st2">
		<rect x="-733.7" y="195.5" class="st9" width="816.7" height="653.4"/>
		<path class="st9" d="M83,195.5h-816.7v163.3c0,60.1,48.8,108.9,108.9,108.9h598.9C34.2,467.7,83,418.9,83,358.8V195.5z"/>
		<path class="st10" d="M-543.2,195.5V86.6c0-30.1,24.4-54.4,54.4-54.4H-162c30.1,0,54.4,24.4,54.4,54.4v108.9"/>
		<path class="st4" d="M-325.4,576.6L-325.4,576.6c-30.1,0-54.4-24.4-54.4-54.4V413.3c0-30.1,24.4-54.4,54.4-54.4l0,0
			c30.1,0,54.4,24.4,54.4,54.4v108.9C-270.9,552.2-295.3,576.6-325.4,576.6z"/>
		<line class="st11" x1="-270.9" y1="467.7" x2="-379.8" y2="467.7"/>
	</g>
</g>
<g id="Capa_17" class="st1">
	<g class="st2">
		<g>
			<path class="st12" d="M580.1,344.3c0,31.5-0.1,63,0,94.4c0.1,16.1,13,26,28.6,22c9.2-2.3,15-9.4,15.6-18.9c0-0.2,0-0.5,0-0.7
				c0.4-61.1,1.3-122.2,1.1-183.3c-0.3-57.3-39-81-79.3-88.2c-16.6-2.9-33.2-2.1-49.4,2.6c-36.7,10.7-60.3,39.9-61.9,78
				c-0.8,19.2-0.6,38.4-0.1,57.6c0.4,16.7,13.9,25.9,29.7,21.1c9.6-2.9,15.1-10.5,14.9-21.7c-0.2-12.7-1.2-25.4-1.4-38.1
				c-0.1-6.9,0.5-13.9,1.6-20.7c2.6-17.7,12.6-28.8,30.3-32.7c17.1-3.7,34-3.6,50.3,3.5c12.9,5.6,19.9,15.4,19.9,29.7
				C580.1,280.9,580.1,312.6,580.1,344.3z"/>
			<path class="st13" d="M479.6,543.3c0-28.9,0.1-57.9,0-86.8c-0.1-17.5-15.5-27.8-31.7-21.3c-6.9,2.8-11.4,7.8-12.5,15.3
				c-0.4,3-0.7,6-0.7,9c-0.5,50.7-1.1,101.4-1.2,152c0,10.8,1,21.7,2.5,32.5c2.2,15.6,9.8,28.7,21,39.8c35.2,34.8,98.8,38.7,138,8.4
				c18-14,28.1-32.3,29.4-55.1c0.7-13.9,1-27.7,1.1-41.6c0.1-14.8-8.6-23.7-22.2-23.7c-13.9,0-22.7,9.3-22.6,24.2
				c0,9.3,1,18.5,0.7,27.7c-0.7,24.9-11.7,38.1-36.1,42.6c-15.8,2.9-31.4,1.6-46-5.9c-12.8-6.6-19.7-16.9-19.6-31.7
				C479.7,600.2,479.6,571.7,479.6,543.3z"/>
			<path class="st12" d="M696.3,399.2c9,0,18.1,0,27.1,0c26.6,0,41.4,12.3,45.3,38.7c2,13.4,0.7,26.8-4.3,39.6
				c-5.5,14-15.1,22.5-30.9,22.5c-22,0-44,0-66,0.1c-11.9,0.1-19.2,6.1-21.6,17.5c-3,14.4,6.5,26.5,21.2,26.9
				c19,0.5,38,1.5,56.9,1.3c58.2-0.7,97.8-47.8,89.6-105.7c-2.8-19.8-8.5-38.3-20.5-54.6c-14.2-19.3-33.6-29.9-57.3-30.8
				c-25.9-1-51.8-0.5-77.7,0c-12.5,0.2-20.2,9.7-20,22.8c0.2,12.6,8,21.2,20.5,21.6C671.3,399.5,683.8,399.2,696.3,399.2
				C696.3,399.2,696.3,399.2,696.3,399.2z"/>
			<path class="st13" d="M362,399.1c11.1,0,22.2,0.1,33.3,0c14.4-0.2,23-8.5,23.1-22c0-13.4-8.8-22.2-22.8-22.5
				c-19.7-0.5-39.3-1.5-59-1.3c-62,0.5-102.8,49.3-93.5,110.8c3.1,20.6,9.6,39.5,23.6,55.3c16.5,18.7,38.2,25.6,62.1,26.2
				c21,0.5,42.1-0.4,63.1-1.2c11.4-0.5,19.1-10.2,18.8-22.5c-0.2-12.4-8.1-21.3-19.8-21.5c-18.3-0.2-36.6-0.1-54.8,0.2
				c-31.4,0.4-47.2-13.6-49.1-45.1c-0.5-8.6,0.7-17.7,3-26c5.9-21,19-30.2,40.8-30.3C341.2,399,351.6,399.1,362,399.1z"/>
			<path class="st12" d="M580,522.8c0,13.3,8.5,22.1,21.3,22.2c12.8,0.1,21.5-8.8,21.6-21.9c0.1-13.5-8.8-22.7-21.7-22.6
				C588.6,500.5,580,509.6,580,522.8z"/>
			<path class="st13" d="M478.4,377.1c0.1-13.2-8.5-22.4-21.1-22.5c-12.5-0.1-21.6,9.1-21.7,22.1c-0.1,13.2,8.5,22.2,21.3,22.3
				C469.8,399.1,478.4,390.4,478.4,377.1z"/>
		</g>
		<g>
			<path class="st13" d="M126.9,847.8v50c-13.7,10.5-34.1,17.6-52.7,17.6c-40.1,0-71.3-30-71.3-68.7s31.6-68.3,72.6-68.3
				c19.4,0,38.7,7.4,52.1,19l-13,16.8c-10.5-9.7-25-15.5-39.1-15.5c-27.7,0-49.4,21.1-49.4,48c0,27.1,21.9,48.2,49.6,48.2
				c10.1,0,21.5-3.5,31.2-9.3v-37.8H126.9z"/>
			<path class="st13" d="M213.4,873.3c-1.9,0.2-4.1,0.2-6.2,0.2h-32.1v40.9h-22.8V778.9h55c34.7,0,54.6,16.8,54.6,46.3
				c0,21.7-10.1,37-28.1,44l30.4,45.3h-25.9L213.4,873.3z M207.2,853c20.9,0,32.9-8.9,32.9-27.3c0-17.8-12-26.3-32.9-26.3h-32.1V853
				H207.2z"/>
			<path class="st13" d="M400.4,858.2c0,35.4-22.3,57.1-58.9,57.1s-59.1-21.7-59.1-57.1v-79.4h22.8v79.4c0,22.8,14.1,36.6,36.4,36.6
				c22.1,0,35.8-13.6,35.8-36.6v-79.4h22.8V858.2z"/>
			<path class="st13" d="M480.2,778.9c34.1,0,53.6,16.8,53.6,46.3c0,30.6-19.6,48.4-53.6,48.4H449v40.9h-22.8V778.9H480.2z M449,853
				h30.2c20.9,0,32.7-8.9,32.7-27.3c0-17.8-11.8-26.3-32.7-26.3H449V853z"/>
			<path class="st13" d="M681.9,846.6c0,38.7-31.4,68.7-71.8,68.7c-40.5,0-71.8-30-71.8-68.7c0-38.9,31.4-68.3,71.8-68.3
				C650.6,778.3,681.9,807.9,681.9,846.6z M561.5,846.6c0,26.9,22.3,48.2,48.8,48.2c26.5,0,48.2-21.3,48.2-48.2
				c0-26.9-21.7-47.8-48.2-47.8C583.6,798.8,561.5,819.7,561.5,846.6z"/>
			<path class="st13" d="M760.5,793.8v44.5h68.3v14.9h-68.3v46.5h79v14.7H745V778.9h92v14.9H760.5z"/>
			<path class="st13" d="M915,778.9c33.5,0,52.9,16.6,52.9,45.5c0,30-19.4,47.2-52.9,47.2h-35.4v42.8h-15.5V778.9H915z M879.6,856.7
				h34.8c24.4,0,38.5-10.8,38.5-31.9c0-20.5-14.1-31-38.5-31h-34.8V856.7z"/>
			<path class="st13" d="M1069.9,790.9l-6.6,14.5c-12.2-8.1-26.5-11.4-37.4-11.4c-17.4,0-28.9,6.6-28.9,18
				c0,34.9,76.3,16.6,76.1,65.8c0,22.7-19.9,37.2-49,37.2c-19.7,0-39.1-8.5-51.9-20.7l7-13.9c12.6,12.2,29.8,19.2,45.1,19.2
				c19.6,0,31.8-7.9,31.8-20.9c0.2-35.6-76.1-16.7-76.1-65.2c0-21.3,18.8-35,46.9-35C1042.6,778.3,1058.7,783.3,1069.9,790.9z"/>
		</g>
		<path class="st14" d="M634.2,724.1c-1.3-1.3-2.7-2.7-4-4C633.6,719.3,635,720.7,634.2,724.1z"/>
	</g>
</g>
<g id="Capa_18" class="st1">
	
		<image style="overflow:visible;" width="61" height="52" xlink:href="../../../../../../Users/florianaelsegood/Desktop/Captura de pantalla 2022-01-16 a la(s) 16.53.03.png"  transform="matrix(23.887 0 0 23.887 -249.0789 -27.0567)">
	</image>
	<g class="st2">
		<rect x="23.9" y="2.9" class="st15" width="579.5" height="1064.3"/>
		<rect x="591.4" y="275.4" class="st15" width="467.4" height="783.7"/>
		<rect x="110.7" y="494.9" class="st15" width="147.7" height="221.6"/>
		<rect x="357.6" y="502.8" class="st15" width="140.7" height="211"/>
		<rect x="150.1" y="822.9" class="st15" width="315.4" height="248.3"/>
		<rect x="691.5" y="428.5" class="st15" width="252.8" height="190.4"/>
		<rect x="692.3" y="758.6" class="st15" width="252.8" height="190.4"/>
		<polygon class="st15" points="465.5,196.1 347.2,196.1 347.2,109.4 252.6,109.4 252.6,196.1 126.4,196.1 126.4,310.4 252.6,310.4 
			252.6,397.1 347.2,397.1 347.2,310.4 465.5,310.4 		"/>
	</g>
</g>
<g id="Capa_19">
	
		<image style="display:none;overflow:visible;" width="55" height="52" xlink:href="../../../../../../Users/florianaelsegood/Desktop/Captura de pantalla 2022-01-16 a la(s) 16.53.08.png"  transform="matrix(21.1175 0 0 21.1175 -87.0627 -6.0546)">
	</image>
	<path class="st16" d="M796.9,218.3c0,54.5-4.5,385.8-4.5,385.8S526,1052.4,420.2,1058c-69.8,3.7-276.5-288.9-352.7-395.3
		c-18.9-26.3-30-57.4-32-89.8c-5.5-87.1-14.6-265.7-1.1-336.5c183.6,0,306.1-135,356-202.8c11.4-15.4,34.8-13.9,44.3,2.7
		C471.9,101.4,571.4,221.6,796.9,218.3z"/>
	<polyline class="st17" points="225,508.8 361.2,645 592.6,386.2 	"/>
</g>
<g id="Lineas">
</g>
</svg>
