<svg width="1080" height="1080" viewBox="0 0 1080 1080" fill="none" xmlns="http://www.w3.org/2000/svg">
<g clip-path="url(#clip0_207_2)">
<path d="M943.1 105.6H633.1C607.4 105.6 586.6 126.4 586.6 152.1V322.6C586.6 348.3 607.4 369.1 633.1 369.1V420.1C633.1 429.9 644.9 434.8 651.9 427.9L710.7 369.1H943.2C968.9 369.1 989.7 348.3 989.7 322.6V152.1C989.6 126.4 968.8 105.6 943.1 105.6Z" fill="white"/>
<path d="M570.9 706.4C571 718.2 564.3 729 553.8 733.8C502.3 757.5 431.8 772.1 354 772.1C276.2 772.1 205.7 757.5 154.2 733.8C143.7 729 137 718.2 137.1 706.4C139.2 484.4 179.6 291.6 354 291.6C528.4 291.6 568.8 484.4 570.9 706.4Z" fill="white"/>
<path d="M589 837.7L450.7 780C439.1 775.2 431.6 763.9 431.6 751.4V714H276.6V751.5C276.6 764 269.1 775.3 257.5 780.1L119.2 837.7C101.9 844.9 90.6 861.9 90.6 880.6V942.6C90.6 959.7 104.5 973.6 121.6 973.6H586.6C603.7 973.6 617.6 959.7 617.6 942.6V880.6C617.6 861.8 606.3 844.9 589 837.7Z" fill="white"/>
<path d="M431.6 714H276.6V751.5C276.6 764 269.1 775.3 257.5 780.1L235.9 789.1C401.2 831.2 431.6 714 431.6 714Z" fill="white"/>
<path d="M589 837.7L486.8 795.1C420 879 354.1 896.1 354.1 896.1C354.1 896.1 288.2 879 221.4 795.1L119.2 837.7C101.9 844.9 90.6 861.9 90.6 880.6V942.6C90.6 959.7 104.5 973.6 121.6 973.6H586.6C603.7 973.6 617.6 959.7 617.6 942.6V880.6C617.6 861.8 606.3 844.9 589 837.7Z" fill="#00D9B2"/>
<path d="M509.1 508.6L496.6 646.4C494.7 666.8 482.9 685 465 695L384.3 739.8C365.6 750.2 342.8 750.2 324.1 739.8L243.3 695C225.4 685 213.5 666.8 211.7 646.4L199.2 508.6C199.2 508.6 369.7 493.1 447.2 446.6C447.1 446.6 462.6 493.1 509.1 508.6Z" fill="white"/>
<path d="M532.4 539.6H506.3L497.8 632.6H532.3C540.9 632.6 547.8 625.7 547.8 617.1V555.1C547.9 546.5 540.9 539.6 532.4 539.6Z" fill="white"/>
<path opacity="0.1" d="M201.9 539.6H175.8C167.2 539.6 160.3 546.5 160.3 555.1V617.1C160.3 625.7 167.2 632.6 175.8 632.6H210.3L201.9 539.6Z" fill="white"/>
<path d="M166.1 897.6L103.9 848.1C95.6 856.6 90.6 868.2 90.6 880.6V942.6C90.6 959.7 104.5 973.6 121.6 973.6H183.6V933.9C183.6 919.8 177.2 906.5 166.1 897.6Z" fill="#00D9B2"/>
<path d="M617.6 942.6V880.6C617.6 868.3 612.7 856.8 604.5 848.3L542.1 897.6C531.1 906.4 524.6 919.8 524.6 933.9V973.6H586.6C603.7 973.6 617.6 959.7 617.6 942.6Z" fill="#00D9B2"/>
<path d="M336.5 745C340.4 746.1 344.5 746.9 348.5 747.3L324.3 706.9C313.3 688.6 306.7 668 304.9 646.7L294 555.7C293 547.6 298.5 540.2 306.5 538.7C347.9 530.6 394.2 519 431.6 502.8C444.2 521 464.9 542.4 496.7 553L500 554.1L504.9 554.8L509.1 508.6C462.6 493.1 447.1 446.6 447.1 446.6C369.6 493.1 199.1 508.6 199.1 508.6L201.9 539.5L211.6 646.5C212.1 651.6 213.2 656.6 214.8 661.3C217.7 669.6 222.4 677 228.3 683.4C232.6 688 237.6 692 243.2 695.1L323.9 739.9C327.5 741.9 331.3 743.4 335.1 744.6C335.6 744.7 336.1 744.9 336.5 745Z" fill="white"/>
<path d="M486.8 795.1C420 879 354.1 896.1 354.1 896.1C354.1 896.1 288.2 879 221.4 795.1L185.3 810.2C266.3 913.6 343.7 937 347.1 938L354.1 940L361.1 938C364.5 937 441.9 913.6 522.9 810.1L486.8 795.1Z" fill="#00D9B2"/>
<path d="M594.6 824.3L461.2 768.7C499.4 761.8 534.6 751.1 563.7 737.4C577.1 731.1 585.7 717.6 585.6 702.9C584.3 520.1 558.8 277 354.1 277C149.4 277 123.9 520.1 122.6 702.9C122.5 717.6 131.1 731.1 144.5 737.4C173.6 751 208.9 761.7 247 768.7L113.6 824.3C90.8 833.8 76 855.9 76 880.6V942.6C76 967.7 96.4 988.1 121.5 988.1H586.5C611.6 988.1 632 967.7 632 942.6V880.6C632.1 855.9 617.4 833.8 594.6 824.3ZM510.1 933.9V959H198.1V933.9C198.1 915.3 189.8 897.9 175.2 886.2L129 849.2L218.6 811.9C218.6 812 218.7 812 218.7 812.1C283 892.5 347.8 909.4 350.5 910.1C351.7 910.4 352.8 910.5 354 910.5C355.2 910.5 356.4 910.4 357.5 910.1C360.2 909.4 425 892.5 489.3 812.1C489.3 812 489.4 812 489.4 811.9L579 849.2L532.8 886.2C518.4 897.9 510.1 915.3 510.1 933.9ZM513.7 618.1L519.5 554.2H524.5C533.6 554.2 541 561.6 541 570.7V601.7C541 610.8 533.6 618.2 524.5 618.2L513.7 618.1ZM483.7 627.9C471.8 638.4 434.2 664.6 354.1 664.6C346.1 664.6 339.6 671.1 339.6 679.1C339.6 687.1 346.1 693.6 354.1 693.6C409.7 693.6 447.8 681.9 472.5 669.7C468.6 674.8 463.7 679.1 457.9 682.3L377.2 727.1C362.8 735.1 345.5 735.1 331.1 727.1L250.4 682.3C236.7 674.7 227.6 660.8 226.2 645.1L214.9 521.6C255.5 517 370.9 501.5 440.4 466.8C448.8 482.1 465.2 505 493.6 518.1L483.7 627.9ZM291.1 751.4V738.2L316.9 752.5C328.5 759 341.3 762.2 354.1 762.2C366.9 762.2 379.6 759 391.3 752.5L417.1 738.2V751.4C417.1 769.8 428.1 786.3 445.1 793.4L461.6 800.3C413.8 857.4 367 876.5 354.1 880.9C341.1 876.5 294.8 857.8 246.7 800.3L263.2 793.4C280.1 786.4 291.1 769.9 291.1 751.4ZM551.4 711.1C522 724.8 485.7 735.4 446.1 741.8V722.1L472 707.7C494.2 695.4 508.8 673 511 647.7L511.1 647.1H524.6C536.1 647.1 546.6 642.8 554.7 635.7C555.8 657 556.4 679.5 556.6 703.1C556.6 706.5 554.6 709.6 551.4 711.1ZM354.1 306.1C429.2 306.1 481.6 343.6 514.4 420.6C527.2 450.6 537 486.7 543.9 529.4C538 526.6 531.5 525.1 524.5 525.1H522.1L523.5 509.9C524.1 503.2 520 496.9 513.6 494.8C474.9 481.9 460.9 442.3 460.8 442C459.4 437.8 456.2 434.5 452.1 433C448 431.5 443.4 431.9 439.6 434.2C365.9 478.4 199.4 494 197.8 494.2C189.8 494.9 183.9 502 184.6 510L186 525.2H183.6C176.7 525.2 170.1 526.8 164.2 529.5C171.1 486.8 180.9 450.7 193.7 420.7C226.6 343.6 279 306.1 354.1 306.1ZM194.5 618.1H183.6C174.5 618.1 167.1 610.7 167.1 601.6V570.6C167.1 561.5 174.5 554.1 183.6 554.1H188.6L194.5 618.1ZM151.6 703.1C151.8 679.5 152.4 657 153.5 635.7C161.5 642.8 172.1 647.1 183.6 647.1H197.1L197.2 647.7C199.5 672.9 214.1 695.4 236.3 707.7L262.2 722.1V741.8C222.6 735.4 186.3 724.8 156.9 711.1C153.6 709.6 151.6 706.5 151.6 703.1ZM105.1 942.6V880.6C105.1 876.6 105.8 872.7 107.2 869.1L157 909C164.6 915.1 169 924.2 169 934V959.1H121.5C112.5 959.1 105.1 951.7 105.1 942.6ZM603.1 942.6C603.1 951.7 595.7 959.1 586.6 959.1H539.1V934C539.1 924.2 543.5 915.1 551.1 909L600.9 869.1C602.3 872.7 603 876.6 603 880.6V942.6H603.1Z" fill="#002B54"/>
<path d="M943.1 91H633.1C599.4 91 572.1 118.4 572.1 152V322.5C572.1 351.1 591.9 375.3 618.6 381.8V446.5C618.6 452.4 622.1 457.7 627.6 459.9C629.4 460.6 631.3 461 633.2 461C637 461 640.7 459.5 643.5 456.7L716.7 383.5H943.2C976.9 383.5 1004.2 356.1 1004.2 322.5V152.1C1004.1 118.4 976.8 91 943.1 91ZM975.1 322.6C975.1 340.2 960.8 354.6 943.1 354.6H710.6C706.7 354.6 703.1 356.1 700.3 358.9L647.6 411.6V369.2C647.6 361.2 641.1 354.7 633.1 354.7C615.5 354.7 601.1 340.4 601.1 322.7V152.1C601.1 134.5 615.4 120.1 633.1 120.1H943.1C960.7 120.1 975.1 134.4 975.1 152.1V322.6Z" fill="white"/>
<path d="M807.8 211.1C807.8 221.1 807.8 231.1 807.8 241.1C807.8 246.2 811.9 249.3 816.9 248.1C819.8 247.4 821.7 245.1 821.9 242.1C821.9 242 821.9 242 821.9 241.9C822 222.5 822.3 203.1 822.2 183.7C822.1 165.5 809.8 158 797 155.7C791.7 154.8 786.5 155 781.3 156.5C769.6 159.9 762.2 169.2 761.7 181.3C761.4 187.4 761.5 193.5 761.7 199.6C761.8 204.9 766.1 207.8 771.1 206.3C774.2 205.4 775.9 203 775.8 199.4C775.7 195.4 775.4 191.3 775.4 187.3C775.4 185.1 775.6 182.9 775.9 180.7C776.7 175.1 779.9 171.6 785.5 170.3C790.9 169.1 796.3 169.2 801.5 171.4C805.6 173.2 807.8 176.3 807.8 180.8C807.8 191 807.8 201.1 807.8 211.1Z" fill="#00D9B2"/>
<path d="M775.9 274.3C775.9 265.1 775.9 255.9 775.9 246.7C775.9 241.1 771 237.9 765.8 239.9C763.6 240.8 762.2 242.4 761.8 244.8C761.7 245.7 761.6 246.7 761.6 247.6C761.4 263.7 761.3 279.8 761.2 295.9C761.2 299.3 761.5 302.8 762 306.2C762.7 311.2 765.1 315.3 768.7 318.8C779.9 329.8 800.1 331.1 812.5 321.5C818.2 317.1 821.4 311.2 821.8 304C822 299.6 822.1 295.2 822.1 290.8C822.1 286.1 819.4 283.3 815 283.3C810.6 283.3 807.8 286.3 807.8 291C807.8 293.9 808.1 296.9 808 299.8C807.8 307.7 804.3 311.9 796.5 313.3C791.5 314.2 786.5 313.8 781.9 311.4C777.8 309.3 775.6 306 775.7 301.3C775.9 292.4 775.9 283.3 775.9 274.3Z" fill="#002B54"/>
<path d="M844.7 228.6C847.6 228.6 850.4 228.6 853.3 228.6C861.7 228.6 866.4 232.5 867.7 240.9C868.3 245.2 867.9 249.4 866.3 253.5C864.6 258 861.5 260.6 856.5 260.6C849.5 260.6 842.5 260.6 835.5 260.6C831.7 260.6 829.4 262.6 828.7 266.2C827.7 270.8 830.8 274.6 835.4 274.8C841.4 275 847.5 275.3 853.5 275.2C872 275 884.5 260 881.9 241.6C881 235.3 879.2 229.4 875.4 224.3C870.9 218.2 864.7 214.8 857.2 214.5C849 214.2 840.7 214.3 832.5 214.5C828.5 214.6 826.1 217.6 826.1 221.7C826.2 225.7 828.6 228.4 832.6 228.5C836.8 228.6 840.7 228.6 844.7 228.6Z" fill="#00D9B2"/>
<path d="M738.6 228.5C742.1 228.5 745.7 228.5 749.2 228.5C753.8 228.4 756.5 225.8 756.5 221.5C756.5 217.2 753.7 214.5 749.3 214.4C743.1 214.2 736.8 213.9 730.6 214C710.9 214.2 698 229.6 700.9 249.2C701.9 255.7 704 261.7 708.4 266.7C713.6 272.6 720.5 274.8 728.1 275C734.8 275.2 741.5 274.9 748.1 274.6C751.7 274.5 754.2 271.4 754.1 267.5C754 263.6 751.5 260.7 747.8 260.7C742 260.6 736.2 260.7 730.4 260.8C720.4 260.9 715.4 256.5 714.8 246.5C714.6 243.8 715 240.9 715.8 238.2C717.7 231.5 721.8 228.6 728.7 228.6C732 228.5 735.3 228.5 738.6 228.5Z" fill="#002B54"/>
<path d="M807.8 267.8C807.8 272 810.5 274.8 814.6 274.8C818.7 274.8 821.4 272 821.5 267.8C821.5 263.5 818.7 260.6 814.6 260.6C810.5 260.7 807.8 263.6 807.8 267.8Z" fill="#002B54"/>
<path d="M775.5 221.6C775.5 217.4 772.8 214.5 768.8 214.5C764.8 214.5 761.9 217.4 761.9 221.5C761.9 225.7 764.6 228.6 768.6 228.6C772.8 228.5 775.5 225.8 775.5 221.6Z" fill="#002B54"/>
</g>
<defs>
<clipPath id="clip0_207_2">
<rect width="1080" height="1080" fill="white"/>
</clipPath>
</defs>
</svg>
