<?xml version="1.0" encoding="utf-8"?>
<!-- Generator: Adobe Illustrator 22.0.1, SVG Export Plug-In . SVG Version: 6.00 Build 0)  -->
<svg version="1.1" xmlns="http://www.w3.org/2000/svg" xmlns:xlink="http://www.w3.org/1999/xlink" x="0px" y="0px"
	 viewBox="0 0 1080 688.1" style="enable-background:new 0 0 1080 688.1;" xml:space="preserve">
<style type="text/css">
	.st0{display:none;}
	.st1{display:inline;}
	.st2{fill-rule:evenodd;clip-rule:evenodd;fill:#FFFFFF;}
	.st3{fill:none;}
	.st4{fill:#FFFFFF;}
</style>
<g id="Capa_1" class="st0">
	<g class="st1">
		<path class="st2" d="M-560-184.9c-291.6,0-528.8,237.2-528.8,528.8c0,102.6,29.1,201.1,84.5,286.6l-80.3,177
			c-7.4,16.3-4.7,35.4,6.9,49.1c8.9,10.4,21.8,16.2,35.1,16.2c4.1,0,8.2-0.5,12.2-1.6l221.3-60.7c76.4,40.9,162.1,62.4,249.1,62.4
			c291.6,0,528.8-237.2,528.8-528.8C-31.2,52.3-268.4-184.9-560-184.9z M-560,780.3c-77.2,0-153.2-20.5-219.8-59.4
			c-7.1-4.2-15.2-6.3-23.3-6.3c-4.1,0-8.2,0.5-12.2,1.6l-144.6,39.7l50.4-110.9c6.8-15.1,5.1-32.7-4.6-46.1
			c-53.9-74.7-82.3-162.8-82.3-255c0-240.7,195.8-436.4,436.5-436.4c240.7,0,436.5,195.8,436.5,436.4
			C-123.6,584.5-319.3,780.3-560,780.3z"/>
		<path class="st2" d="M-356.7,423.1c-22.1-13.2-51-28-77.1-17.4c-20,8.2-32.8,39.5-45.8,55.5c-6.7,8.2-14.6,9.5-24.8,5.4
			c-75.1-29.9-132.7-80.1-174.2-149.2c-7-10.7-5.8-19.2,2.7-29.2c12.5-14.7,28.3-31.5,31.6-51.4c3.4-19.9-5.9-43.1-14.1-60.8
			c-10.5-22.6-22.2-54.9-44.9-67.6c-20.8-11.8-48.3-5.2-66.8,9.9c-32,26.1-47.5,66.9-47,107.4c0.1,11.5,1.5,23,4.2,34.1
			c6.5,26.7,18.8,51.7,32.7,75.4c10.5,17.9,21.9,35.2,34.1,51.9c40.2,54.6,90.2,102,148.1,137.5c28.9,17.7,60.1,33.3,92.3,43.9
			c36.2,12,68.4,24.4,107.5,17c40.9-7.8,81.2-33.1,97.5-72.5c4.8-11.7,7.2-24.7,4.5-37C-301.6,450.5-336.1,435.4-356.7,423.1z"/>
	</g>
</g>
<g id="Capa_3">
	<circle class="st3" cx="320.9" cy="343.8" r="195.1"/>
	<path class="st4" d="M1004,2.3H686.8H394.1H76.9C36.6,2.3,3.8,35.1,3.8,75.4v536.8c0,40.3,32.8,73.1,73.1,73.1H1004
		c40.3,0,73.1-32.8,73.1-73.1V75.4C1077.1,35.1,1044.3,2.3,1004,2.3z M638,2.3 M1028.3,612.2c0,13.4-10.9,24.3-24.3,24.3H76.9
		c-13.4,0-24.3-10.9-24.3-24.3V75.4C52.6,62,63.5,51,76.9,51H1004c13.4,0,24.3,10.9,24.3,24.3V612.2z"/>
	<path class="st4" d="M320.9,563.3c-121,0-219.5-98.5-219.5-219.5s98.5-219.5,219.5-219.5s219.5,98.5,219.5,219.5
		S442,563.3,320.9,563.3z M320.9,173c-94.2,0-170.7,76.6-170.7,170.7s76.6,170.7,170.7,170.7s170.7-76.6,170.7-170.7
		S415.1,173,320.9,173z"/>
	<path class="st4" d="M394.1,307.2h-36.6v-36.6c0-20.2-16.4-36.6-36.6-36.6s-36.6,16.4-36.6,36.6v36.6h-36.6
		c-20.2,0-36.6,16.4-36.6,36.6s16.4,36.6,36.6,36.6h36.6v36.6c0,20.2,16.4,36.6,36.6,36.6s36.6-16.4,36.6-36.6v-36.6h36.6
		c20.2,0,36.6-16.4,36.6-36.6S414.3,307.2,394.1,307.2z"/>
	<path class="st4" d="M955.1,221.8H638c-13.5,0-24.4-10.9-24.4-24.4c0-13.5,10.9-24.4,24.4-24.4h317.1c13.5,0,24.4,10.9,24.4,24.4
		C979.5,210.9,968.6,221.8,955.1,221.8z"/>
	<path class="st4" d="M711.2,319.4H638c-13.5,0-24.4-10.9-24.4-24.4c0-13.5,10.9-24.4,24.4-24.4h73.2c13.5,0,24.4,10.9,24.4,24.4
		S724.7,319.4,711.2,319.4z"/>
	<path class="st4" d="M955.1,319.4H808.8c-13.5,0-24.4-10.9-24.4-24.4c0-13.5,10.9-24.4,24.4-24.4h146.4c13.5,0,24.4,10.9,24.4,24.4
		S968.6,319.4,955.1,319.4z"/>
	<path class="st4" d="M955.1,416.9H638c-13.5,0-24.4-10.9-24.4-24.4s10.9-24.4,24.4-24.4h317.1c13.5,0,24.4,10.9,24.4,24.4
		S968.6,416.9,955.1,416.9z"/>
	<path class="st4" d="M906.3,514.5H638c-13.5,0-24.4-10.9-24.4-24.4s10.9-24.4,24.4-24.4h268.3c13.5,0,24.4,10.9,24.4,24.4
		S919.8,514.5,906.3,514.5z"/>
</g>
<g id="Capa_4">
</g>
<g id="Capa_2">
</g>
</svg>
