<?xml version="1.0" encoding="utf-8"?>
<!-- Generator: Adobe Illustrator 22.0.1, SVG Export Plug-In . SVG Version: 6.00 Build 0)  -->
<svg version="1.1" id="Capa_1" xmlns="http://www.w3.org/2000/svg" xmlns:xlink="http://www.w3.org/1999/xlink" x="0px" y="0px"
	 viewBox="0 0 1050 1080" style="enable-background:new 0 0 1050 1080;" xml:space="preserve">
<style type="text/css">
	.st0{fill:#FFFFFF;}
</style>
<g id="XMLID_21_">
	<g>
		<path class="st0" d="M1036.6,1017.7c10.3,10.3,13.3,25.8,7.8,39.2c-5.6,13.5-18.7,22.2-33.2,22.2H39.8c-14.5,0-27.7-8.8-33.2-22.2
			c-5.6-13.5-2.5-28.9,7.8-39.2l60.3-60.3c26.5-26.5,57.9-46.8,92.5-60v-28.1c0-19.9,16.1-36,36-36h107.2c16,0,29.4,10.4,34.2,24.7
			l9.5-1.9c19-3.8,32.8-20.6,32.8-40v-31c-106.6-50.3-181.5-157-186-281.4h-65c-19.9,0-36-16.1-36-36v-92.3c0-19.9,16.1-36,36-36
			H165c12-167,138.3-302.8,301-329.5c4.2-3.2,9.5-5.2,15.2-5.2h86.7c5.8,0,11,2,15.3,5.2c162.6,26.7,288.9,162.5,300.9,329.5h29.3
			c19.9,0,36,16.1,36,36v92.3c0,19.9-16.1,36-36,36h-65c-4.4,123.7-78.5,230-184.2,280.6v31.8c0,19.4,13.8,36.2,32.8,40l7.9,1.6
			c4.8-14.2,18.2-24.4,34-24.4H846c19.9,0,36,16.1,36,36v27.4c35.2,13.2,67.3,33.8,94.2,60.7L1036.6,1017.7z M882,1007.2h42.3
			c-12.7-12.5-27-23-42.3-31.4L882,1007.2L882,1007.2z M877.4,431.7v-20.4H171.7v20.4H877.4z M237.2,339.3h574.7
			c-6-66.3-34.6-126.3-78-172.1V290c0,19.9-16.1,36-36,36s-36-16.1-36-36V112c-21.5-11.7-44.6-20.8-68.9-26.7V290
			c0,13.9-11.3,25.2-25.2,25.2h-86.7c-13.9,0-25.2-11.3-25.2-25.2V85.2c-24.3,6-47.4,15-68.9,26.7v178c0,19.9-16.1,36-36,36
			c-19.9,0-36-16.1-36-36V167.2C271.8,213,243.2,273,237.2,339.3z M810,1007.2V905.2h-35.2v101.9H810z M776.4,503.6H272.8
			c6.2,133.6,116.7,240.3,251.8,240.3S770.2,637.2,776.4,503.6z M702.9,1007.2v-76.5l-20-4c-52.5-10.5-90.7-57-90.7-110.6v-7.3
			c-21.8,4.6-44.5,7.1-67.7,7.1c-22.6,0-44.6-2.4-65.9-6.8v6.9c0,53.6-38.1,100.1-90.6,110.6l-21.8,4.3v76.2H702.9z M542.7,264.8V55
			h-36.3v209.8H542.7z M274.3,1007.2V905.2h-35.2v101.9H274.3z M167.1,1007.2v-30.5c-14.7,8.3-28.3,18.5-40.5,30.5H167.1z"/>
	</g>
</g>
<desc></desc>
</svg>
