<?xml version="1.0" encoding="utf-8"?>
<!-- Generator: Adobe Illustrator 22.0.1, SVG Export Plug-In . SVG Version: 6.00 Build 0)  -->
<svg version="1.1" xmlns="http://www.w3.org/2000/svg" xmlns:xlink="http://www.w3.org/1999/xlink" x="0px" y="0px"
	 viewBox="0 0 1032 1080" style="enable-background:new 0 0 1032 1080;" xml:space="preserve">
<style type="text/css">
	.st0{fill:#FFFFFF;}
	.st1{display:none;}
	.st2{display:inline;}
	.st3{fill:#002B54;}
	.st4{fill:#00D9B2;}
	.st5{display:inline;fill:#002B54;}
	.st6{display:inline;fill:#002B54;stroke:#FFFFFF;stroke-width:8.5039;stroke-miterlimit:10;}
	.st7{display:inline;fill:#00D9B2;}
	.st8{display:inline;fill:#FFFFFF;}
	.st9{fill:#002B54;stroke:#FFFFFF;stroke-width:17.0079;stroke-miterlimit:10;}
	.st10{fill:none;stroke:#002B54;stroke-width:25.5118;stroke-miterlimit:10;}
	.st11{display:none;fill:#002B54;}
</style>
<g id="Capa_1">
	<g>
		<path class="st0" d="M724.5,626.9c62.9-6.6,124-39.7,176.9-97.5c8.3-9.9,9.9-19.9,8.3-31.4c71.1-85.9,114-203.3,114-294.3
			c0-140.5-66.1-155.3-178.5-178.5v-1.6C836.9,10.3,823.7,2,807.2,2c-23.1,0-41.3,18.2-41.3,39.7c0,21.5,18.2,39.7,41.3,39.7
			c9.9,0,18.2-3.3,24.8-9.9l1.6,1.7c109.1,23.1,137.3,28.1,137.3,130.6c0,79.4-39.7,186.8-102.5,264.6c-9.9,0-19.8,3.3-28.1,11.5
			c-31.3,34.7-82.6,76-142.1,76c-61.2,0-110.7-41.3-142.1-74.4c-8.3-8.3-18.2-13.2-28.1-13.2C465,390.5,423.7,283.1,423.7,203.7
			c0-102.4,29.7-107.4,138.8-130.6v-1.7c6.6,6.6,16.5,9.9,26.4,9.9c23.1,0,41.3-18.2,41.3-39.7c0-21.5-18.2-39.7-41.3-39.7
			c-18.1,0-31.3,8.3-38,21.5h-1.6c-110.7,24.8-178.5,38-178.5,180.2c0,90.9,42.9,208.3,115.6,295.9c-1.6,9.9,0,21.5,8.3,29.8
			c52.9,56.2,112.4,89.3,173.6,97.5l-1.7,178.5c0,122.4-107.4,221.6-238.1,221.6c-130.5,0-236.4-99.2-236.4-221.6v-157
			c76.1-11.6,134-71.1,134-145.5c0-82.7-72.8-148.8-162.1-148.8c-87.6,0-160.3,66.1-160.3,148.8c0,74.4,59.5,133.9,133.8,145.5v157
			c0,148.8,130.6,269.5,290.9,269.5c162.1,0,292.6-120.7,292.6-269.5V626.9H724.5z"/>
		<path class="st0" d="M164.1,602.1L164.1,602.1c59.5,0,107.5-44.7,107.5-99.2c0-56.2-48-99.2-107.5-99.2
			c-57.9,0-105.8,43-105.8,99.2C58.3,557.5,106.2,602.1,164.1,602.1"/>
		<path class="st0" d="M162.5,428.5L162.5,428.5c42.9,0,77.7,33.1,77.7,74.4c0,41.3-34.7,76.1-77.7,76.1
			c-44.7,0-77.7-34.7-77.7-76.1C84.8,461.6,117.8,428.5,162.5,428.5"/>
	</g>
</g>
<g id="ambulancia" class="st1">
	<g class="st2">
		<path class="st3" d="M760.1,520.6h-87.1v86.5h-84.1v-86.5h-87.1v-83.3h87.1v-86.6h84.1v86.6h87.1V520.6z M372.2,479H180.5
			l24.2-95.2c0.9-3,2.6-8.9,5.6-19.5c9.3-47.2,62.9-43.1,62.9-43.1h99.1L372.2,479z M916.4,266.8H422.3v-4
			c0-25.3-20.6-45.7-46.1-45.7c-25.5,0-46.2,20.4-46.2,45.7v4h-28.2c-77.7,0-148.7,35-176.1,139.7l-47,194.3
			c0,61.4,39.9,113.4,95.4,132.2c-0.8-5.2-1.4-10.3-1.4-15.6c0-55.7,45.7-101,101.8-101c56.2,0,101.8,45.3,101.8,101
			c0,8-1,15.8-2.9,23.3h311.1c-1.8-7.5-2.9-15.3-2.9-23.3c0-55.7,45.6-101,101.7-101c56.1,0,101.8,45.3,101.8,101
			c0,7.7-0.9,15.4-2.7,22.7c71.8-6.6,128-66.4,128-139.2V406.6C1010.4,329.5,994.2,266.8,916.4,266.8"/>
		<path class="st4" d="M353.2,720.6c0,43.9-35.8,79.5-80,79.5c-44.2,0-80-35.6-80-79.5c0-43.8,35.8-79.4,80-79.4
			C317.3,641.2,353.2,676.8,353.2,720.6"/>
		<path class="st4" d="M867.4,720.6c0,43.9-35.8,79.5-80,79.5c-44.1,0-80-35.6-80-79.5c0-43.8,35.9-79.4,80-79.4
			C831.6,641.2,867.4,676.8,867.4,720.6"/>
	</g>
</g>
<g id="laboratorio" class="st1">
	<g class="st2">
		<path class="st3" d="M984,872.6c20,38.1,18.4,82.1-3.1,117.1c-21.5,35-59.9,57.8-102.8,57.8H199.7c-42.9,0-81.3-22.8-102.8-57.8
			c-21.6-35-21.6-79-3.1-117.1l262.4-479V109.2c0-27.4,21.6-50.2,49.2-50.2h267c27.6,0,50.6,22.8,50.6,50.2v284.4L984,872.6z"/>
		<path class="st4" d="M583.3,673.4L583.3,673.4c-24.5,0-42.9,18.3-42.9,41.1c0,22.9,18.4,42.6,42.9,42.6
			c23.1,0,41.5-19.7,41.5-42.6C624.8,691.7,606.4,673.4,583.3,673.4"/>
		<path class="st4" d="M462.2,420.9L462.2,420.9c-23.1,0-41.5,18.3-41.5,41.1c0,24.3,18.4,42.6,41.5,42.6
			c24.5,0,42.9-18.3,42.9-42.6C505.1,439.2,486.7,420.9,462.2,420.9"/>
		<path class="st4" d="M462.2,566.9L462.2,566.9c-36.9,0-67.6,30.4-67.6,66.9c0,39.5,30.6,68.4,67.6,68.4c39.9,0,69-28.9,69-68.4
			C531.2,597.3,502,566.9,462.2,566.9"/>
		<path class="st4" d="M858.1,916.7L858.1,916.7c7.7-15.2,9.2-33.5,0-48.7l-47.6-86.7c-13.7-22.8-44.5-32-67.4-18.3
			c-41.5,22.8-86,39.6-133.6,41.1c-89,4.5-187.3-71.5-276.2-79.1c-20-1.5-36.9,7.6-47.6,24.3l-66,118.6c-9.2,15.2-9.2,33.4,0,48.7
			c9.2,13.7,24.5,22.8,42.9,22.8h552.6C833.5,939.5,848.9,930.4,858.1,916.7"/>
	</g>
</g>
<g id="Capa_5">
	<g>
		<path class="st3" d="M-497.2,886.8l130.4-243.2l-2-4.1l-44.8-68.6l-24.5-25c-83.6-79-191.6-97.7-244.5-101.8h-6.1l-138.6,257.7
			c-16.3,29.1-24.5,64.5-22.4,99.8c2,66.5,38.7,126.8,97.8,160.1C-662.2,1011.5-548.1,978.3-497.2,886.8"/>
		<path class="st3" d="M-670.4,390l42.8,8.4c83.5,12.4,195.6,49.9,266.9,158l28.5,41.6l144.7-270.2c18.3-33.3,26.5-68.6,24.5-106
			c-2-70.7-40.8-133-101.9-166.3c-93.7-54-213.9-18.7-264.8,79L-670.4,390z"/>
		<path class="st4" d="M-293.4,109.5c42.8,22.9,69.3,66.5,71.3,114.3c0,27-4.1,52-16.3,74.8l-99.9,185
			c-73.4-85.2-167.1-122.6-238.4-139.2l97.8-180.9C-442.1,94.9-358.6,72-293.4,109.5"/>
	</g>
</g>
<g id="Capa_6" class="st1">
	<g class="st2">
		<path class="st3" d="M507.7,484.3h24.1c16.5,0,28.5,12,28.5,27.1c0,15.1-12,27.1-28.5,27.1h-13.6
			C522.8,523.5,513.8,497.9,507.7,484.3"/>
		<path class="st4" d="M360.3,538.5l4.5-234.6c9-3,34.6-10.6,72.2-12.1l54.2,188.1c10.5,22.5,18,51.1,13.5,57.1c0,0,0,1.6-1.5,1.6
			H360.3z"/>
		<g>
			<path class="st3" d="M411.5,610.7c0,132.4-1.6,263.2-7.6,395.6c-3,66.3,112.9,66.3,115.9,0c6-118.8,7.5-151.9,7.5-270.7h16.5
				c0,118.8,1.5,151.9,6,270.7c3,66.3,118.8,66.3,115.8,0c-6-132.4-7.5-263.2-7.5-395.6V358h15v227.2v7.5c0,16.6,15,30.1,33.1,30.1
				c18,0,33.1-13.5,33.1-30.1V379c-9.1-88.7-115.9-88.7-120.4-88.7H450.6l51.1,180.5h30.1c24,0,42.1,18,42.1,40.6
				c0,21.1-18,39.1-42.1,39.1H411.5V610.7z"/>
			<path class="st3" d="M534.8,79.7c57.1,0,102.3,42.1,102.3,94.8c0,52.6-45.2,94.8-102.3,94.8c-55.7,0-102.3-42.2-102.3-94.8
				C432.5,121.9,479.2,79.7,534.8,79.7"/>
			<path class="st3" d="M345.3,538.5h-4.5c-9,0-15-3-19.6-6c-9-9-9-19.6-9-22.6V365.6c0-1.5,4.5-33.2,37.6-54.2L345.3,538.5z"/>
		</g>
	</g>
</g>
<g id="Capa_8" class="st1">
	<g class="st2">
		<g>
			<path class="st3" d="M624.9,140.8c-8.2,2.9-10.4,13.4-4.3,19.5l39.2,39.2c33.3,33.3-17,83.7-50.4,50.4
				c-71.2-71-64.4-64.2-66.3-66.3C363.6,44.1,95,165.6,87.6,397.5c-2.2,70.3,21.2,138.7,66,192.8c31.6,38.1,155.5,336.6,169.2,355.3
				c33.5,45.6,104.6,33.7,121.8-20.3C466.6,856.5,506,812.1,545,812.1c39,0,78.4,44.4,100.4,113.2c19.9,62.4,104,61.3,125.5,13.9
				c155.1-340.7,145.5-324.8,165.5-348.9C1120.2,368.6,895.7,43.5,624.9,140.8z M308.2,462.1c19.3,23.3,2.5,58.4-27.4,58.4
				c-49.7,0-102.8-137.1-20.4-220.7c13.8-14,36.4-14.2,50.4-0.4c14,13.8,14.2,36.4,0.4,50.4C281.9,379.5,280.6,428.8,308.2,462.1z"
				/>
		</g>
	</g>
</g>
<g id="HOSPITALIZACIÓN_Y_CIRUGÍA" class="st1">
	<path class="st5" d="M488.8,172.7c16.8-50.5,85.7-52.8,107.3-6.9l2.7,6.9l176.9,530.9l61-182.9c7.2-21.5,26.1-36.7,48.3-39.3
		l6.7-0.4h58c32,0,58,26,58,58c0,29.7-22.4,54.3-51.2,57.6l-6.8,0.4h-16.2L830.8,905.3c-16.8,50.5-85.7,52.8-107.3,6.9l-2.7-6.9
		L543.8,374.3l-119,356.9c-16.3,48.9-82.4,53.1-105.8,9.7l-3-6.5l-64.4-160.9l-4.1,5.1c-9.2,9.9-21.7,16.3-35.4,18l-6.9,0.4h-67.3
		c-32,0-58-26-58-58c0-29.7,22.4-54.3,51.2-57.6l6.8-0.4h28.7l33.8-80.4c19.1-45.5,81.7-47.2,104.2-5.6l3.1,6.6l57.2,143
		L488.8,172.7z"/>
</g>
<g id="ATENCIÓN_EN_CASA" class="st1">
	<path class="st5" d="M787.7,202.9v143.8c0,9.7-7.9,17.6-17.6,17.6c-9.7,0-17.6-7.9-17.6-17.6V202.9c0-40.4-32.6-73.3-72.7-73.3
		H398.4c-40.1,0-72.7,32.9-72.7,73.3v143.8c0,9.7-7.9,17.6-17.6,17.6c-9.7,0-17.6-7.9-17.6-17.6V202.9
		c0-59.8,48.4-108.5,107.9-108.5h281.4C739.3,94.5,787.7,143.1,787.7,202.9z"/>
	<path class="st6" d="M216.3,315.3h645.6c69.8,0,127,57.5,127,127.8v423.2c0,70.3-57.2,127.8-127,127.8H216.3
		c-69.8,0-127-57.5-127-127.8V443.1C89.3,372.8,146.5,315.3,216.3,315.3L216.3,315.3z"/>
	<path class="st6" d="M988.9,654.7v211.6c0,70.3-57.2,127.8-127,127.8H216.3c-69.8,0-127-57.5-127-127.8V654.7H988.9z"/>
	<path class="st7" d="M377.1,586.4h94.2v-94.7c0-14.2,11.6-25.9,25.7-25.9h84.3c14.2,0,25.7,11.6,25.7,25.9v94.7h94.2
		c14.1,0,25.7,11.6,25.7,25.9v84.8c0,14.2-11.6,25.9-25.7,25.9H607v94.7c0,14.2-11.6,25.9-25.7,25.9H497
		c-14.2,0-25.7-11.6-25.7-25.9V723h-94.2c-14.1,0-25.7-11.6-25.7-25.9v-84.8C351.4,598,362.9,586.4,377.1,586.4L377.1,586.4z"/>
	<path class="st7" d="M726.9,654.7v42.4c0,14.2-11.6,25.9-25.7,25.9H607v94.7c0,14.2-11.6,25.9-25.7,25.9H497
		c-14.2,0-25.7-11.6-25.7-25.9V723h-94.2c-14.1,0-25.7-11.6-25.7-25.9v-42.4H726.9z"/>
</g>
<g id="RAYOS_X" class="st1">
	<path id="XMLID_9_" class="st5" d="M807.9,898.5c0,24.2-19.8,43.6-43.6,43.6c-24.2,0-43.6-19.4-43.6-43.6v-38.1h87.6v38.1H807.9z
		 M692.5,860.4H402.2v142.2h124.6v-61.2h41.8v61.2h124.2V860.4H692.5z M373.3,860.4h-87.6v38.1c0,24.2,19.8,43.6,43.6,43.6
		c24.2,0,43.6-19.4,43.6-43.6v-38.1H373.3z M547,80.5c-62.3,0-112.9,50.6-112.9,112.9S484.7,306.3,547,306.3s112.9-50.6,112.9-112.9
		S609.3,80.5,547,80.5 M868.4,440.7H225.6v375.6h642.8V440.7z M767.9,785.6H328.2V471.5h439.8V785.6z M651.8,657.3
		c4.8,0,8.8-4,8.8-8.8c0-4.8-4-8.8-8.8-8.8h-83.6v-27.5h94.5c4.8,0,8.8-4,8.8-8.8c0-4.8-4-8.8-8.8-8.8h-94.5v-27.5h88.7
		c4.8,0,8.8-4,8.8-8.8c0-4.8-4-8.8-8.8-8.8h-88.7v-27.5h69.3c4.8,0,8.8-4,8.8-8.8c0-4.8-4-8.8-8.8-8.8h-69.3v-15.4h-42.9v15.4h-69.3
		c-4.8,0-8.8,4-8.8,8.8c0,4.8,4,8.8,8.8,8.8h69.3v27.5h-88.7c-4.8,0-8.8,4-8.8,8.8c0,4.8,4,8.8,8.8,8.8H525v27.5h-93.8
		c-4.8,0-8.8,4-8.8,8.8c0,4.8,4,8.8,8.8,8.8h94.2v27.5h-83.9c-4.8,0-8.8,4-8.8,8.8c0,4.8,4,8.8,8.8,8.8H525v27.5h-80.6
		c-3.3,0-8.4,2.9-8.4,8.1c0,46.9,4.4,68.9,29.3,68.9c26.8,0,31.1-57.2,59.7-59.4v53.1h42.9v-53.1c27.1,3.7,32.6,59.4,58.3,59.4
		c24.6,0,30.8-22,30.8-68.9c0-5.1-4.8-8.1-8.4-8.1h-80.6v-27.5H651.8z M678.5,334.1H419.1c-46.9,0-90.5,24.9-114.7,62.3h485.6
		C766.8,359.4,725.4,334.1,678.5,334.1"/>
</g>
<g id="Capa_12" class="st1">
	<path class="st7" d="M403.2,999.1h288.6c49,0,89.1-40.1,89.1-89.1V192.5c0-49-40.1-89.1-89.1-89.1H403.2c-49,0-89.1,40.1-89.1,89.1
		v717.6C314.1,959.1,354.2,999.1,403.2,999.1z"/>
	<g class="st2">
		<g>
			<path class="st0" d="M673.9,810.6H418.4c-23,0-41.9-18.8-41.9-41.9v-490c0-23,18.8-41.9,41.9-41.9h255.4
				c23,0,41.9,18.8,41.9,41.9v490C715.7,791.8,696.9,810.6,673.9,810.6z"/>
			<path class="st3" d="M697,82.2H397.2c-48.9,0-104.6,58.1-104.6,109v714.2c0,50.9,55.7,109,104.6,109H697
				c48.9,0,104.6-58.1,104.6-109V191.2C801.6,140.3,745.9,82.2,697,82.2z M777.6,905.4c0,38.9-43.7,85-80.6,85H397.2
				c-36.9,0-80.6-46.1-80.6-85V191.2c0-38.9,43.7-85,80.6-85H697c36.9,0,80.6,46.1,80.6,85V905.4z"/>
			<path class="st3" d="M547.1,849.6c-30.2,0-54.8,24.6-54.8,54.8s24.6,54.8,54.8,54.8c30.2,0,54.8-24.6,54.8-54.8
				S577.4,849.6,547.1,849.6z M547.1,951.2c-25.8,0-46.8-21-46.8-46.8c0-25.8,21-46.8,46.8-46.8c25.8,0,46.8,21,46.8,46.8
				C593.9,930.2,572.9,951.2,547.1,951.2z"/>
			<path class="st3" d="M684.9,229.3H409.4c-21,0-38,17-38,38V777c0,20.9,17,38,38,38h275.5c20.9,0,38-17,38-38V267.2
				C722.9,246.3,705.8,229.3,684.9,229.3z M710.9,777c0,14.3-11.7,26-26,26H409.4c-14.3,0-26-11.7-26-26V267.2c0-14.3,11.7-26,26-26
				h275.5c14.3,0,26,11.7,26,26V777L710.9,777z"/>
			<circle class="st3" cx="470.7" cy="175.5" r="10"/>
			<circle class="st3" cx="537.1" cy="175.5" r="10"/>
			<circle class="st3" cx="603.5" cy="175.5" r="10"/>
		</g>
	</g>
	<g class="st2">
		<circle class="st3" cx="549.3" cy="434.6" r="8.9"/>
		<path class="st3" d="M706.1,798.8v-15.3c0-35-9.3-62-27.7-80.3c-23.5-23.3-52.9-23.3-54.1-23.3h-37.4v-22.6c0-0.4,0-0.8-0.1-1.2
			c23.9-9.9,39-26.4,48.2-40.7c14.4-22.3,17.6-43.7,17.7-44.6c0.1-0.4,0.1-0.7,0.1-1.1v-1.6c5.2-1.3,9.8-4,13.4-8
			c10.6-11.7,9.9-30.1,9.2-37.5c-0.6-5.6-3.1-10.3-7.4-13.6c-3-2.4-6.6-3.7-10-4.5v-73.7c0-24.5-10.1-40.9-31-50.1
			c-8.5-3.7-6.2-11.9-5.4-14.2c1.3-3.3,0.1-7-2.9-9c-3-1.9-6.9-1.5-9.4,1c-11.8,12-24.3,11.7-47,11.1c-15.8-0.4-35.5-0.9-61.4,2.8
			c-35.6,5.1-51.4,27.1-58.3,44.6c-7,17.6-6.6,34-6.5,36.3v48.8c0,0.8,0.1,1.6,0.4,2.3c-3.5,0.7-7.3,2.1-10.4,4.6
			c-4.2,3.3-6.8,8-7.4,13.6c-0.8,7.4-1.4,25.8,9.2,37.5c3.7,4.1,8.3,6.8,13.6,8v1.6c0,0.4,0,0.7,0.1,1.1c0.1,0.9,3.4,22.3,17.7,44.6
			c9.2,14.3,24.3,30.8,48.2,40.7c-0.1,0.4-0.1,0.8-0.1,1.2v22.6h-37.3c-1.2,0-30.7,0.1-54.2,23.3c-18.4,18.3-27.7,45.3-27.7,80.3
			v15.3c0,0,20.2,15.5,24.3,15.5l257.3-0.7C674.1,813.7,706.1,798.8,706.1,798.8z M632.1,445.7c-0.4-0.4-2.3-1.8-6.2-3.6h17.3v34.6
			l-8.3-7.8v-17.3C634.9,449.3,633.9,447.2,632.1,445.7z M660.6,524.2c0.9,8.7-0.1,20.1-5.4,26c-0.7,0.8-1.5,1.4-2.3,2v-33.4
			c2.3,0.3,4.6,0.9,6.1,2C659.7,521.4,660.4,522.2,660.6,524.2z M503.2,387.2c24.7-3.5,43.7-3,58.9-2.7c17.9,0.5,32.1,0.8,44.9-5.8
			c1.8,6.1,6,12,14.1,15.5c14.5,6.4,21.2,16.3,22,32.9h-53.3c-3.5-19.2-20.3-33.7-40.5-33.7c-20.2,0-37,14.6-40.5,33.7h-54
			C460.1,410.7,472.9,391.6,503.2,387.2z M451.2,477v-23.8c0-0.1,0-0.3,0-0.4c0-0.6-0.2-4.7,0.5-10.7h17.1c-3.9,1.8-5.8,3.3-6.2,3.6
			c-1.7,1.4-2.7,3.5-2.7,5.8v17.3L451.2,477z M575.6,434.6c0,14.5-11.8,26.3-26.3,26.3c-14.5,0-26.3-11.8-26.3-26.3
			s11.8-26.3,26.3-26.3C563.8,408.4,575.6,420.2,575.6,434.6z M439.1,550.2c-5.3-5.9-6.3-17.3-5.4-26c0.2-2,1-2.8,1.7-3.4
			c1.5-1.2,3.9-1.8,6.3-2v33.5C440.7,551.7,439.9,551,439.1,550.2z M472.2,607.9c-11.7-17.9-15.2-35.6-15.7-38.7v-76.7l15.9-14.9
			c1.5-1.4,2.3-3.4,2.3-5.4v-16.3c4.6-2.2,15.2-6.3,35.3-8.7c5.3,16.6,20.9,28.7,39.2,28.7c18.2,0,33.7-11.9,39.1-28.3
			c17.7,2.4,27.3,6.1,31.6,8.2v16.3c0,2.1,0.8,4,2.3,5.4l15.6,14.7v77c-0.5,3.1-4.1,20.8-15.7,38.7c-16.7,25.7-41.7,39.8-74.3,41.9
			h-1.4C514,647.6,489,633.5,472.2,607.9z M545.8,664.7c0.2,0,0.3,0,0.5,0h1.9c0.2,0,0.3,0,0.5,0c8.5-0.5,16.2-1.8,23.3-3.6v26.3
			c0,3,1.8,5.6,4.4,6.8l-31,31.9l-27.9-31.7c2.9-1,5-3.8,5-7v-26.3C529.6,662.9,537.4,664.2,545.8,664.7z M403.3,783.5
			c0-87.7,64.2-88.7,66.9-88.7H498l41.6,47.2c1.4,1.6,3.3,2.5,5.4,2.5c0.1,0,0.1,0,0.2,0c2,0,3.9-0.8,5.4-2.3l46.1-47.4h27.8
			c0.3,0,24.4,0,43.5,19c15.5,15.4,23.3,38.8,23.3,69.7v15.3H509.6v-41.9c0-4.1-3.3-7.5-7.5-7.5h-66.3c-4.1,0-7.5,3.3-7.5,7.5v41.9
			h-25.1V783.5z M494.7,772.6h-51.4v-8.3h51.4V772.6z M443.3,787.6h51.4v11.3h-51.4C443.3,798.8,443.3,787.6,443.3,787.6z"/>
		<circle class="st3" cx="494.3" cy="507.8" r="8.9"/>
		<circle class="st3" cx="600.2" cy="507.8" r="8.9"/>
		<path class="st3" d="M545.3,560.2h3.8c9.6,0,17.5-7.6,17.9-17.1c0-0.3,0-0.5,0-0.8v-43.4c0-4.1-3.3-7.5-7.5-7.5s-7.5,3.3-7.5,7.5
			v43.4c0,1.6-1.3,3-3,3h-3.8c-1.6,0-3-1.3-3-3c0-4.1-3.3-7.5-7.5-7.5s-7.5,3.3-7.5,7.5C527.4,552.2,535.4,560.2,545.3,560.2z"/>
		<path class="st3" d="M593.5,600c2.6-3.2,2.1-7.9-1.1-10.5c-3.2-2.6-7.9-2.1-10.5,1.1c-0.1,0.1-9,9.9-32.8,9.9
			c-24.7,0-36.7-10.2-37.3-10.8c-3-2.7-7.7-2.5-10.5,0.5c-2.8,3-2.6,7.8,0.5,10.5c0.7,0.6,16.4,14.6,47.3,14.6
			C580.1,615.4,592.2,601.6,593.5,600z"/>
	</g>
</g>
<g id="Capa_7" class="st1">
	<g class="st2">
		<path class="st3" d="M1665.9,588.1c0,24.1,0,48.2,0,72.3c0,12.3,10,19.9,21.9,16.8c7-1.8,11.5-7.2,11.9-14.5c0-0.2,0-0.4,0-0.5
			c0.3-46.7,1-93.5,0.8-140.2c-0.2-43.8-29.8-62-60.7-67.4c-12.7-2.2-25.4-1.6-37.8,2c-28.1,8.2-46.1,30.6-47.3,59.7
			c-0.6,14.7-0.4,29.4-0.1,44.1c0.3,12.7,10.6,19.8,22.7,16.2c7.4-2.2,11.6-8,11.4-16.6c-0.2-9.7-0.9-19.5-1-29.2
			c-0.1-5.3,0.4-10.6,1.2-15.8c2-13.5,9.7-22,23.2-25c13.1-2.9,26-2.8,38.5,2.7c9.8,4.3,15.2,11.8,15.2,22.8
			C1665.9,539.6,1665.9,563.8,1665.9,588.1z"/>
		<path class="st3" d="M1588.9,740.3c0-22.1,0.1-44.3,0-66.4c-0.1-13.4-11.9-21.3-24.2-16.3c-5.3,2.1-8.7,6-9.6,11.7
			c-0.3,2.3-0.5,4.6-0.5,6.9c-0.4,38.8-0.8,77.6-1,116.3c0,8.3,0.8,16.6,1.9,24.8c1.7,11.9,7.5,21.9,16.1,30.4
			c26.9,26.6,75.6,29.6,105.6,6.4c13.8-10.7,21.5-24.7,22.5-42.2c0.6-10.6,0.8-21.2,0.8-31.8c0-11.3-6.6-18.1-17-18.1
			c-10.6,0-17.4,7.1-17.3,18.5c0,7.1,0.7,14.2,0.5,21.2c-0.5,19-8.9,29.1-27.6,32.6c-12.1,2.2-24,1.3-35.2-4.5
			c-9.8-5.1-15.1-12.9-15-24.3C1589,783.9,1588.9,762.1,1588.9,740.3z"/>
		<path class="st3" d="M1754.8,630.1c6.9,0,13.8,0,20.7,0c20.3,0,31.7,9.4,34.7,29.6c1.5,10.3,0.6,20.5-3.3,30.3
			c-4.2,10.7-11.6,17.2-23.6,17.2c-16.8,0-33.7,0-50.5,0.1c-9.1,0.1-14.7,4.7-16.5,13.4c-2.3,11,5,20.3,16.2,20.6
			c14.5,0.4,29,1.2,43.6,1c44.5-0.6,74.8-36.6,68.6-80.9c-2.1-15.2-6.5-29.3-15.6-41.8c-10.9-14.8-25.7-22.9-43.8-23.6
			c-19.8-0.7-39.6-0.4-59.5,0c-9.6,0.2-15.5,7.5-15.3,17.5c0.1,9.6,6.1,16.2,15.7,16.5C1735.6,630.3,1745.2,630.1,1754.8,630.1
			C1754.8,630.1,1754.8,630.1,1754.8,630.1z"/>
		<path class="st3" d="M1499,630c8.5,0,17,0.1,25.5,0c11-0.1,17.6-6.5,17.7-16.8c0-10.3-6.7-17-17.5-17.2c-15-0.4-30.1-1.1-45.1-1
			c-47.4,0.4-78.6,37.7-71.6,84.8c2.4,15.8,7.4,30.2,18,42.3c12.6,14.3,29.3,19.6,47.5,20c16.1,0.4,32.2-0.3,48.3-0.9
			c8.7-0.3,14.6-7.8,14.4-17.2c-0.2-9.5-6.2-16.3-15.2-16.4c-14-0.2-28-0.1-42,0.1c-24,0.3-36.1-10.4-37.6-34.5
			c-0.4-6.6,0.5-13.5,2.3-19.9c4.5-16,14.5-23.1,31.2-23.2C1483.1,629.9,1491,630,1499,630z"/>
		<path class="st3" d="M1665.8,724.6c0,10.2,6.5,16.9,16.3,17c9.8,0,16.5-6.7,16.5-16.7c0.1-10.3-6.7-17.4-16.6-17.3
			C1672.4,707.6,1665.8,714.5,1665.8,724.6z"/>
		<path class="st3" d="M1588.1,613.2c0-10.1-6.5-17.1-16.2-17.2c-9.6-0.1-16.5,7-16.6,16.9c-0.1,10.1,6.5,17,16.3,17.1
			C1581.5,630,1588,623.3,1588.1,613.2z"/>
	</g>
	<desc></desc>
</g>
<g id="Capa_13" class="st1">
	<circle class="st7" cx="1466.7" cy="535.6" r="172.1"/>
	<path class="st5" d="M2069.3,234.3h-279.8h-258.2h-279.8c-35.6,0-64.5,28.9-64.5,64.5v473.5c0,35.5,28.9,64.5,64.5,64.5h817.8
		c35.6,0,64.5-28.9,64.5-64.5V298.8C2133.8,263.3,2104.9,234.3,2069.3,234.3z M1746.5,234.3 M2090.8,772.4
		c0,11.8-9.6,21.5-21.5,21.5h-817.8c-11.8,0-21.5-9.6-21.5-21.5V298.8c0-11.8,9.6-21.5,21.5-21.5h817.8c11.8,0,21.5,9.6,21.5,21.5
		V772.4z"/>
	<path class="st5" d="M1466.7,729.3c-106.8,0-193.7-86.9-193.7-193.7s86.9-193.7,193.7-193.7c106.8,0,193.7,86.9,193.7,193.7
		S1573.5,729.3,1466.7,729.3z M1466.7,385c-83.1,0-150.6,67.6-150.6,150.6s67.6,150.6,150.6,150.6s150.6-67.6,150.6-150.6
		S1549.8,385,1466.7,385z"/>
	<path class="st8" d="M1531.3,503.3H1499V471c0-17.8-14.4-32.3-32.3-32.3s-32.3,14.4-32.3,32.3v32.3h-32.3
		c-17.8,0-32.3,14.4-32.3,32.3c0,17.8,14.4,32.3,32.3,32.3h32.3v32.3c0,17.8,14.4,32.3,32.3,32.3s32.3-14.4,32.3-32.3v-32.3h32.3
		c17.8,0,32.3-14.4,32.3-32.3C1563.6,517.8,1549.1,503.3,1531.3,503.3z"/>
	<path class="st5" d="M2026.2,428h-279.7c-11.9,0-21.5-9.6-21.5-21.5s9.6-21.5,21.5-21.5h279.7c11.9,0,21.5,9.6,21.5,21.5
		C2047.7,418.4,2038.1,428,2026.2,428z"/>
	<path class="st5" d="M1811,514.1h-64.6c-11.9,0-21.5-9.6-21.5-21.5c0-11.9,9.6-21.5,21.5-21.5h64.6c11.9,0,21.5,9.6,21.5,21.5
		S1822.9,514.1,1811,514.1z"/>
	<path class="st5" d="M2026.2,514.1h-129.1c-11.9,0-21.5-9.6-21.5-21.5c0-11.9,9.6-21.5,21.5-21.5h129.1c11.9,0,21.5,9.6,21.5,21.5
		S2038.1,514.1,2026.2,514.1z"/>
	<path class="st5" d="M2026.2,600.1h-279.7c-11.9,0-21.5-9.6-21.5-21.5s9.6-21.5,21.5-21.5h279.7c11.9,0,21.5,9.6,21.5,21.5
		S2038.1,600.1,2026.2,600.1z"/>
	<path class="st5" d="M1983.2,686.2h-236.7c-11.9,0-21.5-9.6-21.5-21.5s9.6-21.5,21.5-21.5h236.7c11.9,0,21.5,9.6,21.5,21.5
		S1995,686.2,1983.2,686.2z"/>
</g>
<g id="Capa_14" class="st1">
	<g class="st2">
		<g>
			<path class="st0" d="M1674.2,457.5c82.7-55.4,185.6-124.4,185.6-262.7C1859.8,88.5,1773.3,2,1667,2c-43.7,0-85,14.3-118.7,40.8
				c-33.7-26.5-75-40.8-118.7-40.8c-106.3,0-192.8,86.5-192.8,192.8c0,138.8,102.1,207.4,184.2,262.5c46.1,31,89.7,60.2,100.5,93.2
				c3.8,11.6,14.6,19.3,26.7,19.3c0.2,0,0.4,0,0.6,0c12.3-0.3,23.1-8.5,26.5-20.4C1584.4,517.7,1628,488.5,1674.2,457.5z
				 M1433.4,86.5c-55.9,16.1-93.5,63.8-93.5,118.7c0,18.9,4.4,37,13.1,53.9c2.2,4.3,1.2,9.6-2.4,12.9c-2,1.8-4.6,2.7-7.1,2.7
				c-2.1,0-4.1-0.6-5.9-1.8c-32.5-21.6-51.9-56.9-51.9-94.5c0-63.5,54.5-115.2,121.5-115.2c8.6,0,17.1,0.9,25.5,2.5
				c4.8,1,8.4,5.1,8.6,10.1C1441.4,80.7,1438.2,85.1,1433.4,86.5z"/>
			<path class="st0" d="M1465.6,913.9c-4-9.9-8.6-19.7-13.5-29.1c-32-61.8-75.9-103-118.3-142.9c-12-11.2-27.2-28.8-43.3-47.4
				c-23.6-27.1-47.9-55.2-64.3-65.9c-14.8-9.7-27-10-36-0.8c-13.2,13.4-9.3,38.3,12.7,80.8c14.7,28.4,36,61.9,58.6,97.3
				c3.6,5.7,7.3,11.5,11,17.3c-40-43.7-69.3-83.5-87.4-118.4c-20.7-40.1-25-71-11.9-87.2c9.2-11.4,26.8-14.2,49.5-8l3.4,0.9
				l-0.8-3.4c-0.4-1.8-42.4-176.5-51.2-209.6c-1.9-7.3-4.7-14.3-8.1-20.9c-12.2-23.6-31.5-37.9-45.9-34.1
				c-6.9,1.9-18.4,9.8-16.9,41.7l21.8,275.8c1.1,9,1.9,18.4,2.7,28.4c2.5,30.6,5.2,62.2,17.7,86.3c5.2,10.1,11.2,19.1,18.4,27.8
				c13,15.5,49,53,87.1,92.7c37.1,38.6,75.5,78.6,89.6,95.3c11,13.1,20.5,27.5,29.1,44.1c6.9,13.4,12.7,27.2,17.9,41.3h134.2l-2-6.9
				C1503.6,1014.5,1485.9,963.7,1465.6,913.9z"/>
			<path class="st0" d="M1976.6,342.7c-14.4-3.9-33.7,10.5-45.9,34.1c-3.4,6.6-6.1,13.6-8.1,20.9c-8.9,33.1-50.8,207.8-51.2,209.6
				l-0.8,3.4l3.4-0.9c22.7-6.3,40.3-3.4,49.5,8c13.1,16.1,8.9,47.1-11.9,87.2c-18.1,34.9-47.4,74.7-87.4,118.4
				c3.7-5.8,7.4-11.6,11-17.3c22.6-35.4,43.9-68.9,58.6-97.3c22-42.5,25.9-67.4,12.7-80.8c-9.1-9.2-21.2-8.9-36,0.8
				c-16.4,10.7-40.7,38.8-64.3,65.9c-16.1,18.6-31.4,36.2-43.3,47.4c-42.5,39.9-86.4,81.1-118.3,142.9c-4.9,9.4-9.4,19.2-13.5,29.1
				c-20.3,49.7-38,100.6-54.2,155.4l-2,6.9h134.2c5.2-14.1,11-27.9,17.9-41.3c8.6-16.6,18.1-31,29.1-44.1
				c14-16.7,52.4-56.6,89.6-95.3c38.2-39.7,74.2-77.2,87.1-92.7c7.2-8.6,13.2-17.7,18.4-27.8c12.5-24.2,15.1-55.8,17.7-86.3
				c0.8-10,1.6-19.4,2.7-28.4l21.8-275.8C1995,352.4,1983.6,344.6,1976.6,342.7z"/>
		</g>
	</g>
</g>
<g id="Capa_15" class="st1">
	<path class="st5" d="M1877.5,89c21.2,0,38.4,17.3,38.4,38.4v120.8c0,21.2-17.3,38.4-38.4,38.4c-21.2,0-38.4-17.3-38.4-38.4V127.4
		C1839.1,106.2,1856.3,89,1877.5,89"/>
	<path class="st5" d="M1959.1,200.4V249c0,44.7-36.9,81.6-81.6,81.6c-44.7,0-81.6-36.9-81.6-81.6v-48.6h-318.5V249
		c0,44.7-36.9,81.6-81.6,81.6c-45.5,0-81.6-36.9-81.6-81.6v-48.6h-120v202.4v596.1h884.8V403.5V200.4H1959.1z M2031.2,776.1
		l-175.7,173.4h-613.4V403.5h789.1V776.1z"/>
	<path class="st5" d="M1395.9,89c21.2,0,38.4,17.3,38.4,38.4v120.8c0,21.2-17.3,38.4-38.4,38.4s-38.4-17.3-38.4-38.4V127.4
		C1357.4,106.2,1374.7,89,1395.9,89"/>
	<path class="st5" d="M1877.5,89c21.2,0,38.4,17.3,38.4,38.4v120.8c0,21.2-17.3,38.4-38.4,38.4c-21.2,0-38.4-17.3-38.4-38.4V127.4
		C1839.1,106.2,1856.3,89,1877.5,89"/>
</g>
<g id="Capa_16" class="st1">
	<g class="st2">
		<rect x="1205.2" y="357.5" class="st9" width="816.7" height="653.4"/>
		<path class="st9" d="M2022,357.5h-816.7v163.3c0,60.1,48.8,108.9,108.9,108.9h598.9c60.1,0,108.9-48.8,108.9-108.9V357.5z"/>
		<path class="st10" d="M1395.8,357.5V248.6c0-30.1,24.4-54.4,54.4-54.4h326.7c30.1,0,54.4,24.4,54.4,54.4v108.9"/>
		<path class="st4" d="M1613.6,738.6L1613.6,738.6c-30.1,0-54.4-24.4-54.4-54.4V575.3c0-30.1,24.4-54.4,54.4-54.4l0,0
			c30.1,0,54.4,24.4,54.4,54.4v108.9C1668,714.3,1643.7,738.6,1613.6,738.6z"/>
		<line class="st11" x1="1668" y1="629.7" x2="1559.2" y2="629.7"/>
	</g>
</g>
<g id="Lineas">
</g>
</svg>
