<?xml version="1.0" encoding="utf-8"?>
<!-- Generator: Adobe Illustrator 22.0.1, SVG Export Plug-In . SVG Version: 6.00 Build 0)  -->
<svg version="1.1" id="Capa_1" xmlns="http://www.w3.org/2000/svg" xmlns:xlink="http://www.w3.org/1999/xlink" x="0px" y="0px"
	 viewBox="0 0 1080 1080" style="enable-background:new 0 0 1080 1080;" xml:space="preserve">
<style type="text/css">
	.st0{fill:#002B54;}
	.st1{fill:#FFFFFF;}
	.st2{fill:#00D9B2;}
</style>
<g>
	<path class="st0" d="M735,647.1c57.5-6.1,113.5-36.3,161.8-89.2c7.6-9.1,9.1-18.2,7.6-28.8c65-78.6,104.3-186,104.3-269.2
		c0-128.5-60.4-142.1-163.2-163.3v-1.5c-7.6-12.1-19.7-19.7-34.8-19.7c-21.1,0-37.8,16.6-37.8,36.3c0,19.7,16.7,36.3,37.8,36.3
		c9.1,0,16.7-3,22.7-9.1l1.5,1.5c99.8,21.2,125.6,25.7,125.6,119.4c0,72.6-36.3,170.9-93.8,242c-9.1,0-18.1,3-25.7,10.6
		c-28.6,31.8-75.5,69.5-130,69.5c-56,0-101.2-37.8-130-68c-7.6-7.6-16.7-12.1-25.7-12.1c-57.4-71.1-95.2-169.4-95.2-242
		c0-93.7,27.2-98.3,127-119.4V139c6.1,6,15.1,9.1,24.2,9.1c21.2,0,37.8-16.6,37.8-36.3c0-19.7-16.7-36.3-37.8-36.3
		c-16.6,0-28.6,7.6-34.8,19.7h-1.5C473.5,117.9,411.5,130,411.5,260c0,83.2,39.3,190.6,105.7,270.7c-1.5,9.1,0,19.7,7.6,27.2
		c48.3,51.4,102.8,81.6,158.8,89.2l-1.6,163.3c0,111.9-98.2,202.7-217.8,202.7c-119.4,0-216.2-90.7-216.2-202.7V666.8
		c69.6-10.6,122.5-65,122.5-133.1c0-75.6-66.6-136.1-148.2-136.1c-80.1,0-146.6,60.5-146.6,136.1c0,68.1,54.4,122.5,122.4,133.1
		v143.6c0,136.1,119.5,246.5,266.1,246.5c148.3,0,267.7-110.4,267.7-246.5V647.1H735z"/>
	<path class="st1" d="M222.4,624.5L222.4,624.5c54.5,0,98.4-40.9,98.4-90.7c0-51.4-43.9-90.7-98.4-90.7c-52.9,0-96.8,39.3-96.8,90.7
		C125.7,583.6,169.5,624.5,222.4,624.5"/>
	<path class="st2" d="M221,465.7L221,465.7c39.3,0,71.1,30.2,71.1,68c0,37.8-31.8,69.6-71.1,69.6c-40.9,0-71.1-31.8-71.1-69.6
		C149.9,495.9,180.1,465.7,221,465.7"/>
</g>
</svg>
