<?xml version="1.0" encoding="utf-8"?>
<!-- Generator: Adobe Illustrator 22.0.1, SVG Export Plug-In . SVG Version: 6.00 Build 0)  -->
<svg version="1.1" id="Layer_1" xmlns="http://www.w3.org/2000/svg" xmlns:xlink="http://www.w3.org/1999/xlink" x="0px" y="0px"
	 viewBox="0 0 1080 888" style="enable-background:new 0 0 1080 888;" xml:space="preserve">
<style type="text/css">
	.st0{fill:#FFFFFF;}
</style>
<g id="XMLID_10_">
	<g>
		<path class="st0" d="M1076.8,662.1c0-61.3-18.7-120.4-54.1-171.1c-25.4-36.4-58.2-66.7-96.2-89.2c44.7-41.5,72.7-100.3,72.7-165.3
			C999.2,110.9,895,8.8,767,8.8c-75.9,0-147,36.8-190.2,97.3c-11-1.6-22.2-2.4-33.6-2.4c-11.4,0-22.6,0.8-33.6,2.4
			C466.5,45.6,395.4,8.8,319.5,8.8c-128,0-232.1,102.2-232.1,227.8c0,65,28,123.8,72.7,165.3c-38,22.5-70.7,52.7-96.2,89.2
			C28.5,541.7,9.8,600.8,9.8,662.1v126.7h223.8v94.9H853v-94.9h223.8L1076.8,662.1L1076.8,662.1L1076.8,662.1z M767,65
			c96.4,0,174.8,77,174.8,171.6S863.4,408.1,767,408.1c-1.7,0-3.5,0-5.2-0.1c0.1-0.4,0.2-0.7,0.4-1.1c3-8.3,5.5-16.8,7.5-25.5
			c0.1-0.6,0.3-1.2,0.4-1.9c0.5-2.3,1-4.7,1.4-7.1c0.2-1.1,0.4-2.2,0.6-3.4c0.4-2.1,0.7-4.3,1-6.4c0.2-1.5,0.4-3,0.6-4.5
			c0.2-1.9,0.4-3.8,0.6-5.7c0.2-1.9,0.3-3.9,0.5-5.8c0.1-1.5,0.2-3.1,0.3-4.6c0.2-3.3,0.2-6.6,0.3-9.9c0-0.2,0-0.5,0-0.7
			c0-0.1,0-0.3,0-0.4c0-3.4-0.1-6.8-0.3-10.1c0-1-0.1-1.9-0.2-2.9c-0.2-2.9-0.4-5.7-0.7-8.5c-0.1-0.6-0.1-1.3-0.2-1.9
			c-8.7-82.1-61.5-152.4-137.8-184.9C669.2,86.5,716.7,65,767,65z M482.8,170.4c0.6-0.2,1.1-0.4,1.7-0.6c1.7-0.6,3.5-1.2,5.3-1.7
			c1.3-0.4,2.7-0.8,4-1.2c1-0.3,2-0.6,3-0.8c1.8-0.5,3.5-0.9,5.3-1.4c13.2-3.2,27-4.9,41.2-4.9c14.2,0,28,1.7,41.3,4.9
			c1.8,0.4,3.5,0.9,5.3,1.4c1,0.3,2,0.5,3,0.8c1.3,0.4,2.7,0.8,4,1.2c1.8,0.6,3.6,1.1,5.3,1.8c0.5,0.2,1.1,0.4,1.6,0.6
			C662.2,191.7,706,242.7,716,304.7c0.1,0.5,0.2,1,0.2,1.5c0.3,2.1,0.6,4.2,0.8,6.3c0.1,0.8,0.2,1.6,0.3,2.3
			c0.2,1.9,0.3,3.9,0.5,5.8c0.1,0.8,0.1,1.7,0.2,2.5c0.1,2.5,0.2,5,0.2,7.5c0,0.2,0,0.4,0,0.7c0,0.1,0,0.2,0,0.3
			c0,2.4-0.1,4.9-0.2,7.3c0,0.8-0.1,1.5-0.1,2.3c-0.1,2.3-0.3,4.7-0.5,7c-0.1,0.9-0.2,1.8-0.3,2.7c-0.2,1.5-0.4,3-0.6,4.5
			c-0.2,1.2-0.3,2.3-0.5,3.5c-0.3,1.8-0.6,3.5-1,5.2c-0.3,1.5-0.6,3.1-1,4.6c-0.2,0.9-0.4,1.8-0.7,2.8c-0.6,2.3-1.2,4.5-1.8,6.8
			c-0.3,0.9-0.5,1.8-0.8,2.7c-0.4,1.3-0.8,2.6-1.3,3.9c-0.3,1-0.7,2-1.1,3.1c-0.4,1.2-0.8,2.3-1.3,3.5c-0.7,1.9-1.5,3.9-2.3,5.8
			c-0.4,0.9-0.7,1.7-1.1,2.6c-0.7,1.6-1.4,3.2-2.2,4.7c-0.1,0.2-0.2,0.4-0.3,0.6c-0.3,0.6-0.5,1.1-0.8,1.7c-0.8,1.7-1.7,3.4-2.6,5
			c-0.4,0.6-0.7,1.3-1.1,1.9c0,0,0,0.1-0.1,0.1c-1,1.8-2,3.5-3.1,5.2c-0.4,0.7-0.8,1.4-1.3,2.1c-1.1,1.8-2.3,3.6-3.5,5.4
			c-0.8,1.1-1.5,2.2-2.3,3.3c-0.7,0.9-1.3,1.8-2,2.8c-0.9,1.2-1.8,2.3-2.7,3.5c-0.6,0.8-1.2,1.6-1.9,2.3c-1,1.2-1.9,2.4-2.9,3.5
			c-0.6,0.7-1.2,1.4-1.9,2.1c-1,1.2-2.1,2.3-3.1,3.5c-0.6,0.7-1.3,1.3-1.9,2c-1.7,1.8-3.5,3.5-5.3,5.2c-1.1,1-2.1,2-3.2,3
			c-0.8,0.7-1.5,1.3-2.3,2c-1.3,1.1-2.5,2.2-3.8,3.2c-0.7,0.5-1.3,1.1-2,1.6c-1.6,1.2-3.1,2.5-4.7,3.7c-0.4,0.3-0.9,0.7-1.3,1
			c-29.1,21.2-65.1,33.8-104.1,33.8c-39,0-75-12.6-104.1-33.8c-0.4-0.3-0.9-0.6-1.3-1c-1.6-1.2-3.2-2.4-4.8-3.7
			c-0.7-0.5-1.3-1.1-2-1.6c-1.3-1.1-2.6-2.2-3.8-3.2c-0.8-0.7-1.5-1.3-2.3-2c-1.1-1-2.2-2-3.2-3c-1.8-1.7-3.6-3.5-5.3-5.3
			c-0.6-0.7-1.3-1.3-1.9-2c-1.1-1.1-2.1-2.3-3.1-3.5c-0.6-0.7-1.3-1.4-1.9-2.1c-1-1.2-2-2.3-2.9-3.5c-0.6-0.8-1.3-1.6-1.9-2.3
			c-0.9-1.2-1.8-2.3-2.7-3.5c-0.7-0.9-1.3-1.8-2-2.8c-0.8-1.1-1.6-2.2-2.3-3.3c-1.2-1.8-2.4-3.6-3.5-5.4c-0.4-0.7-0.8-1.3-1.2-2
			c-1.1-1.8-2.1-3.5-3.1-5.3c-0.4-0.7-0.7-1.3-1.1-2c-0.9-1.7-1.8-3.4-2.6-5.1c-0.3-0.6-0.6-1.2-0.9-1.8c0-0.1-0.1-0.2-0.1-0.3
			c-0.8-1.6-1.6-3.3-2.3-5c-0.4-0.8-0.7-1.6-1-2.4c-0.8-2-1.6-3.9-2.4-5.9c-0.4-1.1-0.8-2.2-1.2-3.2c-0.4-1.1-0.8-2.2-1.2-3.4
			c-0.4-1.2-0.8-2.4-1.2-3.6c-0.6-1.8-1.1-3.7-1.6-5.5c-0.4-1.3-0.7-2.6-1-3.9c-0.3-1-0.5-2.1-0.7-3.1c-0.3-1.3-0.6-2.5-0.8-3.8
			c-0.4-2-0.8-4-1.1-6c-0.2-1.1-0.3-2.2-0.5-3.2c-0.2-1.6-0.4-3.2-0.6-4.8c-0.1-0.8-0.2-1.6-0.3-2.4c-0.2-2.4-0.4-4.8-0.6-7.2
			c0-0.7-0.1-1.4-0.1-2.1c-0.1-2.6-0.2-5.1-0.2-7.7c0-2.8,0.1-5.5,0.2-8.3c0-0.7,0.1-1.5,0.1-2.2c0.1-2.1,0.3-4.1,0.5-6.1
			c0.1-0.7,0.2-1.4,0.2-2.1c0.2-2.2,0.5-4.4,0.9-6.6c0.1-0.4,0.1-0.9,0.2-1.3C380.4,242.8,424.3,191.7,482.8,170.4z M144.6,236.5
			c0-94.6,78.4-171.6,174.8-171.6c50.3,0,97.8,21.5,130.7,57.7C373.9,155.2,321,225.5,312.4,307.6c-0.1,0.6-0.1,1.1-0.2,1.7
			c-0.3,2.9-0.5,5.9-0.7,8.8c-0.1,0.9-0.1,1.8-0.2,2.7c-0.2,3.5-0.3,7-0.3,10.6c0,3.6,0.1,7.2,0.3,10.7c0.1,1.4,0.2,2.9,0.3,4.3
			c0.1,2.1,0.3,4.1,0.5,6.2c0.2,1.8,0.4,3.6,0.6,5.4c0.2,1.6,0.4,3.2,0.6,4.7c0.3,2.1,0.6,4.1,1,6.2c0.2,1.2,0.4,2.4,0.7,3.6
			c0.4,2.3,0.9,4.6,1.4,6.8c0.2,0.7,0.4,1.5,0.5,2.2c1.9,8.4,4.4,16.7,7.2,24.8c0.2,0.5,0.3,1,0.5,1.6c-1.7,0.1-3.5,0.1-5.2,0.1
			C223.1,408.1,144.6,331.1,144.6,236.5z M281.6,594.9c-0.6,1-1.2,2-1.9,2.9c-1.3,2.1-2.6,4.2-3.9,6.3c-0.7,1.2-1.4,2.4-2.1,3.5
			c-1.1,1.9-2.2,3.9-3.3,5.9c-0.7,1.2-1.4,2.5-2,3.7c-1,2-2.1,3.9-3.1,5.9c-0.6,1.2-1.3,2.5-1.9,3.7c-1,2.1-2,4.2-3,6.3
			c-0.5,1.1-1.1,2.3-1.6,3.4c-1.1,2.5-2.2,5.1-3.2,7.6c-0.3,0.7-0.6,1.5-0.9,2.2c-1.3,3.3-2.6,6.6-3.8,10c-0.3,0.8-0.5,1.5-0.8,2.3
			c-0.9,2.6-1.8,5.2-2.6,7.8c-0.4,1.2-0.7,2.4-1.1,3.6c-0.7,2.2-1.3,4.4-2,6.6c-0.4,1.3-0.7,2.6-1.1,4c-0.6,2.1-1.1,4.3-1.6,6.4
			c-0.3,1.4-0.7,2.7-1,4.1c-0.5,2.2-1,4.4-1.4,6.5c-0.3,1.3-0.5,2.6-0.8,3.9c-0.4,2.4-0.9,4.8-1.2,7.2c-0.2,1.1-0.4,2.2-0.6,3.4
			c-0.5,3.5-1,7-1.4,10.6c0,0,0,0.1,0,0.1c-0.4,3.2-0.7,6.4-1,9.7H67v-70.5c0-96.3,56.4-182.7,144.8-223.8
			c32.2,16.6,68.8,26.1,107.6,26.1c11.2,0,22.5-0.8,33.7-2.4c1.7,2.4,3.5,4.8,5.3,7.2c0.6,0.8,1.3,1.6,1.9,2.4
			c1.8,2.3,3.6,4.5,5.5,6.7c0.8,0.9,1.6,1.8,2.4,2.7c1.8,2,3.6,4,5.4,5.9c1,1,2,2,2.9,3c1.7,1.7,3.4,3.4,5.1,5
			c0.7,0.6,1.3,1.3,1.9,1.9c-2.5,1.5-5,3-7.4,4.5c-0.4,0.3-0.8,0.5-1.2,0.8c-2.4,1.6-4.9,3.1-7.3,4.8c-0.8,0.6-1.7,1.1-2.5,1.7
			c-2.1,1.5-4.2,3-6.3,4.5c-0.7,0.5-1.3,1-2,1.4c-2.7,2-5.3,4-7.9,6c-0.6,0.4-1.1,0.9-1.7,1.4c-2.1,1.7-4.1,3.4-6.1,5.1
			c-0.8,0.7-1.6,1.3-2.3,2c-2,1.8-4,3.5-6,5.3c-0.5,0.5-1,0.9-1.6,1.4c-2.4,2.2-4.8,4.5-7.2,6.9c-0.6,0.6-1.2,1.2-1.8,1.8
			c-1.8,1.8-3.6,3.6-5.4,5.5c-0.7,0.7-1.4,1.5-2.1,2.2c-2,2.1-3.9,4.3-5.9,6.5c-0.3,0.3-0.6,0.7-0.9,1c-2.2,2.5-4.3,5.1-6.4,7.7
			c-0.6,0.7-1.2,1.5-1.7,2.2c-1.6,2-3.2,4-4.7,6c-0.6,0.8-1.2,1.6-1.8,2.3c-2,2.7-4,5.4-5.9,8.2
			C285.5,588.9,283.5,591.9,281.6,594.9z M290.8,827.4v-38.7v-31.8c0-3.1,0.1-6.2,0.2-9.3c0-1,0.1-2,0.2-3c0.1-2.1,0.2-4.1,0.4-6.2
			c0.1-1.3,0.2-2.5,0.4-3.7c0.2-1.8,0.3-3.6,0.5-5.4c0.2-1.3,0.3-2.6,0.5-4c0.2-1.7,0.4-3.4,0.7-5.1c0.2-1.4,0.5-2.7,0.7-4.1
			c0.3-1.6,0.5-3.3,0.9-4.9c0.3-1.4,0.6-2.8,0.9-4.1c0.3-1.6,0.7-3.2,1-4.8c0.3-1.4,0.7-2.8,1-4.2c0.4-1.5,0.8-3.1,1.2-4.6
			c0.4-1.4,0.8-2.8,1.2-4.2c0.4-1.5,0.9-3,1.3-4.5c0.4-1.4,0.9-2.8,1.4-4.2c0.5-1.5,1-2.9,1.5-4.4c0.5-1.4,1-2.7,1.5-4.1
			c0.5-1.4,1.1-2.9,1.6-4.3c0.5-1.4,1.1-2.7,1.7-4.1c0.6-1.4,1.2-2.8,1.8-4.2c0.6-1.4,1.2-2.7,1.8-4c0.6-1.4,1.3-2.8,1.9-4.1
			c0.6-1.3,1.3-2.7,2-4c0.7-1.3,1.4-2.7,2.1-4c0.7-1.3,1.4-2.6,2.1-3.9c0.7-1.3,1.4-2.6,2.2-3.9c0.7-1.3,1.5-2.6,2.3-3.8
			c0.8-1.3,1.5-2.6,2.3-3.9c0.8-1.3,1.6-2.5,2.4-3.8c0.8-1.3,1.6-2.5,2.5-3.8c0.8-1.2,1.7-2.5,2.6-3.7c0.9-1.2,1.7-2.4,2.6-3.7
			c0.9-1.2,1.8-2.4,2.7-3.6c0.9-1.2,1.8-2.4,2.7-3.5c0.9-1.2,1.9-2.3,2.8-3.5c0.9-1.2,1.9-2.3,2.9-3.5c1-1.1,2-2.3,3-3.4
			c1-1.1,2-2.3,3-3.4c1-1.1,2.1-2.2,3.1-3.3c1-1.1,2.1-2.2,3.1-3.3c1.1-1.1,2.1-2.1,3.2-3.2c1.1-1.1,2.2-2.1,3.3-3.2
			c1.1-1,2.2-2.1,3.3-3.1c1.1-1,2.3-2,3.4-3c1.1-1,2.3-2,3.5-3c1.2-1,2.3-2,3.5-2.9c1.2-1,2.4-1.9,3.6-2.9c1.2-0.9,2.4-1.9,3.6-2.8
			c1.2-0.9,2.4-1.8,3.7-2.7c1.2-0.9,2.5-1.8,3.8-2.7c1.2-0.9,2.5-1.7,3.8-2.6c1.3-0.9,2.6-1.7,3.9-2.6c1.3-0.8,2.6-1.6,3.9-2.5
			c1.3-0.8,2.7-1.7,4-2.5c1.3-0.8,2.6-1.6,3.9-2.3c1.4-0.8,2.8-1.6,4.2-2.3c1.3-0.7,2.7-1.5,4-2.2c1.4-0.7,2.8-1.5,4.3-2.2
			c1.4-0.7,2.7-1.4,4.1-2c1.1-0.5,2.2-1,3.3-1.5c32.2,16.6,68.8,26.1,107.6,26.1c38.8,0,75.4-9.4,107.6-26.1c1.1,0.5,2.2,1,3.3,1.5
			c1.4,0.7,2.8,1.4,4.2,2.1c1.4,0.7,2.8,1.4,4.2,2.2c1.4,0.7,2.7,1.5,4.1,2.2c1.4,0.8,2.7,1.5,4.1,2.3c1.3,0.8,2.7,1.6,4,2.3
			c1.3,0.8,2.7,1.6,4,2.4c1.3,0.8,2.6,1.6,3.9,2.5c1.3,0.8,2.6,1.7,3.9,2.6c1.3,0.9,2.5,1.7,3.8,2.6s2.5,1.8,3.7,2.7
			c1.2,0.9,2.5,1.8,3.7,2.7c1.2,0.9,2.4,1.9,3.6,2.8c1.2,0.9,2.4,1.9,3.6,2.9c1.2,1,2.3,1.9,3.5,2.9c1.2,1,2.3,2,3.5,3
			c1.1,1,2.3,2,3.4,3c1.1,1,2.3,2.1,3.4,3.1c1.1,1,2.2,2.1,3.2,3.1c1.1,1.1,2.2,2.1,3.2,3.2c1,1.1,2.1,2.1,3.1,3.2
			c1,1.1,2.1,2.2,3.1,3.3c1,1.1,2,2.2,3,3.3c1,1.1,2,2.3,3,3.4c1,1.1,1.9,2.3,2.9,3.4c1,1.2,1.9,2.3,2.9,3.5
			c0.9,1.2,1.8,2.3,2.7,3.5c0.9,1.2,1.8,2.4,2.7,3.6c0.9,1.2,1.7,2.4,2.6,3.6c0.9,1.2,1.7,2.5,2.6,3.7c0.8,1.2,1.6,2.5,2.5,3.7
			c0.8,1.3,1.6,2.5,2.4,3.8c0.8,1.3,1.6,2.5,2.3,3.8c0.8,1.3,1.6,2.6,2.3,3.9c0.7,1.3,1.5,2.6,2.2,3.9c0.7,1.3,1.4,2.6,2.1,3.9
			c0.7,1.3,1.4,2.7,2.1,4c0.7,1.3,1.3,2.6,2,4c0.7,1.4,1.3,2.7,1.9,4.1c0.6,1.3,1.2,2.7,1.8,4c0.6,1.4,1.2,2.8,1.8,4.2
			c0.6,1.4,1.1,2.7,1.7,4.1c0.6,1.4,1.1,2.9,1.6,4.3c0.5,1.4,1,2.7,1.5,4.1c0.5,1.5,1,2.9,1.5,4.4c0.5,1.4,0.9,2.8,1.4,4.1
			c0.5,1.5,0.9,3,1.3,4.5c0.4,1.4,0.8,2.8,1.2,4.2c0.4,1.5,0.8,3.1,1.2,4.6c0.3,1.4,0.7,2.8,1,4.2c0.4,1.6,0.7,3.2,1,4.8
			c0.3,1.4,0.6,2.8,0.9,4.1c0.3,1.6,0.6,3.3,0.9,4.9c0.2,1.4,0.5,2.7,0.7,4.1c0.3,1.7,0.5,3.4,0.7,5.1c0.2,1.3,0.4,2.7,0.5,4
			c0.2,1.8,0.4,3.6,0.5,5.4c0.1,1.2,0.3,2.5,0.4,3.7c0.2,2.1,0.3,4.1,0.4,6.2c0.1,1,0.1,2,0.2,3c0.1,3.1,0.2,6.2,0.2,9.3v31.8v38.7
			L290.8,827.4L290.8,827.4z M852,732.5c-0.6-6.8-1.4-13.7-2.4-20.4c-0.2-1.1-0.4-2.1-0.5-3.2c-0.4-2.4-0.8-4.9-1.3-7.3
			c-0.2-1.3-0.5-2.6-0.8-3.8c-0.4-2.2-0.9-4.4-1.4-6.7c-0.3-1.3-0.6-2.7-0.9-4c-0.5-2.2-1.1-4.3-1.6-6.5c-0.3-1.3-0.7-2.6-1.1-3.9
			c-0.6-2.2-1.3-4.5-2-6.7c-0.4-1.2-0.7-2.4-1.1-3.5c-0.8-2.6-1.7-5.3-2.7-7.9c-0.3-0.7-0.5-1.5-0.8-2.2c-1.2-3.4-2.5-6.7-3.8-10
			c-0.3-0.7-0.6-1.4-0.9-2.1c-1.1-2.6-2.1-5.1-3.3-7.7c-0.5-1.1-1-2.3-1.5-3.4c-1-2.1-2-4.2-3-6.3c-0.6-1.2-1.2-2.5-1.8-3.7
			c-1-2-2-4-3.1-6c-0.7-1.2-1.3-2.5-2-3.7c-1.1-2-2.2-3.9-3.3-5.9c-0.7-1.2-1.4-2.3-2.1-3.5c-1.3-2.1-2.6-4.2-3.9-6.3
			c-0.6-1-1.2-2-1.8-2.9c-2-3-4-6-6.1-9c-1.9-2.8-3.9-5.5-5.9-8.2c-0.6-0.8-1.2-1.6-1.8-2.3c-1.5-2-3.1-4-4.7-6
			c-0.6-0.7-1.1-1.4-1.7-2.2c-2.1-2.6-4.3-5.2-6.5-7.7c-0.3-0.3-0.6-0.6-0.9-1c-1.9-2.2-3.9-4.4-5.9-6.5c-0.7-0.7-1.4-1.5-2.1-2.2
			c-1.8-1.9-3.6-3.7-5.4-5.5c-0.6-0.6-1.2-1.2-1.8-1.8c-2.4-2.3-4.8-4.6-7.2-6.9c-0.5-0.5-1-0.9-1.5-1.4c-2-1.8-4-3.6-6-5.4
			c-0.8-0.7-1.6-1.3-2.3-2c-2-1.7-4.1-3.4-6.1-5.1c-0.6-0.5-1.1-0.9-1.7-1.4c-2.6-2.1-5.2-4.1-7.9-6c-0.7-0.5-1.3-1-2-1.5
			c-2.1-1.5-4.2-3-6.3-4.5c-0.8-0.6-1.7-1.1-2.5-1.7c-2.4-1.6-4.8-3.2-7.2-4.7c-0.4-0.3-0.8-0.6-1.3-0.8c-2.4-1.5-4.9-3-7.4-4.5
			c0.6-0.6,1.2-1.2,1.9-1.8c1.8-1.7,3.5-3.4,5.2-5.1c1-1,1.9-1.9,2.9-2.9c1.9-2,3.7-4,5.5-6c0.8-0.9,1.5-1.7,2.3-2.6
			c1.9-2.2,3.8-4.5,5.6-6.8c0.6-0.8,1.2-1.5,1.8-2.3c1.8-2.4,3.6-4.8,5.4-7.2c11.2,1.6,22.4,2.4,33.7,2.4
			c38.8,0,75.4-9.4,107.6-26.1c88.4,41.1,144.8,127.5,144.8,223.8v70.5H852z"/>
	</g>
</g>
</svg>
