<?xml version="1.0" encoding="utf-8"?>
<!-- Generator: Adobe Illustrator 22.0.1, SVG Export Plug-In . SVG Version: 6.00 Build 0)  -->
<svg version="1.1" xmlns="http://www.w3.org/2000/svg" xmlns:xlink="http://www.w3.org/1999/xlink" x="0px" y="0px"
	 viewBox="0 0 1080 1080" style="enable-background:new 0 0 1080 1080;" xml:space="preserve">
<style type="text/css">
	.st0{display:none;}
	.st1{display:inline;}
	.st2{fill-rule:evenodd;clip-rule:evenodd;fill:#FFFFFF;}
	.st3{fill:none;}
	.st4{fill:#002B54;}
	.st5{fill:#002B54;stroke:#FFFFFF;stroke-width:17.0079;stroke-miterlimit:10;}
	.st6{fill:none;stroke:#002B54;stroke-width:25.5118;stroke-miterlimit:10;}
	.st7{fill:#00D9B2;}
	.st8{display:none;fill:#002B54;}
</style>
<g id="Capa_1" class="st0">
	<g class="st1">
		<path class="st2" d="M540,8.6C248.4,8.6,11.2,245.8,11.2,537.4C11.2,640,40.3,738.5,95.6,824l-80.3,177
			c-7.4,16.3-4.7,35.4,6.9,49.1c8.9,10.4,21.8,16.2,35.1,16.2c4.1,0,8.2-0.5,12.2-1.6l221.3-60.7c76.4,40.9,162.1,62.4,249.1,62.4
			c291.6,0,528.8-237.2,528.8-528.8C1068.8,245.8,831.6,8.6,540,8.6z M540,973.9c-77.2,0-153.2-20.5-219.8-59.4
			c-7.1-4.2-15.2-6.3-23.3-6.3c-4.1,0-8.2,0.5-12.2,1.6l-144.6,39.7l50.4-110.9c6.8-15.1,5.1-32.7-4.6-46.1
			c-53.9-74.7-82.3-162.8-82.3-255C103.5,296.8,299.3,101,540,101c240.7,0,436.5,195.8,436.5,436.4
			C976.4,778.1,780.7,973.9,540,973.9z"/>
		<path class="st2" d="M743.3,616.6c-22.1-13.2-51-28-77.1-17.4c-20,8.2-32.8,39.5-45.8,55.5c-6.7,8.2-14.6,9.5-24.8,5.4
			C520.5,630.2,463,580.1,421.5,511c-7-10.7-5.8-19.2,2.7-29.2c12.5-14.7,28.3-31.5,31.6-51.4c3.4-19.9-5.9-43.1-14.1-60.8
			c-10.5-22.6-22.2-54.9-44.9-67.6c-20.8-11.8-48.3-5.2-66.8,9.9c-32,26.1-47.5,66.9-47,107.4c0.1,11.5,1.5,23,4.2,34.1
			c6.5,26.7,18.8,51.7,32.7,75.4c10.5,17.9,21.9,35.2,34.1,51.9c40.2,54.6,90.2,102,148.1,137.5c28.9,17.7,60.1,33.3,92.3,43.9
			c36.2,12,68.4,24.4,107.5,17c40.9-7.8,81.2-33.1,97.5-72.5c4.8-11.7,7.2-24.7,4.5-37C798.4,644.1,763.9,628.9,743.3,616.6z"/>
	</g>
</g>
<g id="Capa_3">
	<circle class="st3" cx="1420.9" cy="537.3" r="195.1"/>
	<path class="st4" d="M2104,195.8h-317.2h-292.7h-317.2c-40.3,0-73.1,32.8-73.1,73.1v536.8c0,40.3,32.8,73.1,73.1,73.1H2104
		c40.3,0,73.1-32.8,73.1-73.1V268.9C2177.1,228.6,2144.3,195.8,2104,195.8z M1738,195.8 M2128.3,805.7c0,13.4-10.9,24.3-24.3,24.3
		h-927.1c-13.4,0-24.3-10.9-24.3-24.3V268.9c0-13.4,10.9-24.3,24.3-24.3H2104c13.4,0,24.3,10.9,24.3,24.3V805.7z"/>
	<path class="st4" d="M1420.9,756.8c-121,0-219.5-98.5-219.5-219.5s98.5-219.5,219.5-219.5s219.5,98.5,219.5,219.5
		S1542,756.8,1420.9,756.8z M1420.9,366.6c-94.2,0-170.7,76.6-170.7,170.7s76.6,170.7,170.7,170.7s170.7-76.6,170.7-170.7
		S1515.1,366.6,1420.9,366.6z"/>
	<path class="st4" d="M1494.1,500.7h-36.6v-36.6c0-20.2-16.4-36.6-36.6-36.6s-36.6,16.4-36.6,36.6v36.6h-36.6
		c-20.2,0-36.6,16.4-36.6,36.6s16.4,36.6,36.6,36.6h36.6v36.6c0,20.2,16.4,36.6,36.6,36.6s36.6-16.4,36.6-36.6v-36.6h36.6
		c20.2,0,36.6-16.4,36.6-36.6S1514.3,500.7,1494.1,500.7z"/>
	<path class="st4" d="M2055.1,415.3H1738c-13.5,0-24.4-10.9-24.4-24.4s10.9-24.4,24.4-24.4h317.1c13.5,0,24.4,10.9,24.4,24.4
		S2068.6,415.3,2055.1,415.3z"/>
	<path class="st4" d="M1811.2,512.9H1738c-13.5,0-24.4-10.9-24.4-24.4c0-13.5,10.9-24.4,24.4-24.4h73.2c13.5,0,24.4,10.9,24.4,24.4
		C1835.6,502,1824.7,512.9,1811.2,512.9z"/>
	<path class="st4" d="M2055.1,512.9h-146.4c-13.5,0-24.4-10.9-24.4-24.4c0-13.5,10.9-24.4,24.4-24.4h146.4
		c13.5,0,24.4,10.9,24.4,24.4C2079.5,502,2068.6,512.9,2055.1,512.9z"/>
	<path class="st4" d="M2055.1,610.5H1738c-13.5,0-24.4-10.9-24.4-24.4c0-13.5,10.9-24.4,24.4-24.4h317.1c13.5,0,24.4,10.9,24.4,24.4
		C2079.5,599.6,2068.6,610.5,2055.1,610.5z"/>
	<path class="st4" d="M2006.3,708.1H1738c-13.5,0-24.4-10.9-24.4-24.4c0-13.5,10.9-24.4,24.4-24.4h268.3c13.5,0,24.4,10.9,24.4,24.4
		C2030.7,697.2,2019.8,708.1,2006.3,708.1z"/>
</g>
<g id="Capa_4">
	<g>
		<rect x="19.2" y="228.3" class="st5" width="1045.7" height="836.5"/>
		<path class="st5" d="M1064.9,228.3H19.2v209.1c0,77,62.4,139.4,139.4,139.4h766.8c77,0,139.4-62.4,139.4-139.4V228.3z"/>
		<path class="st6" d="M263.2,228.3V88.9c0-38.5,31.2-69.7,69.7-69.7h418.3c38.5,0,69.7,31.2,69.7,69.7v139.4"/>
		<path class="st7" d="M542,716.3L542,716.3c-38.5,0-69.7-31.2-69.7-69.7V507.2c0-38.5,31.2-69.7,69.7-69.7l0,0
			c38.5,0,69.7,31.2,69.7,69.7v139.4C611.8,685.1,580.6,716.3,542,716.3z"/>
		<line class="st8" x1="611.8" y1="576.9" x2="472.3" y2="576.9"/>
	</g>
</g>
<g id="Capa_2">
</g>
</svg>
