<?xml version="1.0" encoding="utf-8"?>
<!-- Generator: Adobe Illustrator 22.0.1, SVG Export Plug-In . SVG Version: 6.00 Build 0)  -->
<svg version="1.1" xmlns="http://www.w3.org/2000/svg" xmlns:xlink="http://www.w3.org/1999/xlink" x="0px" y="0px"
	 viewBox="0 0 1080 1080" style="enable-background:new 0 0 1080 1080;" xml:space="preserve">
<style type="text/css">
	.st0{display:none;}
	.st1{display:inline;}
	.st2{fill:#002B54;}
	.st3{fill:#FFFFFF;}
	.st4{fill:#00D9B2;}
</style>
<g id="Capa_1" class="st0">
	<g class="st1">
		<path class="st2" d="M735,647.1c57.5-6.1,113.5-36.3,161.8-89.2c7.6-9.1,9.1-18.2,7.6-28.8c65-78.6,104.3-186,104.3-269.2
			c0-128.5-60.4-142.1-163.2-163.3v-1.5c-7.6-12.1-19.7-19.7-34.8-19.7c-21.1,0-37.8,16.6-37.8,36.3c0,19.7,16.7,36.3,37.8,36.3
			c9.1,0,16.7-3,22.7-9.1l1.5,1.5c99.8,21.2,125.6,25.7,125.6,119.4c0,72.6-36.3,170.9-93.8,242c-9.1,0-18.1,3-25.7,10.6
			c-28.6,31.8-75.5,69.5-130,69.5c-56,0-101.2-37.8-130-68c-7.6-7.6-16.7-12.1-25.7-12.1c-57.4-71.1-95.2-169.4-95.2-242
			c0-93.7,27.2-98.3,127-119.4V139c6.1,6,15.1,9.1,24.2,9.1c21.2,0,37.8-16.6,37.8-36.3c0-19.7-16.7-36.3-37.8-36.3
			c-16.6,0-28.6,7.6-34.8,19.7h-1.5C473.5,117.9,411.5,130,411.5,260c0,83.2,39.3,190.6,105.7,270.7c-1.5,9.1,0,19.7,7.6,27.2
			c48.3,51.4,102.8,81.6,158.8,89.2l-1.6,163.3c0,111.9-98.2,202.7-217.8,202.7c-119.4,0-216.2-90.7-216.2-202.7V666.8
			c69.6-10.6,122.5-65,122.5-133.1c0-75.6-66.6-136.1-148.2-136.1c-80.1,0-146.6,60.5-146.6,136.1c0,68.1,54.4,122.5,122.4,133.1
			v143.6c0,136.1,119.5,246.5,266.1,246.5c148.3,0,267.7-110.4,267.7-246.5V647.1H735z"/>
		<path class="st3" d="M222.4,624.5L222.4,624.5c54.5,0,98.4-40.9,98.4-90.7c0-51.4-43.9-90.7-98.4-90.7
			c-52.9,0-96.8,39.3-96.8,90.7C125.7,583.6,169.5,624.5,222.4,624.5"/>
		<path class="st4" d="M221,465.7L221,465.7c39.3,0,71.1,30.2,71.1,68c0,37.8-31.8,69.6-71.1,69.6c-40.9,0-71.1-31.8-71.1-69.6
			C149.9,495.9,180.1,465.7,221,465.7"/>
	</g>
</g>
<g id="ambulancia" class="st0">
	<g class="st1">
		<path class="st2" d="M760.1,520.6h-87.1v86.5h-84.1v-86.5h-87.1v-83.3h87.1v-86.6h84.1v86.6h87.1V520.6z M372.2,479H180.5
			l24.2-95.2c0.9-3,2.6-8.9,5.6-19.5c9.3-47.2,62.9-43.1,62.9-43.1h99.1L372.2,479z M916.4,266.8H422.3v-4
			c0-25.3-20.6-45.7-46.1-45.7c-25.5,0-46.2,20.4-46.2,45.7v4h-28.2c-77.7,0-148.7,35-176.1,139.7l-47,194.3
			c0,61.4,39.9,113.4,95.4,132.2c-0.8-5.2-1.4-10.3-1.4-15.6c0-55.7,45.7-101,101.8-101c56.2,0,101.8,45.3,101.8,101
			c0,8-1,15.8-2.9,23.3h311.1c-1.8-7.5-2.9-15.3-2.9-23.3c0-55.7,45.6-101,101.7-101c56.1,0,101.8,45.3,101.8,101
			c0,7.7-0.9,15.4-2.7,22.7c71.8-6.6,128-66.4,128-139.2V406.6C1010.4,329.5,994.2,266.8,916.4,266.8"/>
		<path class="st4" d="M353.2,720.6c0,43.9-35.8,79.5-80,79.5c-44.2,0-80-35.6-80-79.5c0-43.8,35.8-79.4,80-79.4
			C317.3,641.2,353.2,676.8,353.2,720.6"/>
		<path class="st4" d="M867.4,720.6c0,43.9-35.8,79.5-80,79.5c-44.1,0-80-35.6-80-79.5c0-43.8,35.9-79.4,80-79.4
			C831.6,641.2,867.4,676.8,867.4,720.6"/>
	</g>
</g>
<g id="laboratorio" class="st0">
	<g class="st1">
		<path class="st2" d="M984,872.6c20,38.1,18.4,82.1-3.1,117.1c-21.5,35-59.9,57.8-102.8,57.8H199.7c-42.9,0-81.3-22.8-102.8-57.8
			c-21.6-35-21.6-79-3.1-117.1l262.4-479V109.2c0-27.4,21.6-50.2,49.2-50.2h267c27.6,0,50.6,22.8,50.6,50.2v284.4L984,872.6z"/>
		<path class="st4" d="M583.3,673.4L583.3,673.4c-24.5,0-42.9,18.3-42.9,41.1c0,22.9,18.4,42.6,42.9,42.6
			c23.1,0,41.5-19.7,41.5-42.6C624.8,691.7,606.4,673.4,583.3,673.4"/>
		<path class="st4" d="M462.2,420.9L462.2,420.9c-23.1,0-41.5,18.3-41.5,41.1c0,24.3,18.4,42.6,41.5,42.6
			c24.5,0,42.9-18.3,42.9-42.6C505.1,439.2,486.7,420.9,462.2,420.9"/>
		<path class="st4" d="M462.2,566.9L462.2,566.9c-36.9,0-67.6,30.4-67.6,66.9c0,39.5,30.6,68.4,67.6,68.4c39.9,0,69-28.9,69-68.4
			C531.2,597.3,502,566.9,462.2,566.9"/>
		<path class="st4" d="M858.1,916.7L858.1,916.7c7.7-15.2,9.2-33.5,0-48.7l-47.6-86.7c-13.7-22.8-44.5-32-67.4-18.3
			c-41.5,22.8-86,39.6-133.6,41.1c-89,4.5-187.3-71.5-276.2-79.1c-20-1.5-36.9,7.6-47.6,24.3l-66,118.6c-9.2,15.2-9.2,33.4,0,48.7
			c9.2,13.7,24.5,22.8,42.9,22.8h552.6C833.5,939.5,848.9,930.4,858.1,916.7"/>
	</g>
</g>
<g id="Capa_5" class="st0">
	<g class="st1">
		<path class="st2" d="M528.2,929.2L658.6,686l-2-4.1l-44.8-68.6l-24.5-25c-83.6-79-191.6-97.7-244.5-101.8h-6.1L198.1,744.2
			c-16.3,29.1-24.5,64.5-22.4,99.8c2,66.5,38.7,126.8,97.8,160.1C363.2,1053.9,477.3,1020.7,528.2,929.2"/>
		<path class="st2" d="M355.1,432.4l42.8,8.4c83.5,12.4,195.6,49.9,266.9,158l28.5,41.6l144.7-270.2c18.3-33.3,26.5-68.6,24.5-106
			c-2-70.7-40.8-133-101.9-166.3c-93.7-54-213.9-18.7-264.8,79L355.1,432.4z"/>
		<path class="st4" d="M732,151.8c42.8,22.9,69.3,66.5,71.3,114.3c0,27-4.1,52-16.3,74.8l-99.9,185
			c-73.4-85.2-167.1-122.6-238.4-139.2l97.8-180.9C583.3,137.3,666.8,114.4,732,151.8"/>
	</g>
</g>
<g id="Capa_6">
	<g>
		<path class="st2" d="M507.7,484.3h24.1c16.5,0,28.5,12,28.5,27.1c0,15.1-12,27.1-28.5,27.1h-13.6
			C522.8,523.5,513.8,497.9,507.7,484.3"/>
		<path class="st4" d="M360.3,538.5l4.5-234.6c9-3,34.6-10.6,72.2-12.1l54.2,188.1c10.5,22.5,18,51.1,13.5,57.1c0,0,0,1.6-1.5,1.6
			H360.3z"/>
		<g>
			<path class="st2" d="M411.5,610.7c0,132.4-1.6,263.2-7.6,395.6c-3,66.3,112.9,66.3,115.9,0c6-118.8,7.5-151.9,7.5-270.7h16.5
				c0,118.8,1.5,151.9,6,270.7c3,66.3,118.8,66.3,115.8,0c-6-132.4-7.5-263.2-7.5-395.6V358h15v227.2v7.5c0,16.6,15,30.1,33.1,30.1
				c18,0,33.1-13.5,33.1-30.1V379c-9.1-88.7-115.9-88.7-120.4-88.7H450.6l51.1,180.5h30.1c24,0,42.1,18,42.1,40.6
				c0,21.1-18,39.1-42.1,39.1H411.5V610.7z"/>
			<path class="st2" d="M534.8,79.7c57.1,0,102.3,42.1,102.3,94.8c0,52.6-45.2,94.8-102.3,94.8c-55.7,0-102.3-42.2-102.3-94.8
				C432.5,121.9,479.2,79.7,534.8,79.7"/>
			<path class="st2" d="M345.3,538.5h-4.5c-9,0-15-3-19.6-6c-9-9-9-19.6-9-22.6V365.6c0-1.5,4.5-33.2,37.6-54.2L345.3,538.5z"/>
		</g>
	</g>
</g>
<g id="Lineas">
</g>
</svg>
