<?xml version="1.0" encoding="utf-8"?>
<!-- Generator: Adobe Illustrator 22.0.1, SVG Export Plug-In . SVG Version: 6.00 Build 0)  -->
<svg version="1.1" xmlns="http://www.w3.org/2000/svg" xmlns:xlink="http://www.w3.org/1999/xlink" x="0px" y="0px"
	 viewBox="0 0 1080 1080" style="enable-background:new 0 0 1080 1080;" xml:space="preserve">
<style type="text/css">
	.st0{display:none;}
	.st1{display:inline;}
	.st2{fill:#002B54;}
	.st3{fill:#FFFFFF;}
	.st4{fill:#00D9B2;}
	.st5{display:inline;fill:#002B54;}
	.st6{display:inline;fill:#002B54;stroke:#FFFFFF;stroke-width:8.5039;stroke-miterlimit:10;}
	.st7{display:inline;fill:#00D9B2;}
	.st8{fill:#00DAB4;}
</style>
<g id="Capa_1" class="st0">
	<g class="st1">
		<path class="st2" d="M735,647.1c57.5-6.1,113.5-36.3,161.8-89.2c7.6-9.1,9.1-18.2,7.6-28.8c65-78.6,104.3-186,104.3-269.2
			c0-128.5-60.4-142.1-163.2-163.3v-1.5c-7.6-12.1-19.7-19.7-34.8-19.7c-21.1,0-37.8,16.6-37.8,36.3c0,19.7,16.7,36.3,37.8,36.3
			c9.1,0,16.7-3,22.7-9.1l1.5,1.5c99.8,21.2,125.6,25.7,125.6,119.4c0,72.6-36.3,170.9-93.8,242c-9.1,0-18.1,3-25.7,10.6
			c-28.6,31.8-75.5,69.5-130,69.5c-56,0-101.2-37.8-130-68c-7.6-7.6-16.7-12.1-25.7-12.1c-57.4-71.1-95.2-169.4-95.2-242
			c0-93.7,27.2-98.3,127-119.4V139c6.1,6,15.1,9.1,24.2,9.1c21.2,0,37.8-16.6,37.8-36.3c0-19.7-16.7-36.3-37.8-36.3
			c-16.6,0-28.6,7.6-34.8,19.7h-1.5C473.5,117.9,411.5,130,411.5,260c0,83.2,39.3,190.6,105.7,270.7c-1.5,9.1,0,19.7,7.6,27.2
			c48.3,51.4,102.8,81.6,158.8,89.2l-1.6,163.3c0,111.9-98.2,202.7-217.8,202.7c-119.4,0-216.2-90.7-216.2-202.7V666.8
			c69.6-10.6,122.5-65,122.5-133.1c0-75.6-66.6-136.1-148.2-136.1c-80.1,0-146.6,60.5-146.6,136.1c0,68.1,54.4,122.5,122.4,133.1
			v143.6c0,136.1,119.5,246.5,266.1,246.5c148.3,0,267.7-110.4,267.7-246.5V647.1H735z"/>
		<path class="st3" d="M222.4,624.5L222.4,624.5c54.5,0,98.4-40.9,98.4-90.7c0-51.4-43.9-90.7-98.4-90.7
			c-52.9,0-96.8,39.3-96.8,90.7C125.7,583.6,169.5,624.5,222.4,624.5"/>
		<path class="st4" d="M221,465.7L221,465.7c39.3,0,71.1,30.2,71.1,68c0,37.8-31.8,69.6-71.1,69.6c-40.9,0-71.1-31.8-71.1-69.6
			C149.9,495.9,180.1,465.7,221,465.7"/>
	</g>
</g>
<g id="ambulancia" class="st0">
	<g class="st1">
		<path class="st2" d="M760.1,520.6h-87.1v86.5h-84.1v-86.5h-87.1v-83.3h87.1v-86.6h84.1v86.6h87.1V520.6z M372.2,479H180.5
			l24.2-95.2c0.9-3,2.6-8.9,5.6-19.5c9.3-47.2,62.9-43.1,62.9-43.1h99.1L372.2,479z M916.4,266.8H422.3v-4
			c0-25.3-20.6-45.7-46.1-45.7c-25.5,0-46.2,20.4-46.2,45.7v4h-28.2c-77.7,0-148.7,35-176.1,139.7l-47,194.3
			c0,61.4,39.9,113.4,95.4,132.2c-0.8-5.2-1.4-10.3-1.4-15.6c0-55.7,45.7-101,101.8-101c56.2,0,101.8,45.3,101.8,101
			c0,8-1,15.8-2.9,23.3h311.1c-1.8-7.5-2.9-15.3-2.9-23.3c0-55.7,45.6-101,101.7-101c56.1,0,101.8,45.3,101.8,101
			c0,7.7-0.9,15.4-2.7,22.7c71.8-6.6,128-66.4,128-139.2V406.6C1010.4,329.5,994.2,266.8,916.4,266.8"/>
		<path class="st4" d="M353.2,720.6c0,43.9-35.8,79.5-80,79.5c-44.2,0-80-35.6-80-79.5c0-43.8,35.8-79.4,80-79.4
			C317.3,641.2,353.2,676.8,353.2,720.6"/>
		<path class="st4" d="M867.4,720.6c0,43.9-35.8,79.5-80,79.5c-44.1,0-80-35.6-80-79.5c0-43.8,35.9-79.4,80-79.4
			C831.6,641.2,867.4,676.8,867.4,720.6"/>
	</g>
</g>
<g id="laboratorio" class="st0">
	<g class="st1">
		<path class="st2" d="M984,872.6c20,38.1,18.4,82.1-3.1,117.1c-21.5,35-59.9,57.8-102.8,57.8H199.7c-42.9,0-81.3-22.8-102.8-57.8
			c-21.6-35-21.6-79-3.1-117.1l262.4-479V109.2c0-27.4,21.6-50.2,49.2-50.2h267c27.6,0,50.6,22.8,50.6,50.2v284.4L984,872.6z"/>
		<path class="st4" d="M583.3,673.4L583.3,673.4c-24.5,0-42.9,18.3-42.9,41.1c0,22.9,18.4,42.6,42.9,42.6
			c23.1,0,41.5-19.7,41.5-42.6C624.8,691.7,606.4,673.4,583.3,673.4"/>
		<path class="st4" d="M462.2,420.9L462.2,420.9c-23.1,0-41.5,18.3-41.5,41.1c0,24.3,18.4,42.6,41.5,42.6
			c24.5,0,42.9-18.3,42.9-42.6C505.1,439.2,486.7,420.9,462.2,420.9"/>
		<path class="st4" d="M462.2,566.9L462.2,566.9c-36.9,0-67.6,30.4-67.6,66.9c0,39.5,30.6,68.4,67.6,68.4c39.9,0,69-28.9,69-68.4
			C531.2,597.3,502,566.9,462.2,566.9"/>
		<path class="st4" d="M858.1,916.7L858.1,916.7c7.7-15.2,9.2-33.5,0-48.7l-47.6-86.7c-13.7-22.8-44.5-32-67.4-18.3
			c-41.5,22.8-86,39.6-133.6,41.1c-89,4.5-187.3-71.5-276.2-79.1c-20-1.5-36.9,7.6-47.6,24.3l-66,118.6c-9.2,15.2-9.2,33.4,0,48.7
			c9.2,13.7,24.5,22.8,42.9,22.8h552.6C833.5,939.5,848.9,930.4,858.1,916.7"/>
	</g>
</g>
<g id="Capa_5">
	<g>
		<path class="st2" d="M-497.2,886.8l130.4-243.2l-2-4.1l-44.8-68.6l-24.5-25c-83.6-79-191.6-97.7-244.5-101.8h-6.1l-138.6,257.7
			c-16.3,29.1-24.5,64.5-22.4,99.8c2,66.5,38.7,126.8,97.8,160.1C-662.2,1011.5-548.1,978.3-497.2,886.8"/>
		<path class="st2" d="M-670.4,390l42.8,8.4c83.5,12.4,195.6,49.9,266.9,158l28.5,41.6l144.7-270.2c18.3-33.3,26.5-68.6,24.5-106
			c-2-70.7-40.8-133-101.9-166.3c-93.7-54-213.9-18.7-264.8,79L-670.4,390z"/>
		<path class="st4" d="M-293.4,109.5c42.8,22.9,69.3,66.5,71.3,114.3c0,27-4.1,52-16.3,74.8l-99.9,185
			c-73.4-85.2-167.1-122.6-238.4-139.2l97.8-180.9C-442.1,94.9-358.6,72-293.4,109.5"/>
	</g>
</g>
<g id="Capa_6" class="st0">
	<g class="st1">
		<path class="st2" d="M507.7,484.3h24.1c16.5,0,28.5,12,28.5,27.1c0,15.1-12,27.1-28.5,27.1h-13.6
			C522.8,523.5,513.8,497.9,507.7,484.3"/>
		<path class="st4" d="M360.3,538.5l4.5-234.6c9-3,34.6-10.6,72.2-12.1l54.2,188.1c10.5,22.5,18,51.1,13.5,57.1c0,0,0,1.6-1.5,1.6
			H360.3z"/>
		<g>
			<path class="st2" d="M411.5,610.7c0,132.4-1.6,263.2-7.6,395.6c-3,66.3,112.9,66.3,115.9,0c6-118.8,7.5-151.9,7.5-270.7h16.5
				c0,118.8,1.5,151.9,6,270.7c3,66.3,118.8,66.3,115.8,0c-6-132.4-7.5-263.2-7.5-395.6V358h15v227.2v7.5c0,16.6,15,30.1,33.1,30.1
				c18,0,33.1-13.5,33.1-30.1V379c-9.1-88.7-115.9-88.7-120.4-88.7H450.6l51.1,180.5h30.1c24,0,42.1,18,42.1,40.6
				c0,21.1-18,39.1-42.1,39.1H411.5V610.7z"/>
			<path class="st2" d="M534.8,79.7c57.1,0,102.3,42.1,102.3,94.8c0,52.6-45.2,94.8-102.3,94.8c-55.7,0-102.3-42.2-102.3-94.8
				C432.5,121.9,479.2,79.7,534.8,79.7"/>
			<path class="st2" d="M345.3,538.5h-4.5c-9,0-15-3-19.6-6c-9-9-9-19.6-9-22.6V365.6c0-1.5,4.5-33.2,37.6-54.2L345.3,538.5z"/>
		</g>
	</g>
</g>
<g id="Capa_8" class="st0">
	<g class="st1">
		<g>
			<path class="st2" d="M624.9,140.8c-8.2,2.9-10.4,13.4-4.3,19.5l39.2,39.2c33.3,33.3-17,83.7-50.4,50.4
				c-71.2-71-64.4-64.2-66.3-66.3C363.6,44.1,95,165.6,87.6,397.5c-2.2,70.3,21.2,138.7,66,192.8c31.6,38.1,155.5,336.6,169.2,355.3
				c33.5,45.6,104.6,33.7,121.8-20.3C466.6,856.5,506,812.1,545,812.1c39,0,78.4,44.4,100.4,113.2c19.9,62.4,104,61.3,125.5,13.9
				c155.1-340.7,145.5-324.8,165.5-348.9C1120.2,368.6,895.7,43.5,624.9,140.8z M308.2,462.1c19.3,23.3,2.5,58.4-27.4,58.4
				c-49.7,0-102.8-137.1-20.4-220.7c13.8-14,36.4-14.2,50.4-0.4c14,13.8,14.2,36.4,0.4,50.4C281.9,379.5,280.6,428.8,308.2,462.1z"
				/>
		</g>
	</g>
</g>
<g id="HOSPITALIZACIÓN_Y_CIRUGÍA" class="st0">
	<path class="st5" d="M488.8,172.7c16.8-50.5,85.7-52.8,107.3-6.9l2.7,6.9l176.9,530.9l61-182.9c7.2-21.5,26.1-36.7,48.3-39.3
		l6.7-0.4h58c32,0,58,26,58,58c0,29.7-22.4,54.3-51.2,57.6l-6.8,0.4h-16.2L830.8,905.3c-16.8,50.5-85.7,52.8-107.3,6.9l-2.7-6.9
		L543.8,374.3l-119,356.9c-16.3,48.9-82.4,53.1-105.8,9.7l-3-6.5l-64.4-160.9l-4.1,5.1c-9.2,9.9-21.7,16.3-35.4,18l-6.9,0.4h-67.3
		c-32,0-58-26-58-58c0-29.7,22.4-54.3,51.2-57.6l6.8-0.4h28.7l33.8-80.4c19.1-45.5,81.7-47.2,104.2-5.6l3.1,6.6l57.2,143
		L488.8,172.7z"/>
</g>
<g id="ATENCIÓN_EN_CASA" class="st0">
	<path class="st5" d="M787.7,202.9v143.8c0,9.7-7.9,17.6-17.6,17.6c-9.7,0-17.6-7.9-17.6-17.6V202.9c0-40.4-32.6-73.3-72.7-73.3
		H398.4c-40.1,0-72.7,32.9-72.7,73.3v143.8c0,9.7-7.9,17.6-17.6,17.6c-9.7,0-17.6-7.9-17.6-17.6V202.9
		c0-59.8,48.4-108.5,107.9-108.5h281.4C739.3,94.5,787.7,143.1,787.7,202.9z"/>
	<path class="st6" d="M216.3,315.3h645.6c69.8,0,127,57.5,127,127.8v423.2c0,70.3-57.2,127.8-127,127.8H216.3
		c-69.8,0-127-57.5-127-127.8V443.1C89.3,372.8,146.5,315.3,216.3,315.3L216.3,315.3z"/>
	<path class="st6" d="M988.9,654.7v211.6c0,70.3-57.2,127.8-127,127.8H216.3c-69.8,0-127-57.5-127-127.8V654.7H988.9z"/>
	<path class="st7" d="M377.1,586.4h94.2v-94.7c0-14.2,11.6-25.9,25.7-25.9h84.3c14.2,0,25.7,11.6,25.7,25.9v94.7h94.2
		c14.1,0,25.7,11.6,25.7,25.9v84.8c0,14.2-11.6,25.9-25.7,25.9H607v94.7c0,14.2-11.6,25.9-25.7,25.9H497
		c-14.2,0-25.7-11.6-25.7-25.9V723h-94.2c-14.1,0-25.7-11.6-25.7-25.9v-84.8C351.4,598,362.9,586.4,377.1,586.4L377.1,586.4z"/>
	<path class="st7" d="M726.9,654.7v42.4c0,14.2-11.6,25.9-25.7,25.9H607v94.7c0,14.2-11.6,25.9-25.7,25.9H497
		c-14.2,0-25.7-11.6-25.7-25.9V723h-94.2c-14.1,0-25.7-11.6-25.7-25.9v-42.4H726.9z"/>
</g>
<g id="RAYOS_X" class="st0">
	<path id="XMLID_9_" class="st5" d="M807.9,898.5c0,24.2-19.8,43.6-43.6,43.6c-24.2,0-43.6-19.4-43.6-43.6v-38.1h87.6v38.1H807.9z
		 M692.5,860.4H402.2v142.2h124.6v-61.2h41.8v61.2h124.2V860.4H692.5z M373.3,860.4h-87.6v38.1c0,24.2,19.8,43.6,43.6,43.6
		c24.2,0,43.6-19.4,43.6-43.6v-38.1H373.3z M547,80.5c-62.3,0-112.9,50.6-112.9,112.9S484.7,306.3,547,306.3s112.9-50.6,112.9-112.9
		S609.3,80.5,547,80.5 M868.4,440.7H225.6v375.6h642.8V440.7z M767.9,785.6H328.2V471.5h439.8V785.6z M651.8,657.3
		c4.8,0,8.8-4,8.8-8.8c0-4.8-4-8.8-8.8-8.8h-83.6v-27.5h94.5c4.8,0,8.8-4,8.8-8.8c0-4.8-4-8.8-8.8-8.8h-94.5v-27.5h88.7
		c4.8,0,8.8-4,8.8-8.8c0-4.8-4-8.8-8.8-8.8h-88.7v-27.5h69.3c4.8,0,8.8-4,8.8-8.8c0-4.8-4-8.8-8.8-8.8h-69.3v-15.4h-42.9v15.4h-69.3
		c-4.8,0-8.8,4-8.8,8.8c0,4.8,4,8.8,8.8,8.8h69.3v27.5h-88.7c-4.8,0-8.8,4-8.8,8.8c0,4.8,4,8.8,8.8,8.8H525v27.5h-93.8
		c-4.8,0-8.8,4-8.8,8.8c0,4.8,4,8.8,8.8,8.8h94.2v27.5h-83.9c-4.8,0-8.8,4-8.8,8.8c0,4.8,4,8.8,8.8,8.8H525v27.5h-80.6
		c-3.3,0-8.4,2.9-8.4,8.1c0,46.9,4.4,68.9,29.3,68.9c26.8,0,31.1-57.2,59.7-59.4v53.1h42.9v-53.1c27.1,3.7,32.6,59.4,58.3,59.4
		c24.6,0,30.8-22,30.8-68.9c0-5.1-4.8-8.1-8.4-8.1h-80.6v-27.5H651.8z M678.5,334.1H419.1c-46.9,0-90.5,24.9-114.7,62.3h485.6
		C766.8,359.4,725.4,334.1,678.5,334.1"/>
</g>
<g id="Capa_12">
	<path class="st4" d="M403.2,999.1h288.6c49,0,89.1-40.1,89.1-89.1V192.5c0-49-40.1-89.1-89.1-89.1H403.2c-49,0-89.1,40.1-89.1,89.1
		v717.6C314.1,959.1,354.2,999.1,403.2,999.1z"/>
	<g>
		<g>
			<path class="st3" d="M673.9,810.6H418.4c-23,0-41.9-18.8-41.9-41.9v-490c0-23,18.8-41.9,41.9-41.9h255.4
				c23,0,41.9,18.8,41.9,41.9v490C715.7,791.8,696.9,810.6,673.9,810.6z"/>
			<path class="st2" d="M697,82.2H397.2c-48.9,0-104.6,58.1-104.6,109v714.2c0,50.9,55.7,109,104.6,109H697
				c48.9,0,104.6-58.1,104.6-109V191.2C801.6,140.3,745.9,82.2,697,82.2z M777.6,905.4c0,38.9-43.7,85-80.6,85H397.2
				c-36.9,0-80.6-46.1-80.6-85V191.2c0-38.9,43.7-85,80.6-85H697c36.9,0,80.6,46.1,80.6,85V905.4z"/>
			<path class="st2" d="M547.1,849.6c-30.2,0-54.8,24.6-54.8,54.8s24.6,54.8,54.8,54.8c30.2,0,54.8-24.6,54.8-54.8
				S577.4,849.6,547.1,849.6z M547.1,951.2c-25.8,0-46.8-21-46.8-46.8c0-25.8,21-46.8,46.8-46.8c25.8,0,46.8,21,46.8,46.8
				C593.9,930.2,572.9,951.2,547.1,951.2z"/>
			<path class="st2" d="M684.9,229.3H409.4c-21,0-38,17-38,38V777c0,20.9,17,38,38,38h275.5c20.9,0,38-17,38-38V267.2
				C722.9,246.3,705.8,229.3,684.9,229.3z M710.9,777c0,14.3-11.7,26-26,26H409.4c-14.3,0-26-11.7-26-26V267.2c0-14.3,11.7-26,26-26
				h275.5c14.3,0,26,11.7,26,26V777L710.9,777z"/>
			<circle class="st2" cx="470.7" cy="175.5" r="10"/>
			<circle class="st2" cx="537.1" cy="175.5" r="10"/>
			<circle class="st2" cx="603.5" cy="175.5" r="10"/>
		</g>
	</g>
	<g>
		<circle class="st2" cx="549.3" cy="434.6" r="8.9"/>
		<path class="st2" d="M706.1,798.8v-15.3c0-35-9.3-62-27.7-80.3c-23.5-23.3-52.9-23.3-54.1-23.3h-37.4v-22.6c0-0.4,0-0.8-0.1-1.2
			c23.9-9.9,39-26.4,48.2-40.7c14.4-22.3,17.6-43.7,17.7-44.6c0.1-0.4,0.1-0.7,0.1-1.1v-1.6c5.2-1.3,9.8-4,13.4-8
			c10.6-11.7,9.9-30.1,9.2-37.5c-0.6-5.6-3.1-10.3-7.4-13.6c-3-2.4-6.6-3.7-10-4.5v-73.7c0-24.5-10.1-40.9-31-50.1
			c-8.5-3.7-6.2-11.9-5.4-14.2c1.3-3.3,0.1-7-2.9-9c-3-1.9-6.9-1.5-9.4,1c-11.8,12-24.3,11.7-47,11.1c-15.8-0.4-35.5-0.9-61.4,2.8
			c-35.6,5.1-51.4,27.1-58.3,44.6c-7,17.6-6.6,34-6.5,36.3v48.8c0,0.8,0.1,1.6,0.4,2.3c-3.5,0.7-7.3,2.1-10.4,4.6
			c-4.2,3.3-6.8,8-7.4,13.6c-0.8,7.4-1.4,25.8,9.2,37.5c3.7,4.1,8.3,6.8,13.6,8v1.6c0,0.4,0,0.7,0.1,1.1c0.1,0.9,3.4,22.3,17.7,44.6
			c9.2,14.3,24.3,30.8,48.2,40.7c-0.1,0.4-0.1,0.8-0.1,1.2v22.6h-37.3c-1.2,0-30.7,0.1-54.2,23.3c-18.4,18.3-27.7,45.3-27.7,80.3
			v15.3c0,0,20.2,15.5,24.3,15.5l257.3-0.7C674.1,813.7,706.1,798.8,706.1,798.8z M632.1,445.7c-0.4-0.4-2.3-1.8-6.2-3.6h17.3v34.6
			l-8.3-7.8v-17.3C634.9,449.3,633.9,447.2,632.1,445.7z M660.6,524.2c0.9,8.7-0.1,20.1-5.4,26c-0.7,0.8-1.5,1.4-2.3,2v-33.4
			c2.3,0.3,4.6,0.9,6.1,2C659.7,521.4,660.4,522.2,660.6,524.2z M503.2,387.2c24.7-3.5,43.7-3,58.9-2.7c17.9,0.5,32.1,0.8,44.9-5.8
			c1.8,6.1,6,12,14.1,15.5c14.5,6.4,21.2,16.3,22,32.9h-53.3c-3.5-19.2-20.3-33.7-40.5-33.7c-20.2,0-37,14.6-40.5,33.7h-54
			C460.1,410.7,472.9,391.6,503.2,387.2z M451.2,477v-23.8c0-0.1,0-0.3,0-0.4c0-0.6-0.2-4.7,0.5-10.7h17.1c-3.9,1.8-5.8,3.3-6.2,3.6
			c-1.7,1.4-2.7,3.5-2.7,5.8v17.3L451.2,477z M575.6,434.6c0,14.5-11.8,26.3-26.3,26.3c-14.5,0-26.3-11.8-26.3-26.3
			s11.8-26.3,26.3-26.3C563.8,408.4,575.6,420.2,575.6,434.6z M439.1,550.2c-5.3-5.9-6.3-17.3-5.4-26c0.2-2,1-2.8,1.7-3.4
			c1.5-1.2,3.9-1.8,6.3-2v33.5C440.7,551.7,439.9,551,439.1,550.2z M472.2,607.9c-11.7-17.9-15.2-35.6-15.7-38.7v-76.7l15.9-14.9
			c1.5-1.4,2.3-3.4,2.3-5.4v-16.3c4.6-2.2,15.2-6.3,35.3-8.7c5.3,16.6,20.9,28.7,39.2,28.7c18.2,0,33.7-11.9,39.1-28.3
			c17.7,2.4,27.3,6.1,31.6,8.2v16.3c0,2.1,0.8,4,2.3,5.4l15.6,14.7v77c-0.5,3.1-4.1,20.8-15.7,38.7c-16.7,25.7-41.7,39.8-74.3,41.9
			h-1.4C514,647.6,489,633.5,472.2,607.9z M545.8,664.7c0.2,0,0.3,0,0.5,0h1.9c0.2,0,0.3,0,0.5,0c8.5-0.5,16.2-1.8,23.3-3.6v26.3
			c0,3,1.8,5.6,4.4,6.8l-31,31.9l-27.9-31.7c2.9-1,5-3.8,5-7v-26.3C529.6,662.9,537.4,664.2,545.8,664.7z M403.3,783.5
			c0-87.7,64.2-88.7,66.9-88.7H498l41.6,47.2c1.4,1.6,3.3,2.5,5.4,2.5c0.1,0,0.1,0,0.2,0c2,0,3.9-0.8,5.4-2.3l46.1-47.4h27.8
			c0.3,0,24.4,0,43.5,19c15.5,15.4,23.3,38.8,23.3,69.7v15.3H509.6v-41.9c0-4.1-3.3-7.5-7.5-7.5h-66.3c-4.1,0-7.5,3.3-7.5,7.5v41.9
			h-25.1V783.5z M494.7,772.6h-51.4v-8.3h51.4V772.6z M443.3,787.6h51.4v11.3h-51.4C443.3,798.8,443.3,787.6,443.3,787.6z"/>
		<circle class="st2" cx="494.3" cy="507.8" r="8.9"/>
		<circle class="st2" cx="600.2" cy="507.8" r="8.9"/>
		<path class="st2" d="M545.3,560.2h3.8c9.6,0,17.5-7.6,17.9-17.1c0-0.3,0-0.5,0-0.8v-43.4c0-4.1-3.3-7.5-7.5-7.5s-7.5,3.3-7.5,7.5
			v43.4c0,1.6-1.3,3-3,3h-3.8c-1.6,0-3-1.3-3-3c0-4.1-3.3-7.5-7.5-7.5s-7.5,3.3-7.5,7.5C527.4,552.2,535.4,560.2,545.3,560.2z"/>
		<path class="st2" d="M593.5,600c2.6-3.2,2.1-7.9-1.1-10.5c-3.2-2.6-7.9-2.1-10.5,1.1c-0.1,0.1-9,9.9-32.8,9.9
			c-24.7,0-36.7-10.2-37.3-10.8c-3-2.7-7.7-2.5-10.5,0.5c-2.8,3-2.6,7.8,0.5,10.5c0.7,0.6,16.4,14.6,47.3,14.6
			C580.1,615.4,592.2,601.6,593.5,600z"/>
	</g>
</g>
<g id="Capa_7" class="st0">
	<g class="st1">
		<path class="st8" d="M628.6,423.5c0,50.9-0.1,101.9,0.1,152.8c0.1,26.1,21.1,42,46.3,35.6c14.8-3.8,24.3-15.3,25.3-30.6
			c0-0.4,0-0.7,0-1.1c0.7-98.9,2.2-197.7,1.7-296.6c-0.4-92.7-63.1-131.2-128.3-142.7c-26.9-4.7-53.7-3.5-80,4.2
			c-59.4,17.3-97.5,64.6-100.1,126.3c-1.3,31-0.9,62.2-0.2,93.3c0.6,27,22.5,42,48,34.2c15.6-4.7,24.4-17,24.1-35.1
			c-0.4-20.6-2-41.2-2.2-61.7c-0.1-11.2,0.9-22.4,2.5-33.5c4.3-28.6,20.5-46.6,49.1-52.8c27.7-6.1,55-5.8,81.4,5.7
			c20.8,9.1,32.2,24.9,32.2,48.1C628.6,320.9,628.6,372.2,628.6,423.5z"/>
		<path class="st3" d="M465.8,745.5c0-46.8,0.2-93.6-0.1-140.5c-0.1-28.4-25.1-45-51.3-34.5c-11.2,4.5-18.5,12.6-20.3,24.8
			c-0.7,4.8-1.1,9.7-1.1,14.5c-0.8,82-1.8,164-2,246.1c-0.1,17.5,1.6,35.2,4.1,52.5c3.6,25.3,15.8,46.4,34,64.3
			c57,56.3,159.9,62.7,223.3,13.5c29.1-22.6,45.5-52.2,47.5-89.2c1.2-22.4,1.7-44.9,1.8-67.4c0.1-23.9-13.9-38.3-36-38.3
			c-22.4,0-36.8,15.1-36.6,39.2c0.1,15,1.5,30,1.1,44.9c-1.1,40.3-18.9,61.6-58.4,69c-25.5,4.8-50.8,2.7-74.4-9.5
			c-20.7-10.7-31.9-27.3-31.7-51.3C466,837.6,465.8,791.6,465.8,745.5z"/>
		<path class="st8" d="M816.5,512.4c14.6,0,29.2,0,43.8,0c43,0,67,20,73.4,62.6c3.2,21.7,1.2,43.4-6.9,64.1
			c-8.9,22.7-24.5,36.4-49.9,36.4c-35.6,0-71.2,0-106.8,0.2c-19.3,0.1-31.1,9.9-34.9,28.3c-4.9,23.3,10.5,42.9,34.3,43.6
			c30.7,0.8,61.4,2.4,92.1,2.1c94.2-1.2,158.2-77.4,145-171.1c-4.5-32.1-13.8-62-33.1-88.4c-23-31.3-54.4-48.4-92.7-49.9
			c-41.9-1.6-83.9-0.8-125.8,0c-20.2,0.4-32.7,15.8-32.4,36.9c0.3,20.4,13,34.3,33.2,34.9C776.1,512.8,796.3,512.3,816.5,512.4
			C816.5,512.3,816.5,512.4,816.5,512.4z"/>
		<path class="st3" d="M275.6,512.1c18,0,36,0.2,53.9,0c23.3-0.3,37.3-13.7,37.4-35.5c0.1-21.7-14.3-35.9-36.9-36.4
			c-31.8-0.8-63.6-2.4-95.4-2.2c-100.3,0.8-166.3,79.7-151.4,179.4c5,33.3,15.6,63.9,38.2,89.4c26.7,30.2,61.9,41.4,100.4,42.4
			c34,0.8,68.1-0.6,102.2-2c18.5-0.7,30.9-16.4,30.5-36.4c-0.4-20.1-13.1-34.5-32.1-34.7c-29.6-0.4-59.2-0.1-88.8,0.3
			c-50.8,0.7-76.5-22.1-79.5-73c-0.8-13.9,1.1-28.6,4.9-42c9.6-33.9,30.7-48.9,66-49.1C241.9,512.1,258.7,512.1,275.6,512.1z"/>
		<path class="st3" d="M628.3,712.3c0,21.5,13.8,35.8,34.5,35.9c20.8,0.1,34.9-14.2,35-35.4c0.1-21.8-14.2-36.8-35.1-36.6
			C642.3,676.2,628.3,690.9,628.3,712.3z"/>
		<path class="st3" d="M464,476.6c0.1-21.4-13.8-36.2-34.2-36.4c-20.2-0.2-34.9,14.8-35.1,35.7c-0.1,21.4,13.7,35.9,34.4,36.1
			C450,512.2,463.9,498.1,464,476.6z"/>
	</g>
</g>
<g id="Lineas">
</g>
</svg>
