<?xml version="1.0" encoding="utf-8"?>
<!-- Generator: Adobe Illustrator 22.0.1, SVG Export Plug-In . SVG Version: 6.00 Build 0)  -->
<svg version="1.1" xmlns="http://www.w3.org/2000/svg" xmlns:xlink="http://www.w3.org/1999/xlink" x="0px" y="0px"
	 viewBox="0 0 1080 1080" style="enable-background:new 0 0 1080 1080;" xml:space="preserve">
<style type="text/css">
	.st0{fillRule:evenodd;clipRule:evenodd;fill:#FFFFFF;}
</style>
<g id="Capa_1">
	<g>
		<path class="st0" d="M540,8.6C248.4,8.6,11.2,245.8,11.2,537.4C11.2,640,40.3,738.5,95.6,824l-80.3,177
			c-7.4,16.3-4.7,35.4,6.9,49.1c8.9,10.4,21.8,16.2,35.1,16.2c4.1,0,8.2-0.5,12.2-1.6l221.3-60.7c76.4,40.9,162.1,62.4,249.1,62.4
			c291.6,0,528.8-237.2,528.8-528.8C1068.8,245.8,831.6,8.6,540,8.6z M540,973.9c-77.2,0-153.2-20.5-219.8-59.4
			c-7.1-4.2-15.2-6.3-23.3-6.3c-4.1,0-8.2,0.5-12.2,1.6l-144.6,39.7l50.4-110.9c6.8-15.1,5.1-32.7-4.6-46.1
			c-53.9-74.7-82.3-162.8-82.3-255C103.5,296.8,299.3,101,540,101c240.7,0,436.5,195.8,436.5,436.4
			C976.4,778.1,780.7,973.9,540,973.9z"/>
		<path class="st0" d="M743.3,616.6c-22.1-13.2-51-28-77.1-17.4c-20,8.2-32.8,39.5-45.8,55.5c-6.7,8.2-14.6,9.5-24.8,5.4
			C520.5,630.2,463,580.1,421.5,511c-7-10.7-5.8-19.2,2.7-29.2c12.5-14.7,28.3-31.5,31.6-51.4c3.4-19.9-5.9-43.1-14.1-60.8
			c-10.5-22.6-22.2-54.9-44.9-67.6c-20.8-11.8-48.3-5.2-66.8,9.9c-32,26.1-47.5,66.9-47,107.4c0.1,11.5,1.5,23,4.2,34.1
			c6.5,26.7,18.8,51.7,32.7,75.4c10.5,17.9,21.9,35.2,34.1,51.9c40.2,54.6,90.2,102,148.1,137.5c28.9,17.7,60.1,33.3,92.3,43.9
			c36.2,12,68.4,24.4,107.5,17c40.9-7.8,81.2-33.1,97.5-72.5c4.8-11.7,7.2-24.7,4.5-37C798.4,644.1,763.9,628.9,743.3,616.6z"/>
	</g>
</g>
<g id="Capa_2">
</g>
</svg>
